<?xml version="1.0" encoding="UTF-8" standalone="no"?>
<svg xmlns:xlink="http://www.w3.org/1999/xlink" height="100.2px" width="100.2px" xmlns="http://www.w3.org/2000/svg">
  <g transform="matrix(1.0, 0.0, 0.0, 1.0, 159.95, 104.75)">
    <path d="M-157.0 -71.15 Q-163.85 -51.65 -154.85 -32.95 -145.85 -14.35 -126.35 -7.5 -106.85 -0.65 -88.15 -9.65 -82.0 -12.65 -76.1 -17.6 -72.9 -20.5 -70.25 -23.95 -65.5 -30.15 -62.7 -38.15 -59.9 -46.15 -59.75 -53.95 -59.65 -58.25 -60.6 -63.85 -61.9 -70.15 -64.85 -76.3 -73.85 -94.95 -93.35 -101.8 -112.85 -108.65 -131.5 -99.65 -150.15 -90.65 -157.0 -71.15" fill="#666666" fill-rule="evenodd" stroke="none">
      <animate attributeName="fill" dur="2s" repeatCount="indefinite" values="#666666;#666667"/>
      <animate attributeName="fill-opacity" dur="2s" repeatCount="indefinite" values="1.0;1.0"/>
      <animate attributeName="d" dur="2s" repeatCount="indefinite" values="M-157.0 -71.15 Q-163.85 -51.65 -154.85 -32.95 -145.85 -14.35 -126.35 -7.5 -106.85 -0.65 -88.15 -9.65 -82.0 -12.65 -76.1 -17.6 -72.9 -20.5 -70.25 -23.95 -65.5 -30.15 -62.7 -38.15 -59.9 -46.15 -59.75 -53.95 -59.65 -58.25 -60.6 -63.85 -61.9 -70.15 -64.85 -76.3 -73.85 -94.95 -93.35 -101.8 -112.85 -108.65 -131.5 -99.65 -150.15 -90.65 -157.0 -71.15;M-151.0 -63.05 Q-156.8 -58.4 -143.75 -43.65 -130.7 -28.95 -118.75 -14.8 -106.8 -0.65 -88.15 -9.65 -82.0 -12.65 -76.1 -17.6 -72.9 -20.5 -70.25 -23.95 -65.5 -30.15 -62.7 -38.15 -59.9 -46.15 -59.75 -53.95 -59.65 -58.25 -60.6 -63.85 -61.9 -70.15 -64.85 -76.3 -73.85 -94.95 -89.9 -85.9 -105.95 -76.9 -125.55 -72.3 -145.2 -67.7 -151.0 -63.05"/>
    </path>
    <path d="M-157.0 -71.15 Q-150.15 -90.65 -131.5 -99.65 -112.85 -108.65 -93.35 -101.8 -73.85 -94.95 -64.85 -76.3 -61.9 -70.15 -60.6 -63.85 -59.65 -58.25 -59.75 -53.95 -59.9 -46.15 -62.7 -38.15 -65.5 -30.15 -70.25 -23.95 -72.9 -20.5 -76.1 -17.6 -82.0 -12.65 -88.15 -9.65 -106.85 -0.65 -126.35 -7.5 -145.85 -14.35 -154.85 -32.95 -163.85 -51.65 -157.0 -71.15 -150.15 -90.65 -131.5 -99.65 -112.85 -108.65 -93.35 -101.8 -73.85 -94.95 -64.85 -76.3 -61.9 -70.15 -60.6 -63.85 -59.65 -58.25 -59.75 -53.95 -59.9 -46.15 -62.7 -38.15 -65.5 -30.15 -70.25 -23.95 -72.9 -20.5 -76.1 -17.6 -82.0 -12.65 -88.15 -9.65 -106.85 -0.65 -126.35 -7.5 -145.85 -14.35 -154.85 -32.95 -163.85 -51.65 -157.0 -71.15" fill="none" stroke="#333333" stroke-linecap="round" stroke-linejoin="round" stroke-width="0.05">
      <animate attributeName="stroke" dur="2s" repeatCount="indefinite" values="#333333;#333334"/>
      <animate attributeName="stroke-width" dur="2s" repeatCount="indefinite" values="0.05;0.05"/>
      <animate attributeName="fill-opacity" dur="2s" repeatCount="indefinite" values="1.0;1.0"/>
      <animate attributeName="d" dur="2s" repeatCount="indefinite" values="M-157.0 -71.15 Q-150.15 -90.65 -131.5 -99.65 -112.85 -108.65 -93.35 -101.8 -73.85 -94.95 -64.85 -76.3 -61.9 -70.15 -60.6 -63.85 -59.65 -58.25 -59.75 -53.95 -59.9 -46.15 -62.7 -38.15 -65.5 -30.15 -70.25 -23.95 -72.9 -20.5 -76.1 -17.6 -82.0 -12.65 -88.15 -9.65 -106.85 -0.65 -126.35 -7.5 -145.85 -14.35 -154.85 -32.95 -163.85 -51.65 -157.0 -71.15 -150.15 -90.65 -131.5 -99.65 -112.85 -108.65 -93.35 -101.8 -73.85 -94.95 -64.85 -76.3 -61.9 -70.15 -60.6 -63.85 -59.65 -58.25 -59.75 -53.95 -59.9 -46.15 -62.7 -38.15 -65.5 -30.15 -70.25 -23.95 -72.9 -20.5 -76.1 -17.6 -82.0 -12.65 -88.15 -9.65 -106.85 -0.65 -126.35 -7.5 -145.85 -14.35 -154.85 -32.95 -163.85 -51.65 -157.0 -71.15;M-151.0 -63.05 Q-145.2 -67.7 -125.55 -72.3 -105.95 -76.9 -89.9 -85.9 -73.85 -94.95 -64.85 -76.3 -61.9 -70.15 -60.6 -63.85 -59.65 -58.25 -59.75 -53.95 -59.9 -46.15 -62.7 -38.15 -65.5 -30.15 -70.25 -23.95 -72.9 -20.5 -76.1 -17.6 -82.0 -12.65 -88.15 -9.65 -106.8 -0.65 -118.75 -14.8 -130.7 -28.95 -143.75 -43.65 -156.8 -58.4 -151.0 -63.05 -145.2 -67.7 -125.55 -72.3 -105.95 -76.9 -89.9 -85.9 -73.85 -94.95 -64.85 -76.3 -61.9 -70.15 -60.6 -63.85 -59.65 -58.25 -59.75 -53.95 -59.9 -46.15 -62.7 -38.15 -65.5 -30.15 -70.25 -23.95 -72.9 -20.5 -76.1 -17.6 -82.0 -12.65 -88.15 -9.65 -106.8 -0.65 -118.75 -14.8 -130.7 -28.95 -143.75 -43.65 -156.8 -58.4 -151.0 -63.05"/>
    </path>
  </g>
</svg>
