<?xml version="1.0" encoding="UTF-8" standalone="no"?>
<svg xmlns:xlink="http://www.w3.org/1999/xlink" height="183.75px" width="103.45px" xmlns="http://www.w3.org/2000/svg">
  <g transform="matrix(1.0, 0.0, 0.0, 1.0, 52.15, 94.6)">
    <path d="M4.85 89.05 L4.9 89.1 4.85 89.1 4.85 89.05" fill="#6633cc" fill-rule="evenodd" stroke="none"/>
    <path d="M16.25 -64.35 Q19.4 -63.2 19.25 -54.0 19.45 -50.75 19.9 -47.8 20.8 -41.7 22.7 -36.85 L27.95 -25.95 Q33.0 -14.8 36.95 -3.9 47.25 24.15 27.7 41.05 19.25 49.25 7.85 53.15 L4.0 54.3 -0.95 55.4 -2.05 55.6 Q-5.75 64.3 -6.1 79.6 L-6.15 82.25 4.85 89.05 4.85 89.1 Q-5.3 89.65 -14.9 86.1 L-15.0 85.7 -15.15 84.9 -15.2 84.2 -15.7 81.0 -16.15 78.45 Q-16.9 74.7 -18.0 70.9 L-19.8 64.35 -20.65 61.95 Q-22.85 56.1 -25.85 50.0 L-27.45 48.4 Q-34.85 40.75 -44.1 24.25 -54.65 5.45 -51.35 -19.5 -48.4 -41.65 -22.55 -69.4 L-17.35 -77.75 Q-13.65 -83.35 -10.45 -84.2 -13.6 -78.05 -10.7 -72.65 -8.0 -68.4 -4.4 -65.1 -1.75 -62.6 1.45 -60.65 L4.55 -58.95 Q6.1 -58.25 7.5 -57.85 L9.55 -57.3 Q14.65 -56.35 15.9 -59.95 16.5 -61.65 16.25 -64.35 M-21.9 -21.4 Q-15.05 -19.55 -8.7 -21.5 -3.8 -23.0 0.8 -26.8 -0.25 -31.3 0.8 -35.8 -15.4 -55.55 -28.3 -36.05 -15.4 -55.55 0.8 -35.8 -0.25 -31.3 0.8 -26.8 -3.8 -23.0 -8.7 -21.5 -9.1 -20.0 -12.6 -18.1 -17.0 -15.7 -24.7 -15.7 -17.0 -15.7 -12.6 -18.1 -9.1 -20.0 -8.7 -21.5 -15.05 -19.55 -21.9 -21.4 M-15.65 55.0 Q-20.35 55.05 -25.85 50.0 -20.35 55.05 -15.65 55.0" fill="url(#gradient0)" fill-rule="evenodd" stroke="none"/>
    <path d="M-10.45 -84.2 Q-9.5 -86.1 -7.8 -88.2 -4.4 -94.0 1.95 -94.5 8.2 -95.05 10.25 -91.9 16.75 -84.5 16.7 -76.05 16.9 -70.85 16.1 -66.05 L16.25 -64.35 Q16.5 -61.65 15.9 -59.95 14.65 -56.35 9.55 -57.3 L7.5 -57.85 Q6.1 -58.25 4.55 -58.95 L1.45 -60.65 Q-1.75 -62.6 -4.4 -65.1 -8.0 -68.4 -10.7 -72.65 -13.6 -78.05 -10.45 -84.2 M19.9 -47.8 Q29.0 -48.2 38.1 -41.85 36.95 -38.3 38.1 -34.35 33.8 -29.15 27.95 -25.95 L22.7 -36.85 Q20.8 -41.7 19.9 -47.8 M4.0 54.3 Q0.85 61.75 -1.1 74.05 L13.65 79.8 Q4.75 81.65 -6.1 79.6 -5.75 64.3 -2.05 55.6 L-0.95 55.4 4.0 54.3 M12.7 -70.4 Q14.8 -69.45 16.1 -66.05 14.8 -69.45 12.7 -70.4 M10.15 -71.05 Q0.7 -73.2 -4.4 -65.1 0.7 -73.2 10.15 -71.05" fill="url(#gradient1)" fill-rule="evenodd" stroke="none"/>
    <path d="M4.85 89.05 L4.9 89.1" fill="none" stroke="#660099" stroke-linecap="round" stroke-linejoin="round" stroke-width="0.05"/>
    <path d="M4.9 89.1 L4.85 89.1" fill="none" stroke="#660099" stroke-linecap="round" stroke-linejoin="round" stroke-width="0.05"/>
    <path d="M-10.45 -84.2 Q-9.5 -86.1 -7.8 -88.2 -4.4 -94.0 1.95 -94.5 8.2 -95.05 10.25 -91.9 16.75 -84.5 16.7 -76.05 16.9 -70.85 16.1 -66.05 L16.25 -64.35 Q19.4 -63.2 19.25 -54.0 19.45 -50.75 19.9 -47.8 29.0 -48.2 38.1 -41.85 36.95 -38.3 38.1 -34.35 33.8 -29.15 27.95 -25.95 33.0 -14.8 36.95 -3.9 47.25 24.15 27.7 41.05 19.25 49.25 7.85 53.15 L4.0 54.3 Q0.85 61.75 -1.1 74.05 L13.65 79.8 Q4.75 81.65 -6.1 79.6 L-6.15 82.25 4.85 89.05 4.85 89.1 Q-5.3 89.65 -14.9 86.1 L-15.0 85.7 -15.15 84.9 -15.2 84.2 -15.7 81.0 -16.15 78.45 Q-16.9 74.7 -18.0 70.9 L-19.8 64.35 -20.65 61.95 Q-22.85 56.1 -25.85 50.0 L-27.45 48.4 Q-34.85 40.75 -44.1 24.25 -54.65 5.45 -51.35 -19.5 -48.4 -41.65 -22.55 -69.4 L-17.35 -77.75 Q-13.65 -83.35 -10.45 -84.2 -13.6 -78.05 -10.7 -72.65 -8.0 -68.4 -4.4 -65.1 0.7 -73.2 10.15 -71.05 M16.1 -66.05 Q14.8 -69.45 12.7 -70.4 M16.25 -64.35 Q16.5 -61.65 15.9 -59.95 14.65 -56.35 9.55 -57.3 L7.5 -57.85 Q6.1 -58.25 4.55 -58.95 L1.45 -60.65 Q-1.75 -62.6 -4.4 -65.1 M19.9 -47.8 Q20.8 -41.7 22.7 -36.85 L27.95 -25.95 M-28.3 -36.05 Q-15.4 -55.55 0.8 -35.8 -0.25 -31.3 0.8 -26.8 -3.8 -23.0 -8.7 -21.5 -9.1 -20.0 -12.6 -18.1 -17.0 -15.7 -24.7 -15.7 M-8.7 -21.5 Q-15.05 -19.55 -21.9 -21.4 M4.0 54.3 L-0.95 55.4 -2.05 55.6 Q-5.75 64.3 -6.1 79.6 M-25.85 50.0 Q-20.35 55.05 -15.65 55.0" fill="none" stroke="#3366cc" stroke-linecap="round" stroke-linejoin="round" stroke-width="0.05"/>
    <path d="M37.6 -40.45 Q42.0 -41.45 45.95 -43.8 48.4 -44.8 47.95 -42.0 L47.6 -40.3 Q47.35 -38.55 48.45 -37.6 L50.4 -36.0 Q52.15 -34.55 50.5 -34.05 L47.8 -33.5 Q46.35 -33.15 46.0 -31.65 L45.75 -30.0 Q45.2 -27.25 43.4 -29.05 L43.15 -29.25 Q40.35 -33.2 37.05 -35.55 L37.6 -40.45" fill="url(#gradient2)" fill-rule="evenodd" stroke="none"/>
    <path d="M37.05 -35.55 Q40.35 -33.2 43.15 -29.25 L43.4 -29.05 Q45.2 -27.25 45.75 -30.0 L46.0 -31.65 Q46.35 -33.15 47.8 -33.5 L50.5 -34.05 Q52.15 -34.55 50.4 -36.0 L48.45 -37.6 Q47.35 -38.55 47.6 -40.3 L47.95 -42.0 Q48.4 -44.8 45.95 -43.8 42.0 -41.45 37.6 -40.45" fill="none" stroke="#3366cc" stroke-linecap="round" stroke-linejoin="round" stroke-width="0.05"/>
    <path d="M-0.05 -34.6 Q4.3 -35.7 8.2 -38.2 10.65 -39.25 10.3 -36.45 L9.95 -34.8 Q9.8 -33.0 10.95 -32.1 L12.95 -30.6 Q14.7 -29.2 13.1 -28.6 L10.45 -28.0 Q9.0 -27.6 8.7 -26.0 L8.5 -24.4 Q8.05 -21.7 6.15 -23.4 L5.9 -23.6 Q3.0 -27.35 -0.4 -29.65 L-0.05 -34.6" fill="url(#gradient3)" fill-rule="evenodd" stroke="none"/>
    <path d="M-0.4 -29.65 Q3.0 -27.35 5.9 -23.6 L6.15 -23.4 Q8.05 -21.7 8.5 -24.4 L8.7 -26.0 Q9.0 -27.6 10.45 -28.0 L13.1 -28.6 Q14.7 -29.2 12.95 -30.6 L10.95 -32.1 Q9.8 -33.0 9.95 -34.8 L10.3 -36.45 Q10.65 -39.25 8.2 -38.2 4.3 -35.7 -0.05 -34.6" fill="none" stroke="#3366cc" stroke-linecap="round" stroke-linejoin="round" stroke-width="0.05"/>
  </g>
  <defs>
    <radialGradient cx="0" cy="0" gradientTransform="matrix(0.1161, 0.0, 0.0, 0.1161, 3.0, -6.0)" gradientUnits="userSpaceOnUse" id="gradient0" r="819.2" spreadMethod="pad">
      <stop offset="0.3843137254901961" stop-color="#33ccff"/>
      <stop offset="1.0" stop-color="#3399ff"/>
    </radialGradient>
    <radialGradient cx="0" cy="0" gradientTransform="matrix(0.0988, 0.0, 0.0, 0.0988, 24.0, 4.0)" gradientUnits="userSpaceOnUse" id="gradient1" r="819.2" spreadMethod="pad">
      <stop offset="0.3843137254901961" stop-color="#33ccff"/>
      <stop offset="1.0" stop-color="#3399ff"/>
    </radialGradient>
    <radialGradient cx="0" cy="0" gradientTransform="matrix(0.0017, -0.0157, 0.0157, 0.0017, 43.45, -41.15)" gradientUnits="userSpaceOnUse" id="gradient2" r="819.2" spreadMethod="pad">
      <stop offset="0.3843137254901961" stop-color="#33ccff"/>
      <stop offset="1.0" stop-color="#3399ff"/>
    </radialGradient>
    <radialGradient cx="0" cy="0" gradientTransform="matrix(0.0011, -0.0157, 0.0157, 0.0011, 5.75, -35.5)" gradientUnits="userSpaceOnUse" id="gradient3" r="819.2" spreadMethod="pad">
      <stop offset="0.3843137254901961" stop-color="#33ccff"/>
      <stop offset="1.0" stop-color="#3399ff"/>
    </radialGradient>
  </defs>
</svg>
