<?xml version="1.0" encoding="UTF-8" standalone="no"?>
<svg xmlns:xlink="http://www.w3.org/1999/xlink" height="188.05px" width="98.7px" xmlns="http://www.w3.org/2000/svg">
  <g transform="matrix(1.0, 0.0, 0.0, 1.0, 49.35, 94.05)">
    <path d="M35.4 -53.95 Q36.2 -58.25 35.7 -62.55 35.8 -65.25 38.15 -63.7 L39.6 -62.65 Q41.1 -61.75 42.45 -62.35 L44.65 -63.5 Q46.65 -64.55 46.5 -62.8 L45.85 -60.15 Q45.6 -58.7 46.9 -57.7 L48.25 -56.8 Q50.5 -55.2 48.15 -54.2 L47.9 -54.1 Q43.4 -53.2 39.95 -51.25 L39.65 -51.05 35.35 -53.55 35.4 -53.95" fill="url(#gradient0)" fill-rule="evenodd" stroke="none"/>
    <path d="M35.4 -53.95 L35.35 -53.55 39.65 -51.05 39.95 -51.25 41.15 -50.55 Q44.4 -30.75 39.3 -16.75 45.3 -3.7 46.55 11.35 48.2 39.25 21.7 52.5 17.05 54.8 11.5 56.65 L1.3 57.75 Q-2.35 57.9 -5.85 57.6 L-8.5 57.35 -13.9 56.35 -20.8 54.2 Q-28.0 51.4 -34.3 46.45 -44.0 40.05 -44.0 25.65 -43.55 25.7 -42.65 24.9 L-40.85 23.25 Q-39.7 22.3 -38.0 22.8 L-36.35 23.45 Q-33.7 24.35 -34.25 21.7 -35.75 18.0 -36.15 14.05 L-36.25 12.9 -41.05 11.6 -41.9 12.45 -42.3 12.35 Q-35.55 -19.1 -23.3 -49.05 -23.15 -62.75 -17.15 -65.75 -17.45 -59.65 -4.4 -58.95 10.05 -60.55 12.65 -68.45 14.95 -66.85 15.35 -63.9 19.8 -47.65 28.4 -45.45 32.0 -49.85 34.25 -54.65 L35.4 -53.95 M39.3 -16.75 Q36.9 -10.1 33.0 -5.25 36.9 -10.1 39.3 -16.75 M20.2 -37.25 Q24.95 -41.15 28.4 -45.45 24.95 -41.15 20.2 -37.25 M-22.8 -16.55 L-35.6 14.2 -36.15 14.05 -35.6 14.2 -22.8 -16.55" fill="url(#gradient1)" fill-rule="evenodd" stroke="none"/>
    <path d="M-17.15 -65.75 L-17.25 -76.35 Q-16.65 -89.15 -7.15 -92.05 -7.0 -92.7 -6.45 -93.25 -5.65 -94.05 -4.5 -94.05 -3.35 -94.05 -2.55 -93.25 L-1.95 -92.35 Q8.05 -91.05 9.8 -80.2 12.1 -74.5 12.65 -68.45 10.05 -60.55 -4.4 -58.95 -17.45 -59.65 -17.15 -65.75 M4.15 -69.1 Q2.85 -70.35 1.0 -70.35 -0.85 -70.35 -2.15 -69.1 -2.95 -68.3 -3.25 -67.25 L-3.4 -65.9 Q-3.45 -64.05 -2.15 -62.8 -0.85 -61.5 1.0 -61.45 2.85 -61.5 4.15 -62.8 4.85 -63.45 5.2 -64.3 L5.45 -65.5 5.45 -65.9 Q5.45 -67.8 4.15 -69.1 M-7.1 -62.35 Q-5.8 -63.65 -5.8 -65.5 -5.8 -67.35 -7.1 -68.65 -8.4 -69.95 -10.25 -69.9 -12.1 -69.95 -13.4 -68.65 -14.7 -67.35 -14.65 -65.5 -14.7 -63.65 -13.4 -62.35 -12.1 -61.05 -10.25 -61.05 -8.4 -61.05 -7.1 -62.35" fill="url(#gradient2)" fill-rule="evenodd" stroke="none"/>
    <path d="M4.15 -69.1 Q5.45 -67.8 5.45 -65.9 L5.45 -65.5 5.2 -64.3 Q4.85 -63.45 4.15 -62.8 2.85 -61.5 1.0 -61.45 -0.85 -61.5 -2.15 -62.8 -3.45 -64.05 -3.4 -65.9 L-3.25 -67.25 Q-2.95 -68.3 -2.15 -69.1 -0.85 -70.35 1.0 -70.35 2.85 -70.35 4.15 -69.1 M4.7 -65.6 L4.7 -65.9 Q4.7 -67.45 3.6 -68.55 2.55 -69.6 1.0 -69.6 -0.55 -69.6 -1.65 -68.55 L-2.55 -67.0 -2.8 -65.9 -2.7 -65.9 Q-2.7 -64.35 -1.65 -63.3 -0.55 -62.2 1.0 -62.2 2.55 -62.2 3.6 -63.3 L4.5 -64.55 4.6 -65.6 4.7 -65.55 4.7 -65.6 M-7.65 -62.9 Q-6.55 -63.95 -6.55 -65.5 -6.55 -67.05 -7.65 -68.15 -8.7 -69.2 -10.25 -69.2 -11.8 -69.2 -12.9 -68.15 -13.95 -67.05 -13.95 -65.5 -13.95 -63.95 -12.9 -62.9 -11.8 -61.8 -10.25 -61.8 -8.7 -61.8 -7.65 -62.9 M-7.1 -62.35 Q-8.4 -61.05 -10.25 -61.05 -12.1 -61.05 -13.4 -62.35 -14.7 -63.65 -14.65 -65.5 -14.7 -67.35 -13.4 -68.65 -12.1 -69.95 -10.25 -69.9 -8.4 -69.95 -7.1 -68.65 -5.8 -67.35 -5.8 -65.5 -5.8 -63.65 -7.1 -62.35 M-1.0 -67.15 L-0.85 -67.15 Q0.3 -66.9 -0.25 -65.9 L-0.65 -65.6 Q-1.55 -65.45 -1.6 -66.35 -1.65 -67.0 -1.0 -67.15 M-13.0 -66.6 Q-13.05 -67.25 -12.4 -67.4 L-12.25 -67.4 Q-11.1 -67.15 -11.65 -66.15 L-12.05 -65.85 Q-12.95 -65.7 -13.0 -66.6" fill="#ffffff" fill-rule="evenodd" stroke="none"/>
    <path d="M4.7 -65.6 L4.7 -65.55 4.6 -65.6 4.7 -65.6" fill="#000000" fill-rule="evenodd" stroke="none"/>
    <path d="M-44.0 25.65 Q-44.5 25.55 -44.6 24.7 L-44.7 22.0 Q-44.85 20.5 -46.35 19.9 L-47.9 19.4 Q-50.5 18.4 -48.45 16.85 L-48.2 16.7 Q-44.9 15.05 -42.45 12.9 L-41.9 12.45 -41.05 11.6 -36.25 12.9 -36.15 14.05 Q-35.75 18.0 -34.25 21.7 -33.7 24.35 -36.35 23.45 L-38.0 22.8 Q-39.7 22.3 -40.85 23.25 L-42.65 24.9 Q-43.55 25.7 -44.0 25.65" fill="url(#gradient3)" fill-rule="evenodd" stroke="none"/>
    <path d="M-42.45 12.9 L-42.3 12.35 -41.9 12.45 -42.45 12.9" fill="url(#gradient4)" fill-rule="evenodd" stroke="none"/>
    <path d="M-8.5 57.35 Q-10.6 64.55 -16.2 71.3 -16.45 63.45 -13.9 56.35 L-8.5 57.35" fill="url(#gradient5)" fill-rule="evenodd" stroke="none"/>
    <path d="M21.7 52.5 Q15.75 63.05 10.2 77.45 9.8 86.55 6.4 94.0 4.5 86.8 5.3 76.9 4.6 65.55 1.3 57.75 L11.5 56.65 Q17.05 54.8 21.7 52.5" fill="url(#gradient6)" fill-rule="evenodd" stroke="none"/>
    <path d="M4.6 -65.6 L4.5 -64.55 3.6 -63.3 Q2.55 -62.2 1.0 -62.2 -0.55 -62.2 -1.65 -63.3 -2.7 -64.35 -2.7 -65.9 L-2.8 -65.9 -2.55 -67.0 -1.65 -68.55 Q-0.55 -69.6 1.0 -69.6 2.55 -69.6 3.6 -68.55 4.7 -67.45 4.7 -65.9 L4.7 -65.6 4.6 -65.6 M-7.65 -62.9 Q-8.7 -61.8 -10.25 -61.8 -11.8 -61.8 -12.9 -62.9 -13.95 -63.95 -13.95 -65.5 -13.95 -67.05 -12.9 -68.15 -11.8 -69.2 -10.25 -69.2 -8.7 -69.2 -7.65 -68.15 -6.55 -67.05 -6.55 -65.5 -6.55 -63.95 -7.65 -62.9 M-13.0 -66.6 Q-12.95 -65.7 -12.05 -65.85 L-11.65 -66.15 Q-11.1 -67.15 -12.25 -67.4 L-12.4 -67.4 Q-13.05 -67.25 -13.0 -66.6 M-1.0 -67.15 Q-1.65 -67.0 -1.6 -66.35 -1.55 -65.45 -0.65 -65.6 L-0.25 -65.9 Q0.3 -66.9 -0.85 -67.15 L-1.0 -67.15" fill="#884400" fill-rule="evenodd" stroke="none"/>
    <path d="M39.95 -51.25 Q43.4 -53.2 47.9 -54.1 L48.15 -54.2 Q50.5 -55.2 48.25 -56.8 L46.9 -57.7 Q45.6 -58.7 45.85 -60.15 L46.5 -62.8 Q46.65 -64.55 44.65 -63.5 L42.45 -62.35 Q41.1 -61.75 39.6 -62.65 L38.15 -63.7 Q35.8 -65.25 35.7 -62.55 36.2 -58.25 35.4 -53.95 L35.35 -53.55 39.65 -51.05 39.95 -51.25 41.15 -50.55 Q44.4 -30.75 39.3 -16.75 45.3 -3.7 46.55 11.35 48.2 39.25 21.7 52.5 15.75 63.05 10.2 77.45 9.8 86.55 6.4 94.0 4.5 86.8 5.3 76.9 4.6 65.55 1.3 57.75 -2.35 57.9 -5.85 57.6 L-8.5 57.35 Q-10.6 64.55 -16.2 71.3 -16.45 63.45 -13.9 56.35 L-20.8 54.2 Q-28.0 51.4 -34.3 46.45 -44.0 40.05 -44.0 25.65 -44.5 25.55 -44.6 24.7 L-44.7 22.0 Q-44.85 20.5 -46.35 19.9 L-47.9 19.4 Q-50.5 18.4 -48.45 16.85 L-48.2 16.7 Q-44.9 15.05 -42.45 12.9 L-42.3 12.35 Q-35.55 -19.1 -23.3 -49.05 -23.15 -62.75 -17.15 -65.75 L-17.25 -76.35 Q-16.65 -89.15 -7.15 -92.05 -7.0 -92.7 -6.45 -93.25 -5.65 -94.05 -4.5 -94.05 -3.35 -94.05 -2.55 -93.25 L-1.95 -92.35 Q8.05 -91.05 9.8 -80.2 12.1 -74.5 12.65 -68.45 14.95 -66.85 15.35 -63.9 19.8 -47.65 28.4 -45.45 32.0 -49.85 34.25 -54.65 L35.4 -53.95 M4.15 -69.1 Q5.45 -67.8 5.45 -65.9 L5.45 -65.5 5.2 -64.3 Q4.85 -63.45 4.15 -62.8 2.85 -61.5 1.0 -61.45 -0.85 -61.5 -2.15 -62.8 -3.45 -64.05 -3.4 -65.9 L-3.25 -67.25 Q-2.95 -68.3 -2.15 -69.1 -0.85 -70.35 1.0 -70.35 2.85 -70.35 4.15 -69.1 M28.4 -45.45 Q24.95 -41.15 20.2 -37.25 M33.0 -5.25 Q36.9 -10.1 39.3 -16.75 M1.3 57.75 L11.5 56.65 Q17.05 54.8 21.7 52.5 M-7.1 -62.35 Q-8.4 -61.05 -10.25 -61.05 -12.1 -61.05 -13.4 -62.35 -14.7 -63.65 -14.65 -65.5 -14.7 -67.35 -13.4 -68.65 -12.1 -69.95 -10.25 -69.9 -8.4 -69.95 -7.1 -68.65 -5.8 -67.35 -5.8 -65.5 -5.8 -63.65 -7.1 -62.35 M12.65 -68.45 Q10.05 -60.55 -4.4 -58.95 -17.45 -59.65 -17.15 -65.75 M-41.9 12.45 L-41.05 11.6 -36.25 12.9 -36.15 14.05 -35.6 14.2 -22.8 -16.55 M-36.15 14.05 Q-35.75 18.0 -34.25 21.7 -33.7 24.35 -36.35 23.45 L-38.0 22.8 Q-39.7 22.3 -40.85 23.25 L-42.65 24.9 Q-43.55 25.7 -44.0 25.65 M-42.45 12.9 L-41.9 12.45 -42.3 12.35 M-13.9 56.35 L-8.5 57.35" fill="none" stroke="#bfbf00" stroke-linecap="round" stroke-linejoin="round" stroke-width="0.05"/>
  </g>
  <defs>
    <radialGradient cx="0" cy="0" gradientTransform="matrix(-0.0137, -0.0079, 0.0079, -0.0137, 37.05, -59.2)" gradientUnits="userSpaceOnUse" id="gradient0" r="819.2" spreadMethod="pad">
      <stop offset="0.0" stop-color="#ffcc33"/>
      <stop offset="0.5294117647058824" stop-color="#ffff00"/>
      <stop offset="1.0" stop-color="#ffff66"/>
    </radialGradient>
    <radialGradient cx="0" cy="0" gradientTransform="matrix(0.1263, 0.0, 0.0, 0.1263, 4.7, 34.7)" gradientUnits="userSpaceOnUse" id="gradient1" r="819.2" spreadMethod="pad">
      <stop offset="0.0" stop-color="#ffcc33"/>
      <stop offset="0.5294117647058824" stop-color="#ffff00"/>
      <stop offset="1.0" stop-color="#ffff66"/>
    </radialGradient>
    <radialGradient cx="0" cy="0" gradientTransform="matrix(0.0293, 0.0, 0.0, 0.0293, -0.3, -69.15)" gradientUnits="userSpaceOnUse" id="gradient2" r="819.2" spreadMethod="pad">
      <stop offset="0.0" stop-color="#ffcc33"/>
      <stop offset="0.5294117647058824" stop-color="#ffff00"/>
      <stop offset="1.0" stop-color="#ffff66"/>
    </radialGradient>
    <radialGradient cx="0" cy="0" gradientTransform="matrix(0.0153, 0.0041, -0.0041, 0.0153, -36.45, 18.8)" gradientUnits="userSpaceOnUse" id="gradient3" r="819.2" spreadMethod="pad">
      <stop offset="0.0" stop-color="#ffcc33"/>
      <stop offset="0.5294117647058824" stop-color="#ffff00"/>
      <stop offset="1.0" stop-color="#ffff66"/>
    </radialGradient>
    <radialGradient cx="0" cy="0" gradientTransform="matrix(0.1263, 0.0, 0.0, 0.1263, 4.7, 34.7)" gradientUnits="userSpaceOnUse" id="gradient4" r="819.2" spreadMethod="pad">
      <stop offset="0.3843137254901961" stop-color="#33ccff"/>
      <stop offset="1.0" stop-color="#3399ff"/>
    </radialGradient>
    <radialGradient cx="0" cy="0" gradientTransform="matrix(0.0952, 0.0, 0.0, 0.0952, 10.6, 7.1)" gradientUnits="userSpaceOnUse" id="gradient5" r="819.2" spreadMethod="pad">
      <stop offset="0.0" stop-color="#ffcc33"/>
      <stop offset="0.5294117647058824" stop-color="#ffff00"/>
      <stop offset="1.0" stop-color="#ffff66"/>
    </radialGradient>
    <radialGradient cx="0" cy="0" gradientTransform="matrix(0.046, 0.0, 0.0, 0.046, 11.5, 56.65)" gradientUnits="userSpaceOnUse" id="gradient6" r="819.2" spreadMethod="pad">
      <stop offset="0.0" stop-color="#ffcc33"/>
      <stop offset="0.5294117647058824" stop-color="#ffff00"/>
      <stop offset="1.0" stop-color="#ffff66"/>
    </radialGradient>
  </defs>
</svg>
