<?xml version="1.0" encoding="UTF-8" standalone="no"?>
<svg xmlns:xlink="http://www.w3.org/1999/xlink" height="169.9px" width="108.2px" xmlns="http://www.w3.org/2000/svg">
  <g transform="matrix(1.0, 0.0, 0.0, 1.0, 53.85, 85.75)">
    <path d="M8.3 -57.95 Q6.6 -57.95 5.4 -56.8 4.25 -55.6 4.25 -53.9 4.25 -52.2 5.4 -51.05 6.6 -49.85 8.3 -49.85 L8.65 -49.85 Q10.1 -49.95 11.15 -51.05 L12.05 -52.25 12.35 -53.9 Q12.35 -55.6 11.15 -56.8 10.0 -57.95 8.3 -57.95 M3.5 -53.85 Q3.5 -55.85 4.9 -57.25 6.35 -58.65 8.35 -58.65 10.35 -58.65 11.75 -57.25 13.15 -55.85 13.2 -53.85 13.15 -51.85 11.75 -50.45 10.35 -49.0 8.35 -49.0 6.35 -49.0 4.9 -50.45 3.5 -51.85 3.5 -53.85 M6.25 -54.25 Q5.1 -54.8 6.0 -55.65 L6.45 -55.9 Q7.85 -55.4 6.8 -54.35 L6.25 -54.25 M-12.4 -54.6 Q-12.4 -56.6 -11.0 -58.05 -9.6 -59.45 -7.6 -59.45 -6.3 -59.45 -5.2 -58.8 L-4.2 -58.05 Q-2.75 -56.6 -2.75 -54.6 -2.75 -52.6 -4.2 -51.2 -4.75 -50.65 -5.35 -50.3 -6.35 -49.8 -7.6 -49.8 -9.6 -49.8 -11.0 -51.2 -12.4 -52.6 -12.4 -54.6 M-11.8 -54.65 Q-11.8 -52.95 -10.65 -51.8 -9.45 -50.6 -7.75 -50.6 L-7.4 -50.6 Q-5.95 -50.7 -4.9 -51.8 L-4.0 -53.0 Q-3.7 -53.75 -3.7 -54.65 -3.7 -56.35 -4.9 -57.55 -6.05 -58.7 -7.75 -58.7 -9.45 -58.7 -10.65 -57.55 -11.8 -56.35 -11.8 -54.65 M-9.9 -55.1 Q-11.05 -55.65 -10.2 -56.5 L-9.7 -56.75 Q-8.3 -56.25 -9.35 -55.2 L-9.9 -55.1" fill="#ffffff" fill-rule="evenodd" stroke="none"/>
    <path d="M17.6 -54.9 Q23.15 -52.25 23.9 -43.2 24.65 -34.2 34.3 -21.8 43.95 -9.45 48.4 7.85 L47.15 8.65 46.05 7.7 42.2 9.9 42.2 11.7 Q42.15 14.85 41.2 18.3 L41.15 18.55 Q40.95 21.0 43.25 20.0 L44.55 19.35 Q45.9 18.8 47.0 19.8 L47.45 20.25 Q47.65 42.6 29.6 54.25 20.4 61.4 11.1 64.3 7.2 65.5 3.35 65.95 -4.5 66.85 -12.35 64.8 -15.5 64.0 -18.65 62.7 -25.6 59.8 -32.55 54.7 L-33.15 54.3 Q-47.15 44.8 -50.25 22.6 L-50.4 19.6 -49.1 19.2 -46.9 18.05 Q-45.6 17.45 -44.05 18.4 L-42.65 19.4 Q-40.3 20.95 -40.2 18.3 -40.65 14.45 -40.05 10.65 L-39.8 9.25 -44.1 6.8 -45.8 7.7 -50.05 9.25 Q-48.45 -4.15 -41.25 -15.85 -38.1 -21.05 -33.8 -25.9 -30.25 -34.65 -23.65 -43.15 -21.8 -55.05 -17.85 -56.6 L-17.55 -56.6 Q-17.2 -50.5 -9.45 -48.5 -5.9 -47.6 -0.75 -47.55 L8.35 -47.85 Q17.55 -49.15 17.6 -54.9 M-50.45 16.4 L-50.45 14.65 Q-50.25 15.2 -50.35 15.85 L-50.45 16.4 M-45.8 7.7 L-46.9 7.05 Q-46.0 -4.75 -41.25 -15.85 -46.0 -4.75 -46.9 7.05 L-45.8 7.7 M22.2 -20.3 Q27.5 3.35 41.7 12.0 L42.2 11.7 41.7 12.0 Q27.5 3.35 22.2 -20.3 M-18.95 -20.45 Q-23.65 -0.5 -40.05 10.65 -23.65 -0.5 -18.95 -20.45" fill="url(#gradient0)" fill-rule="evenodd" stroke="none"/>
    <path d="M-17.55 -56.6 L-17.6 -57.15 Q-15.4 -60.85 -14.3 -69.55 L-14.1 -70.3 Q-11.3 -82.75 -1.4 -84.0 L-0.8 -84.95 Q0.0 -85.75 1.15 -85.75 2.3 -85.75 3.1 -84.95 3.65 -84.4 3.85 -83.65 13.95 -80.9 15.4 -68.3 L15.5 -67.5 Q15.9 -59.4 17.6 -54.9 17.55 -49.15 8.35 -47.85 L-0.75 -47.55 Q-5.9 -47.6 -9.45 -48.5 -17.2 -50.5 -17.55 -56.6 M3.5 -53.85 Q3.5 -51.85 4.9 -50.45 6.35 -49.0 8.35 -49.0 10.35 -49.0 11.75 -50.45 13.15 -51.85 13.2 -53.85 13.15 -55.85 11.75 -57.25 10.35 -58.65 8.35 -58.65 6.35 -58.65 4.9 -57.25 3.5 -55.85 3.5 -53.85 M-12.4 -54.6 Q-12.4 -52.6 -11.0 -51.2 -9.6 -49.8 -7.6 -49.8 -6.35 -49.8 -5.35 -50.3 -4.75 -50.65 -4.2 -51.2 -2.75 -52.6 -2.75 -54.6 -2.75 -56.6 -4.2 -58.05 L-5.2 -58.8 Q-6.3 -59.45 -7.6 -59.45 -9.6 -59.45 -11.0 -58.05 -12.4 -56.6 -12.4 -54.6" fill="url(#gradient1)" fill-rule="evenodd" stroke="none"/>
    <path d="M-12.35 64.8 L-13.05 67.4 Q-13.15 76.25 -15.7 84.15 -18.1 75.65 -17.7 67.1 L-18.65 62.7 Q-15.5 64.0 -12.35 64.8" fill="url(#gradient2)" fill-rule="evenodd" stroke="none"/>
    <path d="M11.1 64.3 L10.35 68.35 Q12.9 76.2 13.45 83.55 6.9 76.75 3.7 68.65 L3.35 65.95 Q7.2 65.5 11.1 64.3" fill="url(#gradient3)" fill-rule="evenodd" stroke="none"/>
    <path d="M-50.4 19.6 Q-51.1 19.55 -50.95 18.5 L-50.45 16.4 -50.35 15.85 Q-50.25 15.2 -50.45 14.65 -50.7 13.95 -51.4 13.4 L-52.75 12.5 Q-55.0 10.9 -52.65 9.95 L-52.35 9.85 -50.05 9.25 -45.8 7.7 -44.1 6.8 -39.8 9.25 -40.05 10.65 Q-40.65 14.45 -40.2 18.3 -40.3 20.95 -42.65 19.4 L-44.05 18.4 Q-45.6 17.45 -46.9 18.05 L-49.1 19.2 -50.4 19.6" fill="url(#gradient4)" fill-rule="evenodd" stroke="none"/>
    <path d="M47.15 8.65 Q49.95 11.05 53.3 12.7 55.45 14.2 53.15 15.35 L51.75 15.95 Q50.3 16.7 50.25 18.15 L50.3 20.55 Q50.25 22.75 48.9 21.7 L47.45 20.25 47.0 19.8 Q45.9 18.8 44.55 19.35 L43.25 20.0 Q40.95 21.0 41.15 18.55 L41.2 18.3 Q42.15 14.85 42.2 11.7 L42.2 9.9 46.05 7.7 47.15 8.65" fill="url(#gradient5)" fill-rule="evenodd" stroke="none"/>
    <path d="M8.3 -57.95 Q10.0 -57.95 11.15 -56.8 12.35 -55.6 12.35 -53.9 L12.05 -52.25 11.15 -51.05 Q10.1 -49.95 8.65 -49.85 L8.3 -49.85 Q6.6 -49.85 5.4 -51.05 4.25 -52.2 4.25 -53.9 4.25 -55.6 5.4 -56.8 6.6 -57.95 8.3 -57.95 M6.25 -54.25 L6.8 -54.35 Q7.85 -55.4 6.45 -55.9 L6.0 -55.65 Q5.1 -54.8 6.25 -54.25 M-11.8 -54.65 Q-11.8 -56.35 -10.65 -57.55 -9.45 -58.7 -7.75 -58.7 -6.05 -58.7 -4.9 -57.55 -3.7 -56.35 -3.7 -54.65 -3.7 -53.75 -4.0 -53.0 L-4.9 -51.8 Q-5.95 -50.7 -7.4 -50.6 L-7.75 -50.6 Q-9.45 -50.6 -10.65 -51.8 -11.8 -52.95 -11.8 -54.65 M-9.9 -55.1 L-9.35 -55.2 Q-8.3 -56.25 -9.7 -56.75 L-10.2 -56.5 Q-11.05 -55.65 -9.9 -55.1" fill="#884400" fill-rule="evenodd" stroke="none"/>
    <path d="M-17.55 -56.6 L-17.6 -57.15 Q-15.4 -60.85 -14.3 -69.55 L-14.1 -70.3 Q-11.3 -82.75 -1.4 -84.0 L-0.8 -84.95 Q0.0 -85.75 1.15 -85.75 2.3 -85.75 3.1 -84.95 3.65 -84.4 3.85 -83.65 13.95 -80.9 15.4 -68.3 L15.5 -67.5 Q15.9 -59.4 17.6 -54.9 23.15 -52.25 23.9 -43.2 24.65 -34.2 34.3 -21.8 43.95 -9.45 48.4 7.85 L47.15 8.65 M47.45 20.25 Q47.65 42.6 29.6 54.25 20.4 61.4 11.1 64.3 L10.35 68.35 Q12.9 76.2 13.45 83.55 6.9 76.75 3.7 68.65 L3.35 65.95 Q-4.5 66.85 -12.35 64.8 L-13.05 67.4 Q-13.15 76.25 -15.7 84.15 -18.1 75.65 -17.7 67.1 L-18.65 62.7 Q-25.6 59.8 -32.55 54.7 L-33.15 54.3 Q-47.15 44.8 -50.25 22.6 L-50.4 19.6 M-50.45 16.4 L-50.45 14.65 M-50.05 9.25 Q-48.45 -4.15 -41.25 -15.85 -38.1 -21.05 -33.8 -25.9 -30.25 -34.65 -23.65 -43.15 -21.8 -55.05 -17.85 -56.6 L-17.55 -56.6 Q-17.2 -50.5 -9.45 -48.5 -5.9 -47.6 -0.75 -47.55 L8.35 -47.85 Q17.55 -49.15 17.6 -54.9 M3.5 -53.85 Q3.5 -55.85 4.9 -57.25 6.35 -58.65 8.35 -58.65 10.35 -58.65 11.75 -57.25 13.15 -55.85 13.2 -53.85 13.15 -51.85 11.75 -50.45 10.35 -49.0 8.35 -49.0 6.35 -49.0 4.9 -50.45 3.5 -51.85 3.5 -53.85 M-12.4 -54.6 Q-12.4 -56.6 -11.0 -58.05 -9.6 -59.45 -7.6 -59.45 -6.3 -59.45 -5.2 -58.8 L-4.2 -58.05 Q-2.75 -56.6 -2.75 -54.6 -2.75 -52.6 -4.2 -51.2 -4.75 -50.65 -5.35 -50.3 -6.35 -49.8 -7.6 -49.8 -9.6 -49.8 -11.0 -51.2 -12.4 -52.6 -12.4 -54.6 M-41.25 -15.85 Q-46.0 -4.75 -46.9 7.05 L-45.8 7.7 M-18.65 62.7 Q-15.5 64.0 -12.35 64.8 M42.2 11.7 L41.7 12.0 Q27.5 3.35 22.2 -20.3 M11.1 64.3 Q7.2 65.5 3.35 65.95 M-40.05 10.65 Q-23.65 -0.5 -18.95 -20.45" fill="none" stroke="#3366cc" stroke-linecap="round" stroke-linejoin="round" stroke-width="0.05"/>
    <path d="M47.15 8.65 Q49.95 11.05 53.3 12.7 55.45 14.2 53.15 15.35 L51.75 15.95 Q50.3 16.7 50.25 18.15 L50.3 20.55 Q50.25 22.75 48.9 21.7 L47.45 20.25 M-50.4 19.6 Q-51.1 19.55 -50.95 18.5 L-50.45 16.4 M-50.45 14.65 Q-50.7 13.95 -51.4 13.4 L-52.75 12.5 Q-55.0 10.9 -52.65 9.95 L-52.35 9.85 -50.05 9.25 M-50.4 19.6 L-49.1 19.2 -46.9 18.05 Q-45.6 17.45 -44.05 18.4 L-42.65 19.4 Q-40.3 20.95 -40.2 18.3 -40.65 14.45 -40.05 10.65 L-39.8 9.25 M-44.1 6.8 L-45.8 7.7 -50.05 9.25 M-50.45 14.65 Q-50.25 15.2 -50.35 15.85 L-50.45 16.4 M47.15 8.65 L46.05 7.7 M42.2 9.9 L42.2 11.7 Q42.15 14.85 41.2 18.3 L41.15 18.55 Q40.95 21.0 43.25 20.0 L44.55 19.35 Q45.9 18.8 47.0 19.8 L47.45 20.25" fill="none" stroke="#3366cc" stroke-linecap="round" stroke-linejoin="round" stroke-width="0.05"/>
  </g>
  <defs>
    <radialGradient cx="0" cy="0" gradientTransform="matrix(0.1213, 0.0, 0.0, 0.1213, -31.0, 31.7)" gradientUnits="userSpaceOnUse" id="gradient0" r="819.2" spreadMethod="pad">
      <stop offset="0.3843137254901961" stop-color="#33ccff"/>
      <stop offset="1.0" stop-color="#3399ff"/>
    </radialGradient>
    <radialGradient cx="0" cy="0" gradientTransform="matrix(0.0356, 0.0, 0.0, 0.0356, -3.95, -72.15)" gradientUnits="userSpaceOnUse" id="gradient1" r="819.2" spreadMethod="pad">
      <stop offset="0.3843137254901961" stop-color="#33ccff"/>
      <stop offset="1.0" stop-color="#3399ff"/>
    </radialGradient>
    <radialGradient cx="0" cy="0" gradientTransform="matrix(0.0207, 0.0, 0.0, 0.0207, -13.05, 67.4)" gradientUnits="userSpaceOnUse" id="gradient2" r="819.2" spreadMethod="pad">
      <stop offset="0.3843137254901961" stop-color="#33ccff"/>
      <stop offset="1.0" stop-color="#3399ff"/>
    </radialGradient>
    <radialGradient cx="0" cy="0" gradientTransform="matrix(0.0188, 0.0, 0.0, 0.0188, 9.6, 69.25)" gradientUnits="userSpaceOnUse" id="gradient3" r="819.2" spreadMethod="pad">
      <stop offset="0.3843137254901961" stop-color="#33ccff"/>
      <stop offset="1.0" stop-color="#3399ff"/>
    </radialGradient>
    <radialGradient cx="0" cy="0" gradientTransform="matrix(0.0137, 0.0079, -0.0079, 0.0137, -41.55, 14.9)" gradientUnits="userSpaceOnUse" id="gradient4" r="819.2" spreadMethod="pad">
      <stop offset="0.3843137254901961" stop-color="#33ccff"/>
      <stop offset="1.0" stop-color="#3399ff"/>
    </radialGradient>
    <radialGradient cx="0" cy="0" gradientTransform="matrix(0.0123, -0.0071, 0.0079, 0.0137, 49.95, 12.05)" gradientUnits="userSpaceOnUse" id="gradient5" r="819.2" spreadMethod="pad">
      <stop offset="0.3843137254901961" stop-color="#33ccff"/>
      <stop offset="1.0" stop-color="#3399ff"/>
    </radialGradient>
  </defs>
</svg>
