<?xml version="1.0" encoding="UTF-8" standalone="no"?>
<svg xmlns:xlink="http://www.w3.org/1999/xlink" height="193.2px" width="110.5px" xmlns="http://www.w3.org/2000/svg">
  <g transform="matrix(1.0, 0.0, 0.0, 1.0, 55.25, 96.6)">
    <path d="M11.75 -67.65 Q14.55 -64.3 16.4 -54.45 23.9 -42.45 28.05 -31.55 33.15 -27.85 38.45 -19.75 40.5 -18.3 42.55 -19.75 L42.45 -18.4 40.95 -17.85 40.95 -12.9 41.85 -12.35 41.6 -9.8 Q39.8 -6.55 36.75 -4.5 L35.4 -3.7 Q39.75 2.85 40.65 21.25 41.5 39.8 15.85 58.8 L15.8 58.85 15.4 59.1 13.5 60.45 13.45 60.5 13.2 60.65 Q4.25 66.4 -4.35 67.7 -8.7 68.3 -12.95 67.8 -17.2 67.3 -21.35 65.6 -29.55 62.25 -37.35 54.4 -54.9 35.45 -49.05 10.85 L-48.3 10.45 Q-47.0 9.85 -45.45 10.8 L-44.05 11.8 Q-41.7 13.35 -41.6 10.7 -42.1 6.15 -41.2 1.65 L-41.6 1.45 -45.5 -0.8 -45.55 -0.8 Q-45.05 -16.0 -33.75 -33.75 -31.55 -48.6 -24.65 -62.3 -24.0 -64.7 -22.35 -66.5 -21.8 -57.55 -5.6 -57.25 11.4 -59.2 11.75 -67.65 M25.1 -2.3 Q31.55 -1.95 35.4 -3.7 31.55 -1.95 25.1 -2.3 M22.45 -34.25 Q25.2 -33.55 28.05 -31.55 25.2 -33.55 22.45 -34.25 M-31.55 -14.65 Q-35.55 -6.25 -41.6 1.45 -35.55 -6.25 -31.55 -14.65" fill="url(#gradient0)" fill-rule="evenodd" stroke="none"/>
    <path d="M4.05 -67.1 Q4.05 -68.85 2.8 -70.1 1.6 -71.3 -0.15 -71.3 -1.9 -71.3 -3.15 -70.1 -4.35 -68.85 -4.35 -67.1 -4.35 -65.35 -3.15 -64.15 -1.9 -62.9 -0.15 -62.9 1.6 -62.9 2.8 -64.15 4.05 -65.35 4.05 -67.1 M3.4 -63.55 Q1.95 -62.05 -0.1 -62.05 -2.2 -62.05 -3.7 -63.55 -5.15 -65.0 -5.15 -67.1 -5.15 -69.2 -3.7 -70.7 -2.2 -72.15 -0.1 -72.15 1.95 -72.15 3.4 -70.7 4.9 -69.2 4.9 -67.1 4.9 -65.0 3.4 -63.55 M-2.5 -68.95 L-2.4 -68.95 Q-1.25 -68.7 -1.8 -67.7 L-2.2 -67.4 Q-3.1 -67.25 -3.15 -68.15 -3.2 -68.8 -2.5 -68.95 M-10.05 -62.75 Q-11.5 -61.25 -13.6 -61.25 -15.7 -61.25 -17.2 -62.75 -18.65 -64.2 -18.65 -66.3 -18.65 -68.4 -17.2 -69.9 -15.7 -71.35 -13.6 -71.35 -11.5 -71.35 -10.05 -69.9 -8.55 -68.4 -8.55 -66.3 -8.55 -64.2 -10.05 -62.75 M-10.65 -69.3 Q-11.85 -70.5 -13.6 -70.5 -15.35 -70.5 -16.6 -69.3 -17.8 -68.05 -17.8 -66.3 -17.8 -64.55 -16.6 -63.35 -15.35 -62.1 -13.6 -62.1 -11.85 -62.1 -10.65 -63.35 -9.4 -64.55 -9.4 -66.3 -9.4 -68.05 -10.65 -69.3 M-16.0 -68.2 Q-14.85 -67.95 -15.4 -66.95 L-15.75 -66.65 Q-16.7 -66.5 -16.75 -67.4 -16.8 -68.05 -16.1 -68.2 L-16.0 -68.2" fill="#ffffff" fill-rule="evenodd" stroke="none"/>
    <path d="M3.4 -63.55 Q4.9 -65.0 4.9 -67.1 4.9 -69.2 3.4 -70.7 1.95 -72.15 -0.1 -72.15 -2.2 -72.15 -3.7 -70.7 -5.15 -69.2 -5.15 -67.1 -5.15 -65.0 -3.7 -63.55 -2.2 -62.05 -0.1 -62.05 1.95 -62.05 3.4 -63.55 M-22.35 -66.5 L-20.5 -78.4 Q-18.2 -93.0 -8.0 -94.95 L-7.45 -95.8 Q-6.65 -96.6 -5.5 -96.6 -4.35 -96.6 -3.55 -95.8 L-2.9 -94.85 Q6.8 -93.1 8.5 -80.45 L10.6 -68.7 11.75 -67.65 Q11.4 -59.2 -5.6 -57.25 -21.8 -57.55 -22.35 -66.5 M-10.05 -62.75 Q-8.55 -64.2 -8.55 -66.3 -8.55 -68.4 -10.05 -69.9 -11.5 -71.35 -13.6 -71.35 -15.7 -71.35 -17.2 -69.9 -18.65 -68.4 -18.65 -66.3 -18.65 -64.2 -17.2 -62.75 -15.7 -61.25 -13.6 -61.25 -11.5 -61.25 -10.05 -62.75" fill="url(#gradient1)" fill-rule="evenodd" stroke="none"/>
    <path d="M42.45 -18.4 Q45.9 -19.85 48.95 -22.05 51.3 -23.3 51.15 -20.5 L50.95 -18.75 Q50.9 -17.0 52.1 -16.1 L54.2 -14.8 Q56.1 -13.55 54.5 -12.85 L51.9 -12.05 Q50.5 -11.55 50.3 -9.9 L50.2 -8.3 Q49.95 -5.55 47.95 -7.1 L47.7 -7.3 Q44.9 -10.45 41.85 -12.35 L40.95 -12.9 40.95 -17.85 42.45 -18.4" fill="url(#gradient2)" fill-rule="evenodd" stroke="none"/>
    <path d="M-45.5 -0.8 L-45.55 -0.8 -45.5 -0.8" fill="url(#gradient3)" fill-rule="evenodd" stroke="none"/>
    <path d="M-49.05 10.85 L-50.5 11.6 Q-52.55 12.65 -52.35 10.9 L-51.75 8.25 Q-51.5 6.8 -52.8 5.8 L-54.15 4.9 Q-56.4 3.3 -54.05 2.35 L-53.75 2.25 Q-49.1 1.25 -45.55 -0.8 L-45.5 -0.8 -41.6 1.45 -41.2 1.65 Q-42.1 6.15 -41.6 10.7 -41.7 13.35 -44.05 11.8 L-45.45 10.8 Q-47.0 9.85 -48.3 10.45 L-49.05 10.85" fill="url(#gradient4)" fill-rule="evenodd" stroke="none"/>
    <path d="M-12.95 67.8 Q-14.55 76.95 -18.6 85.35 -21.65 75.3 -21.35 65.6 -17.2 67.3 -12.95 67.8" fill="url(#gradient5)" fill-rule="evenodd" stroke="none"/>
    <path d="M13.5 60.45 L15.4 59.15 Q9.3 69.55 4.95 82.5 4.55 90.0 1.5 96.6 -0.6 88.8 -0.75 81.9 -1.6 74.6 -4.35 67.7 4.25 66.4 13.2 60.65 L13.45 60.5 13.5 60.45" fill="url(#gradient6)" fill-rule="evenodd" stroke="none"/>
    <path d="M4.05 -67.1 Q4.05 -65.35 2.8 -64.15 1.6 -62.9 -0.15 -62.9 -1.9 -62.9 -3.15 -64.15 -4.35 -65.35 -4.35 -67.1 -4.35 -68.85 -3.15 -70.1 -1.9 -71.3 -0.15 -71.3 1.6 -71.3 2.8 -70.1 4.05 -68.85 4.05 -67.1 M-2.5 -68.95 Q-3.2 -68.8 -3.15 -68.15 -3.1 -67.25 -2.2 -67.4 L-1.8 -67.7 Q-1.25 -68.7 -2.4 -68.95 L-2.5 -68.95 M-10.65 -69.3 Q-9.4 -68.05 -9.4 -66.3 -9.4 -64.55 -10.65 -63.35 -11.85 -62.1 -13.6 -62.1 -15.35 -62.1 -16.6 -63.35 -17.8 -64.55 -17.8 -66.3 -17.8 -68.05 -16.6 -69.3 -15.35 -70.5 -13.6 -70.5 -11.85 -70.5 -10.65 -69.3 M-16.0 -68.2 L-16.1 -68.2 Q-16.8 -68.05 -16.75 -67.4 -16.7 -66.5 -15.75 -66.65 L-15.4 -66.95 Q-14.85 -67.95 -16.0 -68.2" fill="#884400" fill-rule="evenodd" stroke="none"/>
    <path d="M3.4 -63.55 Q1.95 -62.05 -0.1 -62.05 -2.2 -62.05 -3.7 -63.55 -5.15 -65.0 -5.15 -67.1 -5.15 -69.2 -3.7 -70.7 -2.2 -72.15 -0.1 -72.15 1.95 -72.15 3.4 -70.7 4.9 -69.2 4.9 -67.1 4.9 -65.0 3.4 -63.55 M11.75 -67.65 Q14.55 -64.3 16.4 -54.45 23.9 -42.45 28.05 -31.55 33.15 -27.85 38.45 -19.75 40.5 -18.3 42.55 -19.75 L42.45 -18.4 Q45.9 -19.85 48.95 -22.05 51.3 -23.3 51.15 -20.5 L50.95 -18.75 Q50.9 -17.0 52.1 -16.1 L54.2 -14.8 Q56.1 -13.55 54.5 -12.85 L51.9 -12.05 Q50.5 -11.55 50.3 -9.9 L50.2 -8.3 Q49.95 -5.55 47.95 -7.1 L47.7 -7.3 Q44.9 -10.45 41.85 -12.35 L41.6 -9.8 Q39.8 -6.55 36.75 -4.5 L35.4 -3.7 Q39.75 2.85 40.65 21.25 41.5 39.8 15.85 58.8 L15.8 58.85 15.4 59.1 13.5 60.45 15.4 59.15 Q9.3 69.55 4.95 82.5 4.55 90.0 1.5 96.6 -0.6 88.8 -0.75 81.9 -1.6 74.6 -4.35 67.7 -8.7 68.3 -12.95 67.8 -14.55 76.95 -18.6 85.35 -21.65 75.3 -21.35 65.6 -29.55 62.25 -37.35 54.4 -54.9 35.45 -49.05 10.85 L-50.5 11.6 Q-52.55 12.65 -52.35 10.9 L-51.75 8.25 Q-51.5 6.8 -52.8 5.8 L-54.15 4.9 Q-56.4 3.3 -54.05 2.35 L-53.75 2.25 Q-49.1 1.25 -45.55 -0.8 -45.05 -16.0 -33.75 -33.75 -31.55 -48.6 -24.65 -62.3 -24.0 -64.7 -22.35 -66.5 L-20.5 -78.4 Q-18.2 -93.0 -8.0 -94.95 L-7.45 -95.8 Q-6.65 -96.6 -5.5 -96.6 -4.35 -96.6 -3.55 -95.8 L-2.9 -94.85 Q6.8 -93.1 8.5 -80.45 L10.6 -68.7 11.75 -67.65 Q11.4 -59.2 -5.6 -57.25 -21.8 -57.55 -22.35 -66.5 M28.05 -31.55 Q25.2 -33.55 22.45 -34.25 M35.4 -3.7 Q31.55 -1.95 25.1 -2.3 M40.95 -12.9 L41.85 -12.35 M42.45 -18.4 L40.95 -17.85 M-10.05 -62.75 Q-11.5 -61.25 -13.6 -61.25 -15.7 -61.25 -17.2 -62.75 -18.65 -64.2 -18.65 -66.3 -18.65 -68.4 -17.2 -69.9 -15.7 -71.35 -13.6 -71.35 -11.5 -71.35 -10.05 -69.9 -8.55 -68.4 -8.55 -66.3 -8.55 -64.2 -10.05 -62.75 M-45.55 -0.8 L-45.5 -0.8 M-41.2 1.65 Q-42.1 6.15 -41.6 10.7 -41.7 13.35 -44.05 11.8 L-45.45 10.8 Q-47.0 9.85 -48.3 10.45 L-49.05 10.85 M-12.95 67.8 Q-17.2 67.3 -21.35 65.6 M13.5 60.45 L13.45 60.5 13.2 60.65 Q4.25 66.4 -4.35 67.7 M-41.6 1.45 Q-35.55 -6.25 -31.55 -14.65" fill="none" stroke="#d75600" stroke-linecap="round" stroke-linejoin="round" stroke-width="0.05"/>
  </g>
  <defs>
    <radialGradient cx="0" cy="0" gradientTransform="matrix(0.1091, 0.0, 0.0, 0.1091, 6.55, -19.25)" gradientUnits="userSpaceOnUse" id="gradient0" r="819.2" spreadMethod="pad">
      <stop offset="0.0" stop-color="#ff6600"/>
      <stop offset="0.5294117647058824" stop-color="#ff9900"/>
      <stop offset="1.0" stop-color="#ff6600"/>
    </radialGradient>
    <radialGradient cx="0" cy="0" gradientTransform="matrix(0.0316, 0.0, 0.0, 0.0316, -4.8, -81.65)" gradientUnits="userSpaceOnUse" id="gradient1" r="819.2" spreadMethod="pad">
      <stop offset="0.0" stop-color="#ff6600"/>
      <stop offset="0.5294117647058824" stop-color="#ff9900"/>
      <stop offset="1.0" stop-color="#ff6600"/>
    </radialGradient>
    <radialGradient cx="0" cy="0" gradientTransform="matrix(0.0, -0.0158, 0.0158, 0.0, 46.7, -19.2)" gradientUnits="userSpaceOnUse" id="gradient2" r="819.2" spreadMethod="pad">
      <stop offset="0.0" stop-color="#ff6600"/>
      <stop offset="0.5294117647058824" stop-color="#ff9900"/>
      <stop offset="1.0" stop-color="#ff6600"/>
    </radialGradient>
    <radialGradient cx="0" cy="0" gradientTransform="matrix(0.1091, 0.0, 0.0, 0.1091, 6.55, -19.25)" gradientUnits="userSpaceOnUse" id="gradient3" r="819.2" spreadMethod="pad">
      <stop offset="0.3843137254901961" stop-color="#33ccff"/>
      <stop offset="1.0" stop-color="#3399ff"/>
    </radialGradient>
    <radialGradient cx="0" cy="0" gradientTransform="matrix(0.0137, 0.0079, -0.0079, 0.0137, -42.95, 7.3)" gradientUnits="userSpaceOnUse" id="gradient4" r="819.2" spreadMethod="pad">
      <stop offset="0.0" stop-color="#ff6600"/>
      <stop offset="0.5294117647058824" stop-color="#ff9900"/>
      <stop offset="1.0" stop-color="#ff6600"/>
    </radialGradient>
    <radialGradient cx="0" cy="0" gradientTransform="matrix(0.0148, 0.0, 0.0, 0.0148, -14.65, 74.9)" gradientUnits="userSpaceOnUse" id="gradient5" r="819.2" spreadMethod="pad">
      <stop offset="0.0" stop-color="#ff6600"/>
      <stop offset="0.5294117647058824" stop-color="#ff9900"/>
      <stop offset="1.0" stop-color="#ff6600"/>
    </radialGradient>
    <radialGradient cx="0" cy="0" gradientTransform="matrix(0.032, 0.0, 0.0, 0.032, 4.25, 71.25)" gradientUnits="userSpaceOnUse" id="gradient6" r="819.2" spreadMethod="pad">
      <stop offset="0.0" stop-color="#ff6600"/>
      <stop offset="0.5294117647058824" stop-color="#ff9900"/>
      <stop offset="1.0" stop-color="#ff6600"/>
    </radialGradient>
  </defs>
</svg>
