<?xml version="1.0" encoding="UTF-8" standalone="no"?>
<svg xmlns:xlink="http://www.w3.org/1999/xlink" height="146.1px" width="83.45px" xmlns="http://www.w3.org/2000/svg">
  <g transform="matrix(1.0, 0.0, 0.0, 1.0, 41.75, 73.05)">
    <path d="M-13.75 60.05 Q-18.35 57.15 -22.45 52.75 L-22.55 52.6 -22.95 52.25 Q-30.7 44.4 -35.95 32.85 -45.7 7.1 -39.05 -21.8 -32.05 -48.9 -9.0 -63.05 -0.7 -68.45 7.55 -72.1 13.5 -74.0 17.3 -72.1 20.7 -73.3 23.85 -72.55 33.05 -68.8 34.1 -58.2 35.25 -47.55 29.75 -38.25 23.3 -32.45 14.0 -37.6 15.35 -34.7 17.1 -31.85 24.65 -22.05 27.7 -28.3 L28.1 -29.4 Q28.9 -29.3 28.9 -27.25 28.25 -8.4 36.8 11.4 43.85 25.9 40.8 40.4 37.4 55.0 27.65 60.9 23.15 62.7 18.9 63.85 L17.55 64.15 11.25 65.3 -1.1 64.95 -3.25 64.5 -3.25 65.75 8.1 72.95 Q-2.25 73.55 -11.8 69.6 L-11.85 69.6 -11.95 69.15 -12.65 64.5 -12.75 64.0 -13.7 60.2 -13.5 60.15 -13.75 60.05 M14.0 -37.6 Q9.05 -47.9 8.5 -58.6 7.95 -69.7 17.3 -72.1 7.95 -69.7 8.5 -58.6 9.05 -47.9 14.0 -37.6 M-3.25 64.5 Q-8.65 63.15 -13.5 60.15 -8.65 63.15 -3.25 64.5 M-7.45 13.25 Q-9.2 16.95 -12.5 20.4 L-12.65 20.65 Q-14.05 22.75 -11.3 22.8 L-9.65 22.8 Q-8.05 22.85 -7.45 24.2 L-6.4 26.7 Q-5.6 28.25 -4.5 26.25 L-3.35 24.05 Q-2.65 22.8 -0.85 22.7 L0.9 22.75 Q3.7 22.7 2.3 20.45 -0.45 17.3 -2.2 13.55 L-2.55 12.85 -6.6 13.15 -7.8 13.05 -7.45 13.25 M-16.15 -26.2 Q-24.5 -3.4 -7.8 13.05 -24.5 -3.4 -16.15 -26.2 M2.75 -16.7 Q6.85 -0.6 -0.95 13.65 L-2.2 13.55 -0.95 13.65 Q6.85 -0.6 2.75 -16.7" fill="url(#gradient0)" fill-rule="evenodd" stroke="none"/>
    <path d="M29.75 -38.25 Q29.55 -33.85 28.1 -29.4 L27.7 -28.3 Q24.65 -22.05 17.1 -31.85 15.35 -34.7 14.0 -37.6 23.3 -32.45 29.75 -38.25" fill="url(#gradient1)" fill-rule="evenodd" stroke="none"/>
    <path d="M-6.6 13.15 L-2.55 12.85 -2.2 13.55 Q-0.45 17.3 2.3 20.45 3.7 22.7 0.9 22.75 L-0.85 22.7 Q-2.65 22.8 -3.35 24.05 L-4.5 26.25 Q-5.6 28.25 -6.4 26.7 L-7.45 24.2 Q-8.05 22.85 -9.65 22.8 L-11.3 22.8 Q-14.05 22.75 -12.65 20.65 L-12.5 20.4 Q-9.2 16.95 -7.45 13.25 L-6.6 13.15" fill="url(#gradient2)" fill-rule="evenodd" stroke="none"/>
    <path d="M-6.6 13.15 L-7.45 13.25 -7.8 13.05 -6.6 13.15" fill="url(#gradient3)" fill-rule="evenodd" stroke="none"/>
    <path d="M8.1 72.95 L8.15 72.95 8.1 72.95 M-11.95 69.15 L-12.15 68.3 -12.2 67.6 -12.75 64.0 -12.65 64.5 -11.95 69.15 M-13.7 60.2 L-13.75 60.05 -13.5 60.15 -13.7 60.2" fill="#ffff00" fill-rule="evenodd" stroke="none"/>
    <path d="M-13.75 60.05 Q-18.35 57.15 -22.45 52.75 L-22.55 52.6 -22.95 52.25 Q-30.7 44.4 -35.95 32.85 -45.7 7.1 -39.05 -21.8 -32.05 -48.9 -9.0 -63.05 -0.7 -68.45 7.55 -72.1 13.5 -74.0 17.3 -72.1 20.7 -73.3 23.85 -72.55 33.05 -68.8 34.1 -58.2 35.25 -47.55 29.75 -38.25 29.55 -33.85 28.1 -29.4 28.9 -29.3 28.9 -27.25 28.25 -8.4 36.8 11.4 43.85 25.9 40.8 40.4 37.4 55.0 27.65 60.9 23.15 62.7 18.9 63.85 L17.55 64.15 11.25 65.3 -1.1 64.95 -3.25 64.5 -3.25 65.75 8.1 72.95 Q-2.25 73.55 -11.8 69.6 L-11.85 69.6 -11.95 69.15 -12.65 64.5 -12.75 64.0 -13.7 60.2 -13.5 60.15 Q-8.65 63.15 -3.25 64.5 M-13.75 60.05 L-13.5 60.15 M17.3 -72.1 Q7.95 -69.7 8.5 -58.6 9.05 -47.9 14.0 -37.6 23.3 -32.45 29.75 -38.25 M14.0 -37.6 Q15.35 -34.7 17.1 -31.85 24.65 -22.05 27.7 -28.3 L28.1 -29.4 M-7.45 13.25 Q-9.2 16.95 -12.5 20.4 L-12.65 20.65 Q-14.05 22.75 -11.3 22.8 L-9.65 22.8 Q-8.05 22.85 -7.45 24.2 L-6.4 26.7 Q-5.6 28.25 -4.5 26.25 L-3.35 24.05 Q-2.65 22.8 -0.85 22.7 L0.9 22.75 Q3.7 22.7 2.3 20.45 -0.45 17.3 -2.2 13.55 L-2.55 12.85 -6.6 13.15 M-7.45 13.25 L-7.8 13.05 Q-24.5 -3.4 -16.15 -26.2 M-7.8 13.05 L-6.6 13.15 M-2.2 13.55 L-0.95 13.65 Q6.85 -0.6 2.75 -16.7" fill="none" stroke="#bfbf00" stroke-linecap="round" stroke-linejoin="round" stroke-width="0.05"/>
    <path d="M-13.7 60.2 L-13.75 60.05" fill="none" stroke="#660099" stroke-linecap="round" stroke-linejoin="round" stroke-width="0.05"/>
    <path d="M8.1 72.95 L8.15 72.95 8.1 72.95" fill="none" stroke="#0000cc" stroke-linecap="round" stroke-linejoin="round" stroke-width="0.05"/>
  </g>
  <defs>
    <radialGradient cx="0" cy="0" gradientTransform="matrix(0.0988, 0.0, 0.0, 0.0988, 23.95, 6.5)" gradientUnits="userSpaceOnUse" id="gradient0" r="819.2" spreadMethod="pad">
      <stop offset="0.0" stop-color="#ffcc33"/>
      <stop offset="0.5294117647058824" stop-color="#ffff00"/>
      <stop offset="1.0" stop-color="#ffff66"/>
    </radialGradient>
    <radialGradient cx="0" cy="0" gradientTransform="matrix(0.0203, 0.0, 0.0, 0.0203, 28.1, -29.4)" gradientUnits="userSpaceOnUse" id="gradient1" r="819.2" spreadMethod="pad">
      <stop offset="0.0" stop-color="#ffcc33"/>
      <stop offset="0.5294117647058824" stop-color="#ffff00"/>
      <stop offset="1.0" stop-color="#ffff66"/>
    </radialGradient>
    <radialGradient cx="0" cy="0" gradientTransform="matrix(0.0157, -0.0013, 0.0013, 0.0157, -0.8, 18.45)" gradientUnits="userSpaceOnUse" id="gradient2" r="819.2" spreadMethod="pad">
      <stop offset="0.0" stop-color="#ffcc33"/>
      <stop offset="0.5294117647058824" stop-color="#ffff00"/>
      <stop offset="1.0" stop-color="#ffff66"/>
    </radialGradient>
    <radialGradient cx="0" cy="0" gradientTransform="matrix(0.0988, 0.0, 0.0, 0.0988, 23.95, 6.5)" gradientUnits="userSpaceOnUse" id="gradient3" r="819.2" spreadMethod="pad">
      <stop offset="0.3843137254901961" stop-color="#33ccff"/>
      <stop offset="1.0" stop-color="#3399ff"/>
    </radialGradient>
  </defs>
</svg>
