<?xml version="1.0" encoding="UTF-8" standalone="no"?>
<svg xmlns:xlink="http://www.w3.org/1999/xlink" height="95.4px" width="153.25px" xmlns="http://www.w3.org/2000/svg">
  <g transform="matrix(1.0, 0.0, 0.0, 1.0, 76.65, 47.7)">
    <path d="M57.6 34.3 L57.6 14.0 Q58.8 16.5 60.95 18.65 63.2 20.9 65.9 22.15 L65.9 32.3 57.6 34.3 M57.6 -0.6 L57.6 -21.45 65.9 -23.05 65.9 -8.75 Q63.2 -7.55 60.95 -5.3 58.8 -3.15 57.6 -0.6 M-33.3 -4.6 L-33.5 -4.6 Q-38.9 -4.6 -42.75 -8.45 -44.6 -10.3 -45.55 -12.55 L-45.95 -13.6 Q-46.55 -15.5 -46.55 -17.65 -46.55 -19.8 -45.95 -21.7 -45.05 -24.6 -42.75 -26.9 -38.9 -30.7 -33.5 -30.7 L-33.3 -30.7 -33.3 -4.6 M-25.0 -27.55 L-24.3 -26.9 Q-20.45 -23.05 -20.45 -17.65 -20.45 -12.35 -24.15 -8.6 L-24.25 -8.6 -24.3 -8.45 -25.0 -7.75 -25.0 -27.55" fill="#00ff00" fill-rule="evenodd" stroke="none"/>
    <path d="M50.0 -19.95 Q49.85 -27.4 46.7 -32.7 43.4 -38.3 38.75 -38.3 35.55 -38.3 32.95 -35.6 L32.95 -41.25 76.6 -47.7 76.6 -25.15 65.9 -23.05 57.6 -21.45 50.0 -19.95 M-64.75 -32.7 Q-62.0 -32.7 -60.05 -29.35 -58.1 -26.0 -58.1 -21.25 -58.1 -17.8 -59.1 -15.1 -59.5 -14.05 -60.05 -13.15 -62.0 -9.8 -64.75 -9.8 -67.5 -9.8 -69.45 -13.15 -70.55 -15.0 -71.0 -17.3 -71.4 -19.15 -71.4 -21.25 -71.4 -26.0 -69.45 -29.35 -67.5 -32.7 -64.75 -32.7 M-76.65 -3.3 L-33.3 3.6 -33.3 11.95 -47.2 10.05 -47.95 9.1 Q-50.35 6.4 -53.75 6.4 -56.75 6.4 -58.95 8.5 L-76.65 6.15 -76.65 -3.3" fill="#ffff00" fill-rule="evenodd" stroke="none"/>
    <path d="M1.7 -36.7 L1.7 -20.85 Q-1.05 -19.95 -3.3 -17.75 -7.0 -14.0 -7.0 -8.7 -7.0 -6.95 -6.55 -5.35 -5.75 -2.15 -3.3 0.3 -1.05 2.55 1.7 3.45 L1.7 47.7 -11.45 44.45 Q-8.3 40.5 -7.6 35.4 L-7.6 29.4 Q-8.35 24.0 -11.8 19.95 -16.2 14.8 -22.45 14.8 L-25.0 15.05 -25.0 -7.75 -24.3 -8.45 -24.25 -8.6 -24.15 -8.6 Q-20.45 -12.35 -20.45 -17.65 -20.45 -23.05 -24.3 -26.9 L-25.0 -27.55 -25.0 -40.25 1.7 -36.7 M-64.75 -32.7 Q-67.5 -32.7 -69.45 -29.35 -71.4 -26.0 -71.4 -21.25 -71.4 -19.15 -71.0 -17.3 -70.55 -15.0 -69.45 -13.15 -67.5 -9.8 -64.75 -9.8 -62.0 -9.8 -60.05 -13.15 -59.5 -14.05 -59.1 -15.1 -58.1 -17.8 -58.1 -21.25 -58.1 -26.0 -60.05 -29.35 -62.0 -32.7 -64.75 -32.7 M-33.3 -30.7 L-33.5 -30.7 Q-38.9 -30.7 -42.75 -26.9 -45.05 -24.6 -45.95 -21.7 -46.55 -19.8 -46.55 -17.65 -46.55 -15.5 -45.95 -13.6 L-45.55 -12.55 Q-44.6 -10.3 -42.75 -8.45 -38.9 -4.6 -33.5 -4.6 L-33.3 -4.6 -33.3 3.6 -76.65 -3.3 -76.65 -47.2 -33.3 -41.4 -33.3 -30.7 M-33.3 11.95 L-33.3 20.2 Q-37.5 25.25 -37.5 32.4 -37.5 35.45 -36.7 38.15 L-76.65 28.2 -76.65 6.15 -58.95 8.5 -59.6 9.1 Q-62.0 11.85 -62.0 15.7 -62.0 19.55 -59.6 22.25 -57.15 25.0 -53.75 25.0 -50.35 25.0 -47.95 22.25 -46.55 20.7 -45.95 18.8 L-45.95 12.6 Q-46.35 11.25 -47.2 10.05 L-33.3 11.95" fill="#ec0000" fill-rule="evenodd" stroke="none"/>
    <path d="M32.95 -35.6 Q31.8 -34.4 30.8 -32.7 27.5 -27.1 27.5 -19.15 27.5 -11.2 30.8 -5.6 34.1 0.0 38.75 0.0 43.4 0.0 46.7 -5.6 50.0 -11.2 50.0 -19.15 L50.0 -19.95 57.6 -21.45 57.6 -0.6 Q56.25 2.2 56.05 5.45 L56.0 6.7 Q56.0 10.7 57.6 14.0 L57.6 34.3 46.8 36.9 Q47.8 34.0 47.8 30.6 47.8 23.9 43.95 19.15 40.1 14.45 34.65 14.45 29.2 14.45 25.35 19.15 21.5 23.9 21.5 30.6 21.5 37.3 25.35 42.0 L25.4 42.05 1.7 47.7 1.7 3.45 5.75 4.05 Q11.05 4.05 14.75 0.3 L16.05 -1.1 Q18.5 -4.4 18.5 -8.7 18.5 -14.0 14.75 -17.75 11.05 -21.45 5.75 -21.45 L1.7 -20.85 1.7 -36.7 32.5 -41.2 32.55 -41.2 32.95 -41.25 32.95 -35.6 M65.9 -8.75 L65.9 -23.05 76.6 -25.15 76.6 -9.9 72.95 -10.25 Q69.15 -10.25 65.9 -8.75 M65.9 22.15 Q69.15 23.65 72.95 23.65 L76.6 23.3 76.6 29.75 65.9 32.3 65.9 22.15" fill="#d70000" fill-rule="evenodd" stroke="none"/>
    <path d="M50.0 -19.95 L50.0 -19.15 Q50.0 -11.2 46.7 -5.6 43.4 0.0 38.75 0.0 34.1 0.0 30.8 -5.6 27.5 -11.2 27.5 -19.15 27.5 -27.1 30.8 -32.7 31.8 -34.4 32.95 -35.6 35.55 -38.3 38.75 -38.3 43.4 -38.3 46.7 -32.7 49.85 -27.4 50.0 -19.95 M25.4 42.05 L25.35 42.0 Q21.5 37.3 21.5 30.6 21.5 23.9 25.35 19.15 29.2 14.45 34.65 14.45 40.1 14.45 43.95 19.15 47.8 23.9 47.8 30.6 47.8 34.0 46.8 36.9 L25.4 42.05" fill="#ff00ff" fill-rule="evenodd" stroke="none"/>
    <path d="M1.7 -20.85 L5.75 -21.45 Q11.05 -21.45 14.75 -17.75 18.5 -14.0 18.5 -8.7 18.5 -4.4 16.05 -1.1 L14.75 0.3 Q11.05 4.05 5.75 4.05 L1.7 3.45 1.7 -20.85 M-47.2 10.05 Q-46.35 11.25 -45.95 12.6 L-45.95 18.8 Q-46.55 20.7 -47.95 22.25 -50.35 25.0 -53.75 25.0 -57.15 25.0 -59.6 22.25 -62.0 19.55 -62.0 15.7 -62.0 11.85 -59.6 9.1 L-58.95 8.5 Q-56.75 6.4 -53.75 6.4 -50.35 6.4 -47.95 9.1 L-47.2 10.05" fill="#3366ff" fill-rule="evenodd" stroke="none"/>
    <path d="M57.6 14.0 Q56.0 10.7 56.0 6.7 L56.05 5.45 Q56.25 2.2 57.6 -0.6 58.8 -3.15 60.95 -5.3 63.2 -7.55 65.9 -8.75 69.15 -10.25 72.95 -10.25 L76.6 -9.9 76.6 23.3 72.95 23.65 Q69.15 23.65 65.9 22.15 63.2 20.9 60.95 18.65 58.8 16.5 57.6 14.0 M1.7 -20.85 L1.7 3.45 Q-1.05 2.55 -3.3 0.3 -5.75 -2.15 -6.55 -5.35 -7.0 -6.95 -7.0 -8.7 -7.0 -14.0 -3.3 -17.75 -1.05 -19.95 1.7 -20.85 M-25.0 15.05 L-22.45 14.8 Q-16.2 14.8 -11.8 19.95 -8.35 24.0 -7.6 29.4 L-7.6 35.4 Q-8.3 40.5 -11.45 44.45 L-25.0 41.05 -25.0 15.05 M-36.7 38.15 Q-37.5 35.45 -37.5 32.4 -37.5 25.25 -33.3 20.2 L-33.3 39.0 -36.7 38.15" fill="#ff9900" fill-rule="evenodd" stroke="none"/>
    <path d="M-33.3 -30.7 L-33.3 -41.4 -25.0 -40.25 -25.0 -27.55 -25.0 -7.75 -25.0 15.05 -25.0 41.05 -33.3 39.0 -33.3 20.2 -33.3 11.95 -33.3 3.6 -33.3 -4.6 -33.3 -30.7" fill="#0066ff" fill-rule="evenodd" stroke="none"/>
  </g>
</svg>
