<?xml version="1.0" encoding="UTF-8" standalone="no"?>
<svg xmlns:xlink="http://www.w3.org/1999/xlink" height="35.25px" width="153.25px" xmlns="http://www.w3.org/2000/svg">
  <g transform="matrix(1.0, 0.0, 0.0, 1.0, 76.65, 17.65)">
    <path d="M76.6 -13.4 L76.4 -13.4 76.6 -13.4" fill="#010101" fill-opacity="0.17254902" fill-rule="evenodd" stroke="none"/>
    <path d="M52.7 -11.0 L30.5 -8.75 30.45 -8.75 30.4 -8.75 1.8 -5.85 1.7 -5.85 -76.65 -13.05 -36.9 -15.3 Q-36.4 -14.35 -34.3 -13.65 L-33.5 -13.4 Q-30.95 -12.65 -27.55 -12.65 -23.6 -12.65 -20.8 -13.65 -18.0 -14.6 -18.0 -15.95 L-18.05 -16.35 4.4 -17.65 76.4 -13.4 52.7 -11.0 M25.0 -14.45 Q25.0 -15.45 20.6 -16.15 L10.05 -16.85 -0.55 -16.15 Q-4.9 -15.45 -4.9 -14.45 -4.9 -13.45 -0.55 -12.75 L10.05 -12.05 20.6 -12.75 Q25.0 -13.45 25.0 -14.45" fill="#ff0000" fill-rule="evenodd" stroke="none"/>
    <path d="M1.7 -5.85 L1.8 -5.85 30.4 -8.75 30.45 -8.75 30.5 -8.75 52.7 -11.0 Q50.0 -6.0 50.0 0.0 50.0 5.5 52.25 10.15 L1.7 17.6 1.7 -5.85 M34.1 9.1 Q35.7 7.55 35.7 5.35 35.7 3.15 34.1 1.55 32.55 0.0 30.35 0.0 28.15 0.0 26.55 1.55 25.0 3.15 25.0 5.35 25.0 7.55 26.55 9.1 28.15 10.7 30.35 10.7 32.55 10.7 34.1 9.1" fill="#ca0000" fill-rule="evenodd" stroke="none"/>
    <path d="M-76.65 -13.05 L1.7 -5.85 1.7 17.6 -24.95 14.05 -24.95 12.75 Q-24.95 7.25 -27.45 3.0 L-29.05 0.75 Q-31.05 -1.7 -33.5 -2.9 -36.0 -4.2 -38.95 -4.2 -44.6 -4.2 -48.65 0.55 L-76.65 -2.75 -76.65 -13.05" fill="#e10000" fill-rule="evenodd" stroke="none"/>
    <path d="M25.0 -14.45 Q25.0 -13.45 20.6 -12.75 L10.05 -12.05 -0.55 -12.75 Q-4.9 -13.45 -4.9 -14.45 -4.9 -15.45 -0.55 -16.15 L10.05 -16.85 20.6 -16.15 Q25.0 -15.45 25.0 -14.45 M-48.65 0.55 Q-44.6 -4.2 -38.95 -4.2 -36.0 -4.2 -33.5 -2.9 -31.05 -1.7 -29.05 0.75 L-27.45 3.0 Q-24.95 7.25 -24.95 12.75 L-24.95 14.05 -52.8 10.3 Q-52.2 4.85 -48.85 0.75 L-48.65 0.55" fill="#ccff00" fill-rule="evenodd" stroke="none"/>
    <path d="M34.1 9.1 Q32.55 10.7 30.35 10.7 28.15 10.7 26.55 9.1 25.0 7.55 25.0 5.35 25.0 3.15 26.55 1.55 28.15 0.0 30.35 0.0 32.55 0.0 34.1 1.55 35.7 3.15 35.7 5.35 35.7 7.55 34.1 9.1 M-48.65 0.55 L-48.85 0.75 Q-52.2 4.85 -52.8 10.3 L-76.65 7.1 -76.65 -2.75 -48.65 0.55" fill="#ff00ff" fill-rule="evenodd" stroke="none"/>
    <path d="M52.7 -11.0 L76.4 -13.4 76.6 -13.4 76.6 6.6 52.25 10.15 Q50.0 5.5 50.0 0.0 50.0 -6.0 52.7 -11.0 M-18.05 -16.35 L-18.0 -15.95 Q-18.0 -14.6 -20.8 -13.65 -23.6 -12.65 -27.55 -12.65 -30.95 -12.65 -33.5 -13.4 L-34.3 -13.65 Q-36.4 -14.35 -36.9 -15.3 L-18.05 -16.35" fill="#ffcc00" fill-rule="evenodd" stroke="none"/>
  </g>
</svg>
