<?xml version="1.0" encoding="UTF-8" standalone="no"?>
<svg xmlns:xlink="http://www.w3.org/1999/xlink" height="91.75px" width="91.75px" xmlns="http://www.w3.org/2000/svg">
  <g transform="matrix(1.0, 0.0, 0.0, 1.0, 45.9, 45.9)">
    <path d="M36.9 -27.35 Q43.75 -18.25 45.35 -6.95 45.8 -3.6 45.85 -0.05 L45.65 4.3 44.9 9.5 Q42.3 22.45 32.4 32.4 L31.0 33.75 Q22.9 41.2 12.95 44.05 6.8 45.8 -0.05 45.85 L-6.35 45.45 Q-19.4 43.75 -29.5 35.15 L-32.5 32.4 Q-35.2 29.7 -37.35 26.75 -42.5 19.75 -44.55 11.5 -45.95 6.0 -45.9 -0.05 -45.9 -4.35 -45.2 -8.35 -42.9 -22.1 -32.5 -32.5 -26.75 -38.25 -19.9 -41.5 L-17.7 -42.5 Q-12.0 -44.9 -5.65 -45.6 L-2.2 -45.85 -0.05 -45.9 Q5.85 -45.95 11.2 -44.65 L12.45 -44.3 Q23.6 -41.3 32.4 -32.5 L36.9 -27.35 M44.5 -6.8 Q42.95 -17.9 36.2 -26.85 34.2 -29.45 31.8 -31.85 23.15 -40.5 12.2 -43.45 L11.0 -43.8 10.95 -43.8 Q5.7 -45.05 -0.05 -45.05 L-2.15 -45.0 -5.55 -44.75 Q-11.8 -44.05 -17.35 -41.7 L-19.55 -40.75 Q-26.2 -37.55 -31.85 -31.85 -42.05 -21.65 -44.35 -8.2 -45.05 -4.25 -45.05 -0.05 -45.05 5.9 -43.7 11.3 -41.7 19.4 -36.65 26.25 -34.55 29.1 -31.85 31.8 L-28.95 34.5 Q-19.0 42.95 -6.25 44.6 L-0.05 44.95 Q6.7 44.95 12.75 43.25 22.5 40.45 30.4 33.15 L31.8 31.8 Q41.5 22.05 44.05 9.35 L44.8 4.2 44.95 -0.05 Q44.95 -3.55 44.5 -6.8" fill="#790000" fill-rule="evenodd" stroke="none"/>
    <path d="M-5.55 -44.75 L-2.15 -45.0 -0.05 -45.05 Q5.7 -45.05 10.95 -43.8 L11.0 -43.8 12.2 -43.45 Q23.15 -40.5 31.8 -31.85 34.2 -29.45 36.2 -26.85 42.95 -17.9 44.5 -6.8 L44.05 -8.1 43.3 -9.85 Q39.95 -16.8 32.1 -22.35 L29.45 -24.15 27.05 -25.55 Q15.25 -31.95 -0.25 -31.95 L-4.55 -31.8 Q-15.75 -31.15 -24.85 -26.85 L-21.5 -32.3 Q-17.4 -38.05 -12.55 -41.35 L-10.95 -42.3 Q-8.35 -43.85 -5.55 -44.75 M-6.25 44.6 Q-19.0 42.95 -28.95 34.5 L-31.85 31.8 Q-34.55 29.1 -36.65 26.25 -41.7 19.4 -43.7 11.3 -45.05 5.9 -45.05 -0.05 -45.05 -4.25 -44.35 -8.2 L-43.4 -10.35 Q-40.45 -16.4 -33.95 -21.35 L-32.6 -22.35 Q-28.95 -25.0 -24.85 -26.85 -31.1 -15.2 -31.1 0.05 -31.1 15.2 -25.0 26.8 L-23.8 28.9 -21.5 32.4 -19.4 35.15 Q-13.5 42.2 -6.25 44.6" fill="#ff0000" fill-rule="evenodd" stroke="none"/>
    <path d="M44.5 -6.8 Q44.95 -3.55 44.95 -0.05 L44.8 4.2 44.05 9.35 Q41.5 22.05 31.8 31.8 L30.4 33.15 Q22.5 40.45 12.75 43.25 6.7 44.95 -0.05 44.95 L-6.25 44.6 Q-13.5 42.2 -19.4 35.15 L-21.5 32.4 -23.8 28.9 -25.0 26.8 Q-31.1 15.2 -31.1 0.05 -31.1 -15.2 -24.85 -26.85 -28.95 -25.0 -32.6 -22.35 L-33.95 -21.35 Q-40.45 -16.4 -43.4 -10.35 L-44.35 -8.2 Q-42.05 -21.65 -31.85 -31.85 -26.2 -37.55 -19.55 -40.75 L-17.35 -41.7 Q-11.8 -44.05 -5.55 -44.75 -8.35 -43.85 -10.95 -42.3 L-12.55 -41.35 Q-17.4 -38.05 -21.5 -32.3 L-24.85 -26.85 Q-15.75 -31.15 -4.55 -31.8 L-0.25 -31.95 Q15.25 -31.95 27.05 -25.55 L29.45 -24.15 32.1 -22.35 Q39.95 -16.8 43.3 -9.85 L44.05 -8.1 44.5 -6.8" fill="#ffff00" fill-rule="evenodd" stroke="none"/>
  </g>
</svg>
