<?xml version="1.0" encoding="UTF-8" standalone="no"?>
<svg xmlns:xlink="http://www.w3.org/1999/xlink" height="251.35px" width="224.0px" xmlns="http://www.w3.org/2000/svg">
  <g transform="matrix(1.0, 0.0, 0.0, 1.0, 105.55, 152.15)">
    <path d="M78.7 -9.65 L78.7 0.45 78.7 0.5 Q78.55 4.1 75.55 4.35 L75.4 4.35 -61.05 4.35 -62.0 4.35 Q-64.3 3.9 -64.4 0.15 L-64.4 -7.3 Q-63.75 -14.45 -59.15 -15.85 L-59.05 -15.9 Q-7.0 -25.95 62.9 -21.35 L63.25 -21.35 64.3 -21.25 64.35 -21.25 Q78.2 -19.95 78.7 -9.65 M81.2 -9.65 Q80.9 -22.25 64.55 -23.75 L63.45 -23.85 63.05 -23.85 Q-7.25 -28.5 -59.6 -18.3 -66.05 -16.85 -66.9 -7.5 L-66.9 -81.9 Q-68.0 -88.25 -72.9 -91.3 L-70.0 -110.85 Q-62.1 -146.9 -22.5 -149.75 L38.05 -149.75 Q73.45 -146.9 81.75 -111.55 L85.8 -86.6 Q81.85 -82.6 81.2 -74.9 L81.2 -9.65 M89.0 -86.7 L88.95 -86.7 Q93.1 -89.45 100.1 -89.1 116.05 -86.6 116.45 -71.1 L116.45 -69.8 116.45 -69.7 Q110.65 5.0 110.55 71.1 L-95.9 71.1 Q-96.1 5.75 -103.55 -72.95 L-103.55 -73.05 Q-102.65 -88.45 -85.8 -92.1 -79.4 -92.2 -75.3 -90.3 -70.05 -87.85 -68.9 -81.85 L-68.9 0.2 Q-68.7 8.65 -62.3 8.85 L-62.25 8.85 -62.15 8.85 -62.1 8.85 -61.05 8.85 75.4 8.85 75.6 8.85 Q82.95 8.8 83.2 0.55 L83.2 -74.75 Q83.95 -83.2 89.0 -86.7" fill="#0000ff" fill-rule="evenodd" stroke="none"/>
    <path d="M81.2 -9.65 L81.2 -74.9 Q81.85 -82.6 85.8 -86.6 86.7 -87.6 87.85 -88.35 92.5 -91.55 100.4 -91.1 118.0 -88.3 118.45 -71.15 L118.45 -69.7 Q112.55 6.15 112.55 73.1 L106.6 73.1 102.45 73.1 90.0 73.1 86.4 73.1 -68.15 73.1 -69.9 73.1 -88.3 73.1 -91.5 73.1 -97.9 73.1 Q-98.0 7.0 -105.55 -72.9 -104.8 -90.15 -86.0 -94.1 -78.95 -94.2 -74.45 -92.1 L-72.9 -91.3 Q-68.0 -88.25 -66.9 -81.9 L-66.9 -7.5 -66.9 0.15 Q-66.75 6.5 -62.15 6.85 L-61.05 6.85 75.4 6.85 75.55 6.85 Q81.0 6.7 81.2 0.5 L81.2 -9.65 M89.0 -86.7 Q83.95 -83.2 83.2 -74.75 L83.2 0.55 Q82.95 8.8 75.6 8.85 L75.4 8.85 -61.05 8.85 -62.1 8.85 -62.15 8.85 -62.25 8.85 -62.3 8.85 Q-68.7 8.65 -68.9 0.2 L-68.9 -81.85 Q-70.05 -87.85 -75.3 -90.3 -79.4 -92.2 -85.8 -92.1 -102.65 -88.45 -103.55 -73.05 L-103.55 -72.95 Q-96.1 5.75 -95.9 71.1 L110.55 71.1 Q110.65 5.0 116.45 -69.7 L116.45 -69.8 116.45 -71.1 Q116.05 -86.6 100.1 -89.1 93.1 -89.45 88.95 -86.7 L89.0 -86.7" fill="#330099" fill-rule="evenodd" stroke="none"/>
    <path d="M78.7 -9.65 Q78.2 -19.95 64.35 -21.25 L64.3 -21.25 63.25 -21.35 62.9 -21.35 Q-7.0 -25.95 -59.05 -15.9 L-59.15 -15.85 Q-63.75 -14.45 -64.4 -7.3 L-64.4 0.15 Q-64.3 3.9 -62.0 4.35 L-61.05 4.35 75.4 4.35 75.55 4.35 Q78.55 4.1 78.7 0.5 L78.7 0.45 78.7 -9.65 M-66.9 -7.5 Q-66.05 -16.85 -59.6 -18.3 -7.25 -28.5 63.05 -23.85 L63.45 -23.85 64.55 -23.75 Q80.9 -22.25 81.2 -9.65 L81.2 0.5 Q81.0 6.7 75.55 6.85 L75.4 6.85 -61.05 6.85 -62.15 6.85 Q-66.75 6.5 -66.9 0.15 L-66.9 -7.5 M85.8 -86.6 L81.75 -111.55 Q73.45 -146.9 38.05 -149.75 L-22.5 -149.75 Q-62.1 -146.9 -70.0 -110.85 L-72.9 -91.3 -74.45 -92.1 -71.25 -113.25 Q-63.2 -149.3 -22.8 -152.15 L39.05 -152.15 Q75.15 -149.3 83.65 -113.95 L87.85 -88.35 Q86.7 -87.6 85.8 -86.6" fill="#270079" fill-rule="evenodd" stroke="none"/>
    <path d="M-69.9 73.1 L-72.8 95.0 -87.2 95.0 -88.3 73.1 -69.9 73.1 M90.0 73.1 L102.45 73.1 101.75 95.0 91.0 95.0 90.0 73.1" fill="#b39255" fill-rule="evenodd" stroke="none"/>
    <path d="M106.6 73.1 L105.2 99.2 88.6 99.2 86.4 73.1 90.0 73.1 91.0 95.0 101.75 95.0 102.45 73.1 106.6 73.1 M-68.15 73.1 L-70.35 99.2 -89.75 99.2 -91.5 73.1 -88.3 73.1 -87.2 95.0 -72.8 95.0 -69.9 73.1 -68.15 73.1" fill="#715a00" fill-rule="evenodd" stroke="none"/>
  </g>
</svg>
