<?xml version="1.0" encoding="UTF-8" standalone="no"?>
<svg xmlns:xlink="http://www.w3.org/1999/xlink" height="220.85px" width="220.0px" xmlns="http://www.w3.org/2000/svg">
  <g transform="matrix(1.0, 0.0, 0.0, 1.0, 103.55, 149.75)">
    <path d="M63.45 -23.85 L63.05 -23.85 Q-7.25 -28.5 -59.6 -18.3 -66.05 -16.85 -66.9 -7.5 L-66.9 -81.9 Q-68.0 -88.25 -72.9 -91.3 L-70.0 -110.85 Q-62.1 -146.9 -22.5 -149.75 L38.05 -149.75 Q73.45 -146.9 81.75 -111.55 L85.8 -86.6 Q81.85 -82.6 81.2 -74.9 L81.2 -9.65 Q80.9 -22.25 64.55 -23.75 L63.45 -23.85 M63.25 -21.35 L64.3 -21.25 64.35 -21.25 Q78.2 -19.95 78.7 -9.65 L78.7 0.45 78.7 0.5 Q78.55 4.1 75.55 4.35 L75.4 4.35 -61.05 4.35 -62.0 4.35 Q-64.3 3.9 -64.4 0.15 L-64.4 -7.3 Q-63.75 -14.45 -59.15 -15.85 L-59.05 -15.9 Q-7.0 -25.95 62.9 -21.35 L63.25 -21.35 M116.45 -71.1 L116.45 -69.8 116.45 -69.7 Q110.65 5.0 110.55 71.1 L-95.9 71.1 Q-96.1 5.75 -103.55 -72.95 L-103.55 -73.05 Q-102.65 -88.45 -85.8 -92.1 -79.4 -92.2 -75.3 -90.3 -70.05 -87.85 -68.9 -81.85 L-68.9 0.2 Q-68.7 8.65 -62.3 8.85 L-62.25 8.85 -62.15 8.85 -62.1 8.85 -61.05 8.85 75.4 8.85 75.6 8.85 Q82.95 8.8 83.2 0.55 L83.2 -74.75 Q83.95 -83.2 89.0 -86.7 L88.95 -86.7 Q93.1 -89.45 100.1 -89.1 116.05 -86.6 116.45 -71.1" fill="#0000ff" fill-rule="evenodd" stroke="none"/>
  </g>
</svg>
