<?xml version="1.0" encoding="UTF-8" standalone="no"?>
<svg xmlns:xlink="http://www.w3.org/1999/xlink" height="234.15px" width="230.7px" xmlns="http://www.w3.org/2000/svg">
  <g transform="matrix(1.0, 0.0, 0.0, 1.0, 108.05, 157.95)">
    <path d="M78.9 -138.65 Q107.75 -142.65 101.65 -122.7 92.8 -103.9 73.7 -123.45 77.2 -126.1 78.65 -130.5 80.0 -134.65 78.9 -138.65 M72.65 -122.75 Q84.3 -98.75 68.0 -96.35 L64.85 -96.2 63.4 -96.25 Q44.25 -99.35 56.65 -122.95 58.3 -121.85 60.35 -121.2 66.05 -119.35 71.45 -122.05 L72.65 -122.75 M55.65 -123.7 Q35.45 -104.2 28.35 -121.55 L27.7 -123.6 Q24.15 -143.55 50.9 -138.9 49.35 -133.5 51.9 -128.4 53.35 -125.55 55.65 -123.7 M51.25 -140.05 Q34.0 -149.3 35.75 -157.95 L62.4 -157.95 Q63.55 -154.35 64.25 -149.5 61.2 -149.4 58.25 -147.9 53.2 -145.35 51.25 -140.05 M24.3 -52.6 Q21.25 -52.5 18.3 -51.0 13.25 -48.45 11.3 -43.15 -14.5 -56.95 2.2 -69.5 20.35 -79.5 24.3 -52.6 M10.95 -42.0 Q9.4 -36.6 11.95 -31.5 13.4 -28.65 15.7 -26.8 -4.5 -7.3 -11.6 -24.65 L-12.25 -26.7 Q-15.8 -46.65 10.95 -42.0 M16.7 -26.05 Q18.35 -24.95 20.4 -24.3 26.1 -22.45 31.5 -25.15 L32.7 -25.85 Q44.35 -1.85 28.05 0.55 L24.9 0.7 23.45 0.65 Q4.3 -2.45 16.7 -26.05 M33.75 -26.55 Q37.25 -29.2 38.7 -33.6 40.05 -37.75 38.95 -41.75 67.8 -45.75 61.7 -25.8 52.85 -7.0 33.75 -26.55 M38.55 -43.0 L37.8 -44.65 Q35.1 -50.05 29.4 -51.9 L25.65 -52.6 Q30.8 -81.2 47.85 -69.25 62.95 -55.1 38.55 -43.0 M120.4 -83.85 L120.4 -60.35 Q107.95 -53.0 102.7 -65.85 L102.05 -67.9 Q98.8 -85.95 120.4 -83.85 M122.65 22.95 Q119.95 18.45 114.85 16.8 L111.1 16.1 Q114.4 -2.35 122.65 -3.9 L122.65 22.95 M109.75 16.1 Q106.7 16.2 103.75 17.7 98.7 20.25 96.75 25.55 70.95 11.75 87.65 -0.8 105.8 -10.8 109.75 16.1 M96.4 26.7 Q94.85 32.1 97.4 37.2 98.85 40.05 101.15 41.9 80.95 61.4 73.85 44.05 L73.2 42.0 Q69.65 22.05 96.4 26.7 M102.15 42.65 Q103.8 43.75 105.85 44.4 111.55 46.25 116.95 43.55 L118.15 42.85 120.4 47.95 120.4 66.25 Q118.05 68.6 113.5 69.25 L110.35 69.4 108.9 69.35 Q89.75 66.25 102.15 42.65 M31.7 65.8 L30.95 64.15 Q28.25 58.75 22.55 56.9 L18.8 56.2 Q23.95 27.6 41.0 39.55 56.1 53.7 31.7 65.8 M17.45 56.2 Q14.4 56.3 11.45 57.8 6.4 60.35 4.45 65.65 -21.35 51.85 -4.65 39.3 13.5 29.3 17.45 56.2 M4.1 66.8 Q2.7 71.65 4.6 76.2 L-19.45 76.2 Q-18.25 62.95 4.1 66.8 M31.5 76.2 L31.85 75.2 Q33.2 71.05 32.1 67.05 55.35 63.85 55.9 76.2 L31.5 76.2 M-34.75 -157.95 L-33.5 -157.95 -30.75 -156.75 Q-25.05 -154.9 -19.65 -157.6 -19.35 -157.75 -19.0 -157.95 L-18.25 -157.95 Q-6.9 -134.3 -23.1 -131.9 L-26.25 -131.75 -27.7 -131.8 Q-46.6 -134.9 -34.75 -157.95 M-71.1 -105.45 Q-73.3 -105.4 -75.45 -104.6 L-75.45 -119.5 Q-72.45 -114.65 -71.1 -105.45 M-84.45 -94.85 Q-86.0 -89.45 -83.45 -84.35 -82.0 -81.5 -79.7 -79.65 -99.9 -60.15 -107.0 -77.5 L-107.65 -79.55 Q-111.2 -99.5 -84.45 -94.85 M-78.7 -78.9 Q-77.05 -77.8 -75.0 -77.15 -69.3 -75.3 -63.9 -78.0 L-62.7 -78.7 Q-51.05 -54.7 -67.35 -52.3 L-70.5 -52.15 -71.95 -52.2 Q-91.1 -55.3 -78.7 -78.9 M-61.65 -79.4 Q-58.15 -82.05 -56.7 -86.45 -55.35 -90.6 -56.45 -94.6 -27.6 -98.6 -33.7 -78.65 -42.55 -59.85 -61.65 -79.4 M-56.85 -95.85 L-57.6 -97.5 Q-60.3 -102.9 -66.0 -104.75 L-69.75 -105.45 Q-64.6 -134.05 -47.55 -122.1 -32.45 -107.95 -56.85 -95.85 M-58.8 -10.35 Q-61.85 -10.25 -64.8 -8.75 -69.85 -6.2 -71.8 -0.9 -97.6 -14.7 -80.9 -27.25 -62.75 -37.25 -58.8 -10.35 M-72.15 0.25 Q-73.7 5.65 -71.15 10.75 -69.7 13.6 -67.4 15.45 -87.6 34.95 -94.7 17.6 L-95.35 15.55 Q-98.9 -4.4 -72.15 0.25 M-66.4 16.2 Q-64.75 17.3 -62.7 17.95 -57.0 19.8 -51.6 17.1 L-50.4 16.4 Q-38.75 40.4 -55.05 42.8 L-58.2 42.95 -59.65 42.9 Q-78.8 39.8 -66.4 16.2 M-49.35 15.7 Q-45.85 13.05 -44.4 8.65 -43.05 4.5 -44.15 0.5 -15.3 -3.5 -21.4 16.45 -30.25 35.25 -49.35 15.7 M-44.55 -0.75 L-45.3 -2.4 Q-48.0 -7.8 -53.7 -9.65 L-57.45 -10.35 Q-52.3 -38.95 -35.25 -27.0 -20.15 -12.85 -44.55 -0.75 M-16.3 -157.95 L10.4 -157.95 Q1.8 -140.1 -16.3 -157.95" fill="#ffff00" fill-rule="evenodd" stroke="none"/>
    <path d="M64.25 -149.5 L64.8 -149.55 65.05 -149.55 65.6 -149.5 69.35 -148.8 Q75.05 -146.95 77.75 -141.55 L78.5 -139.9 78.7 -139.35 78.75 -139.2 78.9 -138.65 Q80.0 -134.65 78.65 -130.5 77.2 -126.1 73.7 -123.45 L73.25 -123.15 72.65 -122.75 71.45 -122.05 Q66.05 -119.35 60.35 -121.2 58.3 -121.85 56.65 -122.95 L56.4 -123.15 56.2 -123.3 55.65 -123.7 Q53.35 -125.55 51.9 -128.4 49.35 -133.5 50.9 -138.9 L51.05 -139.4 51.05 -139.45 51.05 -139.5 51.25 -140.05 Q53.2 -145.35 58.25 -147.9 61.2 -149.4 64.25 -149.5 M24.3 -52.6 L24.85 -52.65 25.1 -52.65 25.65 -52.6 29.4 -51.9 Q35.1 -50.05 37.8 -44.65 L38.55 -43.0 38.75 -42.45 38.8 -42.3 38.95 -41.75 Q40.05 -37.75 38.7 -33.6 37.25 -29.2 33.75 -26.55 L33.3 -26.25 32.7 -25.85 31.5 -25.15 Q26.1 -22.45 20.4 -24.3 18.35 -24.95 16.7 -26.05 L16.45 -26.25 16.25 -26.4 15.7 -26.8 Q13.4 -28.65 11.95 -31.5 9.4 -36.6 10.95 -42.0 L11.1 -42.5 11.1 -42.55 11.1 -42.6 11.3 -43.15 Q13.25 -48.45 18.3 -51.0 21.25 -52.5 24.3 -52.6 M122.65 22.95 L122.65 28.9 120.4 28.9 120.4 41.15 119.2 42.15 118.75 42.45 118.15 42.85 116.95 43.55 Q111.55 46.25 105.85 44.4 103.8 43.75 102.15 42.65 L101.9 42.45 101.7 42.3 101.15 41.9 Q98.85 40.05 97.4 37.2 94.85 32.1 96.4 26.7 L96.55 26.2 96.55 26.15 96.55 26.1 96.75 25.55 Q98.7 20.25 103.75 17.7 106.7 16.2 109.75 16.1 L110.3 16.05 110.55 16.05 111.1 16.1 114.85 16.8 Q119.95 18.45 122.65 22.95 M31.7 65.8 L31.9 66.35 31.95 66.5 32.1 67.05 Q33.2 71.05 31.85 75.2 L31.5 76.2 4.6 76.2 Q2.7 71.65 4.1 66.8 L4.25 66.3 4.25 66.25 4.25 66.2 4.45 65.65 Q6.4 60.35 11.45 57.8 14.4 56.3 17.45 56.2 L18.0 56.15 18.25 56.15 18.8 56.2 22.55 56.9 Q28.25 58.75 30.95 64.15 L31.7 65.8 M-75.45 -104.6 Q-73.3 -105.4 -71.1 -105.45 L-70.55 -105.5 -70.3 -105.5 -69.75 -105.45 -66.0 -104.75 Q-60.3 -102.9 -57.6 -97.5 L-56.85 -95.85 -56.65 -95.3 -56.6 -95.15 -56.45 -94.6 Q-55.35 -90.6 -56.7 -86.45 -58.15 -82.05 -61.65 -79.4 L-62.1 -79.1 -62.7 -78.7 -63.9 -78.0 Q-69.3 -75.3 -75.0 -77.15 -77.05 -77.8 -78.7 -78.9 L-78.95 -79.1 -79.15 -79.25 -79.7 -79.65 Q-82.0 -81.5 -83.45 -84.35 -86.0 -89.45 -84.45 -94.85 L-84.3 -95.35 -84.3 -95.4 -84.3 -95.45 -84.1 -96.0 Q-82.95 -99.15 -80.7 -101.3 L-75.45 -101.3 -75.45 -104.6 M-71.8 -0.9 Q-69.85 -6.2 -64.8 -8.75 -61.85 -10.25 -58.8 -10.35 L-58.25 -10.4 -58.0 -10.4 -57.45 -10.35 -53.7 -9.65 Q-48.0 -7.8 -45.3 -2.4 L-44.55 -0.75 -44.35 -0.2 -44.3 -0.05 -44.15 0.5 Q-43.05 4.5 -44.4 8.65 -45.85 13.05 -49.35 15.7 L-49.8 16.0 -50.4 16.4 -51.6 17.1 Q-57.0 19.8 -62.7 17.95 -64.75 17.3 -66.4 16.2 L-66.65 16.0 -66.85 15.85 -67.4 15.45 Q-69.7 13.6 -71.15 10.75 -73.7 5.65 -72.15 0.25 L-72.0 -0.25 -72.0 -0.3 -72.0 -0.35 -71.8 -0.9" fill="#ff0099" fill-rule="evenodd" stroke="none"/>
  </g>
</svg>
