<?xml version="1.0" encoding="UTF-8" standalone="no"?>
<svg xmlns:xlink="http://www.w3.org/1999/xlink" height="113.2px" width="214.8px" xmlns="http://www.w3.org/2000/svg">
  <g transform="matrix(1.0, 0.0, 0.0, 1.0, 176.65, 83.8)">
    <path d="M5.05 -3.7 Q6.15 -2.6 6.65 -1.2 L7.0 0.05 7.05 1.1 Q7.05 2.6 6.45 3.9 L5.8 5.0 5.05 5.9 Q3.05 7.85 0.25 7.9 -2.55 7.85 -4.55 5.9 -6.2 4.2 -6.45 1.95 L-6.5 1.1 -6.5 0.65 Q-6.4 -1.4 -5.2 -3.0 L-4.55 -3.7 -4.3 -3.95 Q-2.4 -5.75 0.25 -5.75 3.0 -5.75 5.05 -3.7 M21.05 -0.65 Q20.9 -9.05 14.95 -14.95 8.85 -21.05 0.25 -21.05 -8.35 -21.05 -14.35 -14.95 -16.15 -13.2 -17.4 -11.2 -20.3 -13.4 -22.9 -16.05 -21.45 -18.2 -19.5 -20.15 -11.3 -28.3 0.3 -28.3 11.9 -28.3 20.1 -20.15 27.9 -12.3 28.3 -1.35 L21.05 -0.65 M20.25 5.6 L27.85 4.9 Q26.4 13.15 20.1 19.45 11.9 27.65 0.3 27.65 -11.3 27.65 -19.5 19.45 -27.65 11.25 -27.65 -0.3 -27.7 -5.65 -25.95 -10.25 L-19.9 -5.2 Q-20.45 -2.85 -20.45 -0.3 -20.5 8.3 -14.35 14.35 -8.35 20.4 0.25 20.45 8.85 20.4 14.95 14.35 18.85 10.45 20.25 5.6 M-152.1 -78.2 Q-152.85 -80.2 -154.15 -81.75 L-5.45 -67.15 Q-6.35 -66.05 -6.9 -64.4 L-6.95 -64.3 -6.95 -64.25 -15.6 -34.1 Q-17.05 -31.65 -20.8 -31.45 L-131.25 -29.4 -132.65 -29.55 -132.8 -29.6 Q-133.4 -29.7 -133.85 -29.95 -135.35 -30.7 -136.15 -32.4 L-152.1 -78.15 -152.1 -78.2" fill="#9966ff" fill-rule="evenodd" stroke="none"/>
    <path d="M19.3 -0.55 Q19.25 -8.3 13.8 -13.8 8.15 -19.35 0.25 -19.35 -7.65 -19.35 -13.15 -13.8 -14.9 -12.1 -16.05 -10.15 L-17.4 -11.2 Q-16.15 -13.2 -14.35 -14.95 -8.35 -21.05 0.25 -21.05 8.85 -21.05 14.95 -14.95 20.9 -9.05 21.05 -0.65 L19.3 -0.55 M28.3 -1.35 Q27.9 -12.3 20.1 -20.15 11.9 -28.3 0.3 -28.3 -11.3 -28.3 -19.5 -20.15 -21.45 -18.2 -22.9 -16.05 L-24.1 -17.3 -20.65 -21.3 Q-12.0 -29.95 0.3 -29.95 12.55 -29.95 21.25 -21.3 29.5 -13.1 29.95 -1.6 L28.3 -1.35 M27.85 4.9 L29.6 4.65 Q28.15 13.8 21.25 20.65 12.55 29.35 0.3 29.35 -12.0 29.35 -20.65 20.65 -29.35 11.95 -29.35 -0.3 -29.35 -6.4 -27.25 -11.6 L-25.95 -10.25 Q-27.7 -5.65 -27.65 -0.3 -27.65 11.25 -19.5 19.45 -11.3 27.65 0.3 27.65 11.9 27.65 20.1 19.45 26.4 13.15 27.85 4.9 M-148.8 -63.55 L-153.7 -77.6 Q-154.9 -80.8 -157.7 -82.7 L-157.7 -83.8 -3.15 -68.65 Q-1.85 -68.0 -3.15 -67.1 -4.6 -66.0 -5.35 -63.8 L-14.05 -33.4 Q-15.8 -29.95 -20.8 -29.75 L-36.2 -29.5 -38.7 -29.45 -56.95 -29.1 -59.5 -29.05 -131.2 -27.7 -133.1 -27.95 -134.6 -28.4 Q-136.65 -29.4 -137.75 -31.75 L-148.25 -61.9 -148.8 -63.55 M18.45 5.65 L20.25 5.6 Q18.85 10.45 14.95 14.35 8.85 20.4 0.25 20.45 -8.35 20.4 -14.35 14.35 -20.5 8.3 -20.45 -0.3 -20.45 -2.85 -19.9 -5.2 L-18.4 -4.15 Q-18.75 -2.3 -18.75 -0.3 -18.8 7.6 -13.15 13.15 -7.65 18.75 0.25 18.75 8.15 18.75 13.8 13.15 17.1 9.8 18.45 5.65 M-152.1 -78.2 L-152.1 -78.15 -136.15 -32.4 Q-135.35 -30.7 -133.85 -29.95 -133.4 -29.7 -132.8 -29.6 L-132.65 -29.55 -131.25 -29.4 -20.8 -31.45 Q-17.05 -31.65 -15.6 -34.1 L-6.95 -64.25 -6.95 -64.3 -6.9 -64.4 Q-6.35 -66.05 -5.45 -67.15 L-154.15 -81.75 Q-152.85 -80.2 -152.1 -78.2" fill="#5834a3" fill-rule="evenodd" stroke="none"/>
    <path d="M-16.05 -10.15 Q-14.9 -12.1 -13.15 -13.8 -7.65 -19.35 0.25 -19.35 8.15 -19.35 13.8 -13.8 19.25 -8.3 19.3 -0.55 L8.15 -1.0 Q7.6 -3.05 6.0 -4.65 3.6 -7.05 0.25 -7.1 -3.1 -7.05 -5.5 -4.65 L-5.65 -4.45 Q-11.2 -6.7 -16.05 -10.15 M29.95 -0.45 L34.7 -1.3 Q35.4 -1.45 36.1 -1.0 36.7 -0.6 36.95 0.2 L36.95 0.25 Q37.05 0.95 36.65 1.6 L35.45 2.45 29.75 3.45 28.05 3.7 20.5 4.4 18.8 4.45 7.85 4.05 Q8.4 2.65 8.4 1.1 L8.35 0.25 19.3 0.65 21.0 0.55 28.3 -0.2 29.95 -0.45 M-18.4 -4.15 Q-13.45 -0.8 -7.85 1.45 -7.8 4.55 -5.5 6.8 L-5.5 6.85 Q-3.1 9.2 0.25 9.25 3.6 9.2 6.0 6.85 L6.0 6.8 7.25 5.2 18.45 5.65 Q17.1 9.8 13.8 13.15 8.15 18.75 0.25 18.75 -7.65 18.75 -13.15 13.15 -18.8 7.6 -18.75 -0.3 -18.75 -2.3 -18.4 -4.15 M-38.7 -29.45 Q-33.8 -27.1 -29.65 -22.15 L-29.65 -22.2 -27.55 -19.5 -27.55 -19.45 -24.75 -16.25 -23.6 -15.05 Q-20.95 -12.35 -18.05 -10.15 L-16.7 -9.1 Q-11.95 -5.75 -6.5 -3.5 -7.65 -1.9 -7.85 0.15 -13.3 -2.05 -18.1 -5.4 L-19.6 -6.45 Q-22.65 -8.75 -25.45 -11.45 L-26.75 -12.75 -30.45 -17.0 -30.6 -17.25 -32.55 -19.75 -32.55 -19.8 Q-39.6 -28.15 -49.25 -27.65 L-49.35 -27.65 Q-60.95 -25.4 -65.2 -14.5 L-73.0 6.8 -73.1 7.0 Q-79.8 23.9 -89.25 27.2 -98.9 30.9 -111.2 20.55 L-111.35 20.45 Q-124.95 7.1 -133.3 -14.05 L-133.4 -14.2 Q-141.05 -34.25 -146.85 -54.2 L-146.9 -54.25 Q-148.6 -58.25 -151.55 -59.25 L-151.6 -59.25 Q-154.9 -60.15 -159.65 -57.85 L-172.7 -51.2 -174.15 -51.1 Q-174.9 -51.35 -175.25 -52.0 -175.6 -52.7 -175.35 -53.45 L-175.35 -53.5 Q-175.1 -54.25 -174.4 -54.55 L-161.35 -61.25 -161.3 -61.25 Q-154.9 -64.35 -150.5 -62.9 L-150.45 -62.9 Q-149.3 -62.55 -148.25 -61.9 L-137.75 -31.75 Q-136.65 -29.4 -134.6 -28.4 L-129.8 -15.4 Q-121.8 4.85 -108.7 17.75 L-108.65 17.75 Q-98.45 26.3 -90.55 23.65 L-90.5 23.65 Q-82.45 20.5 -76.55 5.55 L-76.55 5.45 -68.8 -15.7 -68.7 -15.95 Q-65.05 -25.15 -56.95 -29.1 L-38.7 -29.45" fill="#ffcc00" fill-rule="evenodd" stroke="none"/>
    <path d="M5.05 -3.7 Q3.0 -5.75 0.25 -5.75 -2.4 -5.75 -4.3 -3.95 L-4.55 -3.7 -5.2 -3.0 Q-6.4 -1.4 -6.5 0.65 L-6.5 1.1 -6.45 1.95 Q-6.2 4.2 -4.55 5.9 -2.55 7.85 0.25 7.9 3.05 7.85 5.05 5.9 L5.8 5.0 6.45 3.9 Q7.05 2.6 7.05 1.1 L7.0 0.05 6.65 -1.2 Q6.15 -2.6 5.05 -3.7 M-16.05 -10.15 Q-11.2 -6.7 -5.65 -4.45 L-5.5 -4.65 Q-3.1 -7.05 0.25 -7.1 3.6 -7.05 6.0 -4.65 7.6 -3.05 8.15 -1.0 L19.3 -0.55 21.05 -0.65 28.3 -1.35 29.95 -1.6 34.45 -2.45 Q35.65 -2.7 36.75 -2.0 L36.8 -2.0 Q37.8 -1.3 38.1 -0.05 L38.1 0.0 Q38.3 1.2 37.65 2.25 L37.65 2.3 Q36.9 3.3 35.65 3.55 L29.6 4.65 27.85 4.9 20.25 5.6 18.45 5.65 7.25 5.2 6.0 6.8 6.0 6.85 Q3.6 9.2 0.25 9.25 -3.1 9.2 -5.5 6.85 L-5.5 6.8 Q-7.8 4.55 -7.85 1.45 -13.45 -0.8 -18.4 -4.15 L-19.9 -5.2 -25.95 -10.25 -27.25 -11.6 Q-29.4 -13.8 -31.4 -16.3 L-31.5 -16.45 -31.55 -16.5 -33.45 -19.0 Q-40.1 -26.9 -49.15 -26.5 -60.0 -24.35 -64.05 -14.15 L-64.1 -14.05 -71.9 7.3 -71.95 7.4 Q-78.9 24.95 -88.85 28.3 -99.0 32.35 -111.95 21.5 L-112.0 21.4 -112.1 21.35 Q-125.9 7.85 -134.35 -13.45 L-134.45 -13.6 Q-142.15 -33.75 -148.0 -53.8 -149.45 -57.25 -151.95 -58.15 L-151.9 -58.1 Q-154.85 -58.85 -159.2 -56.8 L-159.25 -56.75 -172.15 -50.15 -174.5 -49.95 Q-175.75 -50.35 -176.3 -51.5 -176.9 -52.65 -176.45 -53.85 L-176.45 -53.8 Q-176.1 -55.05 -174.95 -55.6 L-161.95 -62.25 -161.75 -62.35 Q-154.9 -65.65 -150.1 -64.0 L-150.15 -64.0 -148.8 -63.55 -148.25 -61.9 Q-149.3 -62.55 -150.45 -62.9 L-150.5 -62.9 Q-154.9 -64.35 -161.3 -61.25 L-161.35 -61.25 -174.4 -54.55 Q-175.1 -54.25 -175.35 -53.5 L-175.35 -53.45 Q-175.6 -52.7 -175.25 -52.0 -174.9 -51.35 -174.15 -51.1 L-172.7 -51.2 -159.65 -57.85 Q-154.9 -60.15 -151.6 -59.25 L-151.55 -59.25 Q-148.6 -58.25 -146.9 -54.25 L-146.85 -54.2 Q-141.05 -34.25 -133.4 -14.2 L-133.3 -14.05 Q-124.95 7.1 -111.35 20.45 L-111.2 20.55 Q-98.9 30.9 -89.25 27.2 -79.8 23.9 -73.1 7.0 L-73.0 6.8 -65.2 -14.5 Q-60.95 -25.4 -49.35 -27.65 L-49.25 -27.65 Q-39.6 -28.15 -32.55 -19.8 L-32.55 -19.75 -30.6 -17.25 -30.45 -17.0 -26.75 -12.75 -25.45 -11.45 Q-22.65 -8.75 -19.6 -6.45 L-18.1 -5.4 Q-13.3 -2.05 -7.85 0.15 -7.65 -1.9 -6.5 -3.5 -11.95 -5.75 -16.7 -9.1 L-18.05 -10.15 Q-20.95 -12.35 -23.6 -15.05 L-24.75 -16.25 -27.55 -19.45 -27.55 -19.5 -29.65 -22.2 -29.65 -22.15 Q-33.8 -27.1 -38.7 -29.45 L-36.2 -29.5 Q-32.25 -27.15 -28.75 -23.0 L-28.75 -22.95 -26.6 -20.15 -26.65 -20.2 -24.1 -17.3 -22.9 -16.05 Q-20.3 -13.4 -17.4 -11.2 L-16.05 -10.15 M29.95 -0.45 L28.3 -0.2 21.0 0.55 19.3 0.65 8.35 0.25 8.4 1.1 Q8.4 2.65 7.85 4.05 L18.8 4.45 20.5 4.4 28.05 3.7 29.75 3.45 35.45 2.45 36.65 1.6 Q37.05 0.95 36.95 0.25 L36.95 0.2 Q36.7 -0.6 36.1 -1.0 35.4 -1.45 34.7 -1.3 L29.95 -0.45 M-134.6 -28.4 L-133.1 -27.95 -128.65 -15.85 Q-120.8 4.15 -107.9 16.85 L-107.95 16.85 Q-98.3 24.85 -90.95 22.5 -83.4 19.45 -77.75 5.2 L-77.65 5.15 -69.85 -16.25 -69.85 -16.3 Q-66.5 -24.8 -59.5 -29.05 L-56.95 -29.1 Q-65.05 -25.15 -68.7 -15.95 L-68.8 -15.7 -76.55 5.45 -76.55 5.55 Q-82.45 20.5 -90.5 23.65 L-90.55 23.65 Q-98.45 26.3 -108.65 17.75 L-108.7 17.75 Q-121.8 4.85 -129.8 -15.4 L-134.6 -28.4" fill="#ff9900" fill-rule="evenodd" stroke="none"/>
  </g>
</svg>
