<?xml version="1.0" encoding="UTF-8" standalone="no"?>
<svg xmlns:xlink="http://www.w3.org/1999/xlink" height="97.2px" width="78.65px" xmlns="http://www.w3.org/2000/svg">
  <g transform="matrix(1.0, 0.0, 0.0, 1.0, 42.85, 50.0)">
    <path d="M23.25 -23.6 L24.85 -25.0 Q28.25 -27.8 32.25 -29.05 37.15 -30.55 35.3 -26.15 34.5 -24.3 32.45 -24.5 28.3 -25.0 24.45 -22.3 L24.4 -22.25 Q20.55 -19.55 17.85 -15.8 15.1 -12.05 14.4 -10.05 L13.4 -7.5 12.2 -8.9 13.6 -11.45 Q15.65 -15.4 18.55 -18.8 20.7 -21.35 23.2 -23.55 L23.25 -23.6" fill="#660000" fill-rule="evenodd" stroke="none"/>
    <path d="M13.4 -7.5 L13.3 -7.35 13.5 -7.1 13.75 -7.0 Q23.4 -2.95 27.95 3.45 31.05 7.75 31.7 13.2 33.45 26.65 21.85 37.0 10.2 47.35 -4.3 47.2 -9.65 47.1 -14.8 45.3 -23.7 42.05 -32.1 33.6 -39.75 25.9 -41.95 18.15 -43.6 12.45 -42.3 6.7 -39.8 -4.65 -33.85 -13.15 L-31.3 -16.45 Q-23.4 -26.1 -11.6 -26.35 -0.4 -26.6 12.2 -8.9 L13.4 -7.5 M12.5 -6.4 L11.45 -7.85 Q-0.65 -24.8 -11.4 -24.5 -22.75 -24.3 -30.3 -15.15 L-31.8 -13.2 Q-38.2 -4.55 -40.85 7.15 -42.05 12.65 -40.45 18.1 -38.4 25.5 -31.05 32.9 -23.0 41.0 -14.45 44.1 -9.5 45.9 -4.35 46.0 9.5 46.15 20.65 36.2 31.8 26.25 30.2 13.35 29.35 6.9 25.0 2.05 20.6 -2.85 12.7 -6.1 L12.5 -6.4" fill="#007500" fill-rule="evenodd" stroke="none"/>
    <path d="M24.0 -50.0 L26.1 -44.55 Q27.35 -40.45 27.35 -36.05 27.3 -31.85 26.0 -27.8 25.4 -25.95 23.25 -23.6 22.05 -35.85 24.0 -50.0" fill="#339900" fill-rule="evenodd" stroke="none"/>
    <path d="M23.25 -23.6 Q21.55 -25.45 20.25 -27.6 17.9 -31.65 18.5 -36.1 19.1 -40.45 20.5 -44.35 21.6 -47.55 24.0 -50.0 22.05 -35.85 23.25 -23.6" fill="#33cc00" fill-rule="evenodd" stroke="none"/>
    <path d="M12.5 -6.4 L12.7 -6.1 Q20.6 -2.85 25.0 2.05 29.35 6.9 30.2 13.35 31.8 26.25 20.65 36.2 9.5 46.15 -4.35 46.0 -9.5 45.9 -14.45 44.1 -23.0 41.0 -31.05 32.9 -38.4 25.5 -40.45 18.1 -42.05 12.65 -40.85 7.15 -38.2 -4.55 -31.8 -13.2 L-30.3 -15.15 Q-22.75 -24.3 -11.4 -24.5 -0.65 -24.8 11.45 -7.85 L12.5 -6.4" fill="url(#gradient0)" fill-rule="evenodd" stroke="none"/>
  </g>
  <defs>
    <radialGradient cx="0" cy="0" gradientTransform="matrix(0.163, 0.163, -0.163, 0.163, 24.3, 18.8)" gradientUnits="userSpaceOnUse" id="gradient0" r="819.2" spreadMethod="pad">
      <stop offset="0.0" stop-color="#00ff00"/>
      <stop offset="0.43529411764705883" stop-color="#ff1515"/>
    </radialGradient>
  </defs>
</svg>
