<?xml version="1.0" encoding="UTF-8" standalone="no"?>
<svg xmlns:xlink="http://www.w3.org/1999/xlink" height="75.25px" width="204.9px" xmlns="http://www.w3.org/2000/svg">
  <g transform="matrix(1.0, 0.0, 0.0, 1.0, 102.45, 39.35)">
    <path d="M68.3 18.8 L68.3 -15.6 45.9 -13.9 36.3 -13.4 36.3 -17.3 45.9 -17.75 70.95 -19.75 72.45 -19.95 Q99.6 -22.95 102.15 -27.1 L102.15 -23.2 Q100.45 -20.5 88.2 -18.25 L90.45 27.3 90.55 29.45 Q90.6 38.85 82.55 34.55 L74.1 29.7 72.25 28.65 Q68.45 25.9 68.3 20.0 L68.3 18.8 M-41.75 -17.55 L-41.75 -13.65 -53.65 -14.35 -68.3 -15.6 -68.3 15.4 -68.3 17.7 Q-68.6 24.85 -72.6 27.85 L-73.9 28.65 -81.9 33.65 -83.2 34.5 Q-90.5 38.65 -90.65 30.15 L-90.45 26.8 -88.2 -18.25 Q-100.5 -20.5 -102.15 -23.2 L-102.15 -27.1 Q-99.6 -22.95 -72.45 -19.95 L-70.85 -19.75 -53.65 -18.25 -41.75 -17.55 M68.3 -15.6 L70.95 -15.9 68.3 -15.6 M87.35 27.35 L84.6 -17.65 72.45 -16.05 70.95 -15.9 70.95 19.45 70.95 20.2 Q71.05 24.3 73.75 25.9 L74.85 26.45 83.3 30.35 84.05 30.7 Q87.45 32.05 87.4 27.85 L87.35 27.35 M-88.2 -18.25 L-84.65 -17.65 -88.2 -18.25 M88.2 -18.25 L84.6 -17.65 88.2 -18.25 M-70.85 -15.85 L-68.3 -15.6 -70.85 -15.85 -72.45 -16.05 -84.65 -17.65 -87.15 26.35 -87.15 26.85 Q-87.3 31.65 -83.2 29.7 L-74.75 25.2 -74.6 25.15 Q-71.0 23.1 -70.85 18.85 L-70.85 18.35 -70.85 -15.85" fill="#000099" fill-rule="evenodd" stroke="none"/>
    <path d="M36.3 -17.3 L36.3 -19.8 45.9 -20.4 57.9 -21.55 Q65.7 -22.4 70.95 -23.4 81.9 -25.45 81.95 -28.0 81.9 -31.8 57.9 -34.45 33.9 -37.1 0.0 -37.1 -33.95 -37.1 -57.95 -34.45 -81.95 -31.8 -81.95 -28.0 -81.95 -24.2 -57.95 -21.55 L-53.65 -21.1 -41.75 -20.1 -41.75 -17.55 -53.65 -18.25 -70.85 -19.75 -72.45 -19.95 Q-99.6 -22.95 -102.15 -27.1 L-102.15 -28.85 Q-99.6 -33.05 -72.45 -36.05 -42.45 -39.4 0.0 -39.35 42.45 -39.4 72.45 -36.05 99.6 -33.05 102.15 -28.85 L102.15 -27.1 Q99.6 -22.95 72.45 -19.95 L70.95 -19.75 45.9 -17.75 36.3 -17.3" fill="#0033ff" fill-rule="evenodd" stroke="none"/>
    <path d="M36.3 -19.8 Q19.85 -18.9 0.0 -18.9 -23.2 -18.9 -41.75 -20.1 L-53.65 -21.1 -57.95 -21.55 Q-81.95 -24.2 -81.95 -28.0 -81.95 -31.8 -57.95 -34.45 -33.95 -37.1 0.0 -37.1 33.9 -37.1 57.9 -34.45 81.9 -31.8 81.95 -28.0 81.9 -25.45 70.95 -23.4 65.7 -22.4 57.9 -21.55 L45.9 -20.4 36.3 -19.8" fill="#000000" fill-rule="evenodd" stroke="none"/>
    <path d="M68.3 18.8 L68.3 -15.6 45.9 -13.9 36.3 -13.4 36.3 -17.3 36.3 -19.8 M-41.75 -20.1 L-41.75 -17.55 -41.75 -13.65 -53.65 -14.35 -68.3 -15.6 -68.3 15.4 M-73.9 28.65 L-81.9 33.65 M-90.45 26.8 L-88.2 -18.25 Q-100.5 -20.5 -102.15 -23.2 L-102.15 -27.1 -102.45 -28.0 -102.15 -28.85 Q-99.6 -33.05 -72.45 -36.05 -42.45 -39.4 0.0 -39.35 42.45 -39.4 72.45 -36.05 99.6 -33.05 102.15 -28.85 L102.45 -28.0 102.15 -27.1 102.15 -23.2 Q100.45 -20.5 88.2 -18.25 L90.45 27.3 M82.55 34.55 L74.1 29.7 M36.3 -17.3 L45.9 -17.75 70.95 -19.75 72.45 -19.95 Q99.6 -22.95 102.15 -27.1 L102.15 -28.85 M70.95 -15.9 L68.3 -15.6 M87.35 27.35 L84.6 -17.65 72.45 -16.05 70.95 -15.9 70.95 19.45 M74.85 26.45 L83.3 30.35 M-41.75 -20.1 L-53.65 -21.1 -57.95 -21.55 Q-81.95 -24.2 -81.95 -28.0 -81.95 -31.8 -57.95 -34.45 -33.95 -37.1 0.0 -37.1 33.9 -37.1 57.9 -34.45 81.9 -31.8 81.95 -28.0 81.9 -25.45 70.95 -23.4 65.7 -22.4 57.9 -21.55 L45.9 -20.4 36.3 -19.8 M84.6 -17.65 L88.2 -18.25 M-84.65 -17.65 L-88.2 -18.25 M-102.15 -27.1 L-102.15 -28.85 M-68.3 -15.6 L-70.85 -15.85 -70.85 18.35 M-74.75 25.2 L-83.2 29.7 M-87.15 26.35 L-84.65 -17.65 -72.45 -16.05 -70.85 -15.85 M-102.15 -27.1 Q-99.6 -22.95 -72.45 -19.95 L-70.85 -19.75 -53.65 -18.25 -41.75 -17.55" fill="none" stroke="#000000" stroke-linecap="round" stroke-linejoin="round" stroke-width="0.05"/>
    <path d="M-68.3 15.4 L-68.3 17.7 Q-68.6 24.85 -72.6 27.85 L-73.9 28.65 M-81.9 33.65 L-83.2 34.5 Q-90.5 38.65 -90.65 30.15 L-90.45 26.8 M90.45 27.3 L90.55 29.45 Q90.6 38.85 82.55 34.55 M74.1 29.7 L72.25 28.65 Q68.45 25.9 68.3 20.0 L68.3 18.8 M70.95 19.45 L70.95 20.2 Q71.05 24.3 73.75 25.9 L74.85 26.45 M83.3 30.35 L84.05 30.7 Q87.45 32.05 87.4 27.85 L87.35 27.35 M-70.85 18.35 L-70.85 18.85 Q-71.0 23.1 -74.6 25.15 L-74.75 25.2 M-83.2 29.7 Q-87.3 31.65 -87.15 26.85 L-87.15 26.35" fill="none" stroke="#000000" stroke-linecap="round" stroke-linejoin="round" stroke-width="0.05"/>
  </g>
</svg>
