<?xml version="1.0" encoding="UTF-8" standalone="no"?>
<svg xmlns:xlink="http://www.w3.org/1999/xlink" height="9.1px" width="116.25px" xmlns="http://www.w3.org/2000/svg">
  <g transform="matrix(1.0, 0.0, 0.0, 1.0, 58.1, 4.55)">
    <path d="M-58.1 -4.1 Q-34.6 -1.65 -1.9 -1.65 32.0 -1.65 56.0 -4.3 L58.15 -4.55 58.15 -1.5 -1.9 0.65 -58.1 -1.2 -58.1 -4.1" fill="#0033ff" fill-rule="evenodd" stroke="none"/>
    <path d="M-58.1 -1.2 L-1.9 0.65 58.15 -1.5 58.15 2.4 -1.9 4.55 -58.1 2.7 -58.1 -1.2" fill="#000099" fill-rule="evenodd" stroke="none"/>
    <path d="M58.15 -4.55 L56.0 -4.3 Q32.0 -1.65 -1.9 -1.65 -34.6 -1.65 -58.1 -4.1 M-58.1 -1.2 L-1.9 0.65 58.15 -1.5 M-58.1 2.7 L-1.9 4.55 58.15 2.4" fill="none" stroke="#000000" stroke-linecap="round" stroke-linejoin="round" stroke-width="0.05"/>
  </g>
</svg>
