<?xml version="1.0" encoding="UTF-8" standalone="no"?>
<svg xmlns:xlink="http://www.w3.org/1999/xlink" height="91.9px" width="91.9px" xmlns="http://www.w3.org/2000/svg">
  <g transform="matrix(1.0, 0.0, 0.0, 1.0, 45.95, 46.0)">
    <path d="M32.5 -32.5 Q45.95 -19.05 45.95 -0.05 45.95 19.0 32.5 32.45 19.0 45.95 0.0 45.9 -19.0 45.95 -32.45 32.45 -45.95 19.0 -45.95 -0.05 -45.95 -19.05 -32.45 -32.5 -19.0 -45.95 0.0 -46.0 19.0 -45.95 32.5 -32.5 M45.0 0.0 Q44.95 -18.7 31.85 -31.85 18.65 -45.0 0.0 -45.0 -18.7 -45.0 -31.85 -31.85 -45.05 -18.7 -45.05 0.0 -45.05 18.65 -31.8 31.8 -18.7 45.0 0.0 45.0 18.6 45.0 31.8 31.8 44.95 18.65 45.0 0.0" fill="#ffffff" fill-rule="evenodd" stroke="none"/>
    <path d="M45.0 0.0 Q44.95 18.65 31.8 31.8 18.6 45.0 0.0 45.0 -18.7 45.0 -31.8 31.8 -45.05 18.65 -45.05 0.0 -45.05 -18.7 -31.85 -31.85 -18.7 -45.0 0.0 -45.0 18.65 -45.0 31.85 -31.85 44.95 -18.7 45.0 0.0" fill="url(#gradient0)" fill-rule="evenodd" stroke="none"/>
  </g>
  <defs>
    <radialGradient cx="0" cy="0" gradientTransform="matrix(0.1027, 0.0, 0.0, 0.1027, -38.4, -4.95)" gradientUnits="userSpaceOnUse" id="gradient0" r="819.2" spreadMethod="pad">
      <stop offset="0.0" stop-color="#ffffff" stop-opacity="0.67058825"/>
      <stop offset="0.8235294117647058" stop-color="#ffffff" stop-opacity="0.0"/>
    </radialGradient>
  </defs>
</svg>
