<?xml version="1.0" encoding="UTF-8" standalone="no"?>
<svg xmlns:xlink="http://www.w3.org/1999/xlink" height="320.0px" width="159.5px" xmlns="http://www.w3.org/2000/svg">
  <g transform="matrix(1.0, 0.0, 0.0, 1.0, 79.75, 160.0)">
    <path d="M37.45 -21.8 Q24.5 -21.8 15.35 -12.65 6.2 -3.5 6.2 9.45 6.2 22.4 15.35 31.55 24.5 40.7 37.45 40.7 50.4 40.7 59.55 31.55 68.7 22.4 68.7 9.45 68.7 -3.5 59.55 -12.65 50.4 -21.8 37.45 -21.8 M-42.15 -75.65 Q-51.3 -66.5 -51.3 -53.55 -51.3 -40.6 -42.15 -31.45 -33.0 -22.3 -20.05 -22.3 -7.1 -22.3 2.05 -31.45 11.2 -40.6 11.2 -53.55 11.2 -66.5 2.05 -75.65 -7.1 -84.8 -20.05 -84.8 -33.0 -84.8 -42.15 -75.65 M14.15 -137.6 Q5.0 -128.45 5.0 -115.5 5.0 -102.55 14.15 -93.4 23.3 -84.25 36.25 -84.25 49.2 -84.25 58.35 -93.4 67.5 -102.55 67.5 -115.5 67.5 -128.45 58.35 -137.6 49.2 -146.75 36.25 -146.75 23.3 -146.75 14.15 -137.6 M10.25 160.0 L-79.75 160.0 -79.75 -160.0 77.25 -160.0 77.25 160.0 64.65 160.0 Q68.7 153.05 68.7 144.45 68.7 131.5 59.55 122.35 50.4 113.2 37.45 113.2 24.5 113.2 15.35 122.35 6.2 131.5 6.2 144.45 6.2 153.05 10.25 160.0 M15.2 74.45 Q15.2 61.5 6.05 52.35 -3.1 43.2 -16.05 43.2 -29.0 43.2 -38.15 52.35 -47.3 61.5 -47.3 74.45 -47.3 87.4 -38.15 96.55 -29.0 105.7 -16.05 105.7 -3.1 105.7 6.05 96.55 15.2 87.4 15.2 74.45" fill="#ff99cc" fill-rule="evenodd" stroke="none"/>
    <path d="M14.15 -137.6 Q23.3 -146.75 36.25 -146.75 49.2 -146.75 58.35 -137.6 67.5 -128.45 67.5 -115.5 67.5 -102.55 58.35 -93.4 49.2 -84.25 36.25 -84.25 23.3 -84.25 14.15 -93.4 5.0 -102.55 5.0 -115.5 5.0 -128.45 14.15 -137.6 M-42.15 -75.65 Q-33.0 -84.8 -20.05 -84.8 -7.1 -84.8 2.05 -75.65 11.2 -66.5 11.2 -53.55 11.2 -40.6 2.05 -31.45 -7.1 -22.3 -20.05 -22.3 -33.0 -22.3 -42.15 -31.45 -51.3 -40.6 -51.3 -53.55 -51.3 -66.5 -42.15 -75.65 M37.45 -21.8 Q50.4 -21.8 59.55 -12.65 68.7 -3.5 68.7 9.45 68.7 22.4 59.55 31.55 50.4 40.7 37.45 40.7 24.5 40.7 15.35 31.55 6.2 22.4 6.2 9.45 6.2 -3.5 15.35 -12.65 24.5 -21.8 37.45 -21.8 M64.65 160.0 L10.25 160.0 Q6.2 153.05 6.2 144.45 6.2 131.5 15.35 122.35 24.5 113.2 37.45 113.2 50.4 113.2 59.55 122.35 68.7 131.5 68.7 144.45 68.7 153.05 64.65 160.0 M15.2 74.45 Q15.2 87.4 6.05 96.55 -3.1 105.7 -16.05 105.7 -29.0 105.7 -38.15 96.55 -47.3 87.4 -47.3 74.45 -47.3 61.5 -38.15 52.35 -29.0 43.2 -16.05 43.2 -3.1 43.2 6.05 52.35 15.2 61.5 15.2 74.45" fill="#ffff00" fill-rule="evenodd" stroke="none"/>
    <path d="M77.25 -160.0 L79.75 -160.0 79.75 160.0 77.25 160.0 77.25 -160.0" fill="#ff51a8" fill-rule="evenodd" stroke="none"/>
  </g>
</svg>
