<?xml version="1.0" encoding="UTF-8" standalone="no"?>
<svg xmlns:xlink="http://www.w3.org/1999/xlink" height="320.0px" width="146.65px" xmlns="http://www.w3.org/2000/svg">
  <g transform="matrix(1.0, 0.0, 0.0, 1.0, 73.35, 160.0)">
    <path d="M62.3 -160.0 L64.65 -160.0 65.25 -137.1 64.75 -137.6 62.9 -139.35 62.3 -160.0 M66.4 -95.2 L68.7 -9.55 66.55 -12.05 64.2 -92.9 64.75 -93.4 66.4 -95.2 M69.7 27.1 L72.5 131.75 70.55 128.1 67.75 29.6 69.7 27.1 M73.15 155.55 L73.3 160.0 71.5 160.0 71.45 159.25 73.15 155.55" fill="#ff51a8" fill-rule="evenodd" stroke="none"/>
    <path d="M71.5 160.0 L71.05 160.0 71.45 159.25 71.5 160.0 M16.65 160.0 L-73.35 160.0 -73.35 -160.0 62.3 -160.0 62.9 -139.35 Q54.3 -146.75 42.65 -146.75 29.7 -146.75 20.55 -137.6 11.4 -128.45 11.4 -115.5 11.4 -102.55 20.55 -93.4 29.7 -84.25 42.65 -84.25 55.25 -84.25 64.2 -92.9 L66.55 -12.05 65.95 -12.65 Q56.8 -21.8 43.85 -21.8 30.9 -21.8 21.75 -12.65 12.6 -3.5 12.6 9.45 12.6 22.4 21.75 31.55 30.9 40.7 43.85 40.7 56.8 40.7 65.95 31.55 L67.75 29.6 70.55 128.1 Q68.65 125.05 65.95 122.35 56.8 113.2 43.85 113.2 30.9 113.2 21.75 122.35 12.6 131.5 12.6 144.45 12.6 153.05 16.65 160.0 M17.6 -53.55 Q17.6 -66.5 8.45 -75.65 -0.7 -84.8 -13.65 -84.8 -26.6 -84.8 -35.75 -75.65 -44.9 -66.5 -44.9 -53.55 -44.9 -40.6 -35.75 -31.45 -26.6 -22.3 -13.65 -22.3 -0.7 -22.3 8.45 -31.45 17.6 -40.6 17.6 -53.55 M21.6 74.45 Q21.6 61.5 12.45 52.35 3.3 43.2 -9.65 43.2 -22.6 43.2 -31.75 52.35 -40.9 61.5 -40.9 74.45 -40.9 87.4 -31.75 96.55 -22.6 105.7 -9.65 105.7 3.3 105.7 12.45 96.55 21.6 87.4 21.6 74.45" fill="#ff99cc" fill-rule="evenodd" stroke="none"/>
    <path d="M71.05 160.0 L16.65 160.0 Q12.6 153.05 12.6 144.45 12.6 131.5 21.75 122.35 30.9 113.2 43.85 113.2 56.8 113.2 65.95 122.35 68.65 125.05 70.55 128.1 L71.45 159.25 71.05 160.0 M64.2 -92.9 Q55.25 -84.25 42.65 -84.25 29.7 -84.25 20.55 -93.4 11.4 -102.55 11.4 -115.5 11.4 -128.45 20.55 -137.6 29.7 -146.75 42.65 -146.75 54.3 -146.75 62.9 -139.35 L64.2 -92.9 M17.6 -53.55 Q17.6 -40.6 8.45 -31.45 -0.7 -22.3 -13.65 -22.3 -26.6 -22.3 -35.75 -31.45 -44.9 -40.6 -44.9 -53.55 -44.9 -66.5 -35.75 -75.65 -26.6 -84.8 -13.65 -84.8 -0.7 -84.8 8.45 -75.65 17.6 -66.5 17.6 -53.55 M67.75 29.6 L65.95 31.55 Q56.8 40.7 43.85 40.7 30.9 40.7 21.75 31.55 12.6 22.4 12.6 9.45 12.6 -3.5 21.75 -12.65 30.9 -21.8 43.85 -21.8 56.8 -21.8 65.95 -12.65 L66.55 -12.05 67.75 29.6 M21.6 74.45 Q21.6 87.4 12.45 96.55 3.3 105.7 -9.65 105.7 -22.6 105.7 -31.75 96.55 -40.9 87.4 -40.9 74.45 -40.9 61.5 -31.75 52.35 -22.6 43.2 -9.65 43.2 3.3 43.2 12.45 52.35 21.6 61.5 21.6 74.45" fill="#ffff00" fill-rule="evenodd" stroke="none"/>
    <path d="M65.25 -137.1 L66.4 -95.2 64.75 -93.4 64.2 -92.9 62.9 -139.35 64.75 -137.6 65.25 -137.1 M68.7 -9.55 L69.7 27.1 67.75 29.6 66.55 -12.05 68.7 -9.55 M72.5 131.75 L73.15 155.55 71.45 159.25 70.55 128.1 72.5 131.75" fill="#bfbf00" fill-rule="evenodd" stroke="none"/>
  </g>
</svg>
