<?xml version="1.0" encoding="UTF-8" standalone="no"?>
<svg xmlns:xlink="http://www.w3.org/1999/xlink" height="320.0px" width="144.85px" xmlns="http://www.w3.org/2000/svg">
  <g transform="matrix(1.0, 0.0, 0.0, 1.0, 72.45, 160.0)">
    <path d="M41.9 -160.0 L45.5 -160.0 46.2 -146.65 43.55 -146.75 42.65 -146.75 41.9 -160.0 M49.35 -84.75 L52.65 -20.85 49.8 -21.45 46.2 -84.35 49.35 -84.75 M55.7 38.85 L59.7 116.95 57.65 115.9 53.3 39.6 55.7 38.85" fill="#ff51a8" fill-rule="evenodd" stroke="none"/>
    <path d="M17.55 160.0 L-72.45 160.0 -72.45 -160.0 41.9 -160.0 42.65 -146.75 41.7 -146.7 Q29.95 -146.1 21.45 -137.6 12.3 -128.45 12.3 -115.5 12.3 -102.55 21.45 -93.4 30.6 -84.25 43.55 -84.25 L45.25 -84.3 46.2 -84.35 49.8 -21.45 48.8 -21.55 44.75 -21.8 Q31.8 -21.8 22.65 -12.65 13.5 -3.5 13.5 9.45 13.5 22.4 22.65 31.55 31.8 40.7 44.75 40.7 L52.3 39.85 53.3 39.6 57.65 115.9 56.6 115.45 Q51.15 113.2 44.75 113.2 31.8 113.2 22.65 122.35 13.5 131.5 13.5 144.45 13.5 153.05 17.55 160.0 M18.5 -53.55 Q18.5 -66.5 9.35 -75.65 0.2 -84.8 -12.75 -84.8 -25.7 -84.8 -34.85 -75.65 -44.0 -66.5 -44.0 -53.55 -44.0 -40.6 -34.85 -31.45 -25.7 -22.3 -12.75 -22.3 0.2 -22.3 9.35 -31.45 18.5 -40.6 18.5 -53.55 M13.35 96.55 Q22.5 87.4 22.5 74.45 22.5 61.5 13.35 52.35 4.2 43.2 -8.75 43.2 -21.7 43.2 -30.85 52.35 -40.0 61.5 -40.0 74.45 -40.0 87.4 -30.85 96.55 -21.7 105.7 -8.75 105.7 4.2 105.7 13.35 96.55 M72.35 159.25 L72.4 160.0 71.95 160.0 72.35 159.25" fill="#ff99cc" fill-rule="evenodd" stroke="none"/>
    <path d="M60.15 160.0 L17.55 160.0 Q13.5 153.05 13.5 144.45 13.5 131.5 22.65 122.35 31.8 113.2 44.75 113.2 51.15 113.2 56.6 115.45 L57.65 115.9 60.15 160.0 M46.2 -84.35 L45.25 -84.3 43.55 -84.25 Q30.6 -84.25 21.45 -93.4 12.3 -102.55 12.3 -115.5 12.3 -128.45 21.45 -137.6 29.95 -146.1 41.7 -146.7 L42.65 -146.75 46.2 -84.35 M18.5 -53.55 Q18.5 -40.6 9.35 -31.45 0.2 -22.3 -12.75 -22.3 -25.7 -22.3 -34.85 -31.45 -44.0 -40.6 -44.0 -53.55 -44.0 -66.5 -34.85 -75.65 -25.7 -84.8 -12.75 -84.8 0.2 -84.8 9.35 -75.65 18.5 -66.5 18.5 -53.55 M53.3 39.6 L52.3 39.85 44.75 40.7 Q31.8 40.7 22.65 31.55 13.5 22.4 13.5 9.45 13.5 -3.5 22.65 -12.65 31.8 -21.8 44.75 -21.8 L48.8 -21.55 49.8 -21.45 53.3 39.6 M13.35 96.55 Q4.2 105.7 -8.75 105.7 -21.7 105.7 -30.85 96.55 -40.0 87.4 -40.0 74.45 -40.0 61.5 -30.85 52.35 -21.7 43.2 -8.75 43.2 4.2 43.2 13.35 52.35 22.5 61.5 22.5 74.45 22.5 87.4 13.35 96.55" fill="#ffff00" fill-rule="evenodd" stroke="none"/>
    <path d="M46.2 -146.65 L49.35 -84.75 46.2 -84.35 42.65 -146.75 43.55 -146.75 46.2 -146.65 M52.65 -20.85 L55.7 38.85 53.3 39.6 49.8 -21.45 52.65 -20.85 M59.7 116.95 L61.95 160.0 60.15 160.0 57.65 115.9 59.7 116.95" fill="#bfbf00" fill-rule="evenodd" stroke="none"/>
  </g>
</svg>
