<?xml version="1.0" encoding="UTF-8" standalone="no"?>
<svg xmlns:xlink="http://www.w3.org/1999/xlink" height="320.0px" width="144.85px" xmlns="http://www.w3.org/2000/svg">
  <g transform="matrix(1.0, 0.0, 0.0, 1.0, 72.45, 160.0)">
    <path d="M30.95 -160.0 L32.5 -160.0 32.85 -144.95 31.2 -144.3 30.95 -160.0 M34.1 -85.6 L35.55 -20.5 33.0 -19.6 32.05 -86.35 34.1 -85.6 M36.85 39.75 L38.45 113.8 Q36.65 114.1 34.95 114.7 L33.85 38.85 36.85 39.75" fill="#ff51a8" fill-rule="evenodd" stroke="none"/>
    <path d="M17.55 160.0 L-72.45 160.0 -72.45 -160.0 30.95 -160.0 31.2 -144.3 Q29.1 -143.45 27.2 -142.2 24.15 -140.35 21.45 -137.6 12.3 -128.45 12.3 -115.5 12.3 -102.55 21.45 -93.4 24.5 -90.35 28.0 -88.3 29.95 -87.15 32.05 -86.35 L33.0 -19.6 Q30.95 -18.8 29.05 -17.65 25.65 -15.65 22.65 -12.65 13.5 -3.5 13.5 9.45 13.5 22.4 22.65 31.55 26.0 34.85 29.85 37.0 31.8 38.1 33.85 38.85 L34.95 114.7 Q32.9 115.3 31.0 116.3 26.5 118.5 22.65 122.35 13.5 131.5 13.5 144.45 13.5 153.05 17.55 160.0 M18.5 -53.55 Q18.5 -66.5 9.35 -75.65 0.2 -84.8 -12.75 -84.8 -25.7 -84.8 -34.85 -75.65 -44.0 -66.5 -44.0 -53.55 -44.0 -40.6 -34.85 -31.45 -25.7 -22.3 -12.75 -22.3 0.2 -22.3 9.35 -31.45 18.5 -40.6 18.5 -53.55 M22.5 74.45 Q22.5 61.5 13.35 52.35 4.2 43.2 -8.75 43.2 -21.7 43.2 -30.85 52.35 -40.0 61.5 -40.0 74.45 -40.0 87.4 -30.85 96.55 -21.7 105.7 -8.75 105.7 4.2 105.7 13.35 96.55 22.5 87.4 22.5 74.45 M72.4 160.0 L71.95 160.0 72.35 159.25 72.4 160.0" fill="#ff99cc" fill-rule="evenodd" stroke="none"/>
    <path d="M35.65 160.0 L17.55 160.0 Q13.5 153.05 13.5 144.45 13.5 131.5 22.65 122.35 26.5 118.5 31.0 116.3 32.9 115.3 34.95 114.7 L35.65 160.0 M32.05 -86.35 Q29.95 -87.15 28.0 -88.3 24.5 -90.35 21.45 -93.4 12.3 -102.55 12.3 -115.5 12.3 -128.45 21.45 -137.6 24.15 -140.35 27.2 -142.2 29.1 -143.45 31.2 -144.3 L32.05 -86.35 M18.5 -53.55 Q18.5 -40.6 9.35 -31.45 0.2 -22.3 -12.75 -22.3 -25.7 -22.3 -34.85 -31.45 -44.0 -40.6 -44.0 -53.55 -44.0 -66.5 -34.85 -75.65 -25.7 -84.8 -12.75 -84.8 0.2 -84.8 9.35 -75.65 18.5 -66.5 18.5 -53.55 M33.85 38.85 Q31.8 38.1 29.85 37.0 26.0 34.85 22.65 31.55 13.5 22.4 13.5 9.45 13.5 -3.5 22.65 -12.65 25.65 -15.65 29.05 -17.65 30.95 -18.8 33.0 -19.6 L33.85 38.85 M22.5 74.45 Q22.5 87.4 13.35 96.55 4.2 105.7 -8.75 105.7 -21.7 105.7 -30.85 96.55 -40.0 87.4 -40.0 74.45 -40.0 61.5 -30.85 52.35 -21.7 43.2 -8.75 43.2 4.2 43.2 13.35 52.35 22.5 61.5 22.5 74.45" fill="#ffff00" fill-rule="evenodd" stroke="none"/>
    <path d="M32.85 -144.95 L34.1 -85.6 32.05 -86.35 31.2 -144.3 32.85 -144.95 M35.55 -20.5 L36.85 39.75 33.85 38.85 33.0 -19.6 35.55 -20.5 M38.45 113.8 L39.45 160.0 35.65 160.0 34.95 114.7 Q36.65 114.1 38.45 113.8" fill="#bfbf00" fill-rule="evenodd" stroke="none"/>
  </g>
</svg>
