<?xml version="1.0" encoding="UTF-8" standalone="no"?>
<svg xmlns:xlink="http://www.w3.org/1999/xlink" height="320.0px" width="144.85px" xmlns="http://www.w3.org/2000/svg">
  <g transform="matrix(1.0, 0.0, 0.0, 1.0, 72.45, 160.0)">
    <path d="M12.8 -160.0 L15.25 -160.0 15.25 -67.6 12.8 -71.6 12.8 -160.0 M15.25 -39.45 L15.25 54.4 13.35 52.35 12.8 51.8 12.8 -35.5 Q14.2 -37.4 15.25 -39.45 M15.25 94.45 L15.25 160.0 12.8 160.0 12.8 97.05 13.35 96.55 15.25 94.45" fill="#ff51a8" fill-rule="evenodd" stroke="none"/>
    <path d="M12.8 160.0 L-72.45 160.0 -72.45 -160.0 12.8 -160.0 12.8 -71.6 9.35 -75.65 7.3 -77.55 Q-1.2 -84.8 -12.75 -84.8 -25.7 -84.8 -34.85 -75.65 -44.0 -66.5 -44.0 -53.55 -44.0 -40.6 -34.85 -31.45 -25.7 -22.3 -12.75 -22.3 -1.2 -22.3 7.3 -29.6 L9.35 -31.45 12.8 -35.5 12.8 51.8 Q10.2 49.3 7.3 47.55 0.2 43.2 -8.75 43.2 -21.7 43.2 -30.85 52.35 -40.0 61.5 -40.0 74.45 -40.0 87.4 -30.85 96.55 -21.7 105.7 -8.75 105.7 0.2 105.7 7.3 101.35 10.2 99.55 12.8 97.05 L12.8 160.0 M71.95 160.0 L72.35 159.25 72.4 160.0 71.95 160.0" fill="#ff99cc" fill-rule="evenodd" stroke="none"/>
    <path d="M12.8 -35.5 L9.35 -31.45 7.3 -29.6 Q-1.2 -22.3 -12.75 -22.3 -25.7 -22.3 -34.85 -31.45 -44.0 -40.6 -44.0 -53.55 -44.0 -66.5 -34.85 -75.65 -25.7 -84.8 -12.75 -84.8 -1.2 -84.8 7.3 -77.55 L9.35 -75.65 12.8 -71.6 12.8 -35.5 M12.8 51.8 L12.8 97.05 Q10.2 99.55 7.3 101.35 0.2 105.7 -8.75 105.7 -21.7 105.7 -30.85 96.55 -40.0 87.4 -40.0 74.45 -40.0 61.5 -30.85 52.35 -21.7 43.2 -8.75 43.2 0.2 43.2 7.3 47.55 10.2 49.3 12.8 51.8" fill="#ffff00" fill-rule="evenodd" stroke="none"/>
    <path d="M15.25 -67.6 L15.25 -39.45 Q14.2 -37.4 12.8 -35.5 L12.8 -71.6 15.25 -67.6 M15.25 54.4 L15.25 94.45 13.35 96.55 12.8 97.05 12.8 51.8 13.35 52.35 15.25 54.4" fill="#bfbf00" fill-rule="evenodd" stroke="none"/>
  </g>
</svg>
