<?xml version="1.0" encoding="UTF-8" standalone="no"?>
<svg xmlns:xlink="http://www.w3.org/1999/xlink" height="320.0px" width="144.85px" xmlns="http://www.w3.org/2000/svg">
  <g transform="matrix(1.0, 0.0, 0.0, 1.0, 72.45, 160.0)">
    <path d="M-1.25 -160.0 L0.8 -160.0 -2.75 -83.25 -3.2 -83.4 -5.15 -83.95 -1.25 -160.0 M-5.55 -23.05 L-8.6 43.2 -8.75 43.2 -9.05 43.2 -11.3 43.3 -11.65 43.35 -8.3 -22.55 -8.25 -22.55 -6.0 -22.95 -5.55 -23.05 M-11.5 105.6 L-14.0 160.0 -17.65 160.0 -14.85 105.2 -14.2 105.3 -11.95 105.55 -11.5 105.6" fill="#ff51a8" fill-rule="evenodd" stroke="none"/>
    <path d="M-17.65 160.0 L-72.45 160.0 -72.45 -160.0 -1.25 -160.0 -5.15 -83.95 -5.4 -84.0 -11.85 -84.8 -12.75 -84.8 Q-25.7 -84.8 -34.85 -75.65 -44.0 -66.5 -44.0 -53.55 -44.0 -40.6 -34.85 -31.45 -26.5 -23.15 -15.05 -22.35 L-12.75 -22.3 -8.3 -22.55 -11.65 43.35 Q-15.25 43.6 -18.5 44.7 -25.35 46.85 -30.85 52.35 -40.0 61.5 -40.0 74.45 -40.0 87.4 -30.85 96.55 -26.6 100.8 -21.5 103.1 -18.3 104.5 -14.85 105.2 L-17.65 160.0 M72.35 159.25 L72.4 160.0 71.95 160.0 72.35 159.25" fill="#ff99cc" fill-rule="evenodd" stroke="none"/>
    <path d="M-8.3 -22.55 L-12.75 -22.3 -15.05 -22.35 Q-26.5 -23.15 -34.85 -31.45 -44.0 -40.6 -44.0 -53.55 -44.0 -66.5 -34.85 -75.65 -25.7 -84.8 -12.75 -84.8 L-11.85 -84.8 -5.4 -84.0 -5.15 -83.95 -8.3 -22.55 M-14.85 105.2 Q-18.3 104.5 -21.5 103.1 -26.6 100.8 -30.85 96.55 -40.0 87.4 -40.0 74.45 -40.0 61.5 -30.85 52.35 -25.35 46.85 -18.5 44.7 -15.25 43.6 -11.65 43.35 L-14.85 105.2" fill="#ffff00" fill-rule="evenodd" stroke="none"/>
    <path d="M-2.75 -83.25 L-5.55 -23.05 -6.0 -22.95 -8.25 -22.55 -8.3 -22.55 -5.15 -83.95 -3.2 -83.4 -2.75 -83.25 M-8.6 43.2 L-11.5 105.6 -11.95 105.55 -14.2 105.3 -14.85 105.2 -11.65 43.35 -11.3 43.3 -9.05 43.2 -8.75 43.2 -8.6 43.2" fill="#bfbf00" fill-rule="evenodd" stroke="none"/>
  </g>
</svg>
