<?xml version="1.0" encoding="UTF-8" standalone="no"?>
<svg xmlns:xlink="http://www.w3.org/1999/xlink" height="320.0px" width="144.85px" xmlns="http://www.w3.org/2000/svg">
  <g transform="matrix(1.0, 0.0, 0.0, 1.0, 72.45, 160.0)">
    <path d="M-20.6 -160.0 L-17.9 -160.0 -21.7 -83.55 -24.45 -82.6 -20.6 -160.0 M-24.6 -24.5 L-28.3 50.0 -30.85 52.35 -31.25 52.7 -27.3 -25.8 -24.6 -24.5 M-30.6 96.8 L-33.7 160.0 -36.6 160.0 -33.3 93.85 -30.85 96.55 -30.6 96.8" fill="#ff51a8" fill-rule="evenodd" stroke="none"/>
    <path d="M-36.6 160.0 L-72.45 160.0 -72.45 -160.0 -20.6 -160.0 -24.45 -82.6 Q-26.85 -81.65 -29.05 -80.3 -32.15 -78.4 -34.85 -75.65 -44.0 -66.5 -44.0 -53.55 -44.0 -40.6 -34.85 -31.45 L-31.65 -28.6 Q-29.55 -27.0 -27.3 -25.8 L-31.25 52.7 Q-34.1 55.7 -36.05 59.05 -40.0 65.95 -40.0 74.45 -40.0 81.3 -37.45 87.1 -35.85 90.65 -33.3 93.85 L-36.6 160.0 M72.4 160.0 L71.95 160.0 72.35 159.25 72.4 160.0" fill="#ff99cc" fill-rule="evenodd" stroke="none"/>
    <path d="M-27.3 -25.8 Q-29.55 -27.0 -31.65 -28.6 L-34.85 -31.45 Q-44.0 -40.6 -44.0 -53.55 -44.0 -66.5 -34.85 -75.65 -32.15 -78.4 -29.05 -80.3 -26.85 -81.65 -24.45 -82.6 L-27.3 -25.8 M-33.3 93.85 Q-35.85 90.65 -37.45 87.1 -40.0 81.3 -40.0 74.45 -40.0 65.95 -36.05 59.05 -34.1 55.7 -31.25 52.7 L-33.3 93.85" fill="#ffff00" fill-rule="evenodd" stroke="none"/>
    <path d="M-21.7 -83.55 L-24.6 -24.5 -27.3 -25.8 -24.45 -82.6 -21.7 -83.55 M-28.3 50.0 L-30.6 96.8 -30.85 96.55 -33.3 93.85 -31.25 52.7 -30.85 52.35 -28.3 50.0" fill="#bfbf00" fill-rule="evenodd" stroke="none"/>
  </g>
</svg>
