<?xml version="1.0" encoding="UTF-8" standalone="no"?>
<svg xmlns:xlink="http://www.w3.org/1999/xlink" height="70.75px" width="74.5px" xmlns="http://www.w3.org/2000/svg">
  <g transform="matrix(1.0, 0.0, 0.0, 1.0, 37.25, 35.35)">
    <path d="M29.65 -24.8 Q29.65 -20.4 26.6 -17.3 23.5 -14.25 19.1 -14.25 14.75 -14.25 11.65 -17.3 8.55 -20.4 8.55 -24.8 8.55 -29.15 11.65 -32.25 14.75 -35.35 19.1 -35.35 23.5 -35.35 26.6 -32.25 29.65 -29.15 29.65 -24.8" fill="url(#gradient0)" fill-rule="evenodd" stroke="none"/>
    <path d="M34.2 -1.8 Q37.25 1.3 37.25 5.65 37.25 10.05 34.2 13.15 31.1 16.2 26.7 16.2 22.35 16.2 19.25 13.15 16.15 10.05 16.15 5.65 16.15 1.3 19.25 -1.8 22.35 -4.9 26.7 -4.9 31.1 -4.9 34.2 -1.8" fill="url(#gradient1)" fill-rule="evenodd" stroke="none"/>
    <path d="M12.2 24.85 Q12.2 29.25 9.15 32.35 6.05 35.4 1.65 35.4 -2.7 35.4 -5.8 32.35 -8.9 29.25 -8.9 24.85 -8.9 20.5 -5.8 17.4 -2.7 14.3 1.65 14.3 6.05 14.3 9.15 17.4 12.2 20.5 12.2 24.85" fill="url(#gradient2)" fill-rule="evenodd" stroke="none"/>
    <path d="M-26.7 -5.75 Q-22.3 -5.75 -19.2 -2.65 -16.15 0.45 -16.15 4.8 -16.15 9.2 -19.2 12.3 -22.3 15.35 -26.7 15.35 -31.05 15.35 -34.15 12.3 -37.25 9.2 -37.25 4.8 -37.25 0.45 -34.15 -2.65 -31.05 -5.75 -26.7 -5.75" fill="url(#gradient3)" fill-rule="evenodd" stroke="none"/>
    <path d="M-24.4 -27.5 Q-21.3 -30.6 -16.95 -30.6 -12.55 -30.6 -9.45 -27.5 -6.4 -24.4 -6.4 -20.05 -6.4 -15.65 -9.45 -12.55 -12.55 -9.5 -16.95 -9.5 -21.3 -9.5 -24.4 -12.55 -27.5 -15.65 -27.5 -20.05 -27.5 -24.4 -24.4 -27.5" fill="url(#gradient4)" fill-rule="evenodd" stroke="none"/>
  </g>
  <defs>
    <radialGradient cx="0" cy="0" gradientTransform="matrix(0.014, 0.0, 0.0, 0.014, 19.9, -24.55)" gradientUnits="userSpaceOnUse" id="gradient0" r="819.2" spreadMethod="pad">
      <stop offset="0.0" stop-color="#ff00ff"/>
      <stop offset="0.8705882352941177" stop-color="#ff00ff" stop-opacity="0.0"/>
    </radialGradient>
    <radialGradient cx="0" cy="0" gradientTransform="matrix(0.0134, 0.0, 0.0, 0.0134, 26.9, 5.4)" gradientUnits="userSpaceOnUse" id="gradient1" r="819.2" spreadMethod="pad">
      <stop offset="0.0" stop-color="#0000ff"/>
      <stop offset="1.0" stop-color="#0000ff" stop-opacity="0.0"/>
    </radialGradient>
    <radialGradient cx="0" cy="0" gradientTransform="matrix(0.0132, 0.0, 0.0, 0.0132, 1.75, 24.65)" gradientUnits="userSpaceOnUse" id="gradient2" r="819.2" spreadMethod="pad">
      <stop offset="0.0" stop-color="#ff6600"/>
      <stop offset="0.8705882352941177" stop-color="#ff6600" stop-opacity="0.0"/>
    </radialGradient>
    <radialGradient cx="0" cy="0" gradientTransform="matrix(0.0134, 0.0, 0.0, 0.0134, -26.5, 4.55)" gradientUnits="userSpaceOnUse" id="gradient3" r="819.2" spreadMethod="pad">
      <stop offset="0.0" stop-color="#6633cc"/>
      <stop offset="0.8705882352941177" stop-color="#6633cc" stop-opacity="0.0"/>
    </radialGradient>
    <radialGradient cx="0" cy="0" gradientTransform="matrix(0.0134, 0.0, 0.0, 0.0134, -16.75, -20.3)" gradientUnits="userSpaceOnUse" id="gradient4" r="819.2" spreadMethod="pad">
      <stop offset="0.34901960784313724" stop-color="#ffff00"/>
      <stop offset="0.8980392156862745" stop-color="#ffff00" stop-opacity="0.0"/>
    </radialGradient>
  </defs>
</svg>
