<?xml version="1.0" encoding="UTF-8" standalone="no"?>
<svg xmlns:xlink="http://www.w3.org/1999/xlink" height="318.0px" width="156.95px" xmlns="http://www.w3.org/2000/svg">
  <g transform="matrix(1.0, 0.0, 0.0, 1.0, 78.45, 159.0)">
    <path d="M51.25 159.0 Q56.95 151.15 56.95 140.95 56.95 128.0 47.8 118.85 38.65 109.7 25.7 109.7 12.75 109.7 3.6 118.85 -5.55 128.0 -5.55 140.95 -5.55 151.15 0.15 159.0 L-76.45 159.0 -76.45 -159.0 78.5 -159.0 78.5 159.0 51.25 159.0 M43.65 -8.65 Q34.5 -17.8 21.55 -17.8 8.6 -17.8 -0.55 -8.65 -9.7 0.5 -9.7 13.45 -9.7 26.4 -0.55 35.55 8.6 44.7 21.55 44.7 34.5 44.7 43.65 35.55 52.8 26.4 52.8 13.45 52.8 0.5 43.65 -8.65 M52.8 -109.05 Q52.8 -122.0 43.65 -131.15 34.5 -140.3 21.55 -140.3 8.6 -140.3 -0.55 -131.15 -9.7 -122.0 -9.7 -109.05 -9.7 -96.1 -0.55 -86.95 8.6 -77.8 21.55 -77.8 34.5 -77.8 43.65 -86.95 52.8 -96.1 52.8 -109.05 M-69.2 82.25 Q-67.3 90.6 -60.85 97.05 -51.7 106.2 -38.75 106.2 -25.8 106.2 -16.65 97.05 -7.5 87.9 -7.5 74.95 -7.5 62.0 -16.65 52.85 -25.8 43.7 -38.75 43.7 -51.7 43.7 -60.85 52.85 -66.05 58.0 -68.25 64.4 -70.0 69.35 -70.0 74.95 -70.0 78.75 -69.2 82.25 M-8.5 -55.05 Q-8.5 -68.0 -17.65 -77.15 -26.8 -86.3 -39.75 -86.3 -52.0 -86.3 -60.85 -78.1 L-61.85 -77.15 -63.7 -75.15 Q-71.0 -66.6 -71.0 -55.05 -71.0 -44.9 -65.4 -37.1 L-63.15 -34.3 -61.85 -32.95 Q-52.7 -23.8 -39.75 -23.8 -26.8 -23.8 -17.65 -32.95 -8.5 -42.1 -8.5 -55.05" fill="#ff99cc" fill-rule="evenodd" stroke="none"/>
    <path d="M52.8 -109.05 Q52.8 -96.1 43.65 -86.95 34.5 -77.8 21.55 -77.8 8.6 -77.8 -0.55 -86.95 -9.7 -96.1 -9.7 -109.05 -9.7 -122.0 -0.55 -131.15 8.6 -140.3 21.55 -140.3 34.5 -140.3 43.65 -131.15 52.8 -122.0 52.8 -109.05 M43.65 -8.65 Q52.8 0.5 52.8 13.45 52.8 26.4 43.65 35.55 34.5 44.7 21.55 44.7 8.6 44.7 -0.55 35.55 -9.7 26.4 -9.7 13.45 -9.7 0.5 -0.55 -8.65 8.6 -17.8 21.55 -17.8 34.5 -17.8 43.65 -8.65 M0.15 159.0 Q-5.55 151.15 -5.55 140.95 -5.55 128.0 3.6 118.85 12.75 109.7 25.7 109.7 38.65 109.7 47.8 118.85 56.95 128.0 56.95 140.95 56.95 151.15 51.25 159.0 L0.15 159.0 M-8.5 -55.05 Q-8.5 -42.1 -17.65 -32.95 -26.8 -23.8 -39.75 -23.8 -52.7 -23.8 -61.85 -32.95 L-63.15 -34.3 -65.4 -37.1 Q-71.0 -44.9 -71.0 -55.05 -71.0 -66.6 -63.7 -75.15 L-61.85 -77.15 -60.85 -78.1 Q-52.0 -86.3 -39.75 -86.3 -26.8 -86.3 -17.65 -77.15 -8.5 -68.0 -8.5 -55.05 M-69.2 82.25 Q-70.0 78.75 -70.0 74.95 -70.0 69.35 -68.25 64.4 -66.05 58.0 -60.85 52.85 -51.7 43.7 -38.75 43.7 -25.8 43.7 -16.65 52.85 -7.5 62.0 -7.5 74.95 -7.5 87.9 -16.65 97.05 -25.8 106.2 -38.75 106.2 -51.7 106.2 -60.85 97.05 -67.3 90.6 -69.2 82.25" fill="#ffff00" fill-rule="evenodd" stroke="none"/>
    <path d="M-76.45 -159.0 L-76.45 159.0 -78.45 159.0 -78.45 -159.0 -76.45 -159.0" fill="#ff51a8" fill-rule="evenodd" stroke="none"/>
  </g>
</svg>
