<?xml version="1.0" encoding="UTF-8" standalone="no"?>
<svg xmlns:xlink="http://www.w3.org/1999/xlink" height="318.0px" width="152.6px" xmlns="http://www.w3.org/2000/svg">
  <g transform="matrix(1.0, 0.0, 0.0, 1.0, 76.3, 159.0)">
    <path d="M49.05 159.0 Q54.75 151.15 54.75 140.95 54.75 128.0 45.6 118.85 36.45 109.7 23.5 109.7 10.55 109.7 1.4 118.85 -7.75 128.0 -7.75 140.95 -7.75 151.15 -2.05 159.0 L-75.4 159.0 -71.4 82.25 Q-69.5 90.6 -63.05 97.05 -53.9 106.2 -40.95 106.2 -28.0 106.2 -18.85 97.05 -9.7 87.9 -9.7 74.95 -9.7 62.0 -18.85 52.85 -28.0 43.7 -40.95 43.7 -53.9 43.7 -63.05 52.85 -68.25 58.0 -70.45 64.4 L-65.35 -34.3 -64.05 -32.95 Q-54.9 -23.8 -41.95 -23.8 -29.0 -23.8 -19.85 -32.95 -10.7 -42.1 -10.7 -55.05 -10.7 -68.0 -19.85 -77.15 -29.0 -86.3 -41.95 -86.3 -54.2 -86.3 -63.05 -78.1 L-58.85 -159.0 76.3 -159.0 76.3 159.0 49.05 159.0 M41.45 -8.65 Q32.3 -17.8 19.35 -17.8 6.4 -17.8 -2.75 -8.65 -11.9 0.5 -11.9 13.45 -11.9 26.4 -2.75 35.55 6.4 44.7 19.35 44.7 32.3 44.7 41.45 35.55 50.6 26.4 50.6 13.45 50.6 0.5 41.45 -8.65 M50.6 -109.05 Q50.6 -122.0 41.45 -131.15 32.3 -140.3 19.35 -140.3 6.4 -140.3 -2.75 -131.15 -11.9 -122.0 -11.9 -109.05 -11.9 -96.1 -2.75 -86.95 6.4 -77.8 19.35 -77.8 32.3 -77.8 41.45 -86.95 50.6 -96.1 50.6 -109.05" fill="#ff99cc" fill-rule="evenodd" stroke="none"/>
    <path d="M50.6 -109.05 Q50.6 -96.1 41.45 -86.95 32.3 -77.8 19.35 -77.8 6.4 -77.8 -2.75 -86.95 -11.9 -96.1 -11.9 -109.05 -11.9 -122.0 -2.75 -131.15 6.4 -140.3 19.35 -140.3 32.3 -140.3 41.45 -131.15 50.6 -122.0 50.6 -109.05 M41.45 -8.65 Q50.6 0.5 50.6 13.45 50.6 26.4 41.45 35.55 32.3 44.7 19.35 44.7 6.4 44.7 -2.75 35.55 -11.9 26.4 -11.9 13.45 -11.9 0.5 -2.75 -8.65 6.4 -17.8 19.35 -17.8 32.3 -17.8 41.45 -8.65 M-2.05 159.0 Q-7.75 151.15 -7.75 140.95 -7.75 128.0 1.4 118.85 10.55 109.7 23.5 109.7 36.45 109.7 45.6 118.85 54.75 128.0 54.75 140.95 54.75 151.15 49.05 159.0 L-2.05 159.0 M-63.05 -78.1 Q-54.2 -86.3 -41.95 -86.3 -29.0 -86.3 -19.85 -77.15 -10.7 -68.0 -10.7 -55.05 -10.7 -42.1 -19.85 -32.95 -29.0 -23.8 -41.95 -23.8 -54.9 -23.8 -64.05 -32.95 L-65.35 -34.3 -63.05 -78.1 M-70.45 64.4 Q-68.25 58.0 -63.05 52.85 -53.9 43.7 -40.95 43.7 -28.0 43.7 -18.85 52.85 -9.7 62.0 -9.7 74.95 -9.7 87.9 -18.85 97.05 -28.0 106.2 -40.95 106.2 -53.9 106.2 -63.05 97.05 -69.5 90.6 -71.4 82.25 L-70.45 64.4" fill="#ffff00" fill-rule="evenodd" stroke="none"/>
    <path d="M-58.85 -159.0 L-63.05 -78.1 -64.05 -77.15 -65.9 -75.15 -62.2 -159.0 -58.85 -159.0 M-65.35 -34.3 L-70.45 64.4 Q-72.2 69.35 -72.2 74.95 -72.2 78.75 -71.4 82.25 L-75.4 159.0 -76.3 159.0 -67.6 -37.1 -65.35 -34.3" fill="#ff51a8" fill-rule="evenodd" stroke="none"/>
    <path d="M-65.9 -75.15 L-64.05 -77.15 -63.05 -78.1 -65.35 -34.3 -67.6 -37.1 -65.9 -75.15 M-70.45 64.4 L-71.4 82.25 Q-72.2 78.75 -72.2 74.95 -72.2 69.35 -70.45 64.4" fill="#c4c400" fill-rule="evenodd" stroke="none"/>
  </g>
</svg>
