<?xml version="1.0" encoding="UTF-8" standalone="no"?>
<svg xmlns:xlink="http://www.w3.org/1999/xlink" height="318.0px" width="126.75px" xmlns="http://www.w3.org/2000/svg">
  <g transform="matrix(1.0, 0.0, 0.0, 1.0, 63.35, 159.0)">
    <path d="M36.15 159.0 Q41.85 151.15 41.85 140.95 41.85 128.0 32.7 118.85 23.55 109.7 10.6 109.7 -2.35 109.7 -11.5 118.85 -20.65 128.0 -20.65 140.95 -20.65 151.15 -14.95 159.0 L-58.9 159.0 -56.7 106.1 -53.85 106.2 -52.7 106.2 Q-40.5 105.8 -31.75 97.05 -22.6 87.9 -22.6 74.95 -22.6 62.0 -31.75 52.85 -39.55 45.05 -50.15 43.9 L-53.85 43.7 -54.15 43.7 -51.35 -23.95 -47.3 -24.65 Q-39.15 -26.6 -32.75 -32.95 -23.6 -42.1 -23.6 -55.05 -23.6 -68.0 -32.75 -77.15 -38.15 -82.55 -44.85 -84.75 L-48.8 -85.75 -45.75 -159.0 63.4 -159.0 63.4 159.0 36.15 159.0 M28.55 -8.65 Q19.4 -17.8 6.45 -17.8 -6.5 -17.8 -15.65 -8.65 -24.8 0.5 -24.8 13.45 -24.8 26.4 -15.65 35.55 -6.5 44.7 6.45 44.7 19.4 44.7 28.55 35.55 37.7 26.4 37.7 13.45 37.7 0.5 28.55 -8.65 M37.7 -109.05 Q37.7 -122.0 28.55 -131.15 19.4 -140.3 6.45 -140.3 -6.5 -140.3 -15.65 -131.15 -24.8 -122.0 -24.8 -109.05 -24.8 -96.1 -15.65 -86.95 -6.5 -77.8 6.45 -77.8 19.4 -77.8 28.55 -86.95 37.7 -96.1 37.7 -109.05" fill="#ff99cc" fill-rule="evenodd" stroke="none"/>
    <path d="M37.7 -109.05 Q37.7 -96.1 28.55 -86.95 19.4 -77.8 6.45 -77.8 -6.5 -77.8 -15.65 -86.95 -24.8 -96.1 -24.8 -109.05 -24.8 -122.0 -15.65 -131.15 -6.5 -140.3 6.45 -140.3 19.4 -140.3 28.55 -131.15 37.7 -122.0 37.7 -109.05 M28.55 -8.65 Q37.7 0.5 37.7 13.45 37.7 26.4 28.55 35.55 19.4 44.7 6.45 44.7 -6.5 44.7 -15.65 35.55 -24.8 26.4 -24.8 13.45 -24.8 0.5 -15.65 -8.65 -6.5 -17.8 6.45 -17.8 19.4 -17.8 28.55 -8.65 M-14.95 159.0 Q-20.65 151.15 -20.65 140.95 -20.65 128.0 -11.5 118.85 -2.35 109.7 10.6 109.7 23.55 109.7 32.7 118.85 41.85 128.0 41.85 140.95 41.85 151.15 36.15 159.0 L-14.95 159.0 M-48.8 -85.75 L-44.85 -84.75 Q-38.15 -82.55 -32.75 -77.15 -23.6 -68.0 -23.6 -55.05 -23.6 -42.1 -32.75 -32.95 -39.15 -26.6 -47.3 -24.65 L-51.35 -23.95 -48.8 -85.75 M-54.15 43.7 L-53.85 43.7 -50.15 43.9 Q-39.55 45.05 -31.75 52.85 -22.6 62.0 -22.6 74.95 -22.6 87.9 -31.75 97.05 -40.5 105.8 -52.7 106.2 L-53.85 106.2 -56.7 106.1 -54.15 43.7" fill="#ffff00" fill-rule="evenodd" stroke="none"/>
    <path d="M-45.75 -159.0 L-48.8 -85.75 -51.05 -86.1 -47.4 -159.0 -45.75 -159.0 M-51.35 -23.95 L-54.15 43.7 -57.55 43.9 -54.15 -23.8 -51.35 -23.95 M-56.7 106.1 L-58.9 159.0 -63.35 159.0 -60.65 105.5 -56.7 106.1" fill="#ff51a8" fill-rule="evenodd" stroke="none"/>
    <path d="M-51.05 -86.1 L-48.8 -85.75 -51.35 -23.95 -54.15 -23.8 -51.05 -86.1 M-57.55 43.9 L-54.15 43.7 -56.7 106.1 -60.65 105.5 -57.55 43.9" fill="#c4c400" fill-rule="evenodd" stroke="none"/>
  </g>
</svg>
