<?xml version="1.0" encoding="UTF-8" standalone="no"?>
<svg xmlns:xlink="http://www.w3.org/1999/xlink" height="318.0px" width="103.5px" xmlns="http://www.w3.org/2000/svg">
  <g transform="matrix(1.0, 0.0, 0.0, 1.0, 51.75, 159.0)">
    <path d="M24.5 159.0 Q30.2 151.15 30.2 140.95 30.2 128.0 21.05 118.85 11.9 109.7 -1.05 109.7 -14.0 109.7 -23.15 118.85 -32.3 128.0 -32.3 140.95 -32.3 151.15 -26.6 159.0 L-49.25 159.0 -49.25 101.7 -44.25 97.85 -43.4 97.05 Q-34.25 87.9 -34.25 74.95 -34.25 62.0 -43.4 52.85 L-44.25 52.05 Q-46.65 49.8 -49.25 48.2 L-49.25 -28.95 Q-46.7 -30.65 -44.4 -32.95 L-44.25 -33.15 Q-35.25 -42.25 -35.25 -55.05 -35.25 -67.85 -44.25 -77.0 L-44.4 -77.15 Q-46.7 -79.45 -49.25 -81.15 L-49.25 -159.0 51.75 -159.0 51.75 159.0 24.5 159.0 M16.9 -8.65 Q7.75 -17.8 -5.2 -17.8 -18.15 -17.8 -27.3 -8.65 -36.45 0.5 -36.45 13.45 -36.45 26.4 -27.3 35.55 -18.15 44.7 -5.2 44.7 7.75 44.7 16.9 35.55 26.05 26.4 26.05 13.45 26.05 0.5 16.9 -8.65 M26.05 -109.05 Q26.05 -122.0 16.9 -131.15 7.75 -140.3 -5.2 -140.3 -18.15 -140.3 -27.3 -131.15 -36.45 -122.0 -36.45 -109.05 -36.45 -96.1 -27.3 -86.95 -18.15 -77.8 -5.2 -77.8 7.75 -77.8 16.9 -86.95 26.05 -96.1 26.05 -109.05" fill="#ff99cc" fill-rule="evenodd" stroke="none"/>
    <path d="M26.05 -109.05 Q26.05 -96.1 16.9 -86.95 7.75 -77.8 -5.2 -77.8 -18.15 -77.8 -27.3 -86.95 -36.45 -96.1 -36.45 -109.05 -36.45 -122.0 -27.3 -131.15 -18.15 -140.3 -5.2 -140.3 7.75 -140.3 16.9 -131.15 26.05 -122.0 26.05 -109.05 M16.9 -8.65 Q26.05 0.5 26.05 13.45 26.05 26.4 16.9 35.55 7.75 44.7 -5.2 44.7 -18.15 44.7 -27.3 35.55 -36.45 26.4 -36.45 13.45 -36.45 0.5 -27.3 -8.65 -18.15 -17.8 -5.2 -17.8 7.75 -17.8 16.9 -8.65 M-26.6 159.0 Q-32.3 151.15 -32.3 140.95 -32.3 128.0 -23.15 118.85 -14.0 109.7 -1.05 109.7 11.9 109.7 21.05 118.85 30.2 128.0 30.2 140.95 30.2 151.15 24.5 159.0 L-26.6 159.0 M-49.25 -81.15 Q-46.7 -79.45 -44.4 -77.15 L-44.25 -77.0 Q-35.25 -67.85 -35.25 -55.05 -35.25 -42.25 -44.25 -33.15 L-44.4 -32.95 Q-46.7 -30.65 -49.25 -28.95 L-49.25 -81.15 M-49.25 48.2 Q-46.65 49.8 -44.25 52.05 L-43.4 52.85 Q-34.25 62.0 -34.25 74.95 -34.25 87.9 -43.4 97.05 L-44.25 97.85 -49.25 101.7 -49.25 48.2" fill="#ffff00" fill-rule="evenodd" stroke="none"/>
    <path d="M-49.25 -159.0 L-49.25 -81.15 -51.75 -82.7 -51.75 -159.0 -49.25 -159.0 M-49.25 -28.95 L-49.25 48.2 Q-50.45 47.4 -51.75 46.8 L-51.75 -27.4 Q-50.45 -28.1 -49.25 -28.95 M-49.25 101.7 L-49.25 159.0 -51.75 159.0 -51.75 103.1 -49.25 101.7" fill="#ff51a8" fill-rule="evenodd" stroke="none"/>
    <path d="M-51.75 -82.7 L-49.25 -81.15 -49.25 -28.95 Q-50.45 -28.1 -51.75 -27.4 L-51.75 -82.7 M-51.75 46.8 Q-50.45 47.4 -49.25 48.2 L-49.25 101.7 -51.75 103.1 -51.75 46.8" fill="#c4c400" fill-rule="evenodd" stroke="none"/>
  </g>
</svg>
