<?xml version="1.0" encoding="UTF-8" standalone="no"?>
<svg xmlns:xlink="http://www.w3.org/1999/xlink" height="318.0px" width="90.45px" xmlns="http://www.w3.org/2000/svg">
  <g transform="matrix(1.0, 0.0, 0.0, 1.0, 45.2, 159.0)">
    <path d="M-40.7 -97.15 Q-38.45 -91.6 -33.8 -86.95 -24.65 -77.8 -11.7 -77.8 1.25 -77.8 10.4 -86.95 19.55 -96.1 19.55 -109.05 19.55 -122.0 10.4 -131.15 1.25 -140.3 -11.7 -140.3 -24.65 -140.3 -33.8 -131.15 -39.4 -125.55 -41.55 -118.55 L-43.2 -159.0 45.25 -159.0 45.25 159.0 18.0 159.0 Q23.7 151.15 23.7 140.95 23.7 128.0 14.55 118.85 5.4 109.7 -7.55 109.7 -20.5 109.7 -29.65 118.85 L-31.85 121.25 -35.4 33.85 -33.8 35.55 Q-24.65 44.7 -11.7 44.7 1.25 44.7 10.4 35.55 19.55 26.4 19.55 13.45 19.55 0.5 10.4 -8.65 1.25 -17.8 -11.7 -17.8 -24.65 -17.8 -33.8 -8.65 L-36.95 -5.0 -40.7 -97.15 M-33.1 159.0 L-34.25 159.0 -34.3 157.3 -33.1 159.0" fill="#ff99cc" fill-rule="evenodd" stroke="none"/>
    <path d="M-41.55 -118.55 Q-39.4 -125.55 -33.8 -131.15 -24.65 -140.3 -11.7 -140.3 1.25 -140.3 10.4 -131.15 19.55 -122.0 19.55 -109.05 19.55 -96.1 10.4 -86.95 1.25 -77.8 -11.7 -77.8 -24.65 -77.8 -33.8 -86.95 -38.45 -91.6 -40.7 -97.15 L-41.55 -118.55 M-36.95 -5.0 L-33.8 -8.65 Q-24.65 -17.8 -11.7 -17.8 1.25 -17.8 10.4 -8.65 19.55 0.5 19.55 13.45 19.55 26.4 10.4 35.55 1.25 44.7 -11.7 44.7 -24.65 44.7 -33.8 35.55 L-35.4 33.85 -36.95 -5.0 M-31.85 121.25 L-29.65 118.85 Q-20.5 109.7 -7.55 109.7 5.4 109.7 14.55 118.85 23.7 128.0 23.7 140.95 23.7 151.15 18.0 159.0 L-30.3 159.0 -31.85 121.25" fill="#ffff00" fill-rule="evenodd" stroke="none"/>
    <path d="M-40.7 -97.15 L-36.95 -5.0 Q-38.55 -2.9 -39.7 -0.6 L-45.2 -159.0 -43.2 -159.0 -41.55 -118.55 Q-42.95 -114.1 -42.95 -109.05 -42.95 -102.65 -40.7 -97.15 M-35.4 33.85 L-31.85 121.25 Q-33.9 123.75 -35.35 126.5 L-38.7 29.35 Q-37.3 31.7 -35.4 33.85" fill="#ff51a8" fill-rule="evenodd" stroke="none"/>
    <path d="M-41.55 -118.55 L-40.7 -97.15 Q-42.95 -102.65 -42.95 -109.05 -42.95 -114.1 -41.55 -118.55 M-39.7 -0.6 Q-38.55 -2.9 -36.95 -5.0 L-35.4 33.85 Q-37.3 31.7 -38.7 29.35 L-39.7 -0.6 M-35.35 126.5 Q-33.9 123.75 -31.85 121.25 L-30.3 159.0 -33.1 159.0 -34.3 157.3 -35.35 126.5" fill="#c4c400" fill-rule="evenodd" stroke="none"/>
  </g>
</svg>
