<?xml version="1.0" encoding="UTF-8" standalone="no"?>
<svg xmlns:xlink="http://www.w3.org/1999/xlink" height="318.0px" width="79.55px" xmlns="http://www.w3.org/2000/svg">
  <g transform="matrix(1.0, 0.0, 0.0, 1.0, 39.75, 159.0)">
    <path d="M-36.4 -133.7 L-37.8 -159.0 -35.75 -159.0 -34.3 -135.25 -36.4 -133.7 M-22.8 111.2 L-26.55 43.35 -23.25 44.15 -19.2 110.3 -22.8 111.2 M-29.8 -15.2 L-33.55 -82.35 -30.95 -80.9 -27.0 -16.3 -29.8 -15.2" fill="#ff51a8" fill-rule="evenodd" stroke="none"/>
    <path d="M-34.3 -135.25 L-35.75 -159.0 39.8 -159.0 39.8 159.0 12.55 159.0 Q18.25 151.15 18.25 140.95 18.25 128.0 9.1 118.85 -0.05 109.7 -13.0 109.7 L-19.2 110.3 -23.25 44.15 -17.15 44.7 Q-4.2 44.7 4.95 35.55 14.1 26.4 14.1 13.45 14.1 0.5 4.95 -8.65 -4.2 -17.8 -17.15 -17.8 -22.4 -17.8 -27.0 -16.3 L-30.95 -80.9 Q-24.7 -77.8 -17.15 -77.8 -4.2 -77.8 4.95 -86.95 14.1 -96.1 14.1 -109.05 14.1 -122.0 4.95 -131.15 -4.2 -140.3 -17.15 -140.3 -26.8 -140.3 -34.3 -135.25 M-39.75 157.3 L-38.55 159.0 -39.7 159.0 -39.75 157.3" fill="#ff99cc" fill-rule="evenodd" stroke="none"/>
    <path d="M12.55 159.0 L-16.2 159.0 -19.2 110.3 -13.0 109.7 Q-0.05 109.7 9.1 118.85 18.25 128.0 18.25 140.95 18.25 151.15 12.55 159.0 M-34.3 -135.25 Q-26.8 -140.3 -17.15 -140.3 -4.2 -140.3 4.95 -131.15 14.1 -122.0 14.1 -109.05 14.1 -96.1 4.95 -86.95 -4.2 -77.8 -17.15 -77.8 -24.7 -77.8 -30.95 -80.9 L-34.3 -135.25 M-27.0 -16.3 Q-22.4 -17.8 -17.15 -17.8 -4.2 -17.8 4.95 -8.65 14.1 0.5 14.1 13.45 14.1 26.4 4.95 35.55 -4.2 44.7 -17.15 44.7 L-23.25 44.15 -27.0 -16.3" fill="#ffff00" fill-rule="evenodd" stroke="none"/>
    <path d="M-36.4 -133.7 L-34.3 -135.25 -30.95 -80.9 -33.55 -82.35 -36.4 -133.7 M-16.2 159.0 L-20.15 159.0 -22.8 111.2 -19.2 110.3 -16.2 159.0 M-26.55 43.35 L-29.8 -15.2 -27.0 -16.3 -23.25 44.15 -26.55 43.35" fill="#c4c400" fill-rule="evenodd" stroke="none"/>
  </g>
</svg>
