<?xml version="1.0" encoding="UTF-8" standalone="no"?>
<svg xmlns:xlink="http://www.w3.org/1999/xlink" height="318.0px" width="79.55px" xmlns="http://www.w3.org/2000/svg">
  <g transform="matrix(1.0, 0.0, 0.0, 1.0, 39.75, 159.0)">
    <path d="M-18.05 -140.3 L-19.35 -159.0 -17.2 -159.0 -15.8 -140.25 -17.15 -140.3 -18.05 -140.3 M-0.35 112.3 L-5.25 42.45 -2.4 41.1 3.0 114.0 Q1.35 113.05 -0.35 112.3 M-9.4 -16.9 L-13.7 -77.95 -11.25 -78.3 -6.65 -16.1 -9.4 -16.9" fill="#ff51a8" fill-rule="evenodd" stroke="none"/>
    <path d="M-15.8 -140.25 L-17.2 -159.0 39.8 -159.0 39.8 159.0 12.55 159.0 Q18.25 151.15 18.25 140.95 18.25 128.0 9.1 118.85 6.9 116.65 4.55 115.05 L3.0 114.0 -2.4 41.1 -0.95 40.25 Q2.15 38.3 4.95 35.55 14.1 26.4 14.1 13.45 14.1 0.5 4.95 -8.65 0.4 -13.2 -5.1 -15.5 L-6.65 -16.1 -11.25 -78.3 -9.75 -78.6 Q-1.5 -80.55 4.95 -86.95 14.1 -96.1 14.1 -109.05 14.1 -122.0 4.95 -131.15 -3.2 -139.3 -14.3 -140.2 L-15.8 -140.25 M-39.75 157.3 L-38.55 159.0 -39.7 159.0 -39.75 157.3" fill="#ff99cc" fill-rule="evenodd" stroke="none"/>
    <path d="M12.55 159.0 L6.3 159.0 3.0 114.0 4.55 115.05 Q6.9 116.65 9.1 118.85 18.25 128.0 18.25 140.95 18.25 151.15 12.55 159.0 M-15.8 -140.25 L-14.3 -140.2 Q-3.2 -139.3 4.95 -131.15 14.1 -122.0 14.1 -109.05 14.1 -96.1 4.95 -86.95 -1.5 -80.55 -9.75 -78.6 L-11.25 -78.3 -15.8 -140.25 M-6.65 -16.1 L-5.1 -15.5 Q0.4 -13.2 4.95 -8.65 14.1 0.5 14.1 13.45 14.1 26.4 4.95 35.55 2.15 38.3 -0.95 40.25 L-2.4 41.1 -6.65 -16.1" fill="#ffff00" fill-rule="evenodd" stroke="none"/>
    <path d="M-18.05 -140.3 L-17.15 -140.3 -15.8 -140.25 -11.25 -78.3 -13.7 -77.95 -18.05 -140.3 M6.3 159.0 L2.95 159.0 -0.35 112.3 Q1.35 113.05 3.0 114.0 L6.3 159.0 M-5.25 42.45 L-9.4 -16.9 -6.65 -16.1 -2.4 41.1 -5.25 42.45" fill="#c4c400" fill-rule="evenodd" stroke="none"/>
  </g>
</svg>
