<?xml version="1.0" encoding="UTF-8" standalone="no"?>
<svg xmlns:xlink="http://www.w3.org/1999/xlink" height="318.0px" width="79.55px" xmlns="http://www.w3.org/2000/svg">
  <g transform="matrix(1.0, 0.0, 0.0, 1.0, 39.75, 159.0)">
    <path d="M23.35 159.0 L20.35 159.0 12.6 23.35 Q14.1 18.7 14.1 13.45 14.1 6.3 11.3 0.25 L6.25 -88.3 8.55 -91.2 23.35 159.0 M3.7 -132.35 L2.2 -159.0 4.55 -159.0 6.3 -129.75 4.95 -131.15 3.7 -132.35" fill="#ff51a8" fill-rule="evenodd" stroke="none"/>
    <path d="M4.55 -159.0 L39.8 -159.0 39.8 159.0 23.35 159.0 8.55 -91.2 Q14.1 -99.0 14.1 -109.05 14.1 -121.0 6.3 -129.75 L4.55 -159.0 M-39.75 157.3 L-38.55 159.0 -39.7 159.0 -39.75 157.3" fill="#ff99cc" fill-rule="evenodd" stroke="none"/>
    <path d="M6.3 -129.75 Q14.1 -121.0 14.1 -109.05 14.1 -99.0 8.55 -91.2 L6.3 -129.75" fill="#ffff00" fill-rule="evenodd" stroke="none"/>
    <path d="M12.6 23.35 L11.3 0.25 Q14.1 6.3 14.1 13.45 14.1 18.7 12.6 23.35 M6.25 -88.3 L3.7 -132.35 4.95 -131.15 6.3 -129.75 8.55 -91.2 6.25 -88.3" fill="#c4c400" fill-rule="evenodd" stroke="none"/>
  </g>
</svg>
