<?xml version="1.0" encoding="UTF-8" standalone="no"?>
<svg xmlns:xlink="http://www.w3.org/1999/xlink" height="350.0px" width="350.0px" xmlns="http://www.w3.org/2000/svg">
  <g transform="matrix(1.0, 0.0, 0.0, 1.0, 175.0, 175.0)">
    <path d="M-169.75 -169.75 L169.75 -169.75 169.75 169.75 -169.75 169.75 -169.75 -169.75 M150.0 150.0 L150.0 -150.0 -150.0 -150.0 -150.0 150.0 150.0 150.0" fill="#ffcc00" fill-rule="evenodd" stroke="none"/>
    <path d="M-169.75 -169.75 L-175.0 -175.0 175.0 -175.0 175.0 175.0 169.75 169.75 169.75 -169.75 -169.75 -169.75 M-145.5 -145.5 L-150.0 -150.0 150.0 -150.0 150.0 150.0 145.5 145.5 145.5 -145.5 -145.5 -145.5" fill="#a88600" fill-rule="evenodd" stroke="none"/>
    <path d="M-175.0 -175.0 L-169.75 -169.75 -169.75 169.75 169.75 169.75 175.0 175.0 -175.0 175.0 -175.0 -175.0 M-150.0 -150.0 L-145.5 -145.5 -145.5 145.5 145.5 145.5 150.0 150.0 -150.0 150.0 -150.0 -150.0" fill="#755e00" fill-rule="evenodd" stroke="none"/>
  </g>
</svg>
