<?xml version="1.0" encoding="UTF-8" standalone="no"?>
<svg xmlns:xlink="http://www.w3.org/1999/xlink" height="100.2px" width="100.2px" xmlns="http://www.w3.org/2000/svg">
  <g transform="matrix(1.0, 0.0, 0.0, 1.0, 159.95, 104.75)">
    <path d="M-131.5 -99.65 Q-112.85 -108.65 -93.35 -101.8 -73.85 -94.95 -64.85 -76.3 -61.9 -70.15 -60.6 -63.85 L-60.35 -62.45 Q-59.65 -58.25 -59.75 -53.95 -59.9 -46.15 -62.7 -38.15 -65.5 -30.15 -70.25 -23.95 -72.9 -20.5 -76.1 -17.6 L-77.1 -16.75 Q-82.0 -12.65 -88.15 -9.65 -106.85 -0.65 -126.35 -7.5 -145.85 -14.35 -154.85 -32.95 -163.85 -51.65 -157.0 -71.15 -150.15 -90.65 -131.5 -99.65" fill="#666666" fill-rule="evenodd" stroke="none"/>
    <path d="M-131.5 -99.65 Q-150.15 -90.65 -157.0 -71.15 -163.85 -51.65 -154.85 -32.95 -145.85 -14.35 -126.35 -7.5 -106.85 -0.65 -88.15 -9.65 -82.0 -12.65 -77.1 -16.75 L-76.1 -17.6 Q-72.9 -20.5 -70.25 -23.95 -65.5 -30.15 -62.7 -38.15 -59.9 -46.15 -59.75 -53.95 -59.65 -58.25 -60.35 -62.45 L-60.6 -63.85 Q-61.9 -70.15 -64.85 -76.3 -73.85 -94.95 -93.35 -101.8 -112.85 -108.65 -131.5 -99.65 Z" fill="none" stroke="#333333" stroke-linecap="round" stroke-linejoin="round" stroke-width="0.05"/>
  </g>
</svg>
