<?xml version="1.0" encoding="UTF-8" standalone="no"?>
<svg xmlns:xlink="http://www.w3.org/1999/xlink" height="209.6px" width="319.9px" xmlns="http://www.w3.org/2000/svg">
  <g transform="matrix(1.0, 0.0, 0.0, 1.0, 159.95, 104.75)">
    <path d="M-51.1 -49.65 L-50.5 -51.3 -44.1 -49.05 -42.95 -52.3 -45.85 -53.3 -45.2 -55.1 -36.55 -52.05 -37.15 -50.25 -39.85 -51.2 -41.0 -47.95 -33.7 -45.4 -34.25 -43.75 Q101.9 -5.4 150.65 -42.85 151.3 -44.7 153.05 -45.5 L156.7 -45.7 Q158.6 -45.05 159.45 -43.3 160.3 -41.55 159.7 -39.7 L110.2 101.75 Q109.5 103.5 107.8 104.35 L104.15 104.55 Q102.25 103.85 101.4 102.1 100.55 100.35 101.15 98.55 85.75 34.5 -44.0 -16.0 L-44.5 -14.5 -61.35 -20.4 -60.8 -21.85 -51.1 -49.65 -50.9 -49.6 -51.1 -49.65 M150.65 -42.85 L101.15 98.55 150.65 -42.85 M-44.0 -16.0 L-34.25 -43.75 -44.0 -16.0 M-42.95 -52.3 L-39.85 -51.2 -42.95 -52.3 M-41.0 -47.95 L-44.1 -49.05 -41.0 -47.95" fill="#ff9900" fill-rule="evenodd" stroke="none"/>
    <path d="M-60.8 -21.85 Q-69.25 -23.3 -76.1 -17.6 -72.9 -20.5 -70.25 -23.95 -65.5 -30.15 -62.7 -38.15 -59.9 -46.15 -59.75 -53.95 -59.65 -58.25 -60.35 -62.45 -58.55 -53.8 -51.15 -49.7 L-51.1 -49.65 -60.8 -21.85" fill="#666666" fill-rule="evenodd" stroke="none"/>
    <path d="M-51.1 -49.65 L-50.5 -51.3 -44.1 -49.05 -42.95 -52.3 -45.85 -53.3 -45.2 -55.1 -36.55 -52.05 -37.15 -50.25 -39.85 -51.2 -41.0 -47.95 -33.7 -45.4 -34.25 -43.75 Q101.9 -5.4 150.65 -42.85 151.3 -44.7 153.05 -45.5 L156.7 -45.7 Q158.6 -45.05 159.45 -43.3 160.3 -41.55 159.7 -39.7 L110.2 101.75 Q109.5 103.5 107.8 104.35 L104.15 104.55 Q102.25 103.85 101.4 102.1 100.55 100.35 101.15 98.55 85.75 34.5 -44.0 -16.0 L-44.5 -14.5 -61.35 -20.4 -60.8 -21.85 M-51.15 -49.7 L-51.1 -49.65 -50.9 -49.6 -51.1 -49.65 -60.8 -21.85 M-51.1 -49.65 L-51.15 -49.7 M-44.1 -49.05 L-41.0 -47.95 M-39.85 -51.2 L-42.95 -52.3 M-34.25 -43.75 L-44.0 -16.0 M101.15 98.55 L150.65 -42.85" fill="none" stroke="#990000" stroke-linecap="round" stroke-linejoin="round" stroke-width="0.05"/>
    <path d="M-60.8 -21.85 Q-69.25 -23.3 -76.1 -17.6 M-60.35 -62.45 Q-58.55 -53.8 -51.15 -49.7" fill="none" stroke="#333333" stroke-linecap="round" stroke-linejoin="round" stroke-width="0.05"/>
    <path d="M-131.5 -99.65 Q-112.85 -108.65 -93.35 -101.8 -73.85 -94.95 -64.85 -76.3 -61.9 -70.15 -60.6 -63.85 L-60.35 -62.45 Q-59.65 -58.25 -59.75 -53.95 -59.9 -46.15 -62.7 -38.15 -65.5 -30.15 -70.25 -23.95 -72.9 -20.5 -76.1 -17.6 L-77.1 -16.75 Q-82.0 -12.65 -88.15 -9.65 -106.85 -0.65 -126.35 -7.5 -145.85 -14.35 -154.85 -32.95 -163.85 -51.65 -157.0 -71.15 -150.15 -90.65 -131.5 -99.65" fill="#666666" fill-rule="evenodd" stroke="none"/>
    <path d="M-131.5 -99.65 Q-150.15 -90.65 -157.0 -71.15 -163.85 -51.65 -154.85 -32.95 -145.85 -14.35 -126.35 -7.5 -106.85 -0.65 -88.15 -9.65 -82.0 -12.65 -77.1 -16.75 L-76.1 -17.6 Q-72.9 -20.5 -70.25 -23.95 -65.5 -30.15 -62.7 -38.15 -59.9 -46.15 -59.75 -53.95 -59.65 -58.25 -60.35 -62.45 L-60.6 -63.85 Q-61.9 -70.15 -64.85 -76.3 -73.85 -94.95 -93.35 -101.8 -112.85 -108.65 -131.5 -99.65 Z" fill="none" stroke="#333333" stroke-linecap="round" stroke-linejoin="round" stroke-width="0.05"/>
  </g>
</svg>
