<?xml version="1.0" encoding="UTF-8" standalone="no"?>
<svg xmlns:xlink="http://www.w3.org/1999/xlink" height="36.65px" width="67.45px" xmlns="http://www.w3.org/2000/svg">
  <g transform="matrix(1.0, 0.0, 0.0, 1.0, 33.0, 84.35)">
    <path d="M28.95 -78.3 L28.15 -78.3 28.15 -84.35 34.45 -84.35 34.45 -78.3 33.55 -78.3 33.55 -77.55 Q33.55 -65.2 23.95 -56.45 14.3 -47.7 0.7 -47.7 -12.9 -47.7 -22.5 -56.45 -32.1 -65.2 -32.1 -77.55 L-32.1 -78.3 -33.0 -78.3 -33.0 -84.35 -26.65 -84.35 -26.65 -78.3 -27.5 -78.3 -27.5 -77.55 Q-27.55 -66.95 -19.25 -59.4 -11.0 -51.9 0.7 -51.85 12.4 -51.9 20.7 -59.4 28.95 -66.95 28.95 -77.55 L28.95 -78.3" fill="#000000" fill-opacity="0.38039216" fill-rule="evenodd" stroke="none"/>
  </g>
</svg>
