<?xml version="1.0" encoding="UTF-8" standalone="no"?>
<svg xmlns:xlink="http://www.w3.org/1999/xlink" height="36.6px" width="67.45px" xmlns="http://www.w3.org/2000/svg">
  <g transform="matrix(1.0, 0.0, 0.0, 1.0, 32.2, 86.05)">
    <path d="M34.35 -80.05 L29.7 -80.05 28.95 -80.05 28.95 -86.05 35.25 -86.05 35.25 -80.05 34.35 -80.05 M-26.7 -80.05 L-31.3 -80.05 -32.2 -80.05 -32.2 -86.05 -25.85 -86.05 -25.85 -80.05 -26.7 -80.05" fill="#ffcc00" fill-rule="evenodd" stroke="none"/>
    <path d="M29.7 -80.05 L34.35 -80.05 34.35 -79.25 Q34.3 -66.9 24.7 -58.15 15.1 -49.45 1.5 -49.45 -12.1 -49.45 -21.7 -58.15 -31.35 -66.9 -31.3 -79.25 L-31.3 -80.05 -26.7 -80.05 -26.75 -79.25 Q-26.75 -68.65 -18.45 -61.15 -10.2 -53.6 1.5 -53.6 13.2 -53.6 21.5 -61.15 29.75 -68.65 29.75 -79.25 L29.7 -80.05" fill="#ea009e" fill-rule="evenodd" stroke="none"/>
  </g>
</svg>
