<?xml version="1.0" encoding="UTF-8" standalone="no"?>
<svg xmlns:xlink="http://www.w3.org/1999/xlink" height="393.6px" width="1357.65px" xmlns="http://www.w3.org/2000/svg">
  <g transform="matrix(1.0, 0.0, 0.0, 1.0, 678.35, 245.6)">
    <path d="M38.4 -220.5 L38.4 -220.4 38.15 -220.45 37.95 -220.5 38.15 -220.5 38.4 -220.5 M61.4 -235.35 L62.5 -235.35 62.1 -234.45 61.4 -235.35 M50.55 -219.2 L50.55 -219.05 50.4 -219.65 50.65 -219.55 50.55 -219.2 M72.7 -190.2 L72.6 -190.2 72.65 -190.25 72.7 -190.2" fill="#666666" fill-rule="evenodd" stroke="none"/>
    <path d="M-543.8 -244.85 L-543.95 -245.6 -543.8 -244.85" fill="url(#gradient0)" fill-rule="evenodd" stroke="none"/>
    <path d="M90.55 -223.5 L90.75 -221.5 90.55 -221.5 Q89.65 -221.2 89.25 -220.1 L88.85 -219.45 88.75 -219.35 87.25 -219.45 86.15 -218.9 85.4 -218.15 84.6 -216.65 84.45 -216.4 82.7 -216.45 81.3 -216.05 Q80.4 -215.6 79.65 -214.95 77.95 -213.35 78.2 -211.05 L77.6 -211.45 76.9 -212.0 74.9 -212.3 Q74.05 -212.15 73.25 -211.7 L72.15 -210.65 71.5 -209.85 71.0 -210.3 70.05 -210.5 69.45 -210.45 69.3 -210.6 Q68.75 -211.5 67.85 -211.75 L68.5 -224.35 90.55 -223.5 M72.7 -190.2 L72.9 -190.05 72.45 -190.1 72.6 -190.2 72.7 -190.2" fill="#ecdba8" fill-rule="evenodd" stroke="none"/>
    <path d="M90.55 -226.95 L90.55 -223.5 68.5 -224.35 68.8 -230.55 69.85 -230.4 69.2 -232.3 80.5 -230.85 81.6 -229.2 82.7 -227.65 90.55 -226.95 M62.35 -212.6 L61.85 -212.6 Q60.85 -212.5 59.8 -212.0 L59.2 -211.65 59.2 -211.75 59.2 -212.5 59.05 -213.6 58.75 -214.25 58.4 -214.4 Q57.9 -214.35 57.75 -214.65 L57.95 -215.1 Q58.4 -215.9 58.2 -216.75 L57.95 -217.3 57.45 -217.65 Q56.55 -217.8 56.55 -218.7 L56.5 -219.35 56.25 -219.95 56.0 -220.4 Q55.35 -221.05 54.4 -220.75 L54.05 -220.75 53.9 -220.9 54.2 -221.65 Q54.55 -222.9 53.9 -224.05 L53.25 -224.65 53.1 -224.65 Q52.85 -224.65 53.0 -225.15 L53.1 -225.95 Q52.85 -226.85 52.25 -227.4 L56.35 -228.0 60.4 -228.55 60.45 -231.15 63.1 -231.15 63.35 -231.15 62.35 -212.6 M38.7 -236.4 L39.9 -240.4 41.4 -235.45 41.6 -234.75 38.15 -234.75 38.7 -236.4" fill="#d28844" fill-rule="evenodd" stroke="none"/>
    <path d="M67.85 -211.75 L67.05 -211.9 Q65.3 -212.05 64.6 -210.6 L64.05 -211.55 63.25 -212.2 62.35 -212.6 63.35 -231.15 68.8 -230.55 68.5 -224.35 67.85 -211.75 M62.1 -234.45 L62.5 -235.35 65.85 -242.15 63.1 -231.15 60.45 -231.15 62.1 -234.45 M-242.05 -220.8 L-242.0 -221.5 -241.8 -220.8 -242.05 -220.8" fill="#b38f26" fill-rule="evenodd" stroke="none"/>
    <path d="M88.45 -233.1 L91.3 -226.85 90.55 -226.95 82.7 -227.65 81.6 -229.2 83.55 -233.65 85.8 -238.85 88.45 -233.1 M56.35 -228.0 L56.35 -233.75 57.5 -235.5 59.3 -238.2 61.4 -235.35 62.1 -234.45 60.45 -231.15 60.4 -228.55 56.35 -228.0 M41.6 -234.75 L41.6 -224.15 41.6 -223.7 Q40.65 -222.85 40.8 -221.4 40.45 -221.85 39.8 -221.85 38.35 -221.85 38.4 -220.5 L38.15 -220.5 38.15 -234.75 41.6 -234.75 M65.85 -242.15 L68.3 -235.0 69.2 -232.3 69.85 -230.4 68.8 -230.55 63.35 -231.15 63.1 -231.15 65.85 -242.15 M-242.0 -221.5 L-242.05 -220.8 -242.15 -220.8 -242.0 -221.5" fill="#8c711e" fill-rule="evenodd" stroke="none"/>
    <path d="M37.95 -220.5 L37.9 -220.5 37.55 -220.45 Q36.3 -219.5 36.45 -217.85 L36.35 -217.95 Q35.8 -218.05 35.75 -218.55 L35.6 -219.8 35.35 -220.45 Q35.0 -221.05 34.35 -221.2 L34.2 -221.25 Q34.15 -223.25 32.2 -223.55 L31.4 -223.5 31.05 -223.4 31.0 -223.7 31.0 -229.5 32.2 -229.5 34.7 -235.15 37.2 -240.75 38.7 -236.4 38.15 -234.75 38.15 -220.5 37.95 -220.5" fill="#dfc46f" fill-rule="evenodd" stroke="none"/>
    <path d="M41.6 -235.45 L41.6 -234.75 41.4 -235.45 41.6 -235.45 M41.6 -224.15 L42.35 -224.15 41.6 -223.7 41.6 -224.15 M212.85 -231.6 Q212.9 -230.65 211.95 -230.1 L211.8 -229.9 212.85 -231.6" fill="#00cc00" fill-rule="evenodd" stroke="none"/>
    <path d="M679.3 -76.05 L679.05 -76.1 679.3 -76.1 679.3 -76.05" fill="#009900" fill-rule="evenodd" stroke="none"/>
    <path d="M679.3 -76.1 L679.05 -76.1 679.3 -76.05 679.3 148.0 -678.35 148.0 -678.35 -237.75 Q-555.95 -215.35 -395.15 -231.55 -289.8 -246.3 -214.4 -236.75 -198.5 -234.75 -183.95 -231.65 L-180.25 -230.85 -178.15 -230.4 Q-70.65 -214.1 -7.65 -227.85 L-6.75 -228.1 -4.4 -228.8 Q13.55 -233.85 34.7 -235.15 L32.2 -229.5 31.0 -229.5 31.0 -223.7 31.0 -223.4 31.05 -223.4 31.4 -223.5 32.2 -223.55 Q34.15 -223.25 34.2 -221.25 L34.35 -221.2 Q35.0 -221.05 35.35 -220.45 L35.6 -219.8 35.75 -218.55 Q35.8 -218.05 36.35 -217.95 L36.45 -217.85 Q36.3 -219.5 37.55 -220.45 L37.9 -220.5 37.95 -220.5 38.15 -220.45 38.4 -220.4 38.4 -220.5 Q38.35 -221.85 39.8 -221.85 40.45 -221.85 40.8 -221.4 40.65 -222.85 41.6 -223.7 L42.35 -224.15 41.6 -224.15 41.6 -234.75 41.6 -235.45 Q49.35 -235.75 57.5 -235.5 L56.35 -233.75 56.35 -228.0 52.25 -227.4 Q52.85 -226.85 53.1 -225.95 L53.0 -225.15 Q52.85 -224.65 53.1 -224.65 L53.25 -224.65 53.9 -224.05 Q54.55 -222.9 54.2 -221.65 L53.9 -220.9 54.05 -220.75 54.4 -220.75 Q55.35 -221.05 56.0 -220.4 L56.25 -219.95 56.5 -219.35 56.55 -218.7 Q56.55 -217.8 57.45 -217.65 L57.95 -217.3 58.2 -216.75 Q58.4 -215.9 57.95 -215.1 L57.75 -214.65 Q57.9 -214.35 58.4 -214.4 L58.75 -214.25 59.05 -213.6 59.2 -212.5 59.2 -211.75 59.2 -211.65 59.8 -212.0 Q60.85 -212.5 61.85 -212.6 L62.35 -212.6 63.25 -212.2 64.05 -211.55 64.6 -210.6 Q65.3 -212.05 67.05 -211.9 L67.85 -211.75 Q68.75 -211.5 69.3 -210.6 L69.45 -210.45 70.05 -210.5 71.0 -210.3 71.5 -209.85 72.15 -210.65 73.25 -211.7 Q74.05 -212.15 74.9 -212.3 L76.9 -212.0 77.6 -211.45 78.2 -211.05 Q77.95 -213.35 79.65 -214.95 80.4 -215.6 81.3 -216.05 L82.7 -216.45 84.45 -216.4 84.6 -216.65 85.4 -218.15 86.15 -218.9 87.25 -219.45 88.75 -219.35 88.85 -219.45 89.25 -220.1 Q89.65 -221.2 90.55 -221.5 L90.75 -221.5 90.55 -223.5 90.55 -226.95 91.3 -226.85 88.45 -233.1 90.55 -232.85 Q105.5 -230.9 121.65 -227.65 L124.7 -226.9 Q165.55 -217.1 199.9 -204.3 L199.9 -204.25 200.15 -204.1 200.15 -204.2 Q225.85 -196.95 258.8 -195.75 478.7 -195.75 679.3 -213.85 L679.3 -76.1 M36.45 -217.85 L36.45 -217.65 36.45 -217.8 36.45 -217.85 M203.1 -203.1 L203.05 -203.1 203.1 -203.1 M50.55 -219.2 L50.65 -219.55 50.4 -219.65 50.55 -219.05 50.55 -219.2 M72.6 -190.2 L72.45 -190.1 72.9 -190.05 72.7 -190.2 72.65 -190.25 72.6 -190.2 M-242.05 -220.8 L-241.8 -220.8 -242.0 -221.5 -242.15 -220.8 -242.05 -220.8" fill="url(#gradient1)" fill-rule="evenodd" stroke="none"/>
    <path d="M200.15 -204.2 L200.15 -204.1 199.9 -204.25 200.15 -204.2" fill="url(#gradient2)" fill-rule="evenodd" stroke="none"/>
    <path d="M203.05 -203.1 L203.1 -203.1 203.05 -203.1" fill="url(#gradient3)" fill-rule="evenodd" stroke="none"/>
    <path d="M68.3 -235.0 L83.55 -233.65 81.6 -229.2 80.5 -230.85 69.2 -232.3 68.3 -235.0" fill="url(#gradient4)" fill-rule="evenodd" stroke="none"/>
    <path d="M203.05 -203.1 L203.1 -203.1 M63.35 -231.15 L63.1 -231.15" fill="none" stroke="#000000" stroke-linecap="round" stroke-linejoin="round" stroke-width="0.05"/>
  </g>
  <defs>
    <linearGradient gradientTransform="matrix(0.0133, -0.3049, 0.8385, 0.0366, 5.9, -104.0)" gradientUnits="userSpaceOnUse" id="gradient0" spreadMethod="pad" x1="-819.2" x2="819.2">
      <stop offset="0.0" stop-color="#59ff59"/>
      <stop offset="1.0" stop-color="#00cc00"/>
    </linearGradient>
    <linearGradient gradientTransform="matrix(-0.0527, -0.2416, 0.6679, -0.1458, -48.05, -181.0)" gradientUnits="userSpaceOnUse" id="gradient1" spreadMethod="pad" x1="-819.2" x2="819.2">
      <stop offset="0.0" stop-color="#006600"/>
      <stop offset="0.7019607843137254" stop-color="#679c43"/>
      <stop offset="1.0" stop-color="#42a252"/>
    </linearGradient>
    <linearGradient gradientTransform="matrix(0.1147, -0.0061, 0.0056, 0.1045, 303.85, -211.85)" gradientUnits="userSpaceOnUse" id="gradient2" spreadMethod="pad" x1="-819.2" x2="819.2">
      <stop offset="0.0" stop-color="#006600"/>
      <stop offset="0.7019607843137254" stop-color="#679c43"/>
      <stop offset="1.0" stop-color="#42a252"/>
    </linearGradient>
    <linearGradient gradientTransform="matrix(-0.0013, 0.0023, -0.5894, -0.3345, -61.0, 36.8)" gradientUnits="userSpaceOnUse" id="gradient3" spreadMethod="pad" x1="-819.2" x2="819.2">
      <stop offset="0.0" stop-color="#59ff59"/>
      <stop offset="1.0" stop-color="#00cc00"/>
    </linearGradient>
    <linearGradient gradientTransform="matrix(0.0, 0.1203, -0.6612, 0.0, -23.95, -91.15)" gradientUnits="userSpaceOnUse" id="gradient4" spreadMethod="pad" x1="-819.2" x2="819.2">
      <stop offset="0.0" stop-color="#679c43"/>
      <stop offset="1.0" stop-color="#42a252"/>
    </linearGradient>
  </defs>
</svg>
