<?xml version="1.0" encoding="UTF-8" standalone="no"?>
<svg xmlns:xlink="http://www.w3.org/1999/xlink" height="89.8px" width="137.8px" xmlns="http://www.w3.org/2000/svg">
  <g transform="matrix(1.0, 0.0, 0.0, 1.0, 68.6, 88.9)">
    <path d="M57.95 -81.55 L67.5 -6.4 -66.8 -6.4 -57.6 -81.55 57.95 -81.55" fill="#0066ff" fill-rule="evenodd" stroke="none"/>
    <path d="M57.75 -82.95 L59.7 -82.95 69.2 -5.05 67.65 -5.05 -66.95 -5.05 -68.6 -5.05 -58.9 -82.95 -57.4 -82.95 57.75 -82.95 M57.95 -81.55 L-57.6 -81.55 -66.8 -6.4 67.5 -6.4 57.95 -81.55" fill="#0033cc" fill-rule="evenodd" stroke="none"/>
    <path d="M-57.4 -82.95 L-56.85 -87.55 57.2 -87.55 57.75 -82.95 -57.4 -82.95 M67.65 -5.05 L63.05 -0.15 -62.05 -0.15 -66.95 -5.05 67.65 -5.05" fill="#ff9900" fill-rule="evenodd" stroke="none"/>
    <path d="M59.7 -82.95 L57.75 -82.95 57.2 -87.55 -56.85 -87.55 -57.4 -82.95 -58.9 -82.95 -58.15 -88.9 58.95 -88.9 59.7 -82.95 M-66.95 -5.05 L-62.05 -0.15 63.05 -0.15 67.65 -5.05 69.2 -5.05 64.6 0.9 -63.0 0.9 -68.6 -5.05 -66.95 -5.05" fill="#b36b00" fill-rule="evenodd" stroke="none"/>
  </g>
</svg>
