<?xml version="1.0" encoding="UTF-8" standalone="no"?>
<svg xmlns:xlink="http://www.w3.org/1999/xlink" height="346.1px" width="1353.3px" xmlns="http://www.w3.org/2000/svg">
  <g transform="matrix(1.0, 0.0, 0.0, 1.0, 677.5, 180.45)">
    <path d="M328.2 -178.95 Q331.7 -177.0 335.95 -176.35 L354.7 -173.5 366.4 -171.95 386.15 -170.3 413.5 -168.1 433.8 -166.2 Q444.25 -165.35 454.6 -163.35 461.1 -162.1 467.4 -160.15 L473.9 -158.55 Q490.25 -155.5 506.85 -154.9 L520.05 -154.35 531.15 -153.85 538.8 -153.1 Q560.45 -150.35 581.9 -146.15 592.45 -144.1 603.2 -143.4 L613.35 -144.8 Q633.05 -147.7 652.6 -152.0 664.15 -154.55 675.8 -156.05 L675.8 -48.8 657.25 -49.65 647.7 -50.4 628.9 -51.25 Q624.4 -51.1 619.9 -51.45 L583.05 -53.8 Q569.7 -54.55 556.6 -57.0 L550.8 -58.0 Q539.8 -59.85 528.9 -62.35 526.15 -63.0 523.65 -64.5 L520.05 -66.8 509.55 -74.25 Q501.75 -79.85 493.3 -83.9 491.1 -84.95 488.85 -85.6 L483.7 -86.8 477.45 -88.1 Q468.55 -90.15 459.85 -93.1 445.45 -98.05 430.75 -100.45 L427.0 -101.05 Q425.05 -101.35 425.0 -100.15 L425.8 -98.95 427.4 -97.35 Q428.55 -96.25 429.15 -94.8 430.2 -92.15 428.05 -90.75 425.25 -88.85 421.8 -88.85 L419.25 -88.75 408.85 -88.3 404.4 -88.05 Q392.2 -87.55 380.5 -84.05 368.8 -80.55 357.2 -76.45 L350.3 -73.9 Q338.4 -69.2 326.35 -65.15 L321.05 -63.45 316.1 -61.75 309.55 -59.5 Q306.3 -58.6 303.15 -57.35 299.9 -56.0 296.6 -55.0 290.0 -53.0 283.05 -52.3 L279.25 -51.5 277.35 -51.0 272.75 -50.5 257.3 -50.3 Q244.55 -50.05 232.05 -52.1 L216.6 -55.05 Q204.95 -57.75 193.5 -60.9 L187.5 -62.4 Q174.8 -65.3 162.45 -69.1 L139.25 -75.8 134.0 -77.25 116.7 -81.0 93.3 -84.95 Q81.2 -86.9 68.85 -86.35 L65.0 -86.25 51.45 -85.35 41.05 -83.65 38.7 -83.0 Q35.9 -82.1 33.15 -80.9 38.1 -78.35 43.5 -76.85 L49.6 -75.4 51.9 -75.1 Q57.5 -74.65 62.75 -73.45 67.0 -72.55 71.05 -70.25 78.25 -65.95 85.65 -62.2 88.45 -60.8 91.5 -59.9 97.3 -58.2 103.5 -57.55 L107.8 -56.75 Q112.05 -55.7 116.25 -53.75 L119.65 -52.15 Q125.55 -49.6 130.9 -45.45 L132.3 -43.95 Q134.45 -40.6 136.9 -37.75 L138.4 -35.6 Q139.2 -34.15 139.2 -32.5 L139.0 -31.85 Q137.35 -29.3 135.0 -26.85 134.7 -26.55 134.85 -25.95 135.05 -24.7 136.55 -24.2 L149.65 -19.7 153.85 -17.9 156.8 -16.15 Q158.25 -15.15 157.05 -13.8 L156.2 -12.9 Q154.55 -11.4 154.3 -9.65 154.25 -9.1 154.55 -8.5 156.8 -4.85 160.5 -2.45 162.3 -1.3 164.25 -0.25 169.3 2.65 172.6 7.65 175.15 11.5 177.1 16.2 179.15 20.8 181.65 25.6 184.4 31.05 187.7 36.45 189.6 39.5 192.1 42.15 L194.35 44.8 196.45 47.35 Q203.85 55.85 206.95 67.0 L209.65 76.7 Q211.55 83.8 212.1 91.1 L211.8 91.2 Q210.15 86.45 208.15 81.85 L206.45 77.9 Q202.3 68.3 194.15 61.75 188.0 56.75 181.0 53.0 166.85 45.4 152.05 39.2 148.9 37.85 148.15 34.8 147.6 32.8 147.45 30.8 146.75 19.55 136.65 14.7 132.5 12.7 128.2 12.3 L123.75 12.1 Q105.8 12.1 88.25 16.0 L72.7 19.7 68.3 20.8 Q58.35 23.45 48.15 23.7 L48.1 22.95 Q53.1 18.8 59.95 16.85 66.7 14.95 70.25 8.95 71.55 6.7 68.2 5.75 L65.65 5.15 Q55.65 3.45 45.65 6.35 L39.15 8.05 Q34.35 9.1 29.55 10.5 17.7 14.1 5.7 15.6 3.45 15.85 3.1 14.7 5.15 9.8 10.25 7.05 12.15 6.0 14.0 4.9 L16.25 2.85 Q18.6 -0.65 15.2 -3.15 14.05 -4.0 12.7 -4.1 5.2 -4.9 -2.1 -3.9 L-6.6 -3.8 Q-18.8 -4.55 -30.35 -8.8 -34.5 -10.3 -35.55 -14.3 -35.95 -15.9 -35.75 -17.45 -35.05 -23.7 -33.2 -29.9 L-32.0 -32.85 Q-29.7 -37.3 -32.25 -41.5 L-34.05 -43.7 -36.15 -45.45 Q-38.6 -47.15 -41.55 -47.6 -46.3 -48.3 -50.5 -49.8 L-49.75 -51.05 Q-47.75 -54.25 -49.15 -57.55 -49.5 -58.2 -49.8 -58.2 -54.6 -58.3 -58.35 -60.75 -61.85 -59.3 -65.9 -59.25 L-80.1 -58.15 -87.85 -57.15 -100.15 -56.55 -108.5 -57.0 Q-120.8 -58.35 -133.0 -57.2 L-139.55 -56.95 -165.3 -58.0 -171.75 -58.2 -195.0 -59.45 -219.6 -62.4 -244.7 -65.05 -251.1 -65.5 Q-263.5 -66.1 -275.7 -68.3 L-281.4 -69.25 -294.3 -71.35 -308.5 -73.65 -333.1 -76.85 -338.85 -77.65 -344.65 -78.65 -360.15 -80.75 -383.35 -83.3 -390.45 -83.9 -415.7 -86.25 -421.4 -86.85 -446.6 -88.15 -451.75 -88.3 -476.1 -89.95 -474.25 -90.95 -466.05 -94.55 Q-462.15 -96.25 -458.15 -97.25 L-453.1 -98.35 -445.25 -99.95 Q-436.75 -101.7 -427.9 -102.25 L-422.05 -102.45 -414.0 -102.6 -421.75 -104.0 -466.45 -111.75 Q-489.9 -115.8 -511.4 -125.45 -531.2 -134.3 -549.95 -143.7 -553.6 -145.5 -557.7 -146.25 -575.45 -149.35 -594.1 -147.85 L-602.25 -146.6 Q-639.15 -138.1 -677.2 -131.55 L-677.5 -131.55 -677.5 -153.95 -622.4 -159.15 -612.85 -159.1 -597.85 -159.95 -580.9 -161.7 Q-489.15 -165.75 -432.0 -153.5 L-405.1 -161.4 -395.9 -164.0 -389.45 -165.65 Q-374.45 -169.3 -360.7 -176.65 -351.25 -181.75 -339.85 -176.35 -332.45 -172.9 -324.35 -171.0 -294.4 -163.85 -263.5 -163.75 L-261.6 -163.75 Q-247.75 -149.2 -282.75 -153.0 -251.45 -139.35 -242.0 -140.55 L-216.0 -142.7 Q-200.05 -143.6 -175.95 -151.65 -170.15 -153.6 -164.45 -155.65 -159.0 -157.65 -153.65 -160.2 L-148.25 -162.7 -146.9 -163.3 -142.5 -165.2 Q-132.8 -169.25 -123.25 -172.05 L-117.5 -172.3 Q-98.65 -168.75 -78.85 -168.0 L-64.6 -167.1 Q-26.15 -163.6 12.5 -165.85 28.65 -166.8 44.9 -166.65 L53.5 -166.6 Q65.2 -166.65 76.9 -167.05 L64.8 -164.95 57.65 -163.8 56.85 -164.0 56.8 -163.7 Q37.7 -160.75 18.35 -160.8 -19.9 -130.0 -108.2 -116.0 L-102.05 -116.85 Q-89.65 -118.5 -77.55 -121.3 -66.55 -123.85 -55.55 -126.95 L-46.65 -129.45 Q-34.45 -132.8 -22.1 -135.55 -9.4 -138.45 3.1 -141.95 15.15 -145.35 27.6 -146.8 L34.7 -147.85 58.55 -150.95 82.4 -152.2 Q93.35 -152.4 104.35 -152.1 L112.75 -151.85 Q124.0 -151.4 135.3 -151.2 L146.95 -151.0 226.55 -149.8 218.5 -151.55 Q207.55 -153.9 196.75 -156.85 183.65 -160.4 171.1 -165.3 L171.65 -166.85 171.05 -165.3 167.3 -166.75 171.65 -166.85 Q182.05 -166.8 192.45 -167.05 L213.25 -167.85 219.3 -168.1 240.15 -169.05 255.7 -170.7 Q269.2 -163.65 232.2 -155.75 L243.7 -156.6 248.2 -157.0 253.3 -157.75 258.35 -158.35 262.95 -158.7 Q272.85 -158.95 282.8 -160.45 L294.9 -161.4 301.45 -161.8 316.2 -162.9 319.75 -163.3 Q323.6 -164.1 327.2 -165.55 L328.4 -166.2 Q332.55 -169.6 331.05 -174.45 330.15 -177.25 328.2 -178.95" fill="url(#gradient0)" fill-rule="evenodd" stroke="none"/>
    <path d="M675.8 -48.8 L675.8 165.65 223.9 165.0 222.75 154.75 Q222.4 151.45 222.45 148.1 222.6 142.1 220.55 136.75 L218.55 131.0 216.7 124.75 Q215.1 118.75 214.25 112.6 212.95 102.55 212.2 92.35 L212.1 91.1 Q211.55 83.8 209.65 76.7 L206.95 67.0 Q203.85 55.85 196.45 47.35 L194.35 44.8 192.1 42.15 Q189.6 39.5 187.7 36.45 184.4 31.05 181.65 25.6 179.15 20.8 177.1 16.2 175.15 11.5 172.6 7.65 169.3 2.65 164.25 -0.25 162.3 -1.3 160.5 -2.45 156.8 -4.85 154.55 -8.5 154.25 -9.1 154.3 -9.65 154.55 -11.4 156.2 -12.9 L157.05 -13.8 Q158.25 -15.15 156.8 -16.15 L153.85 -17.9 149.65 -19.7 136.55 -24.2 Q135.05 -24.7 134.85 -25.95 134.7 -26.55 135.0 -26.85 137.35 -29.3 139.0 -31.85 L139.2 -32.5 Q139.2 -34.15 138.4 -35.6 L136.9 -37.75 Q134.45 -40.6 132.3 -43.95 L130.9 -45.45 Q125.55 -49.6 119.65 -52.15 L116.25 -53.75 Q112.05 -55.7 107.8 -56.75 L103.5 -57.55 Q97.3 -58.2 91.5 -59.9 88.45 -60.8 85.65 -62.2 78.25 -65.95 71.05 -70.25 67.0 -72.55 62.75 -73.45 57.5 -74.65 51.9 -75.1 L49.6 -75.4 43.5 -76.85 Q38.1 -78.35 33.15 -80.9 35.9 -82.1 38.7 -83.0 L41.05 -83.65 51.45 -85.35 65.0 -86.25 68.85 -86.35 Q81.2 -86.9 93.3 -84.95 L116.7 -81.0 134.0 -77.25 139.25 -75.8 162.45 -69.1 Q174.8 -65.3 187.5 -62.4 L193.5 -60.9 Q204.95 -57.75 216.6 -55.05 L232.05 -52.1 Q244.55 -50.05 257.3 -50.3 L272.75 -50.5 277.35 -51.0 279.25 -51.5 283.05 -52.3 Q290.0 -53.0 296.6 -55.0 L305.0 -54.35 Q307.3 -54.0 309.3 -53.1 L321.15 -47.5 Q319.4 -45.2 320.8 -41.5 321.15 -40.5 321.9 -39.6 325.7 -35.35 331.35 -34.1 L334.8 -33.3 Q340.0 -32.0 345.6 -31.6 357.75 -30.85 370.15 -31.2 L390.2 -31.85 403.7 -32.35 427.6 -33.25 435.35 -33.7 Q447.65 -34.75 459.85 -36.9 L472.75 -38.55 477.25 -39.1 478.95 -38.65 Q484.45 -37.25 489.4 -34.65 L493.5 -32.7 Q495.65 -31.75 497.85 -30.95 503.65 -28.85 509.05 -25.65 510.85 -24.6 512.75 -24.1 524.95 -20.55 537.9 -21.45 L550.85 -23.05 Q557.9 -24.3 565.0 -23.35 L569.45 -22.4 574.15 -20.95 579.15 -19.25 579.35 -19.15 Q583.05 -17.85 586.3 -15.6 L579.8 -20.2 579.75 -20.2 Q573.35 -24.25 566.25 -27.05 L555.95 -31.0 Q547.45 -34.2 538.65 -36.5 526.9 -39.5 515.25 -41.75 503.0 -44.2 491.45 -49.2 479.7 -54.35 470.05 -62.6 467.85 -64.55 467.75 -67.2 467.5 -72.4 472.05 -75.6 L474.5 -77.7 478.6 -81.35 Q479.75 -82.2 479.55 -83.3 479.15 -85.7 477.25 -87.25 L477.45 -88.1 483.7 -86.8 488.85 -85.6 Q491.1 -84.95 493.3 -83.9 501.75 -79.85 509.55 -74.25 L520.05 -66.8 523.65 -64.5 Q526.15 -63.0 528.9 -62.35 539.8 -59.85 550.8 -58.0 L556.6 -57.0 Q569.7 -54.55 583.05 -53.8 L619.9 -51.45 Q624.4 -51.1 628.9 -51.25 L647.7 -50.4 657.25 -49.65 675.8 -48.8" fill="url(#gradient1)" fill-rule="evenodd" stroke="none"/>
    <path d="M-677.5 -153.95 L-677.5 -160.65 -637.1 -159.5 Q-629.8 -159.25 -622.4 -159.15 L-677.5 -153.95 M-580.9 -161.7 L-555.15 -163.9 -543.6 -164.3 Q-523.35 -164.3 -503.15 -164.75 L-481.2 -165.2 Q-460.4 -165.65 -439.7 -164.65 -430.45 -164.3 -421.2 -164.3 L-395.9 -164.0 -405.1 -161.4 -432.0 -153.5 Q-489.15 -165.75 -580.9 -161.7 M-261.6 -163.75 L-247.25 -163.3 -205.25 -161.55 -170.15 -161.8 -163.7 -161.8 -153.95 -162.25 -148.45 -163.1 -146.9 -163.3 -148.25 -162.7 -153.65 -160.2 Q-159.0 -157.65 -164.45 -155.65 -170.15 -153.6 -175.95 -151.65 -200.05 -143.6 -216.0 -142.7 L-242.0 -140.55 Q-251.45 -139.35 -282.75 -153.0 -247.75 -149.2 -261.6 -163.75 M76.9 -167.05 L90.45 -169.55 101.85 -171.45 138.8 -176.85 Q143.85 -177.55 148.4 -175.3 153.25 -172.95 158.2 -170.7 162.7 -168.65 167.3 -166.75 L171.05 -165.3 171.1 -165.3 Q183.65 -160.4 196.75 -156.85 207.55 -153.9 218.5 -151.55 L226.55 -149.8 146.95 -151.0 135.3 -151.2 Q124.0 -151.4 112.75 -151.85 L104.35 -152.1 Q93.35 -152.4 82.4 -152.2 L58.55 -150.95 34.7 -147.85 27.6 -146.8 Q15.15 -145.35 3.1 -141.95 -9.4 -138.45 -22.1 -135.55 -34.45 -132.8 -46.65 -129.45 L-55.55 -126.95 Q-66.55 -123.85 -77.55 -121.3 -89.65 -118.5 -102.05 -116.85 L-108.2 -116.0 Q-19.9 -130.0 18.35 -160.8 37.7 -160.75 56.8 -163.7 L57.65 -163.8 64.8 -164.95 76.9 -167.05" fill="#856625" fill-rule="evenodd" stroke="none"/>
    <path d="M223.9 165.0 L-677.5 163.75 -677.5 -131.5 -677.2 -131.55 Q-639.15 -138.1 -602.25 -146.6 L-594.1 -147.85 Q-575.45 -149.35 -557.7 -146.25 -553.6 -145.5 -549.95 -143.7 -531.2 -134.3 -511.4 -125.45 -489.9 -115.8 -466.45 -111.75 L-421.75 -104.0 -414.0 -102.6 -422.05 -102.45 -427.9 -102.25 Q-436.75 -101.7 -445.25 -99.95 L-453.1 -98.35 -458.15 -97.25 Q-462.15 -96.25 -466.05 -94.55 L-474.25 -90.95 -476.1 -89.95 -451.75 -88.3 -446.6 -88.15 -421.4 -86.85 -415.7 -86.25 -390.45 -83.9 -383.35 -83.3 -360.15 -80.75 -344.65 -78.65 -338.85 -77.65 -333.1 -76.85 -308.5 -73.65 -294.3 -71.35 -281.4 -69.25 -275.7 -68.3 Q-263.5 -66.1 -251.1 -65.5 L-244.7 -65.05 -219.6 -62.4 -195.0 -59.45 -171.75 -58.2 -165.3 -58.0 -139.55 -56.95 -133.0 -57.2 Q-120.8 -58.35 -108.5 -57.0 L-100.15 -56.55 -87.85 -57.15 -80.1 -58.15 -65.9 -59.25 Q-61.85 -59.3 -58.35 -60.75 -54.6 -58.3 -49.8 -58.2 -49.5 -58.2 -49.15 -57.55 -47.75 -54.25 -49.75 -51.05 L-50.5 -49.8 Q-46.3 -48.3 -41.55 -47.6 -38.6 -47.15 -36.15 -45.45 L-34.05 -43.7 -32.25 -41.5 Q-29.7 -37.3 -32.0 -32.85 L-33.2 -29.9 Q-35.05 -23.7 -35.75 -17.45 -35.95 -15.9 -35.55 -14.3 -34.5 -10.3 -30.35 -8.8 -18.8 -4.55 -6.6 -3.8 L-2.1 -3.9 Q5.2 -4.9 12.7 -4.1 14.05 -4.0 15.2 -3.15 18.6 -0.65 16.25 2.85 L14.0 4.9 Q12.15 6.0 10.25 7.05 5.15 9.8 3.1 14.7 3.45 15.85 5.7 15.6 17.7 14.1 29.55 10.5 34.35 9.1 39.15 8.05 L45.65 6.35 Q55.65 3.45 65.65 5.15 L68.2 5.75 Q71.55 6.7 70.25 8.95 66.7 14.95 59.95 16.85 53.1 18.8 48.1 22.95 L46.9 23.75 48.15 23.7 Q58.35 23.45 68.3 20.8 L72.7 19.7 88.25 16.0 Q105.8 12.1 123.75 12.1 L128.2 12.3 Q132.5 12.7 136.65 14.7 146.75 19.55 147.45 30.8 147.6 32.8 148.15 34.8 148.9 37.85 152.05 39.2 166.85 45.4 181.0 53.0 188.0 56.75 194.15 61.75 202.3 68.3 206.45 77.9 L208.15 81.85 Q210.15 86.45 211.8 91.2 L212.2 92.35 Q212.95 102.55 214.25 112.6 215.1 118.75 216.7 124.75 L218.55 131.0 220.55 136.75 Q222.6 142.1 222.45 148.1 222.4 151.45 222.75 154.75 L223.9 165.0" fill="url(#gradient2)" fill-rule="evenodd" stroke="none"/>
    <path d="M255.7 -170.7 L259.4 -171.2 265.0 -171.7 277.15 -172.95 289.3 -174.85 Q298.3 -176.2 307.05 -178.3 316.05 -180.45 325.3 -180.0 L325.85 -180.45 328.2 -178.95 Q330.15 -177.25 331.05 -174.45 332.55 -169.6 328.4 -166.2 L327.2 -165.55 Q323.6 -164.1 319.75 -163.3 L316.2 -162.9 301.45 -161.8 294.9 -161.4 282.8 -160.45 Q272.85 -158.95 262.95 -158.7 L258.35 -158.35 253.3 -157.75 248.2 -157.0 243.7 -156.6 232.2 -155.75 Q269.2 -163.65 255.7 -170.7" fill="#826324" fill-rule="evenodd" stroke="none"/>
    <path d="M171.1 -165.3 L171.05 -165.3 171.65 -166.85 171.1 -165.3" fill="url(#gradient3)" fill-rule="evenodd" stroke="none"/>
    <path d="M296.6 -55.0 Q299.9 -56.0 303.15 -57.35 306.3 -58.6 309.55 -59.5 L316.1 -61.75 321.05 -63.45 326.35 -65.15 Q338.4 -69.2 350.3 -73.9 L357.2 -76.45 Q368.8 -80.55 380.5 -84.05 392.2 -87.55 404.4 -88.05 L408.85 -88.3 419.25 -88.75 421.8 -88.85 Q425.25 -88.85 428.05 -90.75 430.2 -92.15 429.15 -94.8 428.55 -96.25 427.4 -97.35 L425.8 -98.95 425.0 -100.15 Q425.05 -101.35 427.0 -101.05 L430.75 -100.45 Q445.45 -98.05 459.85 -93.1 468.55 -90.15 477.45 -88.1 L477.25 -87.25 Q479.15 -85.7 479.55 -83.3 479.75 -82.2 478.6 -81.35 L474.5 -77.7 472.05 -75.6 Q467.5 -72.4 467.75 -67.2 467.85 -64.55 470.05 -62.6 479.7 -54.35 491.45 -49.2 503.0 -44.2 515.25 -41.75 526.9 -39.5 538.65 -36.5 547.45 -34.2 555.95 -31.0 L566.25 -27.05 Q573.35 -24.25 579.75 -20.2 L579.8 -20.2 586.3 -15.6 Q583.05 -17.85 579.35 -19.15 L579.15 -19.25 574.15 -20.95 569.45 -22.4 565.0 -23.35 Q557.9 -24.3 550.85 -23.05 L537.9 -21.45 Q524.95 -20.55 512.75 -24.1 510.85 -24.6 509.05 -25.65 503.65 -28.85 497.85 -30.95 495.65 -31.75 493.5 -32.7 L489.4 -34.65 Q484.45 -37.25 478.95 -38.65 L478.85 -39.35 477.25 -39.1 472.75 -38.55 459.85 -36.9 Q447.65 -34.75 435.35 -33.7 L427.6 -33.25 403.7 -32.35 390.2 -31.85 370.15 -31.2 Q357.75 -30.85 345.6 -31.6 340.0 -32.0 334.8 -33.3 L331.35 -34.1 Q325.7 -35.35 321.9 -39.6 321.15 -40.5 320.8 -41.5 319.4 -45.2 321.15 -47.5 L309.3 -53.1 Q307.3 -54.0 305.0 -54.35 L296.6 -55.0" fill="url(#gradient4)" fill-rule="evenodd" stroke="none"/>
  </g>
  <defs>
    <linearGradient gradientTransform="matrix(0.826, 0.0, 0.0, 0.1658, -0.85, -44.6)" gradientUnits="userSpaceOnUse" id="gradient0" spreadMethod="pad" x1="-819.2" x2="819.2">
      <stop offset="0.0" stop-color="#d28844"/>
      <stop offset="1.0" stop-color="#77601a"/>
    </linearGradient>
    <linearGradient gradientTransform="matrix(0.3922, 0.0, 0.0, 0.1549, 354.5, 38.7)" gradientUnits="userSpaceOnUse" id="gradient1" spreadMethod="pad" x1="-819.2" x2="819.2">
      <stop offset="0.0" stop-color="#d28844"/>
      <stop offset="1.0" stop-color="#d6b041"/>
    </linearGradient>
    <linearGradient gradientTransform="matrix(0.5502, 0.0, 0.0, 0.1913, -226.8, 8.3)" gradientUnits="userSpaceOnUse" id="gradient2" spreadMethod="pad" x1="-819.2" x2="819.2">
      <stop offset="0.0" stop-color="#d28844"/>
      <stop offset="1.0" stop-color="#d6b041"/>
    </linearGradient>
    <linearGradient gradientTransform="matrix(0.826, 0.0, 0.0, 0.1658, -0.85, -44.6)" gradientUnits="userSpaceOnUse" id="gradient3" spreadMethod="pad" x1="-819.2" x2="819.2">
      <stop offset="0.0" stop-color="#d28844"/>
      <stop offset="1.0" stop-color="#c09b29"/>
    </linearGradient>
    <linearGradient gradientTransform="matrix(0.1729, 0.0, 0.0, 0.05, 438.15, -60.2)" gradientUnits="userSpaceOnUse" id="gradient4" spreadMethod="pad" x1="-819.2" x2="819.2">
      <stop offset="0.0" stop-color="#d28844"/>
      <stop offset="1.0" stop-color="#77601a"/>
    </linearGradient>
  </defs>
</svg>
