<?xml version="1.0" encoding="UTF-8" standalone="no"?>
<svg xmlns:xlink="http://www.w3.org/1999/xlink" height="888.65px" width="1150.3px" xmlns="http://www.w3.org/2000/svg">
  <g transform="matrix(1.0, 0.0, 0.0, 1.0, 562.15, 444.05)">
    <path d="M-264.1 444.1 L-271.45 436.7 Q-284.65 423.15 -296.95 408.75 -324.5 376.6 -346.7 340.6 -363.95 312.7 -377.3 282.8 -384.25 267.3 -390.15 251.55 -402.6 218.35 -410.65 183.75 -423.0 130.6 -426.45 76.25 -430.3 15.6 -420.3 -44.3 -408.9 -112.65 -376.65 -174.0 -355.75 -213.75 -326.95 -248.55 -292.6 -290.25 -248.15 -321.4 -205.9 -351.3 -159.45 -374.15 -131.45 -387.9 -100.95 -395.5 -70.8 -403.4 -39.95 -407.25 L-39.8 -407.25 -36.95 -407.6 -34.75 -407.85 Q-5.85 -411.0 23.3 -410.15 L23.4 -410.05 Q151.1 -406.95 245.8 -329.15 L252.45 -323.7 252.85 -323.35 272.4 -306.45 Q293.05 -287.7 310.05 -265.5 321.1 -251.1 330.6 -235.7 341.3 -218.45 350.1 -199.95 365.3 -168.0 374.75 -133.9 378.75 -119.45 381.1 -104.4 387.5 -62.7 384.25 -20.45 382.45 3.55 377.3 27.0 372.85 47.2 365.2 66.5 353.65 95.3 337.15 122.1 321.75 147.2 302.0 169.15 276.5 197.4 244.5 218.15 205.05 244.3 159.45 256.5 98.55 272.75 35.8 262.9 9.4 258.7 -14.8 247.35 L-16.4 247.55 Q-33.75 240.35 -49.9 230.75 -75.3 215.65 -97.05 195.95 -106.45 187.45 -114.85 177.9 -125.1 166.2 -133.85 153.4 -146.7 134.6 -155.25 113.55 L-157.55 107.65 Q-164.35 89.2 -169.3 70.15 -179.85 29.75 -174.55 -11.55 -169.85 -48.0 -153.5 -80.95 -145.05 -98.0 -133.75 -113.15 -70.6 -181.8 13.55 -189.2 93.35 -190.4 137.05 -142.5 162.35 -115.2 171.5 -88.95 L167.8 -87.4 Q150.4 -114.95 129.15 -134.7 115.65 -147.15 99.2 -154.9 79.75 -164.2 58.75 -168.85 37.85 -173.5 16.5 -172.0 9.0 -171.6 1.7 -170.3 -42.45 -162.65 -77.95 -135.45 -104.4 -115.1 -121.8 -86.55 -140.2 -56.4 -146.6 -21.85 -153.35 14.3 -147.05 50.6 -142.55 76.3 -132.4 100.1 -128.2 109.95 -123.0 119.45 -108.55 145.85 -87.4 167.15 -59.3 195.35 -23.4 214.0 L-21.65 213.85 Q-6.1 221.55 10.75 226.7 33.75 233.75 57.75 236.35 L79.85 237.65 109.95 236.35 Q148.7 232.3 184.45 216.65 206.8 206.65 227.2 193.2 253.9 175.7 275.85 152.3 292.5 134.7 305.75 114.6 315.8 99.35 323.75 82.9 335.7 58.0 342.55 31.3 349.2 5.0 351.7 -22.1 355.85 -68.9 345.0 -114.8 334.7 -158.35 312.7 -197.3 294.5 -229.5 270.15 -257.1 258.35 -270.4 245.4 -282.4 L219.7 -302.85 Q213.9 -307.8 208.9 -311.1 L205.6 -313.35 Q190.3 -323.4 174.05 -331.85 L170.05 -333.85 Q164.05 -336.9 157.9 -339.7 L157.95 -339.7 Q151.0 -342.1 145.6 -344.4 93.6 -368.4 15.3 -370.55 L0.8 -370.5 0.45 -370.5 Q-15.3 -370.0 -30.95 -368.0 -49.5 -365.6 -67.7 -361.65 -90.45 -356.55 -112.4 -348.65 -169.15 -328.45 -217.8 -292.75 -255.15 -265.05 -282.95 -228.4 -309.85 -193.2 -329.1 -153.1 -347.1 -115.5 -359.25 -75.7 -368.45 -45.5 -373.1 -14.25 -379.0 25.85 -376.6 66.45 -374.55 101.55 -366.15 135.7 -355.35 179.55 -336.85 220.25 -325.3 245.7 -310.7 269.95 -271.6 335.0 -217.2 387.85 -189.25 414.95 -157.15 436.7 -151.6 440.5 -145.9 444.1 L-264.1 444.1" fill="#00ccff" fill-rule="evenodd" stroke="none"/>
    <path d="M-145.9 444.1 Q-151.6 440.5 -157.15 436.7 -189.25 414.95 -217.2 387.85 -271.6 335.0 -310.7 269.95 -325.3 245.7 -336.85 220.25 -355.35 179.55 -366.15 135.7 -374.55 101.55 -376.6 66.45 -379.0 25.85 -373.1 -14.25 -368.45 -45.5 -359.25 -75.7 -347.1 -115.5 -329.1 -153.1 -309.85 -193.2 -282.95 -228.4 -255.15 -265.05 -217.8 -292.75 -169.15 -328.45 -112.4 -348.65 -90.45 -356.55 -67.7 -361.65 -49.5 -365.6 -30.95 -368.0 -15.3 -370.0 0.45 -370.5 L0.8 -370.5 15.3 -370.55 Q93.6 -368.4 145.6 -344.4 151.0 -342.1 157.95 -339.7 L157.9 -339.7 Q164.05 -336.9 170.05 -333.85 L174.05 -331.85 Q190.3 -323.4 205.6 -313.35 L208.9 -311.1 Q213.9 -307.8 219.7 -302.85 L245.4 -282.4 Q258.35 -270.4 270.15 -257.1 294.5 -229.5 312.7 -197.3 334.7 -158.35 345.0 -114.8 355.85 -68.9 351.7 -22.1 349.2 5.0 342.55 31.3 335.7 58.0 323.75 82.9 315.8 99.35 305.75 114.6 292.5 134.7 275.85 152.3 253.9 175.7 227.2 193.2 206.8 206.65 184.45 216.65 148.7 232.3 109.95 236.35 L79.85 237.65 57.75 236.35 Q33.75 233.75 10.75 226.7 -6.1 221.55 -21.65 213.85 L-23.4 214.0 Q-59.3 195.35 -87.4 167.15 -108.55 145.85 -123.0 119.45 -128.2 109.95 -132.4 100.1 -142.55 76.3 -147.05 50.6 -153.35 14.3 -146.6 -21.85 -140.2 -56.4 -121.8 -86.55 -104.4 -115.1 -77.95 -135.45 -42.45 -162.65 1.7 -170.3 9.0 -171.6 16.5 -172.0 37.85 -173.5 58.75 -168.85 79.75 -164.2 99.2 -154.9 115.65 -147.15 129.15 -134.7 150.4 -114.95 167.8 -87.4 L171.5 -88.95 Q162.35 -115.2 137.05 -142.5 93.35 -190.4 13.55 -189.2 -70.6 -181.8 -133.75 -113.15 -145.05 -98.0 -153.5 -80.95 -169.85 -48.0 -174.55 -11.55 -179.85 29.75 -169.3 70.15 -164.35 89.2 -157.55 107.65 L-155.25 113.55 Q-146.7 134.6 -133.85 153.4 -125.1 166.2 -114.85 177.9 -106.45 187.45 -97.05 195.95 -75.3 215.65 -49.9 230.75 -33.75 240.35 -16.4 247.55 L-14.8 247.35 Q9.4 258.7 35.8 262.9 98.55 272.75 159.45 256.5 205.05 244.3 244.5 218.15 276.5 197.4 302.0 169.15 321.75 147.2 337.15 122.1 353.65 95.3 365.2 66.5 372.85 47.2 377.3 27.0 382.45 3.55 384.25 -20.45 387.5 -62.7 381.1 -104.4 378.75 -119.45 374.75 -133.9 365.3 -168.0 350.1 -199.95 341.3 -218.45 330.6 -235.7 321.1 -251.1 310.05 -265.5 293.05 -287.7 272.4 -306.45 L252.85 -323.35 252.45 -323.7 245.8 -329.15 Q151.1 -406.95 23.4 -410.05 L23.3 -410.15 Q-5.85 -411.0 -34.75 -407.85 L-36.95 -407.6 -39.8 -407.25 -39.95 -407.25 Q-70.8 -403.4 -100.95 -395.5 -131.45 -387.9 -159.45 -374.15 -205.9 -351.3 -248.15 -321.4 -292.6 -290.25 -326.95 -248.55 -355.75 -213.75 -376.65 -174.0 -408.9 -112.65 -420.3 -44.3 -430.3 15.6 -426.45 76.25 -423.0 130.6 -410.65 183.75 -402.6 218.35 -390.15 251.55 -384.25 267.3 -377.3 282.8 -363.95 312.7 -346.7 340.6 -324.5 376.6 -296.95 408.75 -284.65 423.15 -271.45 436.7 L-264.1 444.1 -562.15 444.1 -562.15 -444.05 588.15 -444.05 588.15 444.1 -145.9 444.1" fill="url(#gradient0)" fill-rule="evenodd" stroke="none"/>
    <path d="M-264.1 444.1 L-271.45 436.7 Q-284.65 423.15 -296.95 408.75 -324.5 376.6 -346.7 340.6 -363.95 312.7 -377.3 282.8 -384.25 267.3 -390.15 251.55 -402.6 218.35 -410.65 183.75 -423.0 130.6 -426.45 76.25 -430.3 15.6 -420.3 -44.3 -408.9 -112.65 -376.65 -174.0 -355.75 -213.75 -326.95 -248.55 -292.6 -290.25 -248.15 -321.4 -205.9 -351.3 -159.45 -374.15 -131.45 -387.9 -100.95 -395.5 -70.8 -403.4 -39.95 -407.25 L-39.8 -407.25 -36.95 -407.6 -34.75 -407.85 Q-5.85 -411.0 23.3 -410.15 L23.4 -410.05 Q151.1 -406.95 245.8 -329.15 L252.45 -323.7 252.85 -323.35 272.4 -306.45 Q293.05 -287.7 310.05 -265.5 321.1 -251.1 330.6 -235.7 341.3 -218.45 350.1 -199.95 365.3 -168.0 374.75 -133.9 378.75 -119.45 381.1 -104.4 387.5 -62.7 384.25 -20.45 382.45 3.55 377.3 27.0 372.85 47.2 365.2 66.5 353.65 95.3 337.15 122.1 321.75 147.2 302.0 169.15 276.5 197.4 244.5 218.15 205.05 244.3 159.45 256.5 98.55 272.75 35.8 262.9 9.4 258.7 -14.8 247.35 L-16.4 247.55 Q-33.75 240.35 -49.9 230.75 -75.3 215.65 -97.05 195.95 -106.45 187.45 -114.85 177.9 -125.1 166.2 -133.85 153.4 -146.7 134.6 -155.25 113.55 L-157.55 107.65 Q-164.35 89.2 -169.3 70.15 -179.85 29.75 -174.55 -11.55 -169.85 -48.0 -153.5 -80.95 -145.05 -98.0 -133.75 -113.15 -70.6 -181.8 13.55 -189.2 93.35 -190.4 137.05 -142.5 162.35 -115.2 171.5 -88.95 L167.8 -87.4 Q150.4 -114.95 129.15 -134.7 115.65 -147.15 99.2 -154.9 79.75 -164.2 58.75 -168.85 37.85 -173.5 16.5 -172.0 9.0 -171.6 1.7 -170.3 -42.45 -162.65 -77.95 -135.45 -104.4 -115.1 -121.8 -86.55 -140.2 -56.4 -146.6 -21.85 -153.35 14.3 -147.05 50.6 -142.55 76.3 -132.4 100.1 -128.2 109.95 -123.0 119.45 -108.55 145.85 -87.4 167.15 -59.3 195.35 -23.4 214.0 L-21.65 213.85 Q-6.1 221.55 10.75 226.7 33.75 233.75 57.75 236.35 L79.85 237.65 109.95 236.35 Q148.7 232.3 184.45 216.65 206.8 206.65 227.2 193.2 253.9 175.7 275.85 152.3 292.5 134.7 305.75 114.6 315.8 99.35 323.75 82.9 335.7 58.0 342.55 31.3 349.2 5.0 351.7 -22.1 355.85 -68.9 345.0 -114.8 334.7 -158.35 312.7 -197.3 294.5 -229.5 270.15 -257.1 258.35 -270.4 245.4 -282.4 L219.7 -302.85 Q213.9 -307.8 208.9 -311.1 L205.6 -313.35 Q190.3 -323.4 174.05 -331.85 L170.05 -333.85 Q164.05 -336.9 157.9 -339.7 L157.95 -339.7 Q151.0 -342.1 145.6 -344.4 93.6 -368.4 15.3 -370.55 L0.8 -370.5 0.45 -370.5 Q-15.3 -370.0 -30.95 -368.0 -49.5 -365.6 -67.7 -361.65 -90.45 -356.55 -112.4 -348.65 -169.15 -328.45 -217.8 -292.75 -255.15 -265.05 -282.95 -228.4 -309.85 -193.2 -329.1 -153.1 -347.1 -115.5 -359.25 -75.7 -368.45 -45.5 -373.1 -14.25 -379.0 25.85 -376.6 66.45 -374.55 101.55 -366.15 135.7 -355.35 179.55 -336.85 220.25 -325.3 245.7 -310.7 269.95 -271.6 335.0 -217.2 387.85 -189.25 414.95 -157.15 436.7 -151.6 440.5 -145.9 444.1" fill="none" stroke="#0066ff" stroke-linecap="round" stroke-linejoin="round" stroke-width="1.0"/>
  </g>
  <defs>
    <linearGradient gradientTransform="matrix(0.3016, 0.355, -0.7474, 0.635, -134.05, -53.25)" gradientUnits="userSpaceOnUse" id="gradient0" spreadMethod="pad" x1="-819.2" x2="819.2">
      <stop offset="0.0" stop-color="#ffffff"/>
      <stop offset="0.42745098039215684" stop-color="#99ffff"/>
      <stop offset="1.0" stop-color="#ccffff"/>
    </linearGradient>
  </defs>
</svg>
