<?xml version="1.0" encoding="UTF-8" standalone="no"?>
<svg xmlns:xlink="http://www.w3.org/1999/xlink" height="20.55px" width="25.65px" xmlns="http://www.w3.org/2000/svg">
  <g transform="matrix(1.0, 0.0, 0.0, 1.0, 13.05, 53.95)">
    <path d="M-12.25 -37.45 Q-12.05 -38.4 -12.5 -39.2 L-12.9 -39.7 Q-13.15 -40.15 -12.9 -40.4 L-12.1 -41.2 Q-10.9 -42.6 -10.55 -45.05 -10.1 -47.75 -8.8 -49.5 L-8.7 -49.8 -8.45 -50.4 -7.95 -50.7 -7.65 -50.8 Q-6.5 -51.85 -5.0 -52.4 L-4.8 -52.45 -4.75 -52.45 -4.6 -52.6 -4.55 -52.6 -4.4 -52.8 -3.75 -53.0 -3.6 -53.0 -3.4 -52.95 -3.1 -52.95 -2.5 -53.05 -2.45 -53.05 Q-1.4 -53.3 -0.6 -53.75 L0.25 -53.85 Q0.85 -53.35 1.5 -53.25 L2.2 -53.15 2.25 -53.1 2.55 -53.15 2.9 -53.3 3.4 -53.05 3.5 -52.95 3.9 -52.7 4.6 -52.4 7.45 -50.6 7.5 -50.6 Q7.55 -50.5 7.7 -50.45 L7.75 -50.45 8.2 -50.25 8.4 -49.75 8.5 -49.4 8.6 -49.3 Q9.65 -47.7 9.85 -45.6 10.25 -42.55 11.75 -40.95 L12.35 -40.35 Q12.75 -39.95 12.45 -39.35 L12.2 -38.95 Q11.8 -38.3 11.95 -37.5 L12.1 -36.15 12.15 -33.4 -12.7 -33.4 Q-12.85 -35.45 -12.3 -37.2 L-11.7 -37.35 -12.25 -37.45 M-11.7 -37.35 L-11.6 -37.0 Q-11.5 -36.85 -11.4 -36.85 L-11.2 -36.95 -11.0 -37.35 -11.15 -37.7 -11.35 -37.85 -11.6 -37.7 -11.7 -37.35 M10.25 -40.7 L10.0 -40.6 9.9 -40.35 10.0 -40.1 10.3 -39.9 10.45 -40.05 10.5 -40.35 10.45 -40.6 10.25 -40.7 M4.15 -44.8 L3.95 -45.5 3.5 -45.7 Q3.25 -45.7 3.1 -45.45 L2.9 -44.8 3.1 -44.15 Q3.25 -43.9 3.55 -43.9 3.8 -43.9 3.95 -44.15 L4.15 -44.8 M6.6 -44.25 Q6.3 -44.25 6.2 -44.05 L6.1 -43.6 6.2 -43.2 Q6.3 -43.0 6.6 -43.0 L7.0 -43.2 7.2 -43.6 7.0 -44.05 6.6 -44.25 M11.15 -37.6 Q11.0 -37.6 11.0 -37.5 L10.95 -37.2 11.05 -36.85 11.25 -36.7 11.45 -36.85 11.6 -37.2 11.45 -37.5 11.15 -37.6 M4.8 -40.1 Q3.25 -39.4 2.55 -37.35 2.0 -35.75 3.35 -34.9 L8.2 -34.6 Q9.75 -35.5 9.65 -36.8 9.5 -38.9 7.85 -40.1 6.3 -40.9 4.8 -40.1 M-9.5 -41.6 Q-9.4 -41.45 -9.2 -41.45 L-8.9 -41.55 -8.8 -41.95 -8.9 -42.3 -9.2 -42.45 -9.5 -42.3 -9.65 -41.95 -9.5 -41.6 M-6.25 -44.25 L-6.65 -44.45 -7.05 -44.25 -7.25 -43.8 -7.1 -43.3 Q-7.0 -43.05 -6.7 -43.1 L-6.35 -43.4 -6.15 -43.85 -6.25 -44.25 M-4.0 -44.65 L-3.85 -44.0 -3.4 -43.75 Q-3.15 -43.75 -2.95 -44.0 -2.8 -44.25 -2.8 -44.65 L-3.0 -45.3 Q-3.2 -45.6 -3.45 -45.55 L-3.85 -45.3 -4.0 -44.65 M8.05 -42.25 Q8.05 -42.05 8.2 -41.9 L8.55 -41.75 8.8 -41.9 8.9 -42.25 8.8 -42.65 8.55 -42.75 8.2 -42.6 8.05 -42.25 M-5.4 -40.1 L-6.5 -40.5 Q-7.5 -40.65 -8.45 -40.1 -10.0 -39.0 -10.25 -37.15 L-10.25 -36.8 Q-10.4 -35.5 -8.8 -34.6 L-7.95 -34.5 Q-5.65 -34.25 -4.0 -34.9 -2.65 -35.75 -3.15 -37.35 -3.9 -39.45 -5.4 -40.1 M-11.0 -39.85 L-10.95 -39.55 -10.75 -39.35 -10.5 -39.6 -10.4 -39.85 -10.5 -40.1 Q-10.55 -40.25 -10.7 -40.2 L-10.9 -40.1 -11.0 -39.85" fill="url(#gradient0)" fill-rule="evenodd" stroke="none"/>
    <path d="M-11.7 -37.35 L-11.6 -37.7 -11.35 -37.85 -11.15 -37.7 -11.0 -37.35 -11.2 -36.95 -11.4 -36.85 Q-11.5 -36.85 -11.6 -37.0 L-11.7 -37.35 M10.25 -40.7 L10.45 -40.6 10.5 -40.35 10.45 -40.05 10.3 -39.9 10.0 -40.1 9.9 -40.35 10.0 -40.6 10.25 -40.7 M11.15 -37.6 L11.45 -37.5 11.6 -37.2 11.45 -36.85 11.25 -36.7 11.05 -36.85 10.95 -37.2 11.0 -37.5 Q11.0 -37.6 11.15 -37.6 M6.6 -44.25 L7.0 -44.05 7.2 -43.6 7.0 -43.2 6.6 -43.0 Q6.3 -43.0 6.2 -43.2 L6.1 -43.6 6.2 -44.05 Q6.3 -44.25 6.6 -44.25 M4.15 -44.8 L3.95 -44.15 Q3.8 -43.9 3.55 -43.9 3.25 -43.9 3.1 -44.15 L2.9 -44.8 3.1 -45.45 Q3.25 -45.7 3.5 -45.7 L3.95 -45.5 4.15 -44.8 M8.05 -42.25 L8.2 -42.6 8.55 -42.75 8.8 -42.65 8.9 -42.25 8.8 -41.9 8.55 -41.75 8.2 -41.9 Q8.05 -42.05 8.05 -42.25 M-4.0 -44.65 L-3.85 -45.3 -3.45 -45.55 Q-3.2 -45.6 -3.0 -45.3 L-2.8 -44.65 Q-2.8 -44.25 -2.95 -44.0 -3.15 -43.75 -3.4 -43.75 L-3.85 -44.0 -4.0 -44.65 M-6.25 -44.25 L-6.15 -43.85 -6.35 -43.4 -6.7 -43.1 Q-7.0 -43.05 -7.1 -43.3 L-7.25 -43.8 -7.05 -44.25 -6.65 -44.45 -6.25 -44.25 M-9.5 -41.6 L-9.65 -41.95 -9.5 -42.3 -9.2 -42.45 -8.9 -42.3 -8.8 -41.95 -8.9 -41.55 -9.2 -41.45 Q-9.4 -41.45 -9.5 -41.6 M-11.0 -39.85 L-10.9 -40.1 -10.7 -40.2 Q-10.55 -40.25 -10.5 -40.1 L-10.4 -39.85 -10.5 -39.6 -10.75 -39.35 -10.95 -39.55 -11.0 -39.85" fill="#c1c100" fill-rule="evenodd" stroke="none"/>
    <path d="M4.8 -40.1 Q6.3 -40.9 7.85 -40.1 9.5 -38.9 9.65 -36.8 9.75 -35.5 8.2 -34.6 L3.35 -34.9 Q2.0 -35.75 2.55 -37.35 3.25 -39.4 4.8 -40.1 M-5.4 -40.1 Q-3.9 -39.45 -3.15 -37.35 -2.65 -35.75 -4.0 -34.9 -5.65 -34.25 -7.95 -34.5 L-8.8 -34.6 Q-10.4 -35.5 -10.25 -36.8 L-10.25 -37.15 Q-10.0 -39.0 -8.45 -40.1 -7.5 -40.65 -6.5 -40.5 L-5.4 -40.1" fill="#ffffff" fill-rule="evenodd" stroke="none"/>
    <path d="M-12.3 -37.2 L-12.25 -37.45 -11.7 -37.35 -12.3 -37.2" fill="#ffff00" fill-rule="evenodd" stroke="none"/>
    <path d="M-12.25 -37.45 Q-12.05 -38.4 -12.5 -39.2 L-12.9 -39.7 Q-13.15 -40.15 -12.9 -40.4 L-12.1 -41.2 Q-10.9 -42.6 -10.55 -45.05 -10.1 -47.75 -8.8 -49.5 L-8.7 -49.8 -8.45 -50.4 -7.95 -50.7 -7.65 -50.8 Q-6.5 -51.85 -5.0 -52.4 L-4.8 -52.45 -4.75 -52.45 -4.6 -52.6 -4.55 -52.6 -4.4 -52.8 -3.75 -53.0 -3.6 -53.0 -3.4 -52.95 -3.1 -52.95 -2.5 -53.05 -2.45 -53.05 Q-1.4 -53.3 -0.6 -53.75 L0.25 -53.85 Q0.85 -53.35 1.5 -53.25 L2.2 -53.15 2.25 -53.1 2.55 -53.15 2.9 -53.3 3.4 -53.05 3.5 -52.95 3.9 -52.7 4.6 -52.4 7.45 -50.6 7.5 -50.6 Q7.55 -50.5 7.7 -50.45 L7.75 -50.45 8.2 -50.25 8.4 -49.75 8.5 -49.4 8.6 -49.3 Q9.65 -47.7 9.85 -45.6 10.25 -42.55 11.75 -40.95 L12.35 -40.35 Q12.75 -39.95 12.45 -39.35 L12.2 -38.95 Q11.8 -38.3 11.95 -37.5 L12.1 -36.15 12.15 -33.4 M-12.7 -33.4 Q-12.85 -35.45 -12.3 -37.2 L-12.25 -37.45" fill="none" stroke="#c1c100" stroke-linecap="round" stroke-linejoin="round" stroke-width="0.05"/>
    <path d="M4.8 -40.1 Q6.3 -40.9 7.85 -40.1 9.5 -38.9 9.65 -36.8 9.75 -35.5 8.2 -34.6 L3.35 -34.9 Q2.0 -35.75 2.55 -37.35 3.25 -39.4 4.8 -40.1 M-5.4 -40.1 Q-3.9 -39.45 -3.15 -37.35 -2.65 -35.75 -4.0 -34.9 -5.65 -34.25 -7.95 -34.5 L-8.8 -34.6 Q-10.4 -35.5 -10.25 -36.8 L-10.25 -37.15 Q-10.0 -39.0 -8.45 -40.1 -7.5 -40.65 -6.5 -40.5 L-5.4 -40.1" fill="none" stroke="#c1c100" stroke-linecap="round" stroke-linejoin="round" stroke-width="0.05"/>
  </g>
  <defs>
    <radialGradient cx="0" cy="0" gradientTransform="matrix(0.026, 0.0, 0.0, 0.026, -0.05, -50.45)" gradientUnits="userSpaceOnUse" id="gradient0" r="819.2" spreadMethod="pad">
      <stop offset="0.0" stop-color="#ffcc33"/>
      <stop offset="0.5294117647058824" stop-color="#ffff00"/>
      <stop offset="1.0" stop-color="#ffff66"/>
    </radialGradient>
  </defs>
</svg>
