<?xml version="1.0" encoding="UTF-8" standalone="no"?>
<svg xmlns:xlink="http://www.w3.org/1999/xlink" height="44.7px" width="139.85px" xmlns="http://www.w3.org/2000/svg">
  <g transform="matrix(1.0, 0.0, 0.0, 1.0, 65.8, 20.35)">
    <path d="M67.5 -13.8 Q74.05 -7.25 74.05 2.0 74.05 11.25 67.5 17.8 60.95 24.35 51.75 24.35 42.5 24.35 35.95 17.8 29.4 11.25 29.4 2.0 29.4 -7.25 35.95 -13.8 42.5 -20.35 51.75 -20.35 60.95 -20.35 67.5 -13.8 M51.7 -13.6 Q45.2 -13.65 40.65 -9.05 36.05 -4.45 36.05 2.0 36.05 8.45 40.65 13.05 45.2 17.65 51.7 17.65 58.15 17.65 62.75 13.05 67.35 8.45 67.35 2.0 67.35 -4.45 62.75 -9.05 58.15 -13.65 51.7 -13.6 M-43.45 -20.35 Q-34.25 -20.35 -27.7 -13.8 -21.15 -7.25 -21.15 2.0 -21.15 11.25 -27.7 17.8 -34.25 24.35 -43.45 24.35 -52.7 24.35 -59.25 17.8 -65.8 11.25 -65.8 2.0 -65.8 -7.25 -59.25 -13.8 -52.7 -20.35 -43.45 -20.35 M-43.5 -13.65 Q-49.95 -13.65 -54.55 -9.05 -59.15 -4.5 -59.15 2.0 -59.15 8.45 -54.55 13.05 -49.95 17.65 -43.5 17.65 -37.05 17.65 -32.45 13.05 -27.85 8.45 -27.85 2.0 -27.85 -4.5 -32.45 -9.05 -37.05 -13.65 -43.5 -13.65" fill="#461e1e" fill-rule="evenodd" stroke="none"/>
    <path d="M51.7 -13.6 Q58.15 -13.65 62.75 -9.05 67.35 -4.45 67.35 2.0 67.35 8.45 62.75 13.05 58.15 17.65 51.7 17.65 45.2 17.65 40.65 13.05 36.05 8.45 36.05 2.0 36.05 -4.45 40.65 -9.05 45.2 -13.65 51.7 -13.6 M-43.5 -13.65 Q-37.05 -13.65 -32.45 -9.05 -27.85 -4.5 -27.85 2.0 -27.85 8.45 -32.45 13.05 -37.05 17.65 -43.5 17.65 -49.95 17.65 -54.55 13.05 -59.15 8.45 -59.15 2.0 -59.15 -4.5 -54.55 -9.05 -49.95 -13.65 -43.5 -13.65" fill="#000000" fill-rule="evenodd" stroke="none"/>
  </g>
</svg>
