<?xml version="1.0" encoding="UTF-8" standalone="no"?>
<svg xmlns:xlink="http://www.w3.org/1999/xlink" height="91.35px" width="90.35px" xmlns="http://www.w3.org/2000/svg">
  <g transform="matrix(1.0, 0.0, 0.0, 1.0, 45.45, 38.5)">
    <path d="M12.75 -37.55 L13.6 -35.4 15.2 -32.5 15.6 -31.8 Q19.2 -26.25 24.6 -27.1 L36.4 -30.35 38.15 -35.0 38.2 -35.1 38.2 -35.15 Q38.8 -36.6 39.65 -35.75 L40.35 -34.9 43.2 -36.05 Q45.4 -36.95 44.75 -34.8 L43.5 -31.25 44.45 -30.2 Q45.0 -29.25 43.4 -28.95 L40.0 -28.45 34.15 -18.3 Q31.25 -13.15 32.85 -9.05 L33.5 -7.75 Q35.8 -2.75 35.8 3.1 35.8 15.45 25.45 24.2 L21.55 27.1 19.35 28.4 18.75 28.7 Q15.6 35.0 14.9 46.1 17.85 48.3 20.8 52.75 15.0 51.55 10.1 48.25 7.5 38.35 3.55 32.85 L3.1 32.9 2.95 32.9 0.45 33.0 -1.6 32.95 -2.1 32.95 Q-6.05 38.35 -8.9 48.45 -12.35 51.1 -18.2 52.85 -16.4 49.15 -13.1 46.05 -14.1 35.55 -16.4 29.45 L-18.3 28.5 Q-21.65 26.65 -24.5 24.2 -34.85 15.45 -34.85 3.1 -34.85 -1.5 -33.45 -5.55 L-32.45 -8.05 Q-31.5 -11.75 -33.45 -16.1 L-38.5 -26.7 -43.4 -27.2 Q-45.75 -27.55 -44.35 -29.25 L-43.45 -30.45 -45.2 -34.15 Q-45.95 -35.75 -44.4 -35.35 L-40.35 -34.25 -39.45 -35.35 Q-38.7 -36.25 -38.1 -35.0 L-36.7 -31.75 -29.1 -27.45 Q-21.75 -23.8 -16.65 -29.85 -15.05 -32.75 -13.9 -35.6 L-13.7 -36.15 -13.25 -36.9 -12.15 -38.05 Q-12.3 -35.55 -8.7 -34.4 1.15 -32.4 8.75 -34.6 11.45 -35.6 11.85 -37.65 L12.75 -37.55" fill="url(#gradient0)" fill-rule="evenodd" stroke="none"/>
    <path d="M11.85 -37.65 L11.95 -38.5 Q12.4 -38.4 12.75 -37.55 L11.85 -37.65" fill="#ffff00" fill-rule="evenodd" stroke="none"/>
    <path d="M12.75 -37.55 L13.6 -35.4 15.2 -32.5 15.6 -31.8 Q19.2 -26.25 24.6 -27.1 L36.4 -30.35 38.15 -35.0 38.2 -35.1 38.2 -35.15 Q38.8 -36.6 39.65 -35.75 L40.35 -34.9 43.2 -36.05 Q45.4 -36.95 44.75 -34.8 L43.5 -31.25 44.45 -30.2 Q45.0 -29.25 43.4 -28.95 L40.0 -28.45 34.15 -18.3 Q31.25 -13.15 32.85 -9.05 L33.5 -7.75 Q35.8 -2.75 35.8 3.1 35.8 15.45 25.45 24.2 L21.55 27.1 19.35 28.4 18.75 28.7 Q15.6 35.0 14.9 46.1 17.85 48.3 20.8 52.75 15.0 51.55 10.1 48.25 7.5 38.35 3.55 32.85 L3.1 32.9 2.95 32.9 0.45 33.0 -1.6 32.95 -2.1 32.95 Q-6.05 38.35 -8.9 48.45 -12.35 51.1 -18.2 52.85 -16.4 49.15 -13.1 46.05 -14.1 35.55 -16.4 29.45 L-18.3 28.5 Q-21.65 26.65 -24.5 24.2 -34.85 15.45 -34.85 3.1 -34.85 -1.5 -33.45 -5.55 L-32.45 -8.05 Q-31.5 -11.75 -33.45 -16.1 L-38.5 -26.7 -43.4 -27.2 Q-45.75 -27.55 -44.35 -29.25 L-43.45 -30.45 -45.2 -34.15 Q-45.95 -35.75 -44.4 -35.35 L-40.35 -34.25 -39.45 -35.35 Q-38.7 -36.25 -38.1 -35.0 L-36.7 -31.75 -29.1 -27.45 Q-21.75 -23.8 -16.65 -29.85 -15.05 -32.75 -13.9 -35.6 L-13.7 -36.15 -13.25 -36.9 -12.15 -38.05 M11.85 -37.65 L11.95 -38.5 Q12.4 -38.4 12.75 -37.55 Z" fill="none" stroke="#c1c100" stroke-linecap="round" stroke-linejoin="round" stroke-width="0.05"/>
  </g>
  <defs>
    <radialGradient cx="0" cy="0" gradientTransform="matrix(0.1161, 0.0, 0.0, 0.1161, -11.2, 40.7)" gradientUnits="userSpaceOnUse" id="gradient0" r="819.2" spreadMethod="pad">
      <stop offset="0.0" stop-color="#ffffcc"/>
      <stop offset="0.796078431372549" stop-color="#ffff00"/>
      <stop offset="1.0" stop-color="#ffff99"/>
    </radialGradient>
  </defs>
</svg>
