<?xml version="1.0" encoding="UTF-8" standalone="no"?>
<svg xmlns:xlink="http://www.w3.org/1999/xlink" height="22.0px" width="25.65px" xmlns="http://www.w3.org/2000/svg">
  <g transform="matrix(1.0, 0.0, 0.0, 1.0, 12.9, 53.9)">
    <path d="M-12.05 -37.35 Q-11.85 -38.3 -12.3 -39.1 L-12.75 -39.65 Q-13.0 -40.05 -12.75 -40.35 L-11.9 -41.1 Q-10.75 -42.55 -10.35 -45.0 -9.9 -47.7 -8.6 -49.45 L-8.5 -49.7 -8.25 -50.3 -7.75 -50.6 -7.45 -50.7 -4.8 -52.3 -4.6 -52.35 -4.4 -52.5 -4.35 -52.5 -4.2 -52.7 -3.55 -52.9 -3.4 -52.9 -3.2 -52.85 -2.9 -52.85 -2.35 -52.95 -2.25 -53.0 Q-1.2 -53.2 -0.4 -53.7 L0.45 -53.75 Q1.05 -53.3 1.7 -53.15 L2.35 -53.05 2.45 -53.0 2.75 -53.1 3.1 -53.2 3.55 -53.0 3.65 -52.85 4.05 -52.6 4.8 -52.3 7.65 -50.5 7.9 -50.35 8.35 -50.15 8.6 -49.65 Q8.55 -49.5 8.65 -49.35 L8.75 -49.2 Q9.85 -47.65 10.05 -45.5 10.45 -42.45 11.95 -40.85 L12.55 -40.3 Q12.95 -39.85 12.6 -39.25 L12.35 -38.85 Q12.0 -38.2 12.15 -37.4 L12.3 -36.05 12.3 -33.3 Q-0.35 -30.5 -11.7 -33.3 L-12.5 -33.3 Q-12.65 -35.35 -12.1 -37.1 L-11.5 -37.25 -12.05 -37.35 M-11.5 -37.25 L-11.4 -36.9 -11.25 -36.75 -11.0 -36.85 -10.85 -37.25 -10.95 -37.65 -11.2 -37.8 -11.4 -37.65 -11.5 -37.25 M10.15 -40.55 L10.1 -40.3 10.2 -40.0 10.45 -39.8 10.65 -39.95 10.65 -40.3 10.65 -40.55 10.4 -40.65 10.15 -40.55 M4.15 -44.05 L4.35 -44.75 4.15 -45.4 3.7 -45.6 3.3 -45.35 3.1 -44.75 3.3 -44.05 Q3.45 -43.8 3.7 -43.8 L4.15 -44.05 M6.4 -43.95 L6.3 -43.5 6.4 -43.1 Q6.5 -42.9 6.8 -42.9 L7.2 -43.1 7.4 -43.5 7.2 -43.95 6.8 -44.15 Q6.5 -44.15 6.4 -43.95 M11.65 -37.4 L11.35 -37.55 11.2 -37.4 11.15 -37.1 11.25 -36.75 Q11.3 -36.65 11.45 -36.6 L11.65 -36.75 11.75 -37.1 11.65 -37.4 M5.0 -40.05 Q3.45 -39.35 2.7 -37.25 2.2 -35.65 3.55 -34.8 L8.35 -34.5 Q9.9 -35.4 9.85 -36.7 9.7 -38.8 8.0 -40.05 6.5 -40.8 5.0 -40.05 M-9.5 -41.85 L-9.35 -41.5 Q-9.25 -41.35 -9.0 -41.35 -8.8 -41.35 -8.7 -41.5 L-8.65 -41.85 -8.7 -42.2 -9.0 -42.35 -9.35 -42.2 -9.5 -41.85 M-6.9 -44.2 L-7.05 -43.75 -6.95 -43.2 Q-6.8 -42.95 -6.55 -43.0 L-6.15 -43.3 -5.95 -43.75 -6.05 -44.2 -6.45 -44.35 -6.9 -44.2 M-2.8 -43.9 L-2.6 -44.6 -2.8 -45.2 Q-3.0 -45.5 -3.25 -45.45 L-3.65 -45.2 -3.8 -44.6 -3.65 -43.9 -3.2 -43.65 Q-2.95 -43.65 -2.8 -43.9 M9.05 -42.15 L9.0 -42.55 8.7 -42.7 8.35 -42.5 8.2 -42.15 8.35 -41.8 Q8.5 -41.7 8.7 -41.65 L9.0 -41.8 9.05 -42.15 M-6.3 -40.4 L-8.25 -40.05 Q-9.8 -38.95 -10.05 -37.05 L-10.05 -36.7 Q-10.2 -35.4 -8.65 -34.5 L-7.75 -34.4 Q-5.45 -34.15 -3.8 -34.8 -2.45 -35.65 -2.95 -37.25 -3.75 -39.35 -5.25 -40.05 L-6.3 -40.4 M-10.3 -39.5 L-10.2 -39.75 -10.3 -40.05 -10.5 -40.15 -10.7 -40.05 -10.8 -39.75 -10.75 -39.45 -10.55 -39.3 -10.3 -39.5" fill="url(#gradient0)" fill-rule="evenodd" stroke="none"/>
    <path d="M-11.5 -37.25 L-11.4 -37.65 -11.2 -37.8 -10.95 -37.65 -10.85 -37.25 -11.0 -36.85 -11.25 -36.75 -11.4 -36.9 -11.5 -37.25 M10.15 -40.55 L10.4 -40.65 10.65 -40.55 10.65 -40.3 10.65 -39.95 10.45 -39.8 10.2 -40.0 10.1 -40.3 10.15 -40.55 M11.65 -37.4 L11.75 -37.1 11.65 -36.75 11.45 -36.6 Q11.3 -36.65 11.25 -36.75 L11.15 -37.1 11.2 -37.4 11.35 -37.55 11.65 -37.4 M6.4 -43.95 Q6.5 -44.15 6.8 -44.15 L7.2 -43.95 7.4 -43.5 7.2 -43.1 6.8 -42.9 Q6.5 -42.9 6.4 -43.1 L6.3 -43.5 6.4 -43.95 M4.15 -44.05 L3.7 -43.8 Q3.45 -43.8 3.3 -44.05 L3.1 -44.75 3.3 -45.35 3.7 -45.6 4.15 -45.4 4.35 -44.75 4.15 -44.05 M9.05 -42.15 L9.0 -41.8 8.7 -41.65 Q8.5 -41.7 8.35 -41.8 L8.2 -42.15 8.35 -42.5 8.7 -42.7 9.0 -42.55 9.05 -42.15 M-2.8 -43.9 Q-2.95 -43.65 -3.2 -43.65 L-3.65 -43.9 -3.8 -44.6 -3.65 -45.2 -3.25 -45.45 Q-3.0 -45.5 -2.8 -45.2 L-2.6 -44.6 -2.8 -43.9 M-6.9 -44.2 L-6.45 -44.35 -6.05 -44.2 -5.95 -43.75 -6.15 -43.3 -6.55 -43.0 Q-6.8 -42.95 -6.95 -43.2 L-7.05 -43.75 -6.9 -44.2 M-9.5 -41.85 L-9.35 -42.2 -9.0 -42.35 -8.7 -42.2 -8.65 -41.85 -8.7 -41.5 Q-8.8 -41.35 -9.0 -41.35 -9.25 -41.35 -9.35 -41.5 L-9.5 -41.85 M-10.3 -39.5 L-10.55 -39.3 -10.75 -39.45 -10.8 -39.75 -10.7 -40.05 -10.5 -40.15 -10.3 -40.05 -10.2 -39.75 -10.3 -39.5" fill="#b96f00" fill-rule="evenodd" stroke="none"/>
    <path d="M5.0 -40.05 Q6.5 -40.8 8.0 -40.05 9.7 -38.8 9.85 -36.7 9.9 -35.4 8.35 -34.5 L3.55 -34.8 Q2.2 -35.65 2.7 -37.25 3.45 -39.35 5.0 -40.05 M-6.3 -40.4 L-5.25 -40.05 Q-3.75 -39.35 -2.95 -37.25 -2.45 -35.65 -3.8 -34.8 -5.45 -34.15 -7.75 -34.4 L-8.65 -34.5 Q-10.2 -35.4 -10.05 -36.7 L-10.05 -37.05 Q-9.8 -38.95 -8.25 -40.05 L-6.3 -40.4" fill="#ffffff" fill-rule="evenodd" stroke="none"/>
    <path d="M-12.1 -37.1 L-12.05 -37.35 -11.5 -37.25 -12.1 -37.1" fill="#ff9900" fill-rule="evenodd" stroke="none"/>
    <path d="M5.0 -40.05 Q6.5 -40.8 8.0 -40.05 9.7 -38.8 9.85 -36.7 9.9 -35.4 8.35 -34.5 L3.55 -34.8 Q2.2 -35.65 2.7 -37.25 3.45 -39.35 5.0 -40.05 M-6.3 -40.4 L-5.25 -40.05 Q-3.75 -39.35 -2.95 -37.25 -2.45 -35.65 -3.8 -34.8 -5.45 -34.15 -7.75 -34.4 L-8.65 -34.5 Q-10.2 -35.4 -10.05 -36.7 L-10.05 -37.05 Q-9.8 -38.95 -8.25 -40.05 L-6.3 -40.4" fill="none" stroke="#9b5e00" stroke-linecap="round" stroke-linejoin="round" stroke-width="0.05"/>
    <path d="M-12.05 -37.35 Q-11.85 -38.3 -12.3 -39.1 L-12.75 -39.65 Q-13.0 -40.05 -12.75 -40.35 L-11.9 -41.1 Q-10.75 -42.55 -10.35 -45.0 -9.9 -47.7 -8.6 -49.45 L-8.5 -49.7 -8.25 -50.3 -7.75 -50.6 -7.45 -50.7 -4.8 -52.3 -4.6 -52.35 -4.4 -52.5 -4.35 -52.5 -4.2 -52.7 -3.55 -52.9 -3.4 -52.9 -3.2 -52.85 -2.9 -52.85 -2.35 -52.95 -2.25 -53.0 Q-1.2 -53.2 -0.4 -53.7 L0.45 -53.75 Q1.05 -53.3 1.7 -53.15 L2.35 -53.05 2.45 -53.0 2.75 -53.1 3.1 -53.2 3.55 -53.0 3.65 -52.85 4.05 -52.6 4.8 -52.3 7.65 -50.5 7.9 -50.35 8.35 -50.15 8.6 -49.65 Q8.55 -49.5 8.65 -49.35 L8.75 -49.2 Q9.85 -47.65 10.05 -45.5 10.45 -42.45 11.95 -40.85 L12.55 -40.3 Q12.95 -39.85 12.6 -39.25 L12.35 -38.85 Q12.0 -38.2 12.15 -37.4 L12.3 -36.05 12.3 -33.3 M-12.5 -33.3 Q-12.65 -35.35 -12.1 -37.1 L-12.05 -37.35" fill="none" stroke="#ff6600" stroke-linecap="round" stroke-linejoin="round" stroke-width="0.05"/>
  </g>
  <defs>
    <radialGradient cx="0" cy="0" gradientTransform="matrix(0.1071, 0.0, 0.0, 0.1071, 16.95, 10.9)" gradientUnits="userSpaceOnUse" id="gradient0" r="819.2" spreadMethod="pad">
      <stop offset="0.0" stop-color="#ff6600"/>
      <stop offset="0.5294117647058824" stop-color="#ff9900"/>
      <stop offset="1.0" stop-color="#ff6600"/>
    </radialGradient>
  </defs>
</svg>
