<?xml version="1.0" encoding="UTF-8" standalone="no"?>
<svg xmlns:xlink="http://www.w3.org/1999/xlink" height="91.3px" width="90.35px" xmlns="http://www.w3.org/2000/svg">
  <g transform="matrix(1.0, 0.0, 0.0, 1.0, 45.25, 38.4)">
    <path d="M38.4 -35.0 L38.4 -35.05 Q39.0 -36.55 39.8 -35.7 L40.55 -34.8 43.35 -36.0 Q45.6 -36.85 44.95 -34.7 L43.7 -31.15 44.6 -30.1 Q45.2 -29.15 43.6 -28.85 L40.2 -28.35 34.35 -18.25 Q31.45 -13.1 33.05 -9.0 L33.7 -7.65 Q35.95 -2.65 36.0 3.2 35.95 15.55 25.6 24.3 L21.75 27.2 19.55 28.5 18.95 28.8 Q15.8 35.1 15.05 46.15 18.05 48.4 21.0 52.8 15.2 51.65 10.25 48.35 7.7 38.4 3.7 32.95 L3.3 33.0 3.15 33.0 0.65 33.05 -1.4 33.05 -1.9 33.0 Q-5.85 38.4 -8.75 48.55 -12.15 51.15 -18.05 52.9 -16.25 49.25 -12.95 46.1 -13.9 35.65 -16.2 29.55 L-18.1 28.55 Q-21.45 26.7 -24.35 24.3 -34.65 15.55 -34.65 3.2 -34.65 -1.4 -33.25 -5.45 L-32.25 -7.95 Q-31.3 -11.7 -33.25 -16.0 L-38.3 -26.65 -43.2 -27.1 Q-45.55 -27.45 -44.2 -29.15 L-43.25 -30.35 -45.0 -34.05 Q-45.75 -35.65 -44.25 -35.3 L-40.2 -34.15 -39.3 -35.25 Q-38.5 -36.15 -37.9 -34.9 L-36.5 -31.7 -28.95 -27.4 Q-21.55 -23.7 -16.45 -29.75 -14.85 -32.65 -13.75 -35.5 L-13.5 -36.05 -13.1 -36.8 -11.95 -37.95 Q-12.1 -35.45 -8.55 -34.3 1.3 -32.3 8.95 -34.5 11.65 -35.5 12.05 -37.55 L12.9 -37.45 13.8 -35.3 15.35 -32.4 15.8 -31.75 Q19.4 -26.2 24.8 -27.0 L36.55 -30.25 38.35 -34.9 39.05 -34.65 38.4 -35.0 M39.05 -34.65 L39.05 -34.55 39.1 -34.65 39.05 -34.65" fill="url(#gradient0)" fill-rule="evenodd" stroke="none"/>
    <path d="M38.4 -35.0 L39.05 -34.65 38.35 -34.9 38.4 -35.0 M12.9 -37.45 L12.05 -37.55 12.1 -38.4 Q12.6 -38.3 12.9 -37.45" fill="#ff9900" fill-rule="evenodd" stroke="none"/>
    <path d="M-11.95 -37.95 L-13.1 -36.8 -13.5 -36.05 -13.75 -35.5 Q-14.85 -32.65 -16.45 -29.75 -21.55 -23.7 -28.95 -27.4 L-36.5 -31.7 -37.9 -34.9 Q-38.5 -36.15 -39.3 -35.25 L-40.2 -34.15 -44.25 -35.3 Q-45.75 -35.65 -45.0 -34.05 L-43.25 -30.35 -44.2 -29.15 Q-45.55 -27.45 -43.2 -27.1 L-38.3 -26.65 -33.25 -16.0 Q-31.3 -11.7 -32.25 -7.95 L-33.25 -5.45 Q-34.65 -1.4 -34.65 3.2 -34.65 15.55 -24.35 24.3 -21.45 26.7 -18.1 28.55 L-16.2 29.55 Q-13.9 35.65 -12.95 46.1 -16.25 49.25 -18.05 52.9 -12.15 51.15 -8.75 48.55 -5.85 38.4 -1.9 33.0 L-1.4 33.05 0.65 33.05 3.15 33.0 3.3 33.0 3.7 32.95 Q7.7 38.4 10.25 48.35 15.2 51.65 21.0 52.8 18.05 48.4 15.05 46.15 15.8 35.1 18.95 28.8 L19.55 28.5 21.75 27.2 25.6 24.3 Q35.95 15.55 36.0 3.2 35.95 -2.65 33.7 -7.65 L33.05 -9.0 Q31.45 -13.1 34.35 -18.25 L40.2 -28.35 43.6 -28.85 Q45.2 -29.15 44.6 -30.1 L43.7 -31.15 44.95 -34.7 Q45.6 -36.85 43.35 -36.0 L40.55 -34.8 39.8 -35.7 Q39.0 -36.55 38.4 -35.05 L38.4 -35.0 M38.35 -34.9 L36.55 -30.25 24.8 -27.0 Q19.4 -26.2 15.8 -31.75 L15.35 -32.4 13.8 -35.3 12.9 -37.45 Q12.6 -38.3 12.1 -38.4 L12.05 -37.55 M38.35 -34.9 L38.4 -35.0" fill="none" stroke="#ff6600" stroke-linecap="round" stroke-linejoin="round" stroke-width="0.05"/>
  </g>
  <defs>
    <radialGradient cx="0" cy="0" gradientTransform="matrix(0.1011, 0.0, 0.0, 0.1011, 0.6, -26.75)" gradientUnits="userSpaceOnUse" id="gradient0" r="819.2" spreadMethod="pad">
      <stop offset="0.11764705882352941" stop-color="#ffcc00"/>
      <stop offset="0.5294117647058824" stop-color="#ff9900"/>
      <stop offset="1.0" stop-color="#ff6600"/>
    </radialGradient>
  </defs>
</svg>
