<?xml version="1.0" encoding="UTF-8" standalone="no"?>
<svg xmlns:xlink="http://www.w3.org/1999/xlink" height="430.05px" width="1349.95px" xmlns="http://www.w3.org/2000/svg">
  <g transform="matrix(1.0, 0.0, 0.0, 1.0, 675.0, 230.05)">
    <path d="M270.45 -125.5 L674.95 -125.5 674.95 -124.75 -675.0 -124.75 -675.0 -125.5 -71.7 -125.5 -49.4 -125.5 -40.4 -125.5 -11.4 -125.5 -8.35 -125.5 2.65 -125.5 18.45 -125.5 27.75 -125.5 52.55 -125.5 62.9 -125.5 79.45 -125.5 104.0 -125.5 115.4 -125.5 136.8 -125.5 147.2 -125.5 152.1 -125.5 157.8 -125.5 175.25 -125.5 196.9 -125.5 233.7 -125.5 255.3 -125.5 270.45 -125.5" fill="#336699" fill-rule="evenodd" stroke="none"/>
    <path d="M-35.8 -203.5 L-35.8 -208.65 -22.85 -208.65 -22.85 -203.5 -35.8 -203.5 M-11.4 -174.25 L-8.35 -174.25 -8.35 -125.5 -11.4 -125.5 -11.4 -174.25 M18.45 -167.2 L28.7 -167.2 27.75 -125.5 18.45 -125.5 18.45 -167.2 M80.25 -215.6 L80.85 -219.1 101.2 -220.1 102.3 -215.6 80.25 -215.6 M115.4 -148.0 L115.4 -162.75 129.25 -162.75 136.8 -162.75 136.8 -125.5 115.4 -125.5 115.4 -148.0 M152.1 -148.6 L152.1 -196.25 166.35 -208.95 166.35 -173.95 158.75 -173.65 157.8 -169.6 157.8 -125.5 152.1 -125.5 152.1 -148.6 M166.4 -215.95 L178.15 -220.75 196.9 -215.95 166.4 -215.95" fill="#666666" fill-rule="evenodd" stroke="none"/>
    <path d="M-40.4 -125.5 L-40.4 -203.5 -35.8 -203.5 -22.85 -203.5 -11.4 -203.5 -11.4 -174.25 -11.4 -125.5 -40.4 -125.5 M28.7 -167.2 L30.0 -221.85 49.75 -221.85 52.55 -125.5 27.75 -125.5 28.7 -167.2 M79.45 -169.45 L79.45 -215.6 80.25 -215.6 102.3 -215.6 104.0 -215.6 104.0 -147.9 104.0 -125.5 79.45 -125.5 79.45 -126.9 79.45 -130.4 79.45 -132.75 79.6 -136.95 79.45 -136.95 79.45 -169.45 M129.25 -162.75 L129.25 -167.4 147.2 -167.4 147.2 -148.55 147.2 -125.5 136.8 -125.5 136.8 -162.75 129.25 -162.75 M166.35 -208.95 L166.35 -215.85 166.4 -215.95 196.9 -215.95 196.9 -150.8 196.9 -125.5 175.25 -125.5 175.25 -169.6 175.0 -174.3 166.35 -173.95 166.35 -208.95 M237.55 -177.05 L246.4 -190.25 253.3 -177.05 237.55 -177.05 M255.3 -150.8 L270.45 -150.8 270.45 -125.5 255.3 -125.5 255.3 -150.8" fill="#999999" fill-rule="evenodd" stroke="none"/>
    <path d="M-8.35 -174.25 L-8.35 -230.05 8.35 -230.05 8.35 -202.7 2.65 -211.2 2.65 -125.5 -8.35 -125.5 -8.35 -174.25" fill="#8f8f8f" fill-rule="evenodd" stroke="none"/>
    <path d="M8.35 -202.7 L18.45 -187.65 18.45 -167.2 18.45 -125.5 2.65 -125.5 2.65 -211.2 8.35 -202.7 M196.9 -150.8 L233.7 -150.8 233.7 -125.5 196.9 -125.5 196.9 -150.8 M175.25 -125.5 L157.8 -125.5 157.8 -169.6 175.25 -169.6 175.25 -125.5" fill="#aeaeae" fill-rule="evenodd" stroke="none"/>
    <path d="M-71.7 -125.5 L-71.7 -157.25 -49.4 -157.25 -49.4 -125.5 -71.7 -125.5 M62.9 -125.5 L62.9 -127.1 62.9 -169.45 79.45 -169.45 79.45 -136.95 79.45 -132.75 79.45 -130.4 79.45 -126.9 79.45 -125.5 62.9 -125.5 M104.0 -147.9 L113.7 -148.0 115.4 -148.0 115.4 -125.5 104.0 -125.5 104.0 -147.9 M147.2 -148.55 L152.1 -148.6 152.1 -125.5 147.2 -125.5 147.2 -148.55 M233.7 -150.8 L233.7 -177.05 237.55 -177.05 253.3 -177.05 255.3 -177.05 255.3 -150.8 255.3 -125.5 233.7 -125.5 233.7 -150.8 M157.8 -169.6 L158.75 -173.65 166.35 -173.95 175.0 -174.3 175.25 -169.6 157.8 -169.6" fill="#cccccc" fill-rule="evenodd" stroke="none"/>
    <path d="M674.95 -124.75 L674.95 200.0 -675.0 200.0 -675.0 -124.75 674.95 -124.75" fill="url(#gradient0)" fill-rule="evenodd" stroke="none"/>
  </g>
  <defs>
    <linearGradient gradientTransform="matrix(-0.0573, -0.1823, 0.7992, -0.2536, -25.7, -97.95)" gradientUnits="userSpaceOnUse" id="gradient0" spreadMethod="pad" x1="-819.2" x2="819.2">
      <stop offset="0.0" stop-color="#99ffff"/>
      <stop offset="1.0" stop-color="#548daf"/>
    </linearGradient>
  </defs>
</svg>
