<?xml version="1.0" encoding="UTF-8" standalone="no"?>
<svg xmlns:xlink="http://www.w3.org/1999/xlink" height="20.6px" width="25.65px" xmlns="http://www.w3.org/2000/svg">
  <g transform="matrix(1.0, 0.0, 0.0, 1.0, 12.9, 52.9)">
    <path d="M-12.05 -36.35 Q-11.85 -37.3 -12.3 -38.1 L-12.75 -38.65 Q-13.0 -39.05 -12.75 -39.35 L-11.9 -40.1 Q-10.75 -41.55 -10.35 -44.0 -9.9 -46.7 -8.6 -48.45 L-8.5 -48.7 -8.25 -49.3 -7.75 -49.6 -7.45 -49.7 -4.8 -51.3 -4.6 -51.35 -4.4 -51.5 -4.35 -51.5 -4.2 -51.7 -3.55 -51.9 -3.4 -51.9 -3.2 -51.85 -2.9 -51.85 -2.35 -51.95 -2.25 -52.0 Q-1.2 -52.2 -0.4 -52.7 L0.45 -52.75 Q1.05 -52.3 1.7 -52.15 L2.35 -52.05 2.45 -52.0 2.75 -52.1 3.1 -52.2 3.55 -52.0 3.65 -51.85 4.05 -51.6 4.8 -51.3 7.65 -49.5 7.9 -49.35 8.35 -49.15 8.6 -48.65 Q8.55 -48.5 8.65 -48.35 L8.75 -48.2 Q9.85 -46.65 10.05 -44.5 10.45 -41.45 11.95 -39.85 L12.55 -39.3 Q12.95 -38.85 12.6 -38.25 L12.35 -37.85 Q12.0 -37.2 12.15 -36.4 L12.3 -35.05 12.3 -32.3 -12.5 -32.3 Q-12.65 -34.35 -12.1 -36.1 L-11.5 -36.25 -12.05 -36.35 M-11.5 -36.25 L-11.4 -35.9 -11.25 -35.75 -11.0 -35.85 -10.85 -36.25 -10.95 -36.65 -11.2 -36.8 -11.4 -36.65 -11.5 -36.25 M10.65 -39.3 L10.65 -39.55 10.4 -39.65 10.15 -39.55 10.1 -39.3 10.2 -39.0 10.45 -38.8 10.65 -38.95 10.65 -39.3 M6.4 -42.95 L6.3 -42.5 6.4 -42.1 Q6.5 -41.9 6.8 -41.9 L7.2 -42.1 7.4 -42.5 7.2 -42.95 6.8 -43.15 Q6.5 -43.15 6.4 -42.95 M9.0 -41.55 L8.7 -41.7 8.35 -41.5 8.2 -41.15 8.35 -40.8 Q8.5 -40.7 8.7 -40.65 L9.0 -40.8 9.05 -41.15 9.0 -41.55 M3.3 -44.35 L3.1 -43.75 3.3 -43.05 Q3.45 -42.8 3.7 -42.8 L4.15 -43.05 4.35 -43.75 4.15 -44.4 3.7 -44.6 3.3 -44.35 M8.0 -39.05 Q6.5 -39.8 5.0 -39.05 3.45 -38.35 2.7 -36.25 2.2 -34.65 3.55 -33.8 L8.35 -33.5 Q9.9 -34.4 9.85 -35.7 9.7 -37.8 8.0 -39.05 M-8.7 -41.2 L-9.0 -41.35 -9.35 -41.2 -9.5 -40.85 -9.35 -40.5 Q-9.25 -40.35 -9.0 -40.35 -8.8 -40.35 -8.7 -40.5 L-8.65 -40.85 -8.7 -41.2 M-7.05 -42.75 L-6.95 -42.2 Q-6.8 -41.95 -6.55 -42.0 L-6.15 -42.3 -5.95 -42.75 -6.05 -43.2 -6.45 -43.35 -6.9 -43.2 -7.05 -42.75 M-3.65 -44.2 L-3.8 -43.6 -3.65 -42.9 -3.2 -42.65 Q-2.95 -42.65 -2.8 -42.9 L-2.6 -43.6 -2.8 -44.2 Q-3.0 -44.5 -3.25 -44.45 L-3.65 -44.2 M11.75 -36.1 L11.65 -36.4 11.35 -36.55 11.2 -36.4 11.15 -36.1 11.25 -35.75 Q11.3 -35.65 11.45 -35.6 L11.65 -35.75 11.75 -36.1 M-5.25 -39.05 L-6.3 -39.4 -8.25 -39.05 Q-9.8 -37.95 -10.05 -36.05 L-10.05 -35.7 Q-10.2 -34.4 -8.65 -33.5 L-7.75 -33.4 Q-5.45 -33.15 -3.8 -33.8 -2.45 -34.65 -2.95 -36.25 -3.75 -38.35 -5.25 -39.05 M-10.3 -38.5 L-10.2 -38.75 -10.3 -39.05 -10.5 -39.15 -10.7 -39.05 -10.8 -38.75 -10.75 -38.45 -10.55 -38.3 -10.3 -38.5" fill="url(#gradient0)" fill-rule="evenodd" stroke="none"/>
    <path d="M-11.5 -36.25 L-11.4 -36.65 -11.2 -36.8 -10.95 -36.65 -10.85 -36.25 -11.0 -35.85 -11.25 -35.75 -11.4 -35.9 -11.5 -36.25 M10.65 -39.3 L10.65 -38.95 10.45 -38.8 10.2 -39.0 10.1 -39.3 10.15 -39.55 10.4 -39.65 10.65 -39.55 10.65 -39.3 M3.3 -44.35 L3.7 -44.6 4.15 -44.4 4.35 -43.75 4.15 -43.05 3.7 -42.8 Q3.45 -42.8 3.3 -43.05 L3.1 -43.75 3.3 -44.35 M9.0 -41.55 L9.05 -41.15 9.0 -40.8 8.7 -40.65 Q8.5 -40.7 8.35 -40.8 L8.2 -41.15 8.35 -41.5 8.7 -41.7 9.0 -41.55 M6.4 -42.95 Q6.5 -43.15 6.8 -43.15 L7.2 -42.95 7.4 -42.5 7.2 -42.1 6.8 -41.9 Q6.5 -41.9 6.4 -42.1 L6.3 -42.5 6.4 -42.95 M11.75 -36.1 L11.65 -35.75 11.45 -35.6 Q11.3 -35.65 11.25 -35.75 L11.15 -36.1 11.2 -36.4 11.35 -36.55 11.65 -36.4 11.75 -36.1 M-3.65 -44.2 L-3.25 -44.45 Q-3.0 -44.5 -2.8 -44.2 L-2.6 -43.6 -2.8 -42.9 Q-2.95 -42.65 -3.2 -42.65 L-3.65 -42.9 -3.8 -43.6 -3.65 -44.2 M-7.05 -42.75 L-6.9 -43.2 -6.45 -43.35 -6.05 -43.2 -5.95 -42.75 -6.15 -42.3 -6.55 -42.0 Q-6.8 -41.95 -6.95 -42.2 L-7.05 -42.75 M-8.7 -41.2 L-8.65 -40.85 -8.7 -40.5 Q-8.8 -40.35 -9.0 -40.35 -9.25 -40.35 -9.35 -40.5 L-9.5 -40.85 -9.35 -41.2 -9.0 -41.35 -8.7 -41.2 M-10.3 -38.5 L-10.55 -38.3 -10.75 -38.45 -10.8 -38.75 -10.7 -39.05 -10.5 -39.15 -10.3 -39.05 -10.2 -38.75 -10.3 -38.5" fill="#258dc5" fill-rule="evenodd" stroke="none"/>
    <path d="M8.0 -39.05 Q9.7 -37.8 9.85 -35.7 9.9 -34.4 8.35 -33.5 L3.55 -33.8 Q2.2 -34.65 2.7 -36.25 3.45 -38.35 5.0 -39.05 6.5 -39.8 8.0 -39.05 M-5.25 -39.05 Q-3.75 -38.35 -2.95 -36.25 -2.45 -34.65 -3.8 -33.8 -5.45 -33.15 -7.75 -33.4 L-8.65 -33.5 Q-10.2 -34.4 -10.05 -35.7 L-10.05 -36.05 Q-9.8 -37.95 -8.25 -39.05 L-6.3 -39.4 -5.25 -39.05" fill="#ffffff" fill-rule="evenodd" stroke="none"/>
    <path d="M-12.1 -36.1 L-12.05 -36.35 -11.5 -36.25 -12.1 -36.1" fill="#67b8e2" fill-rule="evenodd" stroke="none"/>
    <path d="M-12.05 -36.35 Q-11.85 -37.3 -12.3 -38.1 L-12.75 -38.65 Q-13.0 -39.05 -12.75 -39.35 L-11.9 -40.1 Q-10.75 -41.55 -10.35 -44.0 -9.9 -46.7 -8.6 -48.45 L-8.5 -48.7 -8.25 -49.3 -7.75 -49.6 -7.45 -49.7 -4.8 -51.3 -4.6 -51.35 -4.4 -51.5 -4.35 -51.5 -4.2 -51.7 -3.55 -51.9 -3.4 -51.9 -3.2 -51.85 -2.9 -51.85 -2.35 -51.95 -2.25 -52.0 Q-1.2 -52.2 -0.4 -52.7 L0.45 -52.75 Q1.05 -52.3 1.7 -52.15 L2.35 -52.05 2.45 -52.0 2.75 -52.1 3.1 -52.2 3.55 -52.0 3.65 -51.85 4.05 -51.6 4.8 -51.3 7.65 -49.5 7.9 -49.35 8.35 -49.15 8.6 -48.65 Q8.55 -48.5 8.65 -48.35 L8.75 -48.2 Q9.85 -46.65 10.05 -44.5 10.45 -41.45 11.95 -39.85 L12.55 -39.3 Q12.95 -38.85 12.6 -38.25 L12.35 -37.85 Q12.0 -37.2 12.15 -36.4 L12.3 -35.05 12.3 -32.3 M-12.5 -32.3 Q-12.65 -34.35 -12.1 -36.1 L-12.05 -36.35" fill="none" stroke="#0066cc" stroke-linecap="round" stroke-linejoin="round" stroke-width="0.05"/>
    <path d="M8.0 -39.05 Q9.7 -37.8 9.85 -35.7 9.9 -34.4 8.35 -33.5 L3.55 -33.8 Q2.2 -34.65 2.7 -36.25 3.45 -38.35 5.0 -39.05 6.5 -39.8 8.0 -39.05 M-5.25 -39.05 Q-3.75 -38.35 -2.95 -36.25 -2.45 -34.65 -3.8 -33.8 -5.45 -33.15 -7.75 -33.4 L-8.65 -33.5 Q-10.2 -34.4 -10.05 -35.7 L-10.05 -36.05 Q-9.8 -37.95 -8.25 -39.05 L-6.3 -39.4 -5.25 -39.05" fill="none" stroke="#0066cc" stroke-linecap="round" stroke-linejoin="round" stroke-width="0.05"/>
  </g>
  <defs>
    <radialGradient cx="0" cy="0" gradientTransform="matrix(0.0267, 0.0, 0.0, 0.0267, 1.15, -49.4)" gradientUnits="userSpaceOnUse" id="gradient0" r="819.2" spreadMethod="pad">
      <stop offset="0.3843137254901961" stop-color="#33ccff"/>
      <stop offset="1.0" stop-color="#3399ff"/>
    </radialGradient>
  </defs>
</svg>
