<?xml version="1.0" encoding="UTF-8" standalone="no"?>
<svg xmlns:xlink="http://www.w3.org/1999/xlink" height="91.3px" width="90.35px" xmlns="http://www.w3.org/2000/svg">
  <g transform="matrix(1.0, 0.0, 0.0, 1.0, 45.25, 37.4)">
    <path d="M12.9 -36.45 L13.8 -34.3 15.35 -31.4 15.8 -30.75 Q19.4 -25.2 24.8 -26.0 L36.55 -29.25 38.35 -33.9 38.4 -34.0 38.4 -34.05 Q39.0 -35.55 39.8 -34.7 L40.55 -33.8 43.35 -35.0 Q45.6 -35.85 44.95 -33.7 L43.7 -30.15 44.6 -29.1 Q45.2 -28.15 43.6 -27.85 L40.2 -27.35 34.35 -17.25 Q31.45 -12.1 33.05 -8.0 L33.7 -6.65 Q35.95 -1.65 36.0 4.2 35.95 16.55 25.6 25.3 L21.75 28.2 19.55 29.5 18.95 29.8 Q15.8 36.1 15.05 47.15 18.05 49.4 21.0 53.8 15.2 52.65 10.25 49.35 7.7 39.4 3.7 33.95 L3.3 34.0 3.15 34.0 0.65 34.05 -1.4 34.05 -1.9 34.0 Q-5.85 39.4 -8.75 49.55 -12.15 52.15 -18.05 53.9 -16.25 50.25 -12.95 47.1 -13.9 36.65 -16.2 30.55 L-18.1 29.55 Q-21.45 27.7 -24.35 25.3 -34.65 16.55 -34.65 4.2 -34.65 -0.4 -33.25 -4.45 L-32.25 -6.95 Q-31.3 -10.7 -33.25 -15.0 L-38.3 -25.65 -43.2 -26.1 Q-45.55 -26.45 -44.2 -28.15 L-43.25 -29.35 -45.0 -33.05 Q-45.75 -34.65 -44.25 -34.3 L-40.2 -33.15 -39.3 -34.25 Q-38.5 -35.15 -37.9 -33.9 L-36.5 -30.7 -28.95 -26.4 Q-21.55 -22.7 -16.45 -28.75 -14.85 -31.65 -13.75 -34.5 L-13.5 -35.05 -13.1 -35.8 -11.95 -36.95 Q-12.1 -34.45 -8.55 -33.3 1.3 -31.3 8.95 -33.5 11.65 -34.5 12.05 -36.55 L12.9 -36.45" fill="url(#gradient0)" fill-rule="evenodd" stroke="none"/>
    <path d="M12.05 -36.55 L12.1 -37.4 Q12.6 -37.3 12.9 -36.45 L12.05 -36.55" fill="#67b8e2" fill-rule="evenodd" stroke="none"/>
    <path d="M12.9 -36.45 L13.8 -34.3 15.35 -31.4 15.8 -30.75 Q19.4 -25.2 24.8 -26.0 L36.55 -29.25 38.35 -33.9 38.4 -34.0 38.4 -34.05 Q39.0 -35.55 39.8 -34.7 L40.55 -33.8 43.35 -35.0 Q45.6 -35.85 44.95 -33.7 L43.7 -30.15 44.6 -29.1 Q45.2 -28.15 43.6 -27.85 L40.2 -27.35 34.35 -17.25 Q31.45 -12.1 33.05 -8.0 L33.7 -6.65 Q35.95 -1.65 36.0 4.2 35.95 16.55 25.6 25.3 L21.75 28.2 19.55 29.5 18.95 29.8 Q15.8 36.1 15.05 47.15 18.05 49.4 21.0 53.8 15.2 52.65 10.25 49.35 7.7 39.4 3.7 33.95 L3.3 34.0 3.15 34.0 0.65 34.05 -1.4 34.05 -1.9 34.0 Q-5.85 39.4 -8.75 49.55 -12.15 52.15 -18.05 53.9 -16.25 50.25 -12.95 47.1 -13.9 36.65 -16.2 30.55 L-18.1 29.55 Q-21.45 27.7 -24.35 25.3 -34.65 16.55 -34.65 4.2 -34.65 -0.4 -33.25 -4.45 L-32.25 -6.95 Q-31.3 -10.7 -33.25 -15.0 L-38.3 -25.65 -43.2 -26.1 Q-45.55 -26.45 -44.2 -28.15 L-43.25 -29.35 -45.0 -33.05 Q-45.75 -34.65 -44.25 -34.3 L-40.2 -33.15 -39.3 -34.25 Q-38.5 -35.15 -37.9 -33.9 L-36.5 -30.7 -28.95 -26.4 Q-21.55 -22.7 -16.45 -28.75 -14.85 -31.65 -13.75 -34.5 L-13.5 -35.05 -13.1 -35.8 -11.95 -36.95 M12.05 -36.55 L12.1 -37.4 Q12.6 -37.3 12.9 -36.45 Z" fill="none" stroke="#0066cc" stroke-linecap="round" stroke-linejoin="round" stroke-width="0.05"/>
  </g>
  <defs>
    <radialGradient cx="0" cy="0" gradientTransform="matrix(0.1048, 0.0, 0.0, 0.1048, -39.2, -29.3)" gradientUnits="userSpaceOnUse" id="gradient0" r="819.2" spreadMethod="pad">
      <stop offset="0.0" stop-color="#a4e9ff"/>
      <stop offset="0.3843137254901961" stop-color="#33ccff"/>
      <stop offset="1.0" stop-color="#3399ff"/>
    </radialGradient>
  </defs>
</svg>
