<?xml version="1.0" encoding="UTF-8" standalone="no"?>
<svg xmlns:xlink="http://www.w3.org/1999/xlink" height="20.5px" width="25.6px" xmlns="http://www.w3.org/2000/svg">
  <g transform="matrix(1.0, 0.0, 0.0, 1.0, 13.0, 52.8)">
    <path d="M-12.2 -36.3 Q-12.0 -37.25 -12.45 -38.05 L-12.85 -38.6 Q-13.1 -39.0 -12.85 -39.3 L-12.05 -40.05 Q-10.85 -41.5 -10.5 -43.95 -10.05 -46.6 -8.75 -48.35 L-8.65 -48.7 -8.4 -49.3 -7.9 -49.55 -7.6 -49.7 Q-6.5 -50.7 -4.95 -51.25 L-4.75 -51.3 -4.75 -51.35 -4.5 -51.45 -4.35 -51.65 -3.7 -51.9 -3.55 -51.9 -3.35 -51.8 -3.05 -51.8 -2.45 -51.95 -2.4 -51.95 -0.55 -52.65 0.3 -52.7 Q0.9 -52.25 1.55 -52.15 L2.25 -52.0 2.3 -52.0 2.6 -52.05 2.95 -52.15 3.45 -51.95 3.5 -51.8 3.95 -51.55 4.65 -51.25 7.5 -49.5 7.55 -49.45 Q7.6 -49.35 7.75 -49.35 L7.8 -49.35 8.25 -49.1 8.45 -48.6 8.55 -48.3 8.65 -48.15 Q9.7 -46.6 9.9 -44.5 10.25 -41.4 11.8 -39.8 L12.4 -39.25 Q12.8 -38.85 12.45 -38.2 L12.25 -37.8 Q11.85 -37.15 12.0 -36.35 L12.15 -35.0 12.15 -32.3 -12.65 -32.3 Q-12.8 -34.35 -12.25 -36.1 L-11.65 -36.2 -12.2 -36.3 M-11.65 -36.2 L-11.55 -35.85 -11.35 -35.7 -11.15 -35.85 -11.0 -36.2 -11.1 -36.6 -11.3 -36.75 -11.55 -36.6 -11.65 -36.2 M10.3 -39.6 L10.05 -39.5 9.9 -39.25 10.05 -39.0 10.3 -38.8 10.5 -38.9 10.5 -39.25 10.5 -39.5 10.3 -39.6 M6.65 -41.9 Q6.9 -41.9 7.05 -42.05 L7.2 -42.5 7.05 -42.9 6.65 -43.1 6.25 -42.9 6.15 -42.5 6.25 -42.05 Q6.35 -41.9 6.65 -41.9 M8.85 -41.5 L8.55 -41.65 Q8.35 -41.65 8.25 -41.45 L8.05 -41.15 8.25 -40.8 Q8.35 -40.65 8.55 -40.65 8.75 -40.65 8.85 -40.8 L8.9 -41.15 8.85 -41.5 M4.2 -43.7 L4.0 -44.35 3.55 -44.6 3.15 -44.35 2.95 -43.7 3.15 -43.0 Q3.3 -42.75 3.6 -42.75 L4.0 -43.0 4.2 -43.7 M7.9 -39.0 Q6.35 -39.8 4.85 -39.0 3.35 -38.3 2.6 -36.2 2.05 -34.6 3.4 -33.75 L8.25 -33.5 Q9.8 -34.4 9.7 -35.7 9.55 -37.8 7.9 -39.0 M-9.15 -40.3 Q-8.95 -40.3 -8.85 -40.45 L-8.75 -40.85 -8.85 -41.15 -9.15 -41.3 -9.45 -41.15 -9.6 -40.85 -9.45 -40.45 -9.15 -40.3 M-6.1 -42.75 L-6.2 -43.15 Q-6.35 -43.35 -6.6 -43.35 L-7.0 -43.15 -7.2 -42.7 -7.05 -42.15 -6.7 -41.95 -6.25 -42.25 -6.1 -42.75 M-3.4 -44.45 L-3.8 -44.2 -3.95 -43.55 -3.8 -42.85 Q-3.6 -42.6 -3.35 -42.6 L-2.9 -42.85 Q-2.75 -43.15 -2.75 -43.55 L-2.95 -44.2 -3.4 -44.45 M11.6 -36.1 L11.5 -36.35 11.2 -36.5 11.05 -36.35 11.0 -36.1 11.1 -35.75 Q11.15 -35.6 11.3 -35.6 L11.5 -35.75 11.6 -36.1 M-5.35 -39.0 L-6.45 -39.35 -8.4 -39.0 Q-9.95 -37.9 -10.2 -36.0 L-10.2 -35.7 Q-10.35 -34.4 -8.75 -33.5 L-7.9 -33.35 Q-5.6 -33.1 -3.95 -33.75 -2.6 -34.6 -3.1 -36.2 -3.85 -38.3 -5.35 -39.0 M-10.45 -38.45 L-10.35 -38.7 -10.45 -39.0 -10.65 -39.1 -10.85 -39.0 -10.95 -38.7 -10.9 -38.4 -10.7 -38.25 -10.45 -38.45" fill="url(#gradient0)" fill-rule="evenodd" stroke="none"/>
    <path d="M-11.65 -36.2 L-11.55 -36.6 -11.3 -36.75 -11.1 -36.6 -11.0 -36.2 -11.15 -35.85 -11.35 -35.7 -11.55 -35.85 -11.65 -36.2 M10.3 -39.6 L10.5 -39.5 10.5 -39.25 10.5 -38.9 10.3 -38.8 10.05 -39.0 9.9 -39.25 10.05 -39.5 10.3 -39.6 M4.2 -43.7 L4.0 -43.0 3.6 -42.75 Q3.3 -42.75 3.15 -43.0 L2.95 -43.7 3.15 -44.35 3.55 -44.6 4.0 -44.35 4.2 -43.7 M8.85 -41.5 L8.9 -41.15 8.85 -40.8 Q8.75 -40.65 8.55 -40.65 8.35 -40.65 8.25 -40.8 L8.05 -41.15 8.25 -41.45 Q8.35 -41.65 8.55 -41.65 L8.85 -41.5 M6.65 -41.9 Q6.35 -41.9 6.25 -42.05 L6.15 -42.5 6.25 -42.9 6.65 -43.1 7.05 -42.9 7.2 -42.5 7.05 -42.05 Q6.9 -41.9 6.65 -41.9 M11.6 -36.1 L11.5 -35.75 11.3 -35.6 Q11.15 -35.6 11.1 -35.75 L11.0 -36.1 11.05 -36.35 11.2 -36.5 11.5 -36.35 11.6 -36.1 M-3.4 -44.45 L-2.95 -44.2 -2.75 -43.55 Q-2.75 -43.15 -2.9 -42.85 L-3.35 -42.6 Q-3.6 -42.6 -3.8 -42.85 L-3.95 -43.55 -3.8 -44.2 -3.4 -44.45 M-6.1 -42.75 L-6.25 -42.25 -6.7 -41.95 -7.05 -42.15 -7.2 -42.7 -7.0 -43.15 -6.6 -43.35 Q-6.35 -43.35 -6.2 -43.15 L-6.1 -42.75 M-9.15 -40.3 L-9.45 -40.45 -9.6 -40.85 -9.45 -41.15 -9.15 -41.3 -8.85 -41.15 -8.75 -40.85 -8.85 -40.45 Q-8.95 -40.3 -9.15 -40.3 M-10.45 -38.45 L-10.7 -38.25 -10.9 -38.4 -10.95 -38.7 -10.85 -39.0 -10.65 -39.1 -10.45 -39.0 -10.35 -38.7 -10.45 -38.45" fill="#54008c" fill-rule="evenodd" stroke="none"/>
    <path d="M7.9 -39.0 Q9.55 -37.8 9.7 -35.7 9.8 -34.4 8.25 -33.5 L3.4 -33.75 Q2.05 -34.6 2.6 -36.2 3.35 -38.3 4.85 -39.0 6.35 -39.8 7.9 -39.0 M-5.35 -39.0 Q-3.85 -38.3 -3.1 -36.2 -2.6 -34.6 -3.95 -33.75 -5.6 -33.1 -7.9 -33.35 L-8.75 -33.5 Q-10.35 -34.4 -10.2 -35.7 L-10.2 -36.0 Q-9.95 -37.9 -8.4 -39.0 L-6.45 -39.35 -5.35 -39.0" fill="#ffffff" fill-rule="evenodd" stroke="none"/>
    <path d="M-12.25 -36.1 L-12.2 -36.3 -11.65 -36.2 -12.25 -36.1" fill="#9900ff" fill-rule="evenodd" stroke="none"/>
    <path d="M-12.2 -36.3 Q-12.0 -37.25 -12.45 -38.05 L-12.85 -38.6 Q-13.1 -39.0 -12.85 -39.3 L-12.05 -40.05 Q-10.85 -41.5 -10.5 -43.95 -10.05 -46.6 -8.75 -48.35 L-8.65 -48.7 -8.4 -49.3 -7.9 -49.55 -7.6 -49.7 Q-6.5 -50.7 -4.95 -51.25 L-4.75 -51.3 -4.75 -51.35 -4.5 -51.45 -4.35 -51.65 -3.7 -51.9 -3.55 -51.9 -3.35 -51.8 -3.05 -51.8 -2.45 -51.95 -2.4 -51.95 -0.55 -52.65 0.3 -52.7 Q0.9 -52.25 1.55 -52.15 L2.25 -52.0 2.3 -52.0 2.6 -52.05 2.95 -52.15 3.45 -51.95 3.5 -51.8 3.95 -51.55 4.65 -51.25 7.5 -49.5 7.55 -49.45 Q7.6 -49.35 7.75 -49.35 L7.8 -49.35 8.25 -49.1 8.45 -48.6 8.55 -48.3 8.65 -48.15 Q9.7 -46.6 9.9 -44.5 10.25 -41.4 11.8 -39.8 L12.4 -39.25 Q12.8 -38.85 12.45 -38.2 L12.25 -37.8 Q11.85 -37.15 12.0 -36.35 L12.15 -35.0 12.15 -32.3 M-12.65 -32.3 Q-12.8 -34.35 -12.25 -36.1 L-12.2 -36.3" fill="none" stroke="#660066" stroke-linecap="round" stroke-linejoin="round" stroke-width="0.05"/>
    <path d="M7.9 -39.0 Q9.55 -37.8 9.7 -35.7 9.8 -34.4 8.25 -33.5 L3.4 -33.75 Q2.05 -34.6 2.6 -36.2 3.35 -38.3 4.85 -39.0 6.35 -39.8 7.9 -39.0 M-5.35 -39.0 Q-3.85 -38.3 -3.1 -36.2 -2.6 -34.6 -3.95 -33.75 -5.6 -33.1 -7.9 -33.35 L-8.75 -33.5 Q-10.35 -34.4 -10.2 -35.7 L-10.2 -36.0 Q-9.95 -37.9 -8.4 -39.0 L-6.45 -39.35 -5.35 -39.0" fill="none" stroke="#660066" stroke-linecap="round" stroke-linejoin="round" stroke-width="0.05"/>
  </g>
  <defs>
    <radialGradient cx="0" cy="0" gradientTransform="matrix(0.0257, 0.0, 0.0, 0.0257, 1.0, -48.35)" gradientUnits="userSpaceOnUse" id="gradient0" r="819.2" spreadMethod="pad">
      <stop offset="0.0" stop-color="#9900cc"/>
      <stop offset="0.5294117647058824" stop-color="#9933ff"/>
      <stop offset="1.0" stop-color="#6633cc"/>
    </radialGradient>
  </defs>
</svg>
