<?xml version="1.0" encoding="UTF-8" standalone="no"?>
<svg xmlns:xlink="http://www.w3.org/1999/xlink" height="91.3px" width="90.4px" xmlns="http://www.w3.org/2000/svg">
  <g transform="matrix(1.0, 0.0, 0.0, 1.0, 45.45, 37.35)">
    <path d="M12.8 -36.45 Q13.05 -35.6 13.65 -34.25 L15.25 -31.4 15.65 -30.7 Q19.25 -25.15 24.65 -25.95 L36.45 -29.2 38.25 -34.05 Q38.8 -35.5 39.65 -34.65 L40.4 -33.75 43.25 -34.95 Q45.45 -35.85 44.8 -33.65 L43.55 -30.15 44.5 -29.1 Q45.05 -28.1 43.45 -27.8 L40.1 -27.35 34.2 -17.2 Q31.3 -12.05 32.9 -7.95 L33.55 -6.6 Q35.85 -1.6 35.85 4.2 35.85 16.55 25.5 25.3 L21.6 28.2 19.4 29.5 18.8 29.8 Q11.95 33.45 3.6 34.0 L3.15 34.05 3.0 34.05 0.55 34.1 -1.55 34.1 -2.05 34.05 Q-6.0 39.45 -8.85 49.6 -12.3 52.2 -18.15 53.95 -16.35 50.3 -13.05 47.15 -14.05 36.65 -16.35 30.55 L-18.25 29.6 Q-21.6 27.75 -24.5 25.3 -34.8 16.55 -34.8 4.2 -34.8 -0.35 -33.4 -4.4 L-32.4 -6.95 Q-31.45 -10.65 -33.4 -15.0 L-38.45 -25.6 -43.35 -26.05 Q-45.7 -26.4 -44.35 -28.1 L-43.4 -29.3 -45.2 -33.05 Q-45.95 -34.65 -44.4 -34.25 L-40.3 -33.15 -39.45 -34.2 Q-38.65 -35.15 -38.05 -33.9 L-36.65 -30.65 -29.05 -26.35 Q-21.65 -22.65 -16.55 -28.7 -15.0 -31.6 -13.85 -34.45 L-13.65 -35.0 -13.2 -35.8 -12.1 -36.95 Q-12.25 -34.4 -8.65 -33.3 1.2 -31.25 8.8 -33.45 11.5 -34.45 11.9 -36.55 L12.8 -36.45" fill="url(#gradient0)" fill-rule="evenodd" stroke="none"/>
    <path d="M11.9 -36.55 L11.95 -37.35 Q12.45 -37.3 12.8 -36.45 L11.9 -36.55" fill="#9900ff" fill-rule="evenodd" stroke="none"/>
    <path d="M18.8 29.8 Q15.65 36.15 14.95 47.2 17.9 49.45 20.85 53.85 15.05 52.65 10.15 49.35 7.55 39.45 3.6 34.0 11.95 33.45 18.8 29.8" fill="url(#gradient1)" fill-rule="evenodd" stroke="none"/>
    <path d="M12.8 -36.45 Q13.05 -35.6 13.65 -34.25 L15.25 -31.4 15.65 -30.7 Q19.25 -25.15 24.65 -25.95 L36.45 -29.2 38.25 -34.05 Q38.8 -35.5 39.65 -34.65 L40.4 -33.75 43.25 -34.95 Q45.45 -35.85 44.8 -33.65 L43.55 -30.15 44.5 -29.1 Q45.05 -28.1 43.45 -27.8 L40.1 -27.35 34.2 -17.2 Q31.3 -12.05 32.9 -7.95 L33.55 -6.6 Q35.85 -1.6 35.85 4.2 35.85 16.55 25.5 25.3 L21.6 28.2 19.4 29.5 18.8 29.8 Q15.65 36.15 14.95 47.2 17.9 49.45 20.85 53.85 15.05 52.65 10.15 49.35 7.55 39.45 3.6 34.0 L3.15 34.05 3.0 34.05 0.55 34.1 -1.55 34.1 -2.05 34.05 Q-6.0 39.45 -8.85 49.6 -12.3 52.2 -18.15 53.95 -16.35 50.3 -13.05 47.15 -14.05 36.65 -16.35 30.55 L-18.25 29.6 Q-21.6 27.75 -24.5 25.3 -34.8 16.55 -34.8 4.2 -34.8 -0.35 -33.4 -4.4 L-32.4 -6.95 Q-31.45 -10.65 -33.4 -15.0 L-38.45 -25.6 -43.35 -26.05 Q-45.7 -26.4 -44.35 -28.1 L-43.4 -29.3 -45.2 -33.05 Q-45.95 -34.65 -44.4 -34.25 L-40.3 -33.15 -39.45 -34.2 Q-38.65 -35.15 -38.05 -33.9 L-36.65 -30.65 -29.05 -26.35 Q-21.65 -22.65 -16.55 -28.7 -15.0 -31.6 -13.85 -34.45 L-13.65 -35.0 -13.2 -35.8 -12.1 -36.95 M11.9 -36.55 L11.95 -37.35 Q12.45 -37.3 12.8 -36.45 Z" fill="none" stroke="#660066" stroke-linecap="round" stroke-linejoin="round" stroke-width="0.05"/>
  </g>
  <defs>
    <radialGradient cx="0" cy="0" gradientTransform="matrix(0.1116, 0.0, 0.0, 0.1116, -8.95, 38.85)" gradientUnits="userSpaceOnUse" id="gradient0" r="819.2" spreadMethod="pad">
      <stop offset="0.0" stop-color="#d75eff"/>
      <stop offset="0.4470588235294118" stop-color="#9903cf"/>
      <stop offset="0.7333333333333333" stop-color="#9933ff"/>
      <stop offset="1.0" stop-color="#6633cc"/>
    </radialGradient>
    <radialGradient cx="0" cy="0" gradientTransform="matrix(0.1138, 0.0, 0.0, 0.1138, -9.5, 40.7)" gradientUnits="userSpaceOnUse" id="gradient1" r="819.2" spreadMethod="pad">
      <stop offset="0.0" stop-color="#d75eff"/>
      <stop offset="0.4470588235294118" stop-color="#9903cf"/>
      <stop offset="0.7333333333333333" stop-color="#9933ff"/>
      <stop offset="1.0" stop-color="#6633cc"/>
    </radialGradient>
  </defs>
</svg>
