<?xml version="1.0" encoding="UTF-8" standalone="no"?>
<svg xmlns:xlink="http://www.w3.org/1999/xlink" height="20.35px" width="25.4px" xmlns="http://www.w3.org/2000/svg">
  <g transform="matrix(1.0, 0.0, 0.0, 1.0, 12.75, 52.9)">
    <path d="M-12.4 -32.55 Q-12.55 -34.55 -12.0 -36.3 -11.65 -37.35 -12.2 -38.25 L-12.6 -38.8 Q-12.85 -39.2 -12.6 -39.5 L-11.8 -40.25 Q-10.65 -41.65 -10.25 -44.1 -9.8 -46.75 -8.5 -48.5 L-8.45 -48.8 -8.15 -49.4 -7.65 -49.65 -7.4 -49.75 Q-6.3 -50.8 -4.75 -51.35 L-4.55 -51.4 -4.35 -51.55 -4.3 -51.55 -4.15 -51.75 -3.55 -51.95 -3.35 -51.95 -3.15 -51.9 -3.15 -51.85 -2.85 -51.85 -2.3 -52.0 -2.25 -52.0 -0.4 -52.7 0.45 -52.8 Q1.05 -52.3 1.7 -52.2 L2.35 -52.05 2.4 -52.05 2.7 -52.1 3.05 -52.2 3.55 -52.0 3.65 -51.9 4.05 -51.65 4.75 -51.35 7.55 -49.55 7.6 -49.55 Q7.65 -49.45 7.8 -49.45 L7.85 -49.45 8.3 -49.2 8.5 -48.7 8.6 -48.4 8.7 -48.25 Q9.75 -46.7 9.95 -44.65 10.3 -41.6 11.8 -40.0 L12.45 -39.45 Q12.85 -39.05 12.5 -38.4 L12.25 -38.0 Q11.9 -37.4 12.05 -36.6 L12.2 -35.25 12.2 -32.55 -12.4 -32.55 M10.55 -39.1 L10.55 -39.45 10.55 -39.7 10.3 -39.8 10.1 -39.7 10.0 -39.45 10.1 -39.15 10.35 -38.95 Q10.5 -38.95 10.55 -39.1 M7.3 -42.65 L7.1 -43.1 6.7 -43.25 6.35 -43.1 6.25 -42.65 6.35 -42.25 6.7 -42.05 7.1 -42.25 7.3 -42.65 M8.3 -41.65 L8.15 -41.3 8.3 -40.95 8.65 -40.8 8.9 -40.95 9.0 -41.3 8.9 -41.65 8.65 -41.8 8.3 -41.65 M3.25 -44.5 Q3.05 -44.25 3.1 -43.85 3.05 -43.45 3.25 -43.15 3.4 -42.9 3.7 -42.9 L4.1 -43.2 Q4.3 -43.45 4.3 -43.85 L4.1 -44.5 3.65 -44.75 3.25 -44.5 M7.95 -39.2 Q6.45 -39.95 4.95 -39.2 3.4 -38.5 2.7 -36.45 2.15 -34.85 3.5 -34.0 L8.3 -33.75 Q9.8 -34.6 9.75 -35.9 9.6 -38.0 7.95 -39.2 M-8.9 -40.5 Q-8.7 -40.5 -8.65 -40.65 L-8.55 -41.0 -8.65 -41.35 -8.9 -41.5 -9.25 -41.35 -9.4 -41.0 -9.25 -40.65 Q-9.15 -40.5 -8.9 -40.5 M-6.0 -43.3 Q-6.15 -43.5 -6.4 -43.5 L-6.8 -43.3 -7.0 -42.85 -6.85 -42.35 Q-6.75 -42.1 -6.45 -42.15 L-6.1 -42.4 -5.9 -42.9 -6.0 -43.3 M-3.65 -44.35 L-3.8 -43.7 -3.6 -43.0 -3.15 -42.75 -2.75 -43.0 Q-2.6 -43.3 -2.6 -43.7 L-2.75 -44.35 -3.2 -44.6 -3.65 -44.35 M11.65 -36.3 L11.5 -36.6 11.25 -36.7 11.1 -36.6 11.05 -36.3 11.15 -35.95 11.35 -35.8 11.55 -35.95 11.65 -36.3 M-5.15 -39.2 L-6.25 -39.55 Q-7.25 -39.7 -8.2 -39.2 -9.85 -38.0 -9.95 -35.9 -10.1 -34.6 -8.55 -33.75 L-7.7 -33.6 Q-5.4 -33.35 -3.75 -34.0 -2.45 -34.9 -2.9 -36.45 -3.65 -38.5 -5.15 -39.2 M-11.1 -35.95 L-10.9 -36.05 -10.75 -36.45 -10.85 -36.8 -11.05 -36.95 -11.3 -36.8 -11.4 -36.45 -11.3 -36.1 Q-11.2 -35.95 -11.1 -35.95 M-10.4 -39.3 L-10.6 -39.2 -10.7 -38.9 -10.65 -38.6 Q-10.65 -38.45 -10.45 -38.45 L-10.2 -38.65 -10.1 -38.9 -10.2 -39.2 -10.4 -39.3" fill="url(#gradient0)" fill-rule="evenodd" stroke="none"/>
    <path d="M10.55 -39.1 Q10.5 -38.95 10.35 -38.95 L10.1 -39.15 10.0 -39.45 10.1 -39.7 10.3 -39.8 10.55 -39.7 10.55 -39.45 10.55 -39.1 M3.25 -44.5 L3.65 -44.75 4.1 -44.5 4.3 -43.85 Q4.3 -43.45 4.1 -43.2 L3.7 -42.9 Q3.4 -42.9 3.25 -43.15 3.05 -43.45 3.1 -43.85 3.05 -44.25 3.25 -44.5 M8.3 -41.65 L8.65 -41.8 8.9 -41.65 9.0 -41.3 8.9 -40.95 8.65 -40.8 8.3 -40.95 8.15 -41.3 8.3 -41.65 M7.3 -42.65 L7.1 -42.25 6.7 -42.05 6.35 -42.25 6.25 -42.65 6.35 -43.1 6.7 -43.25 7.1 -43.1 7.3 -42.65 M11.65 -36.3 L11.55 -35.95 11.35 -35.8 11.15 -35.95 11.05 -36.3 11.1 -36.6 11.25 -36.7 11.5 -36.6 11.65 -36.3 M-3.65 -44.35 L-3.2 -44.6 -2.75 -44.35 -2.6 -43.7 Q-2.6 -43.3 -2.75 -43.0 L-3.15 -42.75 -3.6 -43.0 -3.8 -43.7 -3.65 -44.35 M-6.0 -43.3 L-5.9 -42.9 -6.1 -42.4 -6.45 -42.15 Q-6.75 -42.1 -6.85 -42.35 L-7.0 -42.85 -6.8 -43.3 -6.4 -43.5 Q-6.15 -43.5 -6.0 -43.3 M-8.9 -40.5 Q-9.15 -40.5 -9.25 -40.65 L-9.4 -41.0 -9.25 -41.35 -8.9 -41.5 -8.65 -41.35 -8.55 -41.0 -8.65 -40.65 Q-8.7 -40.5 -8.9 -40.5 M-10.4 -39.3 L-10.2 -39.2 -10.1 -38.9 -10.2 -38.65 -10.45 -38.45 Q-10.65 -38.45 -10.65 -38.6 L-10.7 -38.9 -10.6 -39.2 -10.4 -39.3 M-11.1 -35.95 Q-11.2 -35.95 -11.3 -36.1 L-11.4 -36.45 -11.3 -36.8 -11.05 -36.95 -10.85 -36.8 -10.75 -36.45 -10.9 -36.05 -11.1 -35.95" fill="#9f009f" fill-rule="evenodd" stroke="none"/>
    <path d="M7.95 -39.2 Q9.6 -38.0 9.75 -35.9 9.8 -34.6 8.3 -33.75 L3.5 -34.0 Q2.15 -34.85 2.7 -36.45 3.4 -38.5 4.95 -39.2 6.45 -39.95 7.95 -39.2 M-5.15 -39.2 Q-3.65 -38.5 -2.9 -36.45 -2.45 -34.9 -3.75 -34.0 -5.4 -33.35 -7.7 -33.6 L-8.55 -33.75 Q-10.1 -34.6 -9.95 -35.9 -9.85 -38.0 -8.2 -39.2 -7.25 -39.7 -6.25 -39.55 L-5.15 -39.2" fill="#ffffff" fill-rule="evenodd" stroke="none"/>
    <path d="M-12.4 -32.55 Q-12.55 -34.55 -12.0 -36.3 -11.65 -37.35 -12.2 -38.25 L-12.6 -38.8 Q-12.85 -39.2 -12.6 -39.5 L-11.8 -40.25 Q-10.65 -41.65 -10.25 -44.1 -9.8 -46.75 -8.5 -48.5 L-8.45 -48.8 -8.15 -49.4 -7.65 -49.65 -7.4 -49.75 Q-6.3 -50.8 -4.75 -51.35 L-4.55 -51.4 -4.35 -51.55 -4.3 -51.55 -4.15 -51.75 -3.55 -51.95 -3.35 -51.95 -3.15 -51.9 -3.15 -51.85 -2.85 -51.85 -2.3 -52.0 -2.25 -52.0 -0.4 -52.7 0.45 -52.8 Q1.05 -52.3 1.7 -52.2 L2.35 -52.05 2.4 -52.05 2.7 -52.1 3.05 -52.2 3.55 -52.0 3.65 -51.9 4.05 -51.65 4.75 -51.35 7.55 -49.55 7.6 -49.55 Q7.65 -49.45 7.8 -49.45 L7.85 -49.45 8.3 -49.2 8.5 -48.7 8.6 -48.4 8.7 -48.25 Q9.75 -46.7 9.95 -44.65 10.3 -41.6 11.8 -40.0 L12.45 -39.45 Q12.85 -39.05 12.5 -38.4 L12.25 -38.0 Q11.9 -37.4 12.05 -36.6 L12.2 -35.25 12.2 -32.55" fill="none" stroke="#b000b0" stroke-linecap="round" stroke-linejoin="round" stroke-width="0.05"/>
  </g>
  <defs>
    <radialGradient cx="0" cy="0" gradientTransform="matrix(0.0292, 0.0, 0.0, 0.0292, 7.8, -45.35)" gradientUnits="userSpaceOnUse" id="gradient0" r="819.2" spreadMethod="pad">
      <stop offset="0.0" stop-color="#ffb3ff"/>
      <stop offset="0.34901960784313724" stop-color="#ff6fff"/>
      <stop offset="0.7137254901960784" stop-color="#ff66ff"/>
      <stop offset="0.996078431372549" stop-color="#ff00ff"/>
    </radialGradient>
  </defs>
</svg>
