<?xml version="1.0" encoding="UTF-8" standalone="no"?>
<svg xmlns:xlink="http://www.w3.org/1999/xlink" height="90.45px" width="89.5px" xmlns="http://www.w3.org/2000/svg">
  <g transform="matrix(1.0, 0.0, 0.0, 1.0, 44.85, 37.6)">
    <path d="M12.0 -37.6 Q12.45 -37.5 12.8 -36.65 L13.7 -34.5 Q14.25 -33.2 15.2 -31.65 L15.65 -30.95 Q19.2 -25.45 24.55 -26.3 L36.2 -29.5 37.95 -34.15 38.0 -34.2 38.05 -34.25 Q38.6 -35.7 39.45 -34.9 L40.15 -34.0 42.95 -35.2 Q45.15 -36.05 44.5 -33.9 L43.25 -30.4 44.2 -29.4 Q44.75 -28.4 43.15 -28.1 L39.8 -27.65 34.0 -17.6 Q31.15 -12.5 32.7 -8.45 L33.35 -7.1 Q35.6 -2.15 35.65 3.6 35.65 15.85 25.4 24.5 L21.55 27.35 19.35 28.65 18.75 28.95 Q11.95 32.55 3.7 33.1 L3.25 33.1 3.1 33.1 0.65 33.2 -1.4 33.15 -1.85 33.15 Q-5.8 38.5 -8.65 48.5 -12.05 51.1 -17.85 52.85 -16.1 49.2 -12.8 46.1 -13.75 35.75 -16.05 29.7 L-17.95 28.75 Q-21.25 26.9 -24.1 24.5 -34.3 15.85 -34.3 3.6 -34.3 -0.95 -32.95 -4.95 L-31.95 -7.45 Q-31.0 -11.1 -32.95 -15.4 L-37.95 -25.95 -42.75 -26.35 Q-45.1 -26.7 -43.75 -28.4 L-42.8 -29.6 -44.6 -33.25 Q-45.35 -34.85 -43.8 -34.5 L-39.8 -33.35 -38.9 -34.45 Q-38.15 -35.35 -37.55 -34.15 L-36.15 -30.9 -28.65 -26.65 Q-21.35 -23.05 -16.3 -29.0 -14.7 -31.9 -13.6 -34.7 L-13.35 -35.25 -12.95 -36.0 -11.85 -37.15 Q-12.0 -34.65 -8.45 -33.55 1.3 -31.55 8.85 -33.7 12.05 -34.9 12.0 -37.6" fill="url(#gradient0)" fill-rule="evenodd" stroke="none"/>
    <path d="M18.75 28.95 Q15.65 35.2 14.9 46.15 17.85 48.35 20.8 52.75 15.05 51.6 10.15 48.3 7.6 38.5 3.7 33.1 11.95 32.55 18.75 28.95" fill="#ff00ff" fill-rule="evenodd" stroke="none"/>
    <path d="M12.0 -37.6 Q12.45 -37.5 12.8 -36.65 L13.7 -34.5 Q14.25 -33.2 15.2 -31.65 L15.65 -30.95 Q19.2 -25.45 24.55 -26.3 L36.2 -29.5 37.95 -34.15 38.0 -34.2 38.05 -34.25 Q38.6 -35.7 39.45 -34.9 L40.15 -34.0 42.95 -35.2 Q45.15 -36.05 44.5 -33.9 L43.25 -30.4 44.2 -29.4 Q44.75 -28.4 43.15 -28.1 L39.8 -27.65 34.0 -17.6 Q31.15 -12.5 32.7 -8.45 L33.35 -7.1 Q35.6 -2.15 35.65 3.6 35.65 15.85 25.4 24.5 L21.55 27.35 19.35 28.65 18.75 28.95 Q15.65 35.2 14.9 46.15 17.85 48.35 20.8 52.75 15.05 51.6 10.15 48.3 7.6 38.5 3.7 33.1 L3.25 33.1 3.1 33.1 0.65 33.2 -1.4 33.15 -1.85 33.15 Q-5.8 38.5 -8.65 48.5 -12.05 51.1 -17.85 52.85 -16.1 49.2 -12.8 46.1 -13.75 35.75 -16.05 29.7 L-17.95 28.75 Q-21.25 26.9 -24.1 24.5 -34.3 15.85 -34.3 3.6 -34.3 -0.95 -32.95 -4.95 L-31.95 -7.45 Q-31.0 -11.1 -32.95 -15.4 L-37.95 -25.95 -42.75 -26.35 Q-45.1 -26.7 -43.75 -28.4 L-42.8 -29.6 -44.6 -33.25 Q-45.35 -34.85 -43.8 -34.5 L-39.8 -33.35 -38.9 -34.45 Q-38.15 -35.35 -37.55 -34.15 L-36.15 -30.9 -28.65 -26.65 Q-21.35 -23.05 -16.3 -29.0 -14.7 -31.9 -13.6 -34.7 L-13.35 -35.25 -12.95 -36.0 -11.85 -37.15" fill="none" stroke="#b000b0" stroke-linecap="round" stroke-linejoin="round" stroke-width="0.05"/>
  </g>
  <defs>
    <radialGradient cx="0" cy="0" gradientTransform="matrix(0.1258, 0.0, 0.0, 0.1258, 41.2, -31.6)" gradientUnits="userSpaceOnUse" id="gradient0" r="819.2" spreadMethod="pad">
      <stop offset="0.0" stop-color="#ffb3ff"/>
      <stop offset="0.2823529411764706" stop-color="#ff6fff"/>
      <stop offset="0.7137254901960784" stop-color="#ff00ff"/>
      <stop offset="0.996078431372549" stop-color="#ff00ff"/>
    </radialGradient>
  </defs>
</svg>
