<?xml version="1.0" encoding="UTF-8" standalone="no"?>
<svg xmlns:xlink="http://www.w3.org/1999/xlink" height="86.65px" width="73.3px" xmlns="http://www.w3.org/2000/svg">
  <g transform="matrix(1.0, 0.0, 0.0, 1.0, 36.6, 43.3)">
    <path d="M32.9 -27.9 L35.05 -28.8 36.45 -28.85 Q36.85 -28.6 36.55 -27.6 L35.55 -24.8 36.2 -24.0 Q36.5 -23.55 36.25 -23.2 36.05 -22.9 35.35 -22.75 L32.6 -22.4 27.9 -14.3 Q25.6 -10.15 26.9 -6.9 L26.85 -6.9 27.45 -5.85 Q29.3 -1.8 29.3 3.0 29.25 13.05 20.85 20.15 L17.7 22.5 15.9 23.55 15.95 23.55 15.45 23.85 Q12.9 28.85 12.35 37.7 14.7 39.5 17.1 43.1 L17.15 43.2 17.1 43.25 17.0 43.3 Q12.3 42.3 8.3 39.6 L8.25 39.55 Q6.15 31.6 3.0 27.25 L2.7 27.25 2.6 27.25 0.55 27.3 -1.1 27.3 -1.45 27.25 Q-4.6 31.6 -6.9 39.75 L-6.95 39.8 Q-9.75 41.9 -14.5 43.35 L-14.6 43.3 -14.65 43.25 -14.65 43.15 Q-13.2 40.2 -10.55 37.65 -11.4 29.25 -13.2 24.35 L-13.2 24.25 -14.6 23.5 Q-17.35 22.0 -19.65 20.05 -28.0 13.0 -28.0 3.0 -28.0 -0.7 -26.9 -4.0 L-26.05 -6.05 Q-25.3 -9.05 -26.9 -12.55 L-30.95 -21.15 -34.9 -21.5 Q-36.8 -21.8 -35.7 -23.2 L-34.95 -24.15 -36.4 -27.15 Q-37.0 -28.45 -35.75 -28.15 L-32.5 -27.2 -31.75 -28.1 Q-31.15 -28.85 -30.65 -27.85 L-29.5 -25.2 -23.4 -21.75 Q-17.4 -18.75 -13.3 -23.65 -12.0 -26.0 -11.1 -28.3 L-10.9 -28.75 -10.55 -29.4 -9.75 -30.2 -9.75 -30.25 -10.05 -31.1 -10.4 -31.55 -10.4 -31.6 Q-10.65 -32.05 -10.4 -32.3 L-10.35 -32.3 -9.65 -32.95 Q-8.75 -34.1 -8.45 -36.0 -8.1 -38.2 -7.0 -39.65 L-6.95 -39.8 -6.75 -40.4 -6.75 -40.35 -6.3 -40.6 -6.05 -40.7 Q-5.2 -41.55 -3.9 -42.0 L-3.7 -42.05 -3.6 -42.1 -3.6 -42.2 -3.5 -42.3 -2.85 -42.5 -2.7 -42.5 -2.5 -42.45 -2.35 -42.45 -2.3 -42.45 -1.85 -42.55 -1.8 -42.55 Q-1.0 -42.75 -0.35 -43.1 L0.5 -43.2 Q0.95 -42.8 1.45 -42.7 L1.95 -42.6 2.0 -42.6 2.2 -42.65 2.5 -42.7 3.0 -42.55 3.1 -42.4 3.1 -42.45 3.35 -42.25 3.95 -42.0 6.3 -40.55 6.4 -40.45 6.45 -40.45 6.9 -40.2 6.9 -40.25 7.15 -39.75 7.1 -39.7 7.15 -39.55 7.2 -39.5 7.2 -39.45 Q8.1 -38.15 8.3 -36.4 8.6 -34.0 9.8 -32.7 L9.8 -32.75 10.3 -32.3 10.3 -32.25 Q10.65 -31.85 10.35 -31.3 L10.15 -30.95 10.15 -30.9 10.05 -30.7 10.65 -29.95 10.65 -29.9 11.35 -28.2 Q11.75 -27.15 12.55 -25.85 L12.9 -25.3 Q15.8 -20.9 20.1 -21.55 L29.5 -24.2 30.95 -27.9 31.0 -27.95 31.0 -28.0 Q31.25 -28.65 31.6 -28.8 31.95 -28.95 32.35 -28.55 L32.35 -28.5 32.9 -27.9" fill="#000000" fill-rule="evenodd" stroke="none"/>
  </g>
</svg>
