<?xml version="1.0" encoding="UTF-8" standalone="no"?>
<svg xmlns:xlink="http://www.w3.org/1999/xlink" height="231.35px" width="240.1px" xmlns="http://www.w3.org/2000/svg">
  <g transform="matrix(1.0, 0.0, 0.0, 1.0, 115.75, 109.05)">
    <path d="M1.55 -63.4 L1.55 -61.3 1.4 -61.35 0.55 -61.9 -1.75 -61.05 -1.8 -59.95 Q-1.9 -58.95 -2.85 -59.45 L-5.35 -60.9 -12.3 -60.15 Q-18.9 -59.05 -19.35 -52.65 -19.05 -50.05 -18.4 -47.6 L-18.3 -47.1 -18.2 -46.4 Q-18.2 -45.8 -18.35 -45.3 L-18.35 -45.25 -17.6 -44.7 -17.05 -44.55 Q-16.6 -44.35 -16.65 -43.95 L-16.85 -43.0 Q-16.9 -41.55 -16.0 -39.8 -15.05 -37.85 -15.05 -36.0 L-15.0 -35.9 -14.85 -35.3 -14.85 -35.25 -15.05 -34.8 -15.2 -34.6 -15.2 -34.65 Q-15.45 -33.45 -16.2 -32.3 L-16.3 -32.1 -16.35 -32.05 -16.3 -31.95 -16.35 -31.8 Q-16.4 -31.5 -16.75 -31.25 L-16.85 -31.15 -17.05 -31.1 -17.15 -31.0 -17.2 -31.0 -17.5 -30.65 -17.55 -30.6 -18.4 -29.3 -18.4 -29.35 Q-18.6 -28.8 -19.05 -28.75 L-20.1 -28.6 -20.55 -28.35 -20.6 -28.35 -20.75 -28.15 -20.75 -28.2 -20.95 -27.95 -21.45 -27.8 -21.6 -27.85 -21.6 -27.8 -21.9 -27.85 -21.9 -27.8 -22.55 -27.65 -25.3 -27.5 -25.4 -27.5 -25.45 -27.45 -26.0 -27.4 -25.95 -27.35 -26.4 -27.6 -26.45 -27.7 -26.55 -27.75 -26.6 -27.8 -26.65 -27.8 Q-28.2 -28.35 -29.3 -29.65 L-29.35 -29.7 Q-31.0 -31.45 -32.75 -31.75 L-32.7 -31.75 -33.4 -31.8 Q-33.9 -31.95 -34.0 -32.6 L-34.05 -33.0 -34.1 -33.0 -34.1 -33.2 Q-34.5 -33.2 -35.05 -33.5 L-35.05 -33.55 -36.6 -34.5 -39.0 -35.7 -39.6 -35.9 Q-44.55 -37.8 -47.6 -34.75 L-53.7 -27.05 -52.65 -23.25 -52.65 -23.15 Q-52.45 -22.45 -52.65 -22.15 -52.85 -21.8 -53.45 -21.9 L-54.25 -22.1 -55.45 -20.05 Q-56.05 -19.15 -56.55 -19.2 -57.05 -19.25 -57.35 -20.2 L-58.2 -23.0 -59.2 -23.25 Q-59.75 -23.5 -59.75 -23.9 L-59.25 -24.8 -57.25 -26.7 -58.2 -36.0 Q-58.8 -40.75 -61.7 -42.6 L-62.8 -43.15 Q-66.7 -45.35 -69.5 -49.2 -75.4 -57.35 -72.75 -68.05 L-71.55 -71.8 -70.75 -73.7 -70.5 -74.2 Q-71.45 -79.75 -76.15 -87.25 -79.15 -87.3 -83.2 -88.8 L-83.25 -88.85 -83.25 -88.95 -83.2 -89.0 Q-78.9 -91.0 -74.0 -91.15 L-73.9 -91.15 Q-67.6 -85.95 -62.45 -84.25 L-62.2 -84.45 -62.15 -84.5 -60.5 -85.75 -59.2 -86.7 -59.15 -86.7 -58.85 -86.85 Q-58.9 -92.25 -61.8 -100.2 L-61.8 -100.3 Q-60.8 -103.65 -57.75 -107.6 L-57.7 -107.6 -57.6 -107.6 -57.55 -107.5 Q-57.0 -104.3 -57.6 -100.65 -52.05 -94.35 -47.65 -91.45 L-47.6 -91.4 -46.0 -91.6 -39.9 -91.75 Q-29.0 -90.95 -23.15 -82.85 -20.95 -79.9 -19.9 -76.55 L-19.4 -74.4 Q-18.25 -71.55 -14.9 -69.65 L-6.55 -65.1 -3.15 -67.1 Q-1.45 -68.0 -1.5 -66.2 L-1.55 -65.0 1.35 -63.4 1.4 -63.4 1.5 -63.35 1.55 -63.4" fill="url(#gradient0)" fill-rule="evenodd" stroke="none"/>
    <path d="M-74.55 -2.85 L-72.35 -2.7 Q-69.25 -2.9 -66.4 -5.5 L-59.5 -12.05 -60.4 -15.9 Q-60.7 -17.8 -59.0 -17.2 L-57.9 -16.75 -55.45 -19.05 Q-54.45 -20.0 -54.3 -18.75 L-54.2 -15.35 -53.15 -14.95 Q-52.25 -14.55 -53.0 -13.8 L-55.15 -11.9 -56.6 -5.0 Q-57.6 1.6 -51.65 4.0 L-46.55 4.65 -46.05 4.7 -45.35 4.8 Q-44.75 5.0 -44.3 5.35 L-44.3 5.3 -43.55 4.8 -43.2 4.3 Q-42.85 3.9 -42.55 4.1 L-42.5 4.1 -41.7 4.6 -38.4 4.75 -34.45 5.05 -34.5 5.05 -34.35 5.05 Q-34.0 4.9 -33.7 5.05 -33.45 5.15 -33.35 5.4 L-33.2 5.6 Q-32.15 6.2 -31.3 7.25 L-31.25 7.25 -31.15 7.45 -31.1 7.5 -31.0 7.5 -30.9 7.55 Q-30.6 7.7 -30.45 8.1 L-30.45 8.25 -30.45 8.45 -30.35 8.6 -30.35 8.65 -30.15 9.0 -30.1 9.1 -29.15 10.3 Q-28.7 10.6 -28.8 11.05 L-28.95 12.1 -28.9 12.65 -28.9 12.7 -28.75 12.85 -28.8 12.9 -28.65 13.15 -28.65 13.65 -28.75 13.8 -28.7 13.8 -28.8 14.1 -28.85 14.75 Q-29.0 16.2 -29.55 17.4 L-29.55 17.55 -29.55 17.6 -29.65 18.1 -30.0 18.45 -30.1 18.45 -30.2 18.55 -30.25 18.6 Q-31.25 19.9 -32.85 20.6 -35.05 21.6 -35.9 23.15 L-35.85 23.15 -36.15 23.8 Q-36.45 24.25 -37.05 24.15 L-37.45 24.05 -37.5 24.05 -37.7 24.05 -38.25 24.8 -38.3 24.8 -39.7 26.0 -41.55 27.9 -41.95 28.4 Q-45.3 32.5 -43.3 36.4 L-37.9 44.55 -33.95 44.75 -33.9 44.8 -33.85 44.75 Q-33.15 44.8 -32.9 45.1 -32.65 45.35 -32.9 45.9 L-33.35 46.6 -31.8 48.4 Q-31.15 49.25 -31.3 49.7 -31.5 50.15 -32.5 50.15 L-35.45 50.1 -36.0 50.95 Q-36.4 51.4 -36.75 51.25 L-37.45 50.5 -38.65 48.05 -47.8 46.1 Q-52.5 45.15 -55.15 47.4 L-55.15 47.35 -56.0 48.25 Q-59.3 51.25 -63.85 52.75 -73.4 55.85 -82.75 50.0 L-85.95 47.75 -87.5 46.35 -87.5 46.4 -87.95 46.0 Q-93.5 45.15 -102.1 47.35 -103.05 50.15 -105.7 53.55 L-105.8 53.6 -105.9 53.55 -105.95 53.5 Q-106.5 48.7 -105.15 44.05 L-105.1 44.0 Q-98.2 39.55 -95.0 35.2 L-95.1 34.95 -95.15 34.85 -95.8 32.9 -96.3 31.35 -96.3 31.3 -96.4 31.0 Q-101.55 29.35 -109.95 29.65 L-110.05 29.65 Q-112.9 27.65 -115.75 23.55 L-115.75 23.45 -115.7 23.35 -115.6 23.35 Q-112.35 23.8 -109.1 25.55 -101.4 22.15 -97.3 18.9 L-97.2 18.9 -96.9 17.3 Q-96.35 14.25 -95.2 11.45 -91.05 1.3 -81.5 -1.75 -78.05 -2.9 -74.55 -2.85" fill="url(#gradient1)" fill-rule="evenodd" stroke="none"/>
    <path d="M40.4 48.9 L41.2 50.25 41.65 50.95 41.55 51.35 40.55 54.15 41.2 54.95 Q41.5 55.4 41.25 55.75 41.05 56.05 40.35 56.2 L37.6 56.55 32.9 64.65 Q30.6 68.8 31.9 72.05 L31.85 72.05 32.45 73.1 Q34.3 77.15 34.3 81.95 34.25 92.0 25.85 99.1 L22.7 101.45 20.9 102.5 20.95 102.5 20.45 102.8 Q17.9 107.8 17.35 116.65 19.7 118.45 22.1 122.05 L22.15 122.15 22.1 122.2 22.0 122.25 Q17.3 121.25 13.3 118.55 L13.25 118.5 Q11.15 110.55 8.0 106.2 L7.7 106.2 7.6 106.2 5.55 106.25 3.9 106.25 3.55 106.2 Q0.4 110.55 -1.9 118.7 L-1.95 118.75 Q-4.75 120.85 -9.5 122.3 L-9.6 122.25 -9.65 122.2 -9.65 122.1 Q-8.2 119.15 -5.55 116.6 -6.4 108.2 -8.2 103.3 L-8.2 103.2 -9.6 102.45 -14.65 99.0 Q-23.0 91.95 -23.0 81.95 -23.0 78.25 -21.9 74.95 L-21.05 72.9 Q-20.3 69.9 -21.9 66.4 L-25.95 57.8 -29.9 57.45 Q-31.8 57.15 -30.7 55.75 L-29.95 54.8 -31.4 51.8 Q-32.0 50.5 -30.75 50.8 L-27.5 51.75 -26.75 50.85 Q-26.15 50.1 -25.65 51.1 L-24.5 53.75 -18.4 57.2 Q-12.4 60.2 -8.3 55.3 L-6.1 50.65 -5.9 50.2 -5.55 49.55 -4.75 48.75 -4.75 48.7 -5.05 47.85 -5.4 47.4 -5.4 47.35 Q-5.65 46.9 -5.4 46.65 L-5.35 46.65 -4.65 46.0 Q-3.75 44.85 -3.45 42.95 -3.1 40.75 -2.0 39.3 L-1.95 39.15 -1.75 38.55 -1.75 38.6 Q-1.6 38.35 -1.3 38.35 L-1.05 38.25 Q-0.2 37.4 1.1 36.95 L1.3 36.9 1.4 36.85 1.4 36.75 1.5 36.65 Q1.75 36.4 2.15 36.45 L2.3 36.45 2.5 36.5 2.65 36.5 2.7 36.5 3.15 36.4 3.2 36.4 4.65 35.85 5.5 35.75 Q5.95 36.15 6.45 36.25 L6.95 36.35 7.0 36.35 7.2 36.3 7.5 36.25 8.0 36.4 8.1 36.55 8.1 36.5 8.35 36.7 8.95 36.95 Q10.3 37.55 11.3 38.4 L11.4 38.5 11.45 38.5 11.9 38.75 11.9 38.7 12.15 39.2 12.1 39.25 12.15 39.4 12.2 39.45 12.2 39.5 Q13.1 40.8 13.3 42.55 13.6 44.95 14.8 46.25 L14.8 46.2 15.3 46.65 15.3 46.7 Q15.65 47.1 15.35 47.65 L15.15 48.0 15.15 48.05 15.05 48.25 15.65 49.0 15.65 49.05 16.35 50.75 17.55 53.1 17.9 53.65 Q20.8 58.05 25.1 57.4 L34.5 54.75 35.95 51.05 36.0 51.0 36.0 50.95 Q36.25 50.3 36.6 50.15 36.95 50.0 37.35 50.4 L37.35 50.45 37.9 51.05 40.05 50.15 40.1 50.15 Q39.75 49.9 40.15 49.3 L40.4 48.9" fill="url(#gradient2)" fill-rule="evenodd" stroke="none"/>
    <path d="M1.55 -63.4 L3.55 -64.75 3.6 -64.8 3.55 -65.85 Q3.6 -66.45 4.0 -66.55 L5.0 -66.35 7.4 -65.0 16.0 -68.8 17.25 -69.5 Q20.4 -71.35 21.15 -74.2 L21.35 -75.35 Q22.2 -79.75 25.05 -83.6 30.95 -91.75 41.95 -92.55 L45.9 -92.6 47.95 -92.4 47.9 -92.4 48.5 -92.35 Q53.45 -94.95 59.15 -101.75 58.25 -104.6 58.45 -108.9 L58.5 -109.0 58.55 -109.0 58.65 -109.0 Q61.85 -105.45 63.55 -100.9 L63.55 -100.8 Q60.55 -93.15 60.55 -87.75 L60.8 -87.6 60.85 -87.55 62.55 -86.4 63.9 -85.4 64.15 -85.15 Q69.25 -86.85 75.9 -92.05 L76.0 -92.1 Q79.45 -92.2 84.2 -90.5 L84.25 -90.45 84.25 -90.35 84.2 -90.3 Q81.25 -88.75 77.65 -88.25 73.35 -81.0 71.95 -75.9 L71.9 -75.85 72.6 -74.4 Q73.9 -71.65 74.65 -68.65 77.25 -58.05 71.35 -49.95 69.2 -46.95 66.35 -44.95 L64.5 -43.75 Q62.1 -41.8 61.35 -38.0 L59.6 -28.65 62.6 -26.05 Q63.95 -24.75 62.25 -24.2 L61.05 -23.9 60.5 -20.8 60.45 -20.65 Q60.2 -19.25 59.35 -20.2 L57.25 -22.85 56.15 -22.6 Q55.2 -22.4 55.4 -23.45 L56.0 -26.25 53.1 -32.65 Q50.0 -38.6 43.8 -37.0 L39.3 -34.55 38.85 -34.3 38.25 -34.0 37.1 -33.8 37.1 -33.75 36.8 -32.9 36.8 -32.3 Q36.75 -31.8 36.4 -31.75 L36.35 -31.75 35.4 -31.65 Q34.0 -31.25 32.65 -29.85 31.05 -28.35 29.3 -27.8 L29.2 -27.7 28.7 -27.35 28.2 -27.4 27.95 -27.5 25.45 -27.7 25.4 -27.7 25.2 -27.75 25.15 -27.8 25.05 -27.75 24.95 -27.7 24.25 -27.9 24.15 -28.0 24.05 -28.15 23.9 -28.25 23.45 -28.45 23.4 -28.5 21.9 -28.9 21.95 -28.9 Q21.3 -28.9 21.2 -29.3 L20.7 -30.25 20.35 -30.65 20.3 -30.7 20.1 -30.75 20.1 -30.8 Q19.95 -30.8 19.85 -30.9 19.55 -31.1 19.55 -31.35 L19.55 -31.5 19.5 -31.45 19.4 -31.8 19.4 -31.75 19.05 -32.3 Q18.3 -33.6 18.05 -34.85 L18.05 -34.9 18.0 -35.0 17.95 -35.05 17.75 -35.5 17.7 -35.5 17.8 -36.0 17.9 -36.05 17.9 -36.15 17.95 -36.25 17.9 -36.25 17.95 -36.3 Q17.95 -37.9 18.85 -39.4 20.0 -41.55 19.8 -43.25 L19.65 -43.9 19.65 -43.95 Q19.6 -44.45 20.2 -44.75 L20.55 -44.9 20.6 -44.95 20.75 -45.05 Q20.6 -45.4 20.75 -46.0 L20.8 -46.0 21.2 -47.85 21.6 -50.45 21.65 -51.1 Q21.9 -56.4 18.05 -58.35 L8.85 -61.75 5.55 -59.6 5.45 -59.6 5.45 -59.55 Q4.85 -59.15 4.5 -59.25 4.1 -59.35 4.0 -59.9 L3.95 -60.75 1.65 -61.25 1.55 -61.3 1.55 -63.4" fill="url(#gradient3)" fill-rule="evenodd" stroke="none"/>
    <path d="M40.4 48.9 L42.05 46.45 41.4 45.5 Q40.9 44.65 42.0 44.5 L44.85 44.2 50.05 39.5 Q54.7 34.7 51.35 29.3 L47.6 25.75 47.25 25.45 46.75 24.95 46.2 23.9 46.15 23.9 45.25 23.9 44.7 24.1 Q44.2 24.2 44.05 23.85 L43.65 23.0 Q42.85 21.75 41.1 20.9 39.1 19.85 38.05 18.35 L38.1 18.35 37.95 18.3 37.45 17.9 37.5 17.9 Q37.3 17.65 37.4 17.4 L37.4 17.15 Q36.85 16.05 36.8 14.7 L36.8 14.5 36.8 14.4 36.7 14.35 36.65 14.2 Q36.5 13.9 36.65 13.55 L36.7 13.4 36.8 13.2 36.85 13.05 36.9 12.6 36.9 12.5 36.85 11.0 Q36.65 10.4 37.0 10.15 L37.75 9.4 38.05 8.95 38.05 8.9 38.05 8.7 38.1 8.7 38.1 8.4 38.4 7.95 38.6 7.9 38.55 7.9 38.8 7.7 39.2 7.2 Q40.2 6.1 41.35 5.45 L41.45 5.35 41.45 5.3 Q41.5 5.05 41.85 4.95 L41.8 4.95 42.35 4.9 42.4 4.95 42.55 4.95 42.6 4.95 42.6 4.9 42.65 4.9 Q44.15 4.45 45.9 4.85 L49.85 4.55 49.85 4.5 50.45 4.2 Q50.95 3.95 51.4 4.45 L51.65 4.75 51.7 4.75 51.85 4.9 Q52.1 4.65 52.75 4.6 L52.8 4.6 54.65 4.5 57.25 4.05 57.85 3.85 Q62.95 2.45 63.65 -1.8 L64.05 -11.55 61.0 -14.05 60.95 -14.15 60.9 -14.15 Q60.35 -14.6 60.35 -14.95 60.25 -15.35 60.8 -15.65 L60.85 -15.6 61.6 -15.9 61.4 -18.3 Q61.35 -19.4 61.75 -19.6 L61.9 -19.7 62.25 -19.7 63.0 -19.3 65.35 -17.5 66.3 -17.9 67.1 -17.7 67.2 -16.65 66.7 -13.95 73.0 -7.0 Q76.2 -3.55 79.7 -3.75 L79.65 -3.7 80.85 -3.95 Q85.3 -4.45 89.85 -2.95 99.4 0.15 103.55 10.4 L104.8 14.1 105.25 16.1 105.3 16.1 105.4 16.65 Q109.4 20.6 117.65 23.9 120.05 22.15 124.2 21.0 L124.3 21.0 124.35 21.1 124.35 21.2 Q122.0 25.35 118.2 28.35 L118.1 28.35 Q109.9 27.85 104.75 29.55 L104.7 29.8 104.65 29.9 104.05 31.85 103.55 33.45 103.4 33.75 Q106.6 38.1 113.6 42.8 L113.65 42.9 Q114.8 46.15 114.7 51.15 L114.65 51.25 114.55 51.3 114.45 51.25 Q112.1 48.95 110.5 45.65 102.25 43.8 97.05 44.05 L96.95 44.05 95.8 45.15 90.95 48.85 Q81.65 54.6 72.15 51.5 68.6 50.35 65.85 48.3 L64.15 46.9 Q61.55 45.2 57.7 45.65 L48.3 46.9 46.7 50.55 Q45.85 52.25 44.85 50.75 L44.2 49.75 41.45 50.1 41.2 50.25 40.4 48.9" fill="url(#gradient4)" fill-rule="evenodd" stroke="none"/>
    <path d="M-74.55 -2.85 Q-78.05 -2.9 -81.5 -1.75 -91.05 1.3 -95.2 11.45 -96.35 14.25 -96.9 17.3 L-97.2 18.9 -97.3 18.9 Q-101.4 22.15 -109.1 25.55 -112.35 23.8 -115.6 23.35 L-115.7 23.35 -115.75 23.45 -115.75 23.55 Q-112.9 27.65 -110.05 29.65 L-109.95 29.65 Q-101.55 29.35 -96.4 31.0 L-96.3 31.3 -96.3 31.35 -95.8 32.9 -95.15 34.85 -95.1 34.95 -95.0 35.2 Q-98.2 39.55 -105.1 44.0 L-105.15 44.05 Q-106.5 48.7 -105.95 53.5 L-105.9 53.55 -105.8 53.6 -105.7 53.55 Q-103.05 50.15 -102.1 47.35 -93.5 45.15 -87.95 46.0 L-87.5 46.4 -87.5 46.35 -85.95 47.75 -82.75 50.0 Q-73.4 55.85 -63.85 52.75 -59.3 51.25 -56.0 48.25 L-55.15 47.35 -55.15 47.4 Q-52.5 45.15 -47.8 46.1 L-38.65 48.05 -37.45 50.5 -36.75 51.25 Q-36.4 51.4 -36.0 50.95 L-35.45 50.1 -32.5 50.15 Q-31.5 50.15 -31.3 49.7 -31.15 49.25 -31.8 48.4 L-33.35 46.6 -32.9 45.9 Q-32.65 45.35 -32.9 45.1 -33.15 44.8 -33.85 44.75 L-33.9 44.8 -33.95 44.75 -37.9 44.55 -43.3 36.4 Q-45.3 32.5 -41.95 28.4 L-41.55 27.9 -39.7 26.0 -38.3 24.8 -38.25 24.8 -37.7 24.05 -37.5 24.05 -37.45 24.05 -37.05 24.15 Q-36.45 24.25 -36.15 23.8 L-35.85 23.15 -35.9 23.15 Q-35.05 21.6 -32.85 20.6 -31.25 19.9 -30.25 18.6 L-30.2 18.55 -30.1 18.45 -30.0 18.45 -29.65 18.1 -29.55 17.6 -29.55 17.55 -29.55 17.4 Q-29.0 16.2 -28.85 14.75 L-28.8 14.1 -28.7 13.8 -28.75 13.8 -28.65 13.65 -28.65 13.15 -28.8 12.9 -28.75 12.85 -28.9 12.7 -28.9 12.65 -28.95 12.1 -28.8 11.05 Q-28.7 10.6 -29.15 10.3 L-30.1 9.1 -30.15 9.0 -30.35 8.65 -30.35 8.6 -30.45 8.45 -30.45 8.25 -30.45 8.1 Q-30.6 7.7 -30.9 7.55 L-31.0 7.5 -31.1 7.5 -31.15 7.45 -31.25 7.25 -31.3 7.25 Q-32.15 6.2 -33.2 5.6 L-33.35 5.4 Q-33.45 5.15 -33.7 5.05 -34.0 4.9 -34.35 5.05 L-34.5 5.05 -34.45 5.05 -38.4 4.75 -41.7 4.6 -42.5 4.1 -42.55 4.1 Q-42.85 3.9 -43.2 4.3 L-43.55 4.8 -44.3 5.3 -44.3 5.35 Q-44.75 5.0 -45.35 4.8 L-46.05 4.7 -46.55 4.65 -51.65 4.0 Q-57.6 1.6 -56.6 -5.0 L-55.15 -11.9 -53.0 -13.8 Q-52.25 -14.55 -53.15 -14.95 L-54.2 -15.35 -54.3 -18.75 Q-54.45 -20.0 -55.45 -19.05 L-57.9 -16.75 -59.0 -17.2 Q-60.7 -17.8 -60.4 -15.9 L-59.5 -12.05 -66.4 -5.5 Q-69.25 -2.9 -72.35 -2.7 L-74.55 -2.85" fill="none" stroke="#006699" stroke-linecap="round" stroke-linejoin="round" stroke-width="0.05"/>
    <path d="M1.4 -63.4 L1.35 -63.4 -1.55 -65.0 -1.5 -66.2 Q-1.45 -68.0 -3.15 -67.1 L-6.55 -65.1 -14.9 -69.65 Q-18.25 -71.55 -19.4 -74.4 L-19.9 -76.55 Q-20.95 -79.9 -23.15 -82.85 -29.0 -90.95 -39.9 -91.75 L-46.0 -91.6 -47.6 -91.4 -47.65 -91.45 Q-52.05 -94.35 -57.6 -100.65 -57.0 -104.3 -57.55 -107.5 L-57.6 -107.6 -57.7 -107.6 -57.75 -107.6 Q-60.8 -103.65 -61.8 -100.3 L-61.8 -100.2 Q-58.9 -92.25 -58.85 -86.85 L-59.15 -86.7 -59.2 -86.7 -60.5 -85.75 -62.15 -84.5 -62.2 -84.45 -62.45 -84.25 Q-67.6 -85.95 -73.9 -91.15 L-74.0 -91.15 Q-78.9 -91.0 -83.2 -89.0 L-83.25 -88.95 -83.25 -88.85 -83.2 -88.8 Q-79.15 -87.3 -76.15 -87.25 -71.45 -79.75 -70.5 -74.2 L-70.75 -73.7 -71.55 -71.8 -72.75 -68.05 Q-75.4 -57.35 -69.5 -49.2 -66.7 -45.35 -62.8 -43.15 L-61.7 -42.6 Q-58.8 -40.75 -58.2 -36.0 L-57.25 -26.7 -59.25 -24.8 -59.75 -23.9 Q-59.75 -23.5 -59.2 -23.25 L-58.2 -23.0 -57.35 -20.2 Q-57.05 -19.25 -56.55 -19.2 -56.05 -19.15 -55.45 -20.05 L-54.25 -22.1 -53.45 -21.9 Q-52.85 -21.8 -52.65 -22.15 -52.45 -22.45 -52.65 -23.15 L-52.65 -23.25 -53.7 -27.05 -47.6 -34.75 Q-44.55 -37.8 -39.6 -35.9 L-39.0 -35.7 -36.6 -34.5 -35.05 -33.55 -35.05 -33.5 Q-34.5 -33.2 -34.1 -33.2 L-34.1 -33.0 -34.05 -33.0 -34.0 -32.6 Q-33.9 -31.95 -33.4 -31.8 L-32.7 -31.75 -32.75 -31.75 Q-31.0 -31.45 -29.35 -29.7 L-29.3 -29.65 Q-28.2 -28.35 -26.65 -27.8 L-26.6 -27.8 -26.55 -27.75 -26.45 -27.7 -26.4 -27.6 -25.95 -27.35 -26.0 -27.4 -25.45 -27.45 -25.4 -27.5 -25.3 -27.5 -22.55 -27.65 -21.9 -27.8 -21.9 -27.85 -21.6 -27.8 -21.6 -27.85 -21.45 -27.8 -20.95 -27.95 -20.75 -28.2 -20.75 -28.15 -20.6 -28.35 -20.55 -28.35 -20.1 -28.6 -19.05 -28.75 Q-18.6 -28.8 -18.4 -29.35 L-18.4 -29.3 -17.55 -30.6 -17.5 -30.65 -17.2 -31.0 -17.15 -31.0 -17.05 -31.1 -16.85 -31.15 -16.75 -31.25 Q-16.4 -31.5 -16.35 -31.8 L-16.3 -31.95 -16.35 -32.05 -16.3 -32.1 -16.2 -32.3 Q-15.45 -33.45 -15.2 -34.65 L-15.2 -34.6 -15.05 -34.8 -14.85 -35.25 -14.85 -35.3 -15.0 -35.9 -15.05 -36.0 Q-15.05 -37.85 -16.0 -39.8 -16.9 -41.55 -16.85 -43.0 L-16.65 -43.95 Q-16.6 -44.35 -17.05 -44.55 L-17.6 -44.7 -18.35 -45.25 -18.35 -45.3 Q-18.2 -45.8 -18.2 -46.4 L-18.3 -47.1 -18.4 -47.6 Q-19.05 -50.05 -19.35 -52.65 -18.9 -59.05 -12.3 -60.15 L-5.35 -60.9 -2.85 -59.45 Q-1.9 -58.95 -1.8 -59.95 L-1.75 -61.05 0.55 -61.9 1.4 -61.35" fill="none" stroke="#959500" stroke-linecap="round" stroke-linejoin="round" stroke-width="0.05"/>
    <path d="M60.5 -20.8 L61.05 -23.9 62.25 -24.2 Q63.95 -24.75 62.6 -26.05 L59.6 -28.65 61.35 -38.0 Q62.1 -41.8 64.5 -43.75 L66.35 -44.95 Q69.2 -46.95 71.35 -49.95 77.25 -58.05 74.65 -68.65 73.9 -71.65 72.6 -74.4 L71.9 -75.85 71.95 -75.9 Q73.35 -81.0 77.65 -88.25 81.25 -88.75 84.2 -90.3 L84.25 -90.35 84.25 -90.45 84.2 -90.5 Q79.45 -92.2 76.0 -92.1 L75.9 -92.05 Q69.25 -86.85 64.15 -85.15 L63.9 -85.4 62.55 -86.4 60.85 -87.55 60.8 -87.6 60.55 -87.75 Q60.55 -93.15 63.55 -100.8 L63.55 -100.9 Q61.85 -105.45 58.65 -109.0 L58.55 -109.0 58.5 -109.0 58.45 -108.9 Q58.25 -104.6 59.15 -101.75 53.45 -94.95 48.5 -92.35 L47.9 -92.4 47.95 -92.4 45.9 -92.6 41.95 -92.55 Q30.95 -91.75 25.05 -83.6 22.2 -79.75 21.35 -75.35 L21.15 -74.2 Q20.4 -71.35 17.25 -69.5 L16.0 -68.8 7.4 -65.0 5.0 -66.35 4.0 -66.55 Q3.6 -66.45 3.55 -65.85 L3.6 -64.8 3.55 -64.75 1.55 -63.4 1.5 -63.35 1.4 -63.4 M1.55 -61.3 L1.65 -61.25 3.95 -60.75 4.0 -59.9 Q4.1 -59.35 4.5 -59.25 4.85 -59.15 5.45 -59.55 L5.45 -59.6 5.55 -59.6 8.85 -61.75 18.05 -58.35 Q21.9 -56.4 21.65 -51.1 L21.6 -50.45 21.2 -47.85 20.8 -46.0 20.75 -46.0 Q20.6 -45.4 20.75 -45.05 L20.6 -44.95 20.55 -44.9 20.2 -44.75 Q19.6 -44.45 19.65 -43.95 L19.65 -43.9 19.8 -43.25 Q20.0 -41.55 18.85 -39.4 17.95 -37.9 17.95 -36.3 L17.9 -36.25 17.95 -36.25 17.9 -36.15 17.9 -36.05 17.8 -36.0 17.7 -35.5 17.75 -35.5 17.95 -35.05 18.0 -35.0 18.05 -34.9 18.05 -34.85 Q18.3 -33.6 19.05 -32.3 L19.4 -31.75 19.4 -31.8 19.5 -31.45 19.55 -31.5 19.55 -31.35 Q19.55 -31.1 19.85 -30.9 19.95 -30.8 20.1 -30.8 L20.1 -30.75 20.3 -30.7 20.35 -30.65 20.7 -30.25 21.2 -29.3 Q21.3 -28.9 21.95 -28.9 L21.9 -28.9 23.4 -28.5 23.45 -28.45 23.9 -28.25 24.05 -28.15 24.15 -28.0 24.25 -27.9 24.95 -27.7 25.05 -27.75 25.15 -27.8 25.2 -27.75 25.4 -27.7 25.45 -27.7 27.95 -27.5 28.2 -27.4 28.7 -27.35 29.2 -27.7 29.3 -27.8 Q31.05 -28.35 32.65 -29.85 34.0 -31.25 35.4 -31.65 L36.35 -31.75 36.4 -31.75 Q36.75 -31.8 36.8 -32.3 L36.8 -32.9 37.1 -33.75 37.1 -33.8 38.25 -34.0 38.85 -34.3 39.3 -34.55 43.8 -37.0 Q50.0 -38.6 53.1 -32.65 L56.0 -26.25 55.4 -23.45 Q55.2 -22.4 56.15 -22.6 L57.25 -22.85 59.35 -20.2 Q60.2 -19.25 60.45 -20.65 M1.4 -61.35 L1.55 -61.3" fill="none" stroke="#660066" stroke-linecap="round" stroke-linejoin="round" stroke-width="0.05"/>
    <path d="M60.45 -20.65 L60.5 -20.8" fill="none" stroke="#ff3300" stroke-linecap="round" stroke-linejoin="round" stroke-width="0.05"/>
    <path d="M41.2 50.25 L41.45 50.1 44.2 49.75 44.85 50.75 Q45.85 52.25 46.7 50.55 L48.3 46.9 57.7 45.65 Q61.55 45.2 64.15 46.9 L65.85 48.3 Q68.6 50.35 72.15 51.5 81.65 54.6 90.95 48.85 L95.8 45.15 96.95 44.05 97.05 44.05 Q102.25 43.8 110.5 45.65 112.1 48.95 114.45 51.25 L114.55 51.3 114.65 51.25 114.7 51.15 Q114.8 46.15 113.65 42.9 L113.6 42.8 Q106.6 38.1 103.4 33.75 L103.55 33.45 104.05 31.85 104.65 29.9 104.7 29.8 104.75 29.55 Q109.9 27.85 118.1 28.35 L118.2 28.35 Q122.0 25.35 124.35 21.2 L124.35 21.1 124.3 21.0 124.2 21.0 Q120.05 22.15 117.65 23.9 109.4 20.6 105.4 16.65 L105.3 16.1 105.25 16.1 104.8 14.1 103.55 10.4 Q99.4 0.15 89.85 -2.95 85.3 -4.45 80.85 -3.95 L79.65 -3.7 79.7 -3.75 Q76.2 -3.55 73.0 -7.0 L66.7 -13.95 67.2 -16.65 67.1 -17.7 66.3 -17.9 65.35 -17.5 63.0 -19.3 62.25 -19.7 61.9 -19.7 61.75 -19.6 Q61.35 -19.4 61.4 -18.3 L61.6 -15.9 60.85 -15.6 60.8 -15.65 Q60.25 -15.35 60.35 -14.95 60.35 -14.6 60.9 -14.15 L60.95 -14.15 61.0 -14.05 64.05 -11.55 63.65 -1.8 Q62.95 2.45 57.85 3.85 L57.25 4.05 54.65 4.5 52.8 4.6 52.75 4.6 Q52.1 4.65 51.85 4.9 L51.7 4.75 51.65 4.75 51.4 4.45 Q50.95 3.95 50.45 4.2 L49.85 4.5 49.85 4.55 45.9 4.85 Q44.15 4.45 42.65 4.9 L42.6 4.9 42.6 4.95 42.55 4.95 42.4 4.95 42.35 4.9 41.8 4.95 41.85 4.95 Q41.5 5.05 41.45 5.3 L41.45 5.35 41.35 5.45 Q40.2 6.1 39.2 7.2 L38.8 7.7 38.55 7.9 38.6 7.9 38.4 7.95 38.1 8.4 38.1 8.7 38.05 8.7 38.05 8.9 38.05 8.95 37.75 9.4 37.0 10.15 Q36.65 10.4 36.85 11.0 L36.9 12.5 36.9 12.6 36.85 13.05 36.8 13.2 36.7 13.4 36.65 13.55 Q36.5 13.9 36.65 14.2 L36.7 14.35 36.8 14.4 36.8 14.5 36.8 14.7 Q36.85 16.05 37.4 17.15 L37.4 17.4 Q37.3 17.65 37.5 17.9 L37.45 17.9 37.95 18.3 38.1 18.35 38.05 18.35 Q39.1 19.85 41.1 20.9 42.85 21.75 43.65 23.0 L44.05 23.85 Q44.2 24.2 44.7 24.1 L45.25 23.9 46.15 23.9 46.2 23.9 46.75 24.95 47.25 25.45 47.6 25.75 51.35 29.3 Q54.7 34.7 50.05 39.5 L44.85 44.2 42.0 44.5 Q40.9 44.65 41.4 45.5 L42.05 46.45 40.4 48.9" fill="none" stroke="#a76f23" stroke-linecap="round" stroke-linejoin="round" stroke-width="0.05"/>
    <path d="M41.2 50.25 L41.65 50.95 41.55 51.35 40.55 54.15 41.2 54.95 Q41.5 55.4 41.25 55.75 41.05 56.05 40.35 56.2 L37.6 56.55 32.9 64.65 Q30.6 68.8 31.9 72.05 L31.85 72.05 32.45 73.1 Q34.3 77.15 34.3 81.95 34.25 92.0 25.85 99.1 L22.7 101.45 20.9 102.5 20.95 102.5 20.45 102.8 Q17.9 107.8 17.35 116.65 19.7 118.45 22.1 122.05 L22.15 122.15 22.1 122.2 22.0 122.25 Q17.3 121.25 13.3 118.55 L13.25 118.5 Q11.15 110.55 8.0 106.2 L7.7 106.2 7.6 106.2 5.55 106.25 3.9 106.25 3.55 106.2 Q0.4 110.55 -1.9 118.7 L-1.95 118.75 Q-4.75 120.85 -9.5 122.3 L-9.6 122.25 -9.65 122.2 -9.65 122.1 Q-8.2 119.15 -5.55 116.6 -6.4 108.2 -8.2 103.3 L-8.2 103.2 -9.6 102.45 -14.65 99.0 Q-23.0 91.95 -23.0 81.95 -23.0 78.25 -21.9 74.95 L-21.05 72.9 Q-20.3 69.9 -21.9 66.4 L-25.95 57.8 -29.9 57.45 Q-31.8 57.15 -30.7 55.75 L-29.95 54.8 -31.4 51.8 Q-32.0 50.5 -30.75 50.8 L-27.5 51.75 -26.75 50.85 Q-26.15 50.1 -25.65 51.1 L-24.5 53.75 -18.4 57.2 Q-12.4 60.2 -8.3 55.3 L-6.1 50.65 -5.9 50.2 -5.55 49.55 -4.75 48.75 -4.75 48.7 -5.05 47.85 -5.4 47.4 -5.4 47.35 Q-5.65 46.9 -5.4 46.65 L-5.35 46.65 -4.65 46.0 Q-3.75 44.85 -3.45 42.95 -3.1 40.75 -2.0 39.3 L-1.95 39.15 -1.75 38.55 -1.75 38.6 Q-1.6 38.35 -1.3 38.35 L-1.05 38.25 Q-0.2 37.4 1.1 36.95 L1.3 36.9 1.4 36.85 1.4 36.75 1.5 36.65 Q1.75 36.4 2.15 36.45 L2.3 36.45 2.5 36.5 2.65 36.5 2.7 36.5 3.15 36.4 3.2 36.4 4.65 35.85 5.5 35.75 Q5.95 36.15 6.45 36.25 L6.95 36.35 7.0 36.35 7.2 36.3 7.5 36.25 8.0 36.4 8.1 36.55 8.1 36.5 8.35 36.7 8.95 36.95 Q10.3 37.55 11.3 38.4 L11.4 38.5 11.45 38.5 11.9 38.75 11.9 38.7 12.15 39.2 12.1 39.25 12.15 39.4 12.2 39.45 12.2 39.5 Q13.1 40.8 13.3 42.55 13.6 44.95 14.8 46.25 L14.8 46.2 15.3 46.65 15.3 46.7 Q15.65 47.1 15.35 47.65 L15.15 48.0 15.15 48.05 15.05 48.25 15.65 49.0 15.65 49.05 16.35 50.75 17.55 53.1 17.9 53.65 Q20.8 58.05 25.1 57.4 L34.5 54.75 35.95 51.05 36.0 51.0 36.0 50.95 Q36.25 50.3 36.6 50.15 36.95 50.0 37.35 50.4 L37.35 50.45 37.9 51.05 40.05 50.15 40.1 50.15 Q39.75 49.9 40.15 49.3 L40.4 48.9" fill="none" stroke="#aa00aa" stroke-linecap="round" stroke-linejoin="round" stroke-width="0.05"/>
  </g>
  <defs>
    <radialGradient cx="0" cy="0" gradientTransform="matrix(0.0792, 0.0, 0.0, 0.0792, -63.2, -59.35)" gradientUnits="userSpaceOnUse" id="gradient0" r="819.2" spreadMethod="pad">
      <stop offset="0.0" stop-color="#ffffcc"/>
      <stop offset="0.796078431372549" stop-color="#ffff00"/>
      <stop offset="1.0" stop-color="#ffff99"/>
    </radialGradient>
    <radialGradient cx="0" cy="0" gradientTransform="matrix(0.0707, 0.0, 0.0, 0.0707, -59.0, 34.7)" gradientUnits="userSpaceOnUse" id="gradient1" r="819.2" spreadMethod="pad">
      <stop offset="0.0" stop-color="#a4e9ff"/>
      <stop offset="0.3843137254901961" stop-color="#33ccff"/>
      <stop offset="1.0" stop-color="#3399ff"/>
    </radialGradient>
    <radialGradient cx="0" cy="0" gradientTransform="matrix(0.077, 0.0, 0.0, 0.077, 0.8, 62.85)" gradientUnits="userSpaceOnUse" id="gradient2" r="819.2" spreadMethod="pad">
      <stop offset="0.0" stop-color="#ffccff"/>
      <stop offset="1.0" stop-color="#ff00ff"/>
    </radialGradient>
    <radialGradient cx="0" cy="0" gradientTransform="matrix(0.0729, 0.0, 0.0, 0.0729, 49.35, -50.1)" gradientUnits="userSpaceOnUse" id="gradient3" r="819.2" spreadMethod="pad">
      <stop offset="0.0" stop-color="#d75eff"/>
      <stop offset="0.4470588235294118" stop-color="#9903cf"/>
      <stop offset="0.7333333333333333" stop-color="#9933ff"/>
      <stop offset="1.0" stop-color="#6633cc"/>
    </radialGradient>
    <radialGradient cx="0" cy="0" gradientTransform="matrix(0.072, 0.0, 0.0, 0.072, 86.0, 11.95)" gradientUnits="userSpaceOnUse" id="gradient4" r="819.2" spreadMethod="pad">
      <stop offset="0.0" stop-color="#ffff66"/>
      <stop offset="1.0" stop-color="#ff9900"/>
    </radialGradient>
  </defs>
</svg>
