<?xml version="1.0" encoding="UTF-8" standalone="no"?>
<svg xmlns:xlink="http://www.w3.org/1999/xlink" height="400.0px" width="400.0px" xmlns="http://www.w3.org/2000/svg">
  <g transform="matrix(1.0, 0.0, 0.0, 1.0, 200.0, 200.0)">
    <path d="M101.8 -101.8 Q59.65 -144.0 0.0 -144.0 -59.65 -144.0 -101.8 -101.8 -144.0 -59.65 -144.0 0.0 -144.0 59.65 -101.8 101.8 -59.65 144.0 0.0 144.0 59.65 144.0 101.8 101.8 144.0 59.65 144.0 0.0 144.0 -59.65 101.8 -101.8 M141.4 -141.45 Q200.0 -82.85 200.0 0.0 200.0 82.85 141.4 141.4 82.85 200.0 0.0 200.0 -82.85 200.0 -141.45 141.4 -200.0 82.85 -200.0 0.0 -200.0 -82.85 -141.45 -141.45 -82.85 -200.0 0.0 -200.0 82.85 -200.0 141.4 -141.45" fill="#000000" fill-rule="evenodd" stroke="none"/>
  </g>
</svg>
