<?xml version="1.0" encoding="UTF-8" standalone="no"?>
<svg xmlns:xlink="http://www.w3.org/1999/xlink" height="94.75px" width="86.5px" xmlns="http://www.w3.org/2000/svg">
  <g transform="matrix(1.0, 0.0, 0.0, 1.0, 43.25, 47.35)">
    <path d="M28.95 -35.25 Q34.5 -29.85 37.15 -24.45 43.2 -13.6 43.25 0.05 43.25 19.6 30.7 33.5 18.15 47.35 0.4 47.4 -17.35 47.35 -29.9 33.5 -42.45 19.6 -42.4 0.05 -42.45 -5.65 -41.4 -10.8 -40.6 -17.0 -37.45 -22.35 L-37.3 -22.65 Q-34.45 -28.45 -29.9 -33.45 -17.35 -47.35 0.4 -47.35 16.85 -47.35 28.85 -35.4 L28.85 -35.2 28.95 -35.25 M11.3 29.35 Q18.0 21.85 19.25 11.3 20.75 -0.95 15.55 -9.75 9.8 -19.6 -0.65 -20.1 -10.95 -20.4 -16.95 -10.0 -21.65 -1.8 -21.05 8.65 L-20.75 11.55 Q-19.35 22.15 -13.3 28.85 -7.75 35.0 -1.2 35.5 5.4 36.05 11.3 29.35 5.4 36.05 -1.2 35.5 -7.75 35.0 -13.3 28.85 -19.35 22.15 -20.75 11.55 L-21.05 8.65 Q-21.65 -1.8 -16.95 -10.0 -10.95 -20.4 -0.65 -20.1 9.8 -19.6 15.55 -9.75 20.75 -0.95 19.25 11.3 18.0 21.85 11.3 29.35 M17.75 -28.05 Q21.05 -33.65 28.85 -31.0 21.05 -33.65 17.75 -28.05 M27.9 -11.15 Q36.9 -13.65 35.1 -22.3 36.9 -13.65 27.9 -11.15 M10.7 24.55 Q15.8 17.3 15.6 8.35 15.35 -0.65 10.7 -6.15 6.05 -11.7 -0.85 -11.8 -7.8 -11.95 -12.3 -6.05 -16.85 -0.1 -16.85 8.8 -16.85 17.7 -12.05 24.2 -7.25 30.7 -0.85 31.25 5.55 31.75 10.7 24.55 M-26.5 4.0 Q-35.6 3.95 -36.35 -4.35 -35.6 3.95 -26.5 4.0 M-21.0 -14.2 Q-25.7 -18.75 -32.5 -14.2 -25.7 -18.75 -21.0 -14.2" fill="url(#gradient0)" fill-rule="evenodd" stroke="none"/>
    <path d="M10.7 24.55 Q5.55 31.75 -0.85 31.25 -7.25 30.7 -12.05 24.2 -16.85 17.7 -16.85 8.8 -16.85 -0.1 -12.3 -6.05 -7.8 -11.95 -0.85 -11.8 6.05 -11.7 10.7 -6.15 15.35 -0.65 15.6 8.35 15.8 17.3 10.7 24.55" fill="url(#gradient1)" fill-rule="evenodd" stroke="none"/>
    <path d="M28.95 -35.25 Q34.5 -29.85 37.15 -24.45 43.2 -13.6 43.25 0.05 43.25 19.6 30.7 33.5 18.15 47.35 0.4 47.4 -17.35 47.35 -29.9 33.5 -42.45 19.6 -42.4 0.05 -42.45 -5.65 -41.4 -10.8 -40.6 -17.0 -37.45 -22.35 L-37.3 -22.65 Q-34.45 -28.45 -29.9 -33.45 -17.35 -47.35 0.4 -47.35 16.85 -47.35 28.85 -35.4 L28.85 -35.2 28.95 -35.25 M35.1 -22.3 Q36.9 -13.65 27.9 -11.15 M28.85 -31.0 Q21.05 -33.65 17.75 -28.05 M11.3 29.35 Q5.4 36.05 -1.2 35.5 -7.75 35.0 -13.3 28.85 -19.35 22.15 -20.75 11.55 L-21.05 8.65 Q-21.65 -1.8 -16.95 -10.0 -10.95 -20.4 -0.65 -20.1 9.8 -19.6 15.55 -9.75 20.75 -0.95 19.25 11.3 18.0 21.85 11.3 29.35 M10.7 24.55 Q5.55 31.75 -0.85 31.25 -7.25 30.7 -12.05 24.2 -16.85 17.7 -16.85 8.8 -16.85 -0.1 -12.3 -6.05 -7.8 -11.95 -0.85 -11.8 6.05 -11.7 10.7 -6.15 15.35 -0.65 15.6 8.35 15.8 17.3 10.7 24.55 M-32.5 -14.2 Q-25.7 -18.75 -21.0 -14.2 M-36.35 -4.35 Q-35.6 3.95 -26.5 4.0" fill="none" stroke="#e901e9" stroke-linecap="round" stroke-linejoin="round" stroke-width="0.05"/>
    <path d="M36.35 -38.9 Q39.3 -36.95 38.75 -33.2 L37.7 -26.25 37.15 -24.45 Q36.45 -23.1 35.1 -22.5 L34.5 -22.25 Q31.7 -21.4 28.75 -23.35 25.8 -25.4 27.75 -28.45 28.5 -29.65 28.85 -31.0 29.35 -33.0 28.85 -35.2 L28.95 -35.3 28.85 -35.4 Q28.15 -38.95 30.75 -39.9 33.35 -40.9 36.35 -38.9 M-41.8 -19.85 Q-39.8 -22.2 -37.45 -22.35 L-36.65 -22.3 Q-33.8 -22.05 -33.6 -18.25 -33.5 -16.0 -32.5 -14.2 -31.85 -13.0 -30.75 -12.0 -28.1 -9.55 -30.45 -6.85 -32.8 -4.15 -35.65 -4.25 L-36.3 -4.35 -36.35 -4.35 Q-38.7 -4.75 -39.85 -7.3 L-41.4 -10.8 -42.65 -13.75 Q-44.15 -17.2 -41.8 -19.85" fill="#ff82ff" fill-rule="evenodd" stroke="none"/>
    <path d="M36.35 -38.9 Q39.3 -36.95 38.75 -33.2 L37.7 -26.25 37.15 -24.45 Q36.45 -23.1 35.1 -22.5 L34.5 -22.25 Q31.7 -21.4 28.75 -23.35 25.8 -25.4 27.75 -28.45 28.5 -29.65 28.85 -31.0 29.35 -33.0 28.85 -35.2 L28.95 -35.3 28.85 -35.4 Q28.15 -38.95 30.75 -39.9 33.35 -40.9 36.35 -38.9" fill="none" stroke="#e901e9" stroke-linecap="round" stroke-linejoin="round" stroke-width="0.05"/>
    <path d="M-41.8 -19.85 Q-39.8 -22.2 -37.45 -22.35 L-36.65 -22.3 Q-33.8 -22.05 -33.6 -18.25 -33.5 -16.0 -32.5 -14.2 -31.85 -13.0 -30.75 -12.0 -28.1 -9.55 -30.45 -6.85 -32.8 -4.15 -35.65 -4.25 L-36.3 -4.35 -36.35 -4.35 Q-38.7 -4.75 -39.85 -7.3 L-41.4 -10.8 -42.65 -13.75 Q-44.15 -17.2 -41.8 -19.85" fill="none" stroke="#e901e9" stroke-linecap="round" stroke-linejoin="round" stroke-width="0.05"/>
  </g>
  <defs>
    <radialGradient cx="0" cy="0" gradientTransform="matrix(0.1285, 0.0, 0.0, 0.1285, 41.9, -32.8)" gradientUnits="userSpaceOnUse" id="gradient0" r="819.2" spreadMethod="pad">
      <stop offset="0.0" stop-color="#ffb3ff"/>
      <stop offset="0.2823529411764706" stop-color="#ff6fff"/>
      <stop offset="0.7137254901960784" stop-color="#ff00ff"/>
      <stop offset="0.996078431372549" stop-color="#ff00ff"/>
    </radialGradient>
    <radialGradient cx="0" cy="0" gradientTransform="matrix(0.0443, 0.0, 0.0, 0.0443, -5.0, 24.0)" gradientUnits="userSpaceOnUse" id="gradient1" r="819.2" spreadMethod="pad">
      <stop offset="0.0" stop-color="#ffb3ff"/>
      <stop offset="0.2823529411764706" stop-color="#ff6fff"/>
      <stop offset="0.7137254901960784" stop-color="#ff00ff"/>
      <stop offset="0.996078431372549" stop-color="#ff00ff"/>
    </radialGradient>
  </defs>
</svg>
