<?xml version="1.0" encoding="UTF-8" standalone="no"?>
<svg xmlns:xlink="http://www.w3.org/1999/xlink" height="95.1px" width="88.5px" xmlns="http://www.w3.org/2000/svg">
  <g transform="matrix(1.0, 0.0, 0.0, 1.0, 44.25, 47.55)">
    <path d="M34.0 -26.95 L34.05 -27.0 34.05 -26.85 33.45 -26.75 34.0 -26.95" fill="#6633ff" fill-rule="evenodd" stroke="none"/>
    <path d="M9.65 20.05 Q14.75 12.8 14.55 3.85 14.3 -5.15 9.65 -10.65 5.0 -16.2 -1.9 -16.3 -8.85 -16.45 -13.35 -10.55 -17.9 -4.6 -17.9 4.3 -17.9 13.2 -13.1 19.7 -8.3 26.2 -1.9 26.75 4.5 27.25 9.65 20.05 M10.25 24.85 Q4.35 31.55 -2.25 31.0 -8.8 30.5 -14.35 24.35 -20.4 17.65 -21.8 7.05 L-22.1 4.15 Q-22.7 -6.3 -18.0 -14.5 -12.0 -24.9 -1.7 -24.6 8.75 -24.1 14.5 -14.25 19.7 -5.45 18.2 6.8 16.95 17.35 10.25 24.85" fill="url(#gradient0)" fill-rule="evenodd" stroke="none"/>
    <path d="M9.65 20.05 Q4.5 27.25 -1.9 26.75 -8.3 26.2 -13.1 19.7 -17.9 13.2 -17.9 4.3 -17.9 -4.6 -13.35 -10.55 -8.85 -16.45 -1.9 -16.3 5.0 -16.2 9.65 -10.65 14.3 -5.15 14.55 3.85 14.75 12.8 9.65 20.05" fill="url(#gradient1)" fill-rule="evenodd" stroke="none"/>
    <path d="M34.0 -26.95 L33.45 -26.75 34.05 -26.85 34.05 -27.0 34.0 -26.95 M28.05 -36.85 Q33.25 -32.75 35.7 -28.25 44.25 -16.05 44.25 0.0 44.25 19.7 31.3 33.6 18.35 47.55 0.0 47.55 -18.35 47.55 -31.3 33.6 -44.25 19.7 -44.25 0.0 -44.25 -7.85 -42.2 -14.75 -40.3 -20.75 -36.75 -26.6 -34.4 -30.3 -31.3 -33.65 -27.75 -37.45 -23.8 -40.2 -13.3 -47.55 0.0 -47.55 16.1 -47.55 28.05 -36.85 M10.25 24.85 Q16.95 17.35 18.2 6.8 19.7 -5.45 14.5 -14.25 8.75 -24.1 -1.7 -24.6 -12.0 -24.9 -18.0 -14.5 -22.7 -6.3 -22.1 4.15 L-21.8 7.05 Q-20.4 17.65 -14.35 24.35 -8.8 30.5 -2.25 31.0 4.35 31.55 10.25 24.85" fill="url(#gradient2)" fill-rule="evenodd" stroke="none"/>
    <path d="M34.0 -26.95 L33.45 -26.75 34.05 -26.85 34.05 -27.0 34.0 -26.95 M28.05 -36.85 Q16.1 -47.55 0.0 -47.55 -13.3 -47.55 -23.8 -40.2 -27.75 -37.45 -31.3 -33.65 -34.4 -30.3 -36.75 -26.6 -40.3 -20.75 -42.2 -14.75 -44.25 -7.85 -44.25 0.0 -44.25 19.7 -31.3 33.6 -18.35 47.55 0.0 47.55 18.35 47.55 31.3 33.6 44.25 19.7 44.25 0.0 44.25 -16.05 35.7 -28.25 33.25 -32.75 28.05 -36.85 M9.65 20.05 Q4.5 27.25 -1.9 26.75 -8.3 26.2 -13.1 19.7 -17.9 13.2 -17.9 4.3 -17.9 -4.6 -13.35 -10.55 -8.85 -16.45 -1.9 -16.3 5.0 -16.2 9.65 -10.65 14.3 -5.15 14.55 3.85 14.75 12.8 9.65 20.05 M10.25 24.85 Q4.35 31.55 -2.25 31.0 -8.8 30.5 -14.35 24.35 -20.4 17.65 -21.8 7.05 L-22.1 4.15 Q-22.7 -6.3 -18.0 -14.5 -12.0 -24.9 -1.7 -24.6 8.75 -24.1 14.5 -14.25 19.7 -5.45 18.2 6.8 16.95 17.35 10.25 24.85" fill="none" stroke="#7a00cc" stroke-linecap="round" stroke-linejoin="round" stroke-width="0.05"/>
  </g>
  <defs>
    <radialGradient cx="0" cy="0" gradientTransform="matrix(0.0501, 0.0, 0.0, 0.0501, 15.7, -3.6)" gradientUnits="userSpaceOnUse" id="gradient0" r="819.2" spreadMethod="pad">
      <stop offset="0.0" stop-color="#9900cc"/>
      <stop offset="0.5294117647058824" stop-color="#9933ff"/>
      <stop offset="1.0" stop-color="#6633cc"/>
    </radialGradient>
    <radialGradient cx="0" cy="0" gradientTransform="matrix(0.0366, 0.0, 0.0, 0.0366, 5.75, -1.9)" gradientUnits="userSpaceOnUse" id="gradient1" r="819.2" spreadMethod="pad">
      <stop offset="0.0" stop-color="#9900cc"/>
      <stop offset="0.5294117647058824" stop-color="#9933ff"/>
      <stop offset="1.0" stop-color="#6633cc"/>
    </radialGradient>
    <radialGradient cx="0" cy="0" gradientTransform="matrix(0.0884, 0.0, 0.0, 0.0884, 24.4, -11.75)" gradientUnits="userSpaceOnUse" id="gradient2" r="819.2" spreadMethod="pad">
      <stop offset="0.0" stop-color="#9900cc"/>
      <stop offset="0.5294117647058824" stop-color="#9933ff"/>
      <stop offset="1.0" stop-color="#6633cc"/>
    </radialGradient>
  </defs>
</svg>
