<?xml version="1.0" encoding="UTF-8" standalone="no"?>
<svg xmlns:xlink="http://www.w3.org/1999/xlink" height="36.0px" width="82.1px" xmlns="http://www.w3.org/2000/svg">
  <g transform="matrix(1.0, 0.0, 0.0, 1.0, 43.25, 40.25)">
    <path d="M36.35 -38.9 Q39.3 -36.95 38.75 -33.2 L37.7 -26.25 37.15 -24.45 Q36.45 -23.1 35.1 -22.5 L34.5 -22.25 Q31.7 -21.4 28.75 -23.35 25.8 -25.4 27.75 -28.45 28.5 -29.65 28.85 -31.0 29.35 -33.0 28.85 -35.2 L28.95 -35.3 28.85 -35.4 Q28.15 -38.95 30.75 -39.9 33.35 -40.9 36.35 -38.9 M-42.65 -13.75 Q-44.15 -17.2 -41.8 -19.85 -39.8 -22.2 -37.45 -22.35 L-36.65 -22.3 Q-33.8 -22.05 -33.6 -18.25 -33.5 -16.0 -32.5 -14.2 -31.85 -13.0 -30.75 -12.0 -28.1 -9.55 -30.45 -6.85 -32.8 -4.15 -35.65 -4.25 L-36.3 -4.35 -36.35 -4.35 Q-38.7 -4.75 -39.85 -7.3 L-41.4 -10.8 -42.65 -13.75" fill="#9966ff" fill-rule="evenodd" stroke="none"/>
  </g>
</svg>
