<?xml version="1.0" encoding="UTF-8" standalone="no"?>
<svg xmlns:xlink="http://www.w3.org/1999/xlink" height="94.75px" width="86.5px" xmlns="http://www.w3.org/2000/svg">
  <g transform="matrix(1.0, 0.0, 0.0, 1.0, 43.25, 47.35)">
    <path d="M28.85 -35.4 L28.85 -35.2 28.95 -35.25 Q34.25 -29.85 37.15 -24.45 43.2 -13.6 43.25 0.05 43.25 14.9 36.05 26.45 33.75 30.15 30.7 33.5 28.1 36.4 25.25 38.7 14.45 47.35 0.4 47.4 -17.1 47.35 -29.5 33.9 L-29.9 33.5 Q-37.3 25.3 -40.3 15.15 -42.45 8.05 -42.4 0.05 -42.45 -5.65 -41.4 -10.8 -40.2 -16.8 -37.45 -22.35 L-37.3 -22.65 Q-34.45 -28.45 -29.9 -33.45 -17.35 -47.35 0.4 -47.35 16.85 -47.35 28.85 -35.4 M11.3 29.35 Q18.0 21.85 19.25 11.3 20.75 -0.95 15.55 -9.75 9.8 -19.6 -0.65 -20.1 -10.95 -20.4 -16.95 -10.0 -21.65 -1.8 -21.05 8.65 L-20.75 11.55 Q-19.35 22.15 -13.3 28.85 -7.75 35.0 -1.2 35.5 5.4 36.05 11.3 29.35 5.4 36.05 -1.2 35.5 -7.75 35.0 -13.3 28.85 -19.35 22.15 -20.75 11.55 L-21.05 8.65 Q-21.65 -1.8 -16.95 -10.0 -10.95 -20.4 -0.65 -20.1 9.8 -19.6 15.55 -9.75 20.75 -0.95 19.25 11.3 18.0 21.85 11.3 29.35 M27.9 -11.15 Q30.75 -11.95 32.5 -13.35 36.35 -16.4 35.1 -22.3 L35.1 -22.5 34.5 -22.25 Q31.7 -21.4 28.75 -23.35 25.8 -25.4 27.75 -28.45 28.5 -29.65 28.85 -31.0 23.25 -32.9 19.95 -30.5 18.65 -29.6 17.75 -28.05 18.65 -29.6 19.95 -30.5 23.25 -32.9 28.85 -31.0 28.5 -29.65 27.75 -28.45 25.8 -25.4 28.75 -23.35 31.7 -21.4 34.5 -22.25 L35.1 -22.5 35.1 -22.3 Q36.35 -16.4 32.5 -13.35 30.75 -11.95 27.9 -11.15 M10.7 24.55 Q15.8 17.3 15.6 8.35 15.35 -0.65 10.7 -6.15 6.05 -11.7 -0.85 -11.8 -7.8 -11.95 -12.3 -6.05 -16.85 -0.1 -16.85 8.8 -16.85 17.7 -12.05 24.2 -7.25 30.7 -0.85 31.25 5.55 31.75 10.7 24.55 M-21.2 -14.35 Q-25.85 -18.65 -32.5 -14.2 -31.85 -13.0 -30.75 -12.0 -28.1 -9.55 -30.45 -6.85 -32.8 -4.15 -35.65 -4.25 L-36.3 -4.35 -36.35 -4.35 Q-35.8 1.8 -30.7 3.45 L-26.5 4.0 -30.7 3.45 Q-35.8 1.8 -36.35 -4.35 L-36.3 -4.35 -35.65 -4.25 Q-32.8 -4.15 -30.45 -6.85 -28.1 -9.55 -30.75 -12.0 -31.85 -13.0 -32.5 -14.2 -25.85 -18.65 -21.2 -14.35" fill="url(#gradient0)" fill-rule="evenodd" stroke="none"/>
    <path d="M10.7 24.55 Q5.55 31.75 -0.85 31.25 -7.25 30.7 -12.05 24.2 -16.85 17.7 -16.85 8.8 -16.85 -0.1 -12.3 -6.05 -7.8 -11.95 -0.85 -11.8 6.05 -11.7 10.7 -6.15 15.35 -0.65 15.6 8.35 15.8 17.3 10.7 24.55" fill="url(#gradient1)" fill-rule="evenodd" stroke="none"/>
    <path d="M28.95 -35.25 L28.85 -35.4 Q16.85 -47.35 0.4 -47.35 -17.35 -47.35 -29.9 -33.45 -34.45 -28.45 -37.3 -22.65 L-37.45 -22.35 Q-40.2 -16.8 -41.4 -10.8 -42.45 -5.65 -42.4 0.05 -42.45 8.05 -40.3 15.15 -37.3 25.3 -29.9 33.5 L-29.5 33.9 Q-17.1 47.35 0.4 47.4 14.45 47.35 25.25 38.7 28.1 36.4 30.7 33.5 33.75 30.15 36.05 26.45 43.25 14.9 43.25 0.05 43.2 -13.6 37.15 -24.45 34.25 -29.85 28.95 -35.25 M17.75 -28.05 Q18.65 -29.6 19.95 -30.5 23.25 -32.9 28.85 -31.0 28.5 -29.65 27.75 -28.45 25.8 -25.4 28.75 -23.35 31.7 -21.4 34.5 -22.25 L35.1 -22.5 35.1 -22.3 Q36.35 -16.4 32.5 -13.35 30.75 -11.95 27.9 -11.15 M11.3 29.35 Q5.4 36.05 -1.2 35.5 -7.75 35.0 -13.3 28.85 -19.35 22.15 -20.75 11.55 L-21.05 8.65 Q-21.65 -1.8 -16.95 -10.0 -10.95 -20.4 -0.65 -20.1 9.8 -19.6 15.55 -9.75 20.75 -0.95 19.25 11.3 18.0 21.85 11.3 29.35 M10.7 24.55 Q5.55 31.75 -0.85 31.25 -7.25 30.7 -12.05 24.2 -16.85 17.7 -16.85 8.8 -16.85 -0.1 -12.3 -6.05 -7.8 -11.95 -0.85 -11.8 6.05 -11.7 10.7 -6.15 15.35 -0.65 15.6 8.35 15.8 17.3 10.7 24.55 M-26.5 4.0 L-30.7 3.45 Q-35.8 1.8 -36.35 -4.35 L-36.3 -4.35 -35.65 -4.25 Q-32.8 -4.15 -30.45 -6.85 -28.1 -9.55 -30.75 -12.0 -31.85 -13.0 -32.5 -14.2 -25.85 -18.65 -21.2 -14.35" fill="none" stroke="#dfdf00" stroke-linecap="round" stroke-linejoin="round" stroke-width="0.05"/>
    <path d="M38.75 -33.2 L37.7 -26.25 37.15 -24.45 Q36.45 -23.1 35.1 -22.5 L34.5 -22.25 Q31.7 -21.4 28.75 -23.35 25.8 -25.4 27.75 -28.45 28.5 -29.65 28.85 -31.0 29.35 -33.0 28.85 -35.2 L28.85 -35.4 Q28.15 -38.95 30.75 -39.9 33.35 -40.9 36.35 -38.9 39.3 -36.95 38.75 -33.2 M-41.4 -10.8 L-42.65 -13.75 Q-44.15 -17.2 -41.8 -19.85 -39.8 -22.2 -37.45 -22.35 L-36.65 -22.3 Q-33.8 -22.05 -33.6 -18.25 L-33.5 -17.25 Q-33.3 -15.6 -32.5 -14.2 -31.85 -13.0 -30.75 -12.0 -28.1 -9.55 -30.45 -6.85 -32.8 -4.15 -35.65 -4.25 L-36.3 -4.35 -36.35 -4.35 Q-37.4 -4.5 -38.2 -5.1 -39.2 -5.9 -39.85 -7.3 L-41.4 -10.8" fill="#ffff99" fill-rule="evenodd" stroke="none"/>
    <path d="M-41.4 -10.8 L-39.85 -7.3 Q-39.2 -5.9 -38.2 -5.1 -37.4 -4.5 -36.35 -4.35 L-36.3 -4.35 -35.65 -4.25 Q-32.8 -4.15 -30.45 -6.85 -28.1 -9.55 -30.75 -12.0 -31.85 -13.0 -32.5 -14.2 -33.3 -15.6 -33.5 -17.25 L-33.6 -18.25 Q-33.8 -22.05 -36.65 -22.3 L-37.45 -22.35 Q-39.8 -22.2 -41.8 -19.85 -44.15 -17.2 -42.65 -13.75 L-41.4 -10.8" fill="none" stroke="#dfdf00" stroke-linecap="round" stroke-linejoin="round" stroke-width="0.05"/>
    <path d="M38.75 -33.2 Q39.3 -36.95 36.35 -38.9 33.35 -40.9 30.75 -39.9 28.15 -38.95 28.85 -35.4 L28.85 -35.2 Q29.35 -33.0 28.85 -31.0 28.5 -29.65 27.75 -28.45 25.8 -25.4 28.75 -23.35 31.7 -21.4 34.5 -22.25 L35.1 -22.5 Q36.45 -23.1 37.15 -24.45 L37.7 -26.25 38.75 -33.2" fill="none" stroke="#dfdf00" stroke-linecap="round" stroke-linejoin="round" stroke-width="0.05"/>
  </g>
  <defs>
    <radialGradient cx="0" cy="0" gradientTransform="matrix(0.1174, 0.0, 0.0, 0.1174, -11.3, 41.2)" gradientUnits="userSpaceOnUse" id="gradient0" r="819.2" spreadMethod="pad">
      <stop offset="0.0" stop-color="#ffffcc"/>
      <stop offset="0.796078431372549" stop-color="#ffff00"/>
      <stop offset="1.0" stop-color="#ffff99"/>
    </radialGradient>
    <radialGradient cx="0" cy="0" gradientTransform="matrix(0.0331, 0.0, 0.0, 0.0331, 5.0, 5.0)" gradientUnits="userSpaceOnUse" id="gradient1" r="819.2" spreadMethod="pad">
      <stop offset="0.0" stop-color="#ffffcc"/>
      <stop offset="0.796078431372549" stop-color="#ffff00"/>
      <stop offset="1.0" stop-color="#ffff99"/>
    </radialGradient>
  </defs>
</svg>
