<?xml version="1.0" encoding="UTF-8" standalone="no"?>
<svg xmlns:xlink="http://www.w3.org/1999/xlink" height="100.05px" width="100.05px" xmlns="http://www.w3.org/2000/svg">
  <g transform="matrix(1.0, 0.0, 0.0, 1.0, 50.0, 50.0)">
    <path d="M11.85 -48.5 Q31.95 -43.6 42.7 -25.9 50.2 -13.55 50.05 0.0 50.0 5.8 48.55 11.85 43.6 31.95 25.95 42.7 13.55 50.2 0.0 50.05 -5.8 49.95 -11.8 48.5 -31.9 43.6 -42.65 25.95 -50.2 13.55 -50.0 0.0 -49.95 -5.8 -48.5 -11.8 -43.6 -31.9 -25.9 -42.65 -13.55 -50.15 0.0 -50.0 5.8 -49.95 11.85 -48.5" fill="#ffffff" fill-opacity="0.5019608" fill-rule="evenodd" stroke="none"/>
    <path d="M11.85 -48.5 Q31.95 -43.6 42.7 -25.9 50.2 -13.55 50.05 0.0 50.0 5.8 48.55 11.85 43.6 31.95 25.95 42.7 13.55 50.2 0.0 50.05 -5.8 49.95 -11.8 48.5 -31.9 43.6 -42.65 25.95 -50.2 13.55 -50.0 0.0 -49.95 -5.8 -48.5 -11.8 -43.6 -31.9 -25.9 -42.65 -13.55 -50.15 0.0 -50.0 5.8 -49.95 11.85 -48.5 Z" fill="none" stroke="#ffff00" stroke-linecap="round" stroke-linejoin="round" stroke-width="0.05"/>
  </g>
</svg>
