<?xml version="1.0" encoding="UTF-8" standalone="no"?>
<svg xmlns:xlink="http://www.w3.org/1999/xlink" height="100.1px" width="100.1px" xmlns="http://www.w3.org/2000/svg">
  <g transform="matrix(1.0, 0.0, 0.0, 1.0, 50.0, 50.0)">
    <path d="M42.7 -25.9 Q53.45 -8.25 48.55 11.85 43.65 31.95 26.0 42.7 8.3 53.45 -11.75 48.55 -31.9 43.65 -42.6 26.0 -53.35 8.3 -48.45 -11.75 -43.55 -31.9 -25.9 -42.6 -8.25 -53.35 11.85 -48.45 31.95 -43.55 42.7 -25.9" fill="#ffffff" fill-opacity="0.5019608" fill-rule="evenodd" stroke="none"/>
    <path d="M42.7 -25.9 Q53.45 -8.25 48.55 11.85 43.65 31.95 26.0 42.7 8.3 53.45 -11.75 48.55 -31.9 43.65 -42.6 26.0 -53.35 8.3 -48.45 -11.75 -43.55 -31.9 -25.9 -42.6 -8.25 -53.35 11.85 -48.45 31.95 -43.55 42.7 -25.9 Z" fill="none" stroke="#ff9933" stroke-linecap="round" stroke-linejoin="round" stroke-width="0.05"/>
  </g>
</svg>
