<?xml version="1.0" encoding="UTF-8" standalone="no"?>
<svg xmlns:xlink="http://www.w3.org/1999/xlink" height="100.05px" width="100.1px" xmlns="http://www.w3.org/2000/svg">
  <g transform="matrix(1.0, 0.0, 0.0, 1.0, 50.05, 50.0)">
    <path d="M42.65 -25.9 Q53.4 -8.25 48.5 11.85 43.6 31.95 25.95 42.7 8.3 53.4 -11.8 48.55 -31.95 43.65 -42.65 26.0 -53.4 8.3 -48.5 -11.75 -43.6 -31.9 -25.95 -42.6 -8.3 -53.35 11.8 -48.45 31.9 -43.6 42.65 -25.9" fill="#ffffff" fill-opacity="0.5019608" fill-rule="evenodd" stroke="none"/>
    <path d="M42.65 -25.9 Q53.4 -8.25 48.5 11.85 43.6 31.95 25.95 42.7 8.3 53.4 -11.8 48.55 -31.95 43.65 -42.65 26.0 -53.4 8.3 -48.5 -11.75 -43.6 -31.9 -25.95 -42.6 -8.3 -53.35 11.8 -48.45 31.9 -43.6 42.65 -25.9 Z" fill="none" stroke="#0066ff" stroke-linecap="round" stroke-linejoin="round" stroke-width="0.05"/>
  </g>
</svg>
