<?xml version="1.0" encoding="UTF-8" standalone="no"?>
<svg xmlns:xlink="http://www.w3.org/1999/xlink" height="100.1px" width="100.05px" xmlns="http://www.w3.org/2000/svg">
  <g transform="matrix(1.0, 0.0, 0.0, 1.0, 50.0, 50.05)">
    <path d="M42.7 -25.95 Q53.4 -8.3 48.55 11.8 43.65 31.9 26.0 42.65 8.3 53.4 -11.75 48.5 -31.9 43.6 -42.6 25.95 -53.35 8.3 -48.45 -11.8 -43.6 -31.95 -25.9 -42.65 -8.25 -53.4 11.85 -48.5 31.95 -43.6 42.7 -25.95" fill="#ffffff" fill-opacity="0.5019608" fill-rule="evenodd" stroke="none"/>
    <path d="M42.7 -25.95 Q53.4 -8.3 48.55 11.8 43.65 31.9 26.0 42.65 8.3 53.4 -11.75 48.5 -31.9 43.6 -42.6 25.95 -53.35 8.3 -48.45 -11.8 -43.6 -31.95 -25.9 -42.65 -8.25 -53.4 11.85 -48.5 31.95 -43.6 42.7 -25.95 Z" fill="none" stroke="#990099" stroke-linecap="round" stroke-linejoin="round" stroke-width="0.05"/>
  </g>
</svg>
