<?xml version="1.0" encoding="UTF-8" standalone="no"?>
<svg xmlns:xlink="http://www.w3.org/1999/xlink" height="43.0px" width="43.0px" xmlns="http://www.w3.org/2000/svg">
  <g transform="matrix(1.0, 0.0, 0.0, 1.0, 21.5, 21.5)">
    <path d="M-14.15 -14.15 Q-8.3 -20.0 0.0 -20.0 8.3 -20.0 14.15 -14.15 20.0 -8.3 20.0 0.0 20.0 8.3 14.15 14.15 8.3 20.0 0.0 20.0 -8.3 20.0 -14.15 14.15 -20.0 8.3 -20.0 0.0 -20.0 -8.3 -14.15 -14.15" fill="#ffff00" fill-rule="evenodd" stroke="none"/>
    <path d="M-14.15 -14.15 Q-8.3 -20.0 0.0 -20.0 8.3 -20.0 14.15 -14.15 20.0 -8.3 20.0 0.0 20.0 8.3 14.15 14.15 8.3 20.0 0.0 20.0 -8.3 20.0 -14.15 14.15 -20.0 8.3 -20.0 0.0 -20.0 -8.3 -14.15 -14.15 Z" fill="none" stroke="#ff9900" stroke-linecap="round" stroke-linejoin="round" stroke-width="3.0"/>
  </g>
</svg>
