<?xml version="1.0" encoding="UTF-8" standalone="no"?>
<svg xmlns:xlink="http://www.w3.org/1999/xlink" height="199.8px" width="199.8px" xmlns="http://www.w3.org/2000/svg">
  <g transform="matrix(1.0, 0.0, 0.0, 1.0, 99.9, 99.9)">
    <path d="M45.7 46.4 L47.35 44.85 49.3 42.8 49.35 42.7 51.15 40.8 53.0 38.7 53.9 37.55 Q56.7 33.9 58.95 29.9 L61.3 24.95 61.4 24.8 62.45 22.35 62.5 22.2 63.7 19.45 65.2 15.25 65.2 15.15 66.5 9.7 66.5 9.6 66.8 7.95 66.85 7.85 67.1 6.2 67.1 6.1 67.65 1.7 67.9 -2.4 67.95 -4.15 67.95 -4.2 67.9 -5.55 67.95 -8.4 67.95 -8.45 67.95 -9.4 67.25 -14.3 66.35 -19.9 66.35 -20.0 65.9 -22.5 65.9 -22.55 65.85 -22.6 64.0 -28.8 63.9 -29.0 62.95 -31.6 62.9 -31.75 61.8 -34.7 61.45 -35.3 59.45 -39.45 59.35 -39.6 57.7 -42.85 56.2 -45.3 56.1 -45.45 Q55.85 -45.9 55.85 -46.45 L55.05 -47.1 54.95 -47.25 54.15 -48.4 54.1 -48.5 53.3 -49.6 51.7 -51.5 43.75 -60.25 42.8 -61.15 42.75 -61.25 37.05 -66.2 37.0 -66.25 36.85 -66.3 27.9 -71.95 26.0 -73.05 25.95 -73.05 23.5 -74.35 23.4 -74.4 21.65 -75.25 21.55 -75.25 Q14.5 -78.5 6.2 -80.5 -2.25 -82.55 -11.95 -82.85 L-29.35 -81.8 -29.4 -81.75 Q-37.5 -80.35 -44.85 -77.75 -49.7 -76.05 -53.8 -74.05 L-53.85 -74.05 -53.95 -74.0 -58.75 -71.2 -58.85 -71.15 -63.75 -68.15 -63.7 -68.15 -67.8 -65.45 -67.8 -65.4 Q-70.25 -63.8 -72.5 -61.95 L-77.1 -58.1 -77.2 -58.0 -79.35 -55.95 -83.35 -51.7 -87.1 -47.2 -87.2 -47.1 -90.45 -42.8 -90.5 -42.75 -90.8 -42.35 Q-83.55 -57.65 -70.6 -70.6 -41.35 -99.9 0.0 -99.9 41.35 -99.9 70.65 -70.6 99.9 -41.35 99.9 0.0 99.9 41.35 70.65 70.65 41.35 99.9 0.0 99.9 L-5.2 99.8 -10.7 99.4 -10.65 98.95 Q-16.65 97.8 -22.05 96.05 L-28.5 93.8 Q-36.55 90.55 -42.75 86.8 L-42.85 86.75 Q-44.95 85.45 -46.5 84.15 -52.25 80.3 -57.2 75.55 -58.3 74.5 -59.3 73.7 L-60.15 72.8 -60.2 72.8 -60.25 72.75 -61.45 71.4 -61.5 71.3 -61.6 71.2 -62.25 70.5 -62.6 70.2 -63.1 69.7 -63.15 69.65 -65.45 66.9 -65.55 66.8 -65.55 66.75 -65.75 66.5 -65.85 66.35 -65.9 66.3 -66.05 65.95 -66.1 65.95 Q-71.3 59.55 -75.1 52.1 L-75.7 51.15 Q-81.1 39.95 -83.35 27.75 L-83.65 26.65 Q-84.95 17.65 -84.5 8.5 L-84.5 8.35 -84.3 6.25 -84.3 6.15 -83.9 2.5 -83.3 -1.3 -83.15 -2.25 -83.15 -2.35 -82.55 -5.1 -81.55 -8.85 -80.8 -11.3 -80.75 -11.5 -79.65 -14.65 -78.2 -18.2 -78.2 -18.25 -76.5 -21.8 -75.25 -24.2 -75.2 -24.3 -73.9 -26.75 -73.85 -26.8 -71.9 -30.0 -71.9 -30.05 -70.1 -32.6 -67.8 -35.6 -65.25 -38.6 -65.25 -38.65 -62.6 -41.65 -62.5 -41.75 -62.35 -41.9 -62.35 -41.95 Q-57.9 -46.3 -51.55 -50.7 -45.05 -55.2 -37.25 -58.3 -30.0 -61.15 -21.1 -62.45 -12.1 -63.75 -1.35 -62.05 8.65 -60.45 16.55 -56.6 24.55 -52.7 30.5 -47.6 36.55 -42.4 41.0 -35.85 L41.15 -35.7 Q45.75 -28.85 48.3 -21.5 51.1 -13.4 51.1 -3.2 51.1 8.15 47.6 16.7 L47.6 16.65 Q44.2 25.15 38.65 31.45 L38.55 31.55 Q32.75 38.1 25.95 42.05 19.2 46.0 10.05 47.5 -0.1 49.15 -10.2 45.95 -19.4 43.0 -25.7 37.05 -32.1 31.1 -35.4 22.15 -38.95 12.75 -35.9 1.65 -33.2 -8.15 -26.3 -14.0 L-26.3 -14.05 Q-19.0 -20.55 -6.0 -18.85 6.05 -17.3 9.8 -7.1 L9.85 -6.9 Q13.9 3.95 6.0 9.6 L5.95 9.65 Q2.0 12.65 -1.2 11.85 -4.85 11.55 -7.15 7.15 L-7.25 7.05 -7.85 6.0 -8.05 6.1 Q-10.85 9.05 -8.75 13.25 -6.05 18.1 0.9 18.5 9.2 18.95 13.7 14.95 18.3 10.5 19.8 3.2 21.55 -5.6 18.8 -12.15 16.15 -18.2 10.95 -22.8 L10.85 -22.9 Q5.85 -27.25 -1.45 -29.25 -10.0 -31.6 -18.05 -29.9 -25.45 -28.25 -30.95 -24.65 L-31.0 -24.65 Q-36.55 -20.95 -40.95 -15.3 -45.25 -9.75 -47.65 -2.35 -50.2 5.7 -49.8 13.6 -49.4 22.0 -46.85 28.5 -44.05 35.5 -40.1 40.75 -35.8 46.4 -30.3 50.75 -24.65 55.2 -17.6 58.25 -10.55 61.25 -1.5 62.15 L14.15 61.7 Q21.75 60.4 28.15 57.65 34.95 54.7 40.6 50.45 L45.6 46.45 45.65 46.45 45.7 46.4 M0.0 91.8 L0.0 91.85 0.05 91.8 0.0 91.8 M-7.9 5.95 L-8.05 6.05 -7.85 5.95 -7.9 5.95" fill="#ffffff" fill-rule="evenodd" stroke="none"/>
    <path d="M37.05 -66.2 L42.75 -61.25 42.8 -61.15 43.75 -60.25 51.7 -51.5 53.3 -49.6 54.1 -48.5 54.15 -48.4 54.95 -47.25 55.05 -47.1 55.85 -46.45 Q55.85 -45.9 56.1 -45.45 L56.2 -45.3 57.7 -42.85 59.35 -39.6 59.45 -39.45 61.45 -35.3 61.8 -34.7 62.9 -31.75 62.95 -31.6 63.9 -29.0 64.0 -28.8 65.85 -22.6 65.9 -22.55 65.9 -22.5 66.35 -20.0 66.35 -19.9 67.25 -14.3 67.95 -9.4 67.95 -8.45 67.95 -8.4 67.9 -5.55 67.95 -4.2 67.95 -4.15 67.9 -2.4 67.65 1.7 67.1 6.1 67.1 6.2 66.85 7.85 66.8 7.95 66.5 9.6 66.5 9.7 65.2 15.15 65.2 15.25 63.7 19.45 62.5 22.2 62.45 22.35 61.4 24.8 61.3 24.95 58.95 29.9 Q56.7 33.9 53.9 37.55 L53.0 38.7 51.15 40.8 49.35 42.7 49.3 42.8 47.35 44.85 45.7 46.4 45.6 46.45 40.6 50.45 Q34.95 54.7 28.15 57.65 21.75 60.4 14.15 61.7 L-1.5 62.15 Q-10.55 61.25 -17.6 58.25 -24.65 55.2 -30.3 50.75 -35.8 46.4 -40.1 40.75 -44.05 35.5 -46.85 28.5 -49.4 22.0 -49.8 13.6 -50.2 5.7 -47.65 -2.35 -45.25 -9.75 -40.95 -15.3 -36.55 -20.95 -31.0 -24.65 L-30.95 -24.65 Q-25.45 -28.25 -18.05 -29.9 -10.0 -31.6 -1.45 -29.25 5.85 -27.25 10.85 -22.9 L10.95 -22.8 Q16.15 -18.2 18.8 -12.15 21.55 -5.6 19.8 3.2 18.3 10.5 13.7 14.95 9.2 18.95 0.9 18.5 -6.05 18.1 -8.75 13.25 -10.85 9.05 -8.05 6.1 L-7.85 6.0 -7.25 7.05 -7.15 7.15 Q-4.85 11.55 -1.2 11.85 2.0 12.65 5.95 9.65 L6.0 9.6 Q13.9 3.95 9.85 -6.9 L9.8 -7.1 Q6.05 -17.3 -6.0 -18.85 -19.0 -20.55 -26.3 -14.05 L-26.3 -14.0 Q-33.2 -8.15 -35.9 1.65 -38.95 12.75 -35.4 22.15 -32.1 31.1 -25.7 37.05 -19.4 43.0 -10.2 45.95 -0.1 49.15 10.05 47.5 19.2 46.0 25.95 42.05 32.75 38.1 38.55 31.55 L38.65 31.45 Q44.2 25.15 47.6 16.65 L47.6 16.7 Q51.1 8.15 51.1 -3.2 51.1 -13.4 48.3 -21.5 45.75 -28.85 41.15 -35.7 L41.0 -35.85 Q36.55 -42.4 30.5 -47.6 24.55 -52.7 16.55 -56.6 8.65 -60.45 -1.35 -62.05 -12.1 -63.75 -21.1 -62.45 -30.0 -61.15 -37.25 -58.3 -45.05 -55.2 -51.55 -50.7 -57.9 -46.3 -62.35 -41.95 L-62.6 -41.65 -65.25 -38.65 -65.25 -38.6 -67.8 -35.6 -70.1 -32.6 -71.9 -30.05 -71.9 -30.0 -73.85 -26.8 -73.9 -26.75 -75.2 -24.3 -75.25 -24.2 -76.5 -21.8 -78.2 -18.25 -78.2 -18.2 -79.65 -14.65 -80.75 -11.5 -80.8 -11.3 -81.55 -8.85 -82.55 -5.1 -83.15 -2.35 -83.15 -2.25 -83.3 -1.3 -83.9 2.5 -84.3 6.15 -84.3 6.25 -84.5 8.35 -84.5 8.5 Q-84.95 17.65 -83.65 26.65 L-83.35 27.75 Q-81.1 39.95 -75.7 51.15 L-75.1 52.1 Q-71.3 59.55 -66.1 65.95 L-66.05 65.95 -65.9 66.3 -65.85 66.35 -65.75 66.5 -65.55 66.75 -65.55 66.8 -65.45 66.9 -63.15 69.65 -63.1 69.7 -62.6 70.2 -62.25 70.5 -61.6 71.2 -61.5 71.3 -61.45 71.4 -60.25 72.75 -60.2 72.8 -60.15 72.8 -59.3 73.7 Q-58.3 74.5 -57.2 75.55 -52.25 80.3 -46.5 84.15 -44.95 85.45 -42.85 86.75 L-42.75 86.8 Q-36.55 90.55 -28.5 93.8 L-22.05 96.05 Q-16.65 97.8 -10.65 98.95 L-10.7 99.4 Q-45.2 96.05 -70.6 70.65 -99.9 41.35 -99.9 0.0 -99.9 -23.05 -90.8 -42.35 L-90.5 -42.75 -90.45 -42.8 -87.2 -47.1 -87.1 -47.2 -83.35 -51.7 -79.35 -55.95 -77.2 -58.0 -77.1 -58.1 -72.5 -61.95 Q-70.25 -63.8 -67.8 -65.4 L-67.8 -65.45 -63.7 -68.15 -63.75 -68.15 -58.85 -71.15 -58.75 -71.2 -53.95 -74.0 -53.9 -74.0 -53.85 -74.05 -53.8 -74.05 Q-49.7 -76.05 -44.85 -77.75 -37.5 -80.35 -29.4 -81.75 L-29.35 -81.8 -11.95 -82.85 Q-2.25 -82.55 6.2 -80.5 14.5 -78.5 21.55 -75.25 L21.65 -75.25 23.4 -74.4 23.5 -74.35 25.95 -73.05 26.0 -73.05 27.9 -71.95 36.85 -66.3 37.0 -66.2 37.05 -66.2" fill="#e4e4e4" fill-rule="evenodd" stroke="none"/>
  </g>
</svg>
