<?xml version="1.0" encoding="UTF-8" standalone="no"?>
<svg xmlns:xlink="http://www.w3.org/1999/xlink" height="109.25px" width="92.65px" xmlns="http://www.w3.org/2000/svg">
  <g transform="matrix(1.0, 0.0, 0.0, 1.0, 46.3, 54.6)">
    <path d="M-4.8 -52.5 L-4.6 -52.55 -4.45 -52.65 -4.4 -52.7 -4.35 -52.7 -4.25 -52.9 -3.55 -53.1 -3.35 -53.1 -3.1 -53.05 -2.9 -53.05 -2.85 -53.05 -2.25 -53.15 -2.2 -53.2 Q-1.2 -53.4 -0.35 -53.9 L0.65 -53.95 Q1.2 -53.5 1.85 -53.35 L2.55 -53.25 2.6 -53.25 2.65 -53.2 2.8 -53.3 3.2 -53.4 3.8 -53.2 3.9 -53.0 Q4.0 -52.9 4.25 -52.8 L5.0 -52.5 Q6.7 -51.75 7.9 -50.7 L7.95 -50.65 8.1 -50.55 Q8.4 -50.6 8.65 -50.25 L8.65 -50.3 8.95 -49.7 8.95 -49.65 8.95 -49.45 8.95 -49.5 9.05 -49.3 Q10.15 -47.7 10.4 -45.55 10.8 -42.55 12.25 -40.9 L12.25 -40.85 12.9 -40.35 12.9 -40.3 Q13.35 -39.8 12.95 -39.1 L12.95 -39.15 12.7 -38.75 12.7 -38.7 12.55 -38.4 Q13.0 -38.2 13.3 -37.45 L14.2 -35.25 15.75 -32.35 16.15 -31.65 Q18.5 -28.1 21.5 -27.15 L25.15 -26.9 37.0 -30.2 38.75 -34.85 38.75 -34.9 38.8 -35.0 38.85 -35.0 Q39.15 -35.8 39.55 -35.95 39.95 -36.2 40.45 -35.7 L40.45 -35.65 41.15 -34.85 43.9 -36.0 45.6 -36.1 Q46.05 -35.75 45.7 -34.55 L44.45 -31.0 45.3 -30.0 Q45.65 -29.45 45.35 -29.05 45.1 -28.7 44.25 -28.5 L40.8 -28.05 34.95 -17.9 Q32.05 -12.75 33.65 -8.65 L33.6 -8.65 34.3 -7.3 Q36.6 -2.2 36.65 3.7 36.6 16.25 26.1 25.15 L22.2 28.1 21.5 28.55 19.9 29.4 19.35 29.7 Q16.15 36.05 15.5 47.15 18.45 49.4 21.45 53.85 L21.5 53.95 21.45 54.0 21.35 54.05 Q15.45 52.8 10.45 49.5 L10.4 49.45 Q7.75 39.45 3.8 34.0 L3.4 34.0 3.3 34.0 0.75 34.1 -1.35 34.05 -1.7 34.05 Q-5.75 39.45 -8.6 49.65 L-8.65 49.7 Q-12.15 52.35 -18.1 54.15 L-18.2 54.1 -18.25 54.05 -18.25 53.95 Q-16.4 50.25 -13.1 47.1 -14.1 36.6 -16.4 30.45 L-18.25 29.5 Q-21.65 27.6 -24.55 25.15 -35.05 16.25 -35.05 3.7 -35.1 -0.95 -33.65 -5.05 L-32.6 -7.6 Q-31.7 -11.3 -33.65 -15.65 L-38.75 -26.3 -43.6 -26.75 Q-44.9 -26.95 -45.15 -27.55 -45.45 -28.15 -44.7 -29.05 L-43.75 -30.2 -45.55 -33.9 Q-46.0 -34.8 -45.7 -35.1 -45.5 -35.5 -44.6 -35.3 L-40.6 -34.2 -39.75 -35.2 Q-39.3 -35.75 -38.85 -35.6 -38.45 -35.55 -38.1 -34.85 L-36.65 -31.6 -29.1 -27.3 Q-21.75 -23.65 -16.65 -29.65 -15.05 -32.55 -13.9 -35.45 L-13.65 -36.0 -13.25 -36.8 -12.1 -37.9 Q-12.2 -38.5 -12.45 -39.0 L-12.45 -38.95 -12.9 -39.5 Q-13.2 -40.0 -12.9 -40.35 L-12.85 -40.4 -12.05 -41.1 -12.0 -41.15 Q-10.85 -42.6 -10.5 -45.0 -10.0 -47.75 -8.7 -49.55 L-8.6 -49.85 -8.35 -50.5 -8.35 -50.45 -7.8 -50.75 -7.5 -50.9 Q-6.35 -51.9 -4.8 -52.5" fill="#ffffff" fill-opacity="0.2509804" fill-rule="evenodd" stroke="none"/>
    <path d="M-4.8 -52.5 Q-6.35 -51.9 -7.5 -50.9 L-7.8 -50.75 -8.35 -50.45 -8.35 -50.5 -8.6 -49.85 -8.7 -49.55 Q-10.0 -47.75 -10.5 -45.0 -10.85 -42.6 -12.0 -41.15 L-12.05 -41.1 -12.85 -40.4 -12.9 -40.35 Q-13.2 -40.0 -12.9 -39.5 L-12.45 -38.95 -12.45 -39.0 Q-12.2 -38.5 -12.1 -37.9 L-13.25 -36.8 -13.65 -36.0 -13.9 -35.45 Q-15.05 -32.55 -16.65 -29.65 -21.75 -23.65 -29.1 -27.3 L-36.65 -31.6 -38.1 -34.85 Q-38.45 -35.55 -38.85 -35.6 -39.3 -35.75 -39.75 -35.2 L-40.6 -34.2 -44.6 -35.3 Q-45.5 -35.5 -45.7 -35.1 -46.0 -34.8 -45.55 -33.9 L-43.75 -30.2 -44.7 -29.05 Q-45.45 -28.15 -45.15 -27.55 -44.9 -26.95 -43.6 -26.75 L-38.75 -26.3 -33.65 -15.65 Q-31.7 -11.3 -32.6 -7.6 L-33.65 -5.05 Q-35.1 -0.95 -35.05 3.7 -35.05 16.25 -24.55 25.15 -21.65 27.6 -18.25 29.5 L-16.4 30.45 Q-14.1 36.6 -13.1 47.1 -16.4 50.25 -18.25 53.95 L-18.25 54.05 -18.2 54.1 -18.1 54.15 Q-12.15 52.35 -8.65 49.7 L-8.6 49.65 Q-5.75 39.45 -1.7 34.05 L-1.35 34.05 0.75 34.1 3.3 34.0 3.4 34.0 3.8 34.0 Q7.75 39.45 10.4 49.45 L10.45 49.5 Q15.45 52.8 21.35 54.05 L21.45 54.0 21.5 53.95 21.45 53.85 Q18.45 49.4 15.5 47.15 16.15 36.05 19.35 29.7 L19.9 29.4 21.5 28.55 22.2 28.1 26.1 25.15 Q36.6 16.25 36.65 3.7 36.6 -2.2 34.3 -7.3 L33.6 -8.65 33.65 -8.65 Q32.05 -12.75 34.95 -17.9 L40.8 -28.05 44.25 -28.5 Q45.1 -28.7 45.35 -29.05 45.65 -29.45 45.3 -30.0 L44.45 -31.0 45.7 -34.55 Q46.05 -35.75 45.6 -36.1 L43.9 -36.0 41.15 -34.85 40.45 -35.65 40.45 -35.7 Q39.95 -36.2 39.55 -35.95 39.15 -35.8 38.85 -35.0 L38.8 -35.0 38.75 -34.9 38.75 -34.85 37.0 -30.2 25.15 -26.9 21.5 -27.15 Q18.5 -28.1 16.15 -31.65 L15.75 -32.35 14.2 -35.25 13.3 -37.45 Q13.0 -38.2 12.55 -38.4 L12.7 -38.7 12.7 -38.75 12.95 -39.15 12.95 -39.1 Q13.35 -39.8 12.9 -40.3 L12.9 -40.35 12.25 -40.85 12.25 -40.9 Q10.8 -42.55 10.4 -45.55 10.15 -47.7 9.05 -49.3 L8.95 -49.5 8.95 -49.45 8.95 -49.65 8.95 -49.7 8.65 -50.3 8.65 -50.25 Q8.4 -50.6 8.1 -50.55 L7.95 -50.65 7.9 -50.7 Q6.7 -51.75 5.0 -52.5 L4.25 -52.8 Q4.0 -52.9 3.9 -53.0 L3.8 -53.2 3.2 -53.4 2.8 -53.3 2.65 -53.2 2.6 -53.25 2.55 -53.25 1.85 -53.35 Q1.2 -53.5 0.65 -53.95 L-0.35 -53.9 Q-1.2 -53.4 -2.2 -53.2 L-2.25 -53.15 -2.85 -53.05 -2.9 -53.05 -3.1 -53.05 -3.35 -53.1 -3.55 -53.1 -4.25 -52.9 -4.35 -52.7 -4.4 -52.7 -4.45 -52.65 -4.6 -52.55 -4.8 -52.5 Z" fill="none" stroke="#000000" stroke-linecap="round" stroke-linejoin="round" stroke-width="1.0"/>
  </g>
</svg>
