<?xml version="1.0" encoding="UTF-8" standalone="no"?>
<svg xmlns:xlink="http://www.w3.org/1999/xlink" height="212.85px" width="212.85px" xmlns="http://www.w3.org/2000/svg">
  <g transform="matrix(1.0, 0.0, 0.0, 1.0, 106.2, 106.5)">
    <path d="M-21.0 104.4 Q-51.65 98.55 -75.05 75.2 -81.55 68.65 -86.7 61.6 L-87.6 59.85 Q-89.0 57.35 -90.0 54.7 L-91.8 50.05 -93.8 44.45 -95.45 38.7 Q-96.35 35.75 -96.7 32.7 L-97.4 26.75 -97.8 20.55 -98.0 14.4 Q-97.95 9.55 -97.4 4.85 L-96.1 -4.2 Q-95.4 -8.05 -94.3 -11.8 L-92.3 -18.05 -90.4 -22.95 -89.9 -24.3 -89.8 -24.85 -89.25 -25.35 -85.25 -33.6 -81.95 -38.8 -73.85 -49.0 -73.2 -49.3 Q-71.55 -51.55 -69.3 -53.4 L-64.55 -57.3 -60.3 -60.6 -59.55 -61.15 Q-57.05 -63.0 -54.35 -64.5 L-48.9 -67.45 -43.2 -69.95 -37.4 -72.05 -31.5 -73.6 -25.5 -74.9 -19.8 -75.55 -16.8 -75.7 Q-11.1 -76.1 -5.75 -75.45 L2.05 -73.9 8.0 -72.35 12.1 -71.05 14.6 -70.05 15.45 -69.75 16.1 -69.2 Q18.7 -68.35 21.1 -66.85 L25.75 -63.85 30.35 -60.6 34.65 -57.1 36.45 -55.3 36.65 -54.85 Q37.7 -54.45 38.4 -53.6 L42.5 -48.2 44.8 -44.65 45.55 -43.5 47.45 -40.1 48.5 -37.8 48.75 -37.2 49.35 -36.55 Q49.35 -35.9 49.65 -35.25 L51.7 -29.55 Q52.6 -26.6 53.1 -23.55 53.6 -20.5 53.7 -17.45 L54.0 -11.25 Q54.05 -8.5 53.55 -5.8 L52.75 -1.9 51.1 3.85 48.7 9.6 45.6 14.95 41.7 19.8 37.15 24.2 32.05 27.9 29.6 29.3 26.55 30.7 Q23.6 31.85 20.5 32.5 L14.75 33.5 8.45 33.35 Q5.4 33.0 2.5 32.1 -0.45 31.15 -3.15 29.6 -5.8 28.1 -8.15 26.0 -10.6 23.85 -12.35 21.35 -14.15 18.65 -15.1 15.7 L-15.2 15.35 Q-16.0 12.7 -15.9 9.75 -15.85 6.45 -14.6 3.6 -13.4 0.75 -10.8 -1.35 L-10.55 -1.4 -10.35 -1.45 -10.2 -1.6 -10.05 -1.8 -9.8 -2.0 -9.6 -2.0 -9.35 -2.1 -9.2 -2.3 -8.95 -2.35 Q-8.8 -2.35 -8.7 -2.45 L-8.5 -2.6 -8.5 -2.65 -5.85 -3.3 -2.5 -2.6 -0.2 -1.55 -0.05 -0.1 -2.3 -0.15 -2.95 -0.1 Q-6.1 0.75 -7.4 3.95 -8.3 6.05 -8.25 8.45 L-8.15 10.05 Q-7.75 13.05 -5.95 15.65 -4.2 18.35 -1.6 20.25 0.9 22.05 3.85 23.05 6.75 23.95 9.8 24.3 13.0 24.7 16.0 24.25 19.15 23.7 22.0 22.5 L22.55 22.3 Q25.05 21.2 27.4 19.6 L32.25 15.6 36.4 10.95 39.65 5.7 Q41.1 2.95 41.95 0.0 42.8 -2.95 43.25 -6.0 L43.5 -7.65 Q44.65 -14.0 43.55 -20.05 42.85 -23.8 41.65 -27.35 L39.45 -33.4 38.95 -34.0 37.45 -37.3 36.85 -38.35 32.85 -43.8 Q30.6 -46.6 27.95 -48.75 L27.65 -49.45 14.1 -58.65 Q13.2 -58.75 12.4 -59.2 L8.3 -60.95 2.45 -62.85 -5.65 -64.5 Q-10.8 -65.2 -15.8 -64.6 L-20.7 -64.35 -26.8 -63.35 -31.6 -62.25 -36.15 -60.75 -41.95 -58.35 -46.7 -56.15 -51.8 -53.2 -52.45 -52.75 Q-54.1 -51.65 -55.6 -50.35 L-60.3 -46.2 -65.0 -41.65 Q-67.2 -39.5 -68.85 -37.0 -70.5 -34.65 -72.3 -32.45 -74.1 -30.25 -75.4 -27.7 L-78.25 -22.3 Q-79.7 -19.5 -80.75 -16.55 L-82.7 -10.6 -84.4 -3.8 Q-86.0 3.4 -86.3 10.75 L-86.35 13.65 -86.3 16.45 -86.15 19.95 -85.9 23.9 -85.15 30.1 Q-84.7 33.0 -83.85 35.8 L-81.2 43.8 -78.2 51.75 -76.55 55.35 -68.35 68.5 -66.8 71.0 Q-65.35 73.45 -63.2 75.5 L-58.7 79.85 -54.8 83.5 -50.8 87.05 -46.65 90.35 -42.6 93.05 -38.85 95.15 -31.75 99.2 Q-29.3 100.55 -26.65 101.5 L-20.9 103.9 -21.0 104.4" fill="#33ff00" fill-rule="evenodd" stroke="none"/>
    <path d="M24.45 -103.95 L27.0 -103.35 26.9 -102.95 24.45 -103.95" fill="#010000" fill-rule="evenodd" stroke="none"/>
    <path d="M-104.75 -18.55 Q-99.5 -50.95 -75.05 -75.35 -66.2 -84.15 -56.35 -90.45 -39.9 -97.2 -17.8 -97.75 11.8 -98.45 31.95 -86.75 49.35 -76.75 61.0 -60.85 L64.0 -56.25 Q76.55 -36.85 74.3 -6.35 73.2 7.4 67.95 17.95 59.7 34.6 44.35 44.05 40.4 46.4 36.05 48.3 13.8 58.0 -8.15 49.05 -22.85 43.1 -28.85 29.0 -32.0 21.6 -32.75 11.95 -33.55 2.5 -30.35 -3.9 -25.45 -13.85 -14.8 -15.15 L-4.85 -14.65 Q4.0 -13.05 2.25 -3.65 L2.15 -2.8 1.6 -1.7 1.25 -1.4 0.15 -0.1 -0.05 -0.1 -0.2 -1.55 -0.4 -4.65 -0.45 -5.0 Q-1.7 -7.05 -3.95 -8.1 L-4.05 -8.3 -7.8 -8.1 Q-27.45 -6.4 -22.6 17.4 L-21.5 21.65 Q-18.3 31.35 -10.0 36.65 6.85 47.4 28.65 39.5 32.7 38.0 36.35 36.1 53.45 26.85 60.2 7.2 68.6 -17.25 59.1 -39.8 56.25 -46.55 52.55 -52.35 43.55 -66.35 29.5 -75.3 9.35 -88.15 -23.3 -86.0 -37.9 -85.0 -49.3 -80.1 -60.05 -75.6 -69.0 -69.25 -79.15 -62.05 -87.0 -52.5 -98.7 -38.3 -104.75 -18.55" fill="#9900cc" fill-rule="evenodd" stroke="none"/>
    <path d="M62.1 86.7 Q35.25 106.35 0.25 106.35 -9.45 106.35 -18.5 104.9 L-20.9 103.9 -26.65 101.5 Q-29.3 100.55 -31.75 99.2 L-38.85 95.15 -42.6 93.05 -46.65 90.35 -50.8 87.05 -54.8 83.5 -58.7 79.85 -63.2 75.5 Q-65.35 73.45 -66.8 71.0 L-68.35 68.5 -76.55 55.35 -78.2 51.75 -81.2 43.8 -83.85 35.8 Q-84.7 33.0 -85.15 30.1 L-85.9 23.9 -86.15 19.95 -86.3 16.45 -86.35 13.65 -86.3 10.75 Q-86.0 3.4 -84.4 -3.8 L-82.7 -10.6 -80.75 -16.55 Q-79.7 -19.5 -78.25 -22.3 L-75.4 -27.7 Q-74.1 -30.25 -72.3 -32.45 -70.5 -34.65 -68.85 -37.0 -67.2 -39.5 -65.0 -41.65 L-60.3 -46.2 -55.6 -50.35 Q-54.1 -51.65 -52.45 -52.75 L-51.8 -53.2 -46.7 -56.15 -41.95 -58.35 -36.15 -60.75 -31.6 -62.25 -26.8 -63.35 -20.7 -64.35 -15.8 -64.6 Q-10.8 -65.2 -5.65 -64.5 L2.45 -62.85 8.3 -60.95 12.4 -59.2 Q13.2 -58.75 14.1 -58.65 L27.65 -49.45 27.95 -48.75 Q30.6 -46.6 32.85 -43.8 L36.85 -38.35 37.45 -37.3 38.95 -34.0 39.45 -33.4 41.65 -27.35 Q42.85 -23.8 43.55 -20.05 44.65 -14.0 43.5 -7.65 L43.25 -6.0 Q42.8 -2.95 41.95 0.0 41.1 2.95 39.65 5.7 L36.4 10.95 32.25 15.6 27.4 19.6 Q25.05 21.2 22.55 22.3 L22.0 22.5 Q19.15 23.7 16.0 24.25 13.0 24.7 9.8 24.3 6.75 23.95 3.85 23.05 0.9 22.05 -1.6 20.25 -4.2 18.35 -5.95 15.65 -7.75 13.05 -8.15 10.05 L-8.25 8.45 Q-8.3 6.05 -7.4 3.95 -6.1 0.75 -2.95 -0.1 L-2.3 -0.15 -0.05 -0.1 -0.25 0.0 Q-1.45 0.7 -1.95 2.1 L-2.25 3.55 -2.3 5.6 Q-2.0 11.95 4.05 13.45 9.9 14.85 14.75 14.45 24.75 13.5 30.05 4.4 34.65 -3.6 33.05 -15.35 32.0 -23.1 29.4 -29.25 22.4 -45.4 4.35 -50.85 -21.2 -58.65 -41.5 -46.8 L-44.65 -44.9 Q-62.9 -33.0 -70.55 -10.75 -78.75 12.95 -70.95 37.4 -66.85 50.1 -60.1 60.3 -53.95 69.65 -45.5 76.9 -28.0 91.85 -0.05 96.25 29.9 100.95 54.3 90.4 58.3 88.65 62.1 86.7" fill="#ffff00" fill-rule="evenodd" stroke="none"/>
    <path d="M89.2 -58.85 Q106.65 -33.1 106.65 -0.1 106.65 10.5 104.85 20.4 103.45 24.4 101.65 28.2 91.9 48.9 75.85 63.2 72.55 66.1 68.95 68.65 54.9 78.6 35.75 83.25 8.45 89.8 -15.7 80.35 -37.25 71.9 -50.55 54.85 L-52.35 52.5 Q-64.3 35.4 -63.3 9.85 -62.45 -11.45 -52.9 -24.4 -46.7 -32.8 -37.05 -37.4 -26.5 -42.5 -11.8 -43.0 2.6 -43.55 11.6 -37.65 19.95 -32.15 22.6 -22.45 24.45 -15.4 23.3 -6.1 22.4 1.0 17.35 4.8 12.45 8.4 8.35 8.05 4.45 7.65 1.25 3.7 L0.8 3.1 Q0.0 1.95 -0.05 0.2 L-0.05 0.0 -0.05 -0.1 0.15 -0.1 0.25 -0.1 0.25 0.0 0.35 0.1 Q1.05 1.15 2.05 1.75 L3.05 2.25 8.25 2.0 Q12.4 0.8 13.7 -3.0 16.0 -9.8 15.45 -15.3 14.55 -23.85 6.7 -29.3 -0.45 -34.3 -12.45 -33.25 -21.85 -32.5 -29.15 -29.45 -44.45 -23.1 -50.5 -6.9 -56.6 9.4 -51.2 27.65 -48.5 36.75 -44.1 44.25 -36.45 57.15 -23.55 65.1 -8.55 74.35 15.3 73.8 43.65 73.15 61.1 60.75 L64.0 58.55 Q82.0 43.9 91.65 20.95 102.0 -3.9 96.4 -34.35 93.9 -47.7 89.2 -58.85" fill="#ff6600" fill-rule="evenodd" stroke="none"/>
    <path d="M-56.35 -90.45 Q-31.4 -106.5 0.25 -106.5 12.85 -106.5 24.45 -103.95 L26.9 -102.95 Q49.6 -92.85 64.85 -75.45 L69.6 -69.45 Q80.85 -53.6 85.05 -30.8 89.25 -7.85 82.35 11.95 73.95 35.85 55.9 50.45 L53.0 52.65 Q34.9 65.15 5.25 62.5 -9.0 61.2 -19.2 55.15 -30.55 48.4 -36.45 36.6 -41.25 27.05 -42.5 14.25 -43.75 2.0 -40.05 -6.2 -34.3 -19.0 -22.1 -22.45 -14.1 -24.75 -3.25 -22.95 2.85 -21.9 6.45 -17.35 9.2 -13.85 9.0 -8.9 L8.45 -4.65 Q7.25 -1.95 4.45 -0.8 2.75 -0.2 0.55 -0.1 L0.25 -0.1 0.15 -0.1 1.25 -1.4 1.6 -1.7 2.15 -2.8 2.25 -3.65 Q4.0 -13.05 -4.85 -14.65 L-14.8 -15.15 Q-25.45 -13.85 -30.35 -3.9 -33.55 2.5 -32.75 11.95 -32.0 21.6 -28.85 29.0 -22.85 43.1 -8.15 49.05 13.8 58.0 36.05 48.3 40.4 46.4 44.35 44.05 59.7 34.6 67.95 17.95 73.2 7.4 74.3 -6.35 76.55 -36.85 64.0 -56.25 L61.0 -60.85 Q49.35 -76.75 31.95 -86.75 11.8 -98.45 -17.8 -97.75 -39.9 -97.2 -56.35 -90.45" fill="#ff00ff" fill-rule="evenodd" stroke="none"/>
    <path d="M-86.7 61.6 L-87.8 60.05 -87.6 59.85 -86.7 61.6" fill="#fd0000" fill-rule="evenodd" stroke="none"/>
    <path d="M-18.5 104.9 L-21.0 104.4 -20.9 103.9 -18.5 104.9 M-0.4 -4.65 L-0.45 -4.9 -0.45 -5.0 -0.4 -4.65" fill="#000000" fill-rule="evenodd" stroke="none"/>
    <path d="M-87.8 60.05 Q-106.2 33.75 -106.2 -0.1 -106.2 -9.65 -104.75 -18.55 -98.7 -38.3 -87.0 -52.5 -79.15 -62.05 -69.0 -69.25 -60.05 -75.6 -49.3 -80.1 -37.9 -85.0 -23.3 -86.0 9.35 -88.15 29.5 -75.3 43.55 -66.35 52.55 -52.35 56.25 -46.55 59.1 -39.8 68.6 -17.25 60.2 7.2 53.45 26.85 36.35 36.1 32.7 38.0 28.65 39.5 6.85 47.4 -10.0 36.65 -18.3 31.35 -21.5 21.65 L-22.6 17.4 Q-27.45 -6.4 -7.8 -8.1 L-4.05 -8.3 -3.95 -8.1 Q-1.7 -7.05 -0.45 -5.0 L-0.45 -4.9 -0.4 -4.65 -0.2 -1.55 -2.5 -2.6 -5.85 -3.3 -8.5 -2.65 -8.5 -2.6 -8.7 -2.45 Q-8.8 -2.35 -8.95 -2.35 L-9.2 -2.3 -9.35 -2.1 -9.6 -2.0 -9.8 -2.0 -10.05 -1.8 -10.2 -1.6 -10.35 -1.45 -10.55 -1.4 -10.8 -1.35 Q-13.4 0.75 -14.6 3.6 -15.85 6.45 -15.9 9.75 -16.0 12.7 -15.2 15.35 L-15.1 15.7 Q-14.15 18.65 -12.35 21.35 -10.6 23.85 -8.15 26.0 -5.8 28.1 -3.15 29.6 -0.45 31.15 2.5 32.1 5.4 33.0 8.45 33.35 L14.75 33.5 20.5 32.5 Q23.6 31.85 26.55 30.7 L29.6 29.3 32.05 27.9 37.15 24.2 41.7 19.8 45.6 14.95 48.7 9.6 51.1 3.85 52.75 -1.9 53.55 -5.8 Q54.05 -8.5 54.0 -11.25 L53.7 -17.45 Q53.6 -20.5 53.1 -23.55 52.6 -26.6 51.7 -29.55 L49.65 -35.25 Q49.35 -35.9 49.35 -36.55 L48.75 -37.2 48.5 -37.8 47.45 -40.1 45.55 -43.5 44.8 -44.65 42.5 -48.2 38.4 -53.6 Q37.7 -54.45 36.65 -54.85 L36.45 -55.3 34.65 -57.1 30.35 -60.6 25.75 -63.85 21.1 -66.85 Q18.7 -68.35 16.1 -69.2 L15.45 -69.75 14.6 -70.05 12.1 -71.05 8.0 -72.35 2.05 -73.9 -5.75 -75.45 Q-11.1 -76.1 -16.8 -75.7 L-19.8 -75.55 -25.5 -74.9 -31.5 -73.6 -37.4 -72.05 -43.2 -69.95 -48.9 -67.45 -54.35 -64.5 Q-57.05 -63.0 -59.55 -61.15 L-60.3 -60.6 -64.55 -57.3 -69.3 -53.4 Q-71.55 -51.55 -73.2 -49.3 L-73.85 -49.0 -81.95 -38.8 -85.25 -33.6 -89.25 -25.35 -89.8 -24.85 -89.9 -24.3 -90.4 -22.95 -92.3 -18.05 -94.3 -11.8 Q-95.4 -8.05 -96.1 -4.2 L-97.4 4.85 Q-97.95 9.55 -98.0 14.4 L-97.8 20.55 -97.4 26.75 -96.7 32.7 Q-96.35 35.75 -95.45 38.7 L-93.8 44.45 -91.8 50.05 -90.0 54.7 Q-89.0 57.35 -87.6 59.85 L-87.8 60.05" fill="#0099ff" fill-rule="evenodd" stroke="none"/>
    <path d="M104.85 20.4 Q99.15 51.5 75.5 75.2 69.05 81.6 62.1 86.7 58.3 88.65 54.3 90.4 29.9 100.95 -0.05 96.25 -28.0 91.85 -45.5 76.9 -53.95 69.65 -60.1 60.3 -66.85 50.1 -70.95 37.4 -78.75 12.95 -70.55 -10.75 -62.9 -33.0 -44.65 -44.9 L-41.5 -46.8 Q-21.2 -58.65 4.35 -50.85 22.4 -45.4 29.4 -29.25 32.0 -23.1 33.05 -15.35 34.65 -3.6 30.05 4.4 24.75 13.5 14.75 14.45 9.9 14.85 4.05 13.45 -2.0 11.95 -2.3 5.6 L-2.25 3.55 -1.95 2.1 Q-1.45 0.7 -0.25 0.0 L-0.05 -0.1 -0.05 0.0 -0.05 0.2 Q0.0 1.95 0.8 3.1 L1.25 3.7 Q4.45 7.65 8.35 8.05 12.45 8.4 17.35 4.8 22.4 1.0 23.3 -6.1 24.45 -15.4 22.6 -22.45 19.95 -32.15 11.6 -37.65 2.6 -43.55 -11.8 -43.0 -26.5 -42.5 -37.05 -37.4 -46.7 -32.8 -52.9 -24.4 -62.45 -11.45 -63.3 9.85 -64.3 35.4 -52.35 52.5 L-50.55 54.85 Q-37.25 71.9 -15.7 80.35 8.45 89.8 35.75 83.25 54.9 78.6 68.95 68.65 72.55 66.1 75.85 63.2 91.9 48.9 101.65 28.2 103.45 24.4 104.85 20.4" fill="#ffcc00" fill-rule="evenodd" stroke="none"/>
    <path d="M27.0 -103.35 Q54.25 -96.6 75.5 -75.35 83.3 -67.5 89.2 -58.85 93.9 -47.7 96.4 -34.35 102.0 -3.9 91.65 20.95 82.0 43.9 64.0 58.55 L61.1 60.75 Q43.65 73.15 15.3 73.8 -8.55 74.35 -23.55 65.1 -36.45 57.15 -44.1 44.25 -48.5 36.75 -51.2 27.65 -56.6 9.4 -50.5 -6.9 -44.45 -23.1 -29.15 -29.45 -21.85 -32.5 -12.45 -33.25 -0.45 -34.3 6.7 -29.3 14.55 -23.85 15.45 -15.3 16.0 -9.8 13.7 -3.0 12.4 0.8 8.25 2.0 L3.05 2.25 2.05 1.75 Q1.05 1.15 0.35 0.1 L0.25 0.0 0.25 -0.1 0.55 -0.1 Q2.75 -0.2 4.45 -0.8 7.25 -1.95 8.45 -4.65 L9.0 -8.9 Q9.2 -13.85 6.45 -17.35 2.85 -21.9 -3.25 -22.95 -14.1 -24.75 -22.1 -22.45 -34.3 -19.0 -40.05 -6.2 -43.75 2.0 -42.5 14.25 -41.25 27.05 -36.45 36.6 -30.55 48.4 -19.2 55.15 -9.0 61.2 5.25 62.5 34.9 65.15 53.0 52.65 L55.9 50.45 Q73.95 35.85 82.35 11.95 89.25 -7.85 85.05 -30.8 80.85 -53.6 69.6 -69.45 L64.85 -75.45 Q49.6 -92.85 26.9 -102.95 L27.0 -103.35" fill="#ff0000" fill-rule="evenodd" stroke="none"/>
  </g>
</svg>
