<?xml version="1.0" encoding="UTF-8" standalone="no"?>
<svg xmlns:xlink="http://www.w3.org/1999/xlink" height="164.1px" width="88.15px" xmlns="http://www.w3.org/2000/svg">
  <g transform="matrix(1.0, 0.0, 0.0, 1.0, 44.1, 82.05)">
    <path d="M27.55 -51.1 L27.55 -51.15 27.35 -53.2 27.85 -51.2 27.85 -51.15 27.55 -51.1" fill="#ffff00" fill-rule="evenodd" stroke="none"/>
    <path d="M6.55 -78.35 Q0.8 -75.25 1.95 -68.15 4.4 -56.45 8.3 -49.6 L9.2 -48.1 Q10.55 -46.0 12.05 -44.45 L13.35 -43.25 Q15.3 -41.6 17.25 -40.75 19.65 -39.75 22.05 -40.0 L23.2 -40.2 Q28.2 -41.45 27.55 -51.1 L27.85 -51.15 Q29.7 -43.0 27.55 -37.4 L27.5 -37.3 Q26.0 -30.8 27.35 -27.75 32.25 -18.5 35.75 -9.85 32.25 -18.5 27.35 -27.75 26.0 -30.8 27.5 -37.3 35.2 -32.25 35.75 -9.85 L36.7 -7.4 Q42.4 7.4 43.85 20.25 45.95 46.65 22.95 56.2 14.6 59.0 6.3 60.25 L2.7 60.8 Q0.5 61.0 -1.1 60.75 L-2.45 60.35 Q-3.15 65.55 -3.3 71.9 L-3.35 74.55 8.3 82.05 Q-0.5 82.25 -11.85 78.35 L-11.95 77.95 -12.0 77.6 -12.05 76.9 -12.6 73.25 -12.7 72.75 -13.15 70.5 Q-13.7 68.05 -14.55 65.75 -17.05 59.3 -22.05 53.35 L-24.05 51.15 -24.25 50.95 -24.8 50.35 -25.0 50.15 -26.15 48.85 -28.2 46.85 -31.7 41.7 -32.7 40.1 Q-41.1 26.05 -42.9 11.0 -50.75 -42.0 -7.5 -68.35 1.9 -80.65 6.55 -78.35 M1.3 -28.15 Q6.75 -9.15 2.4 3.6 L1.65 3.45 2.4 3.6 Q6.75 -9.15 1.3 -28.15 M-8.3 59.3 Q-13.3 58.55 -16.9 56.9 L-17.05 56.85 Q-20.1 55.4 -22.05 53.35 -20.1 55.4 -17.05 56.85 L-16.9 56.9 Q-13.3 58.55 -8.3 59.3 M-4.15 6.55 Q-4.65 9.7 -6.05 13.05 L-6.1 13.35 Q-6.65 15.8 -4.05 14.85 L-2.55 14.25 Q-1.0 13.7 0.05 14.75 L1.9 16.7 Q3.25 17.85 3.55 15.6 L3.8 13.15 Q4.05 11.65 5.7 10.95 L7.3 10.35 Q9.9 9.3 7.75 7.7 4.4 5.95 1.65 3.45 L0.5 2.35 -3.95 4.5 -4.1 6.3 -4.3 6.5 -4.15 6.55 M-20.2 -22.9 Q-16.9 -3.7 -4.3 6.5 -16.9 -3.7 -20.2 -22.9" fill="url(#gradient0)" fill-rule="evenodd" stroke="none"/>
    <path d="M27.35 -53.2 L27.55 -51.15 27.55 -51.1 Q28.2 -41.45 23.2 -40.2 L22.05 -40.0 Q19.65 -39.75 17.25 -40.75 15.3 -41.6 13.35 -43.25 L12.05 -44.45 Q10.55 -46.0 9.2 -48.1 L8.3 -49.6 Q4.4 -56.45 1.95 -68.15 0.8 -75.25 6.55 -78.35 17.5 -86.0 24.2 -77.9 34.0 -65.85 27.35 -53.2" fill="url(#gradient1)" fill-rule="evenodd" stroke="none"/>
    <path d="M0.5 2.35 L1.65 3.45 Q4.4 5.95 7.75 7.7 9.9 9.3 7.3 10.35 L5.7 10.95 Q4.05 11.65 3.8 13.15 L3.55 15.6 Q3.25 17.85 1.9 16.7 L0.05 14.75 Q-1.0 13.7 -2.55 14.25 L-4.05 14.85 Q-6.65 15.8 -6.1 13.35 L-6.05 13.05 Q-4.65 9.7 -4.15 6.55 L-4.1 6.3 -3.95 4.5 0.5 2.35" fill="url(#gradient2)" fill-rule="evenodd" stroke="none"/>
    <path d="M-4.1 6.3 L-4.15 6.55 -4.3 6.5 -4.1 6.3" fill="url(#gradient3)" fill-rule="evenodd" stroke="none"/>
    <path d="M-3.3 71.9 Q-3.15 65.55 -2.45 60.35 L-1.1 60.75 Q0.5 61.0 2.7 60.8 L1.7 66.35 16.5 72.15 Q8.8 74.1 -1.9 72.25 L-3.3 71.9" fill="url(#gradient4)" fill-rule="evenodd" stroke="none"/>
    <path d="M27.55 -51.1 L27.55 -51.15 27.35 -53.2 Q34.0 -65.85 24.2 -77.9 17.5 -86.0 6.55 -78.35 0.8 -75.25 1.95 -68.15 4.4 -56.45 8.3 -49.6 L9.2 -48.1 Q10.55 -46.0 12.05 -44.45 L13.35 -43.25 Q15.3 -41.6 17.25 -40.75 19.65 -39.75 22.05 -40.0 L23.2 -40.2 Q28.2 -41.45 27.55 -51.1 L27.85 -51.15 27.85 -51.2 27.35 -53.2 M35.75 -9.85 Q32.25 -18.5 27.35 -27.75 26.0 -30.8 27.5 -37.3 L27.55 -37.4 Q29.7 -43.0 27.85 -51.15 M6.55 -78.35 Q1.9 -80.65 -7.5 -68.35 -50.75 -42.0 -42.9 11.0 -41.1 26.05 -32.7 40.1 L-31.7 41.7 -28.2 46.85 -26.15 48.85 -25.0 50.15 -24.8 50.35 -24.25 50.95 -24.05 51.15 -22.05 53.35 Q-20.1 55.4 -17.05 56.85 L-16.9 56.9 Q-13.3 58.55 -8.3 59.3 M1.65 3.45 L2.4 3.6 Q6.75 -9.15 1.3 -28.15 M-4.15 6.55 Q-4.65 9.7 -6.05 13.05 L-6.1 13.35 Q-6.65 15.8 -4.05 14.85 L-2.55 14.25 Q-1.0 13.7 0.05 14.75 L1.9 16.7 Q3.25 17.85 3.55 15.6 L3.8 13.15 Q4.05 11.65 5.7 10.95 L7.3 10.35 Q9.9 9.3 7.75 7.7 4.4 5.95 1.65 3.45 L0.5 2.35 M-3.95 4.5 L-4.1 6.3 -4.15 6.55 M-4.3 6.5 Q-16.9 -3.7 -20.2 -22.9 M-4.1 6.3 L-4.3 6.5 M-3.3 71.9 L-3.35 74.55 8.3 82.05 Q-0.5 82.25 -11.85 78.35 L-11.95 77.95 -12.0 77.6 -12.05 76.9 -12.6 73.25 -12.7 72.75 -13.15 70.5 Q-13.7 68.05 -14.55 65.75 -17.05 59.3 -22.05 53.35 M2.7 60.8 Q0.5 61.0 -1.1 60.75 L-2.45 60.35 Q-3.15 65.55 -3.3 71.9 L-1.9 72.25 Q8.8 74.1 16.5 72.15 L1.7 66.35 2.7 60.8 6.3 60.25 Q14.6 59.0 22.95 56.2 45.95 46.65 43.85 20.25 42.4 7.4 36.7 -7.4 L35.75 -9.85 Q35.2 -32.25 27.5 -37.3" fill="none" stroke="#990099" stroke-linecap="round" stroke-linejoin="round" stroke-width="0.05"/>
  </g>
  <defs>
    <radialGradient cx="0" cy="0" gradientTransform="matrix(0.0988, 0.0, 0.0, 0.0988, 23.95, 6.65)" gradientUnits="userSpaceOnUse" id="gradient0" r="819.2" spreadMethod="pad">
      <stop offset="0.3843137254901961" stop-color="#ff00ff"/>
      <stop offset="1.0" stop-color="#ff66ff"/>
    </radialGradient>
    <radialGradient cx="0" cy="0" gradientTransform="matrix(0.0316, 0.0, 0.0, 0.0316, 8.95, -58.3)" gradientUnits="userSpaceOnUse" id="gradient1" r="819.2" spreadMethod="pad">
      <stop offset="0.3843137254901961" stop-color="#ff00ff"/>
      <stop offset="1.0" stop-color="#ff66ff"/>
    </radialGradient>
    <radialGradient cx="0" cy="0" gradientTransform="matrix(0.0109, 0.0, 0.0, 0.0109, -0.2, 9.25)" gradientUnits="userSpaceOnUse" id="gradient2" r="819.2" spreadMethod="pad">
      <stop offset="0.3843137254901961" stop-color="#ff00ff"/>
      <stop offset="1.0" stop-color="#ff66ff"/>
    </radialGradient>
    <radialGradient cx="0" cy="0" gradientTransform="matrix(0.0988, 0.0, 0.0, 0.0988, 23.95, 6.65)" gradientUnits="userSpaceOnUse" id="gradient3" r="819.2" spreadMethod="pad">
      <stop offset="0.3843137254901961" stop-color="#33ccff"/>
      <stop offset="1.0" stop-color="#3399ff"/>
    </radialGradient>
    <radialGradient cx="0" cy="0" gradientTransform="matrix(0.0194, 0.0, 0.0, 0.0194, 1.7, 66.35)" gradientUnits="userSpaceOnUse" id="gradient4" r="819.2" spreadMethod="pad">
      <stop offset="0.3843137254901961" stop-color="#ff00ff"/>
      <stop offset="1.0" stop-color="#ff66ff"/>
    </radialGradient>
  </defs>
</svg>
