<?xml version="1.0" encoding="UTF-8" standalone="no"?>
<svg xmlns:xlink="http://www.w3.org/1999/xlink" height="189.0px" width="96.8px" xmlns="http://www.w3.org/2000/svg">
  <g transform="matrix(1.0, 0.0, 0.0, 1.0, 48.4, 94.5)">
    <path d="M-13.4 -71.6 Q-13.75 -86.5 -5.65 -92.25 L-4.2 -93.25 -4.15 -93.25 Q-2.0 -94.9 -0.2 -94.35 L0.7 -93.95 2.15 -93.35 Q11.95 -89.6 12.4 -78.0 15.6 -73.55 16.15 -67.1 15.35 -66.7 14.15 -66.4 L13.95 -66.45 14.1 -66.85 14.15 -67.0 14.45 -69.0 14.2 -71.0 13.4 -72.65 Q12.25 -74.1 10.7 -74.1 9.15 -74.1 8.05 -72.65 6.95 -71.15 6.95 -69.0 6.95 -67.5 7.55 -66.3 L7.9 -65.7 6.85 -65.7 6.45 -65.7 4.1 -65.9 4.4 -66.6 4.8 -68.55 4.8 -68.75 4.7 -69.75 Q4.5 -71.25 3.7 -72.4 2.55 -73.85 1.0 -73.85 -0.55 -73.85 -1.6 -72.4 -2.75 -70.9 -2.75 -68.75 L-2.7 -68.05 -2.5 -66.95 -4.45 -67.45 Q-10.1 -68.95 -13.4 -71.6" fill="url(#gradient0)" fill-rule="evenodd" stroke="none"/>
    <path d="M-2.5 -66.95 L-2.7 -68.05 -2.75 -68.75 Q-2.75 -70.9 -1.6 -72.4 -0.55 -73.85 1.0 -73.85 2.55 -73.85 3.7 -72.4 4.5 -71.25 4.7 -69.75 L4.15 -70.9 3.95 -71.1 3.9 -71.15 Q3.05 -72.0 1.8 -72.0 0.55 -72.0 -0.35 -71.15 -1.2 -70.25 -1.2 -69.0 -1.2 -67.75 -0.35 -66.9 L0.25 -66.4 -2.5 -66.95 M4.8 -68.55 L4.4 -66.6 4.1 -65.9 3.4 -66.0 2.6 -66.1 3.85 -66.85 3.9 -66.9 4.05 -67.05 Q4.65 -67.7 4.8 -68.55 M7.9 -65.7 L7.55 -66.3 Q6.95 -67.5 6.95 -69.0 6.95 -71.15 8.05 -72.65 9.15 -74.1 10.7 -74.1 12.25 -74.1 13.4 -72.65 L14.2 -71.0 14.15 -71.05 14.1 -71.1 Q13.25 -71.95 12.0 -71.95 10.75 -71.95 9.85 -71.1 9.0 -70.2 9.0 -68.95 9.0 -67.7 9.85 -66.85 10.35 -66.35 11.0 -66.1 L11.1 -66.1 11.7 -65.95 7.9 -65.7 M14.1 -66.85 L13.95 -66.45 13.9 -66.3 13.15 -66.15 13.65 -66.45 14.05 -66.8 14.1 -66.85 M11.0 -68.8 L10.45 -68.7 Q9.3 -69.2 10.2 -70.1 10.4 -70.3 10.65 -70.3 12.05 -69.8 11.0 -68.8 M0.4 -70.35 L0.85 -70.6 Q2.25 -70.1 1.2 -69.05 L0.65 -68.95 Q-0.5 -69.5 0.4 -70.35" fill="#ffffff" fill-rule="evenodd" stroke="none"/>
    <path d="M-13.4 -71.6 Q-10.1 -68.95 -4.45 -67.45 L-2.5 -66.95 0.25 -66.4 2.6 -66.1 3.4 -66.0 4.1 -65.9 6.45 -65.7 6.85 -65.7 7.9 -65.7 11.7 -65.95 13.15 -66.15 13.9 -66.3 14.15 -66.4 Q15.35 -66.7 16.15 -67.1 17.05 -67.6 17.4 -68.3 18.8 -67.15 19.85 -65.6 L19.8 -65.55 18.05 -65.55 Q15.2 -65.45 16.7 -63.2 19.75 -59.85 21.65 -55.7 L22.65 -55.8 22.65 -54.95 Q28.6 -44.45 33.7 -33.1 38.95 -21.4 43.35 -8.8 53.45 16.3 43.35 30.0 34.5 43.15 22.3 51.35 L22.05 51.5 22.2 51.65 Q15.2 62.4 11.1 78.7 19.0 83.1 24.55 89.85 14.0 87.85 2.95 83.25 L2.95 82.75 3.95 66.65 0.55 80.95 Q-5.9 89.35 -14.55 94.5 -11.6 85.75 -5.75 78.35 -11.1 64.95 -20.1 54.55 -27.6 49.75 -33.3 43.1 -49.65 27.05 -48.3 -3.35 -42.55 -28.8 -27.9 -46.45 -26.6 -52.5 -24.55 -59.25 L-23.65 -59.3 -23.4 -58.9 -18.55 -59.8 -18.25 -60.6 Q-16.95 -64.1 -14.3 -67.5 L-14.15 -67.75 Q-13.05 -69.85 -15.35 -69.75 L-13.75 -71.85 -13.4 -71.6 M5.05 59.75 Q14.25 56.6 22.05 51.5 14.25 56.6 5.05 59.75 M-5.2 61.65 Q-13.35 58.8 -20.1 54.55 -13.35 58.8 -5.2 61.65 M-28.05 -11.9 Q-32.8 -24.35 -27.9 -46.45 -32.8 -24.35 -28.05 -11.9 M-4.0 -28.6 Q-8.55 -45.75 -16.35 -61.6 L-18.25 -60.6 -16.35 -61.6 Q-8.55 -45.75 -4.0 -28.6" fill="url(#gradient1)" fill-rule="evenodd" stroke="none"/>
    <path d="M13.95 -66.45 L14.15 -66.4 13.9 -66.3 13.95 -66.45" fill="url(#gradient2)" fill-rule="evenodd" stroke="none"/>
    <path d="M19.85 -65.6 L19.85 -65.55 19.8 -65.55 19.85 -65.6 M22.3 51.35 L22.2 51.65 22.05 51.5 22.3 51.35" fill="url(#gradient3)" fill-rule="evenodd" stroke="none"/>
    <path d="M19.85 -65.55 Q21.55 -65.7 22.3 -66.95 L23.4 -69.15 Q24.4 -71.2 25.3 -69.65 L26.35 -67.15 Q26.95 -65.85 28.6 -65.75 L30.25 -65.8 Q33.0 -65.85 31.65 -63.7 L31.45 -63.45 Q28.35 -60.1 26.7 -56.5 L26.55 -56.2 25.9 -56.1 23.75 -55.9 22.65 -55.8 21.65 -55.7 Q19.75 -59.85 16.7 -63.2 15.2 -65.45 18.05 -65.55 L19.8 -65.55 19.85 -65.55" fill="url(#gradient4)" fill-rule="evenodd" stroke="none"/>
    <path d="M26.7 -56.5 L27.1 -56.8 Q33.1 -47.65 33.7 -33.1 28.6 -44.45 22.65 -54.95 L22.65 -55.8 23.75 -55.9 25.9 -56.1 26.55 -56.2 26.7 -56.5" fill="url(#gradient5)" fill-rule="evenodd" stroke="none"/>
    <path d="M-23.65 -59.3 Q-25.8 -63.0 -29.0 -65.95 -30.65 -68.1 -27.85 -68.4 L-26.15 -68.55 Q-24.4 -68.85 -23.75 -70.15 L-22.85 -72.45 Q-22.0 -74.6 -21.0 -73.1 L-19.7 -70.7 Q-19.0 -69.45 -17.35 -69.55 L-15.75 -69.75 -15.35 -69.75 Q-13.05 -69.85 -14.15 -67.75 L-14.3 -67.5 Q-16.95 -64.1 -18.25 -60.6 L-18.55 -59.8 -23.4 -58.9 -23.65 -59.3" fill="url(#gradient6)" fill-rule="evenodd" stroke="none"/>
    <path d="M4.7 -69.75 L4.8 -68.75 4.8 -68.55 Q4.65 -67.7 4.05 -67.05 L3.9 -66.9 3.85 -66.85 2.6 -66.1 0.25 -66.4 -0.35 -66.9 Q-1.2 -67.75 -1.2 -69.0 -1.2 -70.25 -0.35 -71.15 0.55 -72.0 1.8 -72.0 3.05 -72.0 3.9 -71.15 L3.95 -71.1 4.15 -70.9 4.7 -69.75 M14.2 -71.0 L14.45 -69.0 14.15 -67.0 14.1 -66.85 14.05 -66.8 13.65 -66.45 13.15 -66.15 11.7 -65.95 11.1 -66.1 11.0 -66.1 Q10.35 -66.35 9.85 -66.85 9.0 -67.7 9.0 -68.95 9.0 -70.2 9.85 -71.1 10.75 -71.95 12.0 -71.95 13.25 -71.95 14.1 -71.1 L14.15 -71.05 14.2 -71.0 M11.0 -68.8 Q12.05 -69.8 10.65 -70.3 10.4 -70.3 10.2 -70.1 9.3 -69.2 10.45 -68.7 L11.0 -68.8 M0.4 -70.35 Q-0.5 -69.5 0.65 -68.95 L1.2 -69.05 Q2.25 -70.1 0.85 -70.6 L0.4 -70.35" fill="#884400" fill-rule="evenodd" stroke="none"/>
    <path d="M16.15 -67.1 Q15.6 -73.55 12.4 -78.0 11.95 -89.6 2.15 -93.35 L0.7 -93.95 -0.2 -94.35 Q-2.0 -94.9 -4.15 -93.25 L-4.2 -93.25 -5.65 -92.25 Q-13.75 -86.5 -13.4 -71.6 -10.1 -68.95 -4.45 -67.45 L-2.5 -66.95 -2.7 -68.05 -2.75 -68.75 Q-2.75 -70.9 -1.6 -72.4 -0.55 -73.85 1.0 -73.85 2.55 -73.85 3.7 -72.4 4.5 -71.25 4.7 -69.75 L4.8 -68.75 4.8 -68.55 4.4 -66.6 4.1 -65.9 6.45 -65.7 6.85 -65.7 7.9 -65.7 7.55 -66.3 Q6.95 -67.5 6.95 -69.0 6.95 -71.15 8.05 -72.65 9.15 -74.1 10.7 -74.1 12.25 -74.1 13.4 -72.65 L14.2 -71.0 14.45 -69.0 14.15 -67.0 14.1 -66.85 13.95 -66.45 M14.15 -66.4 Q15.35 -66.7 16.15 -67.1 17.05 -67.6 17.4 -68.3 18.8 -67.15 19.85 -65.6 L19.85 -65.55 Q21.55 -65.7 22.3 -66.95 L23.4 -69.15 Q24.4 -71.2 25.3 -69.65 L26.35 -67.15 Q26.95 -65.85 28.6 -65.75 L30.25 -65.8 Q33.0 -65.85 31.65 -63.7 L31.45 -63.45 Q28.35 -60.1 26.7 -56.5 L27.1 -56.8 Q33.1 -47.65 33.7 -33.1 38.95 -21.4 43.35 -8.8 53.45 16.3 43.35 30.0 34.5 43.15 22.3 51.35 L22.2 51.65 Q15.2 62.4 11.1 78.7 19.0 83.1 24.55 89.85 14.0 87.85 2.95 83.25 L2.95 82.75 3.95 66.65 0.55 80.95 Q-5.9 89.35 -14.55 94.5 -11.6 85.75 -5.75 78.35 -11.1 64.95 -20.1 54.55 -27.6 49.75 -33.3 43.1 -49.65 27.05 -48.3 -3.35 -42.55 -28.8 -27.9 -46.45 -26.6 -52.5 -24.55 -59.25 L-23.65 -59.3 Q-25.8 -63.0 -29.0 -65.95 -30.65 -68.1 -27.85 -68.4 L-26.15 -68.55 Q-24.4 -68.85 -23.75 -70.15 L-22.85 -72.45 Q-22.0 -74.6 -21.0 -73.1 L-19.7 -70.7 Q-19.0 -69.45 -17.35 -69.55 L-15.75 -69.75 -15.35 -69.75 -13.75 -71.85 -13.4 -71.6 M13.9 -66.3 L13.15 -66.15 11.7 -65.95 7.9 -65.7 M13.9 -66.3 L13.95 -66.45 M14.15 -66.4 L13.9 -66.3 M19.8 -65.55 L18.05 -65.55 Q15.2 -65.45 16.7 -63.2 19.75 -59.85 21.65 -55.7 M23.75 -55.9 L25.9 -56.1 M26.55 -56.2 L26.7 -56.5 M19.8 -65.55 L19.85 -65.55 M2.6 -66.1 L3.4 -66.0 4.1 -65.9 M2.6 -66.1 L0.25 -66.4 -2.5 -66.95 M33.7 -33.1 Q28.6 -44.45 22.65 -54.95 L22.65 -55.8 M22.05 51.5 Q14.25 56.6 5.05 59.75 M22.3 51.35 L22.05 51.5 M2.95 83.25 L2.95 82.75 M-23.65 -59.3 L-23.4 -58.9 M-18.55 -59.8 L-18.25 -60.6 Q-16.95 -64.1 -14.3 -67.5 L-14.15 -67.75 Q-13.05 -69.85 -15.35 -69.75 M-18.25 -60.6 L-16.35 -61.6 Q-8.55 -45.75 -4.0 -28.6 M-27.9 -46.45 Q-32.8 -24.35 -28.05 -11.9 M-20.1 54.55 Q-13.35 58.8 -5.2 61.65" fill="none" stroke="#990099" stroke-linecap="round" stroke-linejoin="round" stroke-width="0.05"/>
  </g>
  <defs>
    <radialGradient cx="0" cy="0" gradientTransform="matrix(0.0248, 0.0, 0.0, 0.0248, 0.0, -78.85)" gradientUnits="userSpaceOnUse" id="gradient0" r="819.2" spreadMethod="pad">
      <stop offset="0.3843137254901961" stop-color="#ff00ff"/>
      <stop offset="1.0" stop-color="#ff66ff"/>
    </radialGradient>
    <radialGradient cx="0" cy="0" gradientTransform="matrix(0.1254, 0.0, 0.0, 0.1254, -18.0, 28.1)" gradientUnits="userSpaceOnUse" id="gradient1" r="819.2" spreadMethod="pad">
      <stop offset="0.3843137254901961" stop-color="#ff00ff"/>
      <stop offset="1.0" stop-color="#ff66ff"/>
    </radialGradient>
    <radialGradient cx="0" cy="0" gradientTransform="matrix(0.0248, 0.0, 0.0, 0.0248, 0.0, -78.85)" gradientUnits="userSpaceOnUse" id="gradient2" r="819.2" spreadMethod="pad">
      <stop offset="0.3843137254901961" stop-color="#33ccff"/>
      <stop offset="1.0" stop-color="#3399ff"/>
    </radialGradient>
    <radialGradient cx="0" cy="0" gradientTransform="matrix(0.1254, 0.0, 0.0, 0.1254, -18.0, 28.1)" gradientUnits="userSpaceOnUse" id="gradient3" r="819.2" spreadMethod="pad">
      <stop offset="0.3843137254901961" stop-color="#33ccff"/>
      <stop offset="1.0" stop-color="#3399ff"/>
    </radialGradient>
    <radialGradient cx="0" cy="0" gradientTransform="matrix(-0.0157, 0.0015, -0.0015, -0.0157, 19.75, -61.3)" gradientUnits="userSpaceOnUse" id="gradient4" r="819.2" spreadMethod="pad">
      <stop offset="0.3843137254901961" stop-color="#ff00ff"/>
      <stop offset="1.0" stop-color="#ff66ff"/>
    </radialGradient>
    <radialGradient cx="0" cy="0" gradientTransform="matrix(0.0184, 0.0, 0.0, 0.0184, 29.0, -46.9)" gradientUnits="userSpaceOnUse" id="gradient5" r="819.2" spreadMethod="pad">
      <stop offset="0.3843137254901961" stop-color="#ff00ff"/>
      <stop offset="1.0" stop-color="#ff66ff"/>
    </radialGradient>
    <radialGradient cx="0" cy="0" gradientTransform="matrix(0.0108, 0.0, 0.0, 0.0108, -22.1, -66.4)" gradientUnits="userSpaceOnUse" id="gradient6" r="819.2" spreadMethod="pad">
      <stop offset="0.3843137254901961" stop-color="#ff00ff"/>
      <stop offset="1.0" stop-color="#ff66ff"/>
    </radialGradient>
  </defs>
</svg>
