<?xml version="1.0" encoding="UTF-8" standalone="no"?>
<svg xmlns:xlink="http://www.w3.org/1999/xlink" height="22.1px" width="50.65px" xmlns="http://www.w3.org/2000/svg">
  <g transform="matrix(1.0, 0.0, 0.0, 1.0, 25.35, 11.1)">
    <path d="M-23.6 -2.3 L-8.0 -10.1 Q-4.25 -11.9 -0.8 -10.4 L20.5 -0.65 Q26.45 2.25 25.05 4.5 L25.0 4.55 21.8 9.3 Q20.2 11.5 16.25 10.85 L14.95 10.55 14.9 10.55 -22.95 2.1 Q-27.4 0.55 -23.6 -2.3" fill="url(#gradient0)" fill-rule="evenodd" stroke="none"/>
    <path d="M19.2 1.05 Q21.1 1.15 21.0 2.9 20.95 3.7 20.2 4.1 L18.7 4.95 18.1 5.05 Q16.4 4.7 16.75 3.0 16.85 2.25 17.5 1.75 18.3 1.15 19.2 1.05" fill="#ffffff" fill-opacity="0.3137255" fill-rule="evenodd" stroke="none"/>
  </g>
  <defs>
    <radialGradient cx="0" cy="0" gradientTransform="matrix(0.0573, 0.0, 0.0, 0.0573, -21.1, -3.3)" gradientUnits="userSpaceOnUse" id="gradient0" r="819.2" spreadMethod="pad">
      <stop offset="0.0" stop-color="#ff0000"/>
      <stop offset="1.0" stop-color="#ff9900" stop-opacity="0.0"/>
    </radialGradient>
  </defs>
</svg>
