<?xml version="1.0" encoding="UTF-8" standalone="no"?>
<svg xmlns:xlink="http://www.w3.org/1999/xlink" height="153.25px" width="103.3px" xmlns="http://www.w3.org/2000/svg">
  <g transform="matrix(1.0, 0.0, 0.0, 1.0, 150.75, 139.75)">
    <path d="M-112.6 -104.6 Q-112.6 -102.9 -111.45 -101.75 -110.25 -100.55 -108.55 -100.55 L-108.2 -100.55 Q-106.75 -100.65 -105.7 -101.75 L-104.8 -102.95 Q-104.5 -103.7 -104.5 -104.6 -104.5 -106.3 -105.7 -107.5 -106.85 -108.65 -108.55 -108.65 -110.25 -108.65 -111.45 -107.5 -112.6 -106.3 -112.6 -104.6 M-111.95 -107.9 Q-110.55 -109.3 -108.55 -109.3 -107.25 -109.3 -106.15 -108.65 L-105.15 -107.9 Q-103.9 -106.65 -103.75 -105.0 L-103.7 -104.35 Q-103.7 -103.55 -103.95 -102.85 -104.35 -101.85 -105.15 -101.05 L-106.3 -100.15 Q-107.3 -99.65 -108.55 -99.65 -110.55 -99.65 -111.95 -101.05 -113.35 -102.45 -113.35 -104.45 -113.35 -106.45 -111.95 -107.9 M-110.3 -105.4 L-110.8 -105.3 Q-111.95 -105.85 -111.1 -106.7 L-110.6 -106.95 Q-109.2 -106.4 -110.3 -105.4 M-94.05 -108.3 L-92.6 -108.5 Q-90.6 -108.5 -89.2 -107.1 -87.8 -105.7 -87.75 -103.7 -87.8 -101.7 -89.2 -100.3 -90.6 -98.85 -92.6 -98.85 -94.6 -98.85 -96.05 -100.3 -97.35 -101.6 -97.45 -103.35 L-97.5 -103.65 -97.45 -103.7 Q-97.45 -105.7 -96.05 -107.1 -95.15 -108.0 -94.05 -108.3 M-93.95 -105.55 Q-92.55 -105.0 -93.6 -104.0 L-94.15 -103.9 Q-95.25 -104.45 -94.4 -105.3 L-93.95 -105.55 M-92.6 -107.8 Q-94.3 -107.8 -95.5 -106.65 -96.65 -105.45 -96.65 -103.75 -96.65 -102.05 -95.5 -100.9 -94.3 -99.7 -92.6 -99.7 L-92.25 -99.7 Q-90.8 -99.8 -89.75 -100.9 L-88.85 -102.1 Q-88.55 -102.85 -88.55 -103.75 -88.55 -105.45 -89.75 -106.65 -90.9 -107.8 -92.6 -107.8" fill="#ffffff" fill-rule="evenodd" stroke="none"/>
    <path d="M-119.0 -113.1 Q-118.45 -117.65 -115.95 -121.75 -114.65 -136.8 -102.85 -138.05 L-102.25 -138.95 Q-101.45 -139.75 -100.3 -139.75 -99.15 -139.75 -98.35 -138.95 L-97.75 -138.05 Q-88.0 -136.7 -86.55 -123.8 L-85.4 -113.25 Q-80.75 -101.5 -89.8 -95.45 -98.8 -89.4 -110.4 -96.5 -122.0 -103.65 -119.0 -113.1 M-111.95 -107.9 Q-113.35 -106.45 -113.35 -104.45 -113.35 -102.45 -111.95 -101.05 -110.55 -99.65 -108.55 -99.65 -107.3 -99.65 -106.3 -100.15 L-105.15 -101.05 Q-104.35 -101.85 -103.95 -102.85 -103.7 -103.55 -103.7 -104.35 L-103.75 -105.0 Q-103.9 -106.65 -105.15 -107.9 L-106.15 -108.65 Q-107.25 -109.3 -108.55 -109.3 -110.55 -109.3 -111.95 -107.9 M-94.05 -108.3 Q-95.15 -108.0 -96.05 -107.1 -97.45 -105.7 -97.45 -103.7 L-97.5 -103.65 -97.45 -103.35 Q-97.35 -101.6 -96.05 -100.3 -94.6 -98.85 -92.6 -98.85 -90.6 -98.85 -89.2 -100.3 -87.8 -101.7 -87.75 -103.7 -87.8 -105.7 -89.2 -107.1 -90.6 -108.5 -92.6 -108.5 L-94.05 -108.3" fill="url(#gradient0)" fill-rule="evenodd" stroke="none"/>
    <path d="M-85.4 -113.25 Q-81.7 -112.9 -79.2 -101.8 -76.7 -90.75 -73.85 -86.8 -57.1 -63.25 -53.35 -38.3 L-54.3 -39.6 -59.1 -38.3 -59.65 -36.5 Q-60.75 -33.4 -62.8 -30.3 L-62.9 -30.05 Q-63.9 -27.75 -61.15 -28.15 L-59.55 -28.5 Q-57.95 -28.7 -57.1 -27.5 L-55.65 -25.2 Q-54.65 -23.9 -53.95 -25.7 -52.4 -2.45 -68.95 8.45 -102.3 20.4 -136.0 4.15 -149.85 -5.7 -149.6 -28.85 L-149.3 -28.7 -147.75 -28.2 Q-146.25 -27.6 -146.1 -26.1 L-146.0 -23.4 Q-145.75 -21.65 -144.05 -23.2 L-142.25 -24.85 Q-141.1 -25.8 -139.4 -25.3 L-137.75 -24.65 Q-135.1 -23.75 -135.65 -26.4 -137.3 -30.5 -137.65 -34.85 L-137.65 -35.2 -142.45 -36.5 -142.75 -36.15 Q-145.55 -33.45 -149.55 -31.4 L-149.5 -32.7 Q-148.9 -60.75 -134.25 -84.45 -126.75 -94.45 -124.25 -106.85 -122.6 -112.7 -119.0 -113.1 -122.0 -103.65 -110.4 -96.5 -98.8 -89.4 -89.8 -95.45 -80.75 -101.5 -85.4 -113.25 M-136.55 -75.15 Q-143.1 -56.0 -143.1 -36.25 L-142.75 -36.15 -143.1 -36.25 Q-143.1 -56.0 -136.55 -75.15 M-118.65 -69.7 Q-122.25 -46.3 -136.4 -34.55 L-137.65 -34.85 -136.4 -34.55 Q-122.25 -46.3 -118.65 -69.7 M-79.0 -71.7 Q-72.65 -43.8 -60.65 -36.25 L-59.65 -36.5 -60.65 -36.25 Q-72.65 -43.8 -79.0 -71.7" fill="url(#gradient1)" fill-rule="evenodd" stroke="none"/>
    <path d="M-53.35 -38.3 Q-51.15 -35.3 -48.2 -32.95 -46.35 -31.0 -49.15 -30.45 L-50.85 -30.15 Q-52.6 -29.75 -53.1 -28.35 L-53.85 -26.0 -53.95 -25.7 Q-54.65 -23.9 -55.65 -25.2 L-57.1 -27.5 Q-57.95 -28.7 -59.55 -28.5 L-61.15 -28.15 Q-63.9 -27.75 -62.9 -30.05 L-62.8 -30.3 Q-60.75 -33.4 -59.65 -36.5 L-59.1 -38.3 -54.3 -39.6 -53.35 -38.3" fill="url(#gradient2)" fill-rule="evenodd" stroke="none"/>
    <path d="M-149.6 -28.85 Q-151.8 -29.8 -149.85 -31.25 L-149.6 -31.4 -149.55 -31.4 Q-145.55 -33.45 -142.75 -36.15 L-142.45 -36.5 -137.65 -35.2 -137.65 -34.85 Q-137.3 -30.5 -135.65 -26.4 -135.1 -23.75 -137.75 -24.65 L-139.4 -25.3 Q-141.1 -25.8 -142.25 -24.85 L-144.05 -23.2 Q-145.75 -21.65 -146.0 -23.4 L-146.1 -26.1 Q-146.25 -27.6 -147.75 -28.2 L-149.3 -28.7 -149.6 -28.85" fill="url(#gradient3)" fill-rule="evenodd" stroke="none"/>
    <path d="M-112.6 -104.6 Q-112.6 -106.3 -111.45 -107.5 -110.25 -108.65 -108.55 -108.65 -106.85 -108.65 -105.7 -107.5 -104.5 -106.3 -104.5 -104.6 -104.5 -103.7 -104.8 -102.95 L-105.7 -101.75 Q-106.75 -100.65 -108.2 -100.55 L-108.55 -100.55 Q-110.25 -100.55 -111.45 -101.75 -112.6 -102.9 -112.6 -104.6 M-110.3 -105.4 Q-109.2 -106.4 -110.6 -106.95 L-111.1 -106.7 Q-111.95 -105.85 -110.8 -105.3 L-110.3 -105.4 M-93.95 -105.55 L-94.4 -105.3 Q-95.25 -104.45 -94.15 -103.9 L-93.6 -104.0 Q-92.55 -105.0 -93.95 -105.55 M-92.6 -107.8 Q-90.9 -107.8 -89.75 -106.65 -88.55 -105.45 -88.55 -103.75 -88.55 -102.85 -88.85 -102.1 L-89.75 -100.9 Q-90.8 -99.8 -92.25 -99.7 L-92.6 -99.7 Q-94.3 -99.7 -95.5 -100.9 -96.65 -102.05 -96.65 -103.75 -96.65 -105.45 -95.5 -106.65 -94.3 -107.8 -92.6 -107.8" fill="#884400" fill-rule="evenodd" stroke="none"/>
    <path d="M-119.0 -113.1 Q-118.45 -117.65 -115.95 -121.75 -114.65 -136.8 -102.85 -138.05 L-102.25 -138.95 Q-101.45 -139.75 -100.3 -139.75 -99.15 -139.75 -98.35 -138.95 L-97.75 -138.05 Q-88.0 -136.7 -86.55 -123.8 L-85.4 -113.25 Q-81.7 -112.9 -79.2 -101.8 -76.7 -90.75 -73.85 -86.8 -57.1 -63.25 -53.35 -38.3 -51.15 -35.3 -48.2 -32.95 -46.35 -31.0 -49.15 -30.45 L-50.85 -30.15 Q-52.6 -29.75 -53.1 -28.35 L-53.85 -26.0 -53.95 -25.7 Q-52.4 -2.45 -68.95 8.45 -102.3 20.4 -136.0 4.15 -149.85 -5.7 -149.6 -28.85 -151.8 -29.8 -149.85 -31.25 L-149.6 -31.4 -149.55 -31.4 -149.5 -32.7 Q-148.9 -60.75 -134.25 -84.45 -126.75 -94.45 -124.25 -106.85 -122.6 -112.7 -119.0 -113.1 -122.0 -103.65 -110.4 -96.5 -98.8 -89.4 -89.8 -95.45 -80.75 -101.5 -85.4 -113.25 M-149.6 -28.85 L-149.3 -28.7 -147.75 -28.2 Q-146.25 -27.6 -146.1 -26.1 L-146.0 -23.4 Q-145.75 -21.65 -144.05 -23.2 L-142.25 -24.85 Q-141.1 -25.8 -139.4 -25.3 L-137.75 -24.65 Q-135.1 -23.75 -135.65 -26.4 -137.3 -30.5 -137.65 -34.85 L-137.65 -35.2 M-142.45 -36.5 L-142.75 -36.15 Q-145.55 -33.45 -149.55 -31.4 M-137.65 -34.85 L-136.4 -34.55 Q-122.25 -46.3 -118.65 -69.7 M-142.75 -36.15 L-143.1 -36.25 Q-143.1 -56.0 -136.55 -75.15 M-53.35 -38.3 L-54.3 -39.6 M-59.1 -38.3 L-59.65 -36.5 Q-60.75 -33.4 -62.8 -30.3 L-62.9 -30.05 Q-63.9 -27.75 -61.15 -28.15 L-59.55 -28.5 Q-57.95 -28.7 -57.1 -27.5 L-55.65 -25.2 Q-54.65 -23.9 -53.95 -25.7 M-59.65 -36.5 L-60.65 -36.25 Q-72.65 -43.8 -79.0 -71.7" fill="none" stroke="#990099" stroke-linecap="round" stroke-linejoin="round" stroke-width="0.05"/>
  </g>
  <defs>
    <radialGradient cx="0" cy="0" gradientTransform="matrix(0.0314, 0.0, 0.0, 0.0314, -96.6, -116.9)" gradientUnits="userSpaceOnUse" id="gradient0" r="819.2" spreadMethod="pad">
      <stop offset="0.3843137254901961" stop-color="#ff00ff"/>
      <stop offset="1.0" stop-color="#ff66ff"/>
    </radialGradient>
    <radialGradient cx="0" cy="0" gradientTransform="matrix(0.0942, 0.0, 0.0, 0.0942, -99.3, -62.35)" gradientUnits="userSpaceOnUse" id="gradient1" r="819.2" spreadMethod="pad">
      <stop offset="0.3843137254901961" stop-color="#ff00ff"/>
      <stop offset="1.0" stop-color="#ff66ff"/>
    </radialGradient>
    <radialGradient cx="0" cy="0" gradientTransform="matrix(0.0153, -0.0041, 0.0041, 0.0153, -51.55, -34.4)" gradientUnits="userSpaceOnUse" id="gradient2" r="819.2" spreadMethod="pad">
      <stop offset="0.3843137254901961" stop-color="#ff00ff"/>
      <stop offset="1.0" stop-color="#ff66ff"/>
    </radialGradient>
    <radialGradient cx="0" cy="0" gradientTransform="matrix(0.0153, 0.0041, -0.0041, 0.0153, -137.85, -29.3)" gradientUnits="userSpaceOnUse" id="gradient3" r="819.2" spreadMethod="pad">
      <stop offset="0.3843137254901961" stop-color="#ff00ff"/>
      <stop offset="1.0" stop-color="#ff66ff"/>
    </radialGradient>
  </defs>
</svg>
