<?xml version="1.0" encoding="UTF-8" standalone="no"?>
<svg xmlns:xlink="http://www.w3.org/1999/xlink" height="167.75px" width="111.45px" xmlns="http://www.w3.org/2000/svg">
  <g transform="matrix(1.0, 0.0, 0.0, 1.0, 154.65, 257.45)">
    <path d="M-98.1 -226.55 L-97.0 -228.35 Q-95.55 -229.75 -93.55 -229.75 -91.55 -229.75 -90.15 -228.35 L-89.15 -226.9 Q-88.75 -226.0 -88.7 -224.95 -88.75 -222.95 -90.15 -221.55 -91.55 -220.1 -93.55 -220.1 -95.55 -220.1 -97.0 -221.55 -98.4 -222.95 -98.4 -224.95 L-98.1 -226.55 M-96.45 -227.9 Q-97.6 -226.7 -97.6 -225.0 -97.6 -223.3 -96.45 -222.15 -95.25 -220.95 -93.55 -220.95 L-93.2 -220.95 Q-91.75 -221.05 -90.7 -222.15 L-89.8 -223.35 Q-89.5 -224.1 -89.5 -225.0 -89.5 -226.7 -90.7 -227.9 -91.85 -229.05 -93.55 -229.05 -95.25 -229.05 -96.45 -227.9 M-95.25 -225.15 L-95.8 -225.05 Q-96.95 -225.6 -96.05 -226.45 L-95.6 -226.7 Q-94.2 -226.2 -95.25 -225.15 M-112.9 -229.15 Q-111.95 -230.1 -110.75 -230.4 L-109.95 -230.5 -109.5 -230.55 -109.4 -230.55 -109.3 -230.55 -109.2 -230.55 -109.1 -230.55 -109.05 -230.55 -108.45 -230.45 -107.75 -230.2 -107.1 -229.9 -106.1 -229.15 Q-104.65 -227.7 -104.65 -225.7 -104.65 -223.7 -106.1 -222.3 -106.65 -221.75 -107.25 -221.4 -108.25 -220.9 -109.5 -220.9 -111.5 -220.9 -112.9 -222.3 -114.3 -223.7 -114.3 -225.7 -114.3 -227.7 -112.9 -229.15 M-113.6 -225.9 Q-113.6 -224.2 -112.45 -223.05 -111.25 -221.85 -109.55 -221.85 L-109.2 -221.85 Q-107.75 -221.95 -106.7 -223.05 L-105.8 -224.25 Q-105.5 -225.0 -105.5 -225.9 -105.5 -227.6 -106.7 -228.8 -107.85 -229.95 -109.55 -229.95 -111.25 -229.95 -112.45 -228.8 -113.6 -227.6 -113.6 -225.9 M-112.0 -228.1 Q-110.6 -227.6 -111.65 -226.55 L-112.2 -226.45 Q-113.35 -227.0 -112.45 -227.85 L-112.0 -228.1" fill="#ffffff" fill-rule="evenodd" stroke="none"/>
    <path d="M-118.4 -228.75 Q-116.65 -233.45 -115.85 -239.95 -114.0 -252.15 -103.5 -255.45 L-102.8 -256.65 Q-102.0 -257.45 -100.85 -257.45 -99.7 -257.45 -98.9 -256.65 L-98.25 -255.6 Q-88.15 -253.35 -86.15 -240.2 -85.65 -232.7 -84.55 -227.5 L-84.4 -226.8 Q-82.05 -220.95 -90.8 -215.05 -100.65 -211.55 -109.15 -215.05 -121.3 -221.5 -119.1 -227.05 L-118.4 -228.75 M-98.1 -226.55 L-98.4 -224.95 Q-98.4 -222.95 -97.0 -221.55 -95.55 -220.1 -93.55 -220.1 -91.55 -220.1 -90.15 -221.55 -88.75 -222.95 -88.7 -224.95 -88.75 -226.0 -89.15 -226.9 L-90.15 -228.35 Q-91.55 -229.75 -93.55 -229.75 -95.55 -229.75 -97.0 -228.35 L-98.1 -226.55 M-112.9 -229.15 Q-114.3 -227.7 -114.3 -225.7 -114.3 -223.7 -112.9 -222.3 -111.5 -220.9 -109.5 -220.9 -108.25 -220.9 -107.25 -221.4 -106.65 -221.75 -106.1 -222.3 -104.65 -223.7 -104.65 -225.7 -104.65 -227.7 -106.1 -229.15 L-107.1 -229.9 -107.75 -230.2 -108.45 -230.45 -109.05 -230.55 -109.1 -230.55 -109.2 -230.55 -109.3 -230.55 -109.4 -230.55 -109.5 -230.55 -109.95 -230.5 -110.75 -230.4 Q-111.95 -230.1 -112.9 -229.15" fill="url(#gradient0)" fill-rule="evenodd" stroke="none"/>
    <path d="M-84.55 -227.5 L-84.15 -227.4 Q-80.15 -226.2 -79.0 -222.75 -74.3 -206.7 -65.15 -193.65 -53.55 -177.55 -50.85 -157.55 L-51.9 -158.4 -56.2 -155.95 -56.2 -155.15 Q-56.3 -151.4 -57.65 -147.25 L-57.7 -146.95 Q-58.1 -144.45 -55.55 -145.6 L-54.1 -146.3 -52.3 -146.45 Q-52.6 -133.15 -64.15 -124.8 -73.35 -118.2 -86.5 -114.9 -96.05 -112.55 -107.7 -111.9 L-112.8 -111.75 Q-120.55 -111.2 -127.15 -113.3 L-127.4 -113.35 Q-137.75 -116.75 -145.2 -126.65 -151.5 -136.75 -152.95 -149.4 L-151.65 -148.95 Q-150.15 -148.35 -150.0 -146.85 L-149.9 -144.15 Q-149.65 -142.4 -147.95 -143.95 L-146.15 -145.6 Q-145.0 -146.55 -143.3 -146.05 L-141.65 -145.4 Q-139.0 -144.5 -139.55 -147.15 -141.1 -150.95 -141.5 -155.0 L-141.55 -155.95 -146.35 -157.25 -147.1 -156.5 Q-149.65 -154.15 -153.25 -152.3 -153.6 -156.7 -153.35 -161.45 -150.0 -186.5 -133.8 -206.9 -127.35 -213.9 -124.45 -223.0 -123.55 -226.85 -119.6 -228.35 L-118.4 -228.75 -119.1 -227.05 Q-121.3 -221.5 -109.15 -215.05 -100.65 -211.55 -90.8 -215.05 -82.05 -220.95 -84.4 -226.8 L-84.55 -227.5 M-78.45 -181.25 Q-68.2 -156.4 -56.2 -155.15 -68.2 -156.4 -78.45 -181.25 M-141.15 -191.8 Q-148.85 -171.9 -147.1 -156.5 -148.85 -171.9 -141.15 -191.8 M-122.8 -175.1 Q-131.95 -167.7 -141.15 -154.95 L-141.5 -155.0 -141.15 -154.95 Q-131.95 -167.7 -122.8 -175.1" fill="url(#gradient1)" fill-rule="evenodd" stroke="none"/>
    <path d="M-50.85 -157.55 Q-47.85 -155.15 -44.25 -153.6 -42.0 -152.15 -44.5 -150.9 L-46.1 -150.2 Q-47.7 -149.35 -47.8 -147.85 L-47.9 -145.4 Q-48.05 -143.1 -49.45 -144.15 L-51.45 -146.0 Q-51.85 -146.35 -52.3 -146.45 L-54.1 -146.3 -55.55 -145.6 Q-58.1 -144.45 -57.7 -146.95 L-57.65 -147.25 Q-56.3 -151.4 -56.2 -155.15 L-56.2 -155.95 -51.9 -158.4 -50.85 -157.55" fill="url(#gradient2)" fill-rule="evenodd" stroke="none"/>
    <path d="M-152.95 -149.4 L-153.2 -149.45 Q-155.8 -150.45 -153.75 -152.0 L-153.5 -152.15 -153.25 -152.3 Q-149.65 -154.15 -147.1 -156.5 L-146.35 -157.25 -141.55 -155.95 -141.5 -155.0 Q-141.1 -150.95 -139.55 -147.15 -139.0 -144.5 -141.65 -145.4 L-143.3 -146.05 Q-145.0 -146.55 -146.15 -145.6 L-147.95 -143.95 Q-149.65 -142.4 -149.9 -144.15 L-150.0 -146.85 Q-150.15 -148.35 -151.65 -148.95 L-152.95 -149.4" fill="url(#gradient3)" fill-rule="evenodd" stroke="none"/>
    <path d="M-107.7 -111.9 Q-109.75 -111.55 -111.45 -110.25 L-114.0 -107.45 Q-115.55 -97.55 -122.45 -89.7 -123.8 -98.7 -120.25 -108.65 -123.25 -111.95 -127.15 -113.3 -120.55 -111.2 -112.8 -111.75 L-107.7 -111.9" fill="url(#gradient4)" fill-rule="evenodd" stroke="none"/>
    <path d="M-86.5 -114.9 Q-91.05 -113.1 -94.85 -108.4 -94.35 -99.4 -97.0 -91.1 -100.95 -99.0 -101.1 -108.0 -104.15 -111.35 -107.7 -111.9 -96.05 -112.55 -86.5 -114.9" fill="url(#gradient5)" fill-rule="evenodd" stroke="none"/>
    <path d="M-96.45 -227.9 Q-95.25 -229.05 -93.55 -229.05 -91.85 -229.05 -90.7 -227.9 -89.5 -226.7 -89.5 -225.0 -89.5 -224.1 -89.8 -223.35 L-90.7 -222.15 Q-91.75 -221.05 -93.2 -220.95 L-93.55 -220.95 Q-95.25 -220.95 -96.45 -222.15 -97.6 -223.3 -97.6 -225.0 -97.6 -226.7 -96.45 -227.9 M-95.25 -225.15 Q-94.2 -226.2 -95.6 -226.7 L-96.05 -226.45 Q-96.95 -225.6 -95.8 -225.05 L-95.25 -225.15 M-113.6 -225.9 Q-113.6 -227.6 -112.45 -228.8 -111.25 -229.95 -109.55 -229.95 -107.85 -229.95 -106.7 -228.8 -105.5 -227.6 -105.5 -225.9 -105.5 -225.0 -105.8 -224.25 L-106.7 -223.05 Q-107.75 -221.95 -109.2 -221.85 L-109.55 -221.85 Q-111.25 -221.85 -112.45 -223.05 -113.6 -224.2 -113.6 -225.9 M-112.0 -228.1 L-112.45 -227.85 Q-113.35 -227.0 -112.2 -226.45 L-111.65 -226.55 Q-110.6 -227.6 -112.0 -228.1" fill="#884400" fill-rule="evenodd" stroke="none"/>
    <path d="M-118.4 -228.75 Q-116.65 -233.45 -115.85 -239.95 -114.0 -252.15 -103.5 -255.45 L-102.8 -256.65 Q-102.0 -257.45 -100.85 -257.45 -99.7 -257.45 -98.9 -256.65 L-98.25 -255.6 Q-88.15 -253.35 -86.15 -240.2 -85.65 -232.7 -84.55 -227.5 L-84.15 -227.4 Q-80.15 -226.2 -79.0 -222.75 -74.3 -206.7 -65.15 -193.65 -53.55 -177.55 -50.85 -157.55 -47.85 -155.15 -44.25 -153.6 -42.0 -152.15 -44.5 -150.9 L-46.1 -150.2 Q-47.7 -149.35 -47.8 -147.85 L-47.9 -145.4 Q-48.05 -143.1 -49.45 -144.15 L-51.45 -146.0 Q-51.85 -146.35 -52.3 -146.45 -52.6 -133.15 -64.15 -124.8 -73.35 -118.2 -86.5 -114.9 -91.05 -113.1 -94.85 -108.4 -94.35 -99.4 -97.0 -91.1 -100.95 -99.0 -101.1 -108.0 -104.15 -111.35 -107.7 -111.9 -109.75 -111.55 -111.45 -110.25 L-114.0 -107.45 Q-115.55 -97.55 -122.45 -89.7 -123.8 -98.7 -120.25 -108.65 -123.25 -111.95 -127.15 -113.3 L-127.4 -113.35 Q-137.75 -116.75 -145.2 -126.65 -151.5 -136.75 -152.95 -149.4 L-153.2 -149.45 Q-155.8 -150.45 -153.75 -152.0 L-153.5 -152.15 -153.25 -152.3 Q-153.6 -156.7 -153.35 -161.45 -150.0 -186.5 -133.8 -206.9 -127.35 -213.9 -124.45 -223.0 -123.55 -226.85 -119.6 -228.35 L-118.4 -228.75 -119.1 -227.05 Q-121.3 -221.5 -109.15 -215.05 -100.65 -211.55 -90.8 -215.05 -82.05 -220.95 -84.4 -226.8 L-84.55 -227.5 M-98.1 -226.55 L-97.0 -228.35 Q-95.55 -229.75 -93.55 -229.75 -91.55 -229.75 -90.15 -228.35 L-89.15 -226.9 Q-88.75 -226.0 -88.7 -224.95 -88.75 -222.95 -90.15 -221.55 -91.55 -220.1 -93.55 -220.1 -95.55 -220.1 -97.0 -221.55 -98.4 -222.95 -98.4 -224.95 L-98.1 -226.55 M-112.9 -229.15 Q-111.95 -230.1 -110.75 -230.4 L-109.95 -230.5 -109.5 -230.55 -109.4 -230.55 -109.3 -230.55 -109.2 -230.55 -109.1 -230.55 -109.05 -230.55 -108.45 -230.45 -107.75 -230.2 -107.1 -229.9 -106.1 -229.15 Q-104.65 -227.7 -104.65 -225.7 -104.65 -223.7 -106.1 -222.3 -106.65 -221.75 -107.25 -221.4 -108.25 -220.9 -109.5 -220.9 -111.5 -220.9 -112.9 -222.3 -114.3 -223.7 -114.3 -225.7 -114.3 -227.7 -112.9 -229.15 M-56.2 -155.15 Q-68.2 -156.4 -78.45 -181.25 M-56.2 -155.95 L-56.2 -155.15 Q-56.3 -151.4 -57.65 -147.25 L-57.7 -146.95 Q-58.1 -144.45 -55.55 -145.6 L-54.1 -146.3 -52.3 -146.45 M-50.85 -157.55 L-51.9 -158.4 M-146.35 -157.25 L-147.1 -156.5 Q-149.65 -154.15 -153.25 -152.3 M-152.95 -149.4 L-151.65 -148.95 Q-150.15 -148.35 -150.0 -146.85 L-149.9 -144.15 Q-149.65 -142.4 -147.95 -143.95 L-146.15 -145.6 Q-145.0 -146.55 -143.3 -146.05 L-141.65 -145.4 Q-139.0 -144.5 -139.55 -147.15 -141.1 -150.95 -141.5 -155.0 L-141.55 -155.95 M-141.5 -155.0 L-141.15 -154.95 Q-131.95 -167.7 -122.8 -175.1 M-147.1 -156.5 Q-148.85 -171.9 -141.15 -191.8 M-127.15 -113.3 Q-120.55 -111.2 -112.8 -111.75 L-107.7 -111.9 Q-96.05 -112.55 -86.5 -114.9" fill="none" stroke="#990099" stroke-linecap="round" stroke-linejoin="round" stroke-width="0.05"/>
  </g>
  <defs>
    <radialGradient cx="0" cy="0" gradientTransform="matrix(0.0306, 0.0, 0.0, 0.0306, -96.25, -233.5)" gradientUnits="userSpaceOnUse" id="gradient0" r="819.2" spreadMethod="pad">
      <stop offset="0.3843137254901961" stop-color="#ff00ff"/>
      <stop offset="1.0" stop-color="#ff66ff"/>
    </radialGradient>
    <radialGradient cx="0" cy="0" gradientTransform="matrix(0.1071, 0.0, 0.0, 0.1071, -90.05, -192.15)" gradientUnits="userSpaceOnUse" id="gradient1" r="819.2" spreadMethod="pad">
      <stop offset="0.3843137254901961" stop-color="#ff00ff"/>
      <stop offset="1.0" stop-color="#ff66ff"/>
    </radialGradient>
    <radialGradient cx="0" cy="0" gradientTransform="matrix(0.0137, -0.0079, 0.0079, 0.0137, -47.85, -154.1)" gradientUnits="userSpaceOnUse" id="gradient2" r="819.2" spreadMethod="pad">
      <stop offset="0.3843137254901961" stop-color="#ff00ff"/>
      <stop offset="1.0" stop-color="#ff66ff"/>
    </radialGradient>
    <radialGradient cx="0" cy="0" gradientTransform="matrix(0.0134, 0.0, 0.0, 0.0134, -143.8, -150.0)" gradientUnits="userSpaceOnUse" id="gradient3" r="819.2" spreadMethod="pad">
      <stop offset="0.3843137254901961" stop-color="#ff00ff"/>
      <stop offset="1.0" stop-color="#ff66ff"/>
    </radialGradient>
    <radialGradient cx="0" cy="0" gradientTransform="matrix(0.019, 0.0, 0.0, 0.019, -119.8, -102.15)" gradientUnits="userSpaceOnUse" id="gradient4" r="819.2" spreadMethod="pad">
      <stop offset="0.3843137254901961" stop-color="#ff00ff"/>
      <stop offset="1.0" stop-color="#ff66ff"/>
    </radialGradient>
    <radialGradient cx="0" cy="0" gradientTransform="matrix(0.0222, 0.0, 0.0, 0.0222, -96.1, -108.6)" gradientUnits="userSpaceOnUse" id="gradient5" r="819.2" spreadMethod="pad">
      <stop offset="0.3843137254901961" stop-color="#ff00ff"/>
      <stop offset="1.0" stop-color="#ff66ff"/>
    </radialGradient>
  </defs>
</svg>
