<?xml version="1.0" encoding="UTF-8" standalone="no"?>
<svg xmlns:xlink="http://www.w3.org/1999/xlink" height="160.75px" width="111.45px" xmlns="http://www.w3.org/2000/svg">
  <g transform="matrix(1.0, 0.0, 0.0, 1.0, 154.65, 220.3)">
    <path d="M-88.45 -188.35 Q-88.5 -186.35 -89.9 -184.95 -91.3 -183.5 -93.3 -183.5 -95.3 -183.5 -96.75 -184.95 -97.85 -186.05 -98.1 -187.55 L-98.2 -188.35 -98.15 -188.35 Q-98.15 -190.35 -96.75 -191.75 -95.3 -193.15 -93.3 -193.15 L-93.3 -193.2 -93.0 -193.15 Q-91.2 -193.05 -89.9 -191.75 -88.5 -190.35 -88.45 -188.35 M-89.3 -188.35 Q-89.3 -190.05 -90.5 -191.25 -91.65 -192.4 -93.35 -192.4 -95.05 -192.4 -96.25 -191.25 -97.4 -190.05 -97.4 -188.35 -97.4 -186.65 -96.25 -185.5 -95.05 -184.3 -93.35 -184.3 L-93.0 -184.3 Q-91.55 -184.4 -90.5 -185.5 L-89.6 -186.7 Q-89.3 -187.45 -89.3 -188.35 M-95.15 -188.4 L-95.7 -188.3 Q-96.85 -188.85 -95.95 -189.7 L-95.5 -189.95 Q-94.1 -189.4 -95.15 -188.4 M-106.5 -192.1 Q-107.65 -193.25 -109.35 -193.25 -111.05 -193.25 -112.25 -192.1 -113.4 -190.9 -113.4 -189.2 -113.4 -187.5 -112.25 -186.35 -111.05 -185.15 -109.35 -185.15 L-109.0 -185.15 Q-107.55 -185.25 -106.5 -186.35 L-105.6 -187.55 Q-105.3 -188.3 -105.3 -189.2 -105.3 -190.9 -106.5 -192.1 M-106.85 -193.3 L-105.85 -192.55 Q-104.4 -191.1 -104.4 -189.1 -104.4 -187.1 -105.85 -185.7 L-107.0 -184.8 -107.9 -184.45 -109.25 -184.3 Q-111.25 -184.3 -112.65 -185.7 -114.05 -187.1 -114.05 -189.1 L-114.1 -189.1 -114.05 -189.35 Q-114.0 -191.2 -112.65 -192.55 -111.25 -193.95 -109.25 -193.95 -107.95 -193.95 -106.85 -193.3 M-111.0 -189.75 L-111.5 -189.7 Q-112.65 -190.2 -111.8 -191.1 L-111.3 -191.3 Q-109.9 -190.8 -111.0 -189.75" fill="#ffffff" fill-rule="evenodd" stroke="none"/>
    <path d="M-118.4 -191.6 Q-116.65 -196.3 -115.85 -202.8 -114.05 -214.85 -103.7 -218.25 L-103.0 -219.5 Q-102.2 -220.3 -101.05 -220.3 -99.9 -220.3 -99.1 -219.5 L-98.45 -218.5 Q-88.15 -216.3 -86.15 -203.05 -85.65 -195.55 -84.55 -190.35 L-84.4 -189.65 Q-82.05 -183.8 -90.8 -177.9 -100.65 -174.4 -109.15 -177.9 -121.3 -184.35 -119.1 -189.9 L-118.4 -191.6 M-88.45 -188.35 Q-88.5 -190.35 -89.9 -191.75 -91.2 -193.05 -93.0 -193.15 L-93.3 -193.2 -93.3 -193.15 Q-95.3 -193.15 -96.75 -191.75 -98.15 -190.35 -98.15 -188.35 L-98.2 -188.35 -98.1 -187.55 Q-97.85 -186.05 -96.75 -184.95 -95.3 -183.5 -93.3 -183.5 -91.3 -183.5 -89.9 -184.95 -88.5 -186.35 -88.45 -188.35 M-106.85 -193.3 Q-107.95 -193.95 -109.25 -193.95 -111.25 -193.95 -112.65 -192.55 -114.0 -191.2 -114.05 -189.35 L-114.1 -189.1 -114.05 -189.1 Q-114.05 -187.1 -112.65 -185.7 -111.25 -184.3 -109.25 -184.3 L-107.9 -184.45 -107.0 -184.8 -105.85 -185.7 Q-104.4 -187.1 -104.4 -189.1 -104.4 -191.1 -105.85 -192.55 L-106.85 -193.3" fill="url(#gradient0)" fill-rule="evenodd" stroke="none"/>
    <path d="M-84.55 -190.35 L-84.15 -190.25 Q-80.15 -189.05 -79.0 -185.6 -74.3 -169.55 -65.15 -156.5 -53.55 -140.4 -50.85 -120.4 L-51.9 -121.25 -56.2 -118.8 -56.2 -118.0 Q-56.3 -114.25 -57.65 -110.1 L-57.7 -109.8 Q-58.1 -107.3 -55.55 -108.45 L-54.1 -109.15 -52.3 -109.3 Q-52.6 -96.0 -64.15 -87.65 -73.35 -81.05 -86.5 -77.75 L-93.35 -76.3 -99.6 -75.45 -107.7 -74.75 -112.8 -74.6 -113.1 -74.55 Q-116.7 -74.35 -120.0 -74.7 -123.75 -75.05 -127.15 -76.15 L-127.4 -76.2 Q-137.75 -79.6 -145.2 -89.5 -151.5 -99.6 -152.95 -112.25 L-151.65 -111.8 Q-150.15 -111.2 -150.0 -109.7 L-149.9 -107.0 Q-149.65 -105.25 -147.95 -106.8 L-146.15 -108.45 Q-145.0 -109.4 -143.3 -108.9 L-141.65 -108.25 Q-139.0 -107.35 -139.55 -110.0 -141.1 -113.8 -141.5 -117.85 L-141.55 -118.8 -146.35 -120.1 -147.1 -119.35 Q-149.65 -117.0 -153.25 -115.15 -153.6 -119.55 -153.35 -124.3 -150.0 -149.35 -133.8 -169.75 -127.35 -176.75 -124.45 -185.85 -123.55 -189.65 -119.75 -191.15 L-119.6 -191.2 -118.4 -191.6 -119.1 -189.9 Q-121.3 -184.35 -109.15 -177.9 -100.65 -174.4 -90.8 -177.9 -82.05 -183.8 -84.4 -189.65 L-84.55 -190.35 M-78.45 -144.1 Q-68.2 -119.25 -56.2 -118.0 -68.2 -119.25 -78.45 -144.1 M-141.15 -154.65 Q-148.85 -134.75 -147.1 -119.35 -148.85 -134.75 -141.15 -154.65 M-122.8 -137.95 Q-131.95 -130.55 -141.15 -117.8 L-141.5 -117.85 -141.15 -117.8 Q-131.95 -130.55 -122.8 -137.95" fill="url(#gradient1)" fill-rule="evenodd" stroke="none"/>
    <path d="M-152.95 -112.25 L-153.2 -112.3 Q-155.8 -113.3 -153.75 -114.85 L-153.5 -115.0 -153.25 -115.15 Q-149.65 -117.0 -147.1 -119.35 L-146.35 -120.1 -141.55 -118.8 -141.5 -117.85 Q-141.1 -113.8 -139.55 -110.0 -139.0 -107.35 -141.65 -108.25 L-143.3 -108.9 Q-145.0 -109.4 -146.15 -108.45 L-147.95 -106.8 Q-149.65 -105.25 -149.9 -107.0 L-150.0 -109.7 Q-150.15 -111.2 -151.65 -111.8 L-152.95 -112.25" fill="url(#gradient2)" fill-rule="evenodd" stroke="none"/>
    <path d="M-113.1 -74.55 Q-115.1 -66.3 -121.05 -59.55 -122.1 -66.85 -120.0 -74.7 -116.7 -74.35 -113.1 -74.55" fill="url(#gradient3)" fill-rule="evenodd" stroke="none"/>
    <path d="M-93.35 -76.3 Q-93.25 -68.35 -95.6 -60.95 -99.05 -67.8 -99.6 -75.45 L-93.35 -76.3" fill="url(#gradient4)" fill-rule="evenodd" stroke="none"/>
    <path d="M-50.85 -120.4 Q-47.85 -118.0 -44.25 -116.45 -42.0 -115.0 -44.5 -113.75 L-46.1 -113.05 Q-47.7 -112.2 -47.8 -110.7 L-47.9 -108.25 Q-48.05 -105.95 -49.45 -107.0 L-51.45 -108.85 Q-51.85 -109.2 -52.3 -109.3 L-54.1 -109.15 -55.55 -108.45 Q-58.1 -107.3 -57.7 -109.8 L-57.65 -110.1 Q-56.3 -114.25 -56.2 -118.0 L-56.2 -118.8 -51.9 -121.25 -50.85 -120.4" fill="url(#gradient5)" fill-rule="evenodd" stroke="none"/>
    <path d="M-89.3 -188.35 Q-89.3 -187.45 -89.6 -186.7 L-90.5 -185.5 Q-91.55 -184.4 -93.0 -184.3 L-93.35 -184.3 Q-95.05 -184.3 -96.25 -185.5 -97.4 -186.65 -97.4 -188.35 -97.4 -190.05 -96.25 -191.25 -95.05 -192.4 -93.35 -192.4 -91.65 -192.4 -90.5 -191.25 -89.3 -190.05 -89.3 -188.35 M-95.15 -188.4 Q-94.1 -189.4 -95.5 -189.95 L-95.95 -189.7 Q-96.85 -188.85 -95.7 -188.3 L-95.15 -188.4 M-106.5 -192.1 Q-105.3 -190.9 -105.3 -189.2 -105.3 -188.3 -105.6 -187.55 L-106.5 -186.35 Q-107.55 -185.25 -109.0 -185.15 L-109.35 -185.15 Q-111.05 -185.15 -112.25 -186.35 -113.4 -187.5 -113.4 -189.2 -113.4 -190.9 -112.25 -192.1 -111.05 -193.25 -109.35 -193.25 -107.65 -193.25 -106.5 -192.1 M-111.0 -189.75 Q-109.9 -190.8 -111.3 -191.3 L-111.8 -191.1 Q-112.65 -190.2 -111.5 -189.7 L-111.0 -189.75" fill="#884400" fill-rule="evenodd" stroke="none"/>
    <path d="M-118.4 -191.6 Q-116.65 -196.3 -115.85 -202.8 -114.05 -214.85 -103.7 -218.25 L-103.0 -219.5 Q-102.2 -220.3 -101.05 -220.3 -99.9 -220.3 -99.1 -219.5 L-98.45 -218.5 Q-88.15 -216.3 -86.15 -203.05 -85.65 -195.55 -84.55 -190.35 L-84.15 -190.25 Q-80.15 -189.05 -79.0 -185.6 -74.3 -169.55 -65.15 -156.5 -53.55 -140.4 -50.85 -120.4 -47.85 -118.0 -44.25 -116.45 -42.0 -115.0 -44.5 -113.75 L-46.1 -113.05 Q-47.7 -112.2 -47.8 -110.7 L-47.9 -108.25 Q-48.05 -105.95 -49.45 -107.0 L-51.45 -108.85 Q-51.85 -109.2 -52.3 -109.3 -52.6 -96.0 -64.15 -87.65 -73.35 -81.05 -86.5 -77.75 L-93.35 -76.3 Q-93.25 -68.35 -95.6 -60.95 -99.05 -67.8 -99.6 -75.45 L-107.7 -74.75 -112.8 -74.6 -113.1 -74.55 Q-115.1 -66.3 -121.05 -59.55 -122.1 -66.85 -120.0 -74.7 -123.75 -75.05 -127.15 -76.15 L-127.4 -76.2 Q-137.75 -79.6 -145.2 -89.5 -151.5 -99.6 -152.95 -112.25 L-153.2 -112.3 Q-155.8 -113.3 -153.75 -114.85 L-153.5 -115.0 -153.25 -115.15 Q-153.6 -119.55 -153.35 -124.3 -150.0 -149.35 -133.8 -169.75 -127.35 -176.75 -124.45 -185.85 -123.55 -189.65 -119.75 -191.15 L-119.6 -191.2 -118.4 -191.6 -119.1 -189.9 Q-121.3 -184.35 -109.15 -177.9 -100.65 -174.4 -90.8 -177.9 -82.05 -183.8 -84.4 -189.65 L-84.55 -190.35 M-56.2 -118.8 L-56.2 -118.0 Q-56.3 -114.25 -57.65 -110.1 L-57.7 -109.8 Q-58.1 -107.3 -55.55 -108.45 L-54.1 -109.15 -52.3 -109.3 M-50.85 -120.4 L-51.9 -121.25 M-56.2 -118.0 Q-68.2 -119.25 -78.45 -144.1 M-146.35 -120.1 L-147.1 -119.35 Q-149.65 -117.0 -153.25 -115.15 M-152.95 -112.25 L-151.65 -111.8 Q-150.15 -111.2 -150.0 -109.7 L-149.9 -107.0 Q-149.65 -105.25 -147.95 -106.8 L-146.15 -108.45 Q-145.0 -109.4 -143.3 -108.9 L-141.65 -108.25 Q-139.0 -107.35 -139.55 -110.0 -141.1 -113.8 -141.5 -117.85 L-141.55 -118.8 M-141.5 -117.85 L-141.15 -117.8 Q-131.95 -130.55 -122.8 -137.95 M-147.1 -119.35 Q-148.85 -134.75 -141.15 -154.65 M-99.6 -75.45 L-93.35 -76.3 M-120.0 -74.7 Q-116.7 -74.35 -113.1 -74.55" fill="none" stroke="#990099" stroke-linecap="round" stroke-linejoin="round" stroke-width="0.05"/>
  </g>
  <defs>
    <radialGradient cx="0" cy="0" gradientTransform="matrix(0.03, 0.0, 0.0, 0.03, -105.2, -197.3)" gradientUnits="userSpaceOnUse" id="gradient0" r="819.2" spreadMethod="pad">
      <stop offset="0.3843137254901961" stop-color="#ff00ff"/>
      <stop offset="1.0" stop-color="#ff66ff"/>
    </radialGradient>
    <radialGradient cx="0" cy="0" gradientTransform="matrix(0.0875, 0.0, 0.0, 0.0875, -101.5, -142.2)" gradientUnits="userSpaceOnUse" id="gradient1" r="819.2" spreadMethod="pad">
      <stop offset="0.3843137254901961" stop-color="#ff00ff"/>
      <stop offset="1.0" stop-color="#ff66ff"/>
    </radialGradient>
    <radialGradient cx="0" cy="0" gradientTransform="matrix(0.0153, 0.0041, -0.0041, 0.0153, -141.75, -112.9)" gradientUnits="userSpaceOnUse" id="gradient2" r="819.2" spreadMethod="pad">
      <stop offset="0.3843137254901961" stop-color="#ff00ff"/>
      <stop offset="1.0" stop-color="#ff66ff"/>
    </radialGradient>
    <radialGradient cx="0" cy="0" gradientTransform="matrix(0.0186, 0.0, 0.0, 0.0186, -120.0, -74.7)" gradientUnits="userSpaceOnUse" id="gradient3" r="819.2" spreadMethod="pad">
      <stop offset="0.3843137254901961" stop-color="#ff00ff"/>
      <stop offset="1.0" stop-color="#ff66ff"/>
    </radialGradient>
    <radialGradient cx="0" cy="0" gradientTransform="matrix(0.015, 0.0, 0.0, 0.015, -99.3, -72.25)" gradientUnits="userSpaceOnUse" id="gradient4" r="819.2" spreadMethod="pad">
      <stop offset="0.3843137254901961" stop-color="#ff00ff"/>
      <stop offset="1.0" stop-color="#ff66ff"/>
    </radialGradient>
    <radialGradient cx="0" cy="0" gradientTransform="matrix(0.0137, -0.0079, 0.0079, 0.0137, -47.85, -116.95)" gradientUnits="userSpaceOnUse" id="gradient5" r="819.2" spreadMethod="pad">
      <stop offset="0.3843137254901961" stop-color="#ff00ff"/>
      <stop offset="1.0" stop-color="#ff66ff"/>
    </radialGradient>
  </defs>
</svg>
