<?xml version="1.0" encoding="UTF-8" standalone="no"?>
<svg xmlns:xlink="http://www.w3.org/1999/xlink" height="191.9px" width="97.75px" xmlns="http://www.w3.org/2000/svg">
  <g transform="matrix(1.0, 0.0, 0.0, 1.0, 48.9, 95.95)">
    <path d="M-16.85 -68.9 Q-16.75 -70.7 -16.3 -72.3 -15.9 -73.8 -16.55 -75.1 L-17.1 -75.9 Q-17.4 -76.45 -17.1 -76.85 L-16.0 -77.9 Q-14.55 -79.9 -14.1 -83.35 L-13.9 -84.4 Q-13.25 -87.5 -11.85 -89.65 L-11.7 -90.1 -11.4 -90.95 -10.75 -91.3 Q-10.55 -91.35 -10.35 -91.5 -8.95 -92.9 -7.0 -93.7 L-6.75 -93.75 -6.7 -93.8 -6.5 -93.95 -6.45 -94.0 -6.3 -94.25 -5.45 -94.6 -5.25 -94.55 -5.0 -94.5 -4.95 -94.5 -4.6 -94.45 -3.9 -94.65 -3.8 -94.65 Q-2.45 -95.0 -1.4 -95.7 L-0.3 -95.75 Q0.4 -95.05 1.25 -94.9 L2.1 -94.75 2.2 -94.7 2.55 -94.8 2.6 -94.85 3.0 -94.95 3.6 -94.65 3.75 -94.5 4.25 -94.1 5.15 -93.7 Q7.3 -92.65 8.75 -91.15 L8.8 -91.15 Q8.95 -91.0 9.15 -91.0 L9.7 -90.7 10.0 -90.0 10.1 -89.55 10.2 -89.35 Q11.55 -87.2 11.85 -84.4 L11.85 -84.2 Q12.35 -79.85 14.25 -77.6 L15.0 -76.8 Q15.55 -76.2 15.15 -75.3 L14.8 -74.8 Q14.3 -73.85 14.5 -72.75 L14.7 -70.85 14.8 -68.6 Q16.9 -68.05 17.9 -65.9 18.95 -62.15 18.6 -57.1 20.6 -55.3 21.4 -53.15 22.1 -55.9 23.15 -58.65 L24.25 -58.5 Q22.4 -62.05 19.6 -64.95 18.05 -67.2 20.9 -67.35 L22.6 -67.35 Q24.35 -67.55 25.1 -68.85 L26.15 -71.05 Q27.1 -73.15 28.0 -71.6 L29.15 -69.15 Q29.75 -67.85 31.4 -67.8 L33.05 -67.9 Q35.8 -68.0 34.5 -65.85 L34.35 -65.6 Q31.25 -62.15 29.75 -58.5 L30.9 -58.65 Q42.25 -38.25 38.05 -17.5 56.2 6.75 43.9 30.25 36.95 40.3 28.35 47.15 21.1 57.1 16.95 70.3 L14.85 78.1 Q21.05 84.2 24.3 92.25 14.8 88.5 7.25 81.45 L7.15 80.7 Q7.15 74.95 5.65 70.3 L5.2 68.95 5.15 68.85 5.1 68.75 Q3.45 65.95 3.1 67.65 L3.05 68.3 2.6 70.3 Q1.4 75.95 1.25 82.0 -4.5 90.85 -11.85 95.95 -10.15 87.9 -5.8 80.4 -8.15 75.15 -11.1 70.3 -13.6 66.25 -16.45 62.55 -19.7 58.35 -23.45 54.5 L-25.4 52.5 -27.6 50.45 Q-31.1 48.15 -34.3 45.45 -44.6 37.1 -48.1 18.3 -51.65 -0.5 -39.0 -22.85 L-39.0 -22.9 Q-40.7 -39.45 -33.85 -54.85 L-33.1 -54.75 Q-35.0 -58.5 -37.95 -61.55 -39.5 -63.8 -36.65 -63.95 L-34.95 -63.95 Q-33.2 -64.15 -32.45 -65.45 L-31.4 -67.65 Q-30.45 -69.75 -29.55 -68.2 L-28.4 -65.75 Q-27.8 -64.45 -26.15 -64.4 L-24.5 -64.5 Q-21.75 -64.6 -23.05 -62.45 L-23.2 -62.2 Q-26.2 -58.85 -27.7 -55.3 L-26.8 -55.85 -23.6 -49.7 Q-22.65 -54.35 -19.95 -58.6 -20.25 -63.3 -19.9 -66.15 -19.0 -68.55 -16.85 -68.9 L-15.05 -68.9 -14.95 -68.9 -14.8 -68.85 -11.9 -68.4 -10.45 -68.25 -9.2 -68.1 Q0.55 -67.05 9.75 -68.4 L11.8 -68.75 14.8 -68.6 11.8 -68.75 9.75 -68.4 Q0.55 -67.05 -9.2 -68.1 L-10.45 -68.25 -11.9 -68.4 -14.8 -68.85 -14.95 -68.9 -15.05 -68.9 -16.85 -68.9 M9.25 -76.4 Q7.3 -77.5 5.4 -76.4 3.45 -75.4 2.55 -72.5 1.85 -70.25 3.6 -69.05 6.05 -68.0 9.7 -68.65 11.7 -69.9 11.55 -71.75 11.4 -74.7 9.25 -76.4 M19.65 -39.7 Q19.6 -46.45 21.4 -53.15 19.6 -46.45 19.65 -39.7 M24.75 -57.6 L24.25 -58.5 24.75 -57.6 M-7.55 -76.45 L-8.95 -76.95 Q-10.2 -77.15 -11.4 -76.45 -13.55 -74.7 -13.7 -71.75 -13.85 -69.9 -11.85 -68.65 L-10.8 -68.5 Q-7.85 -68.15 -5.75 -69.05 -4.05 -70.25 -4.65 -72.5 -5.65 -75.45 -7.55 -76.45 M-27.7 -55.3 L-27.95 -54.8 -27.7 -55.3 M-32.8 -54.2 L-33.1 -54.75 -32.8 -54.2 M-27.6 50.45 L-25.0 52.05 Q-13.65 58.8 0.5 61.25 -13.65 58.8 -25.0 52.05 L-27.6 50.45 M-19.05 -33.35 Q-19.95 -41.6 -23.6 -49.7 -19.95 -41.6 -19.05 -33.35 M-37.1 -12.4 Q-38.45 -17.7 -39.0 -22.85 -38.45 -17.7 -37.1 -12.4 M10.3 -57.7 Q0.5 -56.4 -11.6 -57.4 L-14.5 -57.7 -11.6 -57.4 Q0.5 -56.4 10.3 -57.7 M10.7 57.05 Q20.25 53.55 28.35 47.15 20.25 53.55 10.7 57.05" fill="url(#gradient0)" fill-rule="evenodd" stroke="none"/>
    <path d="M9.25 -76.4 Q11.4 -74.7 11.55 -71.75 11.7 -69.9 9.7 -68.65 6.05 -68.0 3.6 -69.05 1.85 -70.25 2.55 -72.5 3.45 -75.4 5.4 -76.4 7.3 -77.5 9.25 -76.4 M9.55 -74.75 Q8.55 -75.75 7.15 -75.75 5.75 -75.75 4.7 -74.75 3.7 -73.75 3.75 -72.35 3.7 -70.95 4.7 -69.95 5.4 -69.3 6.25 -69.05 L7.15 -68.9 7.35 -68.9 Q8.6 -69.0 9.55 -69.95 10.55 -70.95 10.55 -72.35 10.55 -73.75 9.55 -74.75 M5.55 -73.4 L6.05 -73.65 Q7.45 -73.1 6.35 -72.1 L5.85 -72.0 Q4.7 -72.55 5.55 -73.4 M-7.55 -76.45 Q-5.65 -75.45 -4.65 -72.5 -4.05 -70.25 -5.75 -69.05 -7.85 -68.15 -10.8 -68.5 L-11.85 -68.65 Q-13.85 -69.9 -13.7 -71.75 -13.55 -74.7 -11.4 -76.45 -10.2 -77.15 -8.95 -76.95 L-7.55 -76.45 M-6.8 -74.8 Q-7.8 -75.8 -9.15 -75.8 -10.55 -75.8 -11.6 -74.8 -12.6 -73.8 -12.6 -72.35 -12.6 -71.0 -11.6 -70.0 L-10.1 -69.1 -9.15 -68.95 -8.95 -68.95 Q-7.7 -69.05 -6.8 -70.0 -5.75 -71.0 -5.75 -72.35 -5.75 -73.8 -6.8 -74.8 M-10.7 -73.6 L-10.25 -73.8 Q-8.85 -73.3 -9.9 -72.25 L-10.45 -72.2 Q-11.6 -72.7 -10.7 -73.6" fill="#ffffff" fill-rule="evenodd" stroke="none"/>
    <path d="M9.55 -74.75 Q10.55 -73.75 10.55 -72.35 10.55 -70.95 9.55 -69.95 8.6 -69.0 7.35 -68.9 L7.15 -68.9 6.25 -69.05 Q5.4 -69.3 4.7 -69.95 3.7 -70.95 3.75 -72.35 3.7 -73.75 4.7 -74.75 5.75 -75.75 7.15 -75.75 8.55 -75.75 9.55 -74.75 M5.55 -73.4 Q4.7 -72.55 5.85 -72.0 L6.35 -72.1 Q7.45 -73.1 6.05 -73.65 L5.55 -73.4 M-6.8 -74.8 Q-5.75 -73.8 -5.75 -72.35 -5.75 -71.0 -6.8 -70.0 -7.7 -69.05 -8.95 -68.95 L-9.15 -68.95 -10.1 -69.1 -11.6 -70.0 Q-12.6 -71.0 -12.6 -72.35 -12.6 -73.8 -11.6 -74.8 -10.55 -75.8 -9.15 -75.8 -7.8 -75.8 -6.8 -74.8 M-10.7 -73.6 Q-11.6 -72.7 -10.45 -72.2 L-9.9 -72.25 Q-8.85 -73.3 -10.25 -73.8 L-10.7 -73.6" fill="#884400" fill-rule="evenodd" stroke="none"/>
    <path d="M-16.85 -68.9 Q-16.75 -70.7 -16.3 -72.3 -15.9 -73.8 -16.55 -75.1 L-17.1 -75.9 Q-17.4 -76.45 -17.1 -76.85 L-16.0 -77.9 Q-14.55 -79.9 -14.1 -83.35 L-13.9 -84.4 Q-13.25 -87.5 -11.85 -89.65 L-11.7 -90.1 -11.4 -90.95 -10.75 -91.3 Q-10.55 -91.35 -10.35 -91.5 -8.95 -92.9 -7.0 -93.7 L-6.75 -93.75 -6.7 -93.8 -6.5 -93.95 -6.45 -94.0 -6.3 -94.25 -5.45 -94.6 -5.25 -94.55 -5.0 -94.5 -4.95 -94.5 -4.6 -94.45 -3.9 -94.65 -3.8 -94.65 Q-2.45 -95.0 -1.4 -95.7 L-0.3 -95.75 Q0.4 -95.05 1.25 -94.9 L2.1 -94.75 2.2 -94.7 2.55 -94.8 2.6 -94.85 3.0 -94.95 3.6 -94.65 3.75 -94.5 4.25 -94.1 5.15 -93.7 Q7.3 -92.65 8.75 -91.15 L8.8 -91.15 Q8.95 -91.0 9.15 -91.0 L9.7 -90.7 10.0 -90.0 10.1 -89.55 10.2 -89.35 Q11.55 -87.2 11.85 -84.4 L11.85 -84.2 Q12.35 -79.85 14.25 -77.6 L15.0 -76.8 Q15.55 -76.2 15.15 -75.3 L14.8 -74.8 Q14.3 -73.85 14.5 -72.75 L14.7 -70.85 14.8 -68.6 M9.25 -76.4 Q11.4 -74.7 11.55 -71.75 11.7 -69.9 9.7 -68.65 6.05 -68.0 3.6 -69.05 1.85 -70.25 2.55 -72.5 3.45 -75.4 5.4 -76.4 7.3 -77.5 9.25 -76.4 M-7.55 -76.45 Q-5.65 -75.45 -4.65 -72.5 -4.05 -70.25 -5.75 -69.05 -7.85 -68.15 -10.8 -68.5 L-11.85 -68.65 Q-13.85 -69.9 -13.7 -71.75 -13.55 -74.7 -11.4 -76.45 -10.2 -77.15 -8.95 -76.95 L-7.55 -76.45" fill="none" stroke="#bfbf00" stroke-linecap="round" stroke-linejoin="round" stroke-width="0.05"/>
    <path d="M5.2 68.95 L5.1 68.75" fill="none" stroke="#660099" stroke-linecap="round" stroke-linejoin="round" stroke-width="0.05"/>
    <path d="M14.8 -68.6 Q16.9 -68.05 17.9 -65.9 18.95 -62.15 18.6 -57.1 20.6 -55.3 21.4 -53.15 22.1 -55.9 23.15 -58.65 L24.25 -58.5 Q22.4 -62.05 19.6 -64.95 18.05 -67.2 20.9 -67.35 L22.6 -67.35 Q24.35 -67.55 25.1 -68.85 L26.15 -71.05 Q27.1 -73.15 28.0 -71.6 L29.15 -69.15 Q29.75 -67.85 31.4 -67.8 L33.05 -67.9 Q35.8 -68.0 34.5 -65.85 L34.35 -65.6 Q31.25 -62.15 29.75 -58.5 L30.9 -58.65 Q42.25 -38.25 38.05 -17.5 56.2 6.75 43.9 30.25 36.95 40.3 28.35 47.15 21.1 57.1 16.95 70.3 L14.85 78.1 Q21.05 84.2 24.3 92.25 14.8 88.5 7.25 81.45 L7.15 80.7 Q7.15 74.95 5.65 70.3 L5.2 68.95 5.15 68.85 5.1 68.75 Q3.45 65.95 3.1 67.65 L3.05 68.3 2.6 70.3 Q1.4 75.95 1.25 82.0 -4.5 90.85 -11.85 95.95 -10.15 87.9 -5.8 80.4 -8.15 75.15 -11.1 70.3 -13.6 66.25 -16.45 62.55 -19.7 58.35 -23.45 54.5 L-25.4 52.5 -27.6 50.45 Q-31.1 48.15 -34.3 45.45 -44.6 37.1 -48.1 18.3 -51.65 -0.5 -39.0 -22.85 L-39.0 -22.9 Q-40.7 -39.45 -33.85 -54.85 L-33.1 -54.75 Q-35.0 -58.5 -37.95 -61.55 -39.5 -63.8 -36.65 -63.95 L-34.95 -63.95 Q-33.2 -64.15 -32.45 -65.45 L-31.4 -67.65 Q-30.45 -69.75 -29.55 -68.2 L-28.4 -65.75 Q-27.8 -64.45 -26.15 -64.4 L-24.5 -64.5 Q-21.75 -64.6 -23.05 -62.45 L-23.2 -62.2 Q-26.2 -58.85 -27.7 -55.3 L-26.8 -55.85 -23.6 -49.7 Q-22.65 -54.35 -19.95 -58.6 -20.25 -63.3 -19.9 -66.15 -19.0 -68.55 -16.85 -68.9 L-15.05 -68.9 -14.95 -68.9 -14.8 -68.85 -11.9 -68.4 -10.45 -68.25 -9.2 -68.1 Q0.55 -67.05 9.75 -68.4 L11.8 -68.75 14.8 -68.6 M24.25 -58.5 L24.75 -57.6 M21.4 -53.15 Q19.6 -46.45 19.65 -39.7 M-33.1 -54.75 L-32.8 -54.2 M-27.95 -54.8 L-27.7 -55.3 M-14.5 -57.7 L-11.6 -57.4 Q0.5 -56.4 10.3 -57.7 M-39.0 -22.85 Q-38.45 -17.7 -37.1 -12.4 M-23.6 -49.7 Q-19.95 -41.6 -19.05 -33.35 M0.5 61.25 Q-13.65 58.8 -25.0 52.05 L-27.6 50.45 M28.35 47.15 Q20.25 53.55 10.7 57.05" fill="none" stroke="#bfbf00" stroke-linecap="round" stroke-linejoin="round" stroke-width="0.05"/>
  </g>
  <defs>
    <radialGradient cx="0" cy="0" gradientTransform="matrix(0.1558, 0.0, 0.0, 0.1558, -8.15, -31.0)" gradientUnits="userSpaceOnUse" id="gradient0" r="819.2" spreadMethod="pad">
      <stop offset="0.0" stop-color="#ffcc33"/>
      <stop offset="0.5294117647058824" stop-color="#ffff00"/>
      <stop offset="1.0" stop-color="#ffff66"/>
    </radialGradient>
  </defs>
</svg>
