<?xml version="1.0" encoding="UTF-8" standalone="no"?>
<svg xmlns:xlink="http://www.w3.org/1999/xlink" height="191.55px" width="108.85px" xmlns="http://www.w3.org/2000/svg">
  <g transform="matrix(1.0, 0.0, 0.0, 1.0, 54.45, 95.8)">
    <path d="M1.75 -67.45 Q1.75 -69.35 0.4 -70.75 -1.0 -72.15 -2.9 -72.15 -4.85 -72.15 -6.2 -70.75 -7.6 -69.35 -7.6 -67.45 -7.6 -65.55 -6.2 -64.15 -4.85 -62.75 -2.9 -62.75 -1.0 -62.75 0.4 -64.15 1.75 -65.55 1.75 -67.45 M-22.0 -68.25 L-22.0 -76.3 Q-22.2 -90.7 -11.6 -93.9 L-10.95 -95.0 Q-10.15 -95.8 -9.0 -95.8 -7.85 -95.8 -7.05 -95.0 L-6.7 -94.55 Q2.6 -94.15 6.1 -78.7 L7.95 -69.1 Q8.45 -57.2 -9.75 -55.95 -24.65 -56.2 -22.0 -68.25 M-15.4 -70.7 Q-17.35 -70.7 -18.7 -69.3 -20.1 -67.95 -20.1 -66.0 -20.1 -64.1 -18.7 -62.7 -17.35 -61.35 -15.4 -61.35 -13.5 -61.35 -12.1 -62.7 -10.75 -64.1 -10.75 -66.0 -10.75 -67.95 -12.1 -69.3 -13.5 -70.7 -15.4 -70.7" fill="url(#gradient0)" fill-rule="evenodd" stroke="none"/>
    <path d="M1.75 -67.45 Q1.75 -65.55 0.4 -64.15 -1.0 -62.75 -2.9 -62.75 -4.85 -62.75 -6.2 -64.15 -7.6 -65.55 -7.6 -67.45 -7.6 -69.35 -6.2 -70.75 -4.85 -72.15 -2.9 -72.15 -1.0 -72.15 0.4 -70.75 1.75 -69.35 1.75 -67.45 M-0.2 -70.2 Q-1.35 -71.35 -2.95 -71.35 -4.55 -71.35 -5.7 -70.2 -6.85 -69.05 -6.85 -67.45 -6.85 -65.85 -5.7 -64.7 -4.55 -63.55 -2.95 -63.55 -1.35 -63.55 -0.2 -64.7 0.95 -65.85 0.95 -67.45 0.95 -69.05 -0.2 -70.2 M-5.1 -68.75 Q-3.95 -68.5 -4.5 -67.5 L-4.9 -67.2 Q-5.8 -67.05 -5.85 -67.95 -5.9 -68.6 -5.2 -68.75 L-5.1 -68.75 M-15.45 -69.9 Q-17.05 -69.9 -18.2 -68.75 -19.35 -67.6 -19.35 -66.0 -19.35 -64.4 -18.2 -63.25 -17.05 -62.1 -15.45 -62.1 -13.85 -62.1 -12.7 -63.25 -11.55 -64.4 -11.55 -66.0 -11.55 -67.6 -12.7 -68.75 -13.85 -69.9 -15.45 -69.9 M-15.4 -70.7 Q-13.5 -70.7 -12.1 -69.3 -10.75 -67.95 -10.75 -66.0 -10.75 -64.1 -12.1 -62.7 -13.5 -61.35 -15.4 -61.35 -17.35 -61.35 -18.7 -62.7 -20.1 -64.1 -20.1 -66.0 -20.1 -67.95 -18.7 -69.3 -17.35 -70.7 -15.4 -70.7 M-18.15 -66.85 Q-18.2 -67.5 -17.5 -67.65 L-17.4 -67.65 Q-16.25 -67.35 -16.8 -66.35 -16.9 -66.15 -17.2 -66.1 -18.1 -65.95 -18.15 -66.85" fill="#ffffff" fill-rule="evenodd" stroke="none"/>
    <path d="M7.95 -69.1 Q13.05 -62.65 15.3 -51.95 22.3 -43.7 27.2 -35.45 35.55 -33.65 40.55 -36.9 L40.7 -35.65 39.45 -34.7 40.75 -29.9 41.5 -29.7 41.8 -27.1 Q39.75 -18.3 35.1 -12.85 39.7 0.05 41.0 12.65 45.55 37.75 21.85 53.2 L15.3 57.35 Q5.95 62.35 -4.35 63.15 -9.55 63.55 -15.0 62.9 L-22.5 61.5 Q-27.05 60.35 -31.75 58.5 -52.9 49.4 -49.1 23.25 L-48.6 21.65 -46.8 20.4 -43.9 20.45 -42.4 21.3 Q-39.9 22.6 -40.05 19.9 -41.0 15.75 -40.7 11.5 L-40.65 10.9 -43.6 9.6 -44.6 8.95 -45.85 8.15 Q-41.6 -14.95 -31.75 -37.3 -28.4 -47.8 -26.45 -61.15 -25.75 -65.75 -22.0 -68.25 -24.65 -56.2 -9.75 -55.95 8.45 -57.2 7.95 -69.1 M26.1 -6.3 Q31.4 -8.55 35.1 -12.85 31.4 -8.55 26.1 -6.3 M17.95 -38.5 Q23.0 -36.35 27.2 -35.45 23.0 -36.35 17.95 -38.5 M-29.75 -13.05 Q-33.95 -0.6 -40.15 11.85 L-40.7 11.5 -40.15 11.85 Q-33.95 -0.6 -29.75 -13.05" fill="url(#gradient1)" fill-rule="evenodd" stroke="none"/>
    <path d="M40.7 -35.65 Q43.7 -37.9 46.1 -40.85 48.05 -42.7 48.6 -39.9 L48.9 -38.15 Q49.3 -36.45 50.7 -35.9 L53.05 -35.15 Q55.25 -34.5 53.85 -33.35 L51.55 -31.9 Q50.35 -31.1 50.55 -29.45 L50.9 -27.85 Q51.3 -25.15 49.0 -26.1 L48.75 -26.25 Q45.1 -28.65 41.5 -29.7 L40.75 -29.9 39.45 -34.7 40.7 -35.65" fill="url(#gradient2)" fill-rule="evenodd" stroke="none"/>
    <path d="M-48.6 21.65 L-48.85 21.8 Q-50.75 23.05 -50.75 21.3 L-50.4 18.6 Q-50.3 17.15 -51.7 16.3 L-53.15 15.55 Q-55.6 14.15 -53.35 12.95 L-53.05 12.85 Q-48.5 11.35 -45.2 8.9 L-44.65 9.15 -43.6 9.6 -40.65 10.9 -40.7 11.5 Q-41.0 15.75 -40.05 19.9 -39.9 22.6 -42.4 21.3 L-43.9 20.45 -46.8 20.4 -48.6 21.65" fill="url(#gradient3)" fill-rule="evenodd" stroke="none"/>
    <path d="M-44.65 9.15 L-44.6 8.95 -43.6 9.6 -44.65 9.15" fill="url(#gradient4)" fill-rule="evenodd" stroke="none"/>
    <path d="M-15.0 62.9 Q-15.35 68.7 -17.9 73.75 -21.25 67.6 -22.5 61.5 L-15.0 62.9" fill="url(#gradient5)" fill-rule="evenodd" stroke="none"/>
    <path d="M15.3 57.35 Q8.55 65.8 4.9 77.5 6.6 88.7 4.05 95.75 -0.65 86.55 -1.6 76.6 L-4.35 63.15 Q5.95 62.35 15.3 57.35" fill="url(#gradient6)" fill-rule="evenodd" stroke="none"/>
    <path d="M-0.2 -70.2 Q0.95 -69.05 0.95 -67.45 0.95 -65.85 -0.2 -64.7 -1.35 -63.55 -2.95 -63.55 -4.55 -63.55 -5.7 -64.7 -6.85 -65.85 -6.85 -67.45 -6.85 -69.05 -5.7 -70.2 -4.55 -71.35 -2.95 -71.35 -1.35 -71.35 -0.2 -70.2 M-5.1 -68.75 L-5.2 -68.75 Q-5.9 -68.6 -5.85 -67.95 -5.8 -67.05 -4.9 -67.2 L-4.5 -67.5 Q-3.95 -68.5 -5.1 -68.75 M-15.45 -69.9 Q-13.85 -69.9 -12.7 -68.75 -11.55 -67.6 -11.55 -66.0 -11.55 -64.4 -12.7 -63.25 -13.85 -62.1 -15.45 -62.1 -17.05 -62.1 -18.2 -63.25 -19.35 -64.4 -19.35 -66.0 -19.35 -67.6 -18.2 -68.75 -17.05 -69.9 -15.45 -69.9 M-18.15 -66.85 Q-18.1 -65.95 -17.2 -66.1 -16.9 -66.15 -16.8 -66.35 -16.25 -67.35 -17.4 -67.65 L-17.5 -67.65 Q-18.2 -67.5 -18.15 -66.85" fill="#884400" fill-rule="evenodd" stroke="none"/>
    <path d="M1.75 -67.45 Q1.75 -65.55 0.4 -64.15 -1.0 -62.75 -2.9 -62.75 -4.85 -62.75 -6.2 -64.15 -7.6 -65.55 -7.6 -67.45 -7.6 -69.35 -6.2 -70.75 -4.85 -72.15 -2.9 -72.15 -1.0 -72.15 0.4 -70.75 1.75 -69.35 1.75 -67.45 M-22.0 -68.25 L-22.0 -76.3 Q-22.2 -90.7 -11.6 -93.9 L-10.95 -95.0 Q-10.15 -95.8 -9.0 -95.8 -7.85 -95.8 -7.05 -95.0 L-6.7 -94.55 Q2.6 -94.15 6.1 -78.7 L7.95 -69.1 Q13.05 -62.65 15.3 -51.95 22.3 -43.7 27.2 -35.45 35.55 -33.65 40.55 -36.9 L40.7 -35.65 Q43.7 -37.9 46.1 -40.85 48.05 -42.7 48.6 -39.9 L48.9 -38.15 Q49.3 -36.45 50.7 -35.9 L53.05 -35.15 Q55.25 -34.5 53.85 -33.35 L51.55 -31.9 Q50.35 -31.1 50.55 -29.45 L50.9 -27.85 Q51.3 -25.15 49.0 -26.1 L48.75 -26.25 Q45.1 -28.65 41.5 -29.7 L41.8 -27.1 Q39.75 -18.3 35.1 -12.85 39.7 0.05 41.0 12.65 45.55 37.75 21.85 53.2 L15.3 57.35 Q8.55 65.8 4.9 77.5 6.6 88.7 4.05 95.75 -0.65 86.55 -1.6 76.6 L-4.35 63.15 Q-9.55 63.55 -15.0 62.9 -15.35 68.7 -17.9 73.75 -21.25 67.6 -22.5 61.5 -27.05 60.35 -31.75 58.5 -52.9 49.4 -49.1 23.25 L-48.6 21.65 -48.85 21.8 Q-50.75 23.05 -50.75 21.3 L-50.4 18.6 Q-50.3 17.15 -51.7 16.3 L-53.15 15.55 Q-55.6 14.15 -53.35 12.95 L-53.05 12.85 Q-48.5 11.35 -45.2 8.9 L-44.65 9.15 M-44.6 8.95 L-45.85 8.15 Q-41.6 -14.95 -31.75 -37.3 -28.4 -47.8 -26.45 -61.15 -25.75 -65.75 -22.0 -68.25 -24.65 -56.2 -9.75 -55.95 8.45 -57.2 7.95 -69.1 M27.2 -35.45 Q23.0 -36.35 17.95 -38.5 M35.1 -12.85 Q31.4 -8.55 26.1 -6.3 M40.7 -35.65 L39.45 -34.7 40.75 -29.9 41.5 -29.7 M-15.4 -70.7 Q-13.5 -70.7 -12.1 -69.3 -10.75 -67.95 -10.75 -66.0 -10.75 -64.1 -12.1 -62.7 -13.5 -61.35 -15.4 -61.35 -17.35 -61.35 -18.7 -62.7 -20.1 -64.1 -20.1 -66.0 -20.1 -67.95 -18.7 -69.3 -17.35 -70.7 -15.4 -70.7 M-48.6 21.65 L-46.8 20.4 -43.9 20.45 -42.4 21.3 Q-39.9 22.6 -40.05 19.9 -41.0 15.75 -40.7 11.5 L-40.65 10.9 -43.6 9.6 -44.65 9.15 M-43.6 9.6 L-44.6 8.95 M-22.5 61.5 L-15.0 62.9 M-40.7 11.5 L-40.15 11.85 Q-33.95 -0.6 -29.75 -13.05 M15.3 57.35 Q5.95 62.35 -4.35 63.15" fill="none" stroke="#bfbf00" stroke-linecap="round" stroke-linejoin="round" stroke-width="0.05"/>
    <path d="M-44.65 9.15 L-44.6 8.95" fill="none" stroke="#3366cc" stroke-linecap="round" stroke-linejoin="round" stroke-width="0.05"/>
  </g>
  <defs>
    <radialGradient cx="0" cy="0" gradientTransform="matrix(0.0301, 0.0, 0.0, 0.0301, -2.95, -71.35)" gradientUnits="userSpaceOnUse" id="gradient0" r="819.2" spreadMethod="pad">
      <stop offset="0.0" stop-color="#ffcc33"/>
      <stop offset="0.5294117647058824" stop-color="#ffff00"/>
      <stop offset="1.0" stop-color="#ffff66"/>
    </radialGradient>
    <radialGradient cx="0" cy="0" gradientTransform="matrix(0.1296, 0.0, 0.0, 0.1296, 7.0, -39.75)" gradientUnits="userSpaceOnUse" id="gradient1" r="819.2" spreadMethod="pad">
      <stop offset="0.0" stop-color="#ffcc33"/>
      <stop offset="0.5294117647058824" stop-color="#ffff00"/>
      <stop offset="1.0" stop-color="#ffff66"/>
    </radialGradient>
    <radialGradient cx="0" cy="0" gradientTransform="matrix(-0.0041, -0.0153, 0.0153, -0.0041, 44.65, -37.5)" gradientUnits="userSpaceOnUse" id="gradient2" r="819.2" spreadMethod="pad">
      <stop offset="0.0" stop-color="#ffcc33"/>
      <stop offset="0.5294117647058824" stop-color="#ffff00"/>
      <stop offset="1.0" stop-color="#ffff66"/>
    </radialGradient>
    <radialGradient cx="0" cy="0" gradientTransform="matrix(0.0145, 0.0064, -0.0064, 0.0145, -41.8, 16.7)" gradientUnits="userSpaceOnUse" id="gradient3" r="819.2" spreadMethod="pad">
      <stop offset="0.0" stop-color="#ffcc33"/>
      <stop offset="0.5294117647058824" stop-color="#ffff00"/>
      <stop offset="1.0" stop-color="#ffff66"/>
    </radialGradient>
    <radialGradient cx="0" cy="0" gradientTransform="matrix(0.1091, 0.0, 0.0, 0.1091, -32.3, -17.0)" gradientUnits="userSpaceOnUse" id="gradient4" r="819.2" spreadMethod="pad">
      <stop offset="0.3843137254901961" stop-color="#33ccff"/>
      <stop offset="1.0" stop-color="#3399ff"/>
    </radialGradient>
    <radialGradient cx="0" cy="0" gradientTransform="matrix(0.0086, 0.0, 0.0, 0.0086, -19.15, 66.8)" gradientUnits="userSpaceOnUse" id="gradient5" r="819.2" spreadMethod="pad">
      <stop offset="0.0" stop-color="#ffcc33"/>
      <stop offset="0.5294117647058824" stop-color="#ffff00"/>
      <stop offset="1.0" stop-color="#ffff66"/>
    </radialGradient>
    <radialGradient cx="0" cy="0" gradientTransform="matrix(0.0313, 0.0, 0.0, 0.0313, -1.6, 76.6)" gradientUnits="userSpaceOnUse" id="gradient6" r="819.2" spreadMethod="pad">
      <stop offset="0.0" stop-color="#ffcc33"/>
      <stop offset="0.5294117647058824" stop-color="#ffff00"/>
      <stop offset="1.0" stop-color="#ffff66"/>
    </radialGradient>
  </defs>
</svg>
