<?xml version="1.0" encoding="UTF-8" standalone="no"?>
<svg xmlns:xlink="http://www.w3.org/1999/xlink" height="198.55px" width="109.8px" xmlns="http://www.w3.org/2000/svg">
  <g transform="matrix(1.0, 0.0, 0.0, 1.0, 154.15, 232.55)">
    <path d="M-112.8 -204.8 Q-111.4 -206.2 -109.4 -206.2 -108.1 -206.2 -107.0 -205.55 L-106.0 -204.8 Q-104.55 -203.35 -104.55 -201.35 -104.55 -199.35 -106.0 -197.95 L-106.2 -197.75 -106.25 -197.8 -107.1 -197.1 Q-108.15 -196.45 -109.5 -196.45 -111.4 -196.45 -112.75 -197.8 L-113.7 -199.2 Q-114.2 -200.2 -114.2 -201.35 -114.2 -203.35 -112.8 -204.8 M-113.2 -201.2 Q-113.2 -199.5 -112.05 -198.35 -110.85 -197.15 -109.15 -197.15 L-108.8 -197.15 Q-107.35 -197.25 -106.3 -198.35 L-105.4 -199.55 Q-105.1 -200.3 -105.1 -201.2 -105.1 -202.9 -106.3 -204.1 -107.45 -205.25 -109.15 -205.25 -110.85 -205.25 -112.05 -204.1 -113.2 -202.9 -113.2 -201.2 M-111.75 -202.55 L-111.25 -202.8 Q-109.85 -202.25 -110.95 -201.25 L-111.45 -201.15 Q-112.6 -201.7 -111.75 -202.55 M-92.65 -205.35 Q-91.2 -205.15 -90.05 -204.0 -88.65 -202.6 -88.6 -200.6 -88.65 -198.6 -90.05 -197.2 -91.45 -195.75 -93.45 -195.75 -95.45 -195.75 -96.9 -197.2 -98.3 -198.6 -98.3 -200.6 -98.3 -201.95 -97.65 -203.0 L-96.85 -204.1 Q-95.5 -205.45 -93.6 -205.45 L-92.65 -205.35 M-96.5 -203.7 Q-97.65 -202.5 -97.65 -200.8 -97.65 -199.1 -96.5 -197.95 -95.3 -196.75 -93.6 -196.75 L-93.25 -196.75 Q-91.8 -196.85 -90.75 -197.95 L-89.85 -199.15 Q-89.55 -199.9 -89.55 -200.8 -89.55 -202.5 -90.75 -203.7 -91.9 -204.85 -93.6 -204.85 -95.3 -204.85 -96.5 -203.7 M-95.65 -200.6 Q-95.85 -200.4 -96.15 -200.5 -97.3 -201.05 -96.45 -201.9 L-95.95 -202.15 Q-94.55 -201.6 -95.65 -200.6" fill="#ffffff" fill-rule="evenodd" stroke="none"/>
    <path d="M-152.75 -120.55 L-152.75 -120.6 -152.7 -120.55 -152.75 -120.55 M-140.8 -124.75 L-140.65 -124.65 -140.8 -124.6 -140.8 -124.75 M-146.45 -127.75 L-146.5 -127.7 -146.6 -127.85 -146.45 -127.75" fill="url(#gradient0)" fill-rule="evenodd" stroke="none"/>
    <path d="M-119.1 -202.15 Q-121.15 -196.25 -112.3 -192.85 -100.2 -189.95 -88.15 -193.9 -82.8 -197.05 -84.4 -201.9 -80.95 -200.95 -78.45 -193.25 -77.35 -184.45 -72.3 -174.65 -58.25 -154.3 -50.75 -125.85 L-51.75 -125.15 -52.3 -125.7 -56.8 -123.75 -57.2 -121.4 Q-57.85 -118.45 -59.3 -115.3 L-59.4 -115.05 Q-60.05 -112.6 -57.4 -113.45 L-55.85 -114.0 -55.4 -114.1 Q-57.1 -92.5 -77.3 -84.5 L-80.95 -83.25 Q-91.8 -79.5 -103.1 -79.35 L-107.3 -79.4 Q-117.5 -79.9 -128.0 -83.25 L-131.05 -84.5 Q-150.5 -93.65 -152.75 -120.55 L-152.7 -120.55 -151.15 -120.05 Q-149.65 -119.45 -149.5 -117.95 L-149.4 -115.25 Q-149.15 -113.5 -147.45 -115.05 L-145.65 -116.7 Q-144.5 -117.65 -142.8 -117.15 L-141.15 -116.5 Q-138.5 -115.6 -139.05 -118.25 -140.3 -121.35 -140.8 -124.6 L-140.65 -124.65 -140.8 -124.75 -141.05 -127.05 -145.85 -128.35 -146.45 -127.75 -146.6 -127.85 -146.5 -127.7 Q-149.15 -125.2 -152.95 -123.3 L-153.0 -124.65 Q-151.8 -145.45 -138.65 -166.25 -131.4 -176.55 -127.0 -187.8 -124.05 -200.45 -119.1 -202.15 M-78.25 -154.1 Q-73.0 -138.8 -60.15 -126.1 L-58.05 -120.8 -57.2 -121.4 -58.05 -120.8 -60.15 -126.1 Q-73.0 -138.8 -78.25 -154.1 M-138.15 -161.8 Q-144.6 -145.3 -146.6 -127.85 -144.6 -145.3 -138.15 -161.8 M-119.6 -154.1 Q-127.9 -138.45 -140.65 -124.65 -127.9 -138.45 -119.6 -154.1" fill="url(#gradient1)" fill-rule="evenodd" stroke="none"/>
    <path d="M-119.1 -202.15 Q-116.8 -207.3 -115.85 -215.05 -114.0 -227.35 -103.25 -230.6 -103.1 -231.25 -102.6 -231.75 -101.8 -232.55 -100.65 -232.55 -99.5 -232.55 -98.7 -231.75 L-98.0 -230.65 Q-88.15 -228.3 -86.15 -215.3 -85.6 -207.3 -84.4 -201.9 -82.8 -197.05 -88.15 -193.9 -100.2 -189.95 -112.3 -192.85 -121.15 -196.25 -119.1 -202.15 M-112.8 -204.8 Q-114.2 -203.35 -114.2 -201.35 -114.2 -200.2 -113.7 -199.2 L-112.75 -197.8 Q-111.4 -196.45 -109.5 -196.45 -108.15 -196.45 -107.1 -197.1 L-106.25 -197.8 -106.2 -197.75 -106.0 -197.95 Q-104.55 -199.35 -104.55 -201.35 -104.55 -203.35 -106.0 -204.8 L-107.0 -205.55 Q-108.1 -206.2 -109.4 -206.2 -111.4 -206.2 -112.8 -204.8 M-92.65 -205.35 L-93.6 -205.45 Q-95.5 -205.45 -96.85 -204.1 L-97.65 -203.0 Q-98.3 -201.95 -98.3 -200.6 -98.3 -198.6 -96.9 -197.2 -95.45 -195.75 -93.45 -195.75 -91.45 -195.75 -90.05 -197.2 -88.65 -198.6 -88.6 -200.6 -88.65 -202.6 -90.05 -204.0 -91.2 -205.15 -92.65 -205.35" fill="url(#gradient2)" fill-rule="evenodd" stroke="none"/>
    <path d="M-51.75 -125.15 Q-48.9 -122.15 -45.25 -120.05 -43.2 -118.35 -45.85 -117.4 L-47.5 -116.9 Q-49.15 -116.25 -49.45 -114.8 L-49.85 -112.35 Q-50.25 -110.1 -51.5 -111.3 L-53.3 -113.35 Q-54.15 -114.3 -55.4 -114.1 L-55.85 -114.0 -57.4 -113.45 Q-60.05 -112.6 -59.4 -115.05 L-59.3 -115.3 Q-57.85 -118.45 -57.2 -121.4 L-56.8 -123.75 -52.3 -125.7 -51.75 -125.15" fill="url(#gradient3)" fill-rule="evenodd" stroke="none"/>
    <path d="M-152.75 -120.6 Q-155.3 -121.6 -153.25 -123.1 L-153.0 -123.25 -152.95 -123.3 Q-149.15 -125.2 -146.5 -127.7 L-146.45 -127.75 -145.85 -128.35 -141.05 -127.05 -140.8 -124.75 -140.8 -124.6 Q-140.3 -121.35 -139.05 -118.25 -138.5 -115.6 -141.15 -116.5 L-142.8 -117.15 Q-144.5 -117.65 -145.65 -116.7 L-147.45 -115.05 Q-149.15 -113.5 -149.4 -115.25 L-149.5 -117.95 Q-149.65 -119.45 -151.15 -120.05 L-152.7 -120.55 -152.75 -120.6" fill="url(#gradient4)" fill-rule="evenodd" stroke="none"/>
    <path d="M-107.3 -79.4 Q-112.45 -69.35 -115.4 -55.3 -117.3 -44.7 -124.05 -35.7 -124.5 -46.2 -121.3 -56.75 -124.3 -73.0 -131.05 -84.5 L-128.0 -83.25 Q-117.5 -79.9 -107.3 -79.4" fill="url(#gradient5)" fill-rule="evenodd" stroke="none"/>
    <path d="M-77.3 -84.5 Q-86.6 -73.25 -92.1 -55.55 -91.3 -44.35 -94.55 -34.0 -100.45 -45.25 -99.05 -55.55 -99.4 -69.85 -103.1 -79.35 -91.8 -79.5 -80.95 -83.25 L-77.3 -84.5" fill="url(#gradient6)" fill-rule="evenodd" stroke="none"/>
    <path d="M-113.2 -201.2 Q-113.2 -202.9 -112.05 -204.1 -110.85 -205.25 -109.15 -205.25 -107.45 -205.25 -106.3 -204.1 -105.1 -202.9 -105.1 -201.2 -105.1 -200.3 -105.4 -199.55 L-106.3 -198.35 Q-107.35 -197.25 -108.8 -197.15 L-109.15 -197.15 Q-110.85 -197.15 -112.05 -198.35 -113.2 -199.5 -113.2 -201.2 M-111.75 -202.55 Q-112.6 -201.7 -111.45 -201.15 L-110.95 -201.25 Q-109.85 -202.25 -111.25 -202.8 L-111.75 -202.55 M-96.5 -203.7 Q-95.3 -204.85 -93.6 -204.85 -91.9 -204.85 -90.75 -203.7 -89.55 -202.5 -89.55 -200.8 -89.55 -199.9 -89.85 -199.15 L-90.75 -197.95 Q-91.8 -196.85 -93.25 -196.75 L-93.6 -196.75 Q-95.3 -196.75 -96.5 -197.95 -97.65 -199.1 -97.65 -200.8 -97.65 -202.5 -96.5 -203.7 M-95.65 -200.6 Q-94.55 -201.6 -95.95 -202.15 L-96.45 -201.9 Q-97.3 -201.05 -96.15 -200.5 -95.85 -200.4 -95.65 -200.6" fill="#884400" fill-rule="evenodd" stroke="none"/>
    <path d="M-152.75 -120.55 L-152.75 -120.6" fill="none" stroke="#3366cc" stroke-linecap="round" stroke-linejoin="round" stroke-width="0.05"/>
    <path d="M-84.4 -201.9 Q-85.6 -207.3 -86.15 -215.3 -88.15 -228.3 -98.0 -230.65 L-98.7 -231.75 Q-99.5 -232.55 -100.65 -232.55 -101.8 -232.55 -102.6 -231.75 -103.1 -231.25 -103.25 -230.6 -114.0 -227.35 -115.85 -215.05 -116.8 -207.3 -119.1 -202.15 -121.15 -196.25 -112.3 -192.85 -100.2 -189.95 -88.15 -193.9 -82.8 -197.05 -84.4 -201.9 -80.95 -200.95 -78.45 -193.25 -77.35 -184.45 -72.3 -174.65 -58.25 -154.3 -50.75 -125.85 L-51.75 -125.15 Q-48.9 -122.15 -45.25 -120.05 -43.2 -118.35 -45.85 -117.4 L-47.5 -116.9 Q-49.15 -116.25 -49.45 -114.8 L-49.85 -112.35 Q-50.25 -110.1 -51.5 -111.3 L-53.3 -113.35 Q-54.15 -114.3 -55.4 -114.1 -57.1 -92.5 -77.3 -84.5 -86.6 -73.25 -92.1 -55.55 -91.3 -44.35 -94.55 -34.0 -100.45 -45.25 -99.05 -55.55 -99.4 -69.85 -103.1 -79.35 L-107.3 -79.4 Q-112.45 -69.35 -115.4 -55.3 -117.3 -44.7 -124.05 -35.7 -124.5 -46.2 -121.3 -56.75 -124.3 -73.0 -131.05 -84.5 -150.5 -93.65 -152.75 -120.55 M-152.75 -120.6 Q-155.3 -121.6 -153.25 -123.1 L-153.0 -123.25 -152.95 -123.3 -153.0 -124.65 Q-151.8 -145.45 -138.65 -166.25 -131.4 -176.55 -127.0 -187.8 -124.05 -200.45 -119.1 -202.15 M-112.8 -204.8 Q-111.4 -206.2 -109.4 -206.2 -108.1 -206.2 -107.0 -205.55 L-106.0 -204.8 Q-104.55 -203.35 -104.55 -201.35 -104.55 -199.35 -106.0 -197.95 L-106.2 -197.75 -106.25 -197.8 -107.1 -197.1 Q-108.15 -196.45 -109.5 -196.45 -111.4 -196.45 -112.75 -197.8 L-113.7 -199.2 Q-114.2 -200.2 -114.2 -201.35 -114.2 -203.35 -112.8 -204.8 M-92.65 -205.35 Q-91.2 -205.15 -90.05 -204.0 -88.65 -202.6 -88.6 -200.6 -88.65 -198.6 -90.05 -197.2 -91.45 -195.75 -93.45 -195.75 -95.45 -195.75 -96.9 -197.2 -98.3 -198.6 -98.3 -200.6 -98.3 -201.95 -97.65 -203.0 L-96.85 -204.1 Q-95.5 -205.45 -93.6 -205.45 L-92.65 -205.35 M-51.75 -125.15 L-52.3 -125.7 -56.8 -123.75 -57.2 -121.4 Q-57.85 -118.45 -59.3 -115.3 L-59.4 -115.05 Q-60.05 -112.6 -57.4 -113.45 L-55.85 -114.0 -55.4 -114.1 M-57.2 -121.4 L-58.05 -120.8 -60.15 -126.1 Q-73.0 -138.8 -78.25 -154.1 M-140.8 -124.6 L-140.65 -124.65 -140.8 -124.75 -140.8 -124.6 Q-140.3 -121.35 -139.05 -118.25 -138.5 -115.6 -141.15 -116.5 L-142.8 -117.15 Q-144.5 -117.65 -145.65 -116.7 L-147.45 -115.05 Q-149.15 -113.5 -149.4 -115.25 L-149.5 -117.95 Q-149.65 -119.45 -151.15 -120.05 L-152.7 -120.55 -152.75 -120.55 M-140.8 -124.75 L-141.05 -127.05 -145.85 -128.35 -146.45 -127.75 -146.5 -127.7 Q-149.15 -125.2 -152.95 -123.3 M-146.45 -127.75 L-146.6 -127.85 -146.5 -127.7 M-152.75 -120.6 L-152.7 -120.55 M-140.65 -124.65 Q-127.9 -138.45 -119.6 -154.1 M-146.6 -127.85 Q-144.6 -145.3 -138.15 -161.8 M-107.3 -79.4 Q-117.5 -79.9 -128.0 -83.25 L-131.05 -84.5 M-77.3 -84.5 L-80.95 -83.25 Q-91.8 -79.5 -103.1 -79.35" fill="none" stroke="#bfbf00" stroke-linecap="round" stroke-linejoin="round" stroke-width="0.05"/>
  </g>
  <defs>
    <radialGradient cx="0" cy="0" gradientTransform="matrix(0.0883, 0.0, 0.0, 0.0883, -100.1, -132.55)" gradientUnits="userSpaceOnUse" id="gradient0" r="819.2" spreadMethod="pad">
      <stop offset="0.3843137254901961" stop-color="#33ccff"/>
      <stop offset="1.0" stop-color="#3399ff"/>
    </radialGradient>
    <radialGradient cx="0" cy="0" gradientTransform="matrix(0.0883, 0.0, 0.0, 0.0883, -100.1, -132.55)" gradientUnits="userSpaceOnUse" id="gradient1" r="819.2" spreadMethod="pad">
      <stop offset="0.0" stop-color="#ffcc33"/>
      <stop offset="0.5294117647058824" stop-color="#ffff00"/>
      <stop offset="1.0" stop-color="#ffff66"/>
    </radialGradient>
    <radialGradient cx="0" cy="0" gradientTransform="matrix(0.0352, 0.0, 0.0, 0.0352, -98.65, -217.7)" gradientUnits="userSpaceOnUse" id="gradient2" r="819.2" spreadMethod="pad">
      <stop offset="0.0" stop-color="#ffcc33"/>
      <stop offset="0.5294117647058824" stop-color="#ffff00"/>
      <stop offset="1.0" stop-color="#ffff66"/>
    </radialGradient>
    <radialGradient cx="0" cy="0" gradientTransform="matrix(0.0145, -0.0063, 0.0063, 0.0145, -48.8, -121.0)" gradientUnits="userSpaceOnUse" id="gradient3" r="819.2" spreadMethod="pad">
      <stop offset="0.0" stop-color="#ffcc33"/>
      <stop offset="0.5294117647058824" stop-color="#ffff00"/>
      <stop offset="1.0" stop-color="#ffff66"/>
    </radialGradient>
    <radialGradient cx="0" cy="0" gradientTransform="matrix(0.0153, 0.0041, -0.0041, 0.0153, -141.25, -121.15)" gradientUnits="userSpaceOnUse" id="gradient4" r="819.2" spreadMethod="pad">
      <stop offset="0.0" stop-color="#ffcc33"/>
      <stop offset="0.5294117647058824" stop-color="#ffff00"/>
      <stop offset="1.0" stop-color="#ffff66"/>
    </radialGradient>
    <radialGradient cx="0" cy="0" gradientTransform="matrix(0.0484, 0.0, 0.0, 0.0484, -114.9, -74.3)" gradientUnits="userSpaceOnUse" id="gradient5" r="819.2" spreadMethod="pad">
      <stop offset="0.0" stop-color="#ffcc33"/>
      <stop offset="0.5294117647058824" stop-color="#ffff00"/>
      <stop offset="1.0" stop-color="#ffff66"/>
    </radialGradient>
    <radialGradient cx="0" cy="0" gradientTransform="matrix(0.0557, 0.0, 0.0, 0.0557, -93.25, -79.05)" gradientUnits="userSpaceOnUse" id="gradient6" r="819.2" spreadMethod="pad">
      <stop offset="0.0" stop-color="#ffcc33"/>
      <stop offset="0.5294117647058824" stop-color="#ffff00"/>
      <stop offset="1.0" stop-color="#ffff66"/>
    </radialGradient>
  </defs>
</svg>
