<?xml version="1.0" encoding="UTF-8" standalone="no"?>
<svg xmlns:xlink="http://www.w3.org/1999/xlink" height="105.9px" width="56.65px" xmlns="http://www.w3.org/2000/svg">
  <g transform="matrix(1.0, 0.0, 0.0, 1.0, 28.3, 52.95)">
    <path d="M28.35 -52.9 Q8.25 -40.05 1.25 -0.2 -1.15 -2.05 -5.3 -2.8 -7.7 -2.6 -10.05 -1.35 -16.3 1.95 -15.2 8.8 -13.6 18.65 -3.45 17.4 L-1.05 16.85 Q-2.65 33.15 -2.55 52.95 -7.75 49.5 -12.4 44.6 -28.3 27.85 -28.3 4.2 -28.3 -19.45 -12.4 -36.2 -6.75 -42.1 -0.3 -45.95 11.5 -52.95 26.05 -52.95 L28.35 -52.9" fill="url(#gradient0)" fill-rule="evenodd" stroke="none"/>
  </g>
  <defs>
    <radialGradient cx="0" cy="0" gradientTransform="matrix(0.0573, 0.0, 0.0, 0.0573, -21.1, -3.3)" gradientUnits="userSpaceOnUse" id="gradient0" r="819.2" spreadMethod="pad">
      <stop offset="0.0" stop-color="#ff0000"/>
      <stop offset="1.0" stop-color="#ff9900" stop-opacity="0.0"/>
    </radialGradient>
  </defs>
</svg>
