<?xml version="1.0" encoding="UTF-8" standalone="no"?>
<svg xmlns:xlink="http://www.w3.org/1999/xlink" height="193.05px" width="109.55px" xmlns="http://www.w3.org/2000/svg">
  <g transform="matrix(1.0, 0.0, 0.0, 1.0, 153.8, 199.75)">
    <path d="M-91.15 -178.25 Q-92.1 -177.25 -92.1 -175.8 -92.1 -174.4 -91.15 -173.4 -90.15 -172.4 -88.7 -172.4 -87.25 -172.4 -86.3 -173.4 -85.3 -174.4 -85.3 -175.8 -85.3 -177.25 -86.3 -178.25 -87.25 -179.2 -88.7 -179.2 -90.15 -179.2 -91.15 -178.25 M-86.55 -179.85 Q-84.25 -178.1 -84.05 -175.1 -83.95 -173.2 -86.05 -171.95 -90.0 -171.2 -92.6 -172.3 -94.45 -173.55 -93.75 -175.8 -92.75 -178.85 -90.65 -179.85 -88.6 -181.0 -86.55 -179.85 M-90.1 -177.4 L-89.95 -177.4 Q-89.0 -177.2 -89.4 -176.35 -89.55 -176.0 -89.95 -176.05 -90.3 -176.1 -90.45 -176.25 -90.75 -176.4 -90.65 -176.85 L-90.5 -177.1 -90.1 -177.4 M-104.55 -179.85 Q-102.5 -178.85 -101.45 -175.85 -100.8 -173.55 -102.6 -172.35 -104.85 -171.4 -108.05 -171.75 L-109.05 -171.9 -109.1 -171.9 -109.2 -171.95 Q-111.3 -173.2 -111.15 -175.1 -111.0 -178.1 -108.7 -179.85 L-106.15 -180.4 -104.55 -179.85 M-108.3 -177.6 L-108.2 -177.6 -108.15 -177.6 Q-107.2 -177.4 -107.6 -176.55 L-108.15 -176.25 Q-109.0 -176.35 -108.8 -177.15 L-108.5 -177.5 -108.35 -177.55 -108.3 -177.6 M-109.9 -175.85 Q-109.9 -174.4 -108.9 -173.45 -107.9 -172.45 -106.45 -172.4 -105.05 -172.45 -104.05 -173.45 -103.05 -174.4 -103.05 -175.85 -103.05 -177.3 -104.05 -178.3 -105.05 -179.25 -106.45 -179.25 -107.9 -179.25 -108.9 -178.3 -109.9 -177.3 -109.9 -175.85" fill="#ffffff" fill-rule="evenodd" stroke="none"/>
    <path d="M-145.3 -109.8 L-145.25 -109.95 -145.1 -109.75 -145.3 -109.8 M-57.7 -117.25 L-57.85 -117.35 -57.75 -117.45 -57.7 -117.25 M-139.95 -118.45 L-139.75 -118.8 -139.65 -118.65 -139.95 -118.45" fill="url(#gradient0)" fill-rule="evenodd" stroke="none"/>
    <path d="M-80.8 -168.9 Q-79.5 -168.15 -78.2 -166.2 -74.6 -159.5 -74.0 -152.7 -73.6 -150.7 -71.75 -148.6 -60.0 -135.45 -53.35 -121.25 L-54.05 -120.85 -54.25 -120.95 -55.25 -119.95 -55.8 -119.4 -57.75 -117.45 -57.85 -117.35 -57.7 -117.25 Q-56.7 -113.4 -56.95 -108.7 L-56.95 -108.4 Q-56.65 -105.9 -54.5 -107.65 L-53.25 -108.7 -52.85 -109.0 Q-49.7 -96.3 -54.45 -83.4 -57.2 -77.1 -61.25 -72.7 L-70.95 -63.45 Q-87.2 -47.8 -93.2 -20.3 -88.6 -13.75 -86.55 -6.7 -93.7 -12.15 -98.85 -20.15 -99.55 -29.4 -102.55 -38.7 -105.45 -29.95 -105.8 -20.6 -112.15 -13.0 -120.9 -7.6 -117.75 -15.0 -112.15 -21.15 -116.15 -43.3 -128.25 -60.7 -132.55 -67.7 -138.15 -73.8 -142.05 -78.35 -144.55 -84.8 -148.7 -97.55 -145.3 -109.8 L-145.1 -109.75 Q-143.25 -107.65 -142.45 -110.2 -141.8 -114.55 -139.95 -118.45 L-139.65 -118.65 -139.75 -118.8 -143.25 -122.3 -143.45 -122.25 -144.15 -122.65 Q-136.9 -136.6 -124.65 -149.25 -122.7 -151.25 -122.25 -153.25 -121.35 -160.25 -117.25 -166.95 L-116.1 -168.8 -116.0 -168.95 Q-115.4 -169.85 -114.45 -170.05 -113.1 -170.45 -111.05 -169.3 -105.95 -166.7 -97.1 -166.25 -89.4 -166.5 -84.3 -169.0 L-84.2 -169.05 -80.8 -168.9 M-78.9 -136.2 Q-68.65 -125.15 -57.85 -117.35 -68.65 -125.15 -78.9 -136.2 M-118.0 -136.55 Q-128.65 -125.95 -139.65 -118.65 -128.65 -125.95 -118.0 -136.55" fill="url(#gradient1)" fill-rule="evenodd" stroke="none"/>
    <path d="M-114.45 -170.05 Q-114.7 -173.05 -113.95 -175.65 -113.5 -177.15 -114.2 -178.5 L-114.75 -179.3 Q-115.1 -179.9 -114.8 -180.3 L-113.6 -181.35 Q-112.05 -183.4 -111.55 -186.95 -110.9 -190.8 -109.15 -193.4 L-109.05 -193.8 -108.7 -194.65 -108.0 -195.0 Q-107.8 -195.05 -107.55 -195.2 -106.05 -196.65 -104.0 -197.45 L-103.7 -197.55 -103.65 -197.55 -103.4 -197.75 -103.35 -197.8 -103.2 -198.05 -102.3 -198.4 -102.05 -198.35 -101.8 -198.3 -101.8 -198.25 -101.45 -198.25 -101.4 -198.25 -100.6 -198.4 -100.5 -198.45 Q-99.1 -198.8 -98.0 -199.5 L-96.8 -199.55 Q-96.0 -198.85 -95.15 -198.7 L-94.2 -198.55 -94.1 -198.55 -93.75 -198.6 -93.7 -198.6 -93.25 -198.75 Q-92.85 -198.75 -92.6 -198.45 L-92.45 -198.3 -91.9 -197.9 -90.95 -197.45 Q-88.65 -196.4 -87.05 -194.9 L-87.05 -194.85 -86.65 -194.7 Q-86.3 -194.7 -86.0 -194.4 L-85.75 -193.7 -85.65 -193.2 -85.5 -193.05 Q-84.05 -190.8 -83.75 -187.75 -83.25 -183.35 -81.2 -181.05 L-80.35 -180.2 Q-79.8 -179.6 -80.25 -178.7 L-80.6 -178.15 Q-81.1 -177.25 -80.9 -176.1 L-80.7 -174.1 Q-80.4 -171.6 -80.8 -168.9 L-84.2 -169.05 -84.3 -169.0 Q-89.4 -166.5 -97.1 -166.25 -105.95 -166.7 -111.05 -169.3 -113.1 -170.45 -114.45 -170.05 M-86.55 -179.85 Q-88.6 -181.0 -90.65 -179.85 -92.75 -178.85 -93.75 -175.8 -94.45 -173.55 -92.6 -172.3 -90.0 -171.2 -86.05 -171.95 -83.95 -173.2 -84.05 -175.1 -84.25 -178.1 -86.55 -179.85 M-104.55 -179.85 L-106.15 -180.4 -108.7 -179.85 Q-111.0 -178.1 -111.15 -175.1 -111.3 -173.2 -109.2 -171.95 L-109.1 -171.9 -109.05 -171.9 -108.05 -171.75 Q-104.85 -171.4 -102.6 -172.35 -100.8 -173.55 -101.45 -175.85 -102.5 -178.85 -104.55 -179.85" fill="url(#gradient2)" fill-rule="evenodd" stroke="none"/>
    <path d="M-54.05 -120.85 Q-50.05 -118.95 -45.65 -118.3 -43.1 -117.5 -45.2 -115.6 L-46.55 -114.5 Q-47.85 -113.3 -47.6 -111.85 L-47.05 -109.4 Q-46.6 -107.2 -48.25 -107.8 L-50.65 -109.1 -52.85 -109.0 -53.25 -108.7 -54.5 -107.65 Q-56.65 -105.9 -56.95 -108.4 L-56.95 -108.7 Q-56.7 -113.4 -57.7 -117.25 L-57.75 -117.45 -55.8 -119.4 -55.25 -119.95 -54.25 -120.95 -54.05 -120.85" fill="url(#gradient3)" fill-rule="evenodd" stroke="none"/>
    <path d="M-145.25 -109.95 L-146.2 -111.1 Q-147.45 -112.4 -148.9 -112.15 L-151.3 -111.6 Q-153.55 -111.15 -152.9 -112.8 L-151.65 -115.2 Q-151.0 -116.5 -152.0 -117.8 L-153.1 -119.05 Q-154.85 -121.2 -152.3 -121.5 L-152.0 -121.5 Q-147.35 -121.25 -143.45 -122.25 L-143.25 -122.3 -139.75 -118.8 -139.95 -118.45 Q-141.8 -114.55 -142.45 -110.2 -143.25 -107.65 -145.1 -109.75 L-145.25 -109.95" fill="url(#gradient4)" fill-rule="evenodd" stroke="none"/>
    <path d="M-91.15 -178.25 Q-90.15 -179.2 -88.7 -179.2 -87.25 -179.2 -86.3 -178.25 -85.3 -177.25 -85.3 -175.8 -85.3 -174.4 -86.3 -173.4 -87.25 -172.4 -88.7 -172.4 -90.15 -172.4 -91.15 -173.4 -92.1 -174.4 -92.1 -175.8 -92.1 -177.25 -91.15 -178.25 M-90.1 -177.4 L-90.5 -177.1 -90.65 -176.85 Q-90.75 -176.4 -90.45 -176.25 -90.3 -176.1 -89.95 -176.05 -89.55 -176.0 -89.4 -176.35 -89.0 -177.2 -89.95 -177.4 L-90.1 -177.4 M-108.3 -177.6 L-108.35 -177.55 -108.5 -177.5 -108.8 -177.15 Q-109.0 -176.35 -108.15 -176.25 L-107.6 -176.55 Q-107.2 -177.4 -108.15 -177.6 L-108.2 -177.6 -108.3 -177.6 M-109.9 -175.85 Q-109.9 -177.3 -108.9 -178.3 -107.9 -179.25 -106.45 -179.25 -105.05 -179.25 -104.05 -178.3 -103.05 -177.3 -103.05 -175.85 -103.05 -174.4 -104.05 -173.45 -105.05 -172.45 -106.45 -172.4 -107.9 -172.45 -108.9 -173.45 -109.9 -174.4 -109.9 -175.85" fill="#884400" fill-rule="evenodd" stroke="none"/>
    <path d="M-145.3 -109.8 L-145.25 -109.95" fill="none" stroke="#3366cc" stroke-linecap="round" stroke-linejoin="round" stroke-width="0.05"/>
    <path d="M-114.45 -170.05 Q-114.7 -173.05 -113.95 -175.65 -113.5 -177.15 -114.2 -178.5 L-114.75 -179.3 Q-115.1 -179.9 -114.8 -180.3 L-113.6 -181.35 Q-112.05 -183.4 -111.55 -186.95 -110.9 -190.8 -109.15 -193.4 L-109.05 -193.8 -108.7 -194.65 -108.0 -195.0 Q-107.8 -195.05 -107.55 -195.2 -106.05 -196.65 -104.0 -197.45 L-103.7 -197.55 -103.65 -197.55 -103.4 -197.75 -103.35 -197.8 -103.2 -198.05 -102.3 -198.4 -102.05 -198.35 -101.8 -198.3 -101.8 -198.25 -101.45 -198.25 -101.4 -198.25 -100.6 -198.4 -100.5 -198.45 Q-99.1 -198.8 -98.0 -199.5 L-96.8 -199.55 Q-96.0 -198.85 -95.15 -198.7 L-94.2 -198.55 -94.1 -198.55 -93.75 -198.6 -93.7 -198.6 -93.25 -198.75 Q-92.85 -198.75 -92.6 -198.45 L-92.45 -198.3 -91.9 -197.9 -90.95 -197.45 Q-88.65 -196.4 -87.05 -194.9 L-87.05 -194.85 -86.65 -194.7 Q-86.3 -194.7 -86.0 -194.4 L-85.75 -193.7 -85.65 -193.2 -85.5 -193.05 Q-84.05 -190.8 -83.75 -187.75 -83.25 -183.35 -81.2 -181.05 L-80.35 -180.2 Q-79.8 -179.6 -80.25 -178.7 L-80.6 -178.15 Q-81.1 -177.25 -80.9 -176.1 L-80.7 -174.1 Q-80.4 -171.6 -80.8 -168.9 -79.5 -168.15 -78.2 -166.2 -74.6 -159.5 -74.0 -152.7 -73.6 -150.7 -71.75 -148.6 -60.0 -135.45 -53.35 -121.25 L-54.05 -120.85 Q-50.05 -118.95 -45.65 -118.3 -43.1 -117.5 -45.2 -115.6 L-46.55 -114.5 Q-47.85 -113.3 -47.6 -111.85 L-47.05 -109.4 Q-46.6 -107.2 -48.25 -107.8 L-50.65 -109.1 -52.85 -109.0 Q-49.7 -96.3 -54.45 -83.4 -57.2 -77.1 -61.25 -72.7 L-70.95 -63.45 Q-87.2 -47.8 -93.2 -20.3 -88.6 -13.75 -86.55 -6.7 -93.7 -12.15 -98.85 -20.15 -99.55 -29.4 -102.55 -38.7 -105.45 -29.95 -105.8 -20.6 -112.15 -13.0 -120.9 -7.6 -117.75 -15.0 -112.15 -21.15 -116.15 -43.3 -128.25 -60.7 -132.55 -67.7 -138.15 -73.8 -142.05 -78.35 -144.55 -84.8 -148.7 -97.55 -145.3 -109.8 M-145.25 -109.95 L-146.2 -111.1 Q-147.45 -112.4 -148.9 -112.15 L-151.3 -111.6 Q-153.55 -111.15 -152.9 -112.8 L-151.65 -115.2 Q-151.0 -116.5 -152.0 -117.8 L-153.1 -119.05 Q-154.85 -121.2 -152.3 -121.5 L-152.0 -121.5 Q-147.35 -121.25 -143.45 -122.25 L-144.15 -122.65 Q-136.9 -136.6 -124.65 -149.25 -122.7 -151.25 -122.25 -153.25 -121.35 -160.25 -117.25 -166.95 L-116.1 -168.8 -116.0 -168.95 Q-115.4 -169.85 -114.45 -170.05 -113.1 -170.45 -111.05 -169.3 -105.95 -166.7 -97.1 -166.25 -89.4 -166.5 -84.3 -169.0 L-84.2 -169.05 -80.8 -168.9 M-57.7 -117.25 L-57.85 -117.35 Q-68.65 -125.15 -78.9 -136.2 M-57.75 -117.45 L-57.7 -117.25 Q-56.7 -113.4 -56.95 -108.7 L-56.95 -108.4 Q-56.65 -105.9 -54.5 -107.65 L-53.25 -108.7 -52.85 -109.0 M-57.85 -117.35 L-57.75 -117.45 -55.8 -119.4 -55.25 -119.95 -54.25 -120.95 -54.05 -120.85 M-86.55 -179.85 Q-84.25 -178.1 -84.05 -175.1 -83.95 -173.2 -86.05 -171.95 -90.0 -171.2 -92.6 -172.3 -94.45 -173.55 -93.75 -175.8 -92.75 -178.85 -90.65 -179.85 -88.6 -181.0 -86.55 -179.85 M-104.55 -179.85 Q-102.5 -178.85 -101.45 -175.85 -100.8 -173.55 -102.6 -172.35 -104.85 -171.4 -108.05 -171.75 L-109.05 -171.9 -109.1 -171.9 -109.2 -171.95 Q-111.3 -173.2 -111.15 -175.1 -111.0 -178.1 -108.7 -179.85 L-106.15 -180.4 -104.55 -179.85 M-139.75 -118.8 L-143.25 -122.3 -143.45 -122.25 M-145.1 -109.75 L-145.3 -109.8 M-145.1 -109.75 Q-143.25 -107.65 -142.45 -110.2 -141.8 -114.55 -139.95 -118.45 L-139.75 -118.8 -139.65 -118.65 Q-128.65 -125.95 -118.0 -136.55 M-145.25 -109.95 L-145.1 -109.75 M-139.95 -118.45 L-139.65 -118.65" fill="none" stroke="#bfbf00" stroke-linecap="round" stroke-linejoin="round" stroke-width="0.05"/>
  </g>
  <defs>
    <radialGradient cx="0" cy="0" gradientTransform="matrix(0.1254, 0.0, 0.0, 0.1254, -117.4, -74.8)" gradientUnits="userSpaceOnUse" id="gradient0" r="819.2" spreadMethod="pad">
      <stop offset="0.3843137254901961" stop-color="#33ccff"/>
      <stop offset="1.0" stop-color="#3399ff"/>
    </radialGradient>
    <radialGradient cx="0" cy="0" gradientTransform="matrix(0.1943, 0.0, 0.0, 0.1943, -82.55, -161.6)" gradientUnits="userSpaceOnUse" id="gradient1" r="819.2" spreadMethod="pad">
      <stop offset="0.0" stop-color="#ffcc33"/>
      <stop offset="0.5294117647058824" stop-color="#ffff00"/>
      <stop offset="1.0" stop-color="#ffff66"/>
    </radialGradient>
    <radialGradient cx="0" cy="0" gradientTransform="matrix(0.0373, 0.0, 0.0, 0.0394, -103.15, -168.45)" gradientUnits="userSpaceOnUse" id="gradient2" r="819.2" spreadMethod="pad">
      <stop offset="0.0" stop-color="#ffcc33"/>
      <stop offset="0.5294117647058824" stop-color="#ffff00"/>
      <stop offset="1.0" stop-color="#ffff66"/>
    </radialGradient>
    <radialGradient cx="0" cy="0" gradientTransform="matrix(0.0112, -0.0112, 0.0112, 0.0112, -49.25, -117.85)" gradientUnits="userSpaceOnUse" id="gradient3" r="819.2" spreadMethod="pad">
      <stop offset="0.0" stop-color="#ffcc33"/>
      <stop offset="0.5294117647058824" stop-color="#ffff00"/>
      <stop offset="1.0" stop-color="#ffff66"/>
    </radialGradient>
    <radialGradient cx="0" cy="0" gradientTransform="matrix(0.0112, 0.0112, -0.0112, 0.0112, -142.9, -113.8)" gradientUnits="userSpaceOnUse" id="gradient4" r="819.2" spreadMethod="pad">
      <stop offset="0.0" stop-color="#ffcc33"/>
      <stop offset="0.5294117647058824" stop-color="#ffff00"/>
      <stop offset="1.0" stop-color="#ffff66"/>
    </radialGradient>
  </defs>
</svg>
