<?xml version="1.0" encoding="UTF-8" standalone="no"?>
<svg xmlns:xlink="http://www.w3.org/1999/xlink" height="174.15px" width="103.45px" xmlns="http://www.w3.org/2000/svg">
  <g transform="matrix(1.0, 0.0, 0.0, 1.0, 147.8, 186.65)">
    <path d="M-111.4 -163.15 L-111.55 -163.25 -111.4 -163.15" fill="url(#gradient0)" fill-rule="evenodd" stroke="none"/>
    <path d="M-108.7 -164.05 L-108.65 -164.05 Q-107.7 -163.85 -108.1 -163.0 -108.3 -162.65 -108.65 -162.7 -109.5 -162.8 -109.3 -163.6 L-109.0 -163.95 -108.85 -164.0 -108.8 -164.05 -108.7 -164.05 M-104.15 -160.35 Q-103.55 -161.2 -103.55 -162.3 -103.55 -163.75 -104.55 -164.75 -105.55 -165.7 -106.95 -165.7 -108.4 -165.7 -109.4 -164.75 -110.35 -163.8 -110.4 -162.5 L-111.4 -163.15 Q-110.85 -165.05 -109.2 -166.3 L-106.65 -166.85 Q-105.85 -166.75 -105.05 -166.3 -103.0 -165.3 -101.95 -162.3 -101.6 -160.95 -102.0 -160.0 L-104.15 -160.35 M-85.85 -161.5 L-85.8 -162.25 Q-85.8 -163.7 -86.8 -164.7 -87.75 -165.65 -89.2 -165.65 -90.65 -165.65 -91.65 -164.7 -92.6 -163.7 -92.6 -162.25 -92.6 -160.95 -91.8 -160.05 L-94.05 -159.7 Q-94.7 -160.75 -94.25 -162.25 -93.25 -165.3 -91.15 -166.3 -89.1 -167.45 -87.05 -166.3 -84.9 -164.7 -84.6 -161.95 L-85.85 -161.5 M-90.6 -163.85 L-90.45 -163.85 Q-89.5 -163.65 -89.9 -162.8 L-90.45 -162.5 Q-90.8 -162.55 -90.95 -162.7 -91.25 -162.85 -91.15 -163.3 L-91.0 -163.55 -90.6 -163.85" fill="#ffffff" fill-rule="evenodd" stroke="none"/>
    <path d="M-58.3 -170.6 L-58.35 -170.3 -55.9 -168.85 Q-54.5 -167.95 -52.6 -167.0 L-57.85 -134.65 Q-60.0 -120.45 -58.8 -117.3 L-58.55 -116.6 Q-52.75 -101.95 -52.65 -85.65 -53.9 -61.0 -69.45 -51.2 L-69.65 -51.05 Q-79.9 -43.2 -81.1 -23.95 -76.25 -19.35 -75.25 -12.5 -81.3 -16.25 -85.7 -23.2 -92.5 -39.35 -97.7 -44.5 -101.55 -46.65 -105.85 -42.85 -111.3 -37.95 -114.65 -27.0 -117.7 -18.75 -124.35 -13.75 -124.35 -20.7 -120.1 -27.1 -122.0 -43.95 -130.3 -52.55 -145.3 -63.1 -145.25 -87.85 -144.35 -104.1 -137.75 -118.45 L-137.45 -119.1 Q-136.1 -122.2 -136.9 -125.4 -143.75 -149.55 -144.6 -173.95 L-143.65 -173.5 -143.2 -172.3 -138.25 -172.3 -137.7 -173.2 Q-136.85 -173.5 -135.95 -173.95 -135.95 -166.25 -120.6 -156.35 -119.35 -160.0 -117.1 -163.2 -115.85 -164.5 -114.55 -164.6 -113.55 -164.7 -112.55 -164.05 L-111.55 -163.25 -111.4 -163.15 -110.4 -162.5 Q-107.9 -161.1 -104.15 -160.35 L-102.0 -160.0 -95.05 -159.6 -94.05 -159.7 -91.8 -160.05 Q-88.45 -160.6 -85.85 -161.5 L-84.6 -161.95 Q-82.8 -162.7 -81.5 -163.65 L-81.45 -163.7 -81.1 -163.9 Q-79.0 -165.4 -77.4 -163.35 L-76.85 -162.55 Q-74.75 -159.15 -73.65 -155.4 -60.75 -164.45 -59.35 -171.65 L-58.3 -170.6 M-73.25 -150.75 Q-73.2 -153.15 -73.65 -155.4 -73.2 -153.15 -73.25 -150.75 M-121.25 -151.75 Q-121.2 -154.15 -120.6 -156.35 -121.2 -154.15 -121.25 -151.75" fill="url(#gradient1)" fill-rule="evenodd" stroke="none"/>
    <path d="M-114.55 -164.6 L-114.7 -164.95 -115.25 -165.75 Q-115.6 -166.35 -115.3 -166.75 L-114.1 -167.8 Q-112.55 -169.85 -112.05 -173.4 -111.4 -177.25 -109.65 -179.85 L-109.55 -180.25 Q-109.55 -180.75 -109.2 -181.1 L-108.5 -181.45 -108.05 -181.65 Q-106.55 -183.1 -104.5 -183.9 L-104.2 -184.0 -104.15 -184.0 -103.9 -184.2 -103.85 -184.25 -103.7 -184.5 -102.8 -184.85 -102.55 -184.8 -102.3 -184.75 -102.3 -184.7 -101.95 -184.7 -101.9 -184.7 -101.1 -184.85 -101.0 -184.9 Q-99.6 -185.25 -98.5 -185.95 L-97.3 -186.0 Q-96.5 -185.3 -95.65 -185.15 L-94.7 -185.0 -94.6 -185.0 -94.25 -185.05 -94.2 -185.05 -93.75 -185.2 -93.1 -184.9 -92.95 -184.75 -92.4 -184.35 -91.45 -183.9 Q-89.15 -182.85 -87.55 -181.35 L-87.55 -181.3 -87.15 -181.15 -86.5 -180.85 -86.25 -180.15 -86.15 -179.65 -86.0 -179.5 Q-84.55 -177.25 -84.25 -174.2 -83.75 -169.8 -81.7 -167.5 L-80.85 -166.65 Q-80.3 -166.05 -80.75 -165.15 L-81.1 -164.6 -81.45 -163.7 -81.5 -163.65 Q-82.8 -162.7 -84.6 -161.95 -84.9 -164.7 -87.05 -166.3 -89.1 -167.45 -91.15 -166.3 -93.25 -165.3 -94.25 -162.25 -94.7 -160.75 -94.05 -159.7 L-95.05 -159.6 -102.0 -160.0 Q-101.6 -160.95 -101.95 -162.3 -103.0 -165.3 -105.05 -166.3 -105.85 -166.75 -106.65 -166.85 L-109.2 -166.3 Q-110.85 -165.05 -111.4 -163.15 L-111.55 -163.25 -112.55 -164.05 Q-113.55 -164.7 -114.55 -164.6" fill="url(#gradient2)" fill-rule="evenodd" stroke="none"/>
    <path d="M-58.3 -170.6 Q-57.5 -174.95 -58.0 -179.3 -57.9 -182.0 -55.55 -180.45 L-54.1 -179.4 Q-52.6 -178.5 -51.25 -179.1 L-49.05 -180.25 Q-47.05 -181.3 -47.2 -179.55 L-47.85 -176.9 Q-48.1 -175.45 -46.8 -174.45 L-45.45 -173.55 Q-43.2 -171.95 -45.55 -170.95 L-45.8 -170.85 Q-50.55 -169.9 -54.05 -167.8 L-55.9 -168.85 -58.35 -170.3 -58.3 -170.6" fill="url(#gradient3)" fill-rule="evenodd" stroke="none"/>
    <path d="M-143.65 -173.5 Q-145.1 -177.15 -147.4 -180.3 -148.65 -182.7 -145.85 -182.5 L-144.1 -182.35 Q-142.35 -182.3 -141.45 -183.5 L-140.15 -185.6 Q-138.9 -187.5 -138.2 -185.9 L-137.4 -183.3 Q-136.9 -181.9 -135.25 -181.7 L-133.65 -181.6 Q-130.9 -181.35 -132.45 -179.3 L-132.65 -179.1 Q-135.8 -176.3 -137.7 -173.2 L-138.25 -172.3 -143.2 -172.3 -143.65 -173.5" fill="url(#gradient4)" fill-rule="evenodd" stroke="none"/>
    <path d="M-108.7 -164.05 L-108.8 -164.05 -108.85 -164.0 -109.0 -163.95 -109.3 -163.6 Q-109.5 -162.8 -108.65 -162.7 -108.3 -162.65 -108.1 -163.0 -107.7 -163.85 -108.65 -164.05 L-108.7 -164.05 M-110.4 -162.5 Q-110.35 -163.8 -109.4 -164.75 -108.4 -165.7 -106.95 -165.7 -105.55 -165.7 -104.55 -164.75 -103.55 -163.75 -103.55 -162.3 -103.55 -161.2 -104.15 -160.35 -107.9 -161.1 -110.4 -162.5 M-91.8 -160.05 Q-92.6 -160.95 -92.6 -162.25 -92.6 -163.7 -91.65 -164.7 -90.65 -165.65 -89.2 -165.65 -87.75 -165.65 -86.8 -164.7 -85.8 -163.7 -85.8 -162.25 L-85.85 -161.5 Q-88.45 -160.6 -91.8 -160.05 M-90.6 -163.85 L-91.0 -163.55 -91.15 -163.3 Q-91.25 -162.85 -90.95 -162.7 -90.8 -162.55 -90.45 -162.5 L-89.9 -162.8 Q-89.5 -163.65 -90.45 -163.85 L-90.6 -163.85" fill="#884400" fill-rule="evenodd" stroke="none"/>
    <path d="M-55.9 -168.85 L-54.05 -167.8 Q-50.55 -169.9 -45.8 -170.85 L-45.55 -170.95 Q-43.2 -171.95 -45.45 -173.55 L-46.8 -174.45 Q-48.1 -175.45 -47.85 -176.9 L-47.2 -179.55 Q-47.05 -181.3 -49.05 -180.25 L-51.25 -179.1 Q-52.6 -178.5 -54.1 -179.4 L-55.55 -180.45 Q-57.9 -182.0 -58.0 -179.3 -57.5 -174.95 -58.3 -170.6 L-58.35 -170.3 -55.9 -168.85 Q-54.5 -167.95 -52.6 -167.0 L-57.85 -134.65 Q-60.0 -120.45 -58.8 -117.3 L-58.55 -116.6 Q-52.75 -101.95 -52.65 -85.65 -53.9 -61.0 -69.45 -51.2 L-69.65 -51.05 Q-79.9 -43.2 -81.1 -23.95 -76.25 -19.35 -75.25 -12.5 -81.3 -16.25 -85.7 -23.2 -92.5 -39.35 -97.7 -44.5 -101.55 -46.65 -105.85 -42.85 -111.3 -37.95 -114.65 -27.0 -117.7 -18.75 -124.35 -13.75 -124.35 -20.7 -120.1 -27.1 -122.0 -43.95 -130.3 -52.55 -145.3 -63.1 -145.25 -87.85 -144.35 -104.1 -137.75 -118.45 L-137.45 -119.1 Q-136.1 -122.2 -136.9 -125.4 -143.75 -149.55 -144.6 -173.95 L-143.65 -173.5 Q-145.1 -177.15 -147.4 -180.3 -148.65 -182.7 -145.85 -182.5 L-144.1 -182.35 Q-142.35 -182.3 -141.45 -183.5 L-140.15 -185.6 Q-138.9 -187.5 -138.2 -185.9 L-137.4 -183.3 Q-136.9 -181.9 -135.25 -181.7 L-133.65 -181.6 Q-130.9 -181.35 -132.45 -179.3 L-132.65 -179.1 Q-135.8 -176.3 -137.7 -173.2 -136.85 -173.5 -135.95 -173.95 -135.95 -166.25 -120.6 -156.35 -119.35 -160.0 -117.1 -163.2 -115.85 -164.5 -114.55 -164.6 L-114.7 -164.95 -115.25 -165.75 Q-115.6 -166.35 -115.3 -166.75 L-114.1 -167.8 Q-112.55 -169.85 -112.05 -173.4 -111.4 -177.25 -109.65 -179.85 L-109.55 -180.25 Q-109.55 -180.75 -109.2 -181.1 L-108.5 -181.45 -108.05 -181.65 Q-106.55 -183.1 -104.5 -183.9 L-104.2 -184.0 -104.15 -184.0 -103.9 -184.2 -103.85 -184.25 -103.7 -184.5 -102.8 -184.85 -102.55 -184.8 -102.3 -184.75 -102.3 -184.7 -101.95 -184.7 -101.9 -184.7 -101.1 -184.85 -101.0 -184.9 Q-99.6 -185.25 -98.5 -185.95 L-97.3 -186.0 Q-96.5 -185.3 -95.65 -185.15 L-94.7 -185.0 -94.6 -185.0 -94.25 -185.05 -94.2 -185.05 -93.75 -185.2 -93.1 -184.9 -92.95 -184.75 -92.4 -184.35 -91.45 -183.9 Q-89.15 -182.85 -87.55 -181.35 L-87.55 -181.3 -87.15 -181.15 -86.5 -180.85 -86.25 -180.15 -86.15 -179.65 -86.0 -179.5 Q-84.55 -177.25 -84.25 -174.2 -83.75 -169.8 -81.7 -167.5 L-80.85 -166.65 Q-80.3 -166.05 -80.75 -165.15 L-81.1 -164.6 -81.45 -163.7 -81.1 -163.9 Q-79.0 -165.4 -77.4 -163.35 L-76.85 -162.55 Q-74.75 -159.15 -73.65 -155.4 -60.75 -164.45 -59.35 -171.65 L-58.3 -170.6 M-73.65 -155.4 Q-73.2 -153.15 -73.25 -150.75 M-104.15 -160.35 L-102.0 -160.0 Q-101.6 -160.95 -101.95 -162.3 -103.0 -165.3 -105.05 -166.3 -105.85 -166.75 -106.65 -166.85 L-109.2 -166.3 Q-110.85 -165.05 -111.4 -163.15 L-110.4 -162.5 Q-107.9 -161.1 -104.15 -160.35 M-111.4 -163.15 L-111.55 -163.25 -112.55 -164.05 Q-113.55 -164.7 -114.55 -164.6 M-111.55 -163.25 L-111.4 -163.15 M-120.6 -156.35 Q-121.2 -154.15 -121.25 -151.75 M-85.85 -161.5 L-84.6 -161.95 Q-84.9 -164.7 -87.05 -166.3 -89.1 -167.45 -91.15 -166.3 -93.25 -165.3 -94.25 -162.25 -94.7 -160.75 -94.05 -159.7 L-91.8 -160.05 Q-88.45 -160.6 -85.85 -161.5 M-84.6 -161.95 Q-82.8 -162.7 -81.5 -163.65 L-81.45 -163.7 M-102.0 -160.0 L-95.05 -159.6 -94.05 -159.7 M-143.65 -173.5 L-143.2 -172.3 -138.25 -172.3 -137.7 -173.2" fill="none" stroke="#bfbf00" stroke-linecap="round" stroke-linejoin="round" stroke-width="0.05"/>
  </g>
  <defs>
    <radialGradient cx="0" cy="0" gradientTransform="matrix(0.0373, 0.0, 0.0, 0.0394, -103.65, -154.9)" gradientUnits="userSpaceOnUse" id="gradient0" r="819.2" spreadMethod="pad">
      <stop offset="0.3843137254901961" stop-color="#33ccff"/>
      <stop offset="1.0" stop-color="#3399ff"/>
    </radialGradient>
    <radialGradient cx="0" cy="0" gradientTransform="matrix(0.1102, 0.0, 0.0, 0.1102, -96.8, -99.7)" gradientUnits="userSpaceOnUse" id="gradient1" r="819.2" spreadMethod="pad">
      <stop offset="0.0" stop-color="#ffcc33"/>
      <stop offset="0.5294117647058824" stop-color="#ffff00"/>
      <stop offset="1.0" stop-color="#ffff66"/>
    </radialGradient>
    <radialGradient cx="0" cy="0" gradientTransform="matrix(0.0373, 0.0, 0.0, 0.0394, -103.65, -154.9)" gradientUnits="userSpaceOnUse" id="gradient2" r="819.2" spreadMethod="pad">
      <stop offset="0.0" stop-color="#ffcc33"/>
      <stop offset="0.5294117647058824" stop-color="#ffff00"/>
      <stop offset="1.0" stop-color="#ffff66"/>
    </radialGradient>
    <radialGradient cx="0" cy="0" gradientTransform="matrix(-0.0137, -0.0079, 0.0079, -0.0137, -56.65, -175.95)" gradientUnits="userSpaceOnUse" id="gradient3" r="819.2" spreadMethod="pad">
      <stop offset="0.0" stop-color="#ffcc33"/>
      <stop offset="0.5294117647058824" stop-color="#ffff00"/>
      <stop offset="1.0" stop-color="#ffff66"/>
    </radialGradient>
    <radialGradient cx="0" cy="0" gradientTransform="matrix(-0.0158, 0.0, 0.0, -0.0158, -144.55, -178.1)" gradientUnits="userSpaceOnUse" id="gradient4" r="819.2" spreadMethod="pad">
      <stop offset="0.0" stop-color="#ffcc33"/>
      <stop offset="0.5294117647058824" stop-color="#ffff00"/>
      <stop offset="1.0" stop-color="#ffff66"/>
    </radialGradient>
  </defs>
</svg>
