<?xml version="1.0" encoding="UTF-8" standalone="no"?>
<svg xmlns:xlink="http://www.w3.org/1999/xlink" height="171.75px" width="108.35px" xmlns="http://www.w3.org/2000/svg">
  <g transform="matrix(1.0, 0.0, 0.0, 1.0, 150.85, 184.6)">
    <path d="M-55.6 -168.25 L-55.6 -168.1 -50.85 -166.85 -50.65 -167.0 -48.85 -166.05 Q-50.95 -148.0 -57.25 -132.1 L-58.7 -128.5 Q-59.8 -124.25 -58.05 -119.15 L-57.8 -118.45 Q-52.75 -104.6 -51.35 -85.55 -51.55 -69.05 -66.7 -54.6 L-69.5 -52.8 Q-82.95 -44.55 -95.7 -43.55 -98.95 -43.3 -102.1 -43.5 -115.25 -44.35 -127.55 -53.1 L-130.35 -55.25 Q-145.05 -70.15 -144.75 -86.65 -145.5 -106.0 -139.05 -120.75 L-138.3 -122.4 Q-137.05 -126.15 -138.45 -132.45 -143.55 -149.2 -146.9 -171.05 L-144.95 -170.45 -144.5 -169.7 -142.0 -170.2 -140.0 -170.6 -139.65 -170.7 -139.6 -170.75 -138.0 -171.6 Q-131.85 -157.05 -119.3 -157.75 -118.05 -161.2 -115.9 -164.35 -114.9 -165.3 -113.45 -165.25 -112.35 -165.2 -110.95 -164.6 L-110.55 -164.4 Q-105.5 -162.1 -97.1 -162.05 -88.55 -163.0 -84.0 -165.2 L-83.85 -165.25 -83.85 -165.3 Q-81.7 -166.3 -79.9 -165.1 -79.0 -164.45 -78.2 -163.25 -75.65 -158.25 -73.8 -152.0 -62.1 -156.35 -57.4 -168.4 L-55.6 -168.25 M-120.45 -153.6 L-119.3 -157.75 -120.45 -153.6" fill="url(#gradient0)" fill-rule="evenodd" stroke="none"/>
    <path d="M-113.45 -165.25 Q-112.85 -166.7 -112.6 -168.6 -111.95 -172.45 -110.2 -175.05 L-110.1 -175.45 -109.75 -176.3 -109.05 -176.65 -108.6 -176.85 Q-107.1 -178.3 -105.05 -179.1 L-104.75 -179.2 -104.7 -179.2 -104.45 -179.4 -104.4 -179.45 -104.25 -179.7 Q-103.9 -180.05 -103.35 -180.05 L-103.1 -180.0 -102.85 -179.95 -102.85 -179.9 -102.5 -179.9 -102.45 -179.9 -101.65 -180.05 -101.55 -180.1 Q-100.15 -180.45 -99.05 -181.15 L-97.85 -181.2 Q-97.05 -180.5 -96.2 -180.35 L-95.25 -180.2 -95.15 -180.2 -94.8 -180.25 -94.75 -180.25 -94.3 -180.4 -93.65 -180.1 -93.5 -179.95 -92.95 -179.55 -92.0 -179.1 Q-89.7 -178.05 -88.1 -176.55 L-88.1 -176.5 -87.7 -176.35 Q-87.35 -176.35 -87.05 -176.05 L-86.8 -175.35 -86.7 -174.85 -86.55 -174.7 Q-85.1 -172.45 -84.8 -169.4 -84.55 -167.05 -83.85 -165.3 L-83.85 -165.25 -84.0 -165.2 Q-88.55 -163.0 -97.1 -162.05 -105.5 -162.1 -110.55 -164.4 L-110.95 -164.6 Q-112.35 -165.2 -113.45 -165.25" fill="url(#gradient1)" fill-rule="evenodd" stroke="none"/>
    <path d="M-55.6 -168.25 Q-55.95 -172.75 -57.6 -176.95 -58.2 -179.6 -55.5 -178.65 L-53.9 -178.05 Q-52.2 -177.55 -51.05 -178.45 L-49.2 -180.15 Q-47.55 -181.7 -47.25 -179.95 L-47.15 -177.2 Q-47.05 -175.75 -45.5 -175.1 L-43.95 -174.6 Q-41.4 -173.65 -43.4 -172.1 L-43.65 -171.95 Q-47.85 -169.85 -50.65 -167.0 L-50.85 -166.85 -55.6 -168.1 -55.6 -168.25" fill="url(#gradient2)" fill-rule="evenodd" stroke="none"/>
    <path d="M-144.95 -170.45 Q-147.15 -173.9 -150.2 -176.65 -151.95 -178.75 -149.1 -179.15 L-147.4 -179.3 Q-145.65 -179.65 -145.05 -181.0 L-144.15 -183.3 Q-143.35 -185.45 -142.3 -184.0 L-141.0 -181.6 Q-140.25 -180.4 -138.6 -180.5 L-137.0 -180.7 Q-134.25 -181.0 -135.35 -178.75 L-135.5 -178.45 Q-138.35 -174.65 -139.6 -170.75 L-139.65 -170.7 -140.0 -170.6 -142.0 -170.2 -144.5 -169.7 -144.95 -170.45" fill="url(#gradient3)" fill-rule="evenodd" stroke="none"/>
    <path d="M-102.1 -43.5 Q-108.25 -37.75 -115.2 -22.3 -119.55 -16.75 -126.75 -12.85 -124.8 -19.55 -119.85 -25.2 -120.55 -44.65 -127.55 -53.1 -115.25 -44.35 -102.1 -43.5" fill="url(#gradient4)" fill-rule="evenodd" stroke="none"/>
    <path d="M-69.5 -52.8 Q-76.3 -45.05 -77.7 -25.0 -73.5 -19.0 -72.55 -13.0 -77.9 -16.15 -82.8 -23.7 -87.7 -36.85 -95.7 -43.55 -82.95 -44.55 -69.5 -52.8" fill="url(#gradient5)" fill-rule="evenodd" stroke="none"/>
    <path d="M-50.65 -167.0 Q-47.85 -169.85 -43.65 -171.95 L-43.4 -172.1 Q-41.4 -173.65 -43.95 -174.6 L-45.5 -175.1 Q-47.05 -175.75 -47.15 -177.2 L-47.25 -179.95 Q-47.55 -181.7 -49.2 -180.15 L-51.05 -178.45 Q-52.2 -177.55 -53.9 -178.05 L-55.5 -178.65 Q-58.2 -179.6 -57.6 -176.95 -55.95 -172.75 -55.6 -168.25 L-55.6 -168.1 -50.85 -166.85 -50.65 -167.0 -48.85 -166.05 Q-50.95 -148.0 -57.25 -132.1 L-58.7 -128.5 Q-59.8 -124.25 -58.05 -119.15 L-57.8 -118.45 Q-52.75 -104.6 -51.35 -85.55 -51.55 -69.05 -66.7 -54.6 L-69.5 -52.8 Q-76.3 -45.05 -77.7 -25.0 -73.5 -19.0 -72.55 -13.0 -77.9 -16.15 -82.8 -23.7 -87.7 -36.85 -95.7 -43.55 -98.95 -43.3 -102.1 -43.5 -108.25 -37.75 -115.2 -22.3 -119.55 -16.75 -126.75 -12.85 -124.8 -19.55 -119.85 -25.2 -120.55 -44.65 -127.55 -53.1 L-130.35 -55.25 Q-145.05 -70.15 -144.75 -86.65 -145.5 -106.0 -139.05 -120.75 L-138.3 -122.4 Q-137.05 -126.15 -138.45 -132.45 -143.55 -149.2 -146.9 -171.05 L-144.95 -170.45 Q-147.15 -173.9 -150.2 -176.65 -151.95 -178.75 -149.1 -179.15 L-147.4 -179.3 Q-145.65 -179.65 -145.05 -181.0 L-144.15 -183.3 Q-143.35 -185.45 -142.3 -184.0 L-141.0 -181.6 Q-140.25 -180.4 -138.6 -180.5 L-137.0 -180.7 Q-134.25 -181.0 -135.35 -178.75 L-135.5 -178.45 Q-138.35 -174.65 -139.6 -170.75 L-138.0 -171.6 Q-131.85 -157.05 -119.3 -157.75 -118.05 -161.2 -115.9 -164.35 -114.9 -165.3 -113.45 -165.25 -112.85 -166.7 -112.6 -168.6 -111.95 -172.45 -110.2 -175.05 L-110.1 -175.45 -109.75 -176.3 -109.05 -176.65 -108.6 -176.85 Q-107.1 -178.3 -105.05 -179.1 L-104.75 -179.2 -104.7 -179.2 -104.45 -179.4 -104.4 -179.45 -104.25 -179.7 Q-103.9 -180.05 -103.35 -180.05 L-103.1 -180.0 -102.85 -179.95 -102.85 -179.9 -102.5 -179.9 -102.45 -179.9 -101.65 -180.05 -101.55 -180.1 Q-100.15 -180.45 -99.05 -181.15 L-97.85 -181.2 Q-97.05 -180.5 -96.2 -180.35 L-95.25 -180.2 -95.15 -180.2 -94.8 -180.25 -94.75 -180.25 -94.3 -180.4 -93.65 -180.1 -93.5 -179.95 -92.95 -179.55 -92.0 -179.1 Q-89.7 -178.05 -88.1 -176.55 L-88.1 -176.5 -87.7 -176.35 Q-87.35 -176.35 -87.05 -176.05 L-86.8 -175.35 -86.7 -174.85 -86.55 -174.7 Q-85.1 -172.45 -84.8 -169.4 -84.55 -167.05 -83.85 -165.3 -81.7 -166.3 -79.9 -165.1 -79.0 -164.45 -78.2 -163.25 -75.65 -158.25 -73.8 -152.0 -62.1 -156.35 -57.4 -168.4 L-55.6 -168.25 M-83.85 -165.3 L-83.85 -165.25 -84.0 -165.2 Q-88.55 -163.0 -97.1 -162.05 -105.5 -162.1 -110.55 -164.4 L-110.95 -164.6 Q-112.35 -165.2 -113.45 -165.25 M-119.3 -157.75 L-120.45 -153.6 M-144.95 -170.45 L-144.5 -169.7 -142.0 -170.2 -140.0 -170.6 -139.65 -170.7 -139.6 -170.75 M-102.1 -43.5 Q-115.25 -44.35 -127.55 -53.1 M-69.5 -52.8 Q-82.95 -44.55 -95.7 -43.55" fill="none" stroke="#bfbf00" stroke-linecap="round" stroke-linejoin="round" stroke-width="0.05"/>
  </g>
  <defs>
    <radialGradient cx="0" cy="0" gradientTransform="matrix(0.1104, 0.0, 0.0, 0.1104, -102.45, -93.2)" gradientUnits="userSpaceOnUse" id="gradient0" r="819.2" spreadMethod="pad">
      <stop offset="0.0" stop-color="#ffcc33"/>
      <stop offset="0.5294117647058824" stop-color="#ffff00"/>
      <stop offset="1.0" stop-color="#ffff66"/>
    </radialGradient>
    <radialGradient cx="0" cy="0" gradientTransform="matrix(0.0373, 0.0, 0.0, 0.0394, -104.2, -150.1)" gradientUnits="userSpaceOnUse" id="gradient1" r="819.2" spreadMethod="pad">
      <stop offset="0.0" stop-color="#ffcc33"/>
      <stop offset="0.5294117647058824" stop-color="#ffff00"/>
      <stop offset="1.0" stop-color="#ffff66"/>
    </radialGradient>
    <radialGradient cx="0" cy="0" gradientTransform="matrix(0.0121, 0.0, 0.0, 0.0121, -52.35, -174.45)" gradientUnits="userSpaceOnUse" id="gradient2" r="819.2" spreadMethod="pad">
      <stop offset="0.0" stop-color="#ffcc33"/>
      <stop offset="0.5294117647058824" stop-color="#ffff00"/>
      <stop offset="1.0" stop-color="#ffff66"/>
    </radialGradient>
    <radialGradient cx="0" cy="0" gradientTransform="matrix(-0.0155, 0.0032, -0.0032, -0.0155, -146.95, -175.1)" gradientUnits="userSpaceOnUse" id="gradient3" r="819.2" spreadMethod="pad">
      <stop offset="0.0" stop-color="#ffcc33"/>
      <stop offset="0.5294117647058824" stop-color="#ffff00"/>
      <stop offset="1.0" stop-color="#ffff66"/>
    </radialGradient>
    <radialGradient cx="0" cy="0" gradientTransform="matrix(0.0358, 0.0, 0.0, 0.0358, -112.5, -28.05)" gradientUnits="userSpaceOnUse" id="gradient4" r="819.2" spreadMethod="pad">
      <stop offset="0.0" stop-color="#ffcc33"/>
      <stop offset="0.5294117647058824" stop-color="#ffff00"/>
      <stop offset="1.0" stop-color="#ffff66"/>
    </radialGradient>
    <radialGradient cx="0" cy="0" gradientTransform="matrix(0.0429, 0.0, 0.0, 0.0429, -86.5, -45.2)" gradientUnits="userSpaceOnUse" id="gradient5" r="819.2" spreadMethod="pad">
      <stop offset="0.0" stop-color="#ffcc33"/>
      <stop offset="0.5294117647058824" stop-color="#ffff00"/>
      <stop offset="1.0" stop-color="#ffff66"/>
    </radialGradient>
  </defs>
</svg>
