<?xml version="1.0" encoding="UTF-8" standalone="no"?>
<svg xmlns:xlink="http://www.w3.org/1999/xlink" height="190.5px" width="95.25px" xmlns="http://www.w3.org/2000/svg">
  <g transform="matrix(1.0, 0.0, 0.0, 1.0, 47.65, 95.25)">
    <path d="M33.7 -53.35 Q34.35 -57.75 33.7 -62.1 33.75 -64.8 36.15 -63.3 L37.6 -62.35 Q39.1 -61.45 40.45 -62.1 L42.6 -63.35 Q44.6 -64.45 44.45 -62.7 L43.95 -60.0 Q43.7 -58.6 45.05 -57.6 L46.45 -56.75 Q48.75 -55.25 46.45 -54.2 L46.15 -54.1 Q41.75 -53.05 38.4 -51.0 L38.0 -50.75 33.65 -53.1 33.7 -53.35" fill="url(#gradient0)" fill-rule="evenodd" stroke="none"/>
    <path d="M-10.7 -78.05 Q-8.45 -90.7 -1.85 -93.05 0.45 -93.9 2.3 -94.8 L6.6 -94.65 8.9 -92.85 Q17.95 -87.15 16.75 -73.6 19.05 -71.0 19.4 -64.75 L19.4 -64.6 19.45 -63.05 19.3 -62.9 18.6 -62.45 Q18.6 -63.65 18.1 -64.6 L17.9 -64.9 17.3 -65.6 Q16.7 -66.05 16.0 -66.1 14.85 -66.15 13.95 -65.1 13.1 -64.05 13.05 -62.5 L13.15 -61.1 12.3 -61.1 11.45 -61.15 11.0 -61.2 10.3 -61.25 10.45 -62.3 Q10.5 -63.65 9.95 -64.7 L9.75 -65.0 9.7 -65.1 Q8.95 -66.15 7.85 -66.2 L6.9 -66.05 Q6.7 -67.2 5.05 -66.2 L2.95 -64.85 0.05 -65.0 -1.45 -65.9 -1.95 -66.15 -3.05 -66.35 Q-11.0 -71.3 -11.1 -75.55 L-10.7 -78.05 M13.7 -75.3 Q15.5 -74.95 16.75 -73.6 15.5 -74.95 13.7 -75.3 M8.2 -76.0 Q0.6 -75.1 -1.95 -66.15 0.6 -75.1 8.2 -76.0" fill="url(#gradient1)" fill-rule="evenodd" stroke="none"/>
    <path d="M13.15 -61.1 L13.05 -62.5 Q13.1 -64.05 13.95 -65.1 14.85 -66.15 16.0 -66.1 16.7 -66.05 17.3 -65.6 L17.9 -64.9 18.1 -64.6 16.45 -65.1 16.4 -65.1 Q15.25 -65.1 14.4 -64.25 13.55 -63.4 13.55 -62.2 L13.75 -61.1 13.3 -61.1 13.15 -61.1 M6.9 -66.05 L7.85 -66.2 Q8.95 -66.15 9.7 -65.1 L9.75 -65.0 9.95 -64.7 9.2 -65.1 8.25 -65.25 Q7.45 -65.25 6.8 -64.85 L6.9 -65.6 6.9 -66.05" fill="#ffffff" fill-rule="evenodd" stroke="none"/>
    <path d="M34.9 -23.75 Q41.25 -10.2 45.8 5.9 52.25 29.25 29.65 46.7 22.25 53.05 16.45 56.05 13.6 57.35 10.6 58.25 L6.3 59.25 4.6 59.55 Q0.1 68.4 -0.3 85.3 L-0.35 87.95 10.75 94.85 10.75 94.9 Q1.45 96.3 -8.9 91.75 L-9.0 91.35 -9.05 90.65 -9.65 86.7 Q-10.75 80.7 -12.7 74.5 L-14.2 70.1 -14.5 69.25 Q-17.1 62.35 -23.2 51.4 -41.8 35.45 -47.35 0.75 -49.95 -27.65 -28.8 -51.95 -22.55 -59.55 -17.0 -69.9 -13.5 -78.25 -10.7 -78.05 L-11.1 -75.55 Q-11.0 -71.3 -3.05 -66.35 -3.85 -66.2 -3.8 -64.6 -3.0 -60.25 -3.5 -55.8 L-3.5 -55.6 -2.25 -54.95 -1.4 -54.55 0.95 -53.45 1.55 -53.85 Q4.7 -55.9 8.95 -57.1 L9.2 -57.2 Q11.5 -58.3 9.15 -59.75 L7.7 -60.55 Q6.8 -61.2 6.55 -62.05 L10.3 -61.25 11.0 -61.2 11.45 -61.15 12.3 -61.1 13.15 -61.1 13.3 -61.1 13.75 -61.1 14.85 -61.2 17.55 -61.9 17.9 -62.1 18.6 -62.45 19.3 -62.9 19.45 -63.05 19.4 -64.6 19.9 -64.1 20.25 -63.7 Q22.85 -60.35 23.3 -52.1 23.8 -49.65 24.55 -47.2 26.65 -39.9 30.4 -32.6 L34.9 -23.75 M-4.85 -7.9 Q2.2 -18.55 0.45 -31.1 -1.3 -43.65 2.3 -53.8 L1.55 -53.85 2.3 -53.8 Q-1.3 -43.65 0.45 -31.1 2.2 -18.55 -4.85 -7.9 M-26.8 -16.25 Q-25.85 -36.4 -3.9 -56.15 L-3.5 -55.8 -3.9 -56.15 Q-25.85 -36.4 -26.8 -16.25 M-11.55 59.0 Q-17.9 55.95 -23.2 51.4 -17.9 55.95 -11.55 59.0" fill="url(#gradient2)" fill-rule="evenodd" stroke="none"/>
    <path d="M-1.95 -66.15 L-1.45 -65.9 0.05 -65.0 2.95 -64.85 5.05 -66.2 Q6.7 -67.2 6.9 -66.05 L6.9 -65.6 6.8 -64.85 6.5 -62.9 Q6.45 -62.45 6.55 -62.05 6.8 -61.2 7.7 -60.55 L9.15 -59.75 Q11.5 -58.3 9.2 -57.2 L8.95 -57.1 Q4.7 -55.9 1.55 -53.85 L0.95 -53.45 -1.4 -54.55 -2.25 -54.95 -3.5 -55.6 -3.5 -55.8 Q-3.0 -60.25 -3.8 -64.6 -3.85 -66.2 -3.05 -66.35 L-1.95 -66.15" fill="url(#gradient3)" fill-rule="evenodd" stroke="none"/>
    <path d="M38.4 -51.0 L38.75 -50.85 Q38.1 -36.05 34.9 -23.75 L30.4 -32.6 Q26.65 -39.9 24.55 -47.2 28.0 -51.05 33.45 -53.5 L33.7 -53.35 33.65 -53.1 38.0 -50.75 38.4 -51.0" fill="url(#gradient4)" fill-rule="evenodd" stroke="none"/>
    <path d="M10.6 58.25 Q6.9 65.9 4.7 79.75 L18.75 85.0 Q10.95 86.85 5.35 86.1 L-0.3 85.3 Q0.1 68.4 4.6 59.55 L6.3 59.25 10.6 58.25" fill="url(#gradient5)" fill-rule="evenodd" stroke="none"/>
    <path d="M10.75 94.85 L10.8 94.9 10.75 94.9 10.75 94.85" fill="#6633cc" fill-rule="evenodd" stroke="none"/>
    <path d="M13.75 -61.1 L13.55 -62.2 Q13.55 -63.4 14.4 -64.25 15.25 -65.1 16.4 -65.1 L16.45 -65.1 18.1 -64.6 Q18.6 -63.65 18.6 -62.45 L17.9 -62.1 17.55 -61.9 14.85 -61.2 13.75 -61.1 M9.95 -64.7 Q10.5 -63.65 10.45 -62.3 L10.3 -61.25 6.55 -62.05 Q6.45 -62.45 6.5 -62.9 L6.8 -64.85 Q7.45 -65.25 8.25 -65.25 L9.2 -65.1 9.95 -64.7" fill="#884400" fill-rule="evenodd" stroke="none"/>
    <path d="M33.7 -53.35 Q34.35 -57.75 33.7 -62.1 33.75 -64.8 36.15 -63.3 L37.6 -62.35 Q39.1 -61.45 40.45 -62.1 L42.6 -63.35 Q44.6 -64.45 44.45 -62.7 L43.95 -60.0 Q43.7 -58.6 45.05 -57.6 L46.45 -56.75 Q48.75 -55.25 46.45 -54.2 L46.15 -54.1 Q41.75 -53.05 38.4 -51.0 L38.75 -50.85 Q38.1 -36.05 34.9 -23.75 41.25 -10.2 45.8 5.9 52.25 29.25 29.65 46.7 22.25 53.05 16.45 56.05 13.6 57.35 10.6 58.25 6.9 65.9 4.7 79.75 L18.75 85.0 Q10.95 86.85 5.35 86.1 L-0.3 85.3 -0.35 87.95 10.75 94.85 10.8 94.9 M10.75 94.9 Q1.45 96.3 -8.9 91.75 L-9.0 91.35 -9.65 86.7 Q-10.75 80.7 -12.7 74.5 L-14.2 70.1 -14.5 69.25 Q-17.1 62.35 -23.2 51.4 -41.8 35.45 -47.35 0.75 -49.95 -27.65 -28.8 -51.95 -22.55 -59.55 -17.0 -69.9 -13.5 -78.25 -10.7 -78.05 -8.45 -90.7 -1.85 -93.05 0.45 -93.9 2.3 -94.8 L6.6 -94.65 8.9 -92.85 Q17.95 -87.15 16.75 -73.6 19.05 -71.0 19.4 -64.75 L19.4 -64.6 19.9 -64.1 20.25 -63.7 Q22.85 -60.35 23.3 -52.1 23.8 -49.65 24.55 -47.2 28.0 -51.05 33.45 -53.5 L33.7 -53.35 33.65 -53.1 M38.0 -50.75 L38.4 -51.0 M18.1 -64.6 L17.9 -64.9 17.3 -65.6 Q16.7 -66.05 16.0 -66.1 14.85 -66.15 13.95 -65.1 13.1 -64.05 13.05 -62.5 L13.15 -61.1 13.3 -61.1 13.75 -61.1 14.85 -61.2 17.55 -61.9 17.9 -62.1 18.6 -62.45 19.3 -62.9 19.45 -63.05 19.4 -64.6 M18.1 -64.6 Q18.6 -63.65 18.6 -62.45 M-1.95 -66.15 L-1.45 -65.9 0.05 -65.0 2.95 -64.85 5.05 -66.2 Q6.7 -67.2 6.9 -66.05 L7.85 -66.2 Q8.95 -66.15 9.7 -65.1 L9.75 -65.0 9.95 -64.7 Q10.5 -63.65 10.45 -62.3 L10.3 -61.25 11.0 -61.2 11.45 -61.15 12.3 -61.1 13.15 -61.1 M6.9 -66.05 L6.9 -65.6 6.8 -64.85 6.5 -62.9 Q6.45 -62.45 6.55 -62.05 L10.3 -61.25 M6.55 -62.05 Q6.8 -61.2 7.7 -60.55 L9.15 -59.75 Q11.5 -58.3 9.2 -57.2 L8.95 -57.1 Q4.7 -55.9 1.55 -53.85 L2.3 -53.8 Q-1.3 -43.65 0.45 -31.1 2.2 -18.55 -4.85 -7.9 M1.55 -53.85 L0.95 -53.45 M-1.4 -54.55 L-2.25 -54.95 M-3.5 -55.6 L-3.5 -55.8 -3.9 -56.15 Q-25.85 -36.4 -26.8 -16.25 M16.75 -73.6 Q15.5 -74.95 13.7 -75.3 M24.55 -47.2 Q26.65 -39.9 30.4 -32.6 L34.9 -23.75 M10.6 58.25 L6.3 59.25 4.6 59.55 Q0.1 68.4 -0.3 85.3 M10.75 94.85 L10.75 94.9 M-10.7 -78.05 L-11.1 -75.55 Q-11.0 -71.3 -3.05 -66.35 L-1.95 -66.15 Q0.6 -75.1 8.2 -76.0 M-3.5 -55.8 Q-3.0 -60.25 -3.8 -64.6 -3.85 -66.2 -3.05 -66.35 M-9.0 91.35 L-9.05 90.65 -9.65 86.7 M-23.2 51.4 Q-17.9 55.95 -11.55 59.0" fill="none" stroke="#d75600" stroke-linecap="round" stroke-linejoin="round" stroke-width="0.05"/>
    <path d="M10.8 94.9 L10.75 94.9" fill="none" stroke="#d75600" stroke-linecap="round" stroke-linejoin="round" stroke-width="0.05"/>
  </g>
  <defs>
    <radialGradient cx="0" cy="0" gradientTransform="matrix(-0.0139, -0.0074, 0.0074, -0.0139, 35.2, -58.8)" gradientUnits="userSpaceOnUse" id="gradient0" r="819.2" spreadMethod="pad">
      <stop offset="0.0" stop-color="#ff6600"/>
      <stop offset="0.5294117647058824" stop-color="#ff9900"/>
      <stop offset="1.0" stop-color="#ff6600"/>
    </radialGradient>
    <radialGradient cx="0" cy="0" gradientTransform="matrix(0.0261, 0.0, 0.0, 0.0261, 4.35, -78.05)" gradientUnits="userSpaceOnUse" id="gradient1" r="819.2" spreadMethod="pad">
      <stop offset="0.0" stop-color="#ff6600"/>
      <stop offset="0.5294117647058824" stop-color="#ff9900"/>
      <stop offset="1.0" stop-color="#ff6600"/>
    </radialGradient>
    <radialGradient cx="0" cy="0" gradientTransform="matrix(0.1316, 0.0, 0.0, 0.1316, -13.65, 28.9)" gradientUnits="userSpaceOnUse" id="gradient2" r="819.2" spreadMethod="pad">
      <stop offset="0.0" stop-color="#ff6600"/>
      <stop offset="0.5294117647058824" stop-color="#ff9900"/>
      <stop offset="1.0" stop-color="#ff6600"/>
    </radialGradient>
    <radialGradient cx="0" cy="0" gradientTransform="matrix(-0.0142, -0.0069, 0.0069, -0.0142, -2.2, -61.4)" gradientUnits="userSpaceOnUse" id="gradient3" r="819.2" spreadMethod="pad">
      <stop offset="0.0" stop-color="#ff6600"/>
      <stop offset="0.5294117647058824" stop-color="#ff9900"/>
      <stop offset="1.0" stop-color="#ff6600"/>
    </radialGradient>
    <radialGradient cx="0" cy="0" gradientTransform="matrix(0.025, 0.0, 0.0, 0.025, 38.3, -43.9)" gradientUnits="userSpaceOnUse" id="gradient4" r="819.2" spreadMethod="pad">
      <stop offset="0.0" stop-color="#ff6600"/>
      <stop offset="0.5294117647058824" stop-color="#ff9900"/>
      <stop offset="1.0" stop-color="#ff6600"/>
    </radialGradient>
    <radialGradient cx="0" cy="0" gradientTransform="matrix(0.029, 0.0, 0.0, 0.029, 3.35, 66.9)" gradientUnits="userSpaceOnUse" id="gradient5" r="819.2" spreadMethod="pad">
      <stop offset="0.0" stop-color="#ff6600"/>
      <stop offset="0.5294117647058824" stop-color="#ff9900"/>
      <stop offset="1.0" stop-color="#ff6600"/>
    </radialGradient>
  </defs>
</svg>
