<?xml version="1.0" encoding="UTF-8" standalone="no"?>
<svg xmlns:xlink="http://www.w3.org/1999/xlink" height="183.75px" width="103.45px" xmlns="http://www.w3.org/2000/svg">
  <g transform="matrix(1.0, 0.0, 0.0, 1.0, 51.75, 91.9)">
    <path d="M-10.05 -81.5 Q-9.1 -83.4 -7.4 -85.5 -4.0 -91.3 2.35 -91.8 8.6 -92.35 10.65 -89.2 17.15 -81.8 17.1 -73.35 17.3 -68.15 16.5 -63.35 L16.65 -61.65 Q16.9 -58.95 16.3 -57.25 15.05 -53.65 9.95 -54.6 L7.9 -55.15 Q6.5 -55.55 4.95 -56.25 L1.85 -57.95 Q-1.35 -59.9 -4.0 -62.4 -7.6 -65.7 -10.3 -69.95 -13.2 -75.35 -10.05 -81.5 M4.4 57.0 Q1.25 64.45 -0.7 76.75 L14.05 82.5 Q5.15 84.35 -5.7 82.3 -5.35 67.0 -1.65 58.3 L-0.55 58.1 4.4 57.0 M13.1 -67.7 Q15.2 -66.75 16.5 -63.35 15.2 -66.75 13.1 -67.7 M10.55 -68.35 Q1.1 -70.5 -4.0 -62.4 1.1 -70.5 10.55 -68.35" fill="url(#gradient0)" fill-rule="evenodd" stroke="none"/>
    <path d="M38.15 -37.8 Q42.5 -38.85 46.35 -41.05 48.85 -42.05 48.35 -39.3 L48.0 -37.6 Q47.75 -35.85 48.85 -34.85 L50.8 -33.3 Q52.55 -31.9 50.9 -31.35 L48.25 -30.8 Q46.8 -30.5 46.4 -28.9 L46.15 -27.3 Q45.6 -24.6 43.75 -26.35 L43.55 -26.55 Q41.15 -29.9 38.4 -32.1 L37.45 -32.85 37.95 -37.75 38.15 -37.8" fill="url(#gradient1)" fill-rule="evenodd" stroke="none"/>
    <path d="M20.3 -45.1 Q29.4 -45.5 38.5 -39.15 L38.15 -37.8 37.95 -37.75 37.45 -32.85 38.4 -32.1 38.5 -31.65 Q34.2 -26.45 28.35 -23.25 L23.1 -34.15 Q21.2 -39.0 20.3 -45.1" fill="url(#gradient2)" fill-rule="evenodd" stroke="none"/>
    <path d="M16.65 -61.65 Q19.8 -60.5 19.65 -51.3 19.85 -48.05 20.3 -45.1 21.2 -39.0 23.1 -34.15 L28.35 -23.25 Q33.4 -12.1 37.35 -1.2 47.65 26.85 28.1 43.75 19.65 51.95 8.25 55.85 L4.4 57.0 -0.55 58.1 -1.65 58.3 Q-5.35 67.0 -5.7 82.3 L-5.75 84.95 5.25 91.75 5.25 91.8 Q-4.9 92.35 -14.5 88.8 L-14.6 88.4 -14.75 87.6 -14.8 86.9 -15.3 83.7 -15.75 81.15 Q-16.5 77.4 -17.6 73.6 L-19.4 67.05 -20.25 64.65 Q-22.45 58.8 -25.45 52.7 L-27.05 51.1 Q-34.45 43.45 -43.7 26.95 -54.25 8.15 -50.95 -16.8 -48.0 -38.95 -22.15 -66.7 L-16.95 -75.05 Q-13.25 -80.65 -10.05 -81.5 -13.2 -75.35 -10.3 -69.95 -7.6 -65.7 -4.0 -62.4 -1.35 -59.9 1.85 -57.95 L4.95 -56.25 Q6.5 -55.55 7.9 -55.15 L9.95 -54.6 Q15.05 -53.65 16.3 -57.25 16.9 -58.95 16.65 -61.65 M0.0 -26.95 L0.8 -26.35 Q3.75 -24.2 6.35 -20.85 L6.55 -20.65 Q8.45 -18.95 8.9 -21.7 L9.1 -23.3 Q9.45 -24.9 10.85 -25.3 L13.5 -25.9 Q15.15 -26.5 13.35 -27.85 L11.35 -29.35 Q10.2 -30.3 10.4 -32.05 L10.65 -33.75 Q11.05 -36.55 8.6 -35.5 5.0 -33.25 1.0 -32.05 L0.35 -31.85 0.0 -26.95 M-8.3 -18.8 Q-14.65 -16.85 -21.5 -18.7 -14.65 -16.85 -8.3 -18.8 -3.4 -20.3 1.2 -24.1 L0.8 -26.35 1.2 -24.1 Q-3.4 -20.3 -8.3 -18.8 -8.7 -17.3 -12.2 -15.4 -16.6 -13.0 -24.3 -13.0 -16.6 -13.0 -12.2 -15.4 -8.7 -17.3 -8.3 -18.8 M-27.9 -33.35 Q-15.0 -52.85 1.2 -33.1 L1.0 -32.05 1.2 -33.1 Q-15.0 -52.85 -27.9 -33.35 M-15.25 57.7 Q-19.95 57.75 -25.45 52.7 -19.95 57.75 -15.25 57.7" fill="url(#gradient3)" fill-rule="evenodd" stroke="none"/>
    <path d="M0.35 -31.85 L1.0 -32.05 Q5.0 -33.25 8.6 -35.5 11.05 -36.55 10.65 -33.75 L10.4 -32.05 Q10.2 -30.3 11.35 -29.35 L13.35 -27.85 Q15.15 -26.5 13.5 -25.9 L10.85 -25.3 Q9.45 -24.9 9.1 -23.3 L8.9 -21.7 Q8.45 -18.95 6.55 -20.65 L6.35 -20.85 Q3.75 -24.2 0.8 -26.35 L0.0 -26.95 0.35 -31.85" fill="url(#gradient4)" fill-rule="evenodd" stroke="none"/>
    <path d="M5.25 91.75 L5.3 91.8 5.25 91.8 5.25 91.75" fill="#6633cc" fill-rule="evenodd" stroke="none"/>
    <path d="M-10.05 -81.5 Q-9.1 -83.4 -7.4 -85.5 -4.0 -91.3 2.35 -91.8 8.6 -92.35 10.65 -89.2 17.15 -81.8 17.1 -73.35 17.3 -68.15 16.5 -63.35 L16.65 -61.65 Q19.8 -60.5 19.65 -51.3 19.85 -48.05 20.3 -45.1 29.4 -45.5 38.5 -39.15 L38.15 -37.8 Q42.5 -38.85 46.35 -41.05 48.85 -42.05 48.35 -39.3 L48.0 -37.6 Q47.75 -35.85 48.85 -34.85 L50.8 -33.3 Q52.55 -31.9 50.9 -31.35 L48.25 -30.8 Q46.8 -30.5 46.4 -28.9 L46.15 -27.3 Q45.6 -24.6 43.75 -26.35 L43.55 -26.55 Q41.15 -29.9 38.4 -32.1 L38.5 -31.65 Q34.2 -26.45 28.35 -23.25 33.4 -12.1 37.35 -1.2 47.65 26.85 28.1 43.75 19.65 51.95 8.25 55.85 L4.4 57.0 Q1.25 64.45 -0.7 76.75 L14.05 82.5 Q5.15 84.35 -5.7 82.3 L-5.75 84.95 5.25 91.75 5.3 91.8 M5.25 91.8 Q-4.9 92.35 -14.5 88.8 L-14.6 88.4 -14.75 87.6 -14.8 86.9 -15.3 83.7 -15.75 81.15 Q-16.5 77.4 -17.6 73.6 L-19.4 67.05 -20.25 64.65 Q-22.45 58.8 -25.45 52.7 L-27.05 51.1 Q-34.45 43.45 -43.7 26.95 -54.25 8.15 -50.95 -16.8 -48.0 -38.95 -22.15 -66.7 L-16.95 -75.05 Q-13.25 -80.65 -10.05 -81.5 -13.2 -75.35 -10.3 -69.95 -7.6 -65.7 -4.0 -62.4 1.1 -70.5 10.55 -68.35 M16.5 -63.35 Q15.2 -66.75 13.1 -67.7 M38.15 -37.8 L37.95 -37.75 M37.45 -32.85 L38.4 -32.1 M28.35 -23.25 L23.1 -34.15 Q21.2 -39.0 20.3 -45.1 M0.0 -26.95 L0.8 -26.35 Q3.75 -24.2 6.35 -20.85 L6.55 -20.65 Q8.45 -18.95 8.9 -21.7 L9.1 -23.3 Q9.45 -24.9 10.85 -25.3 L13.5 -25.9 Q15.15 -26.5 13.35 -27.85 L11.35 -29.35 Q10.2 -30.3 10.4 -32.05 L10.65 -33.75 Q11.05 -36.55 8.6 -35.5 5.0 -33.25 1.0 -32.05 L0.35 -31.85 M16.65 -61.65 Q16.9 -58.95 16.3 -57.25 15.05 -53.65 9.95 -54.6 L7.9 -55.15 Q6.5 -55.55 4.95 -56.25 L1.85 -57.95 Q-1.35 -59.9 -4.0 -62.4 M0.8 -26.35 L1.2 -24.1 Q-3.4 -20.3 -8.3 -18.8 -8.7 -17.3 -12.2 -15.4 -16.6 -13.0 -24.3 -13.0 M1.0 -32.05 L1.2 -33.1 Q-15.0 -52.85 -27.9 -33.35 M-21.5 -18.7 Q-14.65 -16.85 -8.3 -18.8 M4.4 57.0 L-0.55 58.1 -1.65 58.3 Q-5.35 67.0 -5.7 82.3 M-25.45 52.7 Q-19.95 57.75 -15.25 57.7 M5.25 91.75 L5.25 91.8" fill="none" stroke="#d75600" stroke-linecap="round" stroke-linejoin="round" stroke-width="0.05"/>
    <path d="M5.3 91.8 L5.25 91.8" fill="none" stroke="#d75600" stroke-linecap="round" stroke-linejoin="round" stroke-width="0.05"/>
  </g>
  <defs>
    <radialGradient cx="0" cy="0" gradientTransform="matrix(0.0988, 0.0, 0.0, 0.0988, 24.4, 6.7)" gradientUnits="userSpaceOnUse" id="gradient0" r="819.2" spreadMethod="pad">
      <stop offset="0.0" stop-color="#ff6600"/>
      <stop offset="0.5294117647058824" stop-color="#ff9900"/>
      <stop offset="1.0" stop-color="#ff6600"/>
    </radialGradient>
    <radialGradient cx="0" cy="0" gradientTransform="matrix(0.0017, -0.0157, 0.0157, 0.0017, 43.85, -38.45)" gradientUnits="userSpaceOnUse" id="gradient1" r="819.2" spreadMethod="pad">
      <stop offset="0.0" stop-color="#ff6600"/>
      <stop offset="0.5294117647058824" stop-color="#ff9900"/>
      <stop offset="1.0" stop-color="#ff6600"/>
    </radialGradient>
    <radialGradient cx="0" cy="0" gradientTransform="matrix(0.0225, 0.0, 0.0, 0.0225, 33.4, -32.1)" gradientUnits="userSpaceOnUse" id="gradient2" r="819.2" spreadMethod="pad">
      <stop offset="0.0" stop-color="#ff6600"/>
      <stop offset="0.5294117647058824" stop-color="#ff9900"/>
      <stop offset="1.0" stop-color="#ff6600"/>
    </radialGradient>
    <radialGradient cx="0" cy="0" gradientTransform="matrix(0.1479, 0.0, 0.0, 0.1479, 12.55, -28.7)" gradientUnits="userSpaceOnUse" id="gradient3" r="819.2" spreadMethod="pad">
      <stop offset="0.0" stop-color="#ff6600"/>
      <stop offset="0.5294117647058824" stop-color="#ff9900"/>
      <stop offset="1.0" stop-color="#ff6600"/>
    </radialGradient>
    <radialGradient cx="0" cy="0" gradientTransform="matrix(0.0011, -0.0157, 0.0157, 0.0011, 6.15, -32.8)" gradientUnits="userSpaceOnUse" id="gradient4" r="819.2" spreadMethod="pad">
      <stop offset="0.0" stop-color="#ff6600"/>
      <stop offset="0.5294117647058824" stop-color="#ff9900"/>
      <stop offset="1.0" stop-color="#ff6600"/>
    </radialGradient>
  </defs>
</svg>
