<?xml version="1.0" encoding="UTF-8" standalone="no"?>
<svg xmlns:xlink="http://www.w3.org/1999/xlink" height="189.75px" width="102.85px" xmlns="http://www.w3.org/2000/svg">
  <g transform="matrix(1.0, 0.0, 0.0, 1.0, 51.45, 94.9)">
    <path d="M-13.4 -67.25 Q-12.85 -71.05 -11.3 -74.6 -11.25 -89.4 -0.25 -92.8 -0.1 -93.55 0.45 -94.1 1.25 -94.9 2.4 -94.9 3.55 -94.9 4.35 -94.1 4.95 -93.5 5.1 -92.7 15.55 -90.2 15.85 -75.95 L17.2 -67.6 Q18.55 -58.75 0.75 -59.1 -11.5 -60.35 -13.65 -65.3 -13.95 -66.3 -13.4 -67.25 M10.2 -62.4 Q11.5 -63.65 11.5 -65.5 11.5 -67.35 10.2 -68.7 8.95 -69.95 7.1 -69.95 5.2 -69.95 3.9 -68.7 2.65 -67.35 2.65 -65.5 2.65 -63.65 3.9 -62.4 5.2 -61.1 7.1 -61.05 8.95 -61.1 10.2 -62.4 M-5.85 -70.0 Q-7.6 -70.0 -8.85 -68.8 -10.05 -67.55 -10.05 -65.8 -10.05 -64.1 -8.85 -62.9 -7.6 -61.65 -5.85 -61.6 -4.1 -61.65 -2.9 -62.9 -1.65 -64.1 -1.65 -65.8 -1.65 -67.55 -2.9 -68.8 -4.1 -70.0 -5.85 -70.0" fill="url(#gradient0)" fill-rule="evenodd" stroke="none"/>
    <path d="M10.2 -62.4 Q8.95 -61.1 7.1 -61.05 5.2 -61.1 3.9 -62.4 2.65 -63.65 2.65 -65.5 2.65 -67.35 3.9 -68.7 5.2 -69.95 7.1 -69.95 8.95 -69.95 10.2 -68.7 11.5 -67.35 11.5 -65.5 11.5 -63.65 10.2 -62.4 M9.65 -68.15 Q8.6 -69.2 7.05 -69.2 5.5 -69.2 4.4 -68.15 3.35 -67.05 3.35 -65.5 3.35 -63.95 4.4 -62.9 5.5 -61.8 7.05 -61.8 8.6 -61.8 9.65 -62.9 10.75 -63.95 10.75 -65.5 10.75 -67.05 9.65 -68.15 M5.9 -65.9 L5.5 -65.6 Q4.6 -65.45 4.55 -66.35 4.5 -67.0 5.2 -67.15 L5.3 -67.15 Q6.45 -66.9 5.9 -65.9 M-5.85 -69.35 Q-7.3 -69.35 -8.35 -68.35 -9.35 -67.3 -9.35 -65.85 -9.35 -64.4 -8.35 -63.4 -7.3 -62.35 -5.85 -62.35 -4.4 -62.35 -3.4 -63.4 -2.35 -64.4 -2.35 -65.85 -2.35 -67.3 -3.4 -68.35 -4.4 -69.35 -5.85 -69.35 M-5.85 -70.0 Q-4.1 -70.0 -2.9 -68.8 -1.65 -67.55 -1.65 -65.8 -1.65 -64.1 -2.9 -62.9 -4.1 -61.65 -5.85 -61.6 -7.6 -61.65 -8.85 -62.9 -10.05 -64.1 -10.05 -65.8 -10.05 -67.55 -8.85 -68.8 -7.6 -70.0 -5.85 -70.0 M-8.15 -66.85 Q-8.2 -67.5 -7.55 -67.65 L-7.4 -67.65 Q-6.25 -67.4 -6.8 -66.4 -6.9 -66.15 -7.2 -66.1 -8.1 -65.95 -8.15 -66.85" fill="#ffffff" fill-rule="evenodd" stroke="none"/>
    <path d="M17.2 -67.6 Q20.95 -63.5 21.15 -53.75 29.05 -41.6 32.95 -28.55 38.35 -13.2 39.7 0.25 40.2 5.45 44.05 8.25 L43.5 8.7 41.4 7.75 37.9 11.25 38.0 11.75 Q38.95 15.5 38.7 20.0 L38.7 20.3 Q39.0 22.8 41.15 21.05 L42.15 20.2 Q47.15 43.75 24.75 56.35 L23.75 56.9 Q13.15 62.5 1.25 62.2 -8.15 61.9 -18.25 57.95 L-22.05 56.35 Q-47.75 44.4 -44.7 15.7 -44.65 8.75 -42.3 -0.4 L-41.65 -0.05 -40.25 0.95 Q-37.9 2.5 -37.8 -0.15 -38.3 -4.4 -37.55 -8.6 L-37.4 -9.2 -41.7 -11.65 -42.5 -11.25 -43.65 -11.85 Q-37.65 -25.75 -28.2 -36.75 -25.7 -46.5 -18.2 -55.2 -17.7 -64.55 -13.35 -67.85 L-13.4 -67.25 Q-13.95 -66.3 -13.65 -65.3 -11.5 -60.35 0.75 -59.1 18.55 -58.75 17.2 -67.6 M-20.25 -25.95 Q-26.1 -15.9 -35.4 -7.45 L-37.55 -8.6 -35.4 -7.45 Q-26.1 -15.9 -20.25 -25.95 M17.55 -17.5 Q23.75 -0.15 36.85 11.75 L38.0 11.75 36.85 11.75 Q23.75 -0.15 17.55 -17.5" fill="url(#gradient1)" fill-rule="evenodd" stroke="none"/>
    <path d="M-42.3 -0.4 Q-43.45 -0.9 -44.5 -0.4 L-46.7 0.75 Q-48.75 1.8 -48.55 0.05 L-47.95 -2.6 Q-47.7 -4.05 -49.0 -5.05 L-50.35 -5.95 Q-52.6 -7.55 -50.25 -8.5 L-49.95 -8.6 Q-45.75 -9.5 -42.5 -11.25 L-41.7 -11.65 -37.4 -9.2 -37.55 -8.6 Q-38.3 -4.4 -37.8 -0.15 -37.9 2.5 -40.25 0.95 L-41.65 -0.05 -42.3 -0.4" fill="url(#gradient2)" fill-rule="evenodd" stroke="none"/>
    <path d="M1.25 62.2 Q-2.2 68.45 -4.55 79.45 -7.4 87.75 -13.55 93.65 -13.4 85.45 -10.45 78.05 -13.0 67.1 -18.25 57.95 -8.15 61.9 1.25 62.2" fill="url(#gradient3)" fill-rule="evenodd" stroke="none"/>
    <path d="M43.5 8.7 Q46.65 9.9 50.0 10.4 52.55 11.2 50.45 13.1 L49.1 14.2 Q47.8 15.4 48.05 16.85 L48.6 19.3 Q49.05 21.5 47.4 20.9 L45.0 19.6 Q43.7 18.95 42.4 20.0 L42.15 20.2 41.15 21.05 Q39.0 22.8 38.7 20.3 L38.7 20.0 Q38.95 15.5 38.0 11.75 L37.9 11.25 41.4 7.75 43.5 8.7" fill="url(#gradient4)" fill-rule="evenodd" stroke="none"/>
    <path d="M23.75 56.9 Q17.1 67.35 12.9 80.9 12.95 88.4 11.9 94.85 7.4 89.0 6.05 80.2 4.6 69.5 1.25 62.2 13.15 62.5 23.75 56.9" fill="url(#gradient5)" fill-rule="evenodd" stroke="none"/>
    <path d="M9.65 -68.15 Q10.75 -67.05 10.75 -65.5 10.75 -63.95 9.65 -62.9 8.6 -61.8 7.05 -61.8 5.5 -61.8 4.4 -62.9 3.35 -63.95 3.35 -65.5 3.35 -67.05 4.4 -68.15 5.5 -69.2 7.05 -69.2 8.6 -69.2 9.65 -68.15 M5.9 -65.9 Q6.45 -66.9 5.3 -67.15 L5.2 -67.15 Q4.5 -67.0 4.55 -66.35 4.6 -65.45 5.5 -65.6 L5.9 -65.9 M-5.85 -69.35 Q-4.4 -69.35 -3.4 -68.35 -2.35 -67.3 -2.35 -65.85 -2.35 -64.4 -3.4 -63.4 -4.4 -62.35 -5.85 -62.35 -7.3 -62.35 -8.35 -63.4 -9.35 -64.4 -9.35 -65.85 -9.35 -67.3 -8.35 -68.35 -7.3 -69.35 -5.85 -69.35 M-8.15 -66.85 Q-8.1 -65.95 -7.2 -66.1 -6.9 -66.15 -6.8 -66.4 -6.25 -67.4 -7.4 -67.65 L-7.55 -67.65 Q-8.2 -67.5 -8.15 -66.85" fill="#884400" fill-rule="evenodd" stroke="none"/>
    <path d="M-13.4 -67.25 Q-12.85 -71.05 -11.3 -74.6 -11.25 -89.4 -0.25 -92.8 -0.1 -93.55 0.45 -94.1 1.25 -94.9 2.4 -94.9 3.55 -94.9 4.35 -94.1 4.95 -93.5 5.1 -92.7 15.55 -90.2 15.85 -75.95 L17.2 -67.6 Q20.95 -63.5 21.15 -53.75 29.05 -41.6 32.95 -28.55 38.35 -13.2 39.7 0.25 40.2 5.45 44.05 8.25 L43.5 8.7 Q46.65 9.9 50.0 10.4 52.55 11.2 50.45 13.1 L49.1 14.2 Q47.8 15.4 48.05 16.85 L48.6 19.3 Q49.05 21.5 47.4 20.9 L45.0 19.6 Q43.7 18.95 42.4 20.0 L42.15 20.2 Q47.15 43.75 24.75 56.35 L23.75 56.9 Q17.1 67.35 12.9 80.9 12.95 88.4 11.9 94.85 7.4 89.0 6.05 80.2 4.6 69.5 1.25 62.2 -2.2 68.45 -4.55 79.45 -7.4 87.75 -13.55 93.65 -13.4 85.45 -10.45 78.05 -13.0 67.1 -18.25 57.95 L-22.05 56.35 Q-47.75 44.4 -44.7 15.7 -44.65 8.75 -42.3 -0.4 -43.45 -0.9 -44.5 -0.4 L-46.7 0.75 Q-48.75 1.8 -48.55 0.05 L-47.95 -2.6 Q-47.7 -4.05 -49.0 -5.05 L-50.35 -5.95 Q-52.6 -7.55 -50.25 -8.5 L-49.95 -8.6 Q-45.75 -9.5 -42.5 -11.25 L-43.65 -11.85 Q-37.65 -25.75 -28.2 -36.75 -25.7 -46.5 -18.2 -55.2 -17.7 -64.55 -13.35 -67.85 L-13.4 -67.25 Q-13.95 -66.3 -13.65 -65.3 -11.5 -60.35 0.75 -59.1 18.55 -58.75 17.2 -67.6 M10.2 -62.4 Q8.95 -61.1 7.1 -61.05 5.2 -61.1 3.9 -62.4 2.65 -63.65 2.65 -65.5 2.65 -67.35 3.9 -68.7 5.2 -69.95 7.1 -69.95 8.95 -69.95 10.2 -68.7 11.5 -67.35 11.5 -65.5 11.5 -63.65 10.2 -62.4 M-5.85 -70.0 Q-4.1 -70.0 -2.9 -68.8 -1.65 -67.55 -1.65 -65.8 -1.65 -64.1 -2.9 -62.9 -4.1 -61.65 -5.85 -61.6 -7.6 -61.65 -8.85 -62.9 -10.05 -64.1 -10.05 -65.8 -10.05 -67.55 -8.85 -68.8 -7.6 -70.0 -5.85 -70.0 M-42.3 -0.4 L-41.65 -0.05 -40.25 0.95 Q-37.9 2.5 -37.8 -0.15 -38.3 -4.4 -37.55 -8.6 L-37.4 -9.2 M-41.7 -11.65 L-42.5 -11.25 M-37.55 -8.6 L-35.4 -7.45 Q-26.1 -15.9 -20.25 -25.95 M43.5 8.7 L41.4 7.75 M37.9 11.25 L38.0 11.75 Q38.95 15.5 38.7 20.0 L38.7 20.3 Q39.0 22.8 41.15 21.05 L42.15 20.2 M38.0 11.75 L36.85 11.75 Q23.75 -0.15 17.55 -17.5 M1.25 62.2 Q13.15 62.5 23.75 56.9 M1.25 62.2 Q-8.15 61.9 -18.25 57.95" fill="none" stroke="#d75600" stroke-linecap="round" stroke-linejoin="round" stroke-width="0.05"/>
  </g>
  <defs>
    <radialGradient cx="0" cy="0" gradientTransform="matrix(0.0253, 0.0, 0.0, 0.0253, 1.4, -72.55)" gradientUnits="userSpaceOnUse" id="gradient0" r="819.2" spreadMethod="pad">
      <stop offset="0.0" stop-color="#ff6600"/>
      <stop offset="0.5294117647058824" stop-color="#ff9900"/>
      <stop offset="1.0" stop-color="#ff6600"/>
    </radialGradient>
    <radialGradient cx="0" cy="0" gradientTransform="matrix(0.1086, 0.0, 0.0, 0.1086, -33.45, 5.5)" gradientUnits="userSpaceOnUse" id="gradient1" r="819.2" spreadMethod="pad">
      <stop offset="0.0" stop-color="#ff6600"/>
      <stop offset="0.5294117647058824" stop-color="#ff9900"/>
      <stop offset="1.0" stop-color="#ff6600"/>
    </radialGradient>
    <radialGradient cx="0" cy="0" gradientTransform="matrix(0.0137, 0.0079, -0.0079, 0.0137, -39.15, -3.55)" gradientUnits="userSpaceOnUse" id="gradient2" r="819.2" spreadMethod="pad">
      <stop offset="0.0" stop-color="#ff6600"/>
      <stop offset="0.5294117647058824" stop-color="#ff9900"/>
      <stop offset="1.0" stop-color="#ff6600"/>
    </radialGradient>
    <radialGradient cx="0" cy="0" gradientTransform="matrix(0.0283, 0.0, 0.0, 0.0283, -9.15, 71.75)" gradientUnits="userSpaceOnUse" id="gradient3" r="819.2" spreadMethod="pad">
      <stop offset="0.0" stop-color="#ff6600"/>
      <stop offset="0.5294117647058824" stop-color="#ff9900"/>
      <stop offset="1.0" stop-color="#ff6600"/>
    </radialGradient>
    <radialGradient cx="0" cy="0" gradientTransform="matrix(0.0112, -0.0112, 0.0112, 0.0112, 46.4, 10.85)" gradientUnits="userSpaceOnUse" id="gradient4" r="819.2" spreadMethod="pad">
      <stop offset="0.0" stop-color="#ff6600"/>
      <stop offset="0.5294117647058824" stop-color="#ff9900"/>
      <stop offset="1.0" stop-color="#ff6600"/>
    </radialGradient>
    <radialGradient cx="0" cy="0" gradientTransform="matrix(0.0419, 0.0, 0.0, 0.0419, 1.25, 62.2)" gradientUnits="userSpaceOnUse" id="gradient5" r="819.2" spreadMethod="pad">
      <stop offset="0.0" stop-color="#ff6600"/>
      <stop offset="0.5294117647058824" stop-color="#ff9900"/>
      <stop offset="1.0" stop-color="#ff6600"/>
    </radialGradient>
  </defs>
</svg>
