<?xml version="1.0" encoding="UTF-8" standalone="no"?>
<svg xmlns:xlink="http://www.w3.org/1999/xlink" height="487.45px" width="664.9px" xmlns="http://www.w3.org/2000/svg">
  <g transform="matrix(1.0, 0.0, 0.0, 1.0, 332.45, 243.7)">
    <path d="M175.35 -218.9 L157.85 -221.75 157.8 -221.75 131.8 -224.8 95.75 -228.0 53.8 -230.0 Q40.25 -230.3 27.25 -230.1 L21.25 -229.95 10.2 -229.6 -27.25 -226.95 -55.1 -223.25 -55.2 -223.25 -74.0 -220.7 Q-95.1 -217.65 -113.3 -214.05 L-113.35 -214.05 Q-134.15 -209.95 -151.2 -205.15 -167.05 -200.7 -179.65 -195.65 -185.65 -193.3 -190.9 -190.75 -200.9 -186.0 -208.05 -180.95 L-213.35 -176.8 -215.6 -174.75 -220.05 -169.75 Q-224.45 -164.0 -225.45 -157.85 L-225.45 -157.9 Q-226.1 -152.75 -223.7 -148.65 -221.05 -144.25 -214.85 -141.1 L-213.95 -140.65 -213.85 -140.6 -203.05 -134.95 Q-196.75 -131.7 -189.45 -128.2 L-177.7 -122.65 -158.45 -113.85 Q-160.15 -124.2 -154.5 -132.2 -151.55 -136.5 -146.5 -140.1 L-146.55 -140.05 -143.8 -142.15 Q-128.6 -153.25 -106.6 -161.75 -93.5 -166.8 -77.95 -170.95 L-74.2 -171.95 -74.15 -171.95 -67.55 -173.4 Q-46.05 -178.05 -24.55 -181.0 23.9 -187.75 72.1 -186.15 72.9 -186.1 73.45 -185.5 74.0 -184.95 74.0 -184.1 74.0 -183.3 73.4 -182.7 72.8 -182.15 72.0 -182.15 L33.45 -180.5 33.4 -180.5 Q-0.85 -177.05 -23.9 -172.5 -44.5 -168.4 -56.1 -163.45 L-56.2 -163.4 -63.8 -160.4 Q-68.95 -158.2 -73.3 -155.8 L-73.35 -155.8 Q-81.5 -151.35 -86.85 -146.2 L-86.8 -146.2 Q-90.4 -142.8 -92.65 -139.05 L-92.7 -139.0 Q-96.0 -130.65 -87.95 -124.2 L-86.15 -122.9 Q-79.0 -118.05 -65.65 -114.2 L-63.95 -113.7 -64.0 -113.7 Q-44.85 -108.5 -24.0 -105.6 -6.85 -103.2 11.5 -102.45 30.45 -101.65 50.6 -102.55 69.95 -103.45 90.45 -105.9 L100.45 -107.2 Q112.7 -108.9 125.35 -111.15 142.35 -114.15 160.1 -118.15 L160.05 -118.15 Q182.65 -123.95 199.9 -131.4 205.45 -133.85 210.5 -136.4 218.2 -140.4 224.6 -144.8 232.9 -150.55 239.0 -157.05 251.4 -170.85 247.2 -182.6 244.3 -190.05 234.75 -196.7 225.85 -202.95 214.15 -207.8 197.55 -214.7 175.35 -218.9 M267.15 -216.4 Q299.2 -203.55 313.8 -185.95 L314.0 -185.75 314.85 -184.3 Q326.9 -163.8 310.9 -140.4 L309.55 -138.45 309.45 -138.3 Q295.7 -122.15 268.2 -108.4 249.3 -98.95 223.95 -90.65 207.7 -85.4 188.85 -80.55 L176.75 -77.6 172.65 -76.7 Q154.0 -72.55 134.6 -69.5 118.0 -66.9 100.9 -65.1 L90.9 -64.15 46.4 -61.6 Q19.7 -60.85 -8.2 -61.9 L-25.4 -62.75 -39.55 -63.95 -31.1 -60.45 -27.4 -58.85 -19.15 -55.35 -14.05 -53.15 -11.5 -52.05 1.05 -46.55 1.4 -46.4 14.1 -40.7 15.05 -40.25 35.3 -30.85 36.3 -30.35 37.0 -30.05 41.85 -27.7 42.7 -27.3 58.55 -19.55 58.65 -19.5 63.75 -16.65 64.5 -16.25 65.35 -15.75 71.35 -12.3 71.45 -12.25 Q87.7 -2.9 102.55 6.45 L122.15 19.25 Q146.25 35.55 165.9 51.8 L170.55 55.7 176.3 60.65 176.5 60.85 176.65 61.0 176.7 61.05 176.8 61.1 Q201.55 83.7 223.95 106.95 L234.35 117.95 Q262.1 147.6 286.15 178.35 L286.5 178.75 Q311.45 210.7 332.45 243.75 L30.85 243.75 Q27.9 224.3 23.75 204.9 L23.7 204.6 23.7 204.55 Q20.35 189.0 16.35 173.5 12.95 160.6 9.1 147.75 L9.1 147.8 Q7.2 141.9 4.4 135.95 L1.15 129.65 0.75 128.95 0.65 128.75 Q-3.45 121.45 -8.85 114.05 L-9.3 113.5 -10.55 111.75 -10.85 111.4 -11.0 111.2 -12.2 109.6 -14.95 106.2 -15.2 105.85 -15.6 105.4 -16.15 104.75 -17.05 103.65 -17.4 103.25 -27.8 91.9 -28.55 91.1 -28.75 90.9 -29.3 90.35 Q-36.8 82.8 -45.55 75.15 -57.05 65.15 -70.75 54.95 L-87.05 43.35 -88.1 42.6 -94.05 38.6 Q-105.8 30.8 -118.75 22.95 L-119.05 22.75 Q-120.95 21.6 -122.8 20.5 L-123.05 20.35 -124.0 19.75 -138.5 11.3 -143.0 8.75 -143.75 8.3 -146.0 7.05 -150.55 4.5 -154.15 2.5 -163.05 -2.6 -165.3 -3.85 -165.3 -3.9 Q-175.85 -10.0 -186.5 -16.35 L-192.6 -20.0 -201.05 -25.1 -202.25 -25.85 -203.3 -26.5 -210.6 -30.95 -218.35 -35.8 -242.15 -50.9 Q-257.6 -60.85 -273.2 -71.3 L-273.3 -71.35 -276.6 -73.4 -283.45 -77.7 Q-304.25 -90.95 -317.75 -101.85 L-317.75 -101.8 -317.8 -101.8 -322.55 -105.75 -322.7 -105.9 Q-334.35 -118.2 -332.1 -131.65 -330.95 -138.45 -326.3 -145.5 L-325.7 -146.35 -325.55 -146.55 -323.85 -148.85 Q-319.55 -154.5 -312.95 -160.25 L-312.9 -160.3 Q-296.8 -173.25 -276.25 -183.5 L-267.05 -187.85 -266.65 -188.05 -266.25 -188.25 -265.95 -188.35 -249.9 -194.9 -248.8 -195.3 -247.75 -195.7 -231.5 -201.15 -229.85 -201.65 -227.65 -202.3 -227.65 -202.35 Q-207.9 -208.3 -188.0 -213.4 -171.7 -217.55 -155.3 -221.1 -136.55 -225.2 -117.6 -228.5 -97.25 -232.1 -76.75 -234.75 L-75.0 -234.95 -74.95 -234.95 Q-54.1 -238.0 -32.1 -239.95 L11.55 -242.8 22.6 -243.2 22.65 -243.2 28.65 -243.35 Q42.65 -243.75 57.05 -243.7 79.75 -243.7 103.45 -242.7 L148.8 -240.15 148.85 -240.15 149.1 -240.1 149.15 -240.1 Q177.95 -237.05 201.05 -233.2 239.1 -226.95 261.5 -218.6 L267.15 -216.4" fill="url(#gradient0)" fill-rule="evenodd" stroke="none"/>
  </g>
  <defs>
    <linearGradient gradientTransform="matrix(0.2805, -0.2744, 0.3159, 0.323, 163.15, -108.4)" gradientUnits="userSpaceOnUse" id="gradient0" spreadMethod="pad" x1="-819.2" x2="819.2">
      <stop offset="0.0" stop-color="#ff0000"/>
      <stop offset="0.16470588235294117" stop-color="#ffff00"/>
      <stop offset="0.3686274509803922" stop-color="#00ff00"/>
      <stop offset="0.4980392156862745" stop-color="#00ffff"/>
      <stop offset="0.6666666666666666" stop-color="#0000ff"/>
      <stop offset="0.8313725490196079" stop-color="#ff00ff"/>
      <stop offset="1.0" stop-color="#ff0000"/>
    </linearGradient>
  </defs>
</svg>
