<?xml version="1.0" encoding="UTF-8" standalone="no"?>
<svg xmlns:xlink="http://www.w3.org/1999/xlink" height="194.25px" width="132.55px" xmlns="http://www.w3.org/2000/svg">
  <g transform="matrix(1.0, 0.0, 0.0, 1.0, 66.3, 97.15)">
    <path d="M-14.35 -70.8 Q-14.0 -76.45 -11.3 -82.5 -8.45 -94.4 0.75 -95.55 L1.3 -96.35 Q2.1 -97.15 3.25 -97.15 4.4 -97.15 5.2 -96.35 L5.85 -95.4 Q15.1 -93.4 16.5 -79.6 18.1 -74.6 18.5 -69.4 L18.55 -68.45 18.55 -64.3 Q18.0 -63.55 17.0 -63.0 13.2 -60.95 2.85 -61.45 -9.95 -62.1 -14.35 -70.8 M0.35 -75.75 L0.2 -75.75 Q-1.5 -75.8 -2.65 -74.25 -3.9 -72.75 -3.85 -70.6 L-3.7 -69.2 Q-3.45 -67.95 -2.65 -67.0 -1.5 -65.5 0.2 -65.5 L0.35 -65.5 Q1.95 -65.55 3.1 -67.0 L3.6 -67.75 3.75 -68.0 Q4.3 -69.15 4.3 -70.6 4.3 -71.8 3.95 -72.8 L3.75 -73.2 3.1 -74.25 Q1.95 -75.7 0.35 -75.75 M13.75 -75.05 Q12.9 -75.1 12.2 -74.65 L11.1 -73.65 Q10.0 -72.25 10.0 -70.2 10.0 -68.75 10.55 -67.6 L11.1 -66.7 Q12.2 -65.3 13.75 -65.3 15.25 -65.3 16.4 -66.7 L17.1 -68.1 17.5 -70.2 Q17.5 -72.25 16.4 -73.65 15.25 -75.1 13.75 -75.05" fill="url(#gradient0)" fill-rule="evenodd" stroke="none"/>
    <path d="M13.75 -75.05 Q15.25 -75.1 16.4 -73.65 17.5 -72.25 17.5 -70.2 L17.1 -68.1 16.4 -66.7 Q15.25 -65.3 13.75 -65.3 12.2 -65.3 11.1 -66.7 L10.55 -67.6 Q10.0 -68.75 10.0 -70.2 10.0 -72.25 11.1 -73.65 L12.2 -74.65 Q12.9 -75.1 13.75 -75.05 M0.35 -75.75 Q1.95 -75.7 3.1 -74.25 L3.75 -73.2 3.95 -72.8 Q4.3 -71.8 4.3 -70.6 4.3 -69.15 3.75 -68.0 L3.6 -67.75 3.1 -67.0 Q1.95 -65.55 0.35 -65.5 L0.2 -65.5 Q-1.5 -65.5 -2.65 -67.0 -3.45 -67.95 -3.7 -69.2 L-3.85 -70.6 Q-3.9 -72.75 -2.65 -74.25 -1.5 -75.8 0.2 -75.75 L0.35 -75.75 M17.2 -70.3 Q17.2 -71.95 16.2 -73.1 15.15 -74.25 13.7 -74.25 12.25 -74.25 11.2 -73.1 10.2 -71.95 10.2 -70.3 10.2 -68.65 11.2 -67.5 12.25 -66.35 13.7 -66.35 15.15 -66.35 16.2 -67.5 17.2 -68.65 17.2 -70.3 M12.0 -70.3 Q11.1 -70.15 11.05 -71.05 11.0 -71.7 11.7 -71.85 L11.8 -71.85 Q12.95 -71.6 12.4 -70.6 12.3 -70.35 12.0 -70.3 M3.65 -70.7 Q3.65 -72.35 2.65 -73.5 1.6 -74.65 0.15 -74.65 -1.3 -74.65 -2.35 -73.5 -3.35 -72.35 -3.35 -70.7 -3.35 -69.05 -2.35 -67.9 -1.3 -66.75 0.15 -66.75 1.6 -66.75 2.65 -67.9 3.65 -69.05 3.65 -70.7 M-1.55 -70.7 Q-2.45 -70.55 -2.5 -71.45 -2.55 -72.1 -1.85 -72.25 L-1.75 -72.3 Q-0.6 -72.0 -1.15 -71.0 L-1.55 -70.7" fill="#ffffff" fill-rule="evenodd" stroke="none"/>
    <path d="M18.55 -68.45 Q21.05 -68.1 23.0 -63.45 25.1 -58.35 26.6 -48.15 39.55 -41.45 52.1 -26.8 L52.1 -25.3 51.95 -25.25 51.95 -20.3 52.1 -20.2 52.1 -19.05 Q48.25 -16.1 41.8 -16.8 46.2 -8.5 48.9 9.4 51.6 27.3 37.35 39.9 31.85 44.75 25.4 48.8 20.8 51.65 15.8 54.15 L12.45 55.75 Q7.2 57.85 1.4 58.05 L-2.4 57.95 Q-8.15 57.5 -14.45 55.3 -20.7 52.65 -26.45 48.55 L-27.8 47.55 Q-32.85 43.75 -37.45 38.85 -53.7 24.1 -47.5 -8.8 -50.5 -9.3 -53.2 -11.6 L-53.2 -12.85 -51.95 -13.3 -51.95 -18.25 -53.2 -19.0 -53.2 -20.0 Q-33.7 -35.85 -24.15 -52.9 L-18.5 -67.65 Q-16.8 -72.0 -15.1 -72.45 L-14.35 -70.8 Q-9.95 -62.1 2.85 -61.45 13.2 -60.95 17.0 -63.0 18.0 -63.55 18.55 -64.3 L18.55 -68.45 M41.8 -16.8 Q38.5 -17.2 34.7 -18.35 38.5 -17.2 41.8 -16.8 M-24.55 -14.55 Q-37.65 -7.25 -47.5 -8.8 -37.65 -7.25 -24.55 -14.55" fill="url(#gradient1)" fill-rule="evenodd" stroke="none"/>
    <path d="M52.1 -25.3 Q56.3 -26.8 59.95 -29.45 62.3 -30.7 62.15 -27.9 L61.95 -26.15 Q61.9 -24.4 63.1 -23.5 L65.2 -22.2 Q67.1 -20.95 65.5 -20.25 L62.9 -19.45 Q61.5 -18.95 61.3 -17.3 L61.2 -15.7 Q60.95 -12.95 58.95 -14.5 L58.7 -14.7 Q55.6 -18.2 52.1 -20.2 L51.95 -20.3 51.95 -25.25 52.1 -25.3" fill="url(#gradient2)" fill-rule="evenodd" stroke="none"/>
    <path d="M-53.2 -12.85 Q-56.8 -11.45 -59.95 -9.1 -62.35 -7.9 -62.15 -10.7 L-62.0 -12.4 Q-61.95 -14.2 -63.15 -15.05 L-65.25 -16.4 Q-67.15 -17.65 -65.55 -18.35 L-62.95 -19.15 Q-61.55 -19.65 -61.35 -21.25 L-61.25 -22.9 Q-61.0 -25.65 -58.95 -24.1 L-58.75 -23.9 Q-56.1 -20.9 -53.2 -19.0 L-51.95 -18.25 -51.95 -13.3 -53.2 -12.85" fill="url(#gradient3)" fill-rule="evenodd" stroke="none"/>
    <path d="M-2.4 57.95 Q-5.9 67.55 -6.15 77.8 -3.7 86.85 -5.65 97.1 -13.3 88.4 -15.0 78.75 -18.35 63.65 -26.45 48.55 -20.7 52.65 -14.45 55.3 -8.15 57.5 -2.4 57.95" fill="url(#gradient4)" fill-rule="evenodd" stroke="none"/>
    <path d="M25.4 48.8 Q15.5 62.05 11.55 78.15 12.4 86.7 10.8 94.7 4.85 86.2 5.25 77.95 5.0 67.3 1.4 58.05 7.2 57.85 12.45 55.75 L15.8 54.15 Q20.8 51.65 25.4 48.8" fill="url(#gradient5)" fill-rule="evenodd" stroke="none"/>
    <path d="M17.2 -70.3 Q17.2 -68.65 16.2 -67.5 15.15 -66.35 13.7 -66.35 12.25 -66.35 11.2 -67.5 10.2 -68.65 10.2 -70.3 10.2 -71.95 11.2 -73.1 12.25 -74.25 13.7 -74.25 15.15 -74.25 16.2 -73.1 17.2 -71.95 17.2 -70.3 M12.0 -70.3 Q12.3 -70.35 12.4 -70.6 12.95 -71.6 11.8 -71.85 L11.7 -71.85 Q11.0 -71.7 11.05 -71.05 11.1 -70.15 12.0 -70.3 M3.65 -70.7 Q3.65 -69.05 2.65 -67.9 1.6 -66.75 0.15 -66.75 -1.3 -66.75 -2.35 -67.9 -3.35 -69.05 -3.35 -70.7 -3.35 -72.35 -2.35 -73.5 -1.3 -74.65 0.15 -74.65 1.6 -74.65 2.65 -73.5 3.65 -72.35 3.65 -70.7 M-1.55 -70.7 L-1.15 -71.0 Q-0.6 -72.0 -1.75 -72.3 L-1.85 -72.25 Q-2.55 -72.1 -2.5 -71.45 -2.45 -70.55 -1.55 -70.7" fill="#884400" fill-rule="evenodd" stroke="none"/>
    <path d="M-14.35 -70.8 Q-14.0 -76.45 -11.3 -82.5 -8.45 -94.4 0.75 -95.55 L1.3 -96.35 Q2.1 -97.15 3.25 -97.15 4.4 -97.15 5.2 -96.35 L5.85 -95.4 Q15.1 -93.4 16.5 -79.6 18.1 -74.6 18.5 -69.4 L18.55 -68.45 Q21.05 -68.1 23.0 -63.45 25.1 -58.35 26.6 -48.15 39.55 -41.45 52.1 -26.8 L52.1 -25.3 Q56.3 -26.8 59.95 -29.45 62.3 -30.7 62.15 -27.9 L61.95 -26.15 Q61.9 -24.4 63.1 -23.5 L65.2 -22.2 Q67.1 -20.95 65.5 -20.25 L62.9 -19.45 Q61.5 -18.95 61.3 -17.3 L61.2 -15.7 Q60.95 -12.95 58.95 -14.5 L58.7 -14.7 Q55.6 -18.2 52.1 -20.2 L52.1 -19.05 Q48.25 -16.1 41.8 -16.8 46.2 -8.5 48.9 9.4 51.6 27.3 37.35 39.9 31.85 44.75 25.4 48.8 15.5 62.05 11.55 78.15 12.4 86.7 10.8 94.7 4.85 86.2 5.25 77.95 5.0 67.3 1.4 58.05 L-2.4 57.95 Q-5.9 67.55 -6.15 77.8 -3.7 86.85 -5.65 97.1 -13.3 88.4 -15.0 78.75 -18.35 63.65 -26.45 48.55 L-27.8 47.55 Q-32.85 43.75 -37.45 38.85 -53.7 24.1 -47.5 -8.8 -50.5 -9.3 -53.2 -11.6 L-53.2 -12.85 Q-56.8 -11.45 -59.95 -9.1 -62.35 -7.9 -62.15 -10.7 L-62.0 -12.4 Q-61.95 -14.2 -63.15 -15.05 L-65.25 -16.4 Q-67.15 -17.65 -65.55 -18.35 L-62.95 -19.15 Q-61.55 -19.65 -61.35 -21.25 L-61.25 -22.9 Q-61.0 -25.65 -58.95 -24.1 L-58.75 -23.9 Q-56.1 -20.9 -53.2 -19.0 L-53.2 -20.0 Q-33.7 -35.85 -24.15 -52.9 L-18.5 -67.65 Q-16.8 -72.0 -15.1 -72.45 L-14.35 -70.8 Q-9.95 -62.1 2.85 -61.45 13.2 -60.95 17.0 -63.0 18.0 -63.55 18.55 -64.3 L18.55 -68.45 M13.75 -75.05 Q15.25 -75.1 16.4 -73.65 17.5 -72.25 17.5 -70.2 L17.1 -68.1 16.4 -66.7 Q15.25 -65.3 13.75 -65.3 12.2 -65.3 11.1 -66.7 L10.55 -67.6 Q10.0 -68.75 10.0 -70.2 10.0 -72.25 11.1 -73.65 L12.2 -74.65 Q12.9 -75.1 13.75 -75.05 M0.35 -75.75 Q1.95 -75.7 3.1 -74.25 L3.75 -73.2 3.95 -72.8 Q4.3 -71.8 4.3 -70.6 4.3 -69.15 3.75 -68.0 L3.6 -67.75 3.1 -67.0 Q1.95 -65.55 0.35 -65.5 L0.2 -65.5 Q-1.5 -65.5 -2.65 -67.0 -3.45 -67.95 -3.7 -69.2 L-3.85 -70.6 Q-3.9 -72.75 -2.65 -74.25 -1.5 -75.8 0.2 -75.75 L0.35 -75.75 M51.95 -25.25 L52.1 -25.3 M52.1 -20.2 L51.95 -20.3 M34.7 -18.35 Q38.5 -17.2 41.8 -16.8 M1.4 58.05 Q7.2 57.85 12.45 55.75 L15.8 54.15 Q20.8 51.65 25.4 48.8 M-53.2 -12.85 L-51.95 -13.3 M-51.95 -18.25 L-53.2 -19.0 M-47.5 -8.8 Q-37.65 -7.25 -24.55 -14.55 M-26.45 48.55 Q-20.7 52.65 -14.45 55.3 -8.15 57.5 -2.4 57.95" fill="none" stroke="#d75600" stroke-linecap="round" stroke-linejoin="round" stroke-width="0.05"/>
  </g>
  <defs>
    <radialGradient cx="0" cy="0" gradientTransform="matrix(0.0271, 0.0, 0.0, 0.0271, 4.8, -80.1)" gradientUnits="userSpaceOnUse" id="gradient0" r="819.2" spreadMethod="pad">
      <stop offset="0.0" stop-color="#ff6600"/>
      <stop offset="0.5294117647058824" stop-color="#ff9900"/>
      <stop offset="1.0" stop-color="#ff6600"/>
    </radialGradient>
    <radialGradient cx="0" cy="0" gradientTransform="matrix(0.1111, 0.0, 0.0, 0.1111, 24.1, 8.85)" gradientUnits="userSpaceOnUse" id="gradient1" r="819.2" spreadMethod="pad">
      <stop offset="0.0" stop-color="#ff6600"/>
      <stop offset="0.5294117647058824" stop-color="#ff9900"/>
      <stop offset="1.0" stop-color="#ff6600"/>
    </radialGradient>
    <radialGradient cx="0" cy="0" gradientTransform="matrix(0.0, -0.0158, 0.0158, 0.0, 57.7, -26.6)" gradientUnits="userSpaceOnUse" id="gradient2" r="819.2" spreadMethod="pad">
      <stop offset="0.0" stop-color="#ff6600"/>
      <stop offset="0.5294117647058824" stop-color="#ff9900"/>
      <stop offset="1.0" stop-color="#ff6600"/>
    </radialGradient>
    <radialGradient cx="0" cy="0" gradientTransform="matrix(0.0, 0.0158, -0.0158, 0.0, -57.75, -12.0)" gradientUnits="userSpaceOnUse" id="gradient3" r="819.2" spreadMethod="pad">
      <stop offset="0.0" stop-color="#ff6600"/>
      <stop offset="0.5294117647058824" stop-color="#ff9900"/>
      <stop offset="1.0" stop-color="#ff6600"/>
    </radialGradient>
    <radialGradient cx="0" cy="0" gradientTransform="matrix(0.0422, 0.0, 0.0, 0.0422, -10.5, 63.15)" gradientUnits="userSpaceOnUse" id="gradient4" r="819.2" spreadMethod="pad">
      <stop offset="0.0" stop-color="#ff6600"/>
      <stop offset="0.5294117647058824" stop-color="#ff9900"/>
      <stop offset="1.0" stop-color="#ff6600"/>
    </radialGradient>
    <radialGradient cx="0" cy="0" gradientTransform="matrix(0.0464, 0.0, 0.0, 0.0464, 9.8, 56.65)" gradientUnits="userSpaceOnUse" id="gradient5" r="819.2" spreadMethod="pad">
      <stop offset="0.0" stop-color="#ff6600"/>
      <stop offset="0.5294117647058824" stop-color="#ff9900"/>
      <stop offset="1.0" stop-color="#ff6600"/>
    </radialGradient>
  </defs>
</svg>
