<?xml version="1.0" encoding="UTF-8" standalone="no"?>
<svg xmlns:xlink="http://www.w3.org/1999/xlink" height="190.15px" width="96.3px" xmlns="http://www.w3.org/2000/svg">
  <g transform="matrix(1.0, 0.0, 0.0, 1.0, 48.15, 95.1)">
    <path d="M-14.3 -71.65 Q-14.75 -90.05 -3.15 -93.1 L-1.05 -93.25 -0.4 -94.3 Q0.4 -95.1 1.55 -95.1 2.7 -95.1 3.5 -94.3 4.15 -93.65 4.3 -92.75 12.15 -90.8 15.6 -81.1 17.0 -73.9 18.65 -69.2 20.9 -61.55 19.05 -57.9 L18.9 -57.95 Q2.3 -62.9 -14.3 -71.65 M16.6 -68.1 Q16.6 -70.1 15.85 -71.5 15.1 -72.85 14.05 -72.85 13.0 -72.85 12.25 -71.5 11.55 -70.1 11.55 -68.1 11.55 -66.1 12.25 -64.75 13.0 -63.3 14.05 -63.3 15.1 -63.3 15.85 -64.75 16.6 -66.1 16.6 -68.1" fill="url(#gradient0)" fill-rule="evenodd" stroke="none"/>
    <path d="M16.3 -68.15 Q16.3 -69.6 15.65 -70.65 15.0 -71.65 14.05 -71.65 13.1 -71.65 12.45 -70.65 11.8 -69.6 11.8 -68.15 11.8 -66.7 12.45 -65.7 13.1 -64.65 14.05 -64.65 15.0 -64.65 15.65 -65.7 16.3 -66.7 16.3 -68.15 M16.6 -68.1 Q16.6 -66.1 15.85 -64.75 15.1 -63.3 14.05 -63.3 13.0 -63.3 12.25 -64.75 11.55 -66.1 11.55 -68.1 11.55 -70.1 12.25 -71.5 13.0 -72.85 14.05 -72.85 15.1 -72.85 15.85 -71.5 16.6 -70.1 16.6 -68.1 M13.3 -70.1 Q14.45 -69.85 13.9 -68.85 13.8 -68.6 13.5 -68.55 12.6 -68.4 12.55 -69.3 12.5 -69.95 13.2 -70.1 L13.3 -70.1" fill="#ffffff" fill-rule="evenodd" stroke="none"/>
    <path d="M-14.3 -71.65 Q2.3 -62.9 18.9 -57.95 L19.05 -57.9 20.15 -57.5 Q25.8 -55.25 26.6 -49.0 28.35 -33.55 34.8 -20.4 45.2 -2.75 47.85 17.2 50.5 37.1 27.75 54.2 21.8 58.75 12.15 61.35 7.45 62.55 2.05 62.8 L-7.25 62.4 Q-15.35 61.05 -22.0 56.4 -28.65 51.8 -33.85 44.0 -49.35 22.85 -48.05 -8.2 -47.55 -30.55 -24.5 -53.7 -21.65 -57.4 -20.4 -61.75 -19.35 -68.25 -16.2 -72.65 L-14.3 -71.65 M-12.7 -10.25 L-17.75 -9.75 -23.15 -10.1 -23.55 -10.1 Q-26.55 -10.0 -24.65 -7.25 L-23.5 -5.7 Q-22.45 -4.1 -23.3 -2.55 L-25.05 0.15 Q-25.95 2.05 -23.25 1.7 L-20.35 1.25 Q-18.6 1.1 -17.25 2.75 L-16.1 4.45 Q-14.1 7.15 -12.9 4.2 -12.0 0.3 -10.3 -3.2 L-8.9 -5.8 -12.7 -10.25 M-8.0 -40.8 Q-20.05 -35.95 -17.75 -9.75 -20.05 -35.95 -8.0 -40.8 M12.65 -14.45 Q12.5 -1.65 -10.3 -3.2 12.5 -1.65 12.65 -14.45" fill="url(#gradient1)" fill-rule="evenodd" stroke="none"/>
    <path d="M-8.9 -5.8 L-10.3 -3.2 Q-12.0 0.3 -12.9 4.2 -14.1 7.15 -16.1 4.45 L-17.25 2.75 Q-18.6 1.1 -20.35 1.25 L-23.25 1.7 Q-25.95 2.05 -25.05 0.15 L-23.3 -2.55 Q-22.45 -4.1 -23.5 -5.7 L-24.65 -7.25 Q-26.55 -10.0 -23.55 -10.1 L-23.15 -10.1 -17.75 -9.75 -12.7 -10.25 -8.9 -5.8" fill="url(#gradient2)" fill-rule="evenodd" stroke="none"/>
    <path d="M-2.2 88.45 Q4.65 91.55 7.15 94.95 -4.25 95.7 -12.9 90.25 -16.4 70.1 -22.0 56.4 -15.35 61.05 -7.25 62.4 L2.05 62.8 Q-4.0 73.4 -5.85 87.1 L-2.75 88.25 -2.2 88.45" fill="url(#gradient3)" fill-rule="evenodd" stroke="none"/>
    <path d="M12.15 61.35 Q7.0 66.8 2.55 80.4 8.35 85.4 15.4 88.65 6.8 90.2 -2.2 88.45 L-2.75 88.25 -5.85 87.1 Q-4.0 73.4 2.05 62.8 7.45 62.55 12.15 61.35" fill="url(#gradient4)" fill-rule="evenodd" stroke="none"/>
    <path d="M16.3 -68.15 Q16.3 -66.7 15.65 -65.7 15.0 -64.65 14.05 -64.65 13.1 -64.65 12.45 -65.7 11.8 -66.7 11.8 -68.15 11.8 -69.6 12.45 -70.65 13.1 -71.65 14.05 -71.65 15.0 -71.65 15.65 -70.65 16.3 -69.6 16.3 -68.15 M13.3 -70.1 L13.2 -70.1 Q12.5 -69.95 12.55 -69.3 12.6 -68.4 13.5 -68.55 13.8 -68.6 13.9 -68.85 14.45 -69.85 13.3 -70.1" fill="#884400" fill-rule="evenodd" stroke="none"/>
    <path d="M19.05 -57.9 Q20.9 -61.55 18.65 -69.2 17.0 -73.9 15.6 -81.1 12.15 -90.8 4.3 -92.75 4.15 -93.65 3.5 -94.3 2.7 -95.1 1.55 -95.1 0.4 -95.1 -0.4 -94.3 L-1.05 -93.25 -3.15 -93.1 Q-14.75 -90.05 -14.3 -71.65 2.3 -62.9 18.9 -57.95 L19.05 -57.9 20.15 -57.5 Q25.8 -55.25 26.6 -49.0 28.35 -33.55 34.8 -20.4 45.2 -2.75 47.85 17.2 50.5 37.1 27.75 54.2 21.8 58.75 12.15 61.35 7.0 66.8 2.55 80.4 8.35 85.4 15.4 88.65 6.8 90.2 -2.2 88.45 4.65 91.55 7.15 94.95 -4.25 95.7 -12.9 90.25 -16.4 70.1 -22.0 56.4 -28.65 51.8 -33.85 44.0 -49.35 22.85 -48.05 -8.2 -47.55 -30.55 -24.5 -53.7 -21.65 -57.4 -20.4 -61.75 -19.35 -68.25 -16.2 -72.65 L-14.3 -71.65 M16.6 -68.1 Q16.6 -66.1 15.85 -64.75 15.1 -63.3 14.05 -63.3 13.0 -63.3 12.25 -64.75 11.55 -66.1 11.55 -68.1 11.55 -70.1 12.25 -71.5 13.0 -72.85 14.05 -72.85 15.1 -72.85 15.85 -71.5 16.6 -70.1 16.6 -68.1 M12.15 61.35 Q7.45 62.55 2.05 62.8 -4.0 73.4 -5.85 87.1 L-2.75 88.25 -2.2 88.45 M-12.7 -10.25 L-17.75 -9.75 -23.15 -10.1 -23.55 -10.1 Q-26.55 -10.0 -24.65 -7.25 L-23.5 -5.7 Q-22.45 -4.1 -23.3 -2.55 L-25.05 0.15 Q-25.95 2.05 -23.25 1.7 L-20.35 1.25 Q-18.6 1.1 -17.25 2.75 L-16.1 4.45 Q-14.1 7.15 -12.9 4.2 -12.0 0.3 -10.3 -3.2 L-8.9 -5.8 M-17.75 -9.75 Q-20.05 -35.95 -8.0 -40.8 M-22.0 56.4 Q-15.35 61.05 -7.25 62.4 L2.05 62.8 M-10.3 -3.2 Q12.5 -1.65 12.65 -14.45" fill="none" stroke="#d75600" stroke-linecap="round" stroke-linejoin="round" stroke-width="0.05"/>
  </g>
  <defs>
    <radialGradient cx="0" cy="0" gradientTransform="matrix(0.0307, 0.0, 0.0, 0.0307, 0.0, -71.65)" gradientUnits="userSpaceOnUse" id="gradient0" r="819.2" spreadMethod="pad">
      <stop offset="0.0" stop-color="#ff6600"/>
      <stop offset="0.5294117647058824" stop-color="#ff9900"/>
      <stop offset="1.0" stop-color="#ff6600"/>
    </radialGradient>
    <radialGradient cx="0" cy="0" gradientTransform="matrix(0.1187, 0.0, 0.0, 0.1187, -3.0, 23.7)" gradientUnits="userSpaceOnUse" id="gradient1" r="819.2" spreadMethod="pad">
      <stop offset="0.0" stop-color="#ff6600"/>
      <stop offset="0.5294117647058824" stop-color="#ff9900"/>
      <stop offset="1.0" stop-color="#ff6600"/>
    </radialGradient>
    <radialGradient cx="0" cy="0" gradientTransform="matrix(0.0122, 0.0143, -0.0143, 0.0122, -13.1, -0.15)" gradientUnits="userSpaceOnUse" id="gradient2" r="819.2" spreadMethod="pad">
      <stop offset="0.0" stop-color="#ff6600"/>
      <stop offset="0.5294117647058824" stop-color="#ff9900"/>
      <stop offset="1.0" stop-color="#ff6600"/>
    </radialGradient>
    <radialGradient cx="0" cy="0" gradientTransform="matrix(0.0424, 0.0, 0.0, 0.0424, -5.85, 87.1)" gradientUnits="userSpaceOnUse" id="gradient3" r="819.2" spreadMethod="pad">
      <stop offset="0.0" stop-color="#ff6600"/>
      <stop offset="0.5294117647058824" stop-color="#ff9900"/>
      <stop offset="1.0" stop-color="#ff6600"/>
    </radialGradient>
    <radialGradient cx="0" cy="0" gradientTransform="matrix(0.0271, 0.0, 0.0, 0.0271, 2.55, 80.4)" gradientUnits="userSpaceOnUse" id="gradient4" r="819.2" spreadMethod="pad">
      <stop offset="0.0" stop-color="#ff6600"/>
      <stop offset="0.5294117647058824" stop-color="#ff9900"/>
      <stop offset="1.0" stop-color="#ff6600"/>
    </radialGradient>
  </defs>
</svg>
