<?xml version="1.0" encoding="UTF-8" standalone="no"?>
<svg xmlns:xlink="http://www.w3.org/1999/xlink" height="185.3px" width="110.0px" xmlns="http://www.w3.org/2000/svg">
  <g transform="matrix(1.0, 0.0, 0.0, 1.0, 55.0, 92.65)">
    <path d="M11.4 -61.85 Q16.65 -58.05 18.6 -44.95 19.7 -40.3 23.95 -36.65 32.5 -29.75 39.05 -17.35 43.95 -13.9 46.55 -13.65 L45.85 -12.55 43.4 -12.6 41.5 -8.05 42.2 -7.1 41.45 -6.0 Q34.05 -7.2 30.75 -9.0 L39.3 12.7 Q47.4 34.4 23.85 50.35 L17.3 54.3 16.9 54.55 Q3.8 61.3 -9.45 60.45 L-10.05 60.4 -11.15 60.3 Q-16.3 59.75 -22.6 57.7 L-23.65 57.35 -23.9 57.25 -24.95 56.65 -25.05 56.55 Q-42.45 45.85 -51.75 17.2 -62.2 -20.8 -39.3 -41.3 -31.8 -49.05 -27.85 -57.7 -25.65 -68.15 -22.7 -69.1 -5.2 -69.75 11.4 -61.85 M14.45 -24.35 Q22.6 -13.5 30.75 -9.0 22.6 -13.5 14.45 -24.35" fill="url(#gradient0)" fill-rule="evenodd" stroke="none"/>
    <path d="M45.85 -12.55 Q49.15 -12.6 52.4 -13.4 55.1 -13.65 53.85 -11.1 L53.0 -9.55 Q52.25 -7.95 53.05 -6.65 L54.45 -4.65 Q55.75 -2.75 54.0 -2.7 L51.3 -3.0 Q49.8 -3.1 49.0 -1.65 L48.25 -0.2 Q46.9 2.25 45.7 0.05 L45.55 -0.25 Q44.2 -4.15 42.2 -7.1 L41.5 -8.05 43.4 -12.6 45.85 -12.55" fill="url(#gradient1)" fill-rule="evenodd" stroke="none"/>
    <path d="M-22.7 -69.1 Q-21.5 -81.7 -15.75 -86.85 -12.25 -89.9 -8.7 -90.6 L-8.0 -91.85 Q-7.2 -92.65 -6.05 -92.65 -4.9 -92.65 -4.1 -91.85 -3.45 -91.2 -3.3 -90.25 -0.45 -89.35 2.4 -86.85 13.45 -72.25 11.4 -61.85 -5.2 -69.75 -22.7 -69.1" fill="url(#gradient2)" fill-rule="evenodd" stroke="none"/>
    <path d="M16.9 54.55 Q5.6 63.15 -1.5 79.7 L-3.8 85.5 0.5 84.75 Q-1.0 93.25 -11.4 92.6 L-11.3 91.6 Q-9.9 75.7 -11.15 60.3 L-10.05 60.4 -9.45 60.45 Q3.8 61.3 16.9 54.55 M-4.75 87.95 L-3.8 85.5 -4.75 87.95" fill="url(#gradient3)" fill-rule="evenodd" stroke="none"/>
    <path d="M-11.3 91.6 L-15.25 91.45 -15.5 84.65 -16.1 80.15 Q-17.95 68.25 -24.95 56.65 L-23.9 57.25 -23.65 57.35 -22.6 57.7 Q-16.3 59.75 -11.15 60.3 -9.9 75.7 -11.3 91.6" fill="url(#gradient4)" fill-rule="evenodd" stroke="none"/>
    <path d="M11.4 -61.85 Q16.65 -58.05 18.6 -44.95 19.7 -40.3 23.95 -36.65 32.5 -29.75 39.05 -17.35 43.95 -13.9 46.55 -13.65 L45.85 -12.55 Q49.15 -12.6 52.4 -13.4 55.1 -13.65 53.85 -11.1 L53.0 -9.55 Q52.25 -7.95 53.05 -6.65 L54.45 -4.65 Q55.75 -2.75 54.0 -2.7 L51.3 -3.0 Q49.8 -3.1 49.0 -1.65 L48.25 -0.2 Q46.9 2.25 45.7 0.05 L45.55 -0.25 Q44.2 -4.15 42.2 -7.1 L41.45 -6.0 Q34.05 -7.2 30.75 -9.0 L39.3 12.7 Q47.4 34.4 23.85 50.35 L17.3 54.3 16.9 54.55 Q5.6 63.15 -1.5 79.7 L-3.8 85.5 0.5 84.75 Q-1.0 93.25 -11.4 92.6 L-11.3 91.6 -15.25 91.45 -15.5 84.65 -16.1 80.15 Q-17.95 68.25 -24.95 56.65 L-25.05 56.55 Q-42.45 45.85 -51.75 17.2 -62.2 -20.8 -39.3 -41.3 -31.8 -49.05 -27.85 -57.7 -25.65 -68.15 -22.7 -69.1 -21.5 -81.7 -15.75 -86.85 -12.25 -89.9 -8.7 -90.6 L-8.0 -91.85 Q-7.2 -92.65 -6.05 -92.65 -4.9 -92.65 -4.1 -91.85 -3.45 -91.2 -3.3 -90.25 -0.45 -89.35 2.4 -86.85 13.45 -72.25 11.4 -61.85 -5.2 -69.75 -22.7 -69.1 M45.85 -12.55 L43.4 -12.6 M41.5 -8.05 L42.2 -7.1 M30.75 -9.0 Q22.6 -13.5 14.45 -24.35 M-11.15 60.3 L-10.05 60.4 -9.45 60.45 Q3.8 61.3 16.9 54.55 M-24.95 56.65 L-23.9 57.25 -23.65 57.35 -22.6 57.7 Q-16.3 59.75 -11.15 60.3 -9.9 75.7 -11.3 91.6 M-3.8 85.5 L-4.75 87.95" fill="none" stroke="#d75600" stroke-linecap="round" stroke-linejoin="round" stroke-width="0.05"/>
  </g>
  <defs>
    <radialGradient cx="0" cy="0" gradientTransform="matrix(0.1119, 0.0, 0.0, 0.1119, 27.4, -18.35)" gradientUnits="userSpaceOnUse" id="gradient0" r="819.2" spreadMethod="pad">
      <stop offset="0.0" stop-color="#ff6600"/>
      <stop offset="0.5294117647058824" stop-color="#ff9900"/>
      <stop offset="1.0" stop-color="#ff6600"/>
    </radialGradient>
    <radialGradient cx="0" cy="0" gradientTransform="matrix(0.0061, -0.0146, 0.0146, 0.0061, 49.25, -11.6)" gradientUnits="userSpaceOnUse" id="gradient1" r="819.2" spreadMethod="pad">
      <stop offset="0.0" stop-color="#ff6600"/>
      <stop offset="0.5294117647058824" stop-color="#ff9900"/>
      <stop offset="1.0" stop-color="#ff6600"/>
    </radialGradient>
    <radialGradient cx="0" cy="0" gradientTransform="matrix(0.0284, 0.0, 0.0, 0.0284, -6.5, -76.3)" gradientUnits="userSpaceOnUse" id="gradient2" r="819.2" spreadMethod="pad">
      <stop offset="0.0" stop-color="#ff6600"/>
      <stop offset="0.5294117647058824" stop-color="#ff9900"/>
      <stop offset="1.0" stop-color="#ff6600"/>
    </radialGradient>
    <radialGradient cx="0" cy="0" gradientTransform="matrix(0.0397, 0.0, 0.0, 0.0397, -6.15, 60.55)" gradientUnits="userSpaceOnUse" id="gradient3" r="819.2" spreadMethod="pad">
      <stop offset="0.0" stop-color="#ff6600"/>
      <stop offset="0.5294117647058824" stop-color="#ff9900"/>
      <stop offset="1.0" stop-color="#ff6600"/>
    </radialGradient>
    <radialGradient cx="0" cy="0" gradientTransform="matrix(0.0296, 0.0, 0.0, 0.0296, -10.65, 68.55)" gradientUnits="userSpaceOnUse" id="gradient4" r="819.2" spreadMethod="pad">
      <stop offset="0.0" stop-color="#ff6600"/>
      <stop offset="0.5294117647058824" stop-color="#ff9900"/>
      <stop offset="1.0" stop-color="#ff6600"/>
    </radialGradient>
  </defs>
</svg>
