<?xml version="1.0" encoding="UTF-8" standalone="no"?>
<svg xmlns:xlink="http://www.w3.org/1999/xlink" height="188.8px" width="111.3px" xmlns="http://www.w3.org/2000/svg">
  <g transform="matrix(1.0, 0.0, 0.0, 1.0, 154.15, 190.4)">
    <path d="M-145.35 -93.55 L-145.4 -93.5 -145.45 -93.6 -145.35 -93.55" fill="url(#gradient0)" fill-rule="evenodd" stroke="none"/>
    <path d="M-104.25 -162.3 Q-102.8 -160.85 -102.8 -158.85 -102.8 -157.55 -103.4 -156.5 L-104.25 -155.45 -105.4 -154.55 Q-106.05 -154.25 -106.8 -154.1 L-107.65 -154.05 Q-109.65 -154.05 -111.05 -155.45 -112.45 -156.85 -112.45 -158.85 -112.45 -160.85 -111.05 -162.3 -109.65 -163.7 -107.65 -163.7 -106.35 -163.7 -105.25 -163.05 L-104.25 -162.3 M-104.8 -161.55 Q-105.95 -162.7 -107.65 -162.7 -109.35 -162.7 -110.55 -161.55 -111.7 -160.35 -111.7 -158.65 -111.7 -156.95 -110.55 -155.8 -109.35 -154.6 -107.65 -154.6 L-107.3 -154.6 Q-105.85 -154.7 -104.8 -155.8 -104.25 -156.35 -103.9 -157.0 -103.6 -157.75 -103.6 -158.65 -103.6 -160.35 -104.8 -161.55 M-109.6 -160.55 L-109.1 -160.8 Q-107.7 -160.25 -108.75 -159.25 L-109.3 -159.15 Q-110.45 -159.65 -109.6 -160.55 M-91.65 -162.3 Q-93.35 -162.3 -94.55 -161.15 -95.7 -159.95 -95.7 -158.25 -95.7 -156.55 -94.55 -155.4 -93.35 -154.2 -91.65 -154.2 L-91.3 -154.2 Q-89.85 -154.3 -88.8 -155.4 L-87.9 -156.6 Q-87.6 -157.35 -87.6 -158.25 -87.6 -159.95 -88.8 -161.15 -89.95 -162.3 -91.65 -162.3 M-91.7 -162.9 Q-89.7 -162.9 -88.3 -161.5 -86.9 -160.1 -86.85 -158.1 -86.9 -156.1 -88.3 -154.7 -89.7 -153.25 -91.7 -153.25 -93.7 -153.25 -95.15 -154.7 -96.55 -156.1 -96.55 -158.1 -96.55 -160.1 -95.15 -161.5 -93.7 -162.9 -91.7 -162.9 M-93.15 -160.1 Q-91.75 -159.6 -92.8 -158.55 L-93.35 -158.45 Q-94.5 -159.0 -93.65 -159.85 L-93.15 -160.1" fill="#ffffff" fill-rule="evenodd" stroke="none"/>
    <path d="M-82.5 -159.25 Q-78.95 -160.1 -74.3 -144.35 -72.1 -138.0 -68.35 -132.4 -55.2 -114.8 -50.2 -91.95 L-50.45 -91.85 -51.55 -92.75 -55.85 -90.3 -55.85 -89.7 Q-55.9 -85.85 -57.3 -81.6 L-57.35 -81.3 Q-57.75 -78.8 -55.2 -79.95 L-53.75 -80.65 -52.55 -80.9 Q-52.8 -67.45 -60.2 -56.85 -65.55 -48.2 -75.4 -43.0 -82.0 -39.5 -90.65 -37.55 -96.05 -37.35 -101.0 -37.7 L-106.0 -38.25 Q-118.0 -39.9 -127.3 -45.0 -136.75 -50.2 -143.4 -58.95 -148.7 -69.85 -149.6 -81.55 L-149.4 -81.65 -147.2 -82.8 Q-145.9 -83.4 -144.35 -82.45 L-142.95 -81.45 Q-140.6 -79.9 -140.5 -82.55 -140.95 -86.8 -140.25 -90.95 L-140.1 -91.6 Q-142.25 -92.85 -144.4 -94.05 L-145.35 -93.55 -145.45 -93.6 -145.4 -93.5 Q-147.35 -92.5 -149.55 -91.8 L-148.85 -97.55 Q-146.8 -110.25 -138.45 -122.95 L-133.75 -129.55 Q-124.4 -140.65 -122.4 -155.75 -121.1 -161.0 -117.7 -161.5 -122.9 -155.75 -108.05 -152.05 -96.55 -150.45 -89.5 -152.05 -81.65 -154.7 -82.5 -159.25 M-119.35 -113.35 Q-127.2 -101.15 -139.3 -90.5 L-140.25 -90.95 -139.3 -90.5 Q-127.2 -101.15 -119.35 -113.35 M-76.75 -114.8 Q-67.7 -99.0 -56.35 -89.5 L-55.85 -89.7 -56.35 -89.5 Q-67.7 -99.0 -76.75 -114.8 M-138.45 -122.95 Q-144.45 -107.95 -145.45 -93.6 -144.45 -107.95 -138.45 -122.95" fill="url(#gradient1)" fill-rule="evenodd" stroke="none"/>
    <path d="M-106.0 -38.25 Q-110.55 -28.6 -113.15 -18.35 -113.25 -9.5 -115.8 -1.6 -118.2 -10.1 -117.8 -18.65 -120.45 -32.5 -127.3 -45.0 -118.0 -39.9 -106.0 -38.25" fill="url(#gradient2)" fill-rule="evenodd" stroke="none"/>
    <path d="M-75.4 -43.0 Q-88.05 -31.1 -89.75 -17.4 -87.2 -9.55 -86.65 -2.2 -93.2 -9.0 -96.4 -17.1 -97.7 -27.4 -101.0 -37.7 -96.05 -37.35 -90.65 -37.55 -82.0 -39.5 -75.4 -43.0" fill="url(#gradient3)" fill-rule="evenodd" stroke="none"/>
    <path d="M-149.6 -81.55 Q-151.45 -80.7 -151.25 -82.35 L-150.65 -85.0 Q-150.4 -86.45 -151.7 -87.45 L-153.05 -88.35 Q-155.3 -89.95 -152.95 -90.9 L-152.65 -91.0 -149.55 -91.8 Q-147.35 -92.5 -145.4 -93.5 L-145.35 -93.55 -144.4 -94.05 Q-142.25 -92.85 -140.1 -91.6 L-140.25 -90.95 Q-140.95 -86.8 -140.5 -82.55 -140.6 -79.9 -142.95 -81.45 L-144.35 -82.45 Q-145.9 -83.4 -147.2 -82.8 L-149.4 -81.65 -149.6 -81.55" fill="url(#gradient4)" fill-rule="evenodd" stroke="none"/>
    <path d="M-50.45 -91.85 Q-47.45 -89.5 -43.9 -87.95 -41.65 -86.5 -44.15 -85.25 L-45.75 -84.55 Q-47.35 -83.7 -47.45 -82.2 L-47.55 -79.75 Q-47.7 -77.45 -49.1 -78.5 L-51.1 -80.35 Q-51.75 -80.9 -52.55 -80.9 L-53.75 -80.65 -55.2 -79.95 Q-57.75 -78.8 -57.35 -81.3 L-57.3 -81.6 Q-55.9 -85.85 -55.85 -89.7 L-55.85 -90.3 -51.55 -92.75 -50.45 -91.85" fill="url(#gradient5)" fill-rule="evenodd" stroke="none"/>
    <path d="M-117.7 -161.5 Q-115.5 -165.2 -114.4 -173.9 L-114.2 -174.65 Q-111.55 -186.5 -102.45 -188.2 L-102.15 -189.0 -101.7 -189.6 Q-100.9 -190.4 -99.75 -190.4 -98.6 -190.4 -97.8 -189.6 L-97.35 -189.0 -97.05 -188.2 Q-86.2 -185.75 -84.7 -172.65 L-84.6 -171.85 Q-84.2 -163.75 -82.5 -159.25 -81.65 -154.7 -89.5 -152.05 -96.55 -150.45 -108.05 -152.05 -122.9 -155.75 -117.7 -161.5 M-104.25 -162.3 L-105.25 -163.05 Q-106.35 -163.7 -107.65 -163.7 -109.65 -163.7 -111.05 -162.3 -112.45 -160.85 -112.45 -158.85 -112.45 -156.85 -111.05 -155.45 -109.65 -154.05 -107.65 -154.05 L-106.8 -154.1 Q-106.05 -154.25 -105.4 -154.55 L-104.25 -155.45 -103.4 -156.5 Q-102.8 -157.55 -102.8 -158.85 -102.8 -160.85 -104.25 -162.3 M-91.7 -162.9 Q-93.7 -162.9 -95.15 -161.5 -96.55 -160.1 -96.55 -158.1 -96.55 -156.1 -95.15 -154.7 -93.7 -153.25 -91.7 -153.25 -89.7 -153.25 -88.3 -154.7 -86.9 -156.1 -86.85 -158.1 -86.9 -160.1 -88.3 -161.5 -89.7 -162.9 -91.7 -162.9" fill="url(#gradient6)" fill-rule="evenodd" stroke="none"/>
    <path d="M-104.8 -161.55 Q-103.6 -160.35 -103.6 -158.65 -103.6 -157.75 -103.9 -157.0 -104.25 -156.35 -104.8 -155.8 -105.85 -154.7 -107.3 -154.6 L-107.65 -154.6 Q-109.35 -154.6 -110.55 -155.8 -111.7 -156.95 -111.7 -158.65 -111.7 -160.35 -110.55 -161.55 -109.35 -162.7 -107.65 -162.7 -105.95 -162.7 -104.8 -161.55 M-109.6 -160.55 Q-110.45 -159.65 -109.3 -159.15 L-108.75 -159.25 Q-107.7 -160.25 -109.1 -160.8 L-109.6 -160.55 M-91.65 -162.3 Q-89.95 -162.3 -88.8 -161.15 -87.6 -159.95 -87.6 -158.25 -87.6 -157.35 -87.9 -156.6 L-88.8 -155.4 Q-89.85 -154.3 -91.3 -154.2 L-91.65 -154.2 Q-93.35 -154.2 -94.55 -155.4 -95.7 -156.55 -95.7 -158.25 -95.7 -159.95 -94.55 -161.15 -93.35 -162.3 -91.65 -162.3 M-93.15 -160.1 L-93.65 -159.85 Q-94.5 -159.0 -93.35 -158.45 L-92.8 -158.55 Q-91.75 -159.6 -93.15 -160.1" fill="#884400" fill-rule="evenodd" stroke="none"/>
    <path d="M-82.5 -159.25 Q-78.95 -160.1 -74.3 -144.35 -72.1 -138.0 -68.35 -132.4 -55.2 -114.8 -50.2 -91.95 L-50.45 -91.85 Q-47.45 -89.5 -43.9 -87.95 -41.65 -86.5 -44.15 -85.25 L-45.75 -84.55 Q-47.35 -83.7 -47.45 -82.2 L-47.55 -79.75 Q-47.7 -77.45 -49.1 -78.5 L-51.1 -80.35 Q-51.75 -80.9 -52.55 -80.9 -52.8 -67.45 -60.2 -56.85 -65.55 -48.2 -75.4 -43.0 -88.05 -31.1 -89.75 -17.4 -87.2 -9.55 -86.65 -2.2 -93.2 -9.0 -96.4 -17.1 -97.7 -27.4 -101.0 -37.7 L-106.0 -38.25 Q-110.55 -28.6 -113.15 -18.35 -113.25 -9.5 -115.8 -1.6 -118.2 -10.1 -117.8 -18.65 -120.45 -32.5 -127.3 -45.0 -136.75 -50.2 -143.4 -58.95 -148.7 -69.85 -149.6 -81.55 -151.45 -80.7 -151.25 -82.35 L-150.65 -85.0 Q-150.4 -86.45 -151.7 -87.45 L-153.05 -88.35 Q-155.3 -89.95 -152.95 -90.9 L-152.65 -91.0 -149.55 -91.8 -148.85 -97.55 Q-146.8 -110.25 -138.45 -122.95 L-133.75 -129.55 Q-124.4 -140.65 -122.4 -155.75 -121.1 -161.0 -117.7 -161.5 -115.5 -165.2 -114.4 -173.9 L-114.2 -174.65 Q-111.55 -186.5 -102.45 -188.2 L-102.15 -189.0 -101.7 -189.6 Q-100.9 -190.4 -99.75 -190.4 -98.6 -190.4 -97.8 -189.6 L-97.35 -189.0 -97.05 -188.2 Q-86.2 -185.75 -84.7 -172.65 L-84.6 -171.85 Q-84.2 -163.75 -82.5 -159.25 -81.65 -154.7 -89.5 -152.05 -96.55 -150.45 -108.05 -152.05 -122.9 -155.75 -117.7 -161.5 M-104.25 -162.3 Q-102.8 -160.85 -102.8 -158.85 -102.8 -157.55 -103.4 -156.5 L-104.25 -155.45 -105.4 -154.55 Q-106.05 -154.25 -106.8 -154.1 L-107.65 -154.05 Q-109.65 -154.05 -111.05 -155.45 -112.45 -156.85 -112.45 -158.85 -112.45 -160.85 -111.05 -162.3 -109.65 -163.7 -107.65 -163.7 -106.35 -163.7 -105.25 -163.05 L-104.25 -162.3 M-91.7 -162.9 Q-89.7 -162.9 -88.3 -161.5 -86.9 -160.1 -86.85 -158.1 -86.9 -156.1 -88.3 -154.7 -89.7 -153.25 -91.7 -153.25 -93.7 -153.25 -95.15 -154.7 -96.55 -156.1 -96.55 -158.1 -96.55 -160.1 -95.15 -161.5 -93.7 -162.9 -91.7 -162.9 M-140.25 -90.95 L-139.3 -90.5 Q-127.2 -101.15 -119.35 -113.35 M-149.6 -81.55 L-149.4 -81.65 -147.2 -82.8 Q-145.9 -83.4 -144.35 -82.45 L-142.95 -81.45 Q-140.6 -79.9 -140.5 -82.55 -140.95 -86.8 -140.25 -90.95 L-140.1 -91.6 M-144.4 -94.05 L-145.35 -93.55 -145.4 -93.5 Q-147.35 -92.5 -149.55 -91.8 M-145.35 -93.55 L-145.45 -93.6 Q-144.45 -107.95 -138.45 -122.95 M-101.0 -37.7 Q-96.05 -37.35 -90.65 -37.55 -82.0 -39.5 -75.4 -43.0 M-106.0 -38.25 Q-118.0 -39.9 -127.3 -45.0 M-55.85 -90.3 L-55.85 -89.7 Q-55.9 -85.85 -57.3 -81.6 L-57.35 -81.3 Q-57.75 -78.8 -55.2 -79.95 L-53.75 -80.65 -52.55 -80.9 M-55.85 -89.7 L-56.35 -89.5 Q-67.7 -99.0 -76.75 -114.8 M-50.45 -91.85 L-51.55 -92.75" fill="none" stroke="#d75600" stroke-linecap="round" stroke-linejoin="round" stroke-width="0.05"/>
  </g>
  <defs>
    <radialGradient cx="0" cy="0" gradientTransform="matrix(0.1232, 0.0, 0.0, 0.1232, -115.2, -64.15)" gradientUnits="userSpaceOnUse" id="gradient0" r="819.2" spreadMethod="pad">
      <stop offset="0.3843137254901961" stop-color="#33ccff"/>
      <stop offset="1.0" stop-color="#3399ff"/>
    </radialGradient>
    <radialGradient cx="0" cy="0" gradientTransform="matrix(0.1232, 0.0, 0.0, 0.1232, -115.2, -64.15)" gradientUnits="userSpaceOnUse" id="gradient1" r="819.2" spreadMethod="pad">
      <stop offset="0.0" stop-color="#ff6600"/>
      <stop offset="0.5294117647058824" stop-color="#ff9900"/>
      <stop offset="1.0" stop-color="#ff6600"/>
    </radialGradient>
    <radialGradient cx="0" cy="0" gradientTransform="matrix(0.0412, 0.0, 0.0, 0.0412, -107.7, -34.35)" gradientUnits="userSpaceOnUse" id="gradient2" r="819.2" spreadMethod="pad">
      <stop offset="0.0" stop-color="#ff6600"/>
      <stop offset="0.5294117647058824" stop-color="#ff9900"/>
      <stop offset="1.0" stop-color="#ff6600"/>
    </radialGradient>
    <radialGradient cx="0" cy="0" gradientTransform="matrix(0.0352, 0.0, 0.0, 0.0352, -91.55, -30.0)" gradientUnits="userSpaceOnUse" id="gradient3" r="819.2" spreadMethod="pad">
      <stop offset="0.0" stop-color="#ff6600"/>
      <stop offset="0.5294117647058824" stop-color="#ff9900"/>
      <stop offset="1.0" stop-color="#ff6600"/>
    </radialGradient>
    <radialGradient cx="0" cy="0" gradientTransform="matrix(0.0137, 0.0079, -0.0079, 0.0137, -141.85, -85.95)" gradientUnits="userSpaceOnUse" id="gradient4" r="819.2" spreadMethod="pad">
      <stop offset="0.0" stop-color="#ff6600"/>
      <stop offset="0.5294117647058824" stop-color="#ff9900"/>
      <stop offset="1.0" stop-color="#ff6600"/>
    </radialGradient>
    <radialGradient cx="0" cy="0" gradientTransform="matrix(0.0168, 0.0, 0.0, 0.0168, -48.8, -90.65)" gradientUnits="userSpaceOnUse" id="gradient5" r="819.2" spreadMethod="pad">
      <stop offset="0.0" stop-color="#ff6600"/>
      <stop offset="0.5294117647058824" stop-color="#ff9900"/>
      <stop offset="1.0" stop-color="#ff6600"/>
    </radialGradient>
    <radialGradient cx="0" cy="0" gradientTransform="matrix(0.0334, 0.0, 0.0, 0.0334, -94.9, -170.35)" gradientUnits="userSpaceOnUse" id="gradient6" r="819.2" spreadMethod="pad">
      <stop offset="0.0" stop-color="#ff6600"/>
      <stop offset="0.5294117647058824" stop-color="#ff9900"/>
      <stop offset="1.0" stop-color="#ff6600"/>
    </radialGradient>
  </defs>
</svg>
