<?xml version="1.0" encoding="UTF-8" standalone="no"?>
<svg xmlns:xlink="http://www.w3.org/1999/xlink" height="184.95px" width="108.75px" xmlns="http://www.w3.org/2000/svg">
  <g transform="matrix(1.0, 0.0, 0.0, 1.0, 155.55, 186.1)">
    <path d="M-60.0 -83.85 L-60.0 -83.65 -60.25 -83.65 -60.0 -83.85" fill="url(#gradient0)" fill-rule="evenodd" stroke="none"/>
    <path d="M-108.0 -151.05 L-108.05 -151.0 -108.05 -151.05 -108.0 -151.05 M-98.4 -151.9 L-98.45 -151.95 -98.4 -151.9" fill="url(#gradient1)" fill-rule="evenodd" stroke="none"/>
    <path d="M-112.55 -156.7 L-112.1 -156.95 Q-110.7 -156.4 -111.75 -155.4 L-112.3 -155.3 Q-113.45 -155.85 -112.55 -156.7 M-113.2 -158.2 Q-114.35 -157.0 -114.35 -155.3 -114.35 -153.6 -113.2 -152.45 -112.0 -151.25 -110.3 -151.25 L-109.95 -151.25 Q-108.5 -151.35 -107.45 -152.45 L-106.55 -153.65 Q-106.25 -154.4 -106.25 -155.3 -106.25 -157.0 -107.45 -158.2 -108.6 -159.35 -110.3 -159.35 -112.0 -159.35 -113.2 -158.2 M-108.05 -151.0 Q-109.05 -150.5 -110.3 -150.5 -112.3 -150.5 -113.7 -151.9 -115.1 -153.3 -115.1 -155.3 -115.1 -157.3 -113.7 -158.75 -112.3 -160.15 -110.3 -160.15 -109.0 -160.15 -107.9 -159.5 L-106.9 -158.75 Q-105.85 -157.7 -105.55 -156.4 L-105.45 -155.3 Q-105.45 -153.3 -106.9 -151.9 L-108.0 -151.05 -108.05 -151.05 -108.05 -151.0 M-91.5 -157.5 Q-92.65 -158.65 -94.35 -158.65 -96.05 -158.65 -97.25 -157.5 -98.4 -156.3 -98.4 -154.6 -98.4 -152.9 -97.25 -151.75 -96.05 -150.55 -94.35 -150.55 L-94.0 -150.55 Q-92.55 -150.65 -91.5 -151.75 L-90.6 -152.95 Q-90.3 -153.7 -90.3 -154.6 -90.3 -156.3 -91.5 -157.5 M-98.45 -151.95 Q-99.2 -153.1 -99.2 -154.55 -99.2 -156.55 -97.8 -157.95 L-96.4 -158.95 -94.35 -159.35 Q-92.35 -159.35 -90.95 -157.95 -89.55 -156.55 -89.5 -154.55 -89.55 -152.55 -90.95 -151.15 -92.35 -149.7 -94.35 -149.7 -96.35 -149.7 -97.8 -151.15 L-98.4 -151.9 -98.45 -151.95 M-96.6 -155.85 L-96.15 -156.1 Q-94.75 -155.55 -95.8 -154.55 L-96.35 -154.45 Q-97.5 -155.0 -96.6 -155.85" fill="#ffffff" fill-rule="evenodd" stroke="none"/>
    <path d="M-119.6 -157.7 Q-117.4 -161.4 -116.3 -170.1 L-116.1 -170.85 Q-113.3 -183.35 -103.3 -184.55 L-102.8 -185.3 Q-102.0 -186.1 -100.85 -186.1 -99.7 -186.1 -98.9 -185.3 L-98.2 -184.2 Q-88.05 -181.5 -86.6 -168.85 L-86.5 -168.05 Q-86.1 -159.95 -84.4 -155.45 -80.95 -149.95 -93.55 -145.65 -101.3 -142.2 -109.75 -145.65 -121.95 -152.7 -119.6 -157.7 M-108.0 -151.05 L-106.9 -151.9 Q-105.45 -153.3 -105.45 -155.3 L-105.55 -156.4 Q-105.85 -157.7 -106.9 -158.75 L-107.9 -159.5 Q-109.0 -160.15 -110.3 -160.15 -112.3 -160.15 -113.7 -158.75 -115.1 -157.3 -115.1 -155.3 -115.1 -153.3 -113.7 -151.9 -112.3 -150.5 -110.3 -150.5 -109.05 -150.5 -108.05 -151.0 L-108.0 -151.05 M-98.4 -151.9 L-97.8 -151.15 Q-96.35 -149.7 -94.35 -149.7 -92.35 -149.7 -90.95 -151.15 -89.55 -152.55 -89.5 -154.55 -89.55 -156.55 -90.95 -157.95 -92.35 -159.35 -94.35 -159.35 L-96.4 -158.95 -97.8 -157.95 Q-99.2 -156.55 -99.2 -154.55 -99.2 -153.1 -98.45 -151.95 L-98.4 -151.9" fill="url(#gradient2)" fill-rule="evenodd" stroke="none"/>
    <path d="M-84.4 -155.45 Q-80.55 -154.85 -79.45 -148.45 -78.7 -138.5 -74.4 -130.9 -60.5 -112.55 -53.7 -88.65 L-54.8 -87.8 -56.15 -88.65 -60.15 -85.7 -60.0 -83.85 -60.25 -83.65 -60.0 -83.65 Q-59.85 -80.45 -60.6 -76.9 L-60.6 -76.6 Q-60.7 -74.1 -58.3 -75.5 L-56.95 -76.4 -54.55 -76.55 -54.55 -76.35 Q-49.85 -46.15 -80.05 -29.15 -92.85 -24.85 -104.3 -25.4 L-108.45 -25.8 Q-120.8 -27.4 -131.6 -34.8 -151.2 -46.0 -152.05 -72.5 L-151.6 -77.4 -150.8 -77.75 Q-149.7 -78.3 -148.6 -78.9 -147.3 -79.5 -145.75 -78.55 L-144.35 -77.55 Q-142.0 -76.0 -141.9 -78.65 -142.35 -82.8 -141.65 -86.85 L-141.5 -87.7 -145.8 -90.15 -146.6 -89.75 Q-148.2 -88.9 -150.05 -88.2 -147.0 -104.55 -140.1 -118.15 L-135.9 -125.65 Q-127.35 -137.3 -125.1 -149.55 -123.6 -156.45 -119.6 -157.7 -121.95 -152.7 -109.75 -145.65 -101.3 -142.2 -93.55 -145.65 -80.95 -149.95 -84.4 -155.45 M-120.25 -117.95 Q-127.6 -100.95 -140.45 -86.15 L-141.65 -86.85 -140.45 -86.15 Q-127.6 -100.95 -120.25 -117.95 M-146.6 -89.75 L-147.05 -90.0 Q-145.25 -104.05 -140.1 -118.15 -145.25 -104.05 -147.05 -90.0 L-146.6 -89.75 M-79.35 -110.9 Q-73.35 -90.95 -60.25 -83.65 -73.35 -90.95 -79.35 -110.9" fill="url(#gradient3)" fill-rule="evenodd" stroke="none"/>
    <path d="M-151.6 -77.4 Q-152.8 -77.1 -152.65 -78.45 L-152.05 -81.1 Q-151.8 -82.55 -153.1 -83.55 L-154.45 -84.45 Q-156.7 -86.05 -154.35 -87.0 L-154.05 -87.1 -150.05 -88.2 Q-148.2 -88.9 -146.6 -89.75 L-145.8 -90.15 -141.5 -87.7 -141.65 -86.85 Q-142.35 -82.8 -141.9 -78.65 -142.0 -76.0 -144.35 -77.55 L-145.75 -78.55 Q-147.3 -79.5 -148.6 -78.9 -149.7 -78.3 -150.8 -77.75 L-151.6 -77.4" fill="url(#gradient4)" fill-rule="evenodd" stroke="none"/>
    <path d="M-80.05 -29.15 Q-87.3 -24.75 -91.85 -15.5 -87.35 -7.65 -90.0 -1.15 -95.95 -7.35 -96.6 -15.05 -98.8 -20.9 -104.3 -25.4 -92.85 -24.85 -80.05 -29.15" fill="url(#gradient5)" fill-rule="evenodd" stroke="none"/>
    <path d="M-108.45 -25.8 Q-112.75 -23.3 -115.9 -16.65 -113.75 -8.55 -118.6 -1.8 -121.25 -9.8 -119.3 -16.85 -124.2 -27.0 -131.6 -34.8 -120.8 -27.4 -108.45 -25.8" fill="url(#gradient6)" fill-rule="evenodd" stroke="none"/>
    <path d="M-54.8 -87.8 Q-51.65 -85.85 -48.0 -84.75 -45.6 -83.6 -47.95 -82.05 L-49.45 -81.15 Q-50.95 -80.15 -50.9 -78.65 L-50.7 -76.2 Q-50.55 -73.95 -52.1 -74.8 L-54.3 -76.4 -54.55 -76.55 -56.95 -76.4 -58.3 -75.5 Q-60.7 -74.1 -60.6 -76.6 L-60.6 -76.9 Q-59.85 -80.45 -60.0 -83.65 L-60.0 -83.85 -60.15 -85.7 -56.15 -88.65 -54.8 -87.8" fill="url(#gradient7)" fill-rule="evenodd" stroke="none"/>
    <path d="M-112.55 -156.7 Q-113.45 -155.85 -112.3 -155.3 L-111.75 -155.4 Q-110.7 -156.4 -112.1 -156.95 L-112.55 -156.7 M-113.2 -158.2 Q-112.0 -159.35 -110.3 -159.35 -108.6 -159.35 -107.45 -158.2 -106.25 -157.0 -106.25 -155.3 -106.25 -154.4 -106.55 -153.65 L-107.45 -152.45 Q-108.5 -151.35 -109.95 -151.25 L-110.3 -151.25 Q-112.0 -151.25 -113.2 -152.45 -114.35 -153.6 -114.35 -155.3 -114.35 -157.0 -113.2 -158.2 M-91.5 -157.5 Q-90.3 -156.3 -90.3 -154.6 -90.3 -153.7 -90.6 -152.95 L-91.5 -151.75 Q-92.55 -150.65 -94.0 -150.55 L-94.35 -150.55 Q-96.05 -150.55 -97.25 -151.75 -98.4 -152.9 -98.4 -154.6 -98.4 -156.3 -97.25 -157.5 -96.05 -158.65 -94.35 -158.65 -92.65 -158.65 -91.5 -157.5 M-96.6 -155.85 Q-97.5 -155.0 -96.35 -154.45 L-95.8 -154.55 Q-94.75 -155.55 -96.15 -156.1 L-96.6 -155.85" fill="#884400" fill-rule="evenodd" stroke="none"/>
    <path d="M-84.4 -155.45 Q-80.55 -154.85 -79.45 -148.45 -78.7 -138.5 -74.4 -130.9 -60.5 -112.55 -53.7 -88.65 L-54.8 -87.8 Q-51.65 -85.85 -48.0 -84.75 -45.6 -83.6 -47.95 -82.05 L-49.45 -81.15 Q-50.95 -80.15 -50.9 -78.65 L-50.7 -76.2 Q-50.55 -73.95 -52.1 -74.8 L-54.3 -76.4 -54.55 -76.55 -54.55 -76.35 Q-49.85 -46.15 -80.05 -29.15 -87.3 -24.75 -91.85 -15.5 -87.35 -7.65 -90.0 -1.15 -95.95 -7.35 -96.6 -15.05 -98.8 -20.9 -104.3 -25.4 L-108.45 -25.8 Q-112.75 -23.3 -115.9 -16.65 -113.75 -8.55 -118.6 -1.8 -121.25 -9.8 -119.3 -16.85 -124.2 -27.0 -131.6 -34.8 -151.2 -46.0 -152.05 -72.5 L-151.6 -77.4 Q-152.8 -77.1 -152.65 -78.45 L-152.05 -81.1 Q-151.8 -82.55 -153.1 -83.55 L-154.45 -84.45 Q-156.7 -86.05 -154.35 -87.0 L-154.05 -87.1 -150.05 -88.2 Q-147.0 -104.55 -140.1 -118.15 L-135.9 -125.65 Q-127.35 -137.3 -125.1 -149.55 -123.6 -156.45 -119.6 -157.7 -117.4 -161.4 -116.3 -170.1 L-116.1 -170.85 Q-113.3 -183.35 -103.3 -184.55 L-102.8 -185.3 Q-102.0 -186.1 -100.85 -186.1 -99.7 -186.1 -98.9 -185.3 L-98.2 -184.2 Q-88.05 -181.5 -86.6 -168.85 L-86.5 -168.05 Q-86.1 -159.95 -84.4 -155.45 -80.95 -149.95 -93.55 -145.65 -101.3 -142.2 -109.75 -145.65 -121.95 -152.7 -119.6 -157.7 M-141.65 -86.85 L-140.45 -86.15 Q-127.6 -100.95 -120.25 -117.95 M-141.5 -87.7 L-141.65 -86.85 Q-142.35 -82.8 -141.9 -78.65 -142.0 -76.0 -144.35 -77.55 L-145.75 -78.55 Q-147.3 -79.5 -148.6 -78.9 -149.7 -78.3 -150.8 -77.75 L-151.6 -77.4 M-145.8 -90.15 L-146.6 -89.75 Q-148.2 -88.9 -150.05 -88.2 M-140.1 -118.15 Q-145.25 -104.05 -147.05 -90.0 L-146.6 -89.75 M-108.45 -25.8 Q-120.8 -27.4 -131.6 -34.8 M-54.8 -87.8 L-56.15 -88.65 M-60.15 -85.7 L-60.0 -83.85 -60.0 -83.65 Q-59.85 -80.45 -60.6 -76.9 L-60.6 -76.6 Q-60.7 -74.1 -58.3 -75.5 L-56.95 -76.4 -54.55 -76.55 M-60.0 -83.85 L-60.25 -83.65 Q-73.35 -90.95 -79.35 -110.9 M-80.05 -29.15 Q-92.85 -24.85 -104.3 -25.4" fill="none" stroke="#d75600" stroke-linecap="round" stroke-linejoin="round" stroke-width="0.05"/>
  </g>
  <defs>
    <radialGradient cx="0" cy="0" gradientTransform="matrix(0.0942, 0.0, 0.0, 0.0942, -89.2, -98.95)" gradientUnits="userSpaceOnUse" id="gradient0" r="819.2" spreadMethod="pad">
      <stop offset="0.3843137254901961" stop-color="#33ccff"/>
      <stop offset="1.0" stop-color="#3399ff"/>
    </radialGradient>
    <radialGradient cx="0" cy="0" gradientTransform="matrix(0.0356, 0.0, 0.0, 0.0356, -94.25, -168.3)" gradientUnits="userSpaceOnUse" id="gradient1" r="819.2" spreadMethod="pad">
      <stop offset="0.3843137254901961" stop-color="#33ccff"/>
      <stop offset="1.0" stop-color="#3399ff"/>
    </radialGradient>
    <radialGradient cx="0" cy="0" gradientTransform="matrix(0.0317, 0.0, 0.0, 0.0317, -96.8, -166.15)" gradientUnits="userSpaceOnUse" id="gradient2" r="819.2" spreadMethod="pad">
      <stop offset="0.0" stop-color="#ff6600"/>
      <stop offset="0.5294117647058824" stop-color="#ff9900"/>
      <stop offset="1.0" stop-color="#ff6600"/>
    </radialGradient>
    <radialGradient cx="0" cy="0" gradientTransform="matrix(0.0942, 0.0, 0.0, 0.0942, -89.2, -98.95)" gradientUnits="userSpaceOnUse" id="gradient3" r="819.2" spreadMethod="pad">
      <stop offset="0.0" stop-color="#ff6600"/>
      <stop offset="0.5294117647058824" stop-color="#ff9900"/>
      <stop offset="1.0" stop-color="#ff6600"/>
    </radialGradient>
    <radialGradient cx="0" cy="0" gradientTransform="matrix(0.0137, 0.0079, -0.0079, 0.0137, -143.25, -82.05)" gradientUnits="userSpaceOnUse" id="gradient4" r="819.2" spreadMethod="pad">
      <stop offset="0.0" stop-color="#ff6600"/>
      <stop offset="0.5294117647058824" stop-color="#ff9900"/>
      <stop offset="1.0" stop-color="#ff6600"/>
    </radialGradient>
    <radialGradient cx="0" cy="0" gradientTransform="matrix(0.0247, 0.0, 0.0, 0.0247, -92.7, -21.15)" gradientUnits="userSpaceOnUse" id="gradient5" r="819.2" spreadMethod="pad">
      <stop offset="0.0" stop-color="#ff6600"/>
      <stop offset="0.5294117647058824" stop-color="#ff9900"/>
      <stop offset="1.0" stop-color="#ff6600"/>
    </radialGradient>
    <radialGradient cx="0" cy="0" gradientTransform="matrix(0.0278, 0.0, 0.0, 0.0278, -119.3, -16.85)" gradientUnits="userSpaceOnUse" id="gradient6" r="819.2" spreadMethod="pad">
      <stop offset="0.0" stop-color="#ff6600"/>
      <stop offset="0.5294117647058824" stop-color="#ff9900"/>
      <stop offset="1.0" stop-color="#ff6600"/>
    </radialGradient>
    <radialGradient cx="0" cy="0" gradientTransform="matrix(0.0127, -0.0094, 0.0094, 0.0127, -51.65, -84.85)" gradientUnits="userSpaceOnUse" id="gradient7" r="819.2" spreadMethod="pad">
      <stop offset="0.0" stop-color="#ff6600"/>
      <stop offset="0.5294117647058824" stop-color="#ff9900"/>
      <stop offset="1.0" stop-color="#ff6600"/>
    </radialGradient>
  </defs>
</svg>
