<?xml version="1.0" encoding="UTF-8" standalone="no"?>
<svg xmlns:xlink="http://www.w3.org/1999/xlink" height="188.2px" width="99.1px" xmlns="http://www.w3.org/2000/svg">
  <g transform="matrix(1.0, 0.0, 0.0, 1.0, 148.8, 197.1)">
    <path d="M-86.7 -174.95 Q-87.7 -175.95 -89.15 -175.95 -90.65 -175.95 -91.7 -174.95 -92.7 -173.9 -92.7 -172.45 -92.7 -171.0 -91.7 -169.95 -90.65 -168.9 -89.15 -168.9 -87.7 -168.9 -86.7 -169.95 -85.65 -171.0 -85.65 -172.45 -85.65 -173.9 -86.7 -174.95 M-90.45 -174.05 Q-89.5 -173.85 -89.9 -172.95 L-90.45 -172.65 -91.0 -172.85 Q-91.3 -173.05 -91.2 -173.5 L-91.05 -173.75 -90.6 -174.05 -90.45 -174.05 M-86.95 -176.6 Q-84.6 -174.8 -84.4 -171.7 -84.25 -169.75 -86.45 -168.45 -90.5 -167.7 -93.2 -168.85 -95.1 -170.1 -94.4 -172.45 -93.35 -175.55 -91.2 -176.6 -89.1 -177.75 -86.95 -176.6 M-107.15 -177.15 L-105.5 -176.6 Q-103.4 -175.55 -102.35 -172.45 -101.65 -170.1 -103.5 -168.85 -105.85 -167.9 -109.1 -168.25 L-110.15 -168.4 -110.2 -168.4 -110.3 -168.45 Q-112.45 -169.75 -112.3 -171.7 -112.15 -174.8 -109.75 -176.6 L-107.15 -177.15 M-109.2 -174.25 Q-108.25 -174.05 -108.65 -173.2 -108.85 -172.85 -109.2 -172.85 -110.1 -173.0 -109.9 -173.8 L-109.6 -174.15 -109.4 -174.25 -109.35 -174.25 -109.3 -174.25 -109.2 -174.25 M-107.5 -176.0 Q-108.95 -176.0 -110.0 -175.0 -111.0 -173.95 -111.0 -172.45 -111.0 -171.0 -110.0 -170.0 -108.95 -168.95 -107.5 -168.95 -106.05 -168.95 -105.0 -170.0 -104.0 -171.0 -104.0 -172.45 -104.0 -173.95 -105.0 -175.0 -106.05 -176.0 -107.5 -176.0" fill="#ffffff" fill-rule="evenodd" stroke="none"/>
    <path d="M-58.85 -99.0 L-58.7 -99.05 -58.85 -98.95 -58.85 -99.0 M-134.35 -100.75 L-134.2 -100.6 -134.4 -100.4 -134.35 -100.75" fill="url(#gradient0)" fill-rule="evenodd" stroke="none"/>
    <path d="M-80.85 -169.1 Q-79.25 -169.3 -78.4 -167.45 L-78.35 -167.35 Q-75.35 -160.2 -75.15 -151.4 -75.05 -147.55 -73.2 -143.8 -68.3 -135.05 -64.7 -126.45 L-64.55 -126.2 Q-60.35 -114.4 -58.85 -99.0 L-58.85 -98.95 -63.05 -96.5 -63.1 -96.5 Q-63.05 -92.25 -64.6 -87.55 L-64.7 -87.25 Q-65.05 -84.65 -62.45 -85.85 L-60.95 -86.6 Q-59.35 -87.25 -58.2 -86.25 L-56.15 -84.35 Q-55.0 -83.5 -54.7 -84.8 -54.85 -67.45 -73.35 -54.35 -75.25 -52.85 -77.25 -51.5 -88.55 -40.1 -93.25 -23.2 -90.3 -16.05 -90.8 -8.9 -96.75 -15.05 -99.0 -22.6 L-100.7 -38.2 -105.15 -22.5 Q-110.75 -15.3 -119.85 -11.05 -116.55 -18.65 -110.5 -24.75 -114.4 -41.7 -124.8 -51.55 L-129.15 -55.1 Q-148.3 -70.4 -145.75 -89.45 L-145.6 -90.25 Q-145.2 -89.85 -143.9 -90.5 L-141.65 -91.7 Q-140.3 -92.35 -138.7 -91.35 L-137.25 -90.3 Q-134.85 -88.7 -134.7 -91.45 -135.25 -95.95 -134.4 -100.4 L-134.2 -100.6 -134.35 -100.75 -138.75 -103.3 -139.7 -102.8 Q-138.1 -117.25 -131.4 -131.9 -128.15 -138.15 -124.1 -144.4 -122.1 -148.1 -121.75 -151.9 -121.1 -160.45 -117.85 -167.2 L-117.25 -168.45 Q-116.7 -169.15 -115.75 -169.2 -114.8 -169.25 -113.45 -168.65 L-113.4 -168.65 Q-108.65 -166.35 -98.1 -166.3 -86.55 -166.75 -81.95 -168.8 L-80.85 -169.1 M-106.5 -42.95 Q-116.85 -45.7 -124.8 -51.55 -116.85 -45.7 -106.5 -42.95 M-117.6 -128.6 Q-125.4 -108.95 -134.2 -100.6 -125.4 -108.95 -117.6 -128.6 M-78.5 -123.9 Q-70.65 -103.85 -63.05 -96.5 -70.65 -103.85 -78.5 -123.9 M-95.15 -42.95 Q-85.5 -45.95 -77.25 -51.5 -85.5 -45.95 -95.15 -42.95" fill="url(#gradient1)" fill-rule="evenodd" stroke="none"/>
    <path d="M-143.5 -101.15 L-143.1 -102.65 -143.1 -102.75 Q-139.3 -117.15 -131.4 -131.9 -138.1 -117.25 -139.7 -102.8 -141.45 -101.85 -143.5 -101.15" fill="url(#gradient2)" fill-rule="evenodd" stroke="none"/>
    <path d="M-145.6 -90.25 Q-145.9 -90.55 -145.8 -91.25 L-145.2 -93.95 Q-144.95 -95.45 -146.25 -96.5 L-147.65 -97.4 Q-150.0 -99.1 -147.55 -100.05 L-147.25 -100.15 -143.5 -101.15 Q-141.45 -101.85 -139.7 -102.8 L-138.75 -103.3 -134.35 -100.75 -134.4 -100.4 Q-135.25 -95.95 -134.7 -91.45 -134.85 -88.7 -137.25 -90.3 L-138.7 -91.35 Q-140.3 -92.35 -141.65 -91.7 L-143.9 -90.5 Q-145.2 -89.85 -145.6 -90.25" fill="url(#gradient3)" fill-rule="evenodd" stroke="none"/>
    <path d="M-55.9 -96.85 Q-53.5 -95.25 -50.8 -94.05 -48.5 -92.6 -51.1 -91.3 L-52.7 -90.55 Q-54.35 -89.7 -54.5 -88.15 L-54.6 -85.6 -54.7 -84.8 Q-55.0 -83.5 -56.15 -84.35 L-58.2 -86.25 Q-59.35 -87.25 -60.95 -86.6 L-62.45 -85.85 Q-65.05 -84.65 -64.7 -87.25 L-64.6 -87.55 Q-63.05 -92.25 -63.1 -96.5 L-63.05 -96.5 -58.85 -98.95 -58.7 -99.05 -55.9 -96.85" fill="url(#gradient4)" fill-rule="evenodd" stroke="none"/>
    <path d="M-64.55 -126.2 Q-58.75 -112.35 -56.25 -99.0 L-55.9 -96.85 -58.7 -99.05 -58.85 -99.0 Q-60.35 -114.4 -64.55 -126.2" fill="url(#gradient5)" fill-rule="evenodd" stroke="none"/>
    <path d="M-115.75 -169.2 L-115.2 -172.25 Q-114.7 -173.85 -115.45 -175.2 L-116.05 -176.0 Q-116.4 -176.65 -116.05 -177.05 L-114.85 -178.15 Q-113.25 -180.25 -112.75 -183.9 -112.05 -187.9 -110.25 -190.55 L-110.15 -190.95 Q-110.15 -191.45 -109.75 -191.8 -109.5 -192.15 -109.05 -192.2 L-108.6 -192.4 Q-107.05 -193.9 -104.95 -194.75 L-104.65 -194.8 -104.6 -194.85 -104.35 -195.05 -104.3 -195.05 -104.1 -195.3 Q-103.75 -195.7 -103.2 -195.7 L-102.95 -195.65 -102.7 -195.6 -102.65 -195.55 -102.3 -195.55 -102.25 -195.55 -101.45 -195.7 -101.35 -195.75 Q-99.9 -196.1 -98.75 -196.8 L-97.5 -196.9 Q-96.7 -196.15 -95.85 -196.0 L-94.85 -195.85 -94.75 -195.85 -94.4 -195.9 -94.35 -195.9 -93.85 -196.05 -93.2 -195.75 -93.05 -195.6 -92.45 -195.15 -91.5 -194.75 Q-89.15 -193.65 -87.5 -192.1 L-87.45 -192.05 -87.1 -191.9 Q-86.7 -191.9 -86.4 -191.6 -86.15 -191.3 -86.15 -190.85 L-86.05 -190.35 -85.9 -190.15 Q-84.4 -187.85 -84.1 -184.75 -83.6 -180.2 -81.5 -177.8 L-80.6 -176.95 Q-80.0 -176.3 -80.45 -175.4 L-80.85 -174.85 Q-81.4 -173.9 -81.15 -172.7 L-80.95 -170.7 -80.85 -169.1 -81.95 -168.8 Q-86.55 -166.75 -98.1 -166.3 -108.65 -166.35 -113.4 -168.65 L-113.45 -168.65 Q-114.8 -169.25 -115.75 -169.2 M-107.15 -177.15 L-109.75 -176.6 Q-112.15 -174.8 -112.3 -171.7 -112.45 -169.75 -110.3 -168.45 L-110.2 -168.4 -110.15 -168.4 -109.1 -168.25 Q-105.85 -167.9 -103.5 -168.85 -101.65 -170.1 -102.35 -172.45 -103.4 -175.55 -105.5 -176.6 L-107.15 -177.15 M-86.95 -176.6 Q-89.1 -177.75 -91.2 -176.6 -93.35 -175.55 -94.4 -172.45 -95.1 -170.1 -93.2 -168.85 -90.5 -167.7 -86.45 -168.45 -84.25 -169.75 -84.4 -171.7 -84.6 -174.8 -86.95 -176.6" fill="url(#gradient6)" fill-rule="evenodd" stroke="none"/>
    <path d="M-86.7 -174.95 Q-85.65 -173.9 -85.65 -172.45 -85.65 -171.0 -86.7 -169.95 -87.7 -168.9 -89.15 -168.9 -90.65 -168.9 -91.7 -169.95 -92.7 -171.0 -92.7 -172.45 -92.7 -173.9 -91.7 -174.95 -90.65 -175.95 -89.15 -175.95 -87.7 -175.95 -86.7 -174.95 M-90.45 -174.05 L-90.6 -174.05 -91.05 -173.75 -91.2 -173.5 Q-91.3 -173.05 -91.0 -172.85 L-90.45 -172.65 -89.9 -172.95 Q-89.5 -173.85 -90.45 -174.05 M-109.2 -174.25 L-109.3 -174.25 -109.35 -174.25 -109.4 -174.25 -109.6 -174.15 -109.9 -173.8 Q-110.1 -173.0 -109.2 -172.85 -108.85 -172.85 -108.65 -173.2 -108.25 -174.05 -109.2 -174.25 M-107.5 -176.0 Q-106.05 -176.0 -105.0 -175.0 -104.0 -173.95 -104.0 -172.45 -104.0 -171.0 -105.0 -170.0 -106.05 -168.95 -107.5 -168.95 -108.95 -168.95 -110.0 -170.0 -111.0 -171.0 -111.0 -172.45 -111.0 -173.95 -110.0 -175.0 -108.95 -176.0 -107.5 -176.0" fill="#884400" fill-rule="evenodd" stroke="none"/>
    <path d="M-134.35 -100.75 L-134.4 -100.4" fill="none" stroke="#3366cc" stroke-linecap="round" stroke-linejoin="round" stroke-width="0.05"/>
    <path d="M-80.85 -169.1 Q-79.25 -169.3 -78.4 -167.45 L-78.35 -167.35 Q-75.35 -160.2 -75.15 -151.4 -75.05 -147.55 -73.2 -143.8 -68.3 -135.05 -64.7 -126.45 L-64.55 -126.2 Q-58.75 -112.35 -56.25 -99.0 L-55.9 -96.85 Q-53.5 -95.25 -50.8 -94.05 -48.5 -92.6 -51.1 -91.3 L-52.7 -90.55 Q-54.35 -89.7 -54.5 -88.15 L-54.6 -85.6 -54.7 -84.8 Q-54.85 -67.45 -73.35 -54.35 -75.25 -52.85 -77.25 -51.5 -88.55 -40.1 -93.25 -23.2 -90.3 -16.05 -90.8 -8.9 -96.75 -15.05 -99.0 -22.6 L-100.7 -38.2 -105.15 -22.5 Q-110.75 -15.3 -119.85 -11.05 -116.55 -18.65 -110.5 -24.75 -114.4 -41.7 -124.8 -51.55 L-129.15 -55.1 Q-148.3 -70.4 -145.75 -89.45 L-145.6 -90.25 Q-145.9 -90.55 -145.8 -91.25 L-145.2 -93.95 Q-144.95 -95.45 -146.25 -96.5 L-147.65 -97.4 Q-150.0 -99.1 -147.55 -100.05 L-147.25 -100.15 -143.5 -101.15 -143.1 -102.65 -143.1 -102.75 Q-139.3 -117.15 -131.4 -131.9 -128.15 -138.15 -124.1 -144.4 -122.1 -148.1 -121.75 -151.9 -121.1 -160.45 -117.85 -167.2 L-117.25 -168.45 Q-116.7 -169.15 -115.75 -169.2 L-115.2 -172.25 Q-114.7 -173.85 -115.45 -175.2 L-116.05 -176.0 Q-116.4 -176.65 -116.05 -177.05 L-114.85 -178.15 Q-113.25 -180.25 -112.75 -183.9 -112.05 -187.9 -110.25 -190.55 L-110.15 -190.95 Q-110.15 -191.45 -109.75 -191.8 -109.5 -192.15 -109.05 -192.2 L-108.6 -192.4 Q-107.05 -193.9 -104.95 -194.75 L-104.65 -194.8 -104.6 -194.85 -104.35 -195.05 -104.3 -195.05 -104.1 -195.3 Q-103.75 -195.7 -103.2 -195.7 L-102.95 -195.65 -102.7 -195.6 -102.65 -195.55 -102.3 -195.55 -102.25 -195.55 -101.45 -195.7 -101.35 -195.75 Q-99.9 -196.1 -98.75 -196.8 L-97.5 -196.9 Q-96.7 -196.15 -95.85 -196.0 L-94.85 -195.85 -94.75 -195.85 -94.4 -195.9 -94.35 -195.9 -93.85 -196.05 -93.2 -195.75 -93.05 -195.6 -92.45 -195.15 -91.5 -194.75 Q-89.15 -193.65 -87.5 -192.1 L-87.45 -192.05 -87.1 -191.9 Q-86.7 -191.9 -86.4 -191.6 -86.15 -191.3 -86.15 -190.85 L-86.05 -190.35 -85.9 -190.15 Q-84.4 -187.85 -84.1 -184.75 -83.6 -180.2 -81.5 -177.8 L-80.6 -176.95 Q-80.0 -176.3 -80.45 -175.4 L-80.85 -174.85 Q-81.4 -173.9 -81.15 -172.7 L-80.95 -170.7 -80.85 -169.1 -81.95 -168.8 Q-86.55 -166.75 -98.1 -166.3 -108.65 -166.35 -113.4 -168.65 L-113.45 -168.65 Q-114.8 -169.25 -115.75 -169.2 M-64.55 -126.2 Q-60.35 -114.4 -58.85 -99.0 L-58.85 -98.95 -58.7 -99.05 -55.9 -96.85 M-86.95 -176.6 Q-84.6 -174.8 -84.4 -171.7 -84.25 -169.75 -86.45 -168.45 -90.5 -167.7 -93.2 -168.85 -95.1 -170.1 -94.4 -172.45 -93.35 -175.55 -91.2 -176.6 -89.1 -177.75 -86.95 -176.6 M-107.15 -177.15 L-105.5 -176.6 Q-103.4 -175.55 -102.35 -172.45 -101.65 -170.1 -103.5 -168.85 -105.85 -167.9 -109.1 -168.25 L-110.15 -168.4 -110.2 -168.4 -110.3 -168.45 Q-112.45 -169.75 -112.3 -171.7 -112.15 -174.8 -109.75 -176.6 L-107.15 -177.15 M-134.35 -100.75 L-138.75 -103.3 -139.7 -102.8 Q-141.45 -101.85 -143.5 -101.15 M-134.4 -100.4 L-134.2 -100.6 -134.35 -100.75 M-134.4 -100.4 Q-135.25 -95.95 -134.7 -91.45 -134.85 -88.7 -137.25 -90.3 L-138.7 -91.35 Q-140.3 -92.35 -141.65 -91.7 L-143.9 -90.5 Q-145.2 -89.85 -145.6 -90.25 M-139.7 -102.8 Q-138.1 -117.25 -131.4 -131.9 M-134.2 -100.6 Q-125.4 -108.95 -117.6 -128.6 M-124.8 -51.55 Q-116.85 -45.7 -106.5 -42.95 M-54.7 -84.8 Q-55.0 -83.5 -56.15 -84.35 L-58.2 -86.25 Q-59.35 -87.25 -60.95 -86.6 L-62.45 -85.85 Q-65.05 -84.65 -64.7 -87.25 L-64.6 -87.55 Q-63.05 -92.25 -63.1 -96.5 L-63.05 -96.5 Q-70.65 -103.85 -78.5 -123.9 M-58.85 -98.95 L-63.05 -96.5 M-77.25 -51.5 Q-85.5 -45.95 -95.15 -42.95" fill="none" stroke="#d75600" stroke-linecap="round" stroke-linejoin="round" stroke-width="0.05"/>
  </g>
  <defs>
    <radialGradient cx="0" cy="0" gradientTransform="matrix(0.1291, 0.0, 0.0, 0.1291, -118.05, -76.35)" gradientUnits="userSpaceOnUse" id="gradient0" r="819.2" spreadMethod="pad">
      <stop offset="0.3843137254901961" stop-color="#33ccff"/>
      <stop offset="1.0" stop-color="#3399ff"/>
    </radialGradient>
    <radialGradient cx="0" cy="0" gradientTransform="matrix(0.1274, 0.0, 0.0, 0.1274, -83.8, -109.05)" gradientUnits="userSpaceOnUse" id="gradient1" r="819.2" spreadMethod="pad">
      <stop offset="0.0" stop-color="#ff6600"/>
      <stop offset="0.5294117647058824" stop-color="#ff9900"/>
      <stop offset="1.0" stop-color="#ff6600"/>
    </radialGradient>
    <radialGradient cx="0" cy="0" gradientTransform="matrix(0.0361, 0.0, 0.0, 0.0361, -138.75, -103.3)" gradientUnits="userSpaceOnUse" id="gradient2" r="819.2" spreadMethod="pad">
      <stop offset="0.0" stop-color="#ff6600"/>
      <stop offset="0.5294117647058824" stop-color="#ff9900"/>
      <stop offset="1.0" stop-color="#ff6600"/>
    </radialGradient>
    <radialGradient cx="0" cy="0" gradientTransform="matrix(0.0173, 0.0, 0.0, 0.0173, -134.9, -96.95)" gradientUnits="userSpaceOnUse" id="gradient3" r="819.2" spreadMethod="pad">
      <stop offset="0.0" stop-color="#ff6600"/>
      <stop offset="0.5294117647058824" stop-color="#ff9900"/>
      <stop offset="1.0" stop-color="#ff6600"/>
    </radialGradient>
    <radialGradient cx="0" cy="0" gradientTransform="matrix(0.0141, -0.0081, 0.0081, 0.0141, -54.55, -94.55)" gradientUnits="userSpaceOnUse" id="gradient4" r="819.2" spreadMethod="pad">
      <stop offset="0.0" stop-color="#ff6600"/>
      <stop offset="0.5294117647058824" stop-color="#ff9900"/>
      <stop offset="1.0" stop-color="#ff6600"/>
    </radialGradient>
    <radialGradient cx="0" cy="0" gradientTransform="matrix(0.1291, 0.0, 0.0, 0.1291, -118.05, -76.35)" gradientUnits="userSpaceOnUse" id="gradient5" r="819.2" spreadMethod="pad">
      <stop offset="0.0" stop-color="#ff6600"/>
      <stop offset="0.5294117647058824" stop-color="#ff9900"/>
      <stop offset="1.0" stop-color="#ff6600"/>
    </radialGradient>
    <radialGradient cx="0" cy="0" gradientTransform="matrix(0.0384, 0.0, 0.0, 0.0406, -104.05, -164.85)" gradientUnits="userSpaceOnUse" id="gradient6" r="819.2" spreadMethod="pad">
      <stop offset="0.0" stop-color="#ff6600"/>
      <stop offset="0.5294117647058824" stop-color="#ff9900"/>
      <stop offset="1.0" stop-color="#ff6600"/>
    </radialGradient>
  </defs>
</svg>
