<?xml version="1.0" encoding="UTF-8" standalone="no"?>
<svg xmlns:xlink="http://www.w3.org/1999/xlink" height="171.1px" width="111.35px" xmlns="http://www.w3.org/2000/svg">
  <g transform="matrix(1.0, 0.0, 0.0, 1.0, 152.85, 183.25)">
    <path d="M-54.9 -165.5 L-54.6 -162.9 -49.85 -161.65 -49.65 -161.8 -48.5 -161.75 -58.1 -133.2 -58.4 -131.3 -58.65 -127.5 -58.4 -123.85 -57.6 -120.15 -56.9 -118.1 -56.0 -115.75 -54.4 -111.15 -53.8 -108.85 -53.25 -106.45 -52.8 -104.1 -52.55 -101.7 -52.35 -99.3 -52.25 -96.8 Q-52.2 -94.95 -52.3 -93.05 -52.35 -91.25 -52.55 -89.4 L-52.8 -86.85 Q-53.0 -84.9 -53.45 -83.05 L-54.1 -80.45 -55.1 -76.8 -56.55 -72.25 -57.3 -70.2 -58.2 -68.15 -59.15 -66.3 -60.15 -64.45 -61.15 -62.8 Q-62.2 -61.15 -63.4 -59.65 -64.5 -58.2 -65.8 -56.9 L-68.4 -54.55 -71.15 -52.45 Q-71.4 -51.55 -72.1 -50.45 -77.55 -42.35 -78.8 -24.65 -74.6 -18.65 -72.7 -12.15 -79.0 -15.8 -83.9 -23.35 -88.25 -35.0 -95.05 -41.6 -101.7 -46.0 -104.8 -42.65 -110.5 -34.85 -116.3 -21.95 -120.65 -16.4 -127.85 -12.5 -125.9 -19.2 -120.95 -24.85 -121.65 -44.2 -128.2 -55.2 L-128.45 -55.4 -129.45 -56.25 -131.45 -58.3 -133.4 -60.65 -135.15 -63.15 -136.85 -66.1 -138.35 -69.1 -139.75 -72.55 -141.0 -76.1 -141.55 -78.0 -142.4 -81.25 -142.95 -83.85 -143.65 -87.65 -143.95 -90.2 -144.15 -93.85 -144.25 -97.6 -144.15 -100.1 -143.95 -102.5 -143.65 -104.9 -143.25 -107.25 -142.7 -109.65 -142.1 -111.95 -141.4 -114.3 -140.6 -116.6 -139.65 -119.15 Q-139.0 -120.95 -138.5 -122.85 -138.05 -124.65 -137.9 -126.5 L-137.95 -130.2 -138.5 -134.0 -146.4 -160.35 -148.2 -167.8 -147.15 -167.75 -146.5 -166.65 -141.65 -167.65 -141.0 -169.4 Q-138.2 -164.15 -133.05 -160.65 -121.8 -156.1 -120.25 -158.8 L-120.1 -159.05 Q-118.05 -163.45 -115.65 -166.0 L-114.65 -167.0 Q-113.6 -167.8 -112.5 -167.3 L-111.85 -166.95 -111.7 -166.85 Q-107.1 -163.6 -95.05 -163.35 -87.0 -164.45 -83.1 -167.4 L-82.7 -167.7 -82.3 -168.05 Q-80.25 -169.6 -78.2 -166.6 -76.25 -163.0 -74.65 -156.9 -73.65 -154.45 -70.3 -155.4 L-70.05 -155.45 Q-63.3 -157.65 -54.9 -165.5 M-78.1 -49.4 L-74.55 -50.75 Q-72.85 -51.55 -71.15 -52.45 -72.85 -51.55 -74.55 -50.75 L-78.1 -49.4 M-118.5 -50.2 L-122.0 -51.55 -125.4 -53.35 -128.2 -55.2 -125.4 -53.35 -122.0 -51.55 -118.5 -50.2" fill="url(#gradient0)" fill-rule="evenodd" stroke="none"/>
    <path d="M-112.5 -167.3 Q-112.0 -168.7 -111.75 -170.45 -111.1 -174.3 -109.35 -176.9 L-109.25 -177.3 Q-109.25 -177.8 -108.9 -178.15 L-108.2 -178.5 Q-108.0 -178.55 -107.75 -178.7 -106.25 -180.15 -104.2 -180.95 L-103.9 -181.05 -103.85 -181.05 -103.6 -181.25 -103.55 -181.3 -103.4 -181.55 Q-103.05 -181.9 -102.5 -181.9 L-102.25 -181.85 -102.0 -181.8 -102.0 -181.75 -101.65 -181.75 -101.6 -181.75 -100.8 -181.9 -100.7 -181.95 Q-99.3 -182.3 -98.2 -183.0 L-97.0 -183.05 Q-96.2 -182.35 -95.35 -182.2 L-94.4 -182.05 -94.3 -182.05 -93.95 -182.1 -93.9 -182.1 -93.45 -182.25 Q-93.05 -182.25 -92.8 -181.95 L-92.65 -181.8 -92.1 -181.4 -91.15 -180.95 Q-88.85 -179.9 -87.25 -178.4 L-87.25 -178.35 -86.85 -178.2 -86.2 -177.9 -85.95 -177.2 -85.85 -176.7 -85.7 -176.55 Q-84.25 -174.3 -83.95 -171.25 -83.7 -169.1 -83.1 -167.4 -87.0 -164.45 -95.05 -163.35 -107.1 -163.6 -111.7 -166.85 L-111.85 -166.95 -112.5 -167.3" fill="url(#gradient1)" fill-rule="evenodd" stroke="none"/>
    <path d="M-147.15 -167.75 Q-149.3 -171.0 -152.2 -173.6 -153.95 -175.7 -151.1 -176.1 L-149.4 -176.25 Q-147.65 -176.6 -147.05 -177.95 L-146.15 -180.25 Q-145.35 -182.4 -144.3 -180.95 L-143.0 -178.55 Q-142.25 -177.35 -140.6 -177.45 L-139.0 -177.65 Q-136.25 -177.95 -137.35 -175.7 L-137.5 -175.4 Q-139.75 -172.45 -141.0 -169.4 L-141.65 -167.65 -146.5 -166.65 -147.15 -167.75" fill="url(#gradient2)" fill-rule="evenodd" stroke="none"/>
    <path d="M-54.9 -165.5 Q-55.4 -168.7 -56.6 -171.75 -57.2 -174.4 -54.5 -173.45 L-52.9 -172.85 Q-51.2 -172.35 -50.05 -173.25 L-48.2 -174.95 Q-46.55 -176.5 -46.25 -174.75 L-46.15 -172.0 Q-46.05 -170.55 -44.5 -169.9 L-42.95 -169.4 Q-40.4 -168.45 -42.4 -166.9 L-42.65 -166.75 Q-46.85 -164.65 -49.65 -161.8 L-49.85 -161.65 -54.6 -162.9 -54.9 -165.5" fill="url(#gradient3)" fill-rule="evenodd" stroke="none"/>
    <path d="M-49.65 -161.8 Q-46.85 -164.65 -42.65 -166.75 L-42.4 -166.9 Q-40.4 -168.45 -42.95 -169.4 L-44.5 -169.9 Q-46.05 -170.55 -46.15 -172.0 L-46.25 -174.75 Q-46.55 -176.5 -48.2 -174.95 L-50.05 -173.25 Q-51.2 -172.35 -52.9 -172.85 L-54.5 -173.45 Q-57.2 -174.4 -56.6 -171.75 -55.4 -168.7 -54.9 -165.5 L-54.6 -162.9 -49.85 -161.65 -49.65 -161.8 -48.5 -161.75 -58.1 -133.2 -58.4 -131.3 -58.65 -127.5 -58.4 -123.85 -57.6 -120.15 -56.9 -118.1 -56.0 -115.75 -54.4 -111.15 -53.8 -108.85 -53.25 -106.45 -52.8 -104.1 -52.55 -101.7 -52.35 -99.3 -52.25 -96.8 Q-52.2 -94.95 -52.3 -93.05 -52.35 -91.25 -52.55 -89.4 L-52.8 -86.85 Q-53.0 -84.9 -53.45 -83.05 L-54.1 -80.45 -55.1 -76.8 -56.55 -72.25 -57.3 -70.2 -58.2 -68.15 -59.15 -66.3 -60.15 -64.45 -61.15 -62.8 Q-62.2 -61.15 -63.4 -59.65 -64.5 -58.2 -65.8 -56.9 L-68.4 -54.55 -71.15 -52.45 Q-71.4 -51.55 -72.1 -50.45 -77.55 -42.35 -78.8 -24.65 -74.6 -18.65 -72.7 -12.15 -79.0 -15.8 -83.9 -23.35 -88.25 -35.0 -95.05 -41.6 -101.7 -46.0 -104.8 -42.65 -110.5 -34.85 -116.3 -21.95 -120.65 -16.4 -127.85 -12.5 -125.9 -19.2 -120.95 -24.85 -121.65 -44.2 -128.2 -55.2 L-128.45 -55.4 -129.45 -56.25 -131.45 -58.3 -133.4 -60.65 -135.15 -63.15 -136.85 -66.1 -138.35 -69.1 -139.75 -72.55 -141.0 -76.1 -141.55 -78.0 -142.4 -81.25 -142.95 -83.85 -143.65 -87.65 -143.95 -90.2 -144.15 -93.85 -144.25 -97.6 -144.15 -100.1 -143.95 -102.5 -143.65 -104.9 -143.25 -107.25 -142.7 -109.65 -142.1 -111.95 -141.4 -114.3 -140.6 -116.6 -139.65 -119.15 Q-139.0 -120.95 -138.5 -122.85 -138.05 -124.65 -137.9 -126.5 L-137.95 -130.2 -138.5 -134.0 -146.4 -160.35 -148.2 -167.8 -147.15 -167.75 Q-149.3 -171.0 -152.2 -173.6 -153.95 -175.7 -151.1 -176.1 L-149.4 -176.25 Q-147.65 -176.6 -147.05 -177.95 L-146.15 -180.25 Q-145.35 -182.4 -144.3 -180.95 L-143.0 -178.55 Q-142.25 -177.35 -140.6 -177.45 L-139.0 -177.65 Q-136.25 -177.95 -137.35 -175.7 L-137.5 -175.4 Q-139.75 -172.45 -141.0 -169.4 -138.2 -164.15 -133.05 -160.65 -121.8 -156.1 -120.25 -158.8 L-120.1 -159.05 Q-118.05 -163.45 -115.65 -166.0 L-114.65 -167.0 Q-113.6 -167.8 -112.5 -167.3 -112.0 -168.7 -111.75 -170.45 -111.1 -174.3 -109.35 -176.9 L-109.25 -177.3 Q-109.25 -177.8 -108.9 -178.15 L-108.2 -178.5 Q-108.0 -178.55 -107.75 -178.7 -106.25 -180.15 -104.2 -180.95 L-103.9 -181.05 -103.85 -181.05 -103.6 -181.25 -103.55 -181.3 -103.4 -181.55 Q-103.05 -181.9 -102.5 -181.9 L-102.25 -181.85 -102.0 -181.8 -102.0 -181.75 -101.65 -181.75 -101.6 -181.75 -100.8 -181.9 -100.7 -181.95 Q-99.3 -182.3 -98.2 -183.0 L-97.0 -183.05 Q-96.2 -182.35 -95.35 -182.2 L-94.4 -182.05 -94.3 -182.05 -93.95 -182.1 -93.9 -182.1 -93.45 -182.25 Q-93.05 -182.25 -92.8 -181.95 L-92.65 -181.8 -92.1 -181.4 -91.15 -180.95 Q-88.85 -179.9 -87.25 -178.4 L-87.25 -178.35 -86.85 -178.2 -86.2 -177.9 -85.95 -177.2 -85.85 -176.7 -85.7 -176.55 Q-84.25 -174.3 -83.95 -171.25 -83.7 -169.1 -83.1 -167.4 L-82.7 -167.7 -82.3 -168.05 Q-80.25 -169.6 -78.2 -166.6 -76.25 -163.0 -74.65 -156.9 -73.65 -154.45 -70.3 -155.4 L-70.05 -155.45 Q-63.3 -157.65 -54.9 -165.5 M-83.1 -167.4 Q-87.0 -164.45 -95.05 -163.35 -107.1 -163.6 -111.7 -166.85 L-111.85 -166.95 -112.5 -167.3 M-141.0 -169.4 L-141.65 -167.65 -146.5 -166.65 -147.15 -167.75 M-128.2 -55.2 L-125.4 -53.35 -122.0 -51.55 -118.5 -50.2 M-71.15 -52.45 Q-72.85 -51.55 -74.55 -50.75 L-78.1 -49.4" fill="none" stroke="#d75600" stroke-linecap="round" stroke-linejoin="round" stroke-width="0.05"/>
  </g>
  <defs>
    <radialGradient cx="0" cy="0" gradientTransform="matrix(0.1254, 0.0, 0.0, 0.1254, -114.95, -68.8)" gradientUnits="userSpaceOnUse" id="gradient0" r="819.2" spreadMethod="pad">
      <stop offset="0.0" stop-color="#ff6600"/>
      <stop offset="0.5294117647058824" stop-color="#ff9900"/>
      <stop offset="1.0" stop-color="#ff6600"/>
    </radialGradient>
    <radialGradient cx="0" cy="0" gradientTransform="matrix(0.0373, 0.0, 0.0, 0.0394, -103.35, -151.95)" gradientUnits="userSpaceOnUse" id="gradient1" r="819.2" spreadMethod="pad">
      <stop offset="0.0" stop-color="#ff6600"/>
      <stop offset="0.5294117647058824" stop-color="#ff9900"/>
      <stop offset="1.0" stop-color="#ff6600"/>
    </radialGradient>
    <radialGradient cx="0" cy="0" gradientTransform="matrix(-0.0155, 0.0032, -0.0032, -0.0155, -148.95, -172.05)" gradientUnits="userSpaceOnUse" id="gradient2" r="819.2" spreadMethod="pad">
      <stop offset="0.0" stop-color="#ff6600"/>
      <stop offset="0.5294117647058824" stop-color="#ff9900"/>
      <stop offset="1.0" stop-color="#ff6600"/>
    </radialGradient>
    <radialGradient cx="0" cy="0" gradientTransform="matrix(-0.0153, -0.0041, 0.0041, -0.0153, -54.45, -168.85)" gradientUnits="userSpaceOnUse" id="gradient3" r="819.2" spreadMethod="pad">
      <stop offset="0.0" stop-color="#ff6600"/>
      <stop offset="0.5294117647058824" stop-color="#ff9900"/>
      <stop offset="1.0" stop-color="#ff6600"/>
    </radialGradient>
  </defs>
</svg>
