<?xml version="1.0" encoding="UTF-8" standalone="no"?>
<svg xmlns:xlink="http://www.w3.org/1999/xlink" height="365.15px" width="652.5px" xmlns="http://www.w3.org/2000/svg">
  <g transform="matrix(1.0, 0.0, 0.0, 1.0, 320.05, 121.4)">
    <path d="M37.0 -30.05 L41.85 -27.7 42.7 -27.3 58.55 -19.55 58.65 -19.5 63.75 -16.65 64.5 -16.25 65.35 -15.75 71.35 -12.3 71.45 -12.25 Q87.7 -2.9 102.55 6.45 L122.15 19.25 Q146.25 35.55 165.9 51.8 L170.55 55.7 176.3 60.65 176.5 60.85 176.65 61.0 176.7 61.05 176.8 61.1 Q201.55 83.7 223.95 106.95 L234.35 117.95 Q262.1 147.6 286.15 178.35 L286.5 178.75 Q311.45 210.7 332.45 243.75 L30.85 243.75 Q27.9 224.3 23.75 204.9 L23.7 204.6 23.7 204.55 Q20.35 189.0 16.35 173.5 12.95 160.6 9.1 147.75 L9.1 147.8 Q7.2 141.9 4.4 135.95 L1.15 129.65 0.75 128.95 0.65 128.75 Q-3.45 121.45 -8.85 114.05 L-9.3 113.5 -10.55 111.75 -10.85 111.4 -11.0 111.2 -12.2 109.6 -14.95 106.2 -15.2 105.85 -15.6 105.4 -16.15 104.75 -17.05 103.65 -17.4 103.25 -27.8 91.9 -28.55 91.1 -28.75 90.9 -29.3 90.35 Q-36.8 82.8 -45.55 75.15 -57.05 65.15 -70.75 54.95 L-87.05 43.35 -88.1 42.6 -94.05 38.6 -100.0 34.7 Q-109.0 28.85 -118.75 22.95 L-119.05 22.75 Q-120.95 21.6 -122.8 20.5 L-123.05 20.35 -124.0 19.75 -138.5 11.3 -143.0 8.75 -143.75 8.3 -146.0 7.05 -150.55 4.5 -154.15 2.5 -163.05 -2.6 -165.3 -3.85 -165.3 -3.9 -175.0 -9.55 -186.5 -16.35 -192.6 -20.0 -201.05 -25.1 -202.25 -25.85 -203.3 -26.5 -210.6 -30.95 -218.35 -35.8 -242.15 -50.9 -249.55 -55.7 -259.75 -62.35 -273.2 -71.3 -273.3 -71.35 -276.6 -73.4 -279.15 -75.0 -283.45 -77.7 Q-304.25 -90.95 -317.75 -101.85 L-317.75 -101.8 -317.8 -101.8 -320.05 -103.65 -175.0 -121.4 Q-167.2 -117.75 -158.45 -113.85 L-39.55 -63.95 -31.1 -60.45 -27.4 -58.85 -19.15 -55.35 -14.05 -53.15 -11.5 -52.05 1.05 -46.55 1.4 -46.4 14.1 -40.7 15.05 -40.25 35.3 -30.85 36.3 -30.35 37.0 -30.05" fill="#ffffff" fill-rule="evenodd" stroke="none"/>
  </g>
</svg>
