<?xml version="1.0" encoding="UTF-8" standalone="no"?>
<svg xmlns:xlink="http://www.w3.org/1999/xlink" height="192.05px" width="96.45px" xmlns="http://www.w3.org/2000/svg">
  <g transform="matrix(1.0, 0.0, 0.0, 1.0, 48.2, 96.05)">
    <path d="M20.4 -66.1 Q19.7 -65.15 18.8 -65.15 17.7 -65.15 16.9 -66.55 16.15 -67.9 16.15 -69.85 16.15 -71.8 16.9 -73.2 17.7 -74.55 18.8 -74.55 L19.35 -74.45 19.45 -73.9 19.0 -73.95 Q17.95 -73.95 17.2 -72.85 16.5 -71.7 16.5 -70.15 16.5 -68.6 17.2 -67.5 17.95 -66.35 19.0 -66.35 19.75 -66.35 20.3 -66.9 L20.4 -66.1 20.3 -66.9 20.4 -67.0 20.4 -66.45 20.4 -67.0 20.4 -67.5 20.4 -66.45 20.4 -66.1 M18.15 -71.75 Q19.3 -71.45 18.75 -70.5 L18.35 -70.2 Q17.45 -70.05 17.4 -70.95 17.35 -71.6 18.0 -71.75 L18.15 -71.75 M12.4 -72.95 Q11.7 -74.05 10.65 -74.05 9.6 -74.05 8.85 -72.95 8.15 -71.8 8.15 -70.25 8.15 -68.7 8.85 -67.6 9.6 -66.45 10.65 -66.45 11.7 -66.45 12.4 -67.6 13.15 -68.7 13.15 -70.25 13.15 -71.8 12.4 -72.95 M13.6 -70.25 Q13.6 -68.15 12.7 -66.65 11.9 -65.1 10.7 -65.1 9.45 -65.1 8.6 -66.65 7.75 -68.15 7.75 -70.25 7.75 -72.4 8.6 -73.95 9.45 -75.45 10.7 -75.45 11.9 -75.45 12.7 -73.95 13.6 -72.4 13.6 -70.25 M9.65 -70.7 Q8.75 -70.55 8.7 -71.45 8.65 -72.1 9.35 -72.25 L9.45 -72.3 Q10.6 -72.0 10.05 -71.0 L9.65 -70.7" fill="#ffffff" fill-rule="evenodd" stroke="none"/>
    <path d="M19.35 -74.45 L18.8 -74.55 Q17.7 -74.55 16.9 -73.2 16.15 -71.8 16.15 -69.85 16.15 -67.9 16.9 -66.55 17.7 -65.15 18.8 -65.15 19.7 -65.15 20.4 -66.1 L20.55 -64.65 Q21.95 -60.15 15.9 -60.8 -8.3 -66.6 -13.75 -75.4 -12.0 -92.9 1.7 -94.5 L2.25 -95.25 Q3.05 -96.05 4.2 -96.05 5.35 -96.05 6.15 -95.25 L6.8 -94.2 Q15.85 -91.75 19.35 -74.45 M13.6 -70.25 Q13.6 -72.4 12.7 -73.95 11.9 -75.45 10.7 -75.45 9.45 -75.45 8.6 -73.95 7.75 -72.4 7.75 -70.25 7.75 -68.15 8.6 -66.65 9.45 -65.1 10.7 -65.1 11.9 -65.1 12.7 -66.65 13.6 -68.15 13.6 -70.25" fill="url(#gradient0)" fill-rule="evenodd" stroke="none"/>
    <path d="M-13.75 -75.4 Q-8.3 -66.6 15.9 -60.8 21.95 -60.15 20.55 -64.65 25.65 -61.9 25.6 -54.15 25.55 -46.45 33.65 -30.75 41.75 -15.1 46.5 0.3 52.75 27.05 36.8 44.4 26.75 55.35 14.5 60.15 8.6 62.45 2.2 63.3 -11.65 64.4 -23.6 54.1 -32.55 46.45 -40.45 32.5 -60.4 -13.85 -29.15 -50.9 -22.2 -59.2 -18.4 -68.75 -16.85 -74.15 -13.75 -75.4 M-30.1 -15.75 L-31.5 -15.75 Q-34.95 -15.95 -38.75 -17.2 L-39.05 -17.25 Q-41.6 -17.65 -40.45 -15.1 L-39.7 -13.65 Q-39.1 -12.1 -40.05 -11.0 L-41.9 -9.0 Q-42.95 -7.6 -40.65 -7.45 L-38.15 -7.35 Q-36.7 -7.25 -35.85 -5.65 L-35.15 -4.05 Q-33.9 -1.55 -32.45 -3.8 -30.95 -7.3 -28.6 -10.25 L-27.6 -11.45 -30.1 -15.75 M2.2 -20.15 Q3.35 -6.0 -28.65 -8.95 L-28.6 -10.25 -28.65 -8.95 Q3.35 -6.0 2.2 -20.15 M-19.95 -40.05 Q-26.85 -36.45 -31.95 -16.1 L-31.5 -15.75 -31.95 -16.1 Q-26.85 -36.45 -19.95 -40.05" fill="url(#gradient1)" fill-rule="evenodd" stroke="none"/>
    <path d="M-27.6 -11.45 L-28.6 -10.25 Q-30.95 -7.3 -32.45 -3.8 -33.9 -1.55 -35.15 -4.05 L-35.85 -5.65 Q-36.7 -7.25 -38.15 -7.35 L-40.65 -7.45 Q-42.95 -7.6 -41.9 -9.0 L-40.05 -11.0 Q-39.1 -12.1 -39.7 -13.65 L-40.45 -15.1 Q-41.6 -17.65 -39.05 -17.25 L-38.75 -17.2 Q-34.95 -15.95 -31.5 -15.75 L-30.1 -15.75 -27.6 -11.45" fill="url(#gradient2)" fill-rule="evenodd" stroke="none"/>
    <path d="M-2.05 68.05 Q-5.1 73.25 -6.5 82.55 -1.85 89.3 -1.25 96.0 -10.7 91.3 -14.8 83.25 -16.75 66.05 -23.6 54.1 -11.65 64.4 2.2 63.3 -0.25 64.9 -2.05 68.05" fill="url(#gradient3)" fill-rule="evenodd" stroke="none"/>
    <path d="M14.5 60.15 Q9.65 67.35 8.55 80.8 15.75 85.3 18.95 92.85 8.7 90.65 2.15 85.7 1.25 76.05 -2.05 68.05 -0.25 64.9 2.2 63.3 8.6 62.45 14.5 60.15" fill="url(#gradient4)" fill-rule="evenodd" stroke="none"/>
    <path d="M20.3 -66.9 Q19.75 -66.35 19.0 -66.35 17.95 -66.35 17.2 -67.5 16.5 -68.6 16.5 -70.15 16.5 -71.7 17.2 -72.85 17.95 -73.95 19.0 -73.95 L19.45 -73.9 Q20.15 -71.65 20.35 -68.0 L20.4 -67.5 20.4 -67.0 20.3 -66.9 M18.15 -71.75 L18.0 -71.75 Q17.35 -71.6 17.4 -70.95 17.45 -70.05 18.35 -70.2 L18.75 -70.5 Q19.3 -71.45 18.15 -71.75 M12.4 -72.95 Q13.15 -71.8 13.15 -70.25 13.15 -68.7 12.4 -67.6 11.7 -66.45 10.65 -66.45 9.6 -66.45 8.85 -67.6 8.15 -68.7 8.15 -70.25 8.15 -71.8 8.85 -72.95 9.6 -74.05 10.65 -74.05 11.7 -74.05 12.4 -72.95 M9.65 -70.7 L10.05 -71.0 Q10.6 -72.0 9.45 -72.3 L9.35 -72.25 Q8.65 -72.1 8.7 -71.45 8.75 -70.55 9.65 -70.7" fill="#884400" fill-rule="evenodd" stroke="none"/>
    <path d="M19.35 -74.45 L18.8 -74.55 Q17.7 -74.55 16.9 -73.2 16.15 -71.8 16.15 -69.85 16.15 -67.9 16.9 -66.55 17.7 -65.15 18.8 -65.15 19.7 -65.15 20.4 -66.1 L20.4 -66.45 20.4 -67.0 M19.45 -73.9 L19.35 -74.45 Q15.85 -91.75 6.8 -94.2 L6.15 -95.25 Q5.35 -96.05 4.2 -96.05 3.05 -96.05 2.25 -95.25 L1.7 -94.5 Q-12.0 -92.9 -13.75 -75.4 -8.3 -66.6 15.9 -60.8 21.95 -60.15 20.55 -64.65 L20.4 -66.1 M13.6 -70.25 Q13.6 -68.15 12.7 -66.65 11.9 -65.1 10.7 -65.1 9.45 -65.1 8.6 -66.65 7.75 -68.15 7.75 -70.25 7.75 -72.4 8.6 -73.95 9.45 -75.45 10.7 -75.45 11.9 -75.45 12.7 -73.95 13.6 -72.4 13.6 -70.25 M20.4 -67.5 L20.4 -67.0 M19.45 -73.9 Q20.15 -71.65 20.35 -68.0 L20.4 -67.5 M20.55 -64.65 Q25.65 -61.9 25.6 -54.15 25.55 -46.45 33.65 -30.75 41.75 -15.1 46.5 0.3 52.75 27.05 36.8 44.4 26.75 55.35 14.5 60.15 9.65 67.35 8.55 80.8 15.75 85.3 18.95 92.85 8.7 90.65 2.15 85.7 1.25 76.05 -2.05 68.05 -5.1 73.25 -6.5 82.55 -1.85 89.3 -1.25 96.0 -10.7 91.3 -14.8 83.25 -16.75 66.05 -23.6 54.1 -32.55 46.45 -40.45 32.5 -60.4 -13.85 -29.15 -50.9 -22.2 -59.2 -18.4 -68.75 -16.85 -74.15 -13.75 -75.4 M-30.1 -15.75 L-31.5 -15.75 Q-34.95 -15.95 -38.75 -17.2 L-39.05 -17.25 Q-41.6 -17.65 -40.45 -15.1 L-39.7 -13.65 Q-39.1 -12.1 -40.05 -11.0 L-41.9 -9.0 Q-42.95 -7.6 -40.65 -7.45 L-38.15 -7.35 Q-36.7 -7.25 -35.85 -5.65 L-35.15 -4.05 Q-33.9 -1.55 -32.45 -3.8 -30.95 -7.3 -28.6 -10.25 L-27.6 -11.45 M-31.5 -15.75 L-31.95 -16.1 Q-26.85 -36.45 -19.95 -40.05 M-28.6 -10.25 L-28.65 -8.95 Q3.35 -6.0 2.2 -20.15 M14.5 60.15 Q8.6 62.45 2.2 63.3 -0.25 64.9 -2.05 68.05 M2.2 63.3 Q-11.65 64.4 -23.6 54.1" fill="none" stroke="#660099" stroke-linecap="round" stroke-linejoin="round" stroke-width="0.05"/>
  </g>
  <defs>
    <radialGradient cx="0" cy="0" gradientTransform="matrix(0.0293, 0.0, 0.0, 0.0293, 9.6, -74.9)" gradientUnits="userSpaceOnUse" id="gradient0" r="819.2" spreadMethod="pad">
      <stop offset="0.0" stop-color="#9900cc"/>
      <stop offset="0.5294117647058824" stop-color="#9933ff"/>
      <stop offset="1.0" stop-color="#6633cc"/>
    </radialGradient>
    <radialGradient cx="0" cy="0" gradientTransform="matrix(0.0944, 0.0, 0.0, 0.0944, 21.0, -8.3)" gradientUnits="userSpaceOnUse" id="gradient1" r="819.2" spreadMethod="pad">
      <stop offset="0.0" stop-color="#9900cc"/>
      <stop offset="0.5294117647058824" stop-color="#9933ff"/>
      <stop offset="1.0" stop-color="#6633cc"/>
    </radialGradient>
    <radialGradient cx="0" cy="0" gradientTransform="matrix(0.0079, 0.0137, -0.0137, 0.0079, -31.95, -7.4)" gradientUnits="userSpaceOnUse" id="gradient2" r="819.2" spreadMethod="pad">
      <stop offset="0.0" stop-color="#9900cc"/>
      <stop offset="0.5294117647058824" stop-color="#9933ff"/>
      <stop offset="1.0" stop-color="#6633cc"/>
    </radialGradient>
    <radialGradient cx="0" cy="0" gradientTransform="matrix(0.0342, 0.0, 0.0, 0.0342, -2.05, 68.05)" gradientUnits="userSpaceOnUse" id="gradient3" r="819.2" spreadMethod="pad">
      <stop offset="0.0" stop-color="#9900cc"/>
      <stop offset="0.5294117647058824" stop-color="#9933ff"/>
      <stop offset="1.0" stop-color="#6633cc"/>
    </radialGradient>
    <radialGradient cx="0" cy="0" gradientTransform="matrix(0.0362, 0.0, 0.0, 0.0362, 4.4, 67.6)" gradientUnits="userSpaceOnUse" id="gradient4" r="819.2" spreadMethod="pad">
      <stop offset="0.0" stop-color="#9900cc"/>
      <stop offset="0.5294117647058824" stop-color="#9933ff"/>
      <stop offset="1.0" stop-color="#6633cc"/>
    </radialGradient>
  </defs>
</svg>
