<?xml version="1.0" encoding="UTF-8" standalone="no"?>
<svg xmlns:xlink="http://www.w3.org/1999/xlink" height="188.15px" width="92.1px" xmlns="http://www.w3.org/2000/svg">
  <g transform="matrix(1.0, 0.0, 0.0, 1.0, 46.05, 94.1)">
    <path d="M18.5 -61.3 L20.4 -60.6 Q24.9 -57.35 24.9 -50.6 26.95 -40.2 29.05 -32.85 31.65 -23.8 34.4 -19.45 46.15 -2.8 45.85 16.6 47.95 36.4 29.1 52.55 24.3 56.4 18.45 58.75 L16.15 59.6 15.55 59.8 10.15 61.15 Q2.95 62.6 -4.55 61.25 -12.0 60.2 -20.05 55.45 -31.4 48.65 -39.05 32.0 -50.0 8.55 -43.85 -20.05 -41.85 -36.95 -26.35 -48.3 L-24.05 -49.9 -23.7 -50.25 Q-20.05 -54.2 -18.75 -63.75 -17.75 -71.4 -14.6 -70.55 3.7 -66.75 18.5 -61.3 M7.4 -34.3 Q-0.5 -24.85 22.4 -7.25 L22.75 -7.4 22.4 -7.25 Q-0.5 -24.85 7.4 -34.3 M22.85 -9.8 L22.75 -7.4 Q22.4 -4.05 21.2 -0.35 L21.15 -0.05 Q20.75 2.7 23.5 1.45 L25.1 0.65 Q26.75 -0.05 27.95 1.0 L30.15 3.0 Q31.7 4.15 31.8 1.7 L31.9 -1.0 Q32.05 -2.65 33.8 -3.55 L35.5 -4.3 Q38.25 -5.7 35.8 -7.25 32.2 -8.8 29.15 -11.15 L27.5 -12.5 22.85 -9.8 M29.15 -11.15 Q31.05 -21.3 29.05 -32.85 31.05 -21.3 29.15 -11.15" fill="url(#gradient0)" fill-rule="evenodd" stroke="none"/>
    <path d="M-14.6 -70.55 Q-14.65 -85.85 -5.7 -91.4 -3.35 -92.25 -1.25 -92.55 L-0.7 -93.3 Q0.1 -94.1 1.25 -94.1 2.4 -94.1 3.2 -93.3 L3.85 -92.3 Q9.6 -90.9 13.45 -83.9 19.25 -71.75 18.5 -61.3 3.7 -66.75 -14.6 -70.55" fill="url(#gradient1)" fill-rule="evenodd" stroke="none"/>
    <path d="M27.5 -12.5 L29.15 -11.15 Q32.2 -8.8 35.8 -7.25 38.25 -5.7 35.5 -4.3 L33.8 -3.55 Q32.05 -2.65 31.9 -1.0 L31.8 1.7 Q31.7 4.15 30.15 3.0 L27.95 1.0 Q26.75 -0.05 25.1 0.65 L23.5 1.45 Q20.75 2.7 21.15 -0.05 L21.2 -0.35 Q22.4 -4.05 22.75 -7.4 L22.85 -9.8 27.5 -12.5" fill="url(#gradient2)" fill-rule="evenodd" stroke="none"/>
    <path d="M15.65 59.95 Q3.05 69.05 -1.45 86.85 L0.25 87.65 3.65 89.1 4.4 89.4 7.4 90.4 13.6 91.9 Q8.5 94.2 1.35 94.05 L-9.95 93.0 -9.85 90.3 Q-9.5 75.7 -16.55 60.5 -18.15 57.9 -20.05 55.45 -12.0 60.2 -4.55 61.25 2.95 62.6 10.15 61.15 L15.55 59.8 15.65 59.95" fill="url(#gradient3)" fill-rule="evenodd" stroke="none"/>
    <path d="M-9.85 90.3 L-14.25 88.75 Q-11.2 77.1 -16.55 60.5 -9.5 75.7 -9.85 90.3" fill="url(#gradient4)" fill-rule="evenodd" stroke="none"/>
    <path d="M16.15 59.6 L15.65 59.95 15.55 59.8 16.15 59.6" fill="url(#gradient5)" fill-rule="evenodd" stroke="none"/>
    <path d="M0.25 87.65 L6.9 86.5 4.4 89.4 3.65 89.1 0.25 87.65" fill="url(#gradient6)" fill-rule="evenodd" stroke="none"/>
    <path d="M18.5 -61.3 L20.4 -60.6 Q24.9 -57.35 24.9 -50.6 26.95 -40.2 29.05 -32.85 31.65 -23.8 34.4 -19.45 46.15 -2.8 45.85 16.6 47.95 36.4 29.1 52.55 24.3 56.4 18.45 58.75 L16.15 59.6 15.65 59.95 Q3.05 69.05 -1.45 86.85 L0.25 87.65 6.9 86.5 4.4 89.4 7.4 90.4 13.6 91.9 Q8.5 94.2 1.35 94.05 L-9.95 93.0 -9.85 90.3 -14.25 88.75 Q-11.2 77.1 -16.55 60.5 -18.15 57.9 -20.05 55.45 -31.4 48.65 -39.05 32.0 -50.0 8.55 -43.85 -20.05 -41.85 -36.95 -26.35 -48.3 L-24.05 -49.9 -23.7 -50.25 Q-20.05 -54.2 -18.75 -63.75 -17.75 -71.4 -14.6 -70.55 -14.65 -85.85 -5.7 -91.4 -3.35 -92.25 -1.25 -92.55 L-0.7 -93.3 Q0.1 -94.1 1.25 -94.1 2.4 -94.1 3.2 -93.3 L3.85 -92.3 Q9.6 -90.9 13.45 -83.9 19.25 -71.75 18.5 -61.3 3.7 -66.75 -14.6 -70.55 M22.75 -7.4 L22.4 -7.25 Q-0.5 -24.85 7.4 -34.3 M22.85 -9.8 L22.75 -7.4 Q22.4 -4.05 21.2 -0.35 L21.15 -0.05 Q20.75 2.7 23.5 1.45 L25.1 0.65 Q26.75 -0.05 27.95 1.0 L30.15 3.0 Q31.7 4.15 31.8 1.7 L31.9 -1.0 Q32.05 -2.65 33.8 -3.55 L35.5 -4.3 Q38.25 -5.7 35.8 -7.25 32.2 -8.8 29.15 -11.15 L27.5 -12.5 M29.05 -32.85 Q31.05 -21.3 29.15 -11.15 M-9.85 90.3 Q-9.5 75.7 -16.55 60.5 M-20.05 55.45 Q-12.0 60.2 -4.55 61.25 2.95 62.6 10.15 61.15 L15.55 59.8 16.15 59.6 M0.25 87.65 L3.65 89.1 4.4 89.4" fill="none" stroke="#660099" stroke-linecap="round" stroke-linejoin="round" stroke-width="0.05"/>
  </g>
  <defs>
    <radialGradient cx="0" cy="0" gradientTransform="matrix(0.1259, 0.0, 0.0, 0.1259, 3.05, -41.05)" gradientUnits="userSpaceOnUse" id="gradient0" r="819.2" spreadMethod="pad">
      <stop offset="0.0" stop-color="#9900cc"/>
      <stop offset="0.5294117647058824" stop-color="#9933ff"/>
      <stop offset="1.0" stop-color="#6633cc"/>
    </radialGradient>
    <radialGradient cx="0" cy="0" gradientTransform="matrix(0.0272, 0.0, 0.0, 0.0272, 6.0, -79.1)" gradientUnits="userSpaceOnUse" id="gradient1" r="819.2" spreadMethod="pad">
      <stop offset="0.0" stop-color="#9900cc"/>
      <stop offset="0.5294117647058824" stop-color="#9933ff"/>
      <stop offset="1.0" stop-color="#6633cc"/>
    </radialGradient>
    <radialGradient cx="0" cy="0" gradientTransform="matrix(0.0149, -0.0086, 0.0086, 0.0149, 31.85, -7.75)" gradientUnits="userSpaceOnUse" id="gradient2" r="819.2" spreadMethod="pad">
      <stop offset="0.0" stop-color="#9900cc"/>
      <stop offset="0.5294117647058824" stop-color="#9933ff"/>
      <stop offset="1.0" stop-color="#6633cc"/>
    </radialGradient>
    <radialGradient cx="0" cy="0" gradientTransform="matrix(0.0485, 0.0, 0.0, 0.0485, -9.85, 90.3)" gradientUnits="userSpaceOnUse" id="gradient3" r="819.2" spreadMethod="pad">
      <stop offset="0.0" stop-color="#9900cc"/>
      <stop offset="0.5294117647058824" stop-color="#9933ff"/>
      <stop offset="1.0" stop-color="#6633cc"/>
    </radialGradient>
    <radialGradient cx="0" cy="0" gradientTransform="matrix(0.0373, 0.0, 0.0, 0.0373, -9.85, 90.3)" gradientUnits="userSpaceOnUse" id="gradient4" r="819.2" spreadMethod="pad">
      <stop offset="0.0" stop-color="#9900cc"/>
      <stop offset="0.5294117647058824" stop-color="#9933ff"/>
      <stop offset="1.0" stop-color="#6633cc"/>
    </radialGradient>
    <radialGradient cx="0" cy="0" gradientTransform="matrix(0.041, 0.0, 0.0, 0.041, -0.25, 82.6)" gradientUnits="userSpaceOnUse" id="gradient5" r="819.2" spreadMethod="pad">
      <stop offset="0.3843137254901961" stop-color="#33ccff"/>
      <stop offset="1.0" stop-color="#3399ff"/>
    </radialGradient>
    <radialGradient cx="0" cy="0" gradientTransform="matrix(0.0046, 0.0, 0.0, 0.0046, 4.0, 87.85)" gradientUnits="userSpaceOnUse" id="gradient6" r="819.2" spreadMethod="pad">
      <stop offset="0.0" stop-color="#9900cc"/>
      <stop offset="0.5294117647058824" stop-color="#9933ff"/>
      <stop offset="1.0" stop-color="#6633cc"/>
    </radialGradient>
  </defs>
</svg>
