<?xml version="1.0" encoding="UTF-8" standalone="no"?>
<svg xmlns:xlink="http://www.w3.org/1999/xlink" height="169.9px" width="108.2px" xmlns="http://www.w3.org/2000/svg">
  <g transform="matrix(1.0, 0.0, 0.0, 1.0, 153.95, 169.4)">
    <path d="M-150.55 -67.25 L-150.55 -69.0 Q-150.35 -68.45 -150.45 -67.8 L-150.55 -67.25" fill="url(#gradient0)" fill-rule="evenodd" stroke="none"/>
    <path d="M-87.75 -137.55 Q-87.75 -139.25 -88.95 -140.45 -90.1 -141.6 -91.8 -141.6 -93.5 -141.6 -94.7 -140.45 -95.85 -139.25 -95.85 -137.55 -95.85 -135.85 -94.7 -134.7 -93.5 -133.5 -91.8 -133.5 L-91.45 -133.5 Q-90.0 -133.6 -88.95 -134.7 L-88.05 -135.9 Q-87.75 -136.65 -87.75 -137.55 M-86.9 -137.5 Q-86.95 -135.5 -88.35 -134.1 -89.75 -132.65 -91.75 -132.65 -93.75 -132.65 -95.2 -134.1 -96.6 -135.5 -96.6 -137.5 -96.6 -139.5 -95.2 -140.9 -93.75 -142.3 -91.75 -142.3 -89.75 -142.3 -88.35 -140.9 -86.95 -139.5 -86.9 -137.5 M-93.65 -139.55 Q-92.25 -139.05 -93.3 -138.0 L-93.85 -137.9 Q-95.0 -138.45 -94.1 -139.3 L-93.65 -139.55 M-109.45 -138.85 L-110.0 -138.75 Q-111.15 -139.3 -110.3 -140.15 L-109.8 -140.4 Q-108.4 -139.9 -109.45 -138.85 M-102.85 -138.25 Q-102.85 -136.25 -104.3 -134.85 -104.85 -134.3 -105.45 -133.95 -106.45 -133.45 -107.7 -133.45 -109.7 -133.45 -111.1 -134.85 -112.5 -136.25 -112.5 -138.25 -112.5 -140.25 -111.1 -141.7 -109.7 -143.1 -107.7 -143.1 -106.4 -143.1 -105.3 -142.45 L-104.3 -141.7 Q-102.85 -140.25 -102.85 -138.25 M-104.1 -136.65 Q-103.8 -137.4 -103.8 -138.3 -103.8 -140.0 -105.0 -141.2 -106.15 -142.35 -107.85 -142.35 -109.55 -142.35 -110.75 -141.2 -111.9 -140.0 -111.9 -138.3 -111.9 -136.6 -110.75 -135.45 -109.55 -134.25 -107.85 -134.25 L-107.5 -134.25 Q-106.05 -134.35 -105.0 -135.45 L-104.1 -136.65" fill="#ffffff" fill-rule="evenodd" stroke="none"/>
    <path d="M-117.65 -140.25 L-117.7 -140.8 Q-115.5 -144.5 -114.4 -153.2 L-114.2 -153.95 Q-111.4 -166.4 -101.5 -167.65 L-100.9 -168.6 Q-100.1 -169.4 -98.95 -169.4 -97.8 -169.4 -97.0 -168.6 -96.45 -168.05 -96.25 -167.3 -86.15 -164.55 -84.7 -151.95 L-84.6 -151.15 Q-84.2 -143.05 -82.5 -138.55 -82.55 -132.8 -91.75 -131.5 L-100.85 -131.2 Q-106.0 -131.25 -109.55 -132.15 -117.3 -134.15 -117.65 -140.25 M-86.9 -137.5 Q-86.95 -139.5 -88.35 -140.9 -89.75 -142.3 -91.75 -142.3 -93.75 -142.3 -95.2 -140.9 -96.6 -139.5 -96.6 -137.5 -96.6 -135.5 -95.2 -134.1 -93.75 -132.65 -91.75 -132.65 -89.75 -132.65 -88.35 -134.1 -86.95 -135.5 -86.9 -137.5 M-102.85 -138.25 Q-102.85 -140.25 -104.3 -141.7 L-105.3 -142.45 Q-106.4 -143.1 -107.7 -143.1 -109.7 -143.1 -111.1 -141.7 -112.5 -140.25 -112.5 -138.25 -112.5 -136.25 -111.1 -134.85 -109.7 -133.45 -107.7 -133.45 -106.45 -133.45 -105.45 -133.95 -104.85 -134.3 -104.3 -134.85 -102.85 -136.25 -102.85 -138.25" fill="url(#gradient1)" fill-rule="evenodd" stroke="none"/>
    <path d="M-82.5 -138.55 Q-76.95 -135.9 -76.2 -126.85 -75.45 -117.85 -65.8 -105.45 -56.15 -93.1 -51.7 -75.8 L-52.95 -75.0 -54.05 -75.95 -57.9 -73.75 -57.9 -71.95 Q-57.95 -68.8 -58.9 -65.35 L-58.95 -65.1 Q-59.15 -62.65 -56.85 -63.65 L-55.55 -64.3 Q-54.2 -64.85 -53.1 -63.85 L-52.65 -63.4 Q-52.45 -41.05 -70.5 -29.4 -79.7 -22.25 -89.0 -19.35 -92.9 -18.15 -96.75 -17.7 -104.6 -16.8 -112.45 -18.85 -115.6 -19.65 -118.75 -20.95 -125.7 -23.85 -132.65 -28.95 L-133.25 -29.35 Q-147.25 -38.85 -150.35 -61.05 L-150.5 -64.05 Q-150.05 -64.0 -149.2 -64.45 L-147.0 -65.6 Q-145.7 -66.2 -144.15 -65.25 L-142.75 -64.25 Q-140.4 -62.7 -140.3 -65.35 -140.75 -69.2 -140.15 -73.0 L-139.9 -74.4 -144.2 -76.85 -145.9 -75.95 -150.15 -74.4 Q-148.55 -87.8 -141.35 -99.5 -138.2 -104.7 -133.9 -109.55 -130.35 -118.3 -123.75 -126.8 -121.9 -138.7 -117.95 -140.25 L-117.65 -140.25 Q-117.3 -134.15 -109.55 -132.15 -106.0 -131.25 -100.85 -131.2 L-91.75 -131.5 Q-82.55 -132.8 -82.5 -138.55 M-141.35 -99.5 Q-146.1 -88.4 -147.0 -76.6 L-145.9 -75.95 -147.0 -76.6 Q-146.1 -88.4 -141.35 -99.5 M-119.05 -104.1 Q-123.75 -84.15 -140.15 -73.0 -123.75 -84.15 -119.05 -104.1 M-77.9 -103.95 Q-72.6 -80.3 -58.4 -71.65 L-57.9 -71.95 -58.4 -71.65 Q-72.6 -80.3 -77.9 -103.95" fill="url(#gradient2)" fill-rule="evenodd" stroke="none"/>
    <path d="M-52.95 -75.0 Q-50.15 -72.6 -46.8 -70.95 -44.65 -69.45 -46.95 -68.3 L-48.35 -67.7 Q-49.8 -66.95 -49.85 -65.5 L-49.8 -63.1 Q-49.85 -60.9 -51.2 -61.95 L-52.65 -63.4 -53.1 -63.85 Q-54.2 -64.85 -55.55 -64.3 L-56.85 -63.65 Q-59.15 -62.65 -58.95 -65.1 L-58.9 -65.35 Q-57.95 -68.8 -57.9 -71.95 L-57.9 -73.75 -54.05 -75.95 -52.95 -75.0" fill="url(#gradient3)" fill-rule="evenodd" stroke="none"/>
    <path d="M-150.5 -64.05 Q-151.2 -64.1 -151.05 -65.15 L-150.55 -67.25 -150.45 -67.8 Q-150.35 -68.45 -150.55 -69.0 -150.8 -69.7 -151.5 -70.25 L-152.85 -71.15 Q-155.1 -72.75 -152.75 -73.7 L-152.45 -73.8 -150.15 -74.4 -145.9 -75.95 -144.2 -76.85 -139.9 -74.4 -140.15 -73.0 Q-140.75 -69.2 -140.3 -65.35 -140.4 -62.7 -142.75 -64.25 L-144.15 -65.25 Q-145.7 -66.2 -147.0 -65.6 L-149.2 -64.45 Q-150.05 -64.0 -150.5 -64.05" fill="url(#gradient4)" fill-rule="evenodd" stroke="none"/>
    <path d="M-112.45 -18.85 L-113.15 -16.25 Q-113.25 -7.4 -115.8 0.5 -118.2 -8.0 -117.8 -16.55 L-118.75 -20.95 Q-115.6 -19.65 -112.45 -18.85" fill="url(#gradient5)" fill-rule="evenodd" stroke="none"/>
    <path d="M-89.0 -19.35 L-89.75 -15.3 Q-87.2 -7.45 -86.65 -0.1 -93.2 -6.9 -96.4 -15.0 L-96.75 -17.7 Q-92.9 -18.15 -89.0 -19.35" fill="url(#gradient6)" fill-rule="evenodd" stroke="none"/>
    <path d="M-87.75 -137.55 Q-87.75 -136.65 -88.05 -135.9 L-88.95 -134.7 Q-90.0 -133.6 -91.45 -133.5 L-91.8 -133.5 Q-93.5 -133.5 -94.7 -134.7 -95.85 -135.85 -95.85 -137.55 -95.85 -139.25 -94.7 -140.45 -93.5 -141.6 -91.8 -141.6 -90.1 -141.6 -88.95 -140.45 -87.75 -139.25 -87.75 -137.55 M-109.45 -138.85 Q-108.4 -139.9 -109.8 -140.4 L-110.3 -140.15 Q-111.15 -139.3 -110.0 -138.75 L-109.45 -138.85 M-93.65 -139.55 L-94.1 -139.3 Q-95.0 -138.45 -93.85 -137.9 L-93.3 -138.0 Q-92.25 -139.05 -93.65 -139.55 M-104.1 -136.65 L-105.0 -135.45 Q-106.05 -134.35 -107.5 -134.25 L-107.85 -134.25 Q-109.55 -134.25 -110.75 -135.45 -111.9 -136.6 -111.9 -138.3 -111.9 -140.0 -110.75 -141.2 -109.55 -142.35 -107.85 -142.35 -106.15 -142.35 -105.0 -141.2 -103.8 -140.0 -103.8 -138.3 -103.8 -137.4 -104.1 -136.65" fill="#884400" fill-rule="evenodd" stroke="none"/>
    <path d="M-82.5 -138.55 Q-76.95 -135.9 -76.2 -126.85 -75.45 -117.85 -65.8 -105.45 -56.15 -93.1 -51.7 -75.8 L-52.95 -75.0 Q-50.15 -72.6 -46.8 -70.95 -44.65 -69.45 -46.95 -68.3 L-48.35 -67.7 Q-49.8 -66.95 -49.85 -65.5 L-49.8 -63.1 Q-49.85 -60.9 -51.2 -61.95 L-52.65 -63.4 Q-52.45 -41.05 -70.5 -29.4 -79.7 -22.25 -89.0 -19.35 L-89.75 -15.3 Q-87.2 -7.45 -86.65 -0.1 -93.2 -6.9 -96.4 -15.0 L-96.75 -17.7 Q-104.6 -16.8 -112.45 -18.85 L-113.15 -16.25 Q-113.25 -7.4 -115.8 0.5 -118.2 -8.0 -117.8 -16.55 L-118.75 -20.95 Q-125.7 -23.85 -132.65 -28.95 L-133.25 -29.35 Q-147.25 -38.85 -150.35 -61.05 L-150.5 -64.05 Q-151.2 -64.1 -151.05 -65.15 L-150.55 -67.25 -150.55 -69.0 Q-150.8 -69.7 -151.5 -70.25 L-152.85 -71.15 Q-155.1 -72.75 -152.75 -73.7 L-152.45 -73.8 -150.15 -74.4 Q-148.55 -87.8 -141.35 -99.5 -138.2 -104.7 -133.9 -109.55 -130.35 -118.3 -123.75 -126.8 -121.9 -138.7 -117.95 -140.25 L-117.65 -140.25 -117.7 -140.8 Q-115.5 -144.5 -114.4 -153.2 L-114.2 -153.95 Q-111.4 -166.4 -101.5 -167.65 L-100.9 -168.6 Q-100.1 -169.4 -98.95 -169.4 -97.8 -169.4 -97.0 -168.6 -96.45 -168.05 -96.25 -167.3 -86.15 -164.55 -84.7 -151.95 L-84.6 -151.15 Q-84.2 -143.05 -82.5 -138.55 -82.55 -132.8 -91.75 -131.5 L-100.85 -131.2 Q-106.0 -131.25 -109.55 -132.15 -117.3 -134.15 -117.65 -140.25 M-86.9 -137.5 Q-86.95 -135.5 -88.35 -134.1 -89.75 -132.65 -91.75 -132.65 -93.75 -132.65 -95.2 -134.1 -96.6 -135.5 -96.6 -137.5 -96.6 -139.5 -95.2 -140.9 -93.75 -142.3 -91.75 -142.3 -89.75 -142.3 -88.35 -140.9 -86.95 -139.5 -86.9 -137.5 M-102.85 -138.25 Q-102.85 -136.25 -104.3 -134.85 -104.85 -134.3 -105.45 -133.95 -106.45 -133.45 -107.7 -133.45 -109.7 -133.45 -111.1 -134.85 -112.5 -136.25 -112.5 -138.25 -112.5 -140.25 -111.1 -141.7 -109.7 -143.1 -107.7 -143.1 -106.4 -143.1 -105.3 -142.45 L-104.3 -141.7 Q-102.85 -140.25 -102.85 -138.25 M-145.9 -75.95 L-147.0 -76.6 Q-146.1 -88.4 -141.35 -99.5 M-144.2 -76.85 L-145.9 -75.95 -150.15 -74.4 M-150.55 -69.0 Q-150.35 -68.45 -150.45 -67.8 L-150.55 -67.25 M-150.5 -64.05 Q-150.05 -64.0 -149.2 -64.45 L-147.0 -65.6 Q-145.7 -66.2 -144.15 -65.25 L-142.75 -64.25 Q-140.4 -62.7 -140.3 -65.35 -140.75 -69.2 -140.15 -73.0 L-139.9 -74.4 M-118.75 -20.95 Q-115.6 -19.65 -112.45 -18.85 M-89.0 -19.35 Q-92.9 -18.15 -96.75 -17.7 M-52.95 -75.0 L-54.05 -75.95 M-57.9 -73.75 L-57.9 -71.95 Q-57.95 -68.8 -58.9 -65.35 L-58.95 -65.1 Q-59.15 -62.65 -56.85 -63.65 L-55.55 -64.3 Q-54.2 -64.85 -53.1 -63.85 L-52.65 -63.4 M-57.9 -71.95 L-58.4 -71.65 Q-72.6 -80.3 -77.9 -103.95 M-140.15 -73.0 Q-123.75 -84.15 -119.05 -104.1" fill="none" stroke="#660099" stroke-linecap="round" stroke-linejoin="round" stroke-width="0.05"/>
  </g>
  <defs>
    <radialGradient cx="0" cy="0" gradientTransform="matrix(0.1213, 0.0, 0.0, 0.1213, -131.1, -51.95)" gradientUnits="userSpaceOnUse" id="gradient0" r="819.2" spreadMethod="pad">
      <stop offset="0.3843137254901961" stop-color="#33ccff"/>
      <stop offset="1.0" stop-color="#3399ff"/>
    </radialGradient>
    <radialGradient cx="0" cy="0" gradientTransform="matrix(0.0356, 0.0, 0.0, 0.0356, -104.05, -155.8)" gradientUnits="userSpaceOnUse" id="gradient1" r="819.2" spreadMethod="pad">
      <stop offset="0.0" stop-color="#9900cc"/>
      <stop offset="0.5294117647058824" stop-color="#9933ff"/>
      <stop offset="1.0" stop-color="#6633cc"/>
    </radialGradient>
    <radialGradient cx="0" cy="0" gradientTransform="matrix(0.1213, 0.0, 0.0, 0.1213, -131.1, -51.95)" gradientUnits="userSpaceOnUse" id="gradient2" r="819.2" spreadMethod="pad">
      <stop offset="0.0" stop-color="#9900cc"/>
      <stop offset="0.5294117647058824" stop-color="#9933ff"/>
      <stop offset="1.0" stop-color="#6633cc"/>
    </radialGradient>
    <radialGradient cx="0" cy="0" gradientTransform="matrix(0.0123, -0.0071, 0.0079, 0.0137, -50.15, -71.6)" gradientUnits="userSpaceOnUse" id="gradient3" r="819.2" spreadMethod="pad">
      <stop offset="0.0" stop-color="#9900cc"/>
      <stop offset="0.5294117647058824" stop-color="#9933ff"/>
      <stop offset="1.0" stop-color="#6633cc"/>
    </radialGradient>
    <radialGradient cx="0" cy="0" gradientTransform="matrix(0.0137, 0.0079, -0.0079, 0.0137, -141.65, -68.75)" gradientUnits="userSpaceOnUse" id="gradient4" r="819.2" spreadMethod="pad">
      <stop offset="0.0" stop-color="#9900cc"/>
      <stop offset="0.5294117647058824" stop-color="#9933ff"/>
      <stop offset="1.0" stop-color="#6633cc"/>
    </radialGradient>
    <radialGradient cx="0" cy="0" gradientTransform="matrix(0.0207, 0.0, 0.0, 0.0207, -113.15, -16.25)" gradientUnits="userSpaceOnUse" id="gradient5" r="819.2" spreadMethod="pad">
      <stop offset="0.0" stop-color="#9900cc"/>
      <stop offset="0.5294117647058824" stop-color="#9933ff"/>
      <stop offset="1.0" stop-color="#6633cc"/>
    </radialGradient>
    <radialGradient cx="0" cy="0" gradientTransform="matrix(0.0188, 0.0, 0.0, 0.0188, -90.5, -14.4)" gradientUnits="userSpaceOnUse" id="gradient6" r="819.2" spreadMethod="pad">
      <stop offset="0.0" stop-color="#9900cc"/>
      <stop offset="0.5294117647058824" stop-color="#9933ff"/>
      <stop offset="1.0" stop-color="#6633cc"/>
    </radialGradient>
  </defs>
</svg>
