<?xml version="1.0" encoding="UTF-8" standalone="no"?>
<svg xmlns:xlink="http://www.w3.org/1999/xlink" height="151.6px" width="94.75px" xmlns="http://www.w3.org/2000/svg">
  <g transform="matrix(1.0, 0.0, 0.0, 1.0, 146.9, 136.95)">
    <path d="M-112.1 -104.55 Q-113.25 -103.35 -113.25 -101.65 -113.25 -99.95 -112.1 -98.8 -110.9 -97.6 -109.2 -97.6 L-108.85 -97.6 Q-107.4 -97.7 -106.35 -98.8 L-105.45 -100.0 Q-105.15 -100.75 -105.15 -101.65 -105.15 -103.35 -106.35 -104.55 -107.5 -105.7 -109.2 -105.7 -110.9 -105.7 -112.1 -104.55 M-112.55 -105.1 Q-111.15 -106.5 -109.15 -106.5 -107.85 -106.5 -106.75 -105.85 L-105.75 -105.1 Q-104.3 -103.65 -104.3 -101.65 -104.3 -99.65 -105.75 -98.25 L-106.9 -97.35 Q-107.9 -96.85 -109.15 -96.85 -111.15 -96.85 -112.55 -98.25 -113.95 -99.65 -113.95 -101.65 -113.95 -103.65 -112.55 -105.1 M-110.35 -101.8 L-110.9 -101.7 Q-112.05 -102.25 -111.15 -103.1 L-110.7 -103.35 Q-109.3 -102.8 -110.35 -101.8 M-91.9 -105.55 Q-90.75 -105.25 -89.8 -104.3 -88.4 -102.9 -88.35 -100.9 -88.4 -98.9 -89.8 -97.5 -91.2 -96.05 -93.2 -96.05 -95.2 -96.05 -96.65 -97.5 -98.05 -98.9 -98.05 -100.9 L-97.85 -102.35 Q-97.5 -103.45 -96.65 -104.3 -95.2 -105.7 -93.2 -105.7 L-91.9 -105.55 M-94.85 -100.45 L-95.35 -100.4 Q-96.5 -100.9 -95.65 -101.8 L-95.15 -102.0 Q-93.75 -101.5 -94.85 -100.45 M-93.2 -104.9 Q-94.9 -104.9 -96.1 -103.75 -97.25 -102.55 -97.25 -100.85 -97.25 -99.15 -96.1 -98.0 -94.9 -96.8 -93.2 -96.8 L-92.85 -96.8 Q-91.4 -96.9 -90.35 -98.0 L-89.45 -99.2 Q-89.15 -99.95 -89.15 -100.85 -89.15 -102.55 -90.35 -103.75 -91.5 -104.9 -93.2 -104.9" fill="#ffffff" fill-rule="evenodd" stroke="none"/>
    <path d="M-140.65 -32.5 L-140.85 -32.65 -140.55 -32.65 -140.65 -32.5" fill="url(#gradient0)" fill-rule="evenodd" stroke="none"/>
    <path d="M-118.3 -113.85 L-117.75 -115.25 -116.15 -118.45 Q-114.85 -133.3 -103.35 -134.7 L-102.6 -136.15 Q-101.8 -136.95 -100.65 -136.95 -99.5 -136.95 -98.7 -136.15 -98.1 -135.55 -97.95 -134.75 -88.2 -133.4 -86.75 -120.5 L-85.8 -111.85 -85.6 -109.95 Q-80.95 -98.2 -90.0 -92.15 -99.0 -86.1 -110.6 -93.2 -122.2 -100.35 -119.2 -109.8 -118.95 -111.85 -118.3 -113.85 M-112.55 -105.1 Q-113.95 -103.65 -113.95 -101.65 -113.95 -99.65 -112.55 -98.25 -111.15 -96.85 -109.15 -96.85 -107.9 -96.85 -106.9 -97.35 L-105.75 -98.25 Q-104.3 -99.65 -104.3 -101.65 -104.3 -103.65 -105.75 -105.1 L-106.75 -105.85 Q-107.85 -106.5 -109.15 -106.5 -111.15 -106.5 -112.55 -105.1 M-91.9 -105.55 L-93.2 -105.7 Q-95.2 -105.7 -96.65 -104.3 -97.5 -103.45 -97.85 -102.35 L-98.05 -100.9 Q-98.05 -98.9 -96.65 -97.5 -95.2 -96.05 -93.2 -96.05 -91.2 -96.05 -89.8 -97.5 -88.4 -98.9 -88.35 -100.9 -88.4 -102.9 -89.8 -104.3 -90.75 -105.25 -91.9 -105.55" fill="url(#gradient1)" fill-rule="evenodd" stroke="none"/>
    <path d="M-85.8 -111.85 L-85.05 -111.7 Q-80.2 -110.0 -76.85 -90.4 -75.85 -84.55 -74.55 -81.85 -62.6 -58.6 -58.4 -36.2 L-59.0 -36.05 -60.85 -37.55 -65.15 -35.1 -65.15 -34.8 Q-65.15 -30.85 -66.6 -26.4 L-66.65 -26.1 Q-67.05 -23.6 -64.5 -24.75 L-63.05 -25.45 Q-61.5 -26.1 -60.4 -25.15 L-60.2 -24.95 Q-58.25 -16.85 -58.4 -8.7 -59.15 3.6 -70.5 11.2 -94.9 18.15 -122.2 11.2 -144.55 7.5 -146.45 -18.45 L-146.5 -19.55 -146.9 -31.4 Q-145.95 -66.4 -126.0 -94.2 -124.75 -109.75 -118.3 -113.85 -118.95 -111.85 -119.2 -109.8 -122.2 -100.35 -110.6 -93.2 -99.0 -86.1 -90.0 -92.15 -80.95 -98.2 -85.6 -109.95 L-85.8 -111.85 M-140.65 -32.5 Q-142.5 -29.85 -145.2 -27.45 L-145.4 -27.2 Q-146.95 -25.2 -144.2 -24.95 L-142.55 -24.85 Q-140.95 -24.65 -140.45 -23.25 L-139.65 -20.65 Q-138.95 -19.05 -137.7 -20.95 L-136.35 -23.05 Q-135.5 -24.25 -133.7 -24.2 L-132.0 -24.0 Q-129.2 -23.85 -130.4 -26.2 -132.55 -29.15 -133.95 -32.4 L-133.05 -32.4 Q-125.45 -43.2 -120.2 -56.35 -125.45 -43.2 -133.05 -32.4 L-133.95 -32.4 -134.6 -34.2 -139.55 -34.2 -140.55 -32.65 -140.85 -32.65 -140.65 -32.5 M-133.3 -76.8 Q-139.55 -54.7 -140.85 -32.65 -139.55 -54.7 -133.3 -76.8 M-79.05 -59.15 Q-73.15 -41.65 -65.7 -34.7 L-65.15 -34.8 -65.7 -34.7 Q-73.15 -41.65 -79.05 -59.15" fill="url(#gradient2)" fill-rule="evenodd" stroke="none"/>
    <path d="M-59.0 -36.05 Q-56.3 -34.1 -53.2 -32.75 -50.95 -31.3 -53.45 -30.05 L-55.05 -29.35 Q-56.65 -28.5 -56.75 -27.0 L-56.85 -24.55 Q-57.0 -22.25 -58.4 -23.3 L-60.2 -24.95 -60.4 -25.15 Q-61.5 -26.1 -63.05 -25.45 L-64.5 -24.75 Q-67.05 -23.6 -66.65 -26.1 L-66.6 -26.4 Q-65.15 -30.85 -65.15 -34.8 L-65.15 -35.1 -60.85 -37.55 -59.0 -36.05" fill="url(#gradient3)" fill-rule="evenodd" stroke="none"/>
    <path d="M-133.95 -32.4 Q-132.55 -29.15 -130.4 -26.2 -129.2 -23.85 -132.0 -24.0 L-133.7 -24.2 Q-135.5 -24.25 -136.35 -23.05 L-137.7 -20.95 Q-138.95 -19.05 -139.65 -20.65 L-140.45 -23.25 Q-140.95 -24.65 -142.55 -24.85 L-144.2 -24.95 Q-146.95 -25.2 -145.4 -27.2 L-145.2 -27.45 Q-142.5 -29.85 -140.65 -32.5 L-140.55 -32.65 -139.55 -34.2 -134.6 -34.2 -133.95 -32.4" fill="url(#gradient4)" fill-rule="evenodd" stroke="none"/>
    <path d="M-112.1 -104.55 Q-110.9 -105.7 -109.2 -105.7 -107.5 -105.7 -106.35 -104.55 -105.15 -103.35 -105.15 -101.65 -105.15 -100.75 -105.45 -100.0 L-106.35 -98.8 Q-107.4 -97.7 -108.85 -97.6 L-109.2 -97.6 Q-110.9 -97.6 -112.1 -98.8 -113.25 -99.95 -113.25 -101.65 -113.25 -103.35 -112.1 -104.55 M-110.35 -101.8 Q-109.3 -102.8 -110.7 -103.35 L-111.15 -103.1 Q-112.05 -102.25 -110.9 -101.7 L-110.35 -101.8 M-94.85 -100.45 Q-93.75 -101.5 -95.15 -102.0 L-95.65 -101.8 Q-96.5 -100.9 -95.35 -100.4 L-94.85 -100.45 M-93.2 -104.9 Q-91.5 -104.9 -90.35 -103.75 -89.15 -102.55 -89.15 -100.85 -89.15 -99.95 -89.45 -99.2 L-90.35 -98.0 Q-91.4 -96.9 -92.85 -96.8 L-93.2 -96.8 Q-94.9 -96.8 -96.1 -98.0 -97.25 -99.15 -97.25 -100.85 -97.25 -102.55 -96.1 -103.75 -94.9 -104.9 -93.2 -104.9" fill="#884400" fill-rule="evenodd" stroke="none"/>
    <path d="M-118.3 -113.85 L-117.75 -115.25 -116.15 -118.45 Q-114.85 -133.3 -103.35 -134.7 L-102.6 -136.15 Q-101.8 -136.95 -100.65 -136.95 -99.5 -136.95 -98.7 -136.15 -98.1 -135.55 -97.95 -134.75 -88.2 -133.4 -86.75 -120.5 L-85.8 -111.85 -85.05 -111.7 Q-80.2 -110.0 -76.85 -90.4 -75.85 -84.55 -74.55 -81.85 -62.6 -58.6 -58.4 -36.2 L-59.0 -36.05 Q-56.3 -34.1 -53.2 -32.75 -50.95 -31.3 -53.45 -30.05 L-55.05 -29.35 Q-56.65 -28.5 -56.75 -27.0 L-56.85 -24.55 Q-57.0 -22.25 -58.4 -23.3 L-60.2 -24.95 Q-58.25 -16.85 -58.4 -8.7 -59.15 3.6 -70.5 11.2 -94.9 18.15 -122.2 11.2 -144.55 7.5 -146.45 -18.45 L-146.5 -19.55 -146.9 -31.4 Q-145.95 -66.4 -126.0 -94.2 -124.75 -109.75 -118.3 -113.85 -118.95 -111.85 -119.2 -109.8 -122.2 -100.35 -110.6 -93.2 -99.0 -86.1 -90.0 -92.15 -80.95 -98.2 -85.6 -109.95 L-85.8 -111.85 M-133.95 -32.4 Q-132.55 -29.15 -130.4 -26.2 -129.2 -23.85 -132.0 -24.0 L-133.7 -24.2 Q-135.5 -24.25 -136.35 -23.05 L-137.7 -20.95 Q-138.95 -19.05 -139.65 -20.65 L-140.45 -23.25 Q-140.95 -24.65 -142.55 -24.85 L-144.2 -24.95 Q-146.95 -25.2 -145.4 -27.2 L-145.2 -27.45 Q-142.5 -29.85 -140.65 -32.5 L-140.55 -32.65 -139.55 -34.2 M-140.85 -32.65 Q-139.55 -54.7 -133.3 -76.8 M-133.95 -32.4 L-133.05 -32.4 Q-125.45 -43.2 -120.2 -56.35 M-134.6 -34.2 L-133.95 -32.4 M-140.55 -32.65 L-140.85 -32.65 M-65.15 -35.1 L-65.15 -34.8 Q-65.15 -30.85 -66.6 -26.4 L-66.65 -26.1 Q-67.05 -23.6 -64.5 -24.75 L-63.05 -25.45 Q-61.5 -26.1 -60.4 -25.15 L-60.2 -24.95 M-65.15 -34.8 L-65.7 -34.7 Q-73.15 -41.65 -79.05 -59.15 M-59.0 -36.05 L-60.85 -37.55" fill="none" stroke="#660099" stroke-linecap="round" stroke-linejoin="round" stroke-width="0.05"/>
  </g>
  <defs>
    <radialGradient cx="0" cy="0" gradientTransform="matrix(0.0889, 0.0, 0.0, 0.0889, -96.3, -55.15)" gradientUnits="userSpaceOnUse" id="gradient0" r="819.2" spreadMethod="pad">
      <stop offset="0.3843137254901961" stop-color="#33ccff"/>
      <stop offset="1.0" stop-color="#3399ff"/>
    </radialGradient>
    <radialGradient cx="0" cy="0" gradientTransform="matrix(0.032, 0.0, 0.0, 0.032, -101.3, -115.15)" gradientUnits="userSpaceOnUse" id="gradient1" r="819.2" spreadMethod="pad">
      <stop offset="0.0" stop-color="#9900cc"/>
      <stop offset="0.5294117647058824" stop-color="#9933ff"/>
      <stop offset="1.0" stop-color="#6633cc"/>
    </radialGradient>
    <radialGradient cx="0" cy="0" gradientTransform="matrix(0.0889, 0.0, 0.0, 0.0889, -96.3, -55.15)" gradientUnits="userSpaceOnUse" id="gradient2" r="819.2" spreadMethod="pad">
      <stop offset="0.0" stop-color="#9900cc"/>
      <stop offset="0.5294117647058824" stop-color="#9933ff"/>
      <stop offset="1.0" stop-color="#6633cc"/>
    </radialGradient>
    <radialGradient cx="0" cy="0" gradientTransform="matrix(0.0122, 0.0, 0.0, 0.0122, -58.1, -30.0)" gradientUnits="userSpaceOnUse" id="gradient3" r="819.2" spreadMethod="pad">
      <stop offset="0.0" stop-color="#9900cc"/>
      <stop offset="0.5294117647058824" stop-color="#9933ff"/>
      <stop offset="1.0" stop-color="#6633cc"/>
    </radialGradient>
    <radialGradient cx="0" cy="0" gradientTransform="matrix(0.0158, 0.0, 0.0, 0.0158, -133.3, -28.45)" gradientUnits="userSpaceOnUse" id="gradient4" r="819.2" spreadMethod="pad">
      <stop offset="0.0" stop-color="#9900cc"/>
      <stop offset="0.5294117647058824" stop-color="#9933ff"/>
      <stop offset="1.0" stop-color="#6633cc"/>
    </radialGradient>
  </defs>
</svg>
