<?xml version="1.0" encoding="UTF-8" standalone="no"?>
<svg xmlns:xlink="http://www.w3.org/1999/xlink" height="197.1px" width="123.65px" xmlns="http://www.w3.org/2000/svg">
  <g transform="matrix(1.0, 0.0, 0.0, 1.0, 160.65, 202.15)">
    <path d="M-91.4 -179.8 Q-90.45 -179.6 -90.85 -178.75 -91.0 -178.4 -91.4 -178.45 -91.75 -178.5 -91.9 -178.65 -92.2 -178.8 -92.1 -179.25 L-91.95 -179.5 -91.55 -179.8 -91.4 -179.8 M-93.55 -178.2 Q-93.55 -176.8 -92.6 -175.8 -91.6 -174.8 -90.15 -174.8 -88.7 -174.8 -87.75 -175.8 -86.75 -176.8 -86.75 -178.2 -86.75 -179.65 -87.75 -180.65 -88.7 -181.6 -90.15 -181.6 -91.6 -181.6 -92.6 -180.65 -93.55 -179.65 -93.55 -178.2 M-95.2 -178.2 Q-94.2 -181.25 -92.1 -182.25 -90.05 -183.4 -88.0 -182.25 -85.7 -180.5 -85.5 -177.5 -85.4 -175.6 -87.5 -174.35 -91.45 -173.6 -94.05 -174.7 -95.9 -175.95 -95.2 -178.2 M-109.8 -179.95 L-109.75 -180.0 -109.65 -180.0 -109.6 -180.0 Q-108.65 -179.8 -109.05 -178.95 -109.25 -178.6 -109.6 -178.65 -110.45 -178.75 -110.25 -179.55 L-109.95 -179.9 -109.8 -179.95 M-107.6 -182.8 Q-106.8 -182.7 -106.0 -182.25 -103.95 -181.25 -102.9 -178.25 -102.25 -175.95 -104.05 -174.75 -106.3 -173.8 -109.5 -174.15 L-110.5 -174.3 -110.55 -174.3 -110.65 -174.35 Q-112.75 -175.6 -112.6 -177.5 -112.45 -180.5 -110.15 -182.25 L-107.6 -182.8 M-107.9 -181.65 Q-109.35 -181.65 -110.35 -180.7 -111.35 -179.7 -111.35 -178.25 -111.35 -176.8 -110.35 -175.85 -109.35 -174.85 -107.9 -174.8 -106.5 -174.85 -105.5 -175.85 -104.5 -176.8 -104.5 -178.25 -104.5 -179.7 -105.5 -180.7 -106.5 -181.65 -107.9 -181.65" fill="#ffffff" fill-rule="evenodd" stroke="none"/>
    <path d="M-101.3 -46.05 L-101.35 -46.05 -101.35 -46.1 -101.3 -46.05" fill="#ffff00" fill-rule="evenodd" stroke="none"/>
    <path d="M-115.95 -173.8 Q-116.0 -176.05 -115.4 -178.05 -114.95 -179.55 -115.65 -180.9 L-116.2 -181.7 Q-116.55 -182.3 -116.25 -182.7 L-115.05 -183.75 Q-113.5 -185.8 -113.0 -189.35 -112.35 -193.2 -110.6 -195.8 L-110.5 -196.2 Q-110.5 -196.7 -110.15 -197.05 L-109.45 -197.4 -109.0 -197.6 Q-107.5 -199.05 -105.45 -199.85 L-105.15 -199.95 -105.1 -199.95 -104.85 -200.15 -104.8 -200.2 -104.65 -200.45 Q-104.3 -200.8 -103.75 -200.8 L-103.5 -200.75 -103.25 -200.7 -103.25 -200.65 -102.9 -200.65 -102.85 -200.65 -102.05 -200.8 -101.95 -200.85 Q-100.55 -201.2 -99.45 -201.9 L-98.25 -201.95 Q-97.45 -201.25 -96.6 -201.1 L-95.65 -200.95 -95.55 -200.95 -95.2 -201.0 -95.15 -201.0 -94.7 -201.15 -94.05 -200.85 -93.9 -200.7 -93.35 -200.3 -92.4 -199.85 Q-90.1 -198.8 -88.5 -197.3 L-88.5 -197.25 -88.1 -197.1 Q-87.75 -197.1 -87.45 -196.8 L-87.2 -196.1 -87.1 -195.6 -86.95 -195.45 Q-85.5 -193.2 -85.2 -190.15 -84.7 -185.75 -82.65 -183.45 L-81.8 -182.6 Q-81.25 -182.0 -81.7 -181.1 L-82.05 -180.55 Q-82.55 -179.65 -82.35 -178.5 L-82.15 -176.5 -82.05 -173.75 -84.0 -173.6 -84.1 -173.55 Q-87.8 -171.45 -97.4 -171.05 -109.35 -171.55 -113.15 -173.65 L-115.95 -173.8 M-95.2 -178.2 Q-95.9 -175.95 -94.05 -174.7 -91.45 -173.6 -87.5 -174.35 -85.4 -175.6 -85.5 -177.5 -85.7 -180.5 -88.0 -182.25 -90.05 -183.4 -92.1 -182.25 -94.2 -181.25 -95.2 -178.2 M-107.6 -182.8 L-110.15 -182.25 Q-112.45 -180.5 -112.6 -177.5 -112.75 -175.6 -110.65 -174.35 L-110.55 -174.3 -110.5 -174.3 -109.5 -174.15 Q-106.3 -173.8 -104.05 -174.75 -102.25 -175.95 -102.9 -178.25 -103.95 -181.25 -106.0 -182.25 -106.8 -182.7 -107.6 -182.8" fill="url(#gradient0)" fill-rule="evenodd" stroke="none"/>
    <path d="M-82.05 -173.75 Q-80.95 -173.6 -80.2 -172.85 L-79.5 -171.95 Q-75.6 -166.5 -74.75 -160.15 -73.9 -158.8 -69.35 -159.2 -59.5 -160.6 -53.1 -162.4 -51.2 -162.8 -50.45 -163.65 L-50.4 -163.3 -51.0 -161.9 -47.5 -158.4 -46.45 -158.7 -46.1 -158.5 Q-51.4 -145.3 -59.1 -133.1 -60.4 -129.55 -59.8 -125.95 -54.6 -107.85 -54.85 -89.9 -55.6 -75.75 -63.85 -66.6 L-72.4 -57.1 Q-80.75 -47.15 -81.55 -22.5 -77.6 -13.25 -76.95 -5.05 -83.35 -10.05 -87.15 -20.55 -94.6 -43.4 -101.3 -46.05 L-101.35 -46.1 -101.35 -46.05 Q-106.6 -45.7 -114.9 -21.15 -118.7 -12.7 -126.05 -5.8 -124.1 -15.25 -120.4 -23.75 -117.65 -44.8 -126.7 -55.35 L-127.25 -55.9 -137.05 -67.65 Q-145.0 -77.05 -145.25 -91.25 -144.85 -109.15 -139.0 -127.1 -138.25 -130.65 -139.4 -134.25 -146.7 -146.75 -151.5 -160.15 L-150.65 -160.55 -150.6 -160.5 -150.5 -160.6 Q-148.35 -161.85 -147.45 -163.7 L-147.1 -164.0 -147.2 -164.3 -147.0 -165.1 Q-146.3 -164.25 -144.4 -163.75 -138.05 -161.7 -128.25 -160.0 -123.7 -159.4 -122.8 -160.75 -121.75 -167.05 -117.65 -172.35 L-116.9 -173.25 -115.95 -173.8 -113.15 -173.65 Q-109.35 -171.55 -97.4 -171.05 -87.8 -171.45 -84.1 -173.55 L-84.0 -173.6 -82.05 -173.75" fill="url(#gradient1)" fill-rule="evenodd" stroke="none"/>
    <path d="M-150.65 -160.55 Q-154.75 -162.55 -159.25 -163.2 -161.8 -164.0 -159.65 -165.85 L-158.35 -166.95 Q-157.05 -168.2 -157.25 -169.65 L-157.8 -172.05 Q-158.3 -174.3 -156.65 -173.65 L-154.25 -172.4 Q-152.95 -171.75 -151.6 -172.75 L-150.4 -173.85 Q-148.25 -175.6 -147.95 -173.05 L-147.9 -172.75 Q-148.2 -168.15 -147.2 -164.3 L-147.1 -164.0 -147.45 -163.7 -150.5 -160.6 -150.6 -160.5 -150.65 -160.55" fill="url(#gradient2)" fill-rule="evenodd" stroke="none"/>
    <path d="M-50.4 -163.3 Q-48.9 -166.8 -48.35 -170.55 -47.55 -173.1 -45.65 -170.95 L-44.55 -169.65 Q-43.35 -168.35 -41.9 -168.55 L-39.45 -169.1 Q-37.25 -169.6 -37.85 -167.95 L-39.15 -165.55 Q-39.8 -164.25 -38.75 -162.9 L-37.7 -161.7 Q-35.95 -159.55 -38.45 -159.25 L-38.75 -159.2 -46.45 -158.7 -47.5 -158.4 -51.0 -161.9 -50.4 -163.3" fill="url(#gradient3)" fill-rule="evenodd" stroke="none"/>
    <path d="M-91.4 -179.8 L-91.55 -179.8 -91.95 -179.5 -92.1 -179.25 Q-92.2 -178.8 -91.9 -178.65 -91.75 -178.5 -91.4 -178.45 -91.0 -178.4 -90.85 -178.75 -90.45 -179.6 -91.4 -179.8 M-93.55 -178.2 Q-93.55 -179.65 -92.6 -180.65 -91.6 -181.6 -90.15 -181.6 -88.7 -181.6 -87.75 -180.65 -86.75 -179.65 -86.75 -178.2 -86.75 -176.8 -87.75 -175.8 -88.7 -174.8 -90.15 -174.8 -91.6 -174.8 -92.6 -175.8 -93.55 -176.8 -93.55 -178.2 M-109.8 -179.95 L-109.95 -179.9 -110.25 -179.55 Q-110.45 -178.75 -109.6 -178.65 -109.25 -178.6 -109.05 -178.95 -108.65 -179.8 -109.6 -180.0 L-109.65 -180.0 -109.75 -180.0 -109.8 -179.95 M-107.9 -181.65 Q-106.5 -181.65 -105.5 -180.7 -104.5 -179.7 -104.5 -178.25 -104.5 -176.8 -105.5 -175.85 -106.5 -174.85 -107.9 -174.8 -109.35 -174.85 -110.35 -175.85 -111.35 -176.8 -111.35 -178.25 -111.35 -179.7 -110.35 -180.7 -109.35 -181.65 -107.9 -181.65" fill="#884400" fill-rule="evenodd" stroke="none"/>
    <path d="M-101.3 -46.05 L-101.35 -46.05" fill="none" stroke="#660099" stroke-linecap="round" stroke-linejoin="round" stroke-width="0.05"/>
    <path d="M-115.95 -173.8 Q-116.0 -176.05 -115.4 -178.05 -114.95 -179.55 -115.65 -180.9 L-116.2 -181.7 Q-116.55 -182.3 -116.25 -182.7 L-115.05 -183.75 Q-113.5 -185.8 -113.0 -189.35 -112.35 -193.2 -110.6 -195.8 L-110.5 -196.2 Q-110.5 -196.7 -110.15 -197.05 L-109.45 -197.4 -109.0 -197.6 Q-107.5 -199.05 -105.45 -199.85 L-105.15 -199.95 -105.1 -199.95 -104.85 -200.15 -104.8 -200.2 -104.65 -200.45 Q-104.3 -200.8 -103.75 -200.8 L-103.5 -200.75 -103.25 -200.7 -103.25 -200.65 -102.9 -200.65 -102.85 -200.65 -102.05 -200.8 -101.95 -200.85 Q-100.55 -201.2 -99.45 -201.9 L-98.25 -201.95 Q-97.45 -201.25 -96.6 -201.1 L-95.65 -200.95 -95.55 -200.95 -95.2 -201.0 -95.15 -201.0 -94.7 -201.15 -94.05 -200.85 -93.9 -200.7 -93.35 -200.3 -92.4 -199.85 Q-90.1 -198.8 -88.5 -197.3 L-88.5 -197.25 -88.1 -197.1 Q-87.75 -197.1 -87.45 -196.8 L-87.2 -196.1 -87.1 -195.6 -86.95 -195.45 Q-85.5 -193.2 -85.2 -190.15 -84.7 -185.75 -82.65 -183.45 L-81.8 -182.6 Q-81.25 -182.0 -81.7 -181.1 L-82.05 -180.55 Q-82.55 -179.65 -82.35 -178.5 L-82.15 -176.5 -82.05 -173.75 Q-80.95 -173.6 -80.2 -172.85 L-79.5 -171.95 Q-75.6 -166.5 -74.75 -160.15 -73.9 -158.8 -69.35 -159.2 -59.5 -160.6 -53.1 -162.4 -51.2 -162.8 -50.45 -163.65 L-50.4 -163.3 Q-48.9 -166.8 -48.35 -170.55 -47.55 -173.1 -45.65 -170.95 L-44.55 -169.65 Q-43.35 -168.35 -41.9 -168.55 L-39.45 -169.1 Q-37.25 -169.6 -37.85 -167.95 L-39.15 -165.55 Q-39.8 -164.25 -38.75 -162.9 L-37.7 -161.7 Q-35.95 -159.55 -38.45 -159.25 L-38.75 -159.2 -46.45 -158.7 -46.1 -158.5 Q-51.4 -145.3 -59.1 -133.1 -60.4 -129.55 -59.8 -125.95 -54.6 -107.85 -54.85 -89.9 -55.6 -75.75 -63.85 -66.6 L-72.4 -57.1 Q-80.75 -47.15 -81.55 -22.5 -77.6 -13.25 -76.95 -5.05 -83.35 -10.05 -87.15 -20.55 -94.6 -43.4 -101.3 -46.05 M-101.35 -46.05 Q-106.6 -45.7 -114.9 -21.15 -118.7 -12.7 -126.05 -5.8 -124.1 -15.25 -120.4 -23.75 -117.65 -44.8 -126.7 -55.35 L-127.25 -55.9 -137.05 -67.65 Q-145.0 -77.05 -145.25 -91.25 -144.85 -109.15 -139.0 -127.1 -138.25 -130.65 -139.4 -134.25 -146.7 -146.75 -151.5 -160.15 L-150.65 -160.55 Q-154.75 -162.55 -159.25 -163.2 -161.8 -164.0 -159.65 -165.85 L-158.35 -166.95 Q-157.05 -168.2 -157.25 -169.65 L-157.8 -172.05 Q-158.3 -174.3 -156.65 -173.65 L-154.25 -172.4 Q-152.95 -171.75 -151.6 -172.75 L-150.4 -173.85 Q-148.25 -175.6 -147.95 -173.05 L-147.9 -172.75 Q-148.2 -168.15 -147.2 -164.3 L-147.0 -165.1 Q-146.3 -164.25 -144.4 -163.75 -138.05 -161.7 -128.25 -160.0 -123.7 -159.4 -122.8 -160.75 -121.75 -167.05 -117.65 -172.35 L-116.9 -173.25 -115.95 -173.8 -113.15 -173.65 Q-109.35 -171.55 -97.4 -171.05 -87.8 -171.45 -84.1 -173.55 L-84.0 -173.6 -82.05 -173.75 M-50.4 -163.3 L-51.0 -161.9 -47.5 -158.4 -46.45 -158.7 M-95.2 -178.2 Q-94.2 -181.25 -92.1 -182.25 -90.05 -183.4 -88.0 -182.25 -85.7 -180.5 -85.5 -177.5 -85.4 -175.6 -87.5 -174.35 -91.45 -173.6 -94.05 -174.7 -95.9 -175.95 -95.2 -178.2 M-107.6 -182.8 Q-106.8 -182.7 -106.0 -182.25 -103.95 -181.25 -102.9 -178.25 -102.25 -175.95 -104.05 -174.75 -106.3 -173.8 -109.5 -174.15 L-110.5 -174.3 -110.55 -174.3 -110.65 -174.35 Q-112.75 -175.6 -112.6 -177.5 -112.45 -180.5 -110.15 -182.25 L-107.6 -182.8 M-147.2 -164.3 L-147.1 -164.0 -147.45 -163.7 Q-148.35 -161.85 -150.5 -160.6 L-150.6 -160.5 -150.65 -160.55 M-147.45 -163.7 L-150.5 -160.6 M-101.35 -46.05 L-101.35 -46.1 -101.3 -46.05 Z" fill="none" stroke="#660099" stroke-linecap="round" stroke-linejoin="round" stroke-width="0.05"/>
  </g>
  <defs>
    <radialGradient cx="0" cy="0" gradientTransform="matrix(0.0373, 0.0, 0.0, 0.0394, -104.6, -170.85)" gradientUnits="userSpaceOnUse" id="gradient0" r="819.2" spreadMethod="pad">
      <stop offset="0.0" stop-color="#9900cc"/>
      <stop offset="0.5294117647058824" stop-color="#9933ff"/>
      <stop offset="1.0" stop-color="#6633cc"/>
    </radialGradient>
    <radialGradient cx="0" cy="0" gradientTransform="matrix(0.1254, 0.0, 0.0, 0.1254, -116.45, -74.25)" gradientUnits="userSpaceOnUse" id="gradient1" r="819.2" spreadMethod="pad">
      <stop offset="0.0" stop-color="#9900cc"/>
      <stop offset="0.5294117647058824" stop-color="#9933ff"/>
      <stop offset="1.0" stop-color="#6633cc"/>
    </radialGradient>
    <radialGradient cx="0" cy="0" gradientTransform="matrix(-0.0112, 0.0112, -0.0112, -0.0112, -155.65, -163.65)" gradientUnits="userSpaceOnUse" id="gradient2" r="819.2" spreadMethod="pad">
      <stop offset="0.0" stop-color="#9900cc"/>
      <stop offset="0.5294117647058824" stop-color="#9933ff"/>
      <stop offset="1.0" stop-color="#6633cc"/>
    </radialGradient>
    <radialGradient cx="0" cy="0" gradientTransform="matrix(-0.0112, -0.0112, 0.0112, -0.0112, -47.9, -166.95)" gradientUnits="userSpaceOnUse" id="gradient3" r="819.2" spreadMethod="pad">
      <stop offset="0.0" stop-color="#9900cc"/>
      <stop offset="0.5294117647058824" stop-color="#9933ff"/>
      <stop offset="1.0" stop-color="#6633cc"/>
    </radialGradient>
  </defs>
</svg>
