<?xml version="1.0" encoding="UTF-8" standalone="no"?>
<svg xmlns:xlink="http://www.w3.org/1999/xlink" height="192.35px" width="93.4px" xmlns="http://www.w3.org/2000/svg">
  <g transform="matrix(1.0, 0.0, 0.0, 1.0, 46.7, 98.1)">
    <path d="M-6.35 90.05 L-6.7 88.45 -6.75 87.75 -7.1 85.4 -6.35 90.05 M2.1 -70.4 L2.0 -70.4 2.05 -70.45 2.1 -70.4" fill="#6633cc" fill-rule="evenodd" stroke="none"/>
    <path d="M8.05 -70.4 L8.3 -70.1 8.15 -70.1 8.05 -70.1 8.05 -70.4" fill="#9999ff" fill-rule="evenodd" stroke="none"/>
    <path d="M2.45 -75.55 L2.25 -75.75 2.2 -75.8 Q1.35 -76.65 0.1 -76.65 -1.15 -76.65 -2.05 -75.8 -2.9 -74.9 -2.9 -73.65 -2.9 -72.4 -2.05 -71.55 -1.55 -71.05 -0.9 -70.8 L-2.05 -71.0 -3.05 -71.15 Q-3.75 -72.25 -3.75 -73.7 -3.75 -75.4 -2.8 -76.65 -1.85 -77.85 -0.5 -77.85 0.85 -77.85 1.8 -76.65 L2.35 -75.75 2.45 -75.55 M0.3 -70.65 Q1.4 -70.7 2.15 -71.5 L2.2 -71.55 2.35 -71.7 2.25 -71.5 1.8 -70.8 1.55 -70.45 0.3 -70.65 M8.05 -70.4 Q7.1 -71.6 7.1 -73.3 7.1 -75.0 8.05 -76.25 9.0 -77.45 10.35 -77.45 11.7 -77.45 12.65 -76.25 L13.4 -74.85 13.2 -75.05 13.15 -75.1 Q12.3 -75.95 11.05 -75.95 9.8 -75.95 8.9 -75.1 8.05 -74.2 8.05 -72.95 8.05 -71.7 8.9 -70.85 9.4 -70.35 10.05 -70.1 L10.15 -70.1 8.3 -70.1 8.05 -70.4 M12.7 -70.45 L12.65 -70.4 12.45 -70.15 12.1 -70.1 12.7 -70.45" fill="#ffffff" fill-rule="evenodd" stroke="none"/>
    <path d="M14.75 -70.35 Q16.6 -70.25 17.95 -69.25 L18.1 -68.9 Q20.1 -65.8 21.3 -62.25 L21.5 -60.85 21.45 -59.7 Q26.85 -43.7 33.4 -31.25 L35.15 -28.05 Q51.15 -3.0 45.0 19.95 40.9 35.25 21.0 48.1 L18.95 49.4 9.5 54.6 Q2.85 63.2 2.35 84.0 L2.3 86.65 14.0 94.2 Q5.7 94.7 -6.2 90.45 L-6.35 90.05 -7.1 85.4 -10.55 71.1 -11.35 68.75 -12.2 66.35 Q-14.8 59.45 -18.45 52.25 -49.45 24.75 -46.45 -15.35 -42.4 -40.0 -20.55 -61.75 -19.85 -67.55 -18.0 -70.85 L-17.45 -71.7 Q-17.5 -71.25 -17.15 -70.55 -14.95 -67.1 -13.7 -63.2 L-13.45 -62.3 -8.5 -62.05 -7.4 -63.55 Q-5.45 -66.2 -2.5 -68.5 L-2.3 -68.7 Q-0.6 -70.6 -3.35 -71.05 L-4.95 -71.2 Q-5.8 -71.4 -6.3 -71.85 L-6.25 -71.8 -3.05 -71.15 -2.05 -71.0 -0.9 -70.8 0.3 -70.65 1.55 -70.45 2.0 -70.4 2.1 -70.4 8.05 -70.1 8.15 -70.1 8.3 -70.1 10.15 -70.1 11.7 -70.1 12.1 -70.1 12.45 -70.15 12.7 -70.15 13.85 -70.25 14.75 -70.35 M-16.5 -72.7 Q-15.65 -73.35 -14.55 -73.5 L-12.55 -73.4 -11.65 -73.15 -11.35 -73.1 Q-12.25 -72.25 -13.75 -72.4 L-15.45 -72.65 -16.5 -72.7 M-1.45 -14.5 Q3.05 -30.25 -2.2 -41.4 -7.5 -52.6 -7.35 -63.6 L-7.4 -63.55 -7.35 -63.6 Q-7.5 -52.6 -2.2 -41.4 3.05 -30.25 -1.45 -14.5 M-20.65 -17.35 Q-30.0 -38.3 -14.0 -63.3 L-13.7 -63.2 -14.0 -63.3 Q-30.0 -38.3 -20.65 -17.35" fill="url(#gradient0)" fill-rule="evenodd" stroke="none"/>
    <path d="M-14.55 -73.5 Q-14.7 -78.3 -13.7 -83.4 -12.35 -91.9 -6.85 -95.55 L-4.55 -97.05 Q-1.4 -98.9 1.7 -97.55 L4.0 -96.25 Q12.15 -91.85 12.3 -81.85 16.15 -77.3 14.75 -70.35 L13.85 -70.25 12.7 -70.15 12.45 -70.15 12.65 -70.4 12.7 -70.45 Q13.6 -71.65 13.6 -73.3 L13.4 -74.85 12.65 -76.25 Q11.7 -77.45 10.35 -77.45 9.0 -77.45 8.05 -76.25 7.1 -75.0 7.1 -73.3 7.1 -71.6 8.05 -70.4 L8.05 -70.1 2.1 -70.4 2.05 -70.45 1.8 -70.8 2.25 -71.5 2.35 -71.7 Q2.75 -72.6 2.75 -73.7 L2.45 -75.55 2.35 -75.75 1.8 -76.65 Q0.85 -77.85 -0.5 -77.85 -1.85 -77.85 -2.8 -76.65 -3.75 -75.4 -3.75 -73.7 -3.75 -72.25 -3.05 -71.15 L-6.25 -71.8 -6.3 -71.85 Q-6.8 -72.25 -7.0 -72.95 L-7.65 -75.6 Q-8.25 -77.25 -9.6 -75.4 L-11.05 -73.4 -11.35 -73.1 -11.65 -73.15 -12.55 -73.4 -14.55 -73.5 M4.35 -84.25 Q-4.5 -83.85 -6.25 -71.8 -4.5 -83.85 4.35 -84.25 M7.7 -84.3 Q10.45 -83.95 12.3 -81.85 10.45 -83.95 7.7 -84.3" fill="url(#gradient1)" fill-rule="evenodd" stroke="none"/>
    <path d="M26.95 -60.7 L27.7 -61.0 Q32.2 -46.0 33.4 -31.25 26.85 -43.7 21.45 -59.7 L21.5 -60.85 21.8 -60.7 21.8 -60.65 22.0 -60.65 26.1 -60.45 26.75 -60.4 26.95 -60.7" fill="url(#gradient2)" fill-rule="evenodd" stroke="none"/>
    <path d="M18.95 49.4 Q11.0 55.25 7.35 78.45 L21.65 83.85 Q13.9 85.55 2.35 84.0 2.85 63.2 9.5 54.6 L18.95 49.4" fill="url(#gradient3)" fill-rule="evenodd" stroke="none"/>
    <path d="M2.0 -70.4 L1.55 -70.45 1.8 -70.8 2.05 -70.45 2.0 -70.4" fill="url(#gradient4)" fill-rule="evenodd" stroke="none"/>
    <path d="M17.95 -69.25 Q17.2 -71.35 19.8 -71.0 L21.5 -70.75 Q23.25 -70.6 24.2 -71.75 L25.65 -73.75 Q27.0 -75.6 27.6 -73.95 L28.25 -71.3 Q28.65 -69.9 30.3 -69.55 L31.9 -69.4 Q34.65 -68.95 32.95 -67.05 L32.75 -66.85 Q29.15 -64.0 26.95 -60.7 L26.75 -60.4 26.1 -60.45 22.0 -60.65 21.8 -60.65 21.8 -60.7 21.3 -62.25 Q20.1 -65.8 18.1 -68.9 L17.95 -69.25" fill="url(#gradient5)" fill-rule="evenodd" stroke="none"/>
    <path d="M-17.45 -71.7 Q-17.5 -72.55 -16.5 -72.7 L-15.45 -72.65 -13.75 -72.4 Q-12.25 -72.25 -11.35 -73.1 L-11.05 -73.4 -9.6 -75.4 Q-8.25 -77.25 -7.65 -75.6 L-7.0 -72.95 Q-6.8 -72.25 -6.3 -71.85 -5.8 -71.4 -4.95 -71.2 L-3.35 -71.05 Q-0.6 -70.6 -2.3 -68.7 L-2.5 -68.5 Q-5.45 -66.2 -7.4 -63.55 L-8.5 -62.05 -13.45 -62.3 -13.7 -63.2 Q-14.95 -67.1 -17.15 -70.55 -17.5 -71.25 -17.45 -71.7" fill="url(#gradient6)" fill-rule="evenodd" stroke="none"/>
    <path d="M-0.9 -70.8 Q-1.55 -71.05 -2.05 -71.55 -2.9 -72.4 -2.9 -73.65 -2.9 -74.9 -2.05 -75.8 -1.15 -76.65 0.1 -76.65 1.35 -76.65 2.2 -75.8 L2.25 -75.75 2.45 -75.55 2.75 -73.7 Q2.75 -72.6 2.35 -71.7 L2.2 -71.55 2.15 -71.5 Q1.4 -70.7 0.3 -70.65 L-0.9 -70.8 M10.15 -70.1 L10.05 -70.1 Q9.4 -70.35 8.9 -70.85 8.05 -71.7 8.05 -72.95 8.05 -74.2 8.9 -75.1 9.8 -75.95 11.05 -75.95 12.3 -75.95 13.15 -75.1 L13.2 -75.05 13.4 -74.85 13.6 -73.3 Q13.6 -71.65 12.7 -70.45 L12.1 -70.1 11.7 -70.1 10.15 -70.1" fill="#884400" fill-rule="evenodd" stroke="none"/>
    <path d="M-6.2 90.45 L-6.3 90.4 -6.35 90.05" fill="none" stroke="#660099" stroke-linecap="round" stroke-linejoin="round" stroke-width="0.05"/>
    <path d="M8.05 -70.4 L8.3 -70.1 M1.8 -70.8 L1.55 -70.45" fill="none" stroke="#660099" stroke-linecap="round" stroke-linejoin="round" stroke-width="0.05"/>
    <path d="M21.5 -60.85 L21.8 -60.7" fill="none" stroke="#9b6813" stroke-linecap="round" stroke-linejoin="round" stroke-width="0.05"/>
    <path d="M-14.55 -73.5 Q-14.7 -78.3 -13.7 -83.4 -12.35 -91.9 -6.85 -95.55 L-4.55 -97.05 Q-1.4 -98.9 1.7 -97.55 L4.0 -96.25 Q12.15 -91.85 12.3 -81.85 16.15 -77.3 14.75 -70.35 16.6 -70.25 17.95 -69.25 17.2 -71.35 19.8 -71.0 L21.5 -70.75 Q23.25 -70.6 24.2 -71.75 L25.65 -73.75 Q27.0 -75.6 27.6 -73.95 L28.25 -71.3 Q28.65 -69.9 30.3 -69.55 L31.9 -69.4 Q34.65 -68.95 32.95 -67.05 L32.75 -66.85 Q29.15 -64.0 26.95 -60.7 L27.7 -61.0 Q32.2 -46.0 33.4 -31.25 L35.15 -28.05 Q51.15 -3.0 45.0 19.95 40.9 35.25 21.0 48.1 L18.95 49.4 Q11.0 55.25 7.35 78.45 L21.65 83.85 Q13.9 85.55 2.35 84.0 L2.3 86.65 14.0 94.2 Q5.7 94.7 -6.2 90.45 M-7.1 85.4 L-10.55 71.1 -11.35 68.75 -12.2 66.35 Q-14.8 59.45 -18.45 52.25 -49.45 24.75 -46.45 -15.35 -42.4 -40.0 -20.55 -61.75 -19.85 -67.55 -18.0 -70.85 L-17.45 -71.7 M-16.5 -72.7 Q-15.65 -73.35 -14.55 -73.5 L-12.55 -73.4 -11.65 -73.15 -11.35 -73.1 M-6.3 -71.85 L-6.25 -71.8 Q-4.5 -83.85 4.35 -84.25 M2.45 -75.55 L2.35 -75.75 1.8 -76.65 Q0.85 -77.85 -0.5 -77.85 -1.85 -77.85 -2.8 -76.65 -3.75 -75.4 -3.75 -73.7 -3.75 -72.25 -3.05 -71.15 L-2.05 -71.0 -0.9 -70.8 0.3 -70.65 M2.35 -71.7 Q2.75 -72.6 2.75 -73.7 L2.45 -75.55 M13.4 -74.85 L12.65 -76.25 Q11.7 -77.45 10.35 -77.45 9.0 -77.45 8.05 -76.25 7.1 -75.0 7.1 -73.3 7.1 -71.6 8.05 -70.4 M8.3 -70.1 L10.15 -70.1 11.7 -70.1 12.1 -70.1 12.45 -70.15 12.7 -70.15 13.85 -70.25 14.75 -70.35 M13.4 -74.85 L13.6 -73.3 Q13.6 -71.65 12.7 -70.45 L12.65 -70.4 12.45 -70.15 M12.3 -81.85 Q10.45 -83.95 7.7 -84.3 M8.05 -70.1 L8.15 -70.1 8.3 -70.1 M8.05 -70.1 L2.1 -70.4 2.0 -70.4 1.55 -70.45 0.3 -70.65 M2.35 -71.7 L2.25 -71.5 1.8 -70.8 M2.05 -70.45 L2.1 -70.4 M21.5 -60.85 L21.45 -59.7 Q26.85 -43.7 33.4 -31.25 M22.0 -60.65 L26.1 -60.45 M21.3 -62.25 L21.5 -60.85 M-7.4 -63.55 L-7.35 -63.6 Q-7.5 -52.6 -2.2 -41.4 3.05 -30.25 -1.45 -14.5 M-3.05 -71.15 L-6.25 -71.8 M-13.7 -63.2 L-14.0 -63.3 Q-30.0 -38.3 -20.65 -17.35 M-6.35 90.05 L-7.1 85.4 M-6.35 90.05 L-6.2 90.45 M18.95 49.4 L9.5 54.6 Q2.85 63.2 2.35 84.0" fill="none" stroke="#3366cc" stroke-linecap="round" stroke-linejoin="round" stroke-width="0.05"/>
    <path d="M-17.45 -71.7 Q-17.5 -72.55 -16.5 -72.7 M-11.35 -73.1 L-11.05 -73.4 -9.6 -75.4 Q-8.25 -77.25 -7.65 -75.6 L-7.0 -72.95 Q-6.8 -72.25 -6.3 -71.85 M17.95 -69.25 L18.1 -68.9 Q20.1 -65.8 21.3 -62.25 L21.8 -60.7 21.8 -60.65 M26.75 -60.4 L26.95 -60.7 M-8.5 -62.05 L-7.4 -63.55 Q-5.45 -66.2 -2.5 -68.5 L-2.3 -68.7 Q-0.6 -70.6 -3.35 -71.05 L-4.95 -71.2 Q-5.8 -71.4 -6.3 -71.85 M-11.35 -73.1 Q-12.25 -72.25 -13.75 -72.4 L-15.45 -72.65 -16.5 -72.7 M-17.45 -71.7 Q-17.5 -71.25 -17.15 -70.55 -14.95 -67.1 -13.7 -63.2 L-13.45 -62.3" fill="none" stroke="#3366cc" stroke-linecap="round" stroke-linejoin="round" stroke-width="0.05"/>
    <path d="M10.55 -72.95 L10.05 -72.9 Q8.9 -73.4 9.75 -74.3 L10.25 -74.5 Q11.65 -74.0 10.55 -72.95 M-0.85 -73.65 Q-2.0 -74.2 -1.15 -75.05 L-0.65 -75.3 Q0.75 -74.8 -0.3 -73.75 L-0.85 -73.65" fill="#ffffff" fill-rule="evenodd" stroke="none"/>
  </g>
  <defs>
    <radialGradient cx="0" cy="0" gradientTransform="matrix(0.1083, 0.0, 0.0, 0.1083, 17.0, 9.0)" gradientUnits="userSpaceOnUse" id="gradient0" r="819.2" spreadMethod="pad">
      <stop offset="0.3843137254901961" stop-color="#33ccff"/>
      <stop offset="1.0" stop-color="#3399ff"/>
    </radialGradient>
    <radialGradient cx="0" cy="0" gradientTransform="matrix(0.0266, 0.0, 0.0, 0.0266, 4.35, -84.25)" gradientUnits="userSpaceOnUse" id="gradient1" r="819.2" spreadMethod="pad">
      <stop offset="0.3843137254901961" stop-color="#33ccff"/>
      <stop offset="1.0" stop-color="#3399ff"/>
    </radialGradient>
    <radialGradient cx="0" cy="0" gradientTransform="matrix(0.0269, 0.0, 0.0, 0.0269, 27.0, -52.0)" gradientUnits="userSpaceOnUse" id="gradient2" r="819.2" spreadMethod="pad">
      <stop offset="0.3843137254901961" stop-color="#33ccff"/>
      <stop offset="1.0" stop-color="#3399ff"/>
    </radialGradient>
    <radialGradient cx="0" cy="0" gradientTransform="matrix(0.0308, 0.0, 0.0, 0.0308, 9.0, 62.0)" gradientUnits="userSpaceOnUse" id="gradient3" r="819.2" spreadMethod="pad">
      <stop offset="0.3843137254901961" stop-color="#33ccff"/>
      <stop offset="1.0" stop-color="#3399ff"/>
    </radialGradient>
    <radialGradient cx="0" cy="0" gradientTransform="matrix(0.1316, 0.0, 0.0, 0.1316, -15.0, 26.0)" gradientUnits="userSpaceOnUse" id="gradient4" r="819.2" spreadMethod="pad">
      <stop offset="0.3843137254901961" stop-color="#33ccff"/>
      <stop offset="1.0" stop-color="#3399ff"/>
    </radialGradient>
    <radialGradient cx="0" cy="0" gradientTransform="matrix(-0.0158, -9.0E-4, 9.0E-4, -0.0158, 20.8, -66.55)" gradientUnits="userSpaceOnUse" id="gradient5" r="819.2" spreadMethod="pad">
      <stop offset="0.3843137254901961" stop-color="#33ccff"/>
      <stop offset="1.0" stop-color="#3399ff"/>
    </radialGradient>
    <radialGradient cx="0" cy="0" gradientTransform="matrix(-0.0158, -9.0E-4, 9.0E-4, -0.0158, -14.45, -68.2)" gradientUnits="userSpaceOnUse" id="gradient6" r="819.2" spreadMethod="pad">
      <stop offset="0.3843137254901961" stop-color="#33ccff"/>
      <stop offset="1.0" stop-color="#3399ff"/>
    </radialGradient>
  </defs>
</svg>
