<?xml version="1.0" encoding="UTF-8" standalone="no"?>
<svg xmlns:xlink="http://www.w3.org/1999/xlink" height="190.5px" width="95.25px" xmlns="http://www.w3.org/2000/svg">
  <g transform="matrix(1.0, 0.0, 0.0, 1.0, 49.0, 98.15)">
    <path d="M9.4 91.95 L9.45 92.0 9.4 92.0 9.4 91.95" fill="#6633cc" fill-rule="evenodd" stroke="none"/>
    <path d="M16.75 -67.5 L15.1 -68.0 15.05 -68.0 Q13.9 -68.0 13.05 -67.15 12.2 -66.3 12.2 -65.1 L12.4 -64.0 11.95 -64.0 11.8 -64.0 11.7 -65.4 Q11.75 -66.95 12.6 -68.0 13.5 -69.05 14.65 -69.0 L15.95 -68.5 16.55 -67.8 16.75 -67.5 M5.45 -67.75 L5.55 -68.5 5.55 -68.95 6.5 -69.1 Q7.6 -69.05 8.35 -68.0 L8.4 -67.9 8.6 -67.6 7.85 -68.0 6.9 -68.15 Q6.1 -68.15 5.45 -67.75" fill="#ffffff" fill-rule="evenodd" stroke="none"/>
    <path d="M9.25 55.35 Q5.55 63.0 3.35 76.85 L17.4 82.1 Q9.6 83.95 4.0 83.2 L-1.65 82.4 Q-1.25 65.5 3.25 56.65 L4.95 56.35 9.25 55.35" fill="url(#gradient0)" fill-rule="evenodd" stroke="none"/>
    <path d="M32.35 -56.25 L32.3 -56.0 36.65 -53.65 37.05 -53.9 37.4 -53.75 Q36.75 -38.95 33.55 -26.65 L29.05 -35.5 Q25.3 -42.8 23.2 -50.1 26.65 -53.95 32.1 -56.4 L32.35 -56.25" fill="url(#gradient1)" fill-rule="evenodd" stroke="none"/>
    <path d="M-12.05 -80.95 Q-9.8 -93.6 -3.2 -95.95 L0.95 -97.7 5.25 -97.55 7.55 -95.75 Q16.6 -90.05 15.4 -76.5 17.7 -73.9 18.05 -67.65 L18.05 -67.5 18.1 -65.95 17.95 -65.8 17.25 -65.35 Q17.25 -66.55 16.75 -67.5 L16.55 -67.8 15.95 -68.5 14.65 -69.0 Q13.5 -69.05 12.6 -68.0 11.75 -66.95 11.7 -65.4 L11.8 -64.0 10.95 -64.0 10.1 -64.05 9.65 -64.1 8.95 -64.15 9.1 -65.2 Q9.15 -66.55 8.6 -67.6 L8.4 -67.9 8.35 -68.0 Q7.6 -69.05 6.5 -69.1 L5.55 -68.95 Q5.35 -70.1 3.7 -69.1 L1.6 -67.75 -1.3 -67.9 -2.8 -68.8 -3.3 -69.05 -4.4 -69.25 Q-12.35 -74.2 -12.45 -78.45 L-12.05 -80.95 M12.35 -78.2 Q14.15 -77.85 15.4 -76.5 14.15 -77.85 12.35 -78.2 M6.85 -78.9 Q-0.75 -78.0 -3.3 -69.05 -0.75 -78.0 6.85 -78.9" fill="url(#gradient2)" fill-rule="evenodd" stroke="none"/>
    <path d="M33.55 -26.65 Q39.9 -13.1 44.45 3.0 50.9 26.35 28.3 43.8 20.9 50.15 15.1 53.15 12.25 54.45 9.25 55.35 L4.95 56.35 3.25 56.65 Q-1.25 65.5 -1.65 82.4 L-1.7 85.05 9.4 91.95 9.4 92.0 Q0.1 93.4 -10.25 88.85 L-10.35 88.45 -10.4 87.75 -11.0 83.8 Q-12.1 77.8 -14.05 71.6 L-15.55 67.2 -15.85 66.35 Q-18.45 59.45 -24.55 48.5 -43.15 32.55 -48.7 -2.15 -51.3 -30.55 -30.15 -54.85 -23.9 -62.45 -18.35 -72.8 -14.85 -81.15 -12.05 -80.95 L-12.45 -78.45 Q-12.35 -74.2 -4.4 -69.25 -5.2 -69.1 -5.15 -67.5 -4.35 -63.15 -4.85 -58.7 L-4.85 -58.5 -3.6 -57.9 -2.7 -57.45 -0.4 -56.35 0.2 -56.75 Q3.35 -58.8 7.6 -60.0 L7.85 -60.1 Q10.15 -61.2 7.8 -62.65 L6.35 -63.45 Q5.45 -64.1 5.2 -64.95 L8.95 -64.15 9.65 -64.1 10.1 -64.05 10.95 -64.0 11.8 -64.0 11.95 -64.0 12.4 -64.0 13.5 -64.1 Q14.95 -64.3 16.2 -64.8 L16.55 -65.0 17.25 -65.35 17.95 -65.8 18.1 -65.95 18.05 -67.5 18.55 -67.0 18.9 -66.6 Q21.5 -63.25 21.95 -55.0 L23.2 -50.1 Q25.3 -42.8 29.05 -35.5 L33.55 -26.65 M-6.2 -10.8 Q0.85 -21.45 -0.9 -34.0 -2.65 -46.55 0.95 -56.7 L0.2 -56.75 0.95 -56.7 Q-2.65 -46.55 -0.9 -34.0 0.85 -21.45 -6.2 -10.8 M18.9 -66.6 L18.1 -65.95 18.9 -66.6 M-4.85 -58.7 L-5.25 -59.05 Q-27.2 -39.3 -28.15 -19.15 -27.2 -39.3 -5.25 -59.05 L-4.85 -58.7 M-12.9 56.1 Q-19.25 53.05 -24.55 48.5 -19.25 53.05 -12.9 56.1" fill="url(#gradient3)" fill-rule="evenodd" stroke="none"/>
    <path d="M32.35 -56.25 Q33.0 -60.65 32.35 -65.0 32.4 -67.7 34.8 -66.2 L36.25 -65.25 Q37.75 -64.35 39.1 -65.0 L41.25 -66.25 Q43.25 -67.35 43.1 -65.6 L42.6 -62.9 Q42.35 -61.5 43.7 -60.5 L45.1 -59.65 Q47.4 -58.15 45.1 -57.1 L44.8 -57.0 Q40.4 -55.95 37.05 -53.9 L36.65 -53.65 32.3 -56.0 32.35 -56.25" fill="url(#gradient4)" fill-rule="evenodd" stroke="none"/>
    <path d="M5.2 -64.95 Q5.45 -64.1 6.35 -63.45 L7.8 -62.65 Q10.15 -61.2 7.85 -60.1 L7.6 -60.0 Q3.35 -58.8 0.2 -56.75 L-0.4 -56.35 -2.7 -57.45 -3.6 -57.9 -4.85 -58.5 -4.85 -58.7 Q-4.35 -63.15 -5.15 -67.5 -5.2 -69.1 -4.4 -69.25 L-3.3 -69.05 -2.8 -68.8 -1.3 -67.9 1.6 -67.75 3.7 -69.1 Q5.35 -70.1 5.55 -68.95 L5.55 -68.5 5.45 -67.75 5.15 -65.8 Q5.1 -65.35 5.2 -64.95" fill="url(#gradient5)" fill-rule="evenodd" stroke="none"/>
    <path d="M12.4 -64.0 L12.2 -65.1 Q12.2 -66.3 13.05 -67.15 13.9 -68.0 15.05 -68.0 L15.1 -68.0 16.75 -67.5 Q17.25 -66.55 17.25 -65.35 L16.55 -65.0 16.2 -64.8 Q14.95 -64.3 13.5 -64.1 L12.4 -64.0 M8.95 -64.15 L5.2 -64.95 Q5.1 -65.35 5.15 -65.8 L5.45 -67.75 Q6.1 -68.15 6.9 -68.15 L7.85 -68.0 8.6 -67.6 Q9.15 -66.55 9.1 -65.2 L8.95 -64.15" fill="#884400" fill-rule="evenodd" stroke="none"/>
    <path d="M9.4 91.95 L9.45 92.0 M-10.35 88.45 L-11.0 83.8 M18.05 -67.5 L18.55 -67.0 18.9 -66.6" fill="none" stroke="#660099" stroke-linecap="round" stroke-linejoin="round" stroke-width="0.05"/>
    <path d="M9.45 92.0 L9.4 92.0" fill="none" stroke="#660099" stroke-linecap="round" stroke-linejoin="round" stroke-width="0.05"/>
    <path d="M37.05 -53.9 L37.4 -53.75 Q36.75 -38.95 33.55 -26.65 39.9 -13.1 44.45 3.0 50.9 26.35 28.3 43.8 20.9 50.15 15.1 53.15 12.25 54.45 9.25 55.35 5.55 63.0 3.35 76.85 L17.4 82.1 Q9.6 83.95 4.0 83.2 L-1.65 82.4 -1.7 85.05 9.4 91.95 9.4 92.0 Q0.1 93.4 -10.25 88.85 L-10.35 88.45 -10.4 87.75 -11.0 83.8 Q-12.1 77.8 -14.05 71.6 L-15.55 67.2 -15.85 66.35 Q-18.45 59.45 -24.55 48.5 -43.15 32.55 -48.7 -2.15 -51.3 -30.55 -30.15 -54.85 -23.9 -62.45 -18.35 -72.8 -14.85 -81.15 -12.05 -80.95 -9.8 -93.6 -3.2 -95.95 L0.95 -97.7 5.25 -97.55 7.55 -95.75 Q16.6 -90.05 15.4 -76.5 17.7 -73.9 18.05 -67.65 L18.05 -67.5 M18.9 -66.6 Q21.5 -63.25 21.95 -55.0 L23.2 -50.1 Q26.65 -53.95 32.1 -56.4 L32.35 -56.25 M15.4 -76.5 Q14.15 -77.85 12.35 -78.2 M16.75 -67.5 L16.55 -67.8 15.95 -68.5 14.65 -69.0 Q13.5 -69.05 12.6 -68.0 11.75 -66.95 11.7 -65.4 L11.8 -64.0 11.95 -64.0 12.4 -64.0 13.5 -64.1 Q14.95 -64.3 16.2 -64.8 L16.55 -65.0 17.25 -65.35 Q17.25 -66.55 16.75 -67.5 M11.8 -64.0 L10.95 -64.0 10.1 -64.05 9.65 -64.1 8.95 -64.15 5.2 -64.95 M0.2 -56.75 L0.95 -56.7 Q-2.65 -46.55 -0.9 -34.0 0.85 -21.45 -6.2 -10.8 M17.25 -65.35 L17.95 -65.8 18.1 -65.95 18.05 -67.5 M18.1 -65.95 L18.9 -66.6 M-3.6 -57.9 L-2.7 -57.45 M5.55 -68.95 L6.5 -69.1 Q7.6 -69.05 8.35 -68.0 L8.4 -67.9 8.6 -67.6 Q9.15 -66.55 9.1 -65.2 L8.95 -64.15 M23.2 -50.1 Q25.3 -42.8 29.05 -35.5 L33.55 -26.65 M9.25 55.35 L4.95 56.35 3.25 56.65 Q-1.25 65.5 -1.65 82.4 M-4.4 -69.25 Q-12.35 -74.2 -12.45 -78.45 L-12.05 -80.95 M-28.15 -19.15 Q-27.2 -39.3 -5.25 -59.05 L-4.85 -58.7 M-24.55 48.5 Q-19.25 53.05 -12.9 56.1 M-3.3 -69.05 Q-0.75 -78.0 6.85 -78.9" fill="none" stroke="#3366cc" stroke-linecap="round" stroke-linejoin="round" stroke-width="0.05"/>
    <path d="M37.05 -53.9 Q40.4 -55.95 44.8 -57.0 L45.1 -57.1 Q47.4 -58.15 45.1 -59.65 L43.7 -60.5 Q42.35 -61.5 42.6 -62.9 L43.1 -65.6 Q43.25 -67.35 41.25 -66.25 L39.1 -65.0 Q37.75 -64.35 36.25 -65.25 L34.8 -66.2 Q32.4 -67.7 32.35 -65.0 33.0 -60.65 32.35 -56.25 L32.3 -56.0 M36.65 -53.65 L37.05 -53.9 M5.2 -64.95 Q5.45 -64.1 6.35 -63.45 L7.8 -62.65 Q10.15 -61.2 7.85 -60.1 L7.6 -60.0 Q3.35 -58.8 0.2 -56.75 M5.45 -67.75 L5.55 -68.5 5.55 -68.95 Q5.35 -70.1 3.7 -69.1 L1.6 -67.75 -1.3 -67.9 -2.8 -68.8 -3.3 -69.05 -4.4 -69.25 Q-5.2 -69.1 -5.15 -67.5 -4.35 -63.15 -4.85 -58.7 L-4.85 -58.5 M-0.4 -56.35 L0.2 -56.75 M5.45 -67.75 L5.15 -65.8 Q5.1 -65.35 5.2 -64.95" fill="none" stroke="#3366cc" stroke-linecap="round" stroke-linejoin="round" stroke-width="0.05"/>
  </g>
  <defs>
    <radialGradient cx="0" cy="0" gradientTransform="matrix(0.029, 0.0, 0.0, 0.029, 2.0, 64.0)" gradientUnits="userSpaceOnUse" id="gradient0" r="819.2" spreadMethod="pad">
      <stop offset="0.3843137254901961" stop-color="#33ccff"/>
      <stop offset="1.0" stop-color="#3399ff"/>
    </radialGradient>
    <radialGradient cx="0" cy="0" gradientTransform="matrix(0.0261, 0.0, 0.0, 0.0261, 34.0, -48.0)" gradientUnits="userSpaceOnUse" id="gradient1" r="819.2" spreadMethod="pad">
      <stop offset="0.3843137254901961" stop-color="#33ccff"/>
      <stop offset="1.0" stop-color="#3399ff"/>
    </radialGradient>
    <radialGradient cx="0" cy="0" gradientTransform="matrix(0.0261, 0.0, 0.0, 0.0261, 3.0, -80.95)" gradientUnits="userSpaceOnUse" id="gradient2" r="819.2" spreadMethod="pad">
      <stop offset="0.3843137254901961" stop-color="#33ccff"/>
      <stop offset="1.0" stop-color="#3399ff"/>
    </radialGradient>
    <radialGradient cx="0" cy="0" gradientTransform="matrix(0.1316, 0.0, 0.0, 0.1316, -15.0, 26.0)" gradientUnits="userSpaceOnUse" id="gradient3" r="819.2" spreadMethod="pad">
      <stop offset="0.3843137254901961" stop-color="#33ccff"/>
      <stop offset="1.0" stop-color="#3399ff"/>
    </radialGradient>
    <radialGradient cx="0" cy="0" gradientTransform="matrix(-0.0139, -0.0074, 0.0074, -0.0139, 33.85, -61.7)" gradientUnits="userSpaceOnUse" id="gradient4" r="819.2" spreadMethod="pad">
      <stop offset="0.3843137254901961" stop-color="#33ccff"/>
      <stop offset="1.0" stop-color="#3399ff"/>
    </radialGradient>
    <radialGradient cx="0" cy="0" gradientTransform="matrix(-0.0142, -0.0069, 0.0069, -0.0142, -3.55, -64.3)" gradientUnits="userSpaceOnUse" id="gradient5" r="819.2" spreadMethod="pad">
      <stop offset="0.3843137254901961" stop-color="#33ccff"/>
      <stop offset="1.0" stop-color="#3399ff"/>
    </radialGradient>
  </defs>
</svg>
