<?xml version="1.0" encoding="UTF-8" standalone="no"?>
<svg xmlns:xlink="http://www.w3.org/1999/xlink" height="164.1px" width="88.15px" xmlns="http://www.w3.org/2000/svg">
  <g transform="matrix(1.0, 0.0, 0.0, 1.0, 44.05, 84.7)">
    <path d="M27.6 -53.75 L27.6 -53.8 27.4 -55.85 27.9 -53.85 27.9 -53.8 27.6 -53.75" fill="#ffff00" fill-rule="evenodd" stroke="none"/>
    <path d="M6.6 -81.0 Q0.85 -77.9 2.0 -70.8 4.45 -59.1 8.35 -52.25 L9.25 -50.75 Q10.6 -48.65 12.1 -47.1 L13.4 -45.9 Q15.35 -44.25 17.3 -43.4 19.7 -42.4 22.1 -42.65 L23.25 -42.85 Q28.25 -44.1 27.6 -53.75 L27.9 -53.8 Q29.75 -45.65 27.6 -40.05 L27.55 -39.95 Q35.25 -34.9 35.8 -12.5 L36.75 -10.05 Q42.45 4.75 43.9 17.6 46.0 44.0 23.0 53.55 14.65 56.35 6.35 57.6 L2.75 58.15 Q0.55 58.35 -1.05 58.1 L-2.4 57.7 Q-3.1 62.9 -3.25 69.25 L-3.3 71.9 8.35 79.4 Q-0.45 79.6 -11.8 75.7 L-11.9 75.3 -11.95 74.95 -12.0 74.25 -12.55 70.6 -12.65 70.1 -13.1 67.85 Q-13.65 65.4 -14.5 63.1 -17.0 56.65 -22.0 50.7 L-24.0 48.5 -24.2 48.3 -24.75 47.7 -24.95 47.5 -26.1 46.2 -28.15 44.2 -31.65 39.05 -32.65 37.45 Q-41.05 23.4 -42.85 8.35 -50.7 -44.65 -7.45 -71.0 1.95 -83.3 6.6 -81.0 M-8.25 56.65 Q-13.25 55.9 -16.85 54.25 L-17.0 54.2 Q-20.05 52.75 -22.0 50.7 -20.05 52.75 -17.0 54.2 L-16.85 54.25 Q-13.25 55.9 -8.25 56.65 M1.35 -30.8 Q6.8 -11.8 2.45 0.95 -1.2 -0.1 -4.25 3.85 -16.85 -6.35 -20.15 -25.55 -16.85 -6.35 -4.25 3.85 -1.2 -0.1 2.45 0.95 6.8 -11.8 1.35 -30.8 M35.8 -12.5 Q32.3 -21.15 27.4 -30.4 26.05 -33.45 27.55 -39.95 26.05 -33.45 27.4 -30.4 32.3 -21.15 35.8 -12.5" fill="url(#gradient0)" fill-rule="evenodd" stroke="none"/>
    <path d="M27.6 -53.75 Q28.25 -44.1 23.25 -42.85 L22.1 -42.65 Q19.7 -42.4 17.3 -43.4 15.35 -44.25 13.4 -45.9 L12.1 -47.1 Q10.6 -48.65 9.25 -50.75 L8.35 -52.25 Q4.45 -59.1 2.0 -70.8 0.85 -77.9 6.6 -81.0 17.55 -88.65 24.25 -80.55 34.05 -68.5 27.4 -55.85 L27.6 -53.8 27.6 -53.75" fill="url(#gradient1)" fill-rule="evenodd" stroke="none"/>
    <path d="M2.75 58.15 L1.75 63.7 16.55 69.5 Q8.85 71.45 -1.85 69.6 L-3.25 69.25 Q-3.1 62.9 -2.4 57.7 L-1.05 58.1 Q0.55 58.35 2.75 58.15" fill="url(#gradient2)" fill-rule="evenodd" stroke="none"/>
    <path d="M27.9 -53.8 L27.9 -53.85 27.4 -55.85" fill="none" stroke="#0000cc" stroke-linecap="round" stroke-linejoin="round" stroke-width="0.05"/>
    <path d="M6.6 -81.0 Q0.85 -77.9 2.0 -70.8 4.45 -59.1 8.35 -52.25 L9.25 -50.75 Q10.6 -48.65 12.1 -47.1 L13.4 -45.9 Q15.35 -44.25 17.3 -43.4 19.7 -42.4 22.1 -42.65 L23.25 -42.85 Q28.25 -44.1 27.6 -53.75 L27.6 -53.8 27.4 -55.85 Q34.05 -68.5 24.25 -80.55 17.55 -88.65 6.6 -81.0 1.95 -83.3 -7.45 -71.0 -50.7 -44.65 -42.85 8.35 -41.05 23.4 -32.65 37.45 L-31.65 39.05 -28.15 44.2 -26.1 46.2 -24.95 47.5 -24.75 47.7 -24.2 48.3 -24.0 48.5 -22.0 50.7 Q-20.05 52.75 -17.0 54.2 L-16.85 54.25 Q-13.25 55.9 -8.25 56.65 M27.6 -53.75 L27.9 -53.8 Q29.75 -45.65 27.6 -40.05 L27.55 -39.95 Q35.25 -34.9 35.8 -12.5 L36.75 -10.05 Q42.45 4.75 43.9 17.6 46.0 44.0 23.0 53.55 14.65 56.35 6.35 57.6 L2.75 58.15 1.75 63.7 16.55 69.5 Q8.85 71.45 -1.85 69.6 L-3.25 69.25 -3.3 71.9 8.35 79.4 Q-0.45 79.6 -11.8 75.7 L-11.9 75.3 -11.95 74.95 -12.0 74.25 -12.55 70.6 -12.65 70.1 -13.1 67.85 Q-13.65 65.4 -14.5 63.1 -17.0 56.65 -22.0 50.7 M27.55 -39.95 Q26.05 -33.45 27.4 -30.4 32.3 -21.15 35.8 -12.5 M-20.15 -25.55 Q-16.85 -6.35 -4.25 3.85 -1.2 -0.1 2.45 0.95 6.8 -11.8 1.35 -30.8 M2.75 58.15 Q0.55 58.35 -1.05 58.1 L-2.4 57.7 Q-3.1 62.9 -3.25 69.25" fill="none" stroke="#3366cc" stroke-linecap="round" stroke-linejoin="round" stroke-width="0.05"/>
    <path d="M0.55 -0.3 Q3.75 2.95 7.85 5.05 9.9 6.6 7.35 7.7 L5.7 8.3 Q4.1 9.05 3.85 10.45 L3.6 12.95 Q3.25 15.2 1.95 14.05 L0.1 12.1 Q-1.0 11.05 -2.45 11.55 L-4.0 12.2 Q-6.55 13.2 -6.05 10.7 L-6.0 10.35 Q-4.15 5.95 -3.85 1.85 L0.55 -0.3" fill="url(#gradient3)" fill-rule="evenodd" stroke="none"/>
    <path d="M-3.85 1.85 Q-4.15 5.95 -6.0 10.35 L-6.05 10.7 Q-6.55 13.2 -4.0 12.2 L-2.45 11.55 Q-1.0 11.05 0.1 12.1 L1.95 14.05 Q3.25 15.2 3.6 12.95 L3.85 10.45 Q4.1 9.05 5.7 8.3 L7.35 7.7 Q9.9 6.6 7.85 5.05 3.75 2.95 0.55 -0.3" fill="none" stroke="#3366cc" stroke-linecap="round" stroke-linejoin="round" stroke-width="0.05"/>
  </g>
  <defs>
    <radialGradient cx="0" cy="0" gradientTransform="matrix(0.0988, 0.0, 0.0, 0.0988, 24.0, 4.0)" gradientUnits="userSpaceOnUse" id="gradient0" r="819.2" spreadMethod="pad">
      <stop offset="0.3843137254901961" stop-color="#33ccff"/>
      <stop offset="1.0" stop-color="#3399ff"/>
    </radialGradient>
    <radialGradient cx="0" cy="0" gradientTransform="matrix(0.0316, 0.0, 0.0, 0.0316, 9.0, -60.95)" gradientUnits="userSpaceOnUse" id="gradient1" r="819.2" spreadMethod="pad">
      <stop offset="0.3843137254901961" stop-color="#33ccff"/>
      <stop offset="1.0" stop-color="#3399ff"/>
    </radialGradient>
    <radialGradient cx="0" cy="0" gradientTransform="matrix(0.0194, 0.0, 0.0, 0.0194, 1.75, 63.7)" gradientUnits="userSpaceOnUse" id="gradient2" r="819.2" spreadMethod="pad">
      <stop offset="0.3843137254901961" stop-color="#33ccff"/>
      <stop offset="1.0" stop-color="#3399ff"/>
    </radialGradient>
    <radialGradient cx="0" cy="0" gradientTransform="matrix(0.0142, -0.0069, 0.0069, 0.0142, 4.25, 4.3)" gradientUnits="userSpaceOnUse" id="gradient3" r="819.2" spreadMethod="pad">
      <stop offset="0.3843137254901961" stop-color="#33ccff"/>
      <stop offset="1.0" stop-color="#3399ff"/>
    </radialGradient>
  </defs>
</svg>
