<?xml version="1.0" encoding="UTF-8" standalone="no"?>
<svg xmlns:xlink="http://www.w3.org/1999/xlink" height="146.1px" width="83.45px" xmlns="http://www.w3.org/2000/svg">
  <g transform="matrix(1.0, 0.0, 0.0, 1.0, 41.7, 75.55)">
    <path d="M8.15 70.45 L8.2 70.45 8.15 70.45 M-11.9 66.65 L-12.1 65.8 -12.15 65.1 -12.7 61.5 -12.6 62.0 -11.9 66.65 M-13.65 57.7 L-13.7 57.55 -13.45 57.65 -13.65 57.7" fill="#ffff00" fill-rule="evenodd" stroke="none"/>
    <path d="M17.35 -74.6 Q20.75 -75.8 23.9 -75.05 33.1 -71.3 34.15 -60.7 35.3 -50.05 29.8 -40.75 23.35 -34.95 14.05 -40.1 9.1 -50.4 8.55 -61.1 8.0 -72.2 17.35 -74.6 8.0 -72.2 8.55 -61.1 9.1 -50.4 14.05 -40.1 15.4 -37.2 17.15 -34.35 24.7 -24.55 27.75 -30.8 L28.15 -31.9 Q28.95 -31.8 28.95 -29.75 28.3 -10.9 36.85 8.9 43.9 23.4 40.85 37.9 37.45 52.5 27.7 58.4 23.2 60.2 18.95 61.35 L17.6 61.65 11.3 62.8 -1.05 62.45 -3.2 62.0 -3.2 63.25 8.15 70.45 Q-2.2 71.05 -11.75 67.1 L-11.8 67.1 -11.9 66.65 -12.6 62.0 -12.7 61.5 -13.65 57.7 -13.45 57.65 -13.7 57.55 Q-18.3 54.65 -22.4 50.25 L-22.5 50.1 -22.9 49.75 Q-30.65 41.9 -35.9 30.35 -45.65 4.6 -39.0 -24.3 -32.0 -51.4 -8.95 -65.55 -0.65 -70.95 7.6 -74.6 13.55 -76.5 17.35 -74.6 M-7.4 10.75 Q-9.15 14.45 -12.45 17.9 L-12.6 18.15 Q-14.0 20.25 -11.25 20.3 L-9.6 20.3 Q-8.0 20.35 -7.4 21.7 L-6.35 24.2 Q-5.55 25.75 -4.45 23.75 L-3.3 21.55 Q-2.6 20.3 -0.8 20.2 L0.95 20.25 Q3.75 20.2 2.35 17.95 -0.4 14.8 -2.15 11.05 L-2.5 10.35 -6.55 10.65 -7.4 10.75 M-6.55 10.65 L-7.75 10.55 Q-24.45 -5.9 -16.1 -28.7 -24.45 -5.9 -7.75 10.55 L-6.55 10.65 M2.8 -19.2 Q6.9 -3.1 -0.9 11.15 L-2.15 11.05 -0.9 11.15 Q6.9 -3.1 2.8 -19.2 M-3.2 62.0 Q-8.6 60.65 -13.45 57.65 -8.6 60.65 -3.2 62.0" fill="url(#gradient0)" fill-rule="evenodd" stroke="none"/>
    <path d="M14.05 -40.1 Q23.35 -34.95 29.8 -40.75 29.6 -36.35 28.15 -31.9 L27.75 -30.8 Q24.7 -24.55 17.15 -34.35 15.4 -37.2 14.05 -40.1" fill="url(#gradient1)" fill-rule="evenodd" stroke="none"/>
    <path d="M-2.5 10.35 L-2.15 11.05 Q-0.4 14.8 2.35 17.95 3.75 20.2 0.95 20.25 L-0.8 20.2 Q-2.6 20.3 -3.3 21.55 L-4.45 23.75 Q-5.55 25.75 -6.35 24.2 L-7.4 21.7 Q-8.0 20.35 -9.6 20.3 L-11.25 20.3 Q-14.0 20.25 -12.6 18.15 L-12.45 17.9 Q-9.15 14.45 -7.4 10.75 L-6.55 10.65 -2.5 10.35" fill="url(#gradient2)" fill-rule="evenodd" stroke="none"/>
    <path d="M8.15 70.45 L8.2 70.45" fill="none" stroke="#0000cc" stroke-linecap="round" stroke-linejoin="round" stroke-width="0.05"/>
    <path d="M8.2 70.45 L8.15 70.45" fill="none" stroke="#0000cc" stroke-linecap="round" stroke-linejoin="round" stroke-width="0.05"/>
    <path d="M-11.75 67.1 L-11.8 67.1 -11.9 66.65 -12.6 62.0 -12.7 61.5 -13.65 57.7 -13.7 57.55" fill="none" stroke="#660099" stroke-linecap="round" stroke-linejoin="round" stroke-width="0.05"/>
    <path d="M-3.2 62.0 L-3.2 63.25 8.15 70.45 M-11.9 66.65 L-12.1 65.8 -12.15 65.1 -12.7 61.5" fill="none" stroke="#9b6813" stroke-linecap="round" stroke-linejoin="round" stroke-width="0.05"/>
    <path d="M29.8 -40.75 Q35.3 -50.05 34.15 -60.7 33.1 -71.3 23.9 -75.05 20.75 -75.8 17.35 -74.6 8.0 -72.2 8.55 -61.1 9.1 -50.4 14.05 -40.1 M29.8 -40.75 Q29.6 -36.35 28.15 -31.9 28.95 -31.8 28.95 -29.75 28.3 -10.9 36.85 8.9 43.9 23.4 40.85 37.9 37.45 52.5 27.7 58.4 23.2 60.2 18.95 61.35 L17.6 61.65 11.3 62.8 -1.05 62.45 -3.2 62.0 M8.15 70.45 Q-2.2 71.05 -11.75 67.1 M-13.7 57.55 Q-18.3 54.65 -22.4 50.25 L-22.5 50.1 -22.9 49.75 Q-30.65 41.9 -35.9 30.35 -45.65 4.6 -39.0 -24.3 -32.0 -51.4 -8.95 -65.55 -0.65 -70.95 7.6 -74.6 13.55 -76.5 17.35 -74.6 M28.15 -31.9 L27.75 -30.8 Q24.7 -24.55 17.15 -34.35 15.4 -37.2 14.05 -40.1 M-2.15 11.05 L-0.9 11.15 Q6.9 -3.1 2.8 -19.2 M-16.1 -28.7 Q-24.45 -5.9 -7.75 10.55 L-6.55 10.65 M-13.45 57.65 L-13.7 57.55 M-13.45 57.65 Q-8.6 60.65 -3.2 62.0" fill="none" stroke="#3366cc" stroke-linecap="round" stroke-linejoin="round" stroke-width="0.05"/>
    <path d="M14.05 -40.1 Q23.35 -34.95 29.8 -40.75 M-7.4 10.75 Q-9.15 14.45 -12.45 17.9 L-12.6 18.15 Q-14.0 20.25 -11.25 20.3 L-9.6 20.3 Q-8.0 20.35 -7.4 21.7 L-6.35 24.2 Q-5.55 25.75 -4.45 23.75 L-3.3 21.55 Q-2.6 20.3 -0.8 20.2 L0.95 20.25 Q3.75 20.2 2.35 17.95 -0.4 14.8 -2.15 11.05 L-2.5 10.35" fill="none" stroke="#3366cc" stroke-linecap="round" stroke-linejoin="round" stroke-width="0.05"/>
  </g>
  <defs>
    <radialGradient cx="0" cy="0" gradientTransform="matrix(0.0988, 0.0, 0.0, 0.0988, 24.0, 4.0)" gradientUnits="userSpaceOnUse" id="gradient0" r="819.2" spreadMethod="pad">
      <stop offset="0.3843137254901961" stop-color="#33ccff"/>
      <stop offset="1.0" stop-color="#3399ff"/>
    </radialGradient>
    <radialGradient cx="0" cy="0" gradientTransform="matrix(0.0203, 0.0, 0.0, 0.0203, 28.15, -31.9)" gradientUnits="userSpaceOnUse" id="gradient1" r="819.2" spreadMethod="pad">
      <stop offset="0.3843137254901961" stop-color="#33ccff"/>
      <stop offset="1.0" stop-color="#3399ff"/>
    </radialGradient>
    <radialGradient cx="0" cy="0" gradientTransform="matrix(0.0157, -0.0013, 0.0013, 0.0157, -0.75, 15.95)" gradientUnits="userSpaceOnUse" id="gradient2" r="819.2" spreadMethod="pad">
      <stop offset="0.3843137254901961" stop-color="#33ccff"/>
      <stop offset="1.0" stop-color="#3399ff"/>
    </radialGradient>
  </defs>
</svg>
