<?xml version="1.0" encoding="UTF-8" standalone="no"?>
<svg xmlns:xlink="http://www.w3.org/1999/xlink" height="139.35px" width="80.45px" xmlns="http://www.w3.org/2000/svg">
  <g transform="matrix(1.0, 0.0, 0.0, 1.0, 40.2, 70.3)">
    <path d="M26.2 -66.6 Q19.7 -67.15 16.1 -62.0 9.25 -49.95 14.7 -33.65 L16.1 -29.95 Q23.5 -20.2 32.95 -27.75 L34.65 -30.05 Q36.5 -28.7 34.75 -24.0 26.4 -7.3 34.75 13.0 38.9 23.45 39.2 33.9 39.05 57.2 24.15 65.4 16.95 68.35 10.0 68.4 0.4 68.4 -8.85 62.9 L-15.2 58.45 Q-31.85 47.2 -38.4 20.25 -44.6 -15.45 -29.65 -44.0 -18.7 -62.45 4.05 -66.65 19.2 -73.95 26.2 -66.6 M-19.25 -28.65 Q-21.2 -1.2 -10.05 16.6 -21.2 -1.2 -19.25 -28.65 M7.25 -16.15 Q5.6 2.1 -3.45 16.3 5.6 2.1 7.25 -16.15" fill="url(#gradient0)" fill-rule="evenodd" stroke="none"/>
    <path d="M34.65 -30.05 L32.95 -27.75 Q23.5 -20.2 16.1 -29.95 L14.7 -33.65 Q9.25 -49.95 16.1 -62.0 19.7 -67.15 26.2 -66.6 28.05 -66.4 33.05 -64.15 38.0 -61.95 40.25 -50.0 39.9 -42.0 37.55 -35.8 36.35 -32.7 34.65 -30.05" fill="url(#gradient1)" fill-rule="evenodd" stroke="none"/>
    <path d="M-8.85 62.9 Q0.4 68.4 10.0 68.4 L5.85 69.0 Q2.2 69.3 -5.2 67.5 -7.8 65.75 -8.85 62.9" fill="url(#gradient2)" fill-rule="evenodd" stroke="none"/>
    <path d="M26.2 -66.6 Q19.7 -67.15 16.1 -62.0 9.25 -49.95 14.7 -33.65 L16.1 -29.95 Q23.5 -20.2 32.95 -27.75 L34.65 -30.05 Q36.35 -32.7 37.55 -35.8 39.9 -42.0 40.25 -50.0 38.0 -61.95 33.05 -64.15 28.05 -66.4 26.2 -66.6 19.2 -73.95 4.05 -66.65 -18.7 -62.45 -29.65 -44.0 -44.6 -15.45 -38.4 20.25 -31.85 47.2 -15.2 58.45 L-8.85 62.9 Q0.4 68.4 10.0 68.4 16.95 68.35 24.15 65.4 39.05 57.2 39.2 33.9 38.9 23.45 34.75 13.0 26.4 -7.3 34.75 -24.0 36.5 -28.7 34.65 -30.05 M10.0 68.4 L5.85 69.0 Q2.2 69.3 -5.2 67.5 -7.8 65.75 -8.85 62.9 M-3.45 16.3 Q5.6 2.1 7.25 -16.15 M-10.05 16.6 Q-21.2 -1.2 -19.25 -28.65" fill="none" stroke="#3366cc" stroke-linecap="round" stroke-linejoin="round" stroke-width="0.05"/>
    <path d="M-3.95 15.55 Q-2.8 19.9 -0.35 23.8 0.65 26.2 -2.1 25.85 L-3.8 25.5 Q-5.55 25.3 -6.5 26.45 L-8.0 28.45 Q-9.4 30.25 -9.95 28.6 L-10.6 25.95 Q-10.95 24.5 -12.5 24.25 L-14.15 24.0 Q-16.9 23.55 -15.2 21.65 L-14.95 21.45 Q-11.15 18.5 -8.85 15.15 L-3.95 15.55" fill="url(#gradient3)" fill-rule="evenodd" stroke="none"/>
    <path d="M-8.85 15.15 Q-11.15 18.5 -14.95 21.45 L-15.2 21.65 Q-16.9 23.55 -14.15 24.0 L-12.5 24.25 Q-10.95 24.5 -10.6 25.95 L-9.95 28.6 Q-9.4 30.25 -8.0 28.45 L-6.5 26.45 Q-5.55 25.3 -3.8 25.5 L-2.1 25.85 Q0.65 26.2 -0.35 23.8 -2.8 19.9 -3.95 15.55" fill="none" stroke="#3366cc" stroke-linecap="round" stroke-linejoin="round" stroke-width="0.05"/>
  </g>
  <defs>
    <radialGradient cx="0" cy="0" gradientTransform="matrix(0.1043, 0.0, 0.0, 0.1043, 7.25, -16.15)" gradientUnits="userSpaceOnUse" id="gradient0" r="819.2" spreadMethod="pad">
      <stop offset="0.3843137254901961" stop-color="#33ccff"/>
      <stop offset="1.0" stop-color="#3399ff"/>
    </radialGradient>
    <radialGradient cx="0" cy="0" gradientTransform="matrix(0.0316, 0.0, 0.0, 0.0316, 31.0, -49.0)" gradientUnits="userSpaceOnUse" id="gradient1" r="819.2" spreadMethod="pad">
      <stop offset="0.3843137254901961" stop-color="#33ccff"/>
      <stop offset="1.0" stop-color="#3399ff"/>
    </radialGradient>
    <radialGradient cx="0" cy="0" gradientTransform="matrix(0.0198, 0.0, 0.0, 0.0198, -6.0, 66.0)" gradientUnits="userSpaceOnUse" id="gradient2" r="819.2" spreadMethod="pad">
      <stop offset="0.3843137254901961" stop-color="#33ccff"/>
      <stop offset="1.0" stop-color="#3399ff"/>
    </radialGradient>
    <radialGradient cx="0" cy="0" gradientTransform="matrix(0.0157, 0.0012, -0.0012, 0.0157, -3.1, 21.35)" gradientUnits="userSpaceOnUse" id="gradient3" r="819.2" spreadMethod="pad">
      <stop offset="0.3843137254901961" stop-color="#33ccff"/>
      <stop offset="1.0" stop-color="#3399ff"/>
    </radialGradient>
  </defs>
</svg>
