<?xml version="1.0" encoding="UTF-8" standalone="no"?>
<svg xmlns:xlink="http://www.w3.org/1999/xlink" height="189.0px" width="96.8px" xmlns="http://www.w3.org/2000/svg">
  <g transform="matrix(1.0, 0.0, 0.0, 1.0, 48.4, 96.6)">
    <path d="M7.9 -67.8 L7.55 -68.4 Q6.95 -69.6 6.95 -71.1 6.95 -73.25 8.05 -74.75 9.15 -76.2 10.7 -76.2 12.25 -76.2 13.4 -74.75 L14.2 -73.1 14.15 -73.15 14.1 -73.2 Q13.25 -74.05 12.0 -74.05 10.75 -74.05 9.85 -73.2 9.0 -72.3 9.0 -71.05 9.0 -69.8 9.85 -68.95 10.35 -68.45 11.0 -68.2 L11.1 -68.2 11.7 -68.05 7.9 -67.8 M14.1 -68.95 L13.95 -68.55 13.9 -68.4 13.15 -68.25 13.65 -68.55 14.05 -68.9 14.1 -68.95 M-2.5 -69.05 L-2.7 -70.15 -2.75 -70.85 Q-2.75 -73.0 -1.6 -74.5 -0.55 -75.95 1.0 -75.95 2.55 -75.95 3.7 -74.5 4.5 -73.35 4.7 -71.85 L4.15 -73.0 3.95 -73.2 3.9 -73.25 Q3.05 -74.1 1.8 -74.1 0.55 -74.1 -0.35 -73.25 -1.2 -72.35 -1.2 -71.1 -1.2 -69.85 -0.35 -69.0 L0.25 -68.5 -2.5 -69.05 M4.8 -70.65 L4.4 -68.7 4.1 -68.0 3.4 -68.1 2.6 -68.2 3.85 -68.95 3.9 -69.0 4.05 -69.15 Q4.65 -69.8 4.8 -70.65 M10.65 -72.4 Q12.05 -71.9 11.0 -70.9 L10.45 -70.8 Q9.3 -71.3 10.2 -72.2 10.4 -72.4 10.65 -72.4 M0.85 -72.7 Q2.25 -72.2 1.2 -71.15 L0.65 -71.05 Q-0.5 -71.6 0.4 -72.45 L0.85 -72.7" fill="#ffffff" fill-rule="evenodd" stroke="none"/>
    <path d="M13.9 -68.4 L14.15 -68.5 Q15.35 -68.8 16.15 -69.2 17.05 -69.7 17.4 -70.4 L19.85 -67.65 19.8 -67.65 18.05 -67.65 Q15.2 -67.55 16.7 -65.3 19.75 -61.95 21.65 -57.8 L22.65 -57.9 22.65 -57.05 Q28.6 -46.55 33.7 -35.2 38.95 -23.5 43.35 -10.9 53.45 14.2 43.35 27.9 34.5 41.05 22.3 49.25 L22.2 49.55 Q15.2 60.3 11.1 76.6 19.0 81.0 24.55 87.75 14.0 85.75 2.95 81.15 L2.95 80.65 3.95 64.55 0.55 78.85 Q-5.9 87.25 -14.55 92.4 -11.6 83.65 -5.75 76.25 -11.1 62.85 -20.1 52.45 -27.6 47.65 -33.3 41.0 -49.65 24.95 -48.3 -5.45 -42.55 -30.9 -27.9 -48.55 -26.6 -54.6 -24.55 -61.35 L-23.65 -61.4 -23.4 -61.0 -18.55 -61.9 -18.25 -62.7 Q-16.95 -66.2 -14.3 -69.6 L-14.15 -69.85 Q-13.05 -71.95 -15.35 -71.85 L-13.75 -73.95 -13.4 -73.7 Q-10.1 -71.05 -4.45 -69.55 L-2.5 -69.05 0.25 -68.5 2.6 -68.2 3.4 -68.1 4.1 -68.0 6.45 -67.8 6.85 -67.8 7.9 -67.8 11.7 -68.05 13.15 -68.25 13.9 -68.4 M5.05 57.65 Q14.35 54.5 22.3 49.25 14.35 54.5 5.05 57.65 M-5.2 59.55 Q-13.35 56.7 -20.1 52.45 -13.35 56.7 -5.2 59.55 M-28.05 -14.0 Q-32.8 -26.45 -27.9 -48.55 -32.8 -26.45 -28.05 -14.0 M-4.0 -30.7 Q-8.55 -47.85 -16.35 -63.7 L-18.25 -62.7 -16.35 -63.7 Q-8.55 -47.85 -4.0 -30.7" fill="url(#gradient0)" fill-rule="evenodd" stroke="none"/>
    <path d="M14.2 -73.1 L13.4 -74.75 Q12.25 -76.2 10.7 -76.2 9.15 -76.2 8.05 -74.75 6.95 -73.25 6.95 -71.1 6.95 -69.6 7.55 -68.4 L7.9 -67.8 6.85 -67.8 6.45 -67.8 4.1 -68.0 4.4 -68.7 4.8 -70.65 4.8 -70.85 4.7 -71.85 Q4.5 -73.35 3.7 -74.5 2.55 -75.95 1.0 -75.95 -0.55 -75.95 -1.6 -74.5 -2.75 -73.0 -2.75 -70.85 L-2.7 -70.15 -2.5 -69.05 -4.45 -69.55 Q-10.1 -71.05 -13.4 -73.7 -13.75 -88.6 -5.65 -94.35 L-4.2 -95.35 -4.15 -95.35 Q-2.0 -97.0 -0.2 -96.45 L0.7 -96.05 2.15 -95.45 Q11.95 -91.7 12.4 -80.1 15.6 -75.65 16.15 -69.2 15.35 -68.8 14.15 -68.5 L13.9 -68.4 13.95 -68.55 14.1 -68.95 14.15 -69.1 14.45 -71.1 14.2 -73.1" fill="url(#gradient1)" fill-rule="evenodd" stroke="none"/>
    <path d="M22.65 -57.9 L23.75 -58.0 25.9 -58.2 26.55 -58.3 26.7 -58.6 27.1 -58.9 Q33.1 -49.75 33.7 -35.2 28.6 -46.55 22.65 -57.05 L22.65 -57.9" fill="url(#gradient2)" fill-rule="evenodd" stroke="none"/>
    <path d="M21.65 -57.8 Q19.75 -61.95 16.7 -65.3 15.2 -67.55 18.05 -67.65 L19.8 -67.65 19.85 -67.65 Q21.55 -67.8 22.3 -69.05 L23.4 -71.25 Q24.4 -73.3 25.3 -71.75 L26.35 -69.25 Q26.95 -67.95 28.6 -67.85 L30.25 -67.9 Q33.0 -67.95 31.65 -65.8 L31.45 -65.55 Q28.35 -62.2 26.7 -58.6 L26.55 -58.3 25.9 -58.2 23.75 -58.0 22.65 -57.9 21.65 -57.8" fill="url(#gradient3)" fill-rule="evenodd" stroke="none"/>
    <path d="M-23.65 -61.4 Q-25.8 -65.1 -29.0 -68.05 -30.65 -70.2 -27.85 -70.5 L-26.15 -70.65 Q-24.4 -70.95 -23.75 -72.25 L-22.85 -74.55 Q-22.0 -76.7 -21.0 -75.2 L-19.7 -72.8 Q-19.0 -71.55 -17.35 -71.65 L-15.75 -71.85 -15.35 -71.85 Q-13.05 -71.95 -14.15 -69.85 L-14.3 -69.6 Q-16.95 -66.2 -18.25 -62.7 L-18.55 -61.9 -23.4 -61.0 -23.65 -61.4" fill="url(#gradient4)" fill-rule="evenodd" stroke="none"/>
    <path d="M14.2 -73.1 L14.45 -71.1 14.15 -69.1 14.1 -68.95 14.05 -68.9 13.65 -68.55 13.15 -68.25 11.7 -68.05 11.1 -68.2 11.0 -68.2 Q10.35 -68.45 9.85 -68.95 9.0 -69.8 9.0 -71.05 9.0 -72.3 9.85 -73.2 10.75 -74.05 12.0 -74.05 13.25 -74.05 14.1 -73.2 L14.15 -73.15 14.2 -73.1 M4.7 -71.85 L4.8 -70.85 4.8 -70.65 Q4.65 -69.8 4.05 -69.15 L3.9 -69.0 3.85 -68.95 2.6 -68.2 0.25 -68.5 -0.35 -69.0 Q-1.2 -69.85 -1.2 -71.1 -1.2 -72.35 -0.35 -73.25 0.55 -74.1 1.8 -74.1 3.05 -74.1 3.9 -73.25 L3.95 -73.2 4.15 -73.0 4.7 -71.85 M10.65 -72.4 Q10.4 -72.4 10.2 -72.2 9.3 -71.3 10.45 -70.8 L11.0 -70.9 Q12.05 -71.9 10.65 -72.4 M0.85 -72.7 L0.4 -72.45 Q-0.5 -71.6 0.65 -71.05 L1.2 -71.15 Q2.25 -72.2 0.85 -72.7" fill="#884400" fill-rule="evenodd" stroke="none"/>
    <path d="M2.95 81.15 L2.95 80.65" fill="none" stroke="#660099" stroke-linecap="round" stroke-linejoin="round" stroke-width="0.05"/>
    <path d="M7.9 -67.8 L7.55 -68.4 Q6.95 -69.6 6.95 -71.1 6.95 -73.25 8.05 -74.75 9.15 -76.2 10.7 -76.2 12.25 -76.2 13.4 -74.75 L14.2 -73.1 14.45 -71.1 14.15 -69.1 14.1 -68.95 13.95 -68.55 13.9 -68.4 14.15 -68.5 Q15.35 -68.8 16.15 -69.2 15.6 -75.65 12.4 -80.1 11.95 -91.7 2.15 -95.45 L0.7 -96.05 -0.2 -96.45 Q-2.0 -97.0 -4.15 -95.35 L-4.2 -95.35 -5.65 -94.35 Q-13.75 -88.6 -13.4 -73.7 -10.1 -71.05 -4.45 -69.55 L-2.5 -69.05 -2.7 -70.15 -2.75 -70.85 Q-2.75 -73.0 -1.6 -74.5 -0.55 -75.95 1.0 -75.95 2.55 -75.95 3.7 -74.5 4.5 -73.35 4.7 -71.85 L4.8 -70.85 4.8 -70.65 4.4 -68.7 4.1 -68.0 6.45 -67.8 6.85 -67.8 7.9 -67.8 11.7 -68.05 M19.85 -67.65 L17.4 -70.4 Q17.05 -69.7 16.15 -69.2 M13.9 -68.4 L13.15 -68.25 11.7 -68.05 M23.75 -58.0 L25.9 -58.2 M2.6 -68.2 L3.4 -68.1 4.1 -68.0 M2.6 -68.2 L0.25 -68.5 -2.5 -69.05 M26.7 -58.6 L27.1 -58.9 Q33.1 -49.75 33.7 -35.2 38.95 -23.5 43.35 -10.9 53.45 14.2 43.35 27.9 34.5 41.05 22.3 49.25 L22.2 49.55 Q15.2 60.3 11.1 76.6 19.0 81.0 24.55 87.75 14.0 85.75 2.95 81.15 M2.95 80.65 L3.95 64.55 0.55 78.85 Q-5.9 87.25 -14.55 92.4 -11.6 83.65 -5.75 76.25 -11.1 62.85 -20.1 52.45 -27.6 47.65 -33.3 41.0 -49.65 24.95 -48.3 -5.45 -42.55 -30.9 -27.9 -48.55 -26.6 -54.6 -24.55 -61.35 L-23.65 -61.4 M-15.35 -71.85 L-13.75 -73.95 -13.4 -73.7 M33.7 -35.2 Q28.6 -46.55 22.65 -57.05 L22.65 -57.9 M2.95 80.65 L2.95 81.15 M22.3 49.25 Q14.35 54.5 5.05 57.65 M-18.25 -62.7 L-16.35 -63.7 Q-8.55 -47.85 -4.0 -30.7 M-27.9 -48.55 Q-32.8 -26.45 -28.05 -14.0 M-20.1 52.45 Q-13.35 56.7 -5.2 59.55" fill="none" stroke="#3366cc" stroke-linecap="round" stroke-linejoin="round" stroke-width="0.05"/>
    <path d="M19.85 -67.65 L19.8 -67.65 18.05 -67.65 Q15.2 -67.55 16.7 -65.3 19.75 -61.95 21.65 -57.8 M26.55 -58.3 L26.7 -58.6 Q28.35 -62.2 31.45 -65.55 L31.65 -65.8 Q33.0 -67.95 30.25 -67.9 L28.6 -67.85 Q26.95 -67.95 26.35 -69.25 L25.3 -71.75 Q24.4 -73.3 23.4 -71.25 L22.3 -69.05 Q21.55 -67.8 19.85 -67.65 M-23.65 -61.4 Q-25.8 -65.1 -29.0 -68.05 -30.65 -70.2 -27.85 -70.5 L-26.15 -70.65 Q-24.4 -70.95 -23.75 -72.25 L-22.85 -74.55 Q-22.0 -76.7 -21.0 -75.2 L-19.7 -72.8 Q-19.0 -71.55 -17.35 -71.65 L-15.75 -71.85 -15.35 -71.85 M-23.65 -61.4 L-23.4 -61.0 M-18.55 -61.9 L-18.25 -62.7 Q-16.95 -66.2 -14.3 -69.6 L-14.15 -69.85 Q-13.05 -71.95 -15.35 -71.85" fill="none" stroke="#3366cc" stroke-linecap="round" stroke-linejoin="round" stroke-width="0.05"/>
  </g>
  <defs>
    <radialGradient cx="0" cy="0" gradientTransform="matrix(0.1254, 0.0, 0.0, 0.1254, -18.0, 26.0)" gradientUnits="userSpaceOnUse" id="gradient0" r="819.2" spreadMethod="pad">
      <stop offset="0.3843137254901961" stop-color="#33ccff"/>
      <stop offset="1.0" stop-color="#3399ff"/>
    </radialGradient>
    <radialGradient cx="0" cy="0" gradientTransform="matrix(0.0248, 0.0, 0.0, 0.0248, 0.0, -80.95)" gradientUnits="userSpaceOnUse" id="gradient1" r="819.2" spreadMethod="pad">
      <stop offset="0.3843137254901961" stop-color="#33ccff"/>
      <stop offset="1.0" stop-color="#3399ff"/>
    </radialGradient>
    <radialGradient cx="0" cy="0" gradientTransform="matrix(0.0184, 0.0, 0.0, 0.0184, 29.0, -49.0)" gradientUnits="userSpaceOnUse" id="gradient2" r="819.2" spreadMethod="pad">
      <stop offset="0.3843137254901961" stop-color="#33ccff"/>
      <stop offset="1.0" stop-color="#3399ff"/>
    </radialGradient>
    <radialGradient cx="0" cy="0" gradientTransform="matrix(-0.0157, 0.0015, -0.0015, -0.0157, 19.75, -63.4)" gradientUnits="userSpaceOnUse" id="gradient3" r="819.2" spreadMethod="pad">
      <stop offset="0.3843137254901961" stop-color="#33ccff"/>
      <stop offset="1.0" stop-color="#3399ff"/>
    </radialGradient>
    <radialGradient cx="0" cy="0" gradientTransform="matrix(-0.0155, 0.0029, -0.0029, -0.0155, -25.8, -66.45)" gradientUnits="userSpaceOnUse" id="gradient4" r="819.2" spreadMethod="pad">
      <stop offset="0.3843137254901961" stop-color="#33ccff"/>
      <stop offset="1.0" stop-color="#3399ff"/>
    </radialGradient>
  </defs>
</svg>
