<?xml version="1.0" encoding="UTF-8" standalone="no"?>
<svg xmlns:xlink="http://www.w3.org/1999/xlink" height="191.9px" width="97.75px" xmlns="http://www.w3.org/2000/svg">
  <g transform="matrix(1.0, 0.0, 0.0, 1.0, 48.9, 97.2)">
    <path d="M3.0 -96.2 L3.6 -95.9 3.75 -95.75 4.25 -95.35 5.15 -94.95 Q7.3 -93.9 8.75 -92.4 L8.8 -92.4 Q8.95 -92.25 9.15 -92.25 L9.7 -91.95 10.0 -91.25 10.1 -90.8 10.2 -90.6 Q11.6 -88.4 11.85 -85.45 12.35 -81.1 14.25 -78.85 L15.0 -78.05 Q15.55 -77.45 15.15 -76.55 L14.8 -76.05 Q14.3 -75.1 14.5 -74.0 L14.7 -72.1 Q15.15 -68.0 13.8 -63.65 12.6 -59.9 9.1 -57.9 7.75 -57.1 6.35 -57.05 3.75 -56.85 0.9 -55.9 -1.35 -55.1 -3.45 -55.9 L-4.3 -56.25 -7.2 -57.0 Q-10.55 -57.7 -12.8 -59.5 -15.85 -62.15 -16.7 -67.2 -17.15 -70.65 -16.3 -73.55 -15.9 -75.05 -16.55 -76.35 L-17.1 -77.15 Q-17.4 -77.7 -17.1 -78.1 L-16.0 -79.15 Q-14.55 -81.15 -14.1 -84.6 -13.5 -88.4 -11.85 -90.9 L-11.7 -91.35 -11.4 -92.2 -10.75 -92.55 Q-10.55 -92.6 -10.35 -92.75 -8.95 -94.15 -7.0 -94.95 L-6.75 -95.0 -6.7 -95.05 -6.5 -95.2 -6.45 -95.25 -6.3 -95.5 -5.45 -95.85 -5.25 -95.8 -5.0 -95.75 -4.95 -95.75 -4.6 -95.7 -3.9 -95.9 -3.8 -95.9 Q-2.45 -96.25 -1.4 -96.95 L-0.3 -97.0 Q0.4 -96.3 1.25 -96.15 L2.1 -96.0 2.2 -95.95 2.55 -96.05 2.6 -96.1 3.0 -96.2 M-7.55 -77.7 L-8.95 -78.2 Q-10.2 -78.4 -11.4 -77.7 -13.55 -75.95 -13.7 -73.0 -13.85 -71.15 -11.85 -69.9 L-10.8 -69.75 Q-7.85 -69.4 -5.75 -70.3 -4.05 -71.5 -4.65 -73.75 -5.65 -76.7 -7.55 -77.7 M9.25 -77.65 Q7.3 -78.75 5.4 -77.65 3.45 -76.65 2.55 -73.75 1.85 -71.5 3.6 -70.3 6.05 -69.25 9.7 -69.9 11.7 -71.15 11.55 -73.0 11.4 -75.95 9.25 -77.65" fill="url(#gradient0)" fill-rule="evenodd" stroke="none"/>
    <path d="M9.25 -77.65 Q11.4 -75.95 11.55 -73.0 11.7 -71.15 9.7 -69.9 6.05 -69.25 3.6 -70.3 1.85 -71.5 2.55 -73.75 3.45 -76.65 5.4 -77.65 7.3 -78.75 9.25 -77.65 M-7.55 -77.7 Q-5.65 -76.7 -4.65 -73.75 -4.05 -71.5 -5.75 -70.3 -7.85 -69.4 -10.8 -69.75 L-11.85 -69.9 Q-13.85 -71.15 -13.7 -73.0 -13.55 -75.95 -11.4 -77.7 -10.2 -78.4 -8.95 -78.2 L-7.55 -77.7" fill="#ffffff" fill-rule="evenodd" stroke="none"/>
    <path d="M3.0 -96.2 L3.6 -95.9 3.75 -95.75 4.25 -95.35 5.15 -94.95 Q7.3 -93.9 8.75 -92.4 L8.8 -92.4 Q8.95 -92.25 9.15 -92.25 L9.7 -91.95 10.0 -91.25 10.1 -90.8 10.2 -90.6 Q11.6 -88.4 11.85 -85.45 12.35 -81.1 14.25 -78.85 L15.0 -78.05 Q15.55 -77.45 15.15 -76.55 L14.8 -76.05 Q14.3 -75.1 14.5 -74.0 L14.7 -72.1 Q15.15 -68.0 13.8 -63.65 12.6 -59.9 9.1 -57.9 7.75 -57.1 6.35 -57.05 3.75 -56.85 0.9 -55.9 -1.35 -55.1 -3.45 -55.9 L-4.3 -56.25 -7.2 -57.0 Q-10.55 -57.7 -12.8 -59.5 -15.85 -62.15 -16.7 -67.2 -17.15 -70.65 -16.3 -73.55 -15.9 -75.05 -16.55 -76.35 L-17.1 -77.15 Q-17.4 -77.7 -17.1 -78.1 L-16.0 -79.15 Q-14.55 -81.15 -14.1 -84.6 -13.5 -88.4 -11.85 -90.9 L-11.7 -91.35 -11.4 -92.2 -10.75 -92.55 Q-10.55 -92.6 -10.35 -92.75 -8.95 -94.15 -7.0 -94.95 L-6.75 -95.0 -6.7 -95.05 -6.5 -95.2 -6.45 -95.25 -6.3 -95.5 -5.45 -95.85 -5.25 -95.8 -5.0 -95.75 -4.95 -95.75 -4.6 -95.7 -3.9 -95.9 -3.8 -95.9 Q-2.45 -96.25 -1.4 -96.95 L-0.3 -97.0 Q0.4 -96.3 1.25 -96.15 L2.1 -96.0 2.2 -95.95 2.55 -96.05 2.6 -96.1 3.0 -96.2 M9.25 -77.65 Q11.4 -75.95 11.55 -73.0 11.7 -71.15 9.7 -69.9 6.05 -69.25 3.6 -70.3 1.85 -71.5 2.55 -73.75 3.45 -76.65 5.4 -77.65 7.3 -78.75 9.25 -77.65 M-7.55 -77.7 Q-5.65 -76.7 -4.65 -73.75 -4.05 -71.5 -5.75 -70.3 -7.85 -69.4 -10.8 -69.75 L-11.85 -69.9 Q-13.85 -71.15 -13.7 -73.0 -13.55 -75.95 -11.4 -77.7 -10.2 -78.4 -8.95 -78.2 L-7.55 -77.7" fill="none" stroke="#3366cc" stroke-linecap="round" stroke-linejoin="round" stroke-width="0.05"/>
    <path d="M-25.4 51.25 L-27.6 49.2 -25.0 50.8 -25.4 51.25" fill="#6633cc" fill-rule="evenodd" stroke="none"/>
    <path d="M-27.7 -56.55 L-26.8 -57.1 -23.6 -50.95 Q-22.65 -55.6 -19.95 -59.85 -20.25 -64.55 -19.9 -67.4 -18.7 -70.7 -15.05 -70.15 L-14.95 -70.15 -14.8 -70.1 -10.45 -69.5 -9.2 -69.35 11.8 -70.0 Q16.25 -70.6 17.9 -67.15 18.95 -63.4 18.6 -58.35 20.6 -56.55 21.4 -54.4 22.1 -57.15 23.15 -59.9 L24.25 -59.75 24.75 -58.85 29.6 -59.45 29.75 -59.75 30.9 -59.9 Q42.25 -39.5 38.05 -18.75 56.2 5.5 43.9 29.0 36.95 39.05 28.35 45.9 19.0 58.7 14.85 76.85 21.05 82.95 24.3 91.0 14.8 87.25 7.25 80.2 L7.15 79.45 Q7.15 72.85 5.2 67.7 L5.15 67.6 5.1 67.5 Q3.45 64.7 3.1 66.4 L3.05 67.05 Q1.45 73.65 1.25 80.75 -4.5 89.6 -11.85 94.7 -10.15 86.65 -5.8 79.15 -10.15 69.55 -16.45 61.3 -19.7 57.1 -23.45 53.25 L-25.4 51.25 -25.0 50.8 -27.6 49.2 Q-31.1 46.9 -34.3 44.2 -44.6 35.85 -48.1 17.05 -51.65 -1.75 -39.0 -24.1 L-39.0 -24.15 Q-40.7 -40.7 -33.85 -56.1 L-33.1 -56.0 -32.8 -55.45 -27.95 -56.05 -27.7 -56.55 M19.65 -40.95 Q19.6 -47.7 21.4 -54.4 19.6 -47.7 19.65 -40.95 M10.7 55.8 Q20.25 52.3 28.35 45.9 20.25 52.3 10.7 55.8 M-19.05 -34.6 Q-19.95 -42.85 -23.6 -50.95 -19.95 -42.85 -19.05 -34.6 M-37.1 -13.65 Q-38.45 -18.95 -39.0 -24.1 -38.45 -18.95 -37.1 -13.65 M0.5 60.0 Q-13.65 57.55 -25.0 50.8 -13.65 57.55 0.5 60.0" fill="url(#gradient1)" fill-rule="evenodd" stroke="none"/>
    <path d="M6.05 -74.9 Q7.45 -74.35 6.35 -73.35 L5.85 -73.25 Q4.7 -73.8 5.55 -74.65 L6.05 -74.9 M-10.25 -75.05 Q-8.85 -74.55 -9.9 -73.5 L-10.45 -73.45 Q-11.6 -73.95 -10.7 -74.85 L-10.25 -75.05" fill="#ffffff" fill-rule="evenodd" stroke="none"/>
    <path d="M-33.1 -56.0 Q-35.0 -59.75 -37.95 -62.8 -39.5 -65.05 -36.65 -65.2 L-34.95 -65.2 Q-33.2 -65.4 -32.45 -66.7 L-31.4 -68.9 Q-30.45 -71.0 -29.55 -69.45 L-28.4 -67.0 Q-27.8 -65.7 -26.15 -65.65 L-24.5 -65.75 Q-21.75 -65.85 -23.05 -63.7 L-23.2 -63.45 Q-26.2 -60.1 -27.7 -56.55 L-27.95 -56.05 -32.8 -55.45 -33.1 -56.0" fill="url(#gradient2)" fill-rule="evenodd" stroke="none"/>
    <path d="M24.25 -59.75 Q22.4 -63.3 19.6 -66.2 18.05 -68.45 20.9 -68.6 L22.6 -68.6 Q24.35 -68.8 25.1 -70.1 L26.15 -72.3 Q27.1 -74.4 28.0 -72.85 L29.15 -70.4 Q29.75 -69.1 31.4 -69.05 L33.05 -69.15 Q35.8 -69.25 34.5 -67.1 L34.35 -66.85 Q31.25 -63.4 29.75 -59.75 L29.6 -59.45 24.75 -58.85 24.25 -59.75" fill="url(#gradient3)" fill-rule="evenodd" stroke="none"/>
    <path d="M7.15 -77.0 Q8.55 -77.0 9.55 -76.0 10.55 -75.0 10.55 -73.6 10.55 -72.2 9.55 -71.2 8.6 -70.25 7.35 -70.15 L7.15 -70.15 6.25 -70.3 Q5.4 -70.55 4.7 -71.2 3.7 -72.2 3.75 -73.6 3.7 -75.0 4.7 -76.0 5.75 -77.0 7.15 -77.0 M6.05 -74.9 L5.55 -74.65 Q4.7 -73.8 5.85 -73.25 L6.35 -73.35 Q7.45 -74.35 6.05 -74.9 M-9.15 -77.05 Q-7.8 -77.05 -6.8 -76.05 -5.75 -75.05 -5.75 -73.6 -5.75 -72.25 -6.8 -71.25 -7.7 -70.3 -8.95 -70.2 L-9.15 -70.2 -10.1 -70.35 -11.6 -71.25 Q-12.6 -72.25 -12.6 -73.6 -12.6 -75.05 -11.6 -76.05 -10.55 -77.05 -9.15 -77.05 M-10.25 -75.05 L-10.7 -74.85 Q-11.6 -73.95 -10.45 -73.45 L-9.9 -73.5 Q-8.85 -74.55 -10.25 -75.05" fill="#884400" fill-rule="evenodd" stroke="none"/>
    <path d="M5.2 67.7 L5.1 67.5 M-25.4 51.25 L-27.6 49.2" fill="none" stroke="#660099" stroke-linecap="round" stroke-linejoin="round" stroke-width="0.05"/>
    <path d="M-27.7 -56.55 L-26.8 -57.1 -23.6 -50.95 Q-22.65 -55.6 -19.95 -59.85 -20.25 -64.55 -19.9 -67.4 -18.7 -70.7 -15.05 -70.15 L-14.95 -70.15 -14.8 -70.1 -10.45 -69.5 -9.2 -69.35 11.8 -70.0 Q16.25 -70.6 17.9 -67.15 18.95 -63.4 18.6 -58.35 20.6 -56.55 21.4 -54.4 22.1 -57.15 23.15 -59.9 L24.25 -59.75 M29.75 -59.75 L30.9 -59.9 Q42.25 -39.5 38.05 -18.75 56.2 5.5 43.9 29.0 36.95 39.05 28.35 45.9 19.0 58.7 14.85 76.85 21.05 82.95 24.3 91.0 14.8 87.25 7.25 80.2 L7.15 79.45 Q7.15 72.85 5.2 67.7 L5.15 67.6 5.1 67.5 Q3.45 64.7 3.1 66.4 L3.05 67.05 Q1.45 73.65 1.25 80.75 -4.5 89.6 -11.85 94.7 -10.15 86.65 -5.8 79.15 -10.15 69.55 -16.45 61.3 -19.7 57.1 -23.45 53.25 L-25.4 51.25 -25.0 50.8 -27.6 49.2 Q-31.1 46.9 -34.3 44.2 -44.6 35.85 -48.1 17.05 -51.65 -1.75 -39.0 -24.1 L-39.0 -24.15 Q-40.7 -40.7 -33.85 -56.1 L-33.1 -56.0 M21.4 -54.4 Q19.6 -47.7 19.65 -40.95 M28.35 45.9 Q20.25 52.3 10.7 55.8 M-39.0 -24.1 Q-38.45 -18.95 -37.1 -13.65 M-23.6 -50.95 Q-19.95 -42.85 -19.05 -34.6 M-25.0 50.8 Q-13.65 57.55 0.5 60.0" fill="none" stroke="#3366cc" stroke-linecap="round" stroke-linejoin="round" stroke-width="0.05"/>
    <path d="M24.25 -59.75 Q22.4 -63.3 19.6 -66.2 18.05 -68.45 20.9 -68.6 L22.6 -68.6 Q24.35 -68.8 25.1 -70.1 L26.15 -72.3 Q27.1 -74.4 28.0 -72.85 L29.15 -70.4 Q29.75 -69.1 31.4 -69.05 L33.05 -69.15 Q35.8 -69.25 34.5 -67.1 L34.35 -66.85 Q31.25 -63.4 29.75 -59.75 M-33.1 -56.0 Q-35.0 -59.75 -37.95 -62.8 -39.5 -65.05 -36.65 -65.2 L-34.95 -65.2 Q-33.2 -65.4 -32.45 -66.7 L-31.4 -68.9 Q-30.45 -71.0 -29.55 -69.45 L-28.4 -67.0 Q-27.8 -65.7 -26.15 -65.65 L-24.5 -65.75 Q-21.75 -65.85 -23.05 -63.7 L-23.2 -63.45 Q-26.2 -60.1 -27.7 -56.55 L-27.95 -56.05 M-32.8 -55.45 L-33.1 -56.0 M24.25 -59.75 L24.75 -58.85 M29.6 -59.45 L29.75 -59.75" fill="none" stroke="#3366cc" stroke-linecap="round" stroke-linejoin="round" stroke-width="0.05"/>
  </g>
  <defs>
    <radialGradient cx="0" cy="0" gradientTransform="matrix(0.0423, 0.0, 0.0, 0.0423, -7.0, -87.95)" gradientUnits="userSpaceOnUse" id="gradient0" r="819.2" spreadMethod="pad">
      <stop offset="0.3843137254901961" stop-color="#33ccff"/>
      <stop offset="1.0" stop-color="#3399ff"/>
    </radialGradient>
    <radialGradient cx="0" cy="0" gradientTransform="matrix(0.1339, 0.0, 0.0, 0.1339, 5.0, -13.0)" gradientUnits="userSpaceOnUse" id="gradient1" r="819.2" spreadMethod="pad">
      <stop offset="0.3843137254901961" stop-color="#33ccff"/>
      <stop offset="1.0" stop-color="#3399ff"/>
    </radialGradient>
    <radialGradient cx="0" cy="0" gradientTransform="matrix(-0.0156, 0.002, -0.002, -0.0156, -34.85, -61.0)" gradientUnits="userSpaceOnUse" id="gradient2" r="819.2" spreadMethod="pad">
      <stop offset="0.3843137254901961" stop-color="#33ccff"/>
      <stop offset="1.0" stop-color="#3399ff"/>
    </radialGradient>
    <radialGradient cx="0" cy="0" gradientTransform="matrix(-0.0156, 0.002, -0.002, -0.0156, 22.7, -64.4)" gradientUnits="userSpaceOnUse" id="gradient3" r="819.2" spreadMethod="pad">
      <stop offset="0.3843137254901961" stop-color="#33ccff"/>
      <stop offset="1.0" stop-color="#3399ff"/>
    </radialGradient>
  </defs>
</svg>
