<?xml version="1.0" encoding="UTF-8" standalone="no"?>
<svg xmlns:xlink="http://www.w3.org/1999/xlink" height="189.75px" width="102.85px" xmlns="http://www.w3.org/2000/svg">
  <g transform="matrix(1.0, 0.0, 0.0, 1.0, 51.65, 95.7)">
    <path d="M10.0 -69.5 Q11.3 -68.15 11.3 -66.3 11.3 -64.45 10.0 -63.2 8.75 -61.9 6.9 -61.85 5.0 -61.9 3.7 -63.2 2.45 -64.45 2.45 -66.3 2.45 -68.15 3.7 -69.5 5.0 -70.75 6.9 -70.75 8.75 -70.75 10.0 -69.5 M9.45 -68.95 Q8.4 -70.0 6.85 -70.0 5.3 -70.0 4.2 -68.95 3.15 -67.85 3.15 -66.3 3.15 -64.75 4.2 -63.7 5.3 -62.6 6.85 -62.6 8.4 -62.6 9.45 -63.7 10.55 -64.75 10.55 -66.3 10.55 -67.85 9.45 -68.95 M5.0 -67.95 L5.1 -67.95 Q6.25 -67.7 5.7 -66.7 L5.3 -66.4 Q4.4 -66.25 4.35 -67.15 4.3 -67.8 5.0 -67.95 M-7.6 -68.45 Q-6.45 -68.2 -7.0 -67.2 L-7.4 -66.9 Q-8.3 -66.75 -8.35 -67.65 -8.4 -68.3 -7.75 -68.45 L-7.6 -68.45 M-6.05 -70.8 Q-4.3 -70.8 -3.1 -69.6 -1.85 -68.35 -1.85 -66.6 -1.85 -64.9 -3.1 -63.7 -4.3 -62.45 -6.05 -62.4 -7.8 -62.45 -9.05 -63.7 -10.25 -64.9 -10.25 -66.6 -10.25 -68.35 -9.05 -69.6 -7.8 -70.8 -6.05 -70.8 M-6.05 -70.15 Q-7.5 -70.15 -8.55 -69.15 -9.55 -68.1 -9.55 -66.65 -9.55 -65.2 -8.55 -64.2 -7.5 -63.15 -6.05 -63.15 -4.6 -63.15 -3.6 -64.2 -2.55 -65.2 -2.55 -66.65 -2.55 -68.1 -3.6 -69.15 -4.6 -70.15 -6.05 -70.15" fill="#ffffff" fill-rule="evenodd" stroke="none"/>
    <path d="M17.0 -68.4 Q20.75 -64.3 20.95 -54.55 28.85 -42.4 32.75 -29.35 38.15 -14.0 39.5 -0.55 40.0 4.65 43.85 7.45 L43.3 7.9 41.2 6.95 37.7 10.45 37.8 10.95 Q38.75 14.7 38.5 19.2 L38.5 19.5 Q38.8 22.0 40.95 20.25 L41.95 19.4 Q46.95 42.95 24.55 55.55 L23.55 56.1 Q12.95 61.7 1.05 61.4 -8.35 61.1 -18.45 57.15 L-22.25 55.55 Q-47.95 43.6 -44.9 14.9 -44.85 7.95 -42.5 -1.2 L-41.85 -0.85 -40.45 0.15 Q-38.1 1.7 -38.0 -0.95 -38.5 -5.2 -37.75 -9.4 L-37.6 -10.0 -41.9 -12.45 -42.7 -12.05 -43.85 -12.65 Q-37.85 -26.55 -28.4 -37.55 -25.9 -47.3 -18.4 -56.0 -17.9 -65.35 -13.55 -68.65 L-13.6 -68.05 Q-14.15 -67.1 -13.85 -66.1 -11.7 -61.15 0.55 -59.9 18.35 -59.55 17.0 -68.4 M-20.45 -26.75 Q-26.3 -16.7 -35.6 -8.25 L-37.75 -9.4 -35.6 -8.25 Q-26.3 -16.7 -20.45 -26.75 M37.8 10.95 L36.65 10.95 Q23.55 -0.95 17.35 -18.3 23.55 -0.95 36.65 10.95 L37.8 10.95" fill="url(#gradient0)" fill-rule="evenodd" stroke="none"/>
    <path d="M1.05 61.4 Q-2.4 67.65 -4.75 78.65 -7.6 86.95 -13.75 92.85 -13.6 84.65 -10.65 77.25 -13.2 66.3 -18.45 57.15 -8.35 61.1 1.05 61.4" fill="url(#gradient1)" fill-rule="evenodd" stroke="none"/>
    <path d="M23.55 56.1 Q16.9 66.55 12.7 80.1 12.75 87.6 11.7 94.05 7.2 88.2 5.85 79.4 4.4 68.7 1.05 61.4 12.95 61.7 23.55 56.1" fill="url(#gradient2)" fill-rule="evenodd" stroke="none"/>
    <path d="M-13.6 -68.05 Q-13.05 -71.85 -11.5 -75.4 -11.45 -90.2 -0.45 -93.6 -0.3 -94.35 0.25 -94.9 1.05 -95.7 2.2 -95.7 3.35 -95.7 4.15 -94.9 4.75 -94.3 4.9 -93.5 15.35 -91.0 15.65 -76.75 L17.0 -68.4 Q18.35 -59.55 0.55 -59.9 -11.7 -61.15 -13.85 -66.1 -14.15 -67.1 -13.6 -68.05 M10.0 -69.5 Q8.75 -70.75 6.9 -70.75 5.0 -70.75 3.7 -69.5 2.45 -68.15 2.45 -66.3 2.45 -64.45 3.7 -63.2 5.0 -61.9 6.9 -61.85 8.75 -61.9 10.0 -63.2 11.3 -64.45 11.3 -66.3 11.3 -68.15 10.0 -69.5 M-6.05 -70.8 Q-7.8 -70.8 -9.05 -69.6 -10.25 -68.35 -10.25 -66.6 -10.25 -64.9 -9.05 -63.7 -7.8 -62.45 -6.05 -62.4 -4.3 -62.45 -3.1 -63.7 -1.85 -64.9 -1.85 -66.6 -1.85 -68.35 -3.1 -69.6 -4.3 -70.8 -6.05 -70.8" fill="url(#gradient3)" fill-rule="evenodd" stroke="none"/>
    <path d="M-42.5 -1.2 Q-43.65 -1.7 -44.7 -1.2 L-46.9 -0.05 Q-48.95 1.0 -48.75 -0.75 L-48.15 -3.4 Q-47.9 -4.85 -49.2 -5.85 L-50.55 -6.75 Q-52.8 -8.35 -50.45 -9.3 L-50.15 -9.4 Q-45.95 -10.3 -42.7 -12.05 L-41.9 -12.45 -37.6 -10.0 -37.75 -9.4 Q-38.5 -5.2 -38.0 -0.95 -38.1 1.7 -40.45 0.15 L-41.85 -0.85 -42.5 -1.2" fill="url(#gradient4)" fill-rule="evenodd" stroke="none"/>
    <path d="M43.3 7.9 Q46.45 9.1 49.8 9.6 52.35 10.4 50.25 12.3 L48.9 13.4 Q47.6 14.6 47.85 16.05 L48.4 18.5 Q48.85 20.7 47.2 20.1 L44.8 18.8 Q43.5 18.15 42.2 19.2 L41.95 19.4 40.95 20.25 Q38.8 22.0 38.5 19.5 L38.5 19.2 Q38.75 14.7 37.8 10.95 L37.7 10.45 41.2 6.95 43.3 7.9" fill="url(#gradient5)" fill-rule="evenodd" stroke="none"/>
    <path d="M9.45 -68.95 Q10.55 -67.85 10.55 -66.3 10.55 -64.75 9.45 -63.7 8.4 -62.6 6.85 -62.6 5.3 -62.6 4.2 -63.7 3.15 -64.75 3.15 -66.3 3.15 -67.85 4.2 -68.95 5.3 -70.0 6.85 -70.0 8.4 -70.0 9.45 -68.95 M-7.6 -68.45 L-7.75 -68.45 Q-8.4 -68.3 -8.35 -67.65 -8.3 -66.75 -7.4 -66.9 L-7.0 -67.2 Q-6.45 -68.2 -7.6 -68.45 M5.0 -67.95 Q4.3 -67.8 4.35 -67.15 4.4 -66.25 5.3 -66.4 L5.7 -66.7 Q6.25 -67.7 5.1 -67.95 L5.0 -67.95 M-6.05 -70.15 Q-4.6 -70.15 -3.6 -69.15 -2.55 -68.1 -2.55 -66.65 -2.55 -65.2 -3.6 -64.2 -4.6 -63.15 -6.05 -63.15 -7.5 -63.15 -8.55 -64.2 -9.55 -65.2 -9.55 -66.65 -9.55 -68.1 -8.55 -69.15 -7.5 -70.15 -6.05 -70.15" fill="#884400" fill-rule="evenodd" stroke="none"/>
    <path d="M-13.6 -68.05 Q-13.05 -71.85 -11.5 -75.4 -11.45 -90.2 -0.45 -93.6 -0.3 -94.35 0.25 -94.9 1.05 -95.7 2.2 -95.7 3.35 -95.7 4.15 -94.9 4.75 -94.3 4.9 -93.5 15.35 -91.0 15.65 -76.75 L17.0 -68.4 Q20.75 -64.3 20.95 -54.55 28.85 -42.4 32.75 -29.35 38.15 -14.0 39.5 -0.55 40.0 4.65 43.85 7.45 L43.3 7.9 M41.95 19.4 Q46.95 42.95 24.55 55.55 L23.55 56.1 Q16.9 66.55 12.7 80.1 12.75 87.6 11.7 94.05 7.2 88.2 5.85 79.4 4.4 68.7 1.05 61.4 -2.4 67.65 -4.75 78.65 -7.6 86.95 -13.75 92.85 -13.6 84.65 -10.65 77.25 -13.2 66.3 -18.45 57.15 L-22.25 55.55 Q-47.95 43.6 -44.9 14.9 -44.85 7.95 -42.5 -1.2 -43.65 -1.7 -44.7 -1.2 L-46.9 -0.05 Q-48.95 1.0 -48.75 -0.75 L-48.15 -3.4 Q-47.9 -4.85 -49.2 -5.85 L-50.55 -6.75 Q-52.8 -8.35 -50.45 -9.3 L-50.15 -9.4 Q-45.95 -10.3 -42.7 -12.05 L-43.85 -12.65 Q-37.85 -26.55 -28.4 -37.55 -25.9 -47.3 -18.4 -56.0 -17.9 -65.35 -13.55 -68.65 L-13.6 -68.05 Q-14.15 -67.1 -13.85 -66.1 -11.7 -61.15 0.55 -59.9 18.35 -59.55 17.0 -68.4 M10.0 -69.5 Q11.3 -68.15 11.3 -66.3 11.3 -64.45 10.0 -63.2 8.75 -61.9 6.9 -61.85 5.0 -61.9 3.7 -63.2 2.45 -64.45 2.45 -66.3 2.45 -68.15 3.7 -69.5 5.0 -70.75 6.9 -70.75 8.75 -70.75 10.0 -69.5 M-6.05 -70.8 Q-4.3 -70.8 -3.1 -69.6 -1.85 -68.35 -1.85 -66.6 -1.85 -64.9 -3.1 -63.7 -4.3 -62.45 -6.05 -62.4 -7.8 -62.45 -9.05 -63.7 -10.25 -64.9 -10.25 -66.6 -10.25 -68.35 -9.05 -69.6 -7.8 -70.8 -6.05 -70.8 M-42.5 -1.2 L-41.85 -0.85 -40.45 0.15 Q-38.1 1.7 -38.0 -0.95 -38.5 -5.2 -37.75 -9.4 L-37.6 -10.0 M-41.9 -12.45 L-42.7 -12.05 M-37.75 -9.4 L-35.6 -8.25 Q-26.3 -16.7 -20.45 -26.75 M17.35 -18.3 Q23.55 -0.95 36.65 10.95 L37.8 10.95 M1.05 61.4 Q-8.35 61.1 -18.45 57.15 M1.05 61.4 Q12.95 61.7 23.55 56.1" fill="none" stroke="#3366cc" stroke-linecap="round" stroke-linejoin="round" stroke-width="0.05"/>
    <path d="M43.3 7.9 Q46.45 9.1 49.8 9.6 52.35 10.4 50.25 12.3 L48.9 13.4 Q47.6 14.6 47.85 16.05 L48.4 18.5 Q48.85 20.7 47.2 20.1 L44.8 18.8 Q43.5 18.15 42.2 19.2 L41.95 19.4 M43.3 7.9 L41.2 6.95 M37.7 10.45 L37.8 10.95 Q38.75 14.7 38.5 19.2 L38.5 19.5 Q38.8 22.0 40.95 20.25 L41.95 19.4" fill="none" stroke="#3366cc" stroke-linecap="round" stroke-linejoin="round" stroke-width="0.05"/>
  </g>
  <defs>
    <radialGradient cx="0" cy="0" gradientTransform="matrix(0.1086, 0.0, 0.0, 0.1086, -33.65, 4.7)" gradientUnits="userSpaceOnUse" id="gradient0" r="819.2" spreadMethod="pad">
      <stop offset="0.3843137254901961" stop-color="#33ccff"/>
      <stop offset="1.0" stop-color="#3399ff"/>
    </radialGradient>
    <radialGradient cx="0" cy="0" gradientTransform="matrix(0.0433, 0.0, 0.0, 0.0433, 1.05, 61.4)" gradientUnits="userSpaceOnUse" id="gradient1" r="819.2" spreadMethod="pad">
      <stop offset="0.3843137254901961" stop-color="#33ccff"/>
      <stop offset="1.0" stop-color="#3399ff"/>
    </radialGradient>
    <radialGradient cx="0" cy="0" gradientTransform="matrix(0.0419, 0.0, 0.0, 0.0419, 1.05, 61.4)" gradientUnits="userSpaceOnUse" id="gradient2" r="819.2" spreadMethod="pad">
      <stop offset="0.3843137254901961" stop-color="#33ccff"/>
      <stop offset="1.0" stop-color="#3399ff"/>
    </radialGradient>
    <radialGradient cx="0" cy="0" gradientTransform="matrix(0.0253, 0.0, 0.0, 0.0253, 1.2, -73.35)" gradientUnits="userSpaceOnUse" id="gradient3" r="819.2" spreadMethod="pad">
      <stop offset="0.3843137254901961" stop-color="#33ccff"/>
      <stop offset="1.0" stop-color="#3399ff"/>
    </radialGradient>
    <radialGradient cx="0" cy="0" gradientTransform="matrix(0.0137, 0.0079, -0.0079, 0.0137, -39.35, -4.35)" gradientUnits="userSpaceOnUse" id="gradient4" r="819.2" spreadMethod="pad">
      <stop offset="0.3843137254901961" stop-color="#33ccff"/>
      <stop offset="1.0" stop-color="#3399ff"/>
    </radialGradient>
    <radialGradient cx="0" cy="0" gradientTransform="matrix(0.0112, -0.0112, 0.0112, 0.0112, 46.2, 10.05)" gradientUnits="userSpaceOnUse" id="gradient5" r="819.2" spreadMethod="pad">
      <stop offset="0.3843137254901961" stop-color="#33ccff"/>
      <stop offset="1.0" stop-color="#3399ff"/>
    </radialGradient>
  </defs>
</svg>
