<?xml version="1.0" encoding="UTF-8" standalone="no"?>
<svg xmlns:xlink="http://www.w3.org/1999/xlink" height="193.2px" width="110.5px" xmlns="http://www.w3.org/2000/svg">
  <g transform="matrix(1.0, 0.0, 0.0, 1.0, 53.75, 97.3)">
    <path d="M4.9 -71.4 Q6.4 -69.9 6.4 -67.8 6.4 -65.7 4.9 -64.25 3.45 -62.75 1.4 -62.75 -0.7 -62.75 -2.2 -64.25 -3.65 -65.7 -3.65 -67.8 -3.65 -69.9 -2.2 -71.4 -0.7 -72.85 1.4 -72.85 3.45 -72.85 4.9 -71.4 M4.3 -70.8 Q3.1 -72.0 1.35 -72.0 -0.4 -72.0 -1.65 -70.8 -2.85 -69.55 -2.85 -67.8 -2.85 -66.05 -1.65 -64.85 -0.4 -63.6 1.35 -63.6 3.1 -63.6 4.3 -64.85 5.55 -66.05 5.55 -67.8 5.55 -69.55 4.3 -70.8 M-0.3 -68.4 L-0.7 -68.1 Q-1.6 -67.95 -1.65 -68.85 -1.7 -69.5 -1.0 -69.65 L-0.9 -69.65 Q0.25 -69.4 -0.3 -68.4 M-9.15 -64.05 Q-7.9 -65.25 -7.9 -67.0 -7.9 -68.75 -9.15 -70.0 -10.35 -71.2 -12.1 -71.2 -13.85 -71.2 -15.1 -70.0 -16.3 -68.75 -16.3 -67.0 -16.3 -65.25 -15.1 -64.05 -13.85 -62.8 -12.1 -62.8 -10.35 -62.8 -9.15 -64.05 M-8.55 -63.45 Q-10.0 -61.95 -12.1 -61.95 -14.2 -61.95 -15.7 -63.45 -17.15 -64.9 -17.15 -67.0 -17.15 -69.1 -15.7 -70.6 -14.2 -72.05 -12.1 -72.05 -10.0 -72.05 -8.55 -70.6 -7.05 -69.1 -7.05 -67.0 -7.05 -64.9 -8.55 -63.45 M-14.5 -68.9 Q-13.35 -68.65 -13.9 -67.65 L-14.25 -67.35 Q-15.2 -67.2 -15.25 -68.1 -15.3 -68.75 -14.6 -68.9 L-14.5 -68.9" fill="#ffffff" fill-rule="evenodd" stroke="none"/>
    <path d="M13.25 -68.35 Q16.05 -65.0 17.9 -55.15 25.4 -43.15 29.55 -32.25 34.65 -28.55 39.95 -20.45 42.0 -19.0 44.05 -20.45 L43.95 -19.1 42.45 -18.55 42.45 -13.6 43.35 -13.05 43.1 -10.5 Q41.3 -7.25 38.25 -5.2 L36.9 -4.4 Q41.25 2.15 42.15 20.55 43.0 39.1 17.35 58.1 L17.3 58.15 16.9 58.4 15.0 59.75 14.95 59.8 14.7 59.95 Q5.75 65.7 -2.85 67.0 -7.2 67.6 -11.45 67.1 -15.7 66.6 -19.85 64.9 -28.05 61.55 -35.85 53.7 -53.4 34.75 -47.55 10.15 L-46.8 9.75 Q-45.5 9.15 -43.95 10.1 L-42.55 11.1 Q-40.2 12.65 -40.1 10.0 -40.6 5.45 -39.7 0.95 L-40.1 0.75 -44.0 -1.5 -44.05 -1.5 Q-43.55 -16.65 -32.25 -34.45 -30.05 -49.3 -23.15 -63.0 -22.5 -65.4 -20.85 -67.2 -20.3 -58.25 -4.1 -57.95 12.9 -59.9 13.25 -68.35 M26.6 -3.0 Q33.05 -2.65 36.9 -4.4 33.05 -2.65 26.6 -3.0 M29.55 -32.25 Q26.7 -34.25 23.95 -34.95 26.7 -34.25 29.55 -32.25 M-30.05 -15.35 Q-34.05 -6.95 -40.1 0.75 -34.05 -6.95 -30.05 -15.35" fill="url(#gradient0)" fill-rule="evenodd" stroke="none"/>
    <path d="M-11.45 67.1 Q-13.05 76.25 -17.1 84.65 -20.15 74.6 -19.85 64.9 -15.7 66.6 -11.45 67.1" fill="url(#gradient1)" fill-rule="evenodd" stroke="none"/>
    <path d="M15.0 59.75 L16.9 58.45 Q10.8 68.85 6.45 81.8 6.05 89.3 3.0 95.9 0.9 88.1 0.75 81.2 -0.1 73.9 -2.85 67.0 5.75 65.7 14.7 59.95 L14.95 59.8 15.0 59.75" fill="url(#gradient2)" fill-rule="evenodd" stroke="none"/>
    <path d="M-20.85 -67.2 L-19.0 -79.1 Q-16.7 -93.7 -6.5 -95.65 L-5.95 -96.5 Q-5.15 -97.3 -4.0 -97.3 -2.85 -97.3 -2.05 -96.5 L-1.4 -95.55 Q8.3 -93.8 10.0 -81.15 L12.1 -69.4 13.25 -68.35 Q12.9 -59.9 -4.1 -57.95 -20.3 -58.25 -20.85 -67.2 M4.9 -71.4 Q3.45 -72.85 1.4 -72.85 -0.7 -72.85 -2.2 -71.4 -3.65 -69.9 -3.65 -67.8 -3.65 -65.7 -2.2 -64.25 -0.7 -62.75 1.4 -62.75 3.45 -62.75 4.9 -64.25 6.4 -65.7 6.4 -67.8 6.4 -69.9 4.9 -71.4 M-8.55 -63.45 Q-7.05 -64.9 -7.05 -67.0 -7.05 -69.1 -8.55 -70.6 -10.0 -72.05 -12.1 -72.05 -14.2 -72.05 -15.7 -70.6 -17.15 -69.1 -17.15 -67.0 -17.15 -64.9 -15.7 -63.45 -14.2 -61.95 -12.1 -61.95 -10.0 -61.95 -8.55 -63.45" fill="url(#gradient3)" fill-rule="evenodd" stroke="none"/>
    <path d="M-47.55 10.15 L-49.0 10.9 Q-51.05 11.95 -50.85 10.2 L-50.25 7.55 Q-50.0 6.1 -51.3 5.1 L-52.65 4.2 Q-54.9 2.6 -52.55 1.65 L-52.25 1.55 Q-47.6 0.55 -44.05 -1.5 L-44.0 -1.5 -40.1 0.75 -39.7 0.95 Q-40.6 5.45 -40.1 10.0 -40.2 12.65 -42.55 11.1 L-43.95 10.1 Q-45.5 9.15 -46.8 9.75 L-47.55 10.15" fill="url(#gradient4)" fill-rule="evenodd" stroke="none"/>
    <path d="M43.95 -19.1 Q47.4 -20.55 50.45 -22.75 52.8 -24.0 52.65 -21.2 L52.45 -19.45 Q52.4 -17.7 53.6 -16.8 L55.7 -15.5 Q57.6 -14.25 56.0 -13.55 L53.4 -12.75 Q52.0 -12.25 51.8 -10.6 L51.7 -9.0 Q51.45 -6.25 49.45 -7.8 L49.2 -8.0 Q46.4 -11.15 43.35 -13.05 L42.45 -13.6 42.45 -18.55 43.95 -19.1" fill="url(#gradient5)" fill-rule="evenodd" stroke="none"/>
    <path d="M4.3 -70.8 Q5.55 -69.55 5.55 -67.8 5.55 -66.05 4.3 -64.85 3.1 -63.6 1.35 -63.6 -0.4 -63.6 -1.65 -64.85 -2.85 -66.05 -2.85 -67.8 -2.85 -69.55 -1.65 -70.8 -0.4 -72.0 1.35 -72.0 3.1 -72.0 4.3 -70.8 M-0.3 -68.4 Q0.25 -69.4 -0.9 -69.65 L-1.0 -69.65 Q-1.7 -69.5 -1.65 -68.85 -1.6 -67.95 -0.7 -68.1 L-0.3 -68.4 M-9.15 -64.05 Q-10.35 -62.8 -12.1 -62.8 -13.85 -62.8 -15.1 -64.05 -16.3 -65.25 -16.3 -67.0 -16.3 -68.75 -15.1 -70.0 -13.85 -71.2 -12.1 -71.2 -10.35 -71.2 -9.15 -70.0 -7.9 -68.75 -7.9 -67.0 -7.9 -65.25 -9.15 -64.05 M-14.5 -68.9 L-14.6 -68.9 Q-15.3 -68.75 -15.25 -68.1 -15.2 -67.2 -14.25 -67.35 L-13.9 -67.65 Q-13.35 -68.65 -14.5 -68.9" fill="#884400" fill-rule="evenodd" stroke="none"/>
    <path d="M-20.85 -67.2 L-19.0 -79.1 Q-16.7 -93.7 -6.5 -95.65 L-5.95 -96.5 Q-5.15 -97.3 -4.0 -97.3 -2.85 -97.3 -2.05 -96.5 L-1.4 -95.55 Q8.3 -93.8 10.0 -81.15 L12.1 -69.4 13.25 -68.35 Q16.05 -65.0 17.9 -55.15 25.4 -43.15 29.55 -32.25 34.65 -28.55 39.95 -20.45 42.0 -19.0 44.05 -20.45 L43.95 -19.1 Q47.4 -20.55 50.45 -22.75 52.8 -24.0 52.65 -21.2 L52.45 -19.45 Q52.4 -17.7 53.6 -16.8 L55.7 -15.5 Q57.6 -14.25 56.0 -13.55 L53.4 -12.75 Q52.0 -12.25 51.8 -10.6 L51.7 -9.0 Q51.45 -6.25 49.45 -7.8 L49.2 -8.0 Q46.4 -11.15 43.35 -13.05 L43.1 -10.5 Q41.3 -7.25 38.25 -5.2 L36.9 -4.4 Q41.25 2.15 42.15 20.55 43.0 39.1 17.35 58.1 L17.3 58.15 16.9 58.4 15.0 59.75 16.9 58.45 Q10.8 68.85 6.45 81.8 6.05 89.3 3.0 95.9 0.9 88.1 0.75 81.2 -0.1 73.9 -2.85 67.0 -7.2 67.6 -11.45 67.1 -13.05 76.25 -17.1 84.65 -20.15 74.6 -19.85 64.9 -28.05 61.55 -35.85 53.7 -53.4 34.75 -47.55 10.15 L-49.0 10.9 Q-51.05 11.95 -50.85 10.2 L-50.25 7.55 Q-50.0 6.1 -51.3 5.1 L-52.65 4.2 Q-54.9 2.6 -52.55 1.65 L-52.25 1.55 Q-47.6 0.55 -44.05 -1.5 -43.55 -16.65 -32.25 -34.45 -30.05 -49.3 -23.15 -63.0 -22.5 -65.4 -20.85 -67.2 -20.3 -58.25 -4.1 -57.95 12.9 -59.9 13.25 -68.35 M4.9 -71.4 Q6.4 -69.9 6.4 -67.8 6.4 -65.7 4.9 -64.25 3.45 -62.75 1.4 -62.75 -0.7 -62.75 -2.2 -64.25 -3.65 -65.7 -3.65 -67.8 -3.65 -69.9 -2.2 -71.4 -0.7 -72.85 1.4 -72.85 3.45 -72.85 4.9 -71.4 M23.95 -34.95 Q26.7 -34.25 29.55 -32.25 M36.9 -4.4 Q33.05 -2.65 26.6 -3.0 M42.45 -13.6 L43.35 -13.05 M43.95 -19.1 L42.45 -18.55 M-8.55 -63.45 Q-10.0 -61.95 -12.1 -61.95 -14.2 -61.95 -15.7 -63.45 -17.15 -64.9 -17.15 -67.0 -17.15 -69.1 -15.7 -70.6 -14.2 -72.05 -12.1 -72.05 -10.0 -72.05 -8.55 -70.6 -7.05 -69.1 -7.05 -67.0 -7.05 -64.9 -8.55 -63.45 M-44.0 -1.5 L-44.05 -1.5 M-47.55 10.15 L-46.8 9.75 Q-45.5 9.15 -43.95 10.1 L-42.55 11.1 Q-40.2 12.65 -40.1 10.0 -40.6 5.45 -39.7 0.95 M-19.85 64.9 Q-15.7 66.6 -11.45 67.1 M-2.85 67.0 Q5.75 65.7 14.7 59.95 L14.95 59.8 15.0 59.75 M-40.1 0.75 Q-34.05 -6.95 -30.05 -15.35" fill="none" stroke="#3366cc" stroke-linecap="round" stroke-linejoin="round" stroke-width="0.05"/>
  </g>
  <defs>
    <radialGradient cx="0" cy="0" gradientTransform="matrix(0.1091, 0.0, 0.0, 0.1091, 8.05, -19.95)" gradientUnits="userSpaceOnUse" id="gradient0" r="819.2" spreadMethod="pad">
      <stop offset="0.3843137254901961" stop-color="#33ccff"/>
      <stop offset="1.0" stop-color="#3399ff"/>
    </radialGradient>
    <radialGradient cx="0" cy="0" gradientTransform="matrix(0.0162, 0.0, 0.0, 0.0162, -15.8, 72.25)" gradientUnits="userSpaceOnUse" id="gradient1" r="819.2" spreadMethod="pad">
      <stop offset="0.3843137254901961" stop-color="#33ccff"/>
      <stop offset="1.0" stop-color="#3399ff"/>
    </radialGradient>
    <radialGradient cx="0" cy="0" gradientTransform="matrix(0.032, 0.0, 0.0, 0.032, 5.75, 70.55)" gradientUnits="userSpaceOnUse" id="gradient2" r="819.2" spreadMethod="pad">
      <stop offset="0.3843137254901961" stop-color="#33ccff"/>
      <stop offset="1.0" stop-color="#3399ff"/>
    </radialGradient>
    <radialGradient cx="0" cy="0" gradientTransform="matrix(0.0316, 0.0, 0.0, 0.0316, -3.3, -82.35)" gradientUnits="userSpaceOnUse" id="gradient3" r="819.2" spreadMethod="pad">
      <stop offset="0.3843137254901961" stop-color="#33ccff"/>
      <stop offset="1.0" stop-color="#3399ff"/>
    </radialGradient>
    <radialGradient cx="0" cy="0" gradientTransform="matrix(0.0137, 0.0079, -0.0079, 0.0137, -41.45, 6.6)" gradientUnits="userSpaceOnUse" id="gradient4" r="819.2" spreadMethod="pad">
      <stop offset="0.3843137254901961" stop-color="#33ccff"/>
      <stop offset="1.0" stop-color="#3399ff"/>
    </radialGradient>
    <radialGradient cx="0" cy="0" gradientTransform="matrix(0.0, -0.0158, 0.0158, 0.0, 48.2, -19.9)" gradientUnits="userSpaceOnUse" id="gradient5" r="819.2" spreadMethod="pad">
      <stop offset="0.3843137254901961" stop-color="#33ccff"/>
      <stop offset="1.0" stop-color="#3399ff"/>
    </radialGradient>
  </defs>
</svg>
