<?xml version="1.0" encoding="UTF-8" standalone="no"?>
<svg xmlns:xlink="http://www.w3.org/1999/xlink" height="191.55px" width="108.85px" xmlns="http://www.w3.org/2000/svg">
  <g transform="matrix(1.0, 0.0, 0.0, 1.0, 54.15, 96.4)">
    <path d="M0.7 -64.75 Q-0.7 -63.35 -2.6 -63.35 -4.55 -63.35 -5.9 -64.75 -7.3 -66.15 -7.3 -68.05 -7.3 -69.95 -5.9 -71.35 -4.55 -72.75 -2.6 -72.75 -0.7 -72.75 0.7 -71.35 2.05 -69.95 2.05 -68.05 2.05 -66.15 0.7 -64.75 M0.1 -65.3 Q1.25 -66.45 1.25 -68.05 1.25 -69.65 0.1 -70.8 -1.05 -71.95 -2.65 -71.95 -4.25 -71.95 -5.4 -70.8 -6.55 -69.65 -6.55 -68.05 -6.55 -66.45 -5.4 -65.3 -4.25 -64.15 -2.65 -64.15 -1.05 -64.15 0.1 -65.3 M-4.2 -68.1 L-4.6 -67.8 Q-5.5 -67.65 -5.55 -68.55 -5.6 -69.2 -4.9 -69.35 L-4.8 -69.35 Q-3.65 -69.1 -4.2 -68.1 M-12.4 -69.35 Q-13.55 -70.5 -15.15 -70.5 -16.75 -70.5 -17.9 -69.35 -19.05 -68.2 -19.05 -66.6 -19.05 -65.0 -17.9 -63.85 -16.75 -62.7 -15.15 -62.7 -13.55 -62.7 -12.4 -63.85 -11.25 -65.0 -11.25 -66.6 -11.25 -68.2 -12.4 -69.35 M-11.8 -69.9 Q-10.45 -68.55 -10.45 -66.6 -10.45 -64.7 -11.8 -63.3 -13.2 -61.95 -15.1 -61.95 -17.05 -61.95 -18.4 -63.3 -19.8 -64.7 -19.8 -66.6 -19.8 -68.55 -18.4 -69.9 -17.05 -71.3 -15.1 -71.3 -13.2 -71.3 -11.8 -69.9 M-17.1 -68.25 Q-15.95 -67.95 -16.5 -66.95 L-16.9 -66.7 Q-17.8 -66.55 -17.85 -67.45 -17.9 -68.1 -17.2 -68.25 L-17.1 -68.25" fill="#ffffff" fill-rule="evenodd" stroke="none"/>
    <path d="M8.25 -69.7 Q13.35 -63.25 15.6 -52.55 22.6 -44.3 27.5 -36.05 35.85 -34.25 40.85 -37.5 L41.05 -36.25 39.75 -35.3 41.05 -30.5 41.8 -30.3 42.1 -27.7 Q40.05 -18.9 35.4 -13.45 40.0 -0.55 41.3 12.05 45.85 37.15 22.15 52.6 18.95 54.95 15.6 56.75 6.25 61.75 -4.05 62.55 -9.25 62.95 -14.7 62.3 L-22.2 60.9 Q-26.75 59.75 -31.45 57.9 -52.6 48.8 -48.8 22.65 L-48.3 21.05 -46.5 19.8 -43.6 19.85 -42.1 20.7 Q-39.6 22.0 -39.75 19.3 -40.7 15.15 -40.4 10.9 L-40.35 10.3 -43.35 9.0 -44.35 8.55 -44.3 8.35 -45.55 7.55 Q-41.3 -15.55 -31.45 -37.9 -28.1 -48.4 -26.15 -61.75 -25.45 -66.35 -21.7 -68.85 -24.35 -56.8 -9.45 -56.55 8.75 -57.8 8.25 -69.7 M26.4 -6.9 Q31.7 -9.15 35.4 -13.45 31.7 -9.15 26.4 -6.9 M18.25 -39.1 Q23.3 -36.95 27.5 -36.05 23.3 -36.95 18.25 -39.1 M-44.3 8.35 L-43.35 9.0 -44.3 8.35 M-40.4 10.9 L-39.85 11.25 Q-33.65 -1.2 -29.45 -13.65 -33.65 -1.2 -39.85 11.25 L-40.4 10.9" fill="url(#gradient0)" fill-rule="evenodd" stroke="none"/>
    <path d="M0.7 -64.75 Q2.05 -66.15 2.05 -68.05 2.05 -69.95 0.7 -71.35 -0.7 -72.75 -2.6 -72.75 -4.55 -72.75 -5.9 -71.35 -7.3 -69.95 -7.3 -68.05 -7.3 -66.15 -5.9 -64.75 -4.55 -63.35 -2.6 -63.35 -0.7 -63.35 0.7 -64.75 M-21.7 -68.85 L-21.7 -76.9 Q-21.9 -91.3 -11.3 -94.5 L-10.65 -95.6 Q-9.85 -96.4 -8.7 -96.4 -7.55 -96.4 -6.75 -95.6 L-6.4 -95.15 Q2.9 -94.75 6.4 -79.3 L8.25 -69.7 Q8.75 -57.8 -9.45 -56.55 -24.35 -56.8 -21.7 -68.85 M-11.8 -69.9 Q-13.2 -71.3 -15.1 -71.3 -17.05 -71.3 -18.4 -69.9 -19.8 -68.55 -19.8 -66.6 -19.8 -64.7 -18.4 -63.3 -17.05 -61.95 -15.1 -61.95 -13.2 -61.95 -11.8 -63.3 -10.45 -64.7 -10.45 -66.6 -10.45 -68.55 -11.8 -69.9" fill="url(#gradient1)" fill-rule="evenodd" stroke="none"/>
    <path d="M15.6 56.75 Q8.85 65.2 5.2 76.9 6.9 88.1 4.35 95.15 -0.35 85.95 -1.3 76.0 L-4.05 62.55 Q6.25 61.75 15.6 56.75" fill="url(#gradient2)" fill-rule="evenodd" stroke="none"/>
    <path d="M-14.7 62.3 Q-15.05 68.1 -17.6 73.15 -20.95 67.0 -22.2 60.9 L-14.7 62.3" fill="url(#gradient3)" fill-rule="evenodd" stroke="none"/>
    <path d="M-48.3 21.05 L-48.55 21.2 Q-50.45 22.45 -50.45 20.7 L-50.1 18.0 Q-50.0 16.55 -51.4 15.7 L-52.85 14.95 Q-55.3 13.55 -53.05 12.35 L-52.75 12.25 Q-48.2 10.75 -44.9 8.3 L-44.35 8.55 -43.35 9.0 -40.35 10.3 -40.4 10.9 Q-40.7 15.15 -39.75 19.3 -39.6 22.0 -42.1 20.7 L-43.6 19.85 -46.5 19.8 -48.3 21.05" fill="url(#gradient4)" fill-rule="evenodd" stroke="none"/>
    <path d="M41.05 -36.25 Q44.0 -38.5 46.4 -41.45 48.35 -43.3 48.9 -40.5 L49.2 -38.75 Q49.6 -37.05 51.0 -36.5 L53.35 -35.75 Q55.55 -35.1 54.15 -33.95 L51.85 -32.5 Q50.65 -31.7 50.85 -30.05 L51.2 -28.45 Q51.6 -25.75 49.3 -26.7 L49.05 -26.85 Q45.4 -29.25 41.8 -30.3 L41.05 -30.5 39.75 -35.3 41.05 -36.25" fill="url(#gradient5)" fill-rule="evenodd" stroke="none"/>
    <path d="M0.1 -65.3 Q-1.05 -64.15 -2.65 -64.15 -4.25 -64.15 -5.4 -65.3 -6.55 -66.45 -6.55 -68.05 -6.55 -69.65 -5.4 -70.8 -4.25 -71.95 -2.65 -71.95 -1.05 -71.95 0.1 -70.8 1.25 -69.65 1.25 -68.05 1.25 -66.45 0.1 -65.3 M-4.2 -68.1 Q-3.65 -69.1 -4.8 -69.35 L-4.9 -69.35 Q-5.6 -69.2 -5.55 -68.55 -5.5 -67.65 -4.6 -67.8 L-4.2 -68.1 M-12.4 -69.35 Q-11.25 -68.2 -11.25 -66.6 -11.25 -65.0 -12.4 -63.85 -13.55 -62.7 -15.15 -62.7 -16.75 -62.7 -17.9 -63.85 -19.05 -65.0 -19.05 -66.6 -19.05 -68.2 -17.9 -69.35 -16.75 -70.5 -15.15 -70.5 -13.55 -70.5 -12.4 -69.35 M-17.1 -68.25 L-17.2 -68.25 Q-17.9 -68.1 -17.85 -67.45 -17.8 -66.55 -16.9 -66.7 L-16.5 -66.95 Q-15.95 -67.95 -17.1 -68.25" fill="#884400" fill-rule="evenodd" stroke="none"/>
    <path d="M0.7 -64.75 Q-0.7 -63.35 -2.6 -63.35 -4.55 -63.35 -5.9 -64.75 -7.3 -66.15 -7.3 -68.05 -7.3 -69.95 -5.9 -71.35 -4.55 -72.75 -2.6 -72.75 -0.7 -72.75 0.7 -71.35 2.05 -69.95 2.05 -68.05 2.05 -66.15 0.7 -64.75 M8.25 -69.7 Q13.35 -63.25 15.6 -52.55 22.6 -44.3 27.5 -36.05 35.85 -34.25 40.85 -37.5 L41.05 -36.25 Q44.0 -38.5 46.4 -41.45 48.35 -43.3 48.9 -40.5 L49.2 -38.75 Q49.6 -37.05 51.0 -36.5 L53.35 -35.75 Q55.55 -35.1 54.15 -33.95 L51.85 -32.5 Q50.65 -31.7 50.85 -30.05 L51.2 -28.45 Q51.6 -25.75 49.3 -26.7 L49.05 -26.85 Q45.4 -29.25 41.8 -30.3 L42.1 -27.7 Q40.05 -18.9 35.4 -13.45 40.0 -0.55 41.3 12.05 45.85 37.15 22.15 52.6 18.95 54.95 15.6 56.75 8.85 65.2 5.2 76.9 6.9 88.1 4.35 95.15 -0.35 85.95 -1.3 76.0 L-4.05 62.55 Q-9.25 62.95 -14.7 62.3 -15.05 68.1 -17.6 73.15 -20.95 67.0 -22.2 60.9 -26.75 59.75 -31.45 57.9 -52.6 48.8 -48.8 22.65 L-48.3 21.05 M-44.35 8.55 L-44.3 8.35 -45.55 7.55 Q-41.3 -15.55 -31.45 -37.9 -28.1 -48.4 -26.15 -61.75 -25.45 -66.35 -21.7 -68.85 L-21.7 -76.9 Q-21.9 -91.3 -11.3 -94.5 L-10.65 -95.6 Q-9.85 -96.4 -8.7 -96.4 -7.55 -96.4 -6.75 -95.6 L-6.4 -95.15 Q2.9 -94.75 6.4 -79.3 L8.25 -69.7 Q8.75 -57.8 -9.45 -56.55 -24.35 -56.8 -21.7 -68.85 M27.5 -36.05 Q23.3 -36.95 18.25 -39.1 M35.4 -13.45 Q31.7 -9.15 26.4 -6.9 M41.05 -30.5 L41.8 -30.3 M41.05 -36.25 L39.75 -35.3 M-11.8 -69.9 Q-10.45 -68.55 -10.45 -66.6 -10.45 -64.7 -11.8 -63.3 -13.2 -61.95 -15.1 -61.95 -17.05 -61.95 -18.4 -63.3 -19.8 -64.7 -19.8 -66.6 -19.8 -68.55 -18.4 -69.9 -17.05 -71.3 -15.1 -71.3 -13.2 -71.3 -11.8 -69.9 M-29.45 -13.65 Q-33.65 -1.2 -39.85 11.25 L-40.4 10.9 M-43.35 9.0 L-44.3 8.35 M-22.2 60.9 L-14.7 62.3 M-4.05 62.55 Q6.25 61.75 15.6 56.75" fill="none" stroke="#3366cc" stroke-linecap="round" stroke-linejoin="round" stroke-width="0.05"/>
    <path d="M-48.3 21.05 L-48.55 21.2 Q-50.45 22.45 -50.45 20.7 L-50.1 18.0 Q-50.0 16.55 -51.4 15.7 L-52.85 14.95 Q-55.3 13.55 -53.05 12.35 L-52.75 12.25 Q-48.2 10.75 -44.9 8.3 M-48.3 21.05 L-46.5 19.8 -43.6 19.85 -42.1 20.7 Q-39.6 22.0 -39.75 19.3 -40.7 15.15 -40.4 10.9 L-40.35 10.3" fill="none" stroke="#3366cc" stroke-linecap="round" stroke-linejoin="round" stroke-width="0.05"/>
  </g>
  <defs>
    <radialGradient cx="0" cy="0" gradientTransform="matrix(0.1091, 0.0, 0.0, 0.1091, -32.0, -17.6)" gradientUnits="userSpaceOnUse" id="gradient0" r="819.2" spreadMethod="pad">
      <stop offset="0.3843137254901961" stop-color="#33ccff"/>
      <stop offset="1.0" stop-color="#3399ff"/>
    </radialGradient>
    <radialGradient cx="0" cy="0" gradientTransform="matrix(0.0301, 0.0, 0.0, 0.0301, -2.65, -71.95)" gradientUnits="userSpaceOnUse" id="gradient1" r="819.2" spreadMethod="pad">
      <stop offset="0.3843137254901961" stop-color="#33ccff"/>
      <stop offset="1.0" stop-color="#3399ff"/>
    </radialGradient>
    <radialGradient cx="0" cy="0" gradientTransform="matrix(0.0313, 0.0, 0.0, 0.0313, -1.3, 76.0)" gradientUnits="userSpaceOnUse" id="gradient2" r="819.2" spreadMethod="pad">
      <stop offset="0.3843137254901961" stop-color="#33ccff"/>
      <stop offset="1.0" stop-color="#3399ff"/>
    </radialGradient>
    <radialGradient cx="0" cy="0" gradientTransform="matrix(0.0086, 0.0, 0.0, 0.0086, -18.85, 66.2)" gradientUnits="userSpaceOnUse" id="gradient3" r="819.2" spreadMethod="pad">
      <stop offset="0.3843137254901961" stop-color="#33ccff"/>
      <stop offset="1.0" stop-color="#3399ff"/>
    </radialGradient>
    <radialGradient cx="0" cy="0" gradientTransform="matrix(0.0145, 0.0064, -0.0064, 0.0145, -41.5, 16.1)" gradientUnits="userSpaceOnUse" id="gradient4" r="819.2" spreadMethod="pad">
      <stop offset="0.3843137254901961" stop-color="#33ccff"/>
      <stop offset="1.0" stop-color="#3399ff"/>
    </radialGradient>
    <radialGradient cx="0" cy="0" gradientTransform="matrix(-0.0041, -0.0153, 0.0153, -0.0041, 44.95, -38.1)" gradientUnits="userSpaceOnUse" id="gradient5" r="819.2" spreadMethod="pad">
      <stop offset="0.3843137254901961" stop-color="#33ccff"/>
      <stop offset="1.0" stop-color="#3399ff"/>
    </radialGradient>
  </defs>
</svg>
