<?xml version="1.0" encoding="UTF-8" standalone="no"?>
<svg xmlns:xlink="http://www.w3.org/1999/xlink" height="188.05px" width="98.7px" xmlns="http://www.w3.org/2000/svg">
  <g transform="matrix(1.0, 0.0, 0.0, 1.0, 50.05, 94.75)">
    <path d="M3.45 -69.8 Q4.75 -68.5 4.75 -66.6 L4.75 -66.2 4.5 -65.0 3.45 -63.5 Q2.15 -62.2 0.3 -62.15 -1.55 -62.2 -2.85 -63.5 -4.15 -64.75 -4.1 -66.6 L-3.95 -67.95 -2.85 -69.8 Q-1.55 -71.05 0.3 -71.05 2.15 -71.05 3.45 -69.8 M4.0 -66.3 L4.0 -66.6 Q4.0 -68.15 2.9 -69.25 1.85 -70.3 0.3 -70.3 -1.25 -70.3 -2.35 -69.25 -3.0 -68.55 -3.25 -67.7 L-3.5 -66.6 -3.4 -66.6 Q-3.4 -65.05 -2.35 -64.0 -1.25 -62.9 0.3 -62.9 1.85 -62.9 2.9 -64.0 L3.8 -65.25 3.9 -66.3 4.0 -66.25 4.0 -66.3 M-7.8 -63.05 Q-9.1 -61.75 -10.95 -61.75 -12.8 -61.75 -14.1 -63.05 -15.4 -64.35 -15.35 -66.2 -15.4 -68.05 -14.1 -69.35 -12.8 -70.65 -10.95 -70.6 -9.1 -70.65 -7.8 -69.35 -6.5 -68.05 -6.5 -66.2 -6.5 -64.35 -7.8 -63.05 M-8.35 -63.6 Q-7.25 -64.65 -7.25 -66.2 -7.25 -67.75 -8.35 -68.85 -9.4 -69.9 -10.95 -69.9 -12.5 -69.9 -13.6 -68.85 -14.65 -67.75 -14.65 -66.2 -14.65 -64.65 -13.6 -63.6 -12.5 -62.5 -10.95 -62.5 -9.4 -62.5 -8.35 -63.6 M-0.95 -66.6 Q-1.05 -66.35 -1.35 -66.3 -2.25 -66.15 -2.3 -67.05 -2.35 -67.7 -1.7 -67.85 L-1.55 -67.85 Q-0.4 -67.6 -0.95 -66.6 M-12.95 -68.1 Q-11.8 -67.85 -12.35 -66.85 -12.45 -66.6 -12.75 -66.55 -13.65 -66.4 -13.7 -67.3 -13.75 -67.95 -13.1 -68.1 L-12.95 -68.1" fill="#ffffff" fill-rule="evenodd" stroke="none"/>
    <path d="M34.7 -54.65 L34.65 -54.25 38.95 -51.75 39.25 -51.95 40.45 -51.25 Q43.7 -31.45 38.6 -17.45 44.6 -4.4 45.85 10.65 47.5 38.55 21.0 51.8 16.35 54.1 10.8 55.95 L0.6 57.05 Q-3.05 57.2 -6.55 56.9 L-9.2 56.65 -14.6 55.65 -21.5 53.5 Q-28.7 50.7 -35.0 45.75 -44.7 39.35 -44.7 24.95 L-43.35 24.2 -41.55 22.55 Q-40.4 21.6 -38.7 22.1 L-37.05 22.75 Q-34.4 23.65 -34.95 21.0 -36.45 17.3 -36.85 13.35 L-36.95 12.2 -41.75 10.9 -42.65 11.75 -43.15 12.2 -43.0 11.65 Q-36.25 -19.8 -24.0 -49.75 -23.85 -63.45 -17.85 -66.45 -18.15 -60.35 -5.1 -59.65 9.35 -61.25 11.95 -69.15 14.25 -67.55 14.65 -64.6 19.1 -48.35 27.7 -46.15 31.3 -50.55 33.55 -55.35 L34.7 -54.65 M19.5 -37.95 Q24.25 -41.85 27.7 -46.15 24.25 -41.85 19.5 -37.95 M38.6 -17.45 Q36.2 -10.8 32.3 -5.95 36.2 -10.8 38.6 -17.45 M-42.65 11.75 L-43.0 11.65 -42.65 11.75 M-23.5 -17.25 L-36.3 13.5 -36.85 13.35 -36.3 13.5 -23.5 -17.25" fill="url(#gradient0)" fill-rule="evenodd" stroke="none"/>
    <path d="M-17.85 -66.45 L-17.95 -77.05 Q-17.35 -89.85 -7.85 -92.75 L-7.15 -93.95 Q-6.35 -94.75 -5.2 -94.75 -4.05 -94.75 -3.25 -93.95 L-2.65 -93.05 Q7.35 -91.75 9.1 -80.9 11.4 -75.2 11.95 -69.15 9.35 -61.25 -5.1 -59.65 -18.15 -60.35 -17.85 -66.45 M3.45 -69.8 Q2.15 -71.05 0.3 -71.05 -1.55 -71.05 -2.85 -69.8 L-3.95 -67.95 -4.1 -66.6 Q-4.15 -64.75 -2.85 -63.5 -1.55 -62.2 0.3 -62.15 2.15 -62.2 3.45 -63.5 L4.5 -65.0 4.75 -66.2 4.75 -66.6 Q4.75 -68.5 3.45 -69.8 M-7.8 -63.05 Q-6.5 -64.35 -6.5 -66.2 -6.5 -68.05 -7.8 -69.35 -9.1 -70.65 -10.95 -70.6 -12.8 -70.65 -14.1 -69.35 -15.4 -68.05 -15.35 -66.2 -15.4 -64.35 -14.1 -63.05 -12.8 -61.75 -10.95 -61.75 -9.1 -61.75 -7.8 -63.05" fill="url(#gradient1)" fill-rule="evenodd" stroke="none"/>
    <path d="M21.0 51.8 Q15.05 62.35 9.5 76.75 9.1 85.85 5.7 93.3 3.8 86.1 4.6 76.2 3.9 64.85 0.6 57.05 L10.8 55.95 Q16.35 54.1 21.0 51.8" fill="url(#gradient2)" fill-rule="evenodd" stroke="none"/>
    <path d="M-9.2 56.65 Q-11.3 63.85 -16.9 70.6 -17.15 62.75 -14.6 55.65 L-9.2 56.65" fill="url(#gradient3)" fill-rule="evenodd" stroke="none"/>
    <path d="M4.0 -66.3 L4.0 -66.25 3.9 -66.3 4.0 -66.3" fill="#000000" fill-rule="evenodd" stroke="none"/>
    <path d="M-44.7 24.95 Q-45.2 24.85 -45.3 24.0 L-45.4 21.3 Q-45.55 19.8 -47.05 19.2 L-48.6 18.7 Q-51.2 17.7 -49.15 16.15 L-48.9 16.0 Q-45.6 14.35 -43.15 12.2 L-42.65 11.75 -41.75 10.9 -36.95 12.2 -36.85 13.35 Q-36.45 17.3 -34.95 21.0 -34.4 23.65 -37.05 22.75 L-38.7 22.1 Q-40.4 21.6 -41.55 22.55 L-43.35 24.2 -44.7 24.95" fill="url(#gradient4)" fill-rule="evenodd" stroke="none"/>
    <path d="M34.7 -54.65 Q35.5 -58.95 35.0 -63.25 35.1 -65.95 37.45 -64.4 L38.9 -63.35 Q40.4 -62.45 41.75 -63.05 L43.95 -64.2 Q45.95 -65.25 45.8 -63.5 L45.15 -60.85 Q44.9 -59.4 46.2 -58.4 L47.55 -57.5 Q49.8 -55.9 47.45 -54.9 L47.2 -54.8 Q42.7 -53.9 39.25 -51.95 L38.95 -51.75 34.65 -54.25 34.7 -54.65" fill="url(#gradient5)" fill-rule="evenodd" stroke="none"/>
    <path d="M3.9 -66.3 L3.8 -65.25 2.9 -64.0 Q1.85 -62.9 0.3 -62.9 -1.25 -62.9 -2.35 -64.0 -3.4 -65.05 -3.4 -66.6 L-3.5 -66.6 -3.25 -67.7 Q-3.0 -68.55 -2.35 -69.25 -1.25 -70.3 0.3 -70.3 1.85 -70.3 2.9 -69.25 4.0 -68.15 4.0 -66.6 L4.0 -66.3 3.9 -66.3 M-8.35 -63.6 Q-9.4 -62.5 -10.95 -62.5 -12.5 -62.5 -13.6 -63.6 -14.65 -64.65 -14.65 -66.2 -14.65 -67.75 -13.6 -68.85 -12.5 -69.9 -10.95 -69.9 -9.4 -69.9 -8.35 -68.85 -7.25 -67.75 -7.25 -66.2 -7.25 -64.65 -8.35 -63.6 M-12.95 -68.1 L-13.1 -68.1 Q-13.75 -67.95 -13.7 -67.3 -13.65 -66.4 -12.75 -66.55 -12.45 -66.6 -12.35 -66.85 -11.8 -67.85 -12.95 -68.1 M-0.95 -66.6 Q-0.4 -67.6 -1.55 -67.85 L-1.7 -67.85 Q-2.35 -67.7 -2.3 -67.05 -2.25 -66.15 -1.35 -66.3 -1.05 -66.35 -0.95 -66.6" fill="#884400" fill-rule="evenodd" stroke="none"/>
    <path d="M39.25 -51.95 Q42.7 -53.9 47.2 -54.8 L47.45 -54.9 Q49.8 -55.9 47.55 -57.5 L46.2 -58.4 Q44.9 -59.4 45.15 -60.85 L45.8 -63.5 Q45.95 -65.25 43.95 -64.2 L41.75 -63.05 Q40.4 -62.45 38.9 -63.35 L37.45 -64.4 Q35.1 -65.95 35.0 -63.25 35.5 -58.95 34.7 -54.65 L34.65 -54.25 M38.95 -51.75 L39.25 -51.95 40.45 -51.25 Q43.7 -31.45 38.6 -17.45 44.6 -4.4 45.85 10.65 47.5 38.55 21.0 51.8 15.05 62.35 9.5 76.75 9.1 85.85 5.7 93.3 3.8 86.1 4.6 76.2 3.9 64.85 0.6 57.05 -3.05 57.2 -6.55 56.9 L-9.2 56.65 Q-11.3 63.85 -16.9 70.6 -17.15 62.75 -14.6 55.65 L-21.5 53.5 Q-28.7 50.7 -35.0 45.75 -44.7 39.35 -44.7 24.95 M-43.15 12.2 L-43.0 11.65 Q-36.25 -19.8 -24.0 -49.75 -23.85 -63.45 -17.85 -66.45 L-17.95 -77.05 Q-17.35 -89.85 -7.85 -92.75 L-7.15 -93.95 Q-6.35 -94.75 -5.2 -94.75 -4.05 -94.75 -3.25 -93.95 L-2.65 -93.05 Q7.35 -91.75 9.1 -80.9 11.4 -75.2 11.95 -69.15 14.25 -67.55 14.65 -64.6 19.1 -48.35 27.7 -46.15 31.3 -50.55 33.55 -55.35 L34.7 -54.65 M3.45 -69.8 Q4.75 -68.5 4.75 -66.6 L4.75 -66.2 4.5 -65.0 3.45 -63.5 Q2.15 -62.2 0.3 -62.15 -1.55 -62.2 -2.85 -63.5 -4.15 -64.75 -4.1 -66.6 L-3.95 -67.95 -2.85 -69.8 Q-1.55 -71.05 0.3 -71.05 2.15 -71.05 3.45 -69.8 M32.3 -5.95 Q36.2 -10.8 38.6 -17.45 M27.7 -46.15 Q24.25 -41.85 19.5 -37.95 M21.0 51.8 Q16.35 54.1 10.8 55.95 L0.6 57.05 M-7.8 -63.05 Q-9.1 -61.75 -10.95 -61.75 -12.8 -61.75 -14.1 -63.05 -15.4 -64.35 -15.35 -66.2 -15.4 -68.05 -14.1 -69.35 -12.8 -70.65 -10.95 -70.6 -9.1 -70.65 -7.8 -69.35 -6.5 -68.05 -6.5 -66.2 -6.5 -64.35 -7.8 -63.05 M11.95 -69.15 Q9.35 -61.25 -5.1 -59.65 -18.15 -60.35 -17.85 -66.45 M-36.85 13.35 L-36.3 13.5 -23.5 -17.25 M-43.0 11.65 L-42.65 11.75 M-14.6 55.65 L-9.2 56.65" fill="none" stroke="#3366cc" stroke-linecap="round" stroke-linejoin="round" stroke-width="0.05"/>
    <path d="M-44.7 24.95 Q-45.2 24.85 -45.3 24.0 L-45.4 21.3 Q-45.55 19.8 -47.05 19.2 L-48.6 18.7 Q-51.2 17.7 -49.15 16.15 L-48.9 16.0 Q-45.6 14.35 -43.15 12.2 M-44.7 24.95 L-43.35 24.2 -41.55 22.55 Q-40.4 21.6 -38.7 22.1 L-37.05 22.75 Q-34.4 23.65 -34.95 21.0 -36.45 17.3 -36.85 13.35 L-36.95 12.2 M-41.75 10.9 L-42.65 11.75 -43.15 12.2" fill="none" stroke="#3366cc" stroke-linecap="round" stroke-linejoin="round" stroke-width="0.05"/>
  </g>
  <defs>
    <radialGradient cx="0" cy="0" gradientTransform="matrix(0.1263, 0.0, 0.0, 0.1263, 4.0, 34.0)" gradientUnits="userSpaceOnUse" id="gradient0" r="819.2" spreadMethod="pad">
      <stop offset="0.3843137254901961" stop-color="#33ccff"/>
      <stop offset="1.0" stop-color="#3399ff"/>
    </radialGradient>
    <radialGradient cx="0" cy="0" gradientTransform="matrix(0.0293, 0.0, 0.0, 0.0293, -1.0, -69.85)" gradientUnits="userSpaceOnUse" id="gradient1" r="819.2" spreadMethod="pad">
      <stop offset="0.3843137254901961" stop-color="#33ccff"/>
      <stop offset="1.0" stop-color="#3399ff"/>
    </radialGradient>
    <radialGradient cx="0" cy="0" gradientTransform="matrix(0.046, 0.0, 0.0, 0.046, 10.8, 55.95)" gradientUnits="userSpaceOnUse" id="gradient2" r="819.2" spreadMethod="pad">
      <stop offset="0.3843137254901961" stop-color="#33ccff"/>
      <stop offset="1.0" stop-color="#3399ff"/>
    </radialGradient>
    <radialGradient cx="0" cy="0" gradientTransform="matrix(0.0952, 0.0, 0.0, 0.0952, 9.9, 6.4)" gradientUnits="userSpaceOnUse" id="gradient3" r="819.2" spreadMethod="pad">
      <stop offset="0.3843137254901961" stop-color="#33ccff"/>
      <stop offset="1.0" stop-color="#3399ff"/>
    </radialGradient>
    <radialGradient cx="0" cy="0" gradientTransform="matrix(0.0153, 0.0041, -0.0041, 0.0153, -37.15, 18.1)" gradientUnits="userSpaceOnUse" id="gradient4" r="819.2" spreadMethod="pad">
      <stop offset="0.3843137254901961" stop-color="#33ccff"/>
      <stop offset="1.0" stop-color="#3399ff"/>
    </radialGradient>
    <radialGradient cx="0" cy="0" gradientTransform="matrix(-0.0137, -0.0079, 0.0079, -0.0137, 36.35, -59.9)" gradientUnits="userSpaceOnUse" id="gradient5" r="819.2" spreadMethod="pad">
      <stop offset="0.3843137254901961" stop-color="#33ccff"/>
      <stop offset="1.0" stop-color="#3399ff"/>
    </radialGradient>
  </defs>
</svg>
