<?xml version="1.0" encoding="UTF-8" standalone="no"?>
<svg xmlns:xlink="http://www.w3.org/1999/xlink" height="194.25px" width="132.55px" xmlns="http://www.w3.org/2000/svg">
  <g transform="matrix(1.0, 0.0, 0.0, 1.0, 66.25, 97.85)">
    <path d="M3.15 -74.95 L3.8 -73.9 4.0 -73.5 Q4.35 -72.5 4.35 -71.3 4.35 -69.85 3.8 -68.7 L3.65 -68.45 3.15 -67.7 Q2.0 -66.25 0.4 -66.2 L0.25 -66.2 Q-1.45 -66.2 -2.6 -67.7 -3.4 -68.65 -3.65 -69.9 L-3.8 -71.3 Q-3.85 -73.45 -2.6 -74.95 -1.45 -76.5 0.25 -76.45 L0.4 -76.45 Q2.0 -76.4 3.15 -74.95 M13.8 -75.75 Q15.3 -75.8 16.45 -74.35 17.55 -72.95 17.55 -70.9 L17.15 -68.8 16.45 -67.4 Q15.3 -66.0 13.8 -66.0 12.25 -66.0 11.15 -67.4 L10.6 -68.3 Q10.05 -69.45 10.05 -70.9 10.05 -72.95 11.15 -74.35 L12.25 -75.35 Q12.95 -75.8 13.8 -75.75" fill="#ffffff" fill-rule="evenodd" stroke="none"/>
    <path d="M18.6 -69.15 Q21.1 -68.8 23.05 -64.15 25.15 -59.05 26.65 -48.85 39.6 -42.15 52.15 -27.5 L52.15 -26.0 52.0 -25.95 52.0 -21.0 52.15 -20.9 52.15 -19.75 Q48.3 -16.8 41.85 -17.5 46.25 -9.2 48.95 8.7 51.65 26.6 37.4 39.2 31.9 44.05 25.45 48.1 20.85 50.95 15.85 53.45 L12.5 55.05 Q7.25 57.15 1.45 57.35 L-2.35 57.25 Q-8.1 56.8 -14.4 54.6 -20.65 51.95 -26.4 47.85 L-27.75 46.85 Q-32.8 43.05 -37.4 38.15 -53.65 23.4 -47.45 -9.5 -50.45 -10.0 -53.15 -12.3 L-53.15 -13.55 -51.9 -14.0 -51.9 -18.95 -53.15 -19.7 -53.15 -20.7 Q-33.65 -36.55 -24.1 -53.6 L-18.45 -68.35 Q-16.75 -72.7 -15.05 -73.15 L-14.3 -71.5 Q-9.9 -62.8 2.9 -62.15 13.25 -61.65 17.05 -63.7 L18.6 -65.0 18.6 -69.15 M41.85 -17.5 Q38.55 -17.9 34.75 -19.05 38.55 -17.9 41.85 -17.5 M-24.5 -15.25 Q-37.6 -7.95 -47.45 -9.5 -37.6 -7.95 -24.5 -15.25" fill="url(#gradient0)" fill-rule="evenodd" stroke="none"/>
    <path d="M-2.35 57.25 Q-5.85 66.85 -6.1 77.1 -3.65 86.15 -5.6 96.4 -13.25 87.7 -14.95 78.05 -18.3 62.95 -26.4 47.85 -20.65 51.95 -14.4 54.6 -8.1 56.8 -2.35 57.25" fill="url(#gradient1)" fill-rule="evenodd" stroke="none"/>
    <path d="M25.45 48.1 Q15.55 61.35 11.6 77.45 12.45 86.0 10.85 94.0 4.9 85.5 5.3 77.25 5.05 66.6 1.45 57.35 7.25 57.15 12.5 55.05 L15.85 53.45 Q20.85 50.95 25.45 48.1" fill="url(#gradient2)" fill-rule="evenodd" stroke="none"/>
    <path d="M-14.3 -71.5 Q-13.95 -77.15 -11.25 -83.2 -8.4 -95.1 0.8 -96.25 L1.35 -97.05 Q2.15 -97.85 3.3 -97.85 4.45 -97.85 5.25 -97.05 L5.9 -96.1 Q15.15 -94.1 16.55 -80.3 18.15 -75.3 18.55 -70.1 L18.6 -69.15 18.6 -65.0 17.05 -63.7 Q13.25 -61.65 2.9 -62.15 -9.9 -62.8 -14.3 -71.5 M13.8 -75.75 Q12.95 -75.8 12.25 -75.35 L11.15 -74.35 Q10.05 -72.95 10.05 -70.9 10.05 -69.45 10.6 -68.3 L11.15 -67.4 Q12.25 -66.0 13.8 -66.0 15.3 -66.0 16.45 -67.4 L17.15 -68.8 17.55 -70.9 Q17.55 -72.95 16.45 -74.35 15.3 -75.8 13.8 -75.75 M3.15 -74.95 Q2.0 -76.4 0.4 -76.45 L0.25 -76.45 Q-1.45 -76.5 -2.6 -74.95 -3.85 -73.45 -3.8 -71.3 L-3.65 -69.9 Q-3.4 -68.65 -2.6 -67.7 -1.45 -66.2 0.25 -66.2 L0.4 -66.2 Q2.0 -66.25 3.15 -67.7 L3.65 -68.45 3.8 -68.7 Q4.35 -69.85 4.35 -71.3 4.35 -72.5 4.0 -73.5 L3.8 -73.9 3.15 -74.95" fill="url(#gradient3)" fill-rule="evenodd" stroke="none"/>
    <path d="M-53.15 -13.55 Q-56.75 -12.15 -59.9 -9.8 -62.3 -8.6 -62.1 -11.4 L-61.95 -13.1 Q-61.9 -14.9 -63.1 -15.75 L-65.2 -17.1 Q-67.1 -18.35 -65.5 -19.05 L-62.9 -19.85 Q-61.5 -20.35 -61.3 -21.95 L-61.2 -23.6 Q-60.95 -26.35 -58.9 -24.8 L-58.7 -24.6 Q-56.05 -21.6 -53.15 -19.7 L-51.9 -18.95 -51.9 -14.0 -53.15 -13.55" fill="url(#gradient4)" fill-rule="evenodd" stroke="none"/>
    <path d="M52.15 -26.0 Q56.35 -27.5 60.0 -30.15 62.35 -31.4 62.2 -28.6 L62.0 -26.85 Q61.95 -25.1 63.15 -24.2 L65.25 -22.9 Q67.15 -21.65 65.55 -20.95 L62.95 -20.15 Q61.55 -19.65 61.35 -18.0 L61.25 -16.4 Q61.0 -13.65 59.0 -15.2 L58.75 -15.4 Q55.65 -18.9 52.15 -20.9 L52.0 -21.0 52.0 -25.95 52.15 -26.0" fill="url(#gradient5)" fill-rule="evenodd" stroke="none"/>
    <path d="M-14.3 -71.5 Q-13.95 -77.15 -11.25 -83.2 -8.4 -95.1 0.8 -96.25 L1.35 -97.05 Q2.15 -97.85 3.3 -97.85 4.45 -97.85 5.25 -97.05 L5.9 -96.1 Q15.15 -94.1 16.55 -80.3 18.15 -75.3 18.55 -70.1 L18.6 -69.15 Q21.1 -68.8 23.05 -64.15 25.15 -59.05 26.65 -48.85 39.6 -42.15 52.15 -27.5 L52.15 -26.0 Q56.35 -27.5 60.0 -30.15 62.35 -31.4 62.2 -28.6 L62.0 -26.85 Q61.95 -25.1 63.15 -24.2 L65.25 -22.9 Q67.15 -21.65 65.55 -20.95 L62.95 -20.15 Q61.55 -19.65 61.35 -18.0 L61.25 -16.4 Q61.0 -13.65 59.0 -15.2 L58.75 -15.4 Q55.65 -18.9 52.15 -20.9 L52.15 -19.75 Q48.3 -16.8 41.85 -17.5 46.25 -9.2 48.95 8.7 51.65 26.6 37.4 39.2 31.9 44.05 25.45 48.1 15.55 61.35 11.6 77.45 12.45 86.0 10.85 94.0 4.9 85.5 5.3 77.25 5.05 66.6 1.45 57.35 L-2.35 57.25 Q-5.85 66.85 -6.1 77.1 -3.65 86.15 -5.6 96.4 -13.25 87.7 -14.95 78.05 -18.3 62.95 -26.4 47.85 L-27.75 46.85 Q-32.8 43.05 -37.4 38.15 -53.65 23.4 -47.45 -9.5 -50.45 -10.0 -53.15 -12.3 L-53.15 -13.55 M-53.15 -19.7 L-53.15 -20.7 Q-33.65 -36.55 -24.1 -53.6 L-18.45 -68.35 Q-16.75 -72.7 -15.05 -73.15 L-14.3 -71.5 Q-9.9 -62.8 2.9 -62.15 13.25 -61.65 17.05 -63.7 L18.6 -65.0 18.6 -69.15 M3.15 -74.95 L3.8 -73.9 4.0 -73.5 Q4.35 -72.5 4.35 -71.3 4.35 -69.85 3.8 -68.7 L3.65 -68.45 3.15 -67.7 Q2.0 -66.25 0.4 -66.2 L0.25 -66.2 Q-1.45 -66.2 -2.6 -67.7 -3.4 -68.65 -3.65 -69.9 L-3.8 -71.3 Q-3.85 -73.45 -2.6 -74.95 -1.45 -76.5 0.25 -76.45 L0.4 -76.45 Q2.0 -76.4 3.15 -74.95 M13.8 -75.75 Q15.3 -75.8 16.45 -74.35 17.55 -72.95 17.55 -70.9 L17.15 -68.8 16.45 -67.4 Q15.3 -66.0 13.8 -66.0 12.25 -66.0 11.15 -67.4 L10.6 -68.3 Q10.05 -69.45 10.05 -70.9 10.05 -72.95 11.15 -74.35 L12.25 -75.35 Q12.95 -75.8 13.8 -75.75 M52.15 -26.0 L52.0 -25.95 M52.0 -21.0 L52.15 -20.9 M34.75 -19.05 Q38.55 -17.9 41.85 -17.5 M-47.45 -9.5 Q-37.6 -7.95 -24.5 -15.25 M-26.4 47.85 Q-20.65 51.95 -14.4 54.6 -8.1 56.8 -2.35 57.25 M25.45 48.1 Q20.85 50.95 15.85 53.45 L12.5 55.05 Q7.25 57.15 1.45 57.35" fill="none" stroke="#3366cc" stroke-linecap="round" stroke-linejoin="round" stroke-width="0.05"/>
    <path d="M-53.15 -13.55 Q-56.75 -12.15 -59.9 -9.8 -62.3 -8.6 -62.1 -11.4 L-61.95 -13.1 Q-61.9 -14.9 -63.1 -15.75 L-65.2 -17.1 Q-67.1 -18.35 -65.5 -19.05 L-62.9 -19.85 Q-61.5 -20.35 -61.3 -21.95 L-61.2 -23.6 Q-60.95 -26.35 -58.9 -24.8 L-58.7 -24.6 Q-56.05 -21.6 -53.15 -19.7 M-53.15 -13.55 L-51.9 -14.0 M-51.9 -18.95 L-53.15 -19.7" fill="none" stroke="#3366cc" stroke-linecap="round" stroke-linejoin="round" stroke-width="0.05"/>
    <path d="M12.45 -71.3 L12.05 -71.0 Q11.15 -70.85 11.1 -71.75 11.05 -72.4 11.75 -72.55 L11.85 -72.55 Q13.0 -72.3 12.45 -71.3 M-1.1 -71.7 Q-1.2 -71.45 -1.5 -71.4 -2.4 -71.25 -2.45 -72.15 -2.5 -72.8 -1.8 -72.95 L-1.7 -73.0 Q-0.55 -72.7 -1.1 -71.7" fill="#ffffff" fill-rule="evenodd" stroke="none"/>
    <path d="M17.25 -71.0 Q17.25 -69.35 16.25 -68.2 15.2 -67.05 13.75 -67.05 12.3 -67.05 11.25 -68.2 10.25 -69.35 10.25 -71.0 10.25 -72.65 11.25 -73.8 12.3 -74.95 13.75 -74.95 15.2 -74.95 16.25 -73.8 17.25 -72.65 17.25 -71.0 M12.45 -71.3 Q13.0 -72.3 11.85 -72.55 L11.75 -72.55 Q11.05 -72.4 11.1 -71.75 11.15 -70.85 12.05 -71.0 L12.45 -71.3 M2.7 -68.6 Q1.65 -67.45 0.2 -67.45 -1.25 -67.45 -2.3 -68.6 -3.3 -69.75 -3.3 -71.4 -3.3 -73.05 -2.3 -74.2 -1.25 -75.35 0.2 -75.35 1.65 -75.35 2.7 -74.2 3.7 -73.05 3.7 -71.4 3.7 -69.75 2.7 -68.6 M-1.1 -71.7 Q-0.55 -72.7 -1.7 -73.0 L-1.8 -72.95 Q-2.5 -72.8 -2.45 -72.15 -2.4 -71.25 -1.5 -71.4 -1.2 -71.45 -1.1 -71.7" fill="#884400" fill-rule="evenodd" stroke="none"/>
  </g>
  <defs>
    <radialGradient cx="0" cy="0" gradientTransform="matrix(0.1111, 0.0, 0.0, 0.1111, 24.15, 8.15)" gradientUnits="userSpaceOnUse" id="gradient0" r="819.2" spreadMethod="pad">
      <stop offset="0.3843137254901961" stop-color="#33ccff"/>
      <stop offset="1.0" stop-color="#3399ff"/>
    </radialGradient>
    <radialGradient cx="0" cy="0" gradientTransform="matrix(0.0422, 0.0, 0.0, 0.0422, -10.45, 62.45)" gradientUnits="userSpaceOnUse" id="gradient1" r="819.2" spreadMethod="pad">
      <stop offset="0.3843137254901961" stop-color="#33ccff"/>
      <stop offset="1.0" stop-color="#3399ff"/>
    </radialGradient>
    <radialGradient cx="0" cy="0" gradientTransform="matrix(0.0464, 0.0, 0.0, 0.0464, 9.85, 55.95)" gradientUnits="userSpaceOnUse" id="gradient2" r="819.2" spreadMethod="pad">
      <stop offset="0.3843137254901961" stop-color="#33ccff"/>
      <stop offset="1.0" stop-color="#3399ff"/>
    </radialGradient>
    <radialGradient cx="0" cy="0" gradientTransform="matrix(0.0271, 0.0, 0.0, 0.0271, 4.85, -80.8)" gradientUnits="userSpaceOnUse" id="gradient3" r="819.2" spreadMethod="pad">
      <stop offset="0.3843137254901961" stop-color="#33ccff"/>
      <stop offset="1.0" stop-color="#3399ff"/>
    </radialGradient>
    <radialGradient cx="0" cy="0" gradientTransform="matrix(0.0, 0.0158, -0.0158, 0.0, -57.7, -12.7)" gradientUnits="userSpaceOnUse" id="gradient4" r="819.2" spreadMethod="pad">
      <stop offset="0.3843137254901961" stop-color="#33ccff"/>
      <stop offset="1.0" stop-color="#3399ff"/>
    </radialGradient>
    <radialGradient cx="0" cy="0" gradientTransform="matrix(0.0, -0.0158, 0.0158, 0.0, 57.75, -27.3)" gradientUnits="userSpaceOnUse" id="gradient5" r="819.2" spreadMethod="pad">
      <stop offset="0.3843137254901961" stop-color="#33ccff"/>
      <stop offset="1.0" stop-color="#3399ff"/>
    </radialGradient>
  </defs>
</svg>
