<?xml version="1.0" encoding="UTF-8" standalone="no"?>
<svg xmlns:xlink="http://www.w3.org/1999/xlink" height="192.05px" width="96.45px" xmlns="http://www.w3.org/2000/svg">
  <g transform="matrix(1.0, 0.0, 0.0, 1.0, 48.2, 96.75)">
    <path d="M19.35 -75.15 L19.45 -74.6 19.0 -74.65 Q17.95 -74.65 17.2 -73.55 16.5 -72.4 16.5 -70.85 16.5 -69.3 17.2 -68.2 17.95 -67.05 19.0 -67.05 19.75 -67.05 20.3 -67.6 L20.4 -66.8 20.3 -67.6 20.4 -67.7 20.4 -67.15 20.4 -66.8 Q19.7 -65.85 18.8 -65.85 17.7 -65.85 16.9 -67.25 16.15 -68.6 16.15 -70.55 16.15 -72.5 16.9 -73.9 17.7 -75.25 18.8 -75.25 L19.35 -75.15 M20.4 -68.2 L20.4 -67.15 20.4 -67.7 20.4 -68.2 M12.7 -74.65 Q13.6 -73.1 13.6 -70.95 13.6 -68.85 12.7 -67.35 11.9 -65.8 10.7 -65.8 9.45 -65.8 8.6 -67.35 7.75 -68.85 7.75 -70.95 7.75 -73.1 8.6 -74.65 9.45 -76.15 10.7 -76.15 11.9 -76.15 12.7 -74.65 M18.75 -71.2 L18.35 -70.9 Q17.45 -70.75 17.4 -71.65 17.35 -72.3 18.0 -72.45 L18.15 -72.45 Q19.3 -72.15 18.75 -71.2 M13.15 -70.95 Q13.15 -72.5 12.4 -73.65 11.7 -74.75 10.65 -74.75 9.6 -74.75 8.85 -73.65 8.15 -72.5 8.15 -70.95 8.15 -69.4 8.85 -68.3 9.6 -67.15 10.65 -67.15 11.7 -67.15 12.4 -68.3 13.15 -69.4 13.15 -70.95 M9.65 -71.4 Q8.75 -71.25 8.7 -72.15 8.65 -72.8 9.35 -72.95 L9.45 -73.0 Q10.6 -72.7 10.05 -71.7 L9.65 -71.4" fill="#ffffff" fill-rule="evenodd" stroke="none"/>
    <path d="M20.55 -65.35 Q25.65 -62.6 25.6 -54.85 25.55 -47.15 33.65 -31.45 41.75 -15.8 46.5 -0.4 52.75 26.35 36.8 43.7 26.75 54.65 14.5 59.45 8.6 61.75 2.2 62.6 -11.65 63.7 -23.6 53.4 -32.55 45.75 -40.45 31.8 -60.4 -14.55 -29.15 -51.6 -22.2 -59.9 -18.4 -69.45 -16.85 -74.85 -13.75 -76.1 -8.3 -67.3 15.9 -61.5 21.95 -60.85 20.55 -65.35 M-30.1 -16.45 L-31.5 -16.45 Q-34.95 -16.65 -38.75 -17.9 L-39.05 -17.95 Q-41.6 -18.35 -40.45 -15.8 L-39.7 -14.35 Q-39.1 -12.8 -40.05 -11.7 L-41.9 -9.7 Q-42.95 -8.3 -40.65 -8.15 L-38.15 -8.05 Q-36.7 -7.95 -35.85 -6.35 L-35.15 -4.75 Q-33.9 -2.25 -32.45 -4.5 -30.95 -8.0 -28.6 -10.95 L-27.6 -12.15 -30.1 -16.45 M2.2 -20.85 Q3.35 -6.7 -28.65 -9.65 L-28.6 -10.95 -28.65 -9.65 Q3.35 -6.7 2.2 -20.85 M-19.95 -40.75 Q-26.85 -37.15 -31.95 -16.8 L-31.5 -16.45 -31.95 -16.8 Q-26.85 -37.15 -19.95 -40.75" fill="url(#gradient0)" fill-rule="evenodd" stroke="none"/>
    <path d="M1.7 -95.2 L2.25 -95.95 Q3.05 -96.75 4.2 -96.75 5.35 -96.75 6.15 -95.95 L6.8 -94.9 Q15.85 -92.45 19.35 -75.15 L18.8 -75.25 Q17.7 -75.25 16.9 -73.9 16.15 -72.5 16.15 -70.55 16.15 -68.6 16.9 -67.25 17.7 -65.85 18.8 -65.85 19.7 -65.85 20.4 -66.8 L20.55 -65.35 Q21.95 -60.85 15.9 -61.5 -8.3 -67.3 -13.75 -76.1 -12.0 -93.6 1.7 -95.2 M12.7 -74.65 Q11.9 -76.15 10.7 -76.15 9.45 -76.15 8.6 -74.65 7.75 -73.1 7.75 -70.95 7.75 -68.85 8.6 -67.35 9.45 -65.8 10.7 -65.8 11.9 -65.8 12.7 -67.35 13.6 -68.85 13.6 -70.95 13.6 -73.1 12.7 -74.65" fill="url(#gradient1)" fill-rule="evenodd" stroke="none"/>
    <path d="M-2.05 67.35 Q-5.1 72.55 -6.5 81.85 -1.85 88.6 -1.25 95.3 -10.7 90.6 -14.8 82.55 -16.75 65.35 -23.6 53.4 -11.65 63.7 2.2 62.6 -0.25 64.2 -2.05 67.35" fill="url(#gradient2)" fill-rule="evenodd" stroke="none"/>
    <path d="M14.5 59.45 Q9.65 66.65 8.55 80.1 15.75 84.6 18.95 92.15 8.7 89.95 2.15 85.0 1.25 75.35 -2.05 67.35 -0.25 64.2 2.2 62.6 8.6 61.75 14.5 59.45" fill="url(#gradient3)" fill-rule="evenodd" stroke="none"/>
    <path d="M-27.6 -12.15 L-28.6 -10.95 Q-30.95 -8.0 -32.45 -4.5 -33.9 -2.25 -35.15 -4.75 L-35.85 -6.35 Q-36.7 -7.95 -38.15 -8.05 L-40.65 -8.15 Q-42.95 -8.3 -41.9 -9.7 L-40.05 -11.7 Q-39.1 -12.8 -39.7 -14.35 L-40.45 -15.8 Q-41.6 -18.35 -39.05 -17.95 L-38.75 -17.9 Q-34.95 -16.65 -31.5 -16.45 L-30.1 -16.45 -27.6 -12.15" fill="url(#gradient4)" fill-rule="evenodd" stroke="none"/>
    <path d="M19.45 -74.6 Q20.15 -72.35 20.35 -68.7 L20.4 -68.2 20.4 -67.7 20.3 -67.6 Q19.75 -67.05 19.0 -67.05 17.95 -67.05 17.2 -68.2 16.5 -69.3 16.5 -70.85 16.5 -72.4 17.2 -73.55 17.95 -74.65 19.0 -74.65 L19.45 -74.6 M18.75 -71.2 Q19.3 -72.15 18.15 -72.45 L18.0 -72.45 Q17.35 -72.3 17.4 -71.65 17.45 -70.75 18.35 -70.9 L18.75 -71.2 M13.15 -70.95 Q13.15 -69.4 12.4 -68.3 11.7 -67.15 10.65 -67.15 9.6 -67.15 8.85 -68.3 8.15 -69.4 8.15 -70.95 8.15 -72.5 8.85 -73.65 9.6 -74.75 10.65 -74.75 11.7 -74.75 12.4 -73.65 13.15 -72.5 13.15 -70.95 M9.65 -71.4 L10.05 -71.7 Q10.6 -72.7 9.45 -73.0 L9.35 -72.95 Q8.65 -72.8 8.7 -72.15 8.75 -71.25 9.65 -71.4" fill="#884400" fill-rule="evenodd" stroke="none"/>
    <path d="M6.8 -94.9 Q15.85 -92.45 19.35 -75.15 L18.8 -75.25 Q17.7 -75.25 16.9 -73.9 16.15 -72.5 16.15 -70.55 16.15 -68.6 16.9 -67.25 17.7 -65.85 18.8 -65.85 19.7 -65.85 20.4 -66.8 L20.55 -65.35 Q25.65 -62.6 25.6 -54.85 25.55 -47.15 33.65 -31.45 41.75 -15.8 46.5 -0.4 52.75 26.35 36.8 43.7 26.75 54.65 14.5 59.45 9.65 66.65 8.55 80.1 15.75 84.6 18.95 92.15 8.7 89.95 2.15 85.0 1.25 75.35 -2.05 67.35 -5.1 72.55 -6.5 81.85 -1.85 88.6 -1.25 95.3 -10.7 90.6 -14.8 82.55 -16.75 65.35 -23.6 53.4 -32.55 45.75 -40.45 31.8 -60.4 -14.55 -29.15 -51.6 -22.2 -59.9 -18.4 -69.45 -16.85 -74.85 -13.75 -76.1 -12.0 -93.6 1.7 -95.2 M20.55 -65.35 Q21.95 -60.85 15.9 -61.5 -8.3 -67.3 -13.75 -76.1 M14.5 59.45 Q8.6 61.75 2.2 62.6 -0.25 64.2 -2.05 67.35 M-30.1 -16.45 L-31.5 -16.45 Q-34.95 -16.65 -38.75 -17.9 L-39.05 -17.95 Q-41.6 -18.35 -40.45 -15.8 L-39.7 -14.35 Q-39.1 -12.8 -40.05 -11.7 L-41.9 -9.7 Q-42.95 -8.3 -40.65 -8.15 L-38.15 -8.05 Q-36.7 -7.95 -35.85 -6.35 L-35.15 -4.75 Q-33.9 -2.25 -32.45 -4.5 -30.95 -8.0 -28.6 -10.95 L-27.6 -12.15 M-31.5 -16.45 L-31.95 -16.8 Q-26.85 -37.15 -19.95 -40.75 M-28.6 -10.95 L-28.65 -9.65 Q3.35 -6.7 2.2 -20.85 M2.2 62.6 Q-11.65 63.7 -23.6 53.4" fill="none" stroke="#3366cc" stroke-linecap="round" stroke-linejoin="round" stroke-width="0.05"/>
    <path d="M19.35 -75.15 L19.45 -74.6 Q20.15 -72.35 20.35 -68.7 L20.4 -68.2 20.4 -67.7 20.4 -67.15 20.4 -66.8" fill="none" stroke="#cccccc" stroke-linecap="round" stroke-linejoin="round" stroke-width="0.05"/>
    <path d="M1.7 -95.2 L2.25 -95.95 Q3.05 -96.75 4.2 -96.75 5.35 -96.75 6.15 -95.95 L6.8 -94.9 M12.7 -74.65 Q13.6 -73.1 13.6 -70.95 13.6 -68.85 12.7 -67.35 11.9 -65.8 10.7 -65.8 9.45 -65.8 8.6 -67.35 7.75 -68.85 7.75 -70.95 7.75 -73.1 8.6 -74.65 9.45 -76.15 10.7 -76.15 11.9 -76.15 12.7 -74.65" fill="none" stroke="#3366cc" stroke-linecap="round" stroke-linejoin="round" stroke-width="0.05"/>
  </g>
  <defs>
    <radialGradient cx="0" cy="0" gradientTransform="matrix(0.0944, 0.0, 0.0, 0.0944, 21.0, -9.0)" gradientUnits="userSpaceOnUse" id="gradient0" r="819.2" spreadMethod="pad">
      <stop offset="0.3843137254901961" stop-color="#33ccff"/>
      <stop offset="1.0" stop-color="#3399ff"/>
    </radialGradient>
    <radialGradient cx="0" cy="0" gradientTransform="matrix(0.0293, 0.0, 0.0, 0.0293, 9.6, -75.6)" gradientUnits="userSpaceOnUse" id="gradient1" r="819.2" spreadMethod="pad">
      <stop offset="0.3843137254901961" stop-color="#33ccff"/>
      <stop offset="1.0" stop-color="#3399ff"/>
    </radialGradient>
    <radialGradient cx="0" cy="0" gradientTransform="matrix(0.0319, 0.0, 0.0, 0.0319, -3.35, 69.95)" gradientUnits="userSpaceOnUse" id="gradient2" r="819.2" spreadMethod="pad">
      <stop offset="0.3843137254901961" stop-color="#33ccff"/>
      <stop offset="1.0" stop-color="#3399ff"/>
    </radialGradient>
    <radialGradient cx="0" cy="0" gradientTransform="matrix(0.0362, 0.0, 0.0, 0.0362, 4.4, 66.9)" gradientUnits="userSpaceOnUse" id="gradient3" r="819.2" spreadMethod="pad">
      <stop offset="0.3843137254901961" stop-color="#33ccff"/>
      <stop offset="1.0" stop-color="#3399ff"/>
    </radialGradient>
    <radialGradient cx="0" cy="0" gradientTransform="matrix(0.0079, 0.0137, -0.0137, 0.0079, -31.95, -8.1)" gradientUnits="userSpaceOnUse" id="gradient4" r="819.2" spreadMethod="pad">
      <stop offset="0.3843137254901961" stop-color="#33ccff"/>
      <stop offset="1.0" stop-color="#3399ff"/>
    </radialGradient>
  </defs>
</svg>
