<?xml version="1.0" encoding="UTF-8" standalone="no"?>
<svg xmlns:xlink="http://www.w3.org/1999/xlink" height="190.15px" width="96.3px" xmlns="http://www.w3.org/2000/svg">
  <g transform="matrix(1.0, 0.0, 0.0, 1.0, 48.15, 95.95)">
    <path d="M16.3 -69.0 Q16.3 -70.45 15.65 -71.5 15.0 -72.5 14.05 -72.5 13.1 -72.5 12.45 -71.5 11.8 -70.45 11.8 -69.0 11.8 -67.55 12.45 -66.55 13.1 -65.5 14.05 -65.5 15.0 -65.5 15.65 -66.55 16.3 -67.55 16.3 -69.0 M16.6 -68.95 Q16.6 -66.95 15.85 -65.6 15.1 -64.15 14.05 -64.15 13.0 -64.15 12.25 -65.6 11.55 -66.95 11.55 -68.95 11.55 -70.95 12.25 -72.35 13.0 -73.7 14.05 -73.7 15.1 -73.7 15.85 -72.35 16.6 -70.95 16.6 -68.95 M13.3 -70.95 Q14.45 -70.7 13.9 -69.7 13.8 -69.45 13.5 -69.4 12.6 -69.25 12.55 -70.15 12.5 -70.8 13.2 -70.95 L13.3 -70.95" fill="#ffffff" fill-rule="evenodd" stroke="none"/>
    <path d="M19.05 -58.75 L20.15 -58.35 Q25.8 -56.1 26.6 -49.85 28.35 -34.4 34.8 -21.25 45.2 -3.6 47.85 16.35 50.5 36.25 27.75 53.35 21.8 57.9 12.15 60.5 7.45 61.7 2.05 61.95 L-7.25 61.55 Q-15.35 60.2 -22.0 55.55 -28.65 50.95 -33.85 43.15 -49.35 22.0 -48.05 -9.05 -47.55 -31.4 -24.5 -54.55 -21.65 -58.25 -20.4 -62.6 -19.35 -69.1 -16.2 -73.5 L-14.3 -72.5 Q2.3 -63.75 18.9 -58.8 L19.05 -58.75 M-12.7 -11.1 L-17.75 -10.6 -23.15 -10.95 -23.55 -10.95 Q-26.55 -10.85 -24.65 -8.1 L-23.5 -6.55 Q-22.45 -4.95 -23.3 -3.4 L-25.05 -0.7 Q-25.95 1.2 -23.25 0.85 L-20.35 0.4 Q-18.6 0.25 -17.25 1.9 L-16.1 3.6 Q-14.1 6.3 -12.9 3.35 -12.0 -0.55 -10.3 -4.05 L-8.9 -6.65 -12.7 -11.1 M-8.0 -41.65 Q-20.05 -36.8 -17.75 -10.6 -20.05 -36.8 -8.0 -41.65 M-10.3 -4.05 Q12.5 -2.5 12.65 -15.3 12.5 -2.5 -10.3 -4.05" fill="url(#gradient0)" fill-rule="evenodd" stroke="none"/>
    <path d="M-2.2 87.6 Q4.65 90.7 7.15 94.1 -4.25 94.85 -12.9 89.4 -16.4 69.25 -22.0 55.55 -15.35 60.2 -7.25 61.55 L2.05 61.95 Q-4.0 72.55 -5.85 86.25 L-2.75 87.4 -2.2 87.6" fill="url(#gradient1)" fill-rule="evenodd" stroke="none"/>
    <path d="M12.15 60.5 Q7.0 65.95 2.55 79.55 8.35 84.55 15.4 87.8 6.8 89.35 -2.2 87.6 L-2.75 87.4 -5.85 86.25 Q-4.0 72.55 2.05 61.95 7.45 61.7 12.15 60.5" fill="url(#gradient2)" fill-rule="evenodd" stroke="none"/>
    <path d="M-14.3 -72.5 Q-14.75 -90.9 -3.15 -93.95 L-1.05 -94.1 -0.4 -95.15 Q0.4 -95.95 1.55 -95.95 2.7 -95.95 3.5 -95.15 4.15 -94.5 4.3 -93.6 12.15 -91.65 15.6 -81.95 17.0 -74.75 18.65 -70.05 20.9 -62.4 19.05 -58.75 L18.9 -58.8 Q2.3 -63.75 -14.3 -72.5 M16.6 -68.95 Q16.6 -70.95 15.85 -72.35 15.1 -73.7 14.05 -73.7 13.0 -73.7 12.25 -72.35 11.55 -70.95 11.55 -68.95 11.55 -66.95 12.25 -65.6 13.0 -64.15 14.05 -64.15 15.1 -64.15 15.85 -65.6 16.6 -66.95 16.6 -68.95" fill="url(#gradient3)" fill-rule="evenodd" stroke="none"/>
    <path d="M-8.9 -6.65 L-10.3 -4.05 Q-12.0 -0.55 -12.9 3.35 -14.1 6.3 -16.1 3.6 L-17.25 1.9 Q-18.6 0.25 -20.35 0.4 L-23.25 0.85 Q-25.95 1.2 -25.05 -0.7 L-23.3 -3.4 Q-22.45 -4.95 -23.5 -6.55 L-24.65 -8.1 Q-26.55 -10.85 -23.55 -10.95 L-23.15 -10.95 -17.75 -10.6 -12.7 -11.1 -8.9 -6.65" fill="url(#gradient4)" fill-rule="evenodd" stroke="none"/>
    <path d="M16.3 -69.0 Q16.3 -67.55 15.65 -66.55 15.0 -65.5 14.05 -65.5 13.1 -65.5 12.45 -66.55 11.8 -67.55 11.8 -69.0 11.8 -70.45 12.45 -71.5 13.1 -72.5 14.05 -72.5 15.0 -72.5 15.65 -71.5 16.3 -70.45 16.3 -69.0 M13.3 -70.95 L13.2 -70.95 Q12.5 -70.8 12.55 -70.15 12.6 -69.25 13.5 -69.4 13.8 -69.45 13.9 -69.7 14.45 -70.7 13.3 -70.95" fill="#884400" fill-rule="evenodd" stroke="none"/>
    <path d="M-14.3 -72.5 Q-14.75 -90.9 -3.15 -93.95 L-1.05 -94.1 -0.4 -95.15 Q0.4 -95.95 1.55 -95.95 2.7 -95.95 3.5 -95.15 4.15 -94.5 4.3 -93.6 12.15 -91.65 15.6 -81.95 17.0 -74.75 18.65 -70.05 20.9 -62.4 19.05 -58.75 L20.15 -58.35 Q25.8 -56.1 26.6 -49.85 28.35 -34.4 34.8 -21.25 45.2 -3.6 47.85 16.35 50.5 36.25 27.75 53.35 21.8 57.9 12.15 60.5 7.0 65.95 2.55 79.55 8.35 84.55 15.4 87.8 6.8 89.35 -2.2 87.6 4.65 90.7 7.15 94.1 -4.25 94.85 -12.9 89.4 -16.4 69.25 -22.0 55.55 -28.65 50.95 -33.85 43.15 -49.35 22.0 -48.05 -9.05 -47.55 -31.4 -24.5 -54.55 -21.65 -58.25 -20.4 -62.6 -19.35 -69.1 -16.2 -73.5 L-14.3 -72.5 Q2.3 -63.75 18.9 -58.8 L19.05 -58.75 M16.6 -68.95 Q16.6 -66.95 15.85 -65.6 15.1 -64.15 14.05 -64.15 13.0 -64.15 12.25 -65.6 11.55 -66.95 11.55 -68.95 11.55 -70.95 12.25 -72.35 13.0 -73.7 14.05 -73.7 15.1 -73.7 15.85 -72.35 16.6 -70.95 16.6 -68.95 M-12.7 -11.1 L-17.75 -10.6 -23.15 -10.95 -23.55 -10.95 Q-26.55 -10.85 -24.65 -8.1 L-23.5 -6.55 Q-22.45 -4.95 -23.3 -3.4 L-25.05 -0.7 Q-25.95 1.2 -23.25 0.85 L-20.35 0.4 Q-18.6 0.25 -17.25 1.9 L-16.1 3.6 Q-14.1 6.3 -12.9 3.35 -12.0 -0.55 -10.3 -4.05 L-8.9 -6.65 M-17.75 -10.6 Q-20.05 -36.8 -8.0 -41.65 M-2.2 87.6 L-2.75 87.4 -5.85 86.25 Q-4.0 72.55 2.05 61.95 L-7.25 61.55 Q-15.35 60.2 -22.0 55.55 M2.05 61.95 Q7.45 61.7 12.15 60.5 M12.65 -15.3 Q12.5 -2.5 -10.3 -4.05" fill="none" stroke="#3366cc" stroke-linecap="round" stroke-linejoin="round" stroke-width="0.05"/>
  </g>
  <defs>
    <radialGradient cx="0" cy="0" gradientTransform="matrix(0.1187, 0.0, 0.0, 0.1187, -3.0, 22.85)" gradientUnits="userSpaceOnUse" id="gradient0" r="819.2" spreadMethod="pad">
      <stop offset="0.3843137254901961" stop-color="#33ccff"/>
      <stop offset="1.0" stop-color="#3399ff"/>
    </radialGradient>
    <radialGradient cx="0" cy="0" gradientTransform="matrix(0.0424, 0.0, 0.0, 0.0424, -5.85, 86.25)" gradientUnits="userSpaceOnUse" id="gradient1" r="819.2" spreadMethod="pad">
      <stop offset="0.3843137254901961" stop-color="#33ccff"/>
      <stop offset="1.0" stop-color="#3399ff"/>
    </radialGradient>
    <radialGradient cx="0" cy="0" gradientTransform="matrix(0.0271, 0.0, 0.0, 0.0271, 2.55, 79.55)" gradientUnits="userSpaceOnUse" id="gradient2" r="819.2" spreadMethod="pad">
      <stop offset="0.3843137254901961" stop-color="#33ccff"/>
      <stop offset="1.0" stop-color="#3399ff"/>
    </radialGradient>
    <radialGradient cx="0" cy="0" gradientTransform="matrix(0.0307, 0.0, 0.0, 0.0307, 0.0, -72.5)" gradientUnits="userSpaceOnUse" id="gradient3" r="819.2" spreadMethod="pad">
      <stop offset="0.3843137254901961" stop-color="#33ccff"/>
      <stop offset="1.0" stop-color="#3399ff"/>
    </radialGradient>
    <radialGradient cx="0" cy="0" gradientTransform="matrix(0.0122, 0.0143, -0.0143, 0.0122, -13.1, -1.0)" gradientUnits="userSpaceOnUse" id="gradient4" r="819.2" spreadMethod="pad">
      <stop offset="0.3843137254901961" stop-color="#33ccff"/>
      <stop offset="1.0" stop-color="#3399ff"/>
    </radialGradient>
  </defs>
</svg>
