<?xml version="1.0" encoding="UTF-8" standalone="no"?>
<svg xmlns:xlink="http://www.w3.org/1999/xlink" height="188.15px" width="92.1px" xmlns="http://www.w3.org/2000/svg">
  <g transform="matrix(1.0, 0.0, 0.0, 1.0, 46.05, 94.75)">
    <path d="M18.5 -61.95 L20.4 -61.25 Q24.9 -58.0 24.9 -51.25 26.95 -40.85 29.05 -33.5 31.65 -24.45 34.4 -20.1 46.15 -3.45 45.85 15.95 47.95 35.75 29.1 51.9 24.3 55.75 18.45 58.1 L16.15 58.95 15.55 59.15 10.15 60.5 Q2.95 61.95 -4.55 60.6 -12.0 59.55 -20.05 54.8 -31.4 48.0 -39.05 31.35 -50.0 7.9 -43.85 -20.7 -41.85 -37.6 -26.35 -48.95 L-24.05 -50.55 -23.7 -50.9 Q-20.05 -54.85 -18.75 -64.4 -17.75 -72.05 -14.6 -71.2 3.7 -67.4 18.5 -61.95 M7.4 -34.95 Q-0.5 -25.5 22.4 -7.9 L29.05 -11.4 Q31.1 -21.7 29.05 -33.5 31.1 -21.7 29.05 -11.4 L22.4 -7.9 Q-0.5 -25.5 7.4 -34.95" fill="url(#gradient0)" fill-rule="evenodd" stroke="none"/>
    <path d="M-14.6 -71.2 Q-14.65 -86.5 -5.7 -92.05 -3.35 -92.9 -1.25 -93.2 L-0.7 -93.95 Q0.1 -94.75 1.25 -94.75 2.4 -94.75 3.2 -93.95 L3.85 -92.95 Q9.6 -91.55 13.45 -84.55 19.25 -72.4 18.5 -61.95 3.7 -67.4 -14.6 -71.2" fill="url(#gradient1)" fill-rule="evenodd" stroke="none"/>
    <path d="M16.15 58.95 Q3.15 68.05 -1.45 86.2 L0.25 87.0 3.65 88.45 4.4 88.75 7.4 89.75 13.6 91.25 Q8.5 93.55 1.35 93.4 L-9.95 92.35 -9.85 89.65 Q-9.5 75.05 -16.55 59.85 -18.15 57.25 -20.05 54.8 -12.0 59.55 -4.55 60.6 2.95 61.95 10.15 60.5 L15.55 59.15 16.15 58.95" fill="url(#gradient2)" fill-rule="evenodd" stroke="none"/>
    <path d="M0.25 87.0 L6.9 85.85 4.4 88.75 3.65 88.45 0.25 87.0" fill="url(#gradient3)" fill-rule="evenodd" stroke="none"/>
    <path d="M-9.85 89.65 L-14.25 88.1 Q-11.2 76.45 -16.55 59.85 -9.5 75.05 -9.85 89.65" fill="url(#gradient4)" fill-rule="evenodd" stroke="none"/>
    <path d="M-14.6 -71.2 Q-14.65 -86.5 -5.7 -92.05 -3.35 -92.9 -1.25 -93.2 L-0.7 -93.95 Q0.1 -94.75 1.25 -94.75 2.4 -94.75 3.2 -93.95 L3.85 -92.95 Q9.6 -91.55 13.45 -84.55 19.25 -72.4 18.5 -61.95 L20.4 -61.25 Q24.9 -58.0 24.9 -51.25 26.95 -40.85 29.05 -33.5 31.65 -24.45 34.4 -20.1 46.15 -3.45 45.85 15.95 47.95 35.75 29.1 51.9 24.3 55.75 18.45 58.1 L16.15 58.95 Q3.15 68.05 -1.45 86.2 L0.25 87.0 6.9 85.85 4.4 88.75 7.4 89.75 13.6 91.25 Q8.5 93.55 1.35 93.4 L-9.95 92.35 -9.85 89.65 -14.25 88.1 Q-11.2 76.45 -16.55 59.85 -18.15 57.25 -20.05 54.8 -31.4 48.0 -39.05 31.35 -50.0 7.9 -43.85 -20.7 -41.85 -37.6 -26.35 -48.95 L-24.05 -50.55 -23.7 -50.9 Q-20.05 -54.85 -18.75 -64.4 -17.75 -72.05 -14.6 -71.2 3.7 -67.4 18.5 -61.95 M29.05 -33.5 Q31.1 -21.7 29.05 -11.4 L22.4 -7.9 Q-0.5 -25.5 7.4 -34.95 M-20.05 54.8 Q-12.0 59.55 -4.55 60.6 2.95 61.95 10.15 60.5 L15.55 59.15 16.15 58.95 M4.4 88.75 L3.65 88.45 0.25 87.0 M-9.85 89.65 Q-9.5 75.05 -16.55 59.85" fill="none" stroke="#3366cc" stroke-linecap="round" stroke-linejoin="round" stroke-width="0.05"/>
    <path d="M27.55 -13.1 Q31.2 -9.9 35.85 -7.9 38.2 -6.35 35.5 -4.95 L33.8 -4.2 Q32.1 -3.25 31.95 -1.7 L31.8 1.0 Q31.65 3.5 30.15 2.4 L28.0 0.35 Q26.7 -0.7 25.1 -0.05 L23.5 0.8 Q20.75 2.05 21.15 -0.7 L21.2 -1.0 Q22.85 -6.0 22.85 -10.4 L27.55 -13.1" fill="url(#gradient5)" fill-rule="evenodd" stroke="none"/>
    <path d="M22.85 -10.4 Q22.85 -6.0 21.2 -1.0 L21.15 -0.7 Q20.75 2.05 23.5 0.8 L25.1 -0.05 Q26.7 -0.7 28.0 0.35 L30.15 2.4 Q31.65 3.5 31.8 1.0 L31.95 -1.7 Q32.1 -3.25 33.8 -4.2 L35.5 -4.95 Q38.2 -6.35 35.85 -7.9 31.2 -9.9 27.55 -13.1" fill="none" stroke="#3366cc" stroke-linecap="round" stroke-linejoin="round" stroke-width="0.05"/>
  </g>
  <defs>
    <radialGradient cx="0" cy="0" gradientTransform="matrix(0.1259, 0.0, 0.0, 0.1259, 3.05, -41.7)" gradientUnits="userSpaceOnUse" id="gradient0" r="819.2" spreadMethod="pad">
      <stop offset="0.3843137254901961" stop-color="#33ccff"/>
      <stop offset="1.0" stop-color="#3399ff"/>
    </radialGradient>
    <radialGradient cx="0" cy="0" gradientTransform="matrix(0.0272, 0.0, 0.0, 0.0272, 6.0, -79.75)" gradientUnits="userSpaceOnUse" id="gradient1" r="819.2" spreadMethod="pad">
      <stop offset="0.3843137254901961" stop-color="#33ccff"/>
      <stop offset="1.0" stop-color="#3399ff"/>
    </radialGradient>
    <radialGradient cx="0" cy="0" gradientTransform="matrix(0.041, 0.0, 0.0, 0.041, -0.25, 81.95)" gradientUnits="userSpaceOnUse" id="gradient2" r="819.2" spreadMethod="pad">
      <stop offset="0.3843137254901961" stop-color="#33ccff"/>
      <stop offset="1.0" stop-color="#3399ff"/>
    </radialGradient>
    <radialGradient cx="0" cy="0" gradientTransform="matrix(0.0046, 0.0, 0.0, 0.0046, 4.0, 87.2)" gradientUnits="userSpaceOnUse" id="gradient3" r="819.2" spreadMethod="pad">
      <stop offset="0.3843137254901961" stop-color="#33ccff"/>
      <stop offset="1.0" stop-color="#3399ff"/>
    </radialGradient>
    <radialGradient cx="0" cy="0" gradientTransform="matrix(0.0373, 0.0, 0.0, 0.0373, -9.85, 89.65)" gradientUnits="userSpaceOnUse" id="gradient4" r="819.2" spreadMethod="pad">
      <stop offset="0.3843137254901961" stop-color="#33ccff"/>
      <stop offset="1.0" stop-color="#3399ff"/>
    </radialGradient>
    <radialGradient cx="0" cy="0" gradientTransform="matrix(0.0149, -0.0086, 0.0086, 0.0149, 31.85, -8.4)" gradientUnits="userSpaceOnUse" id="gradient5" r="819.2" spreadMethod="pad">
      <stop offset="0.3843137254901961" stop-color="#33ccff"/>
      <stop offset="1.0" stop-color="#3399ff"/>
    </radialGradient>
  </defs>
</svg>
