<?xml version="1.0" encoding="UTF-8" standalone="no"?>
<svg xmlns:xlink="http://www.w3.org/1999/xlink" height="185.3px" width="110.0px" xmlns="http://www.w3.org/2000/svg">
  <g transform="matrix(1.0, 0.0, 0.0, 1.0, 56.7, 93.55)">
    <path d="M-24.4 -70.0 Q-23.2 -82.6 -17.45 -87.75 -13.95 -90.8 -10.4 -91.5 -10.25 -92.2 -9.7 -92.75 -8.9 -93.55 -7.75 -93.55 -6.6 -93.55 -5.8 -92.75 -5.15 -92.1 -5.0 -91.15 -2.15 -90.25 0.7 -87.75 11.75 -73.15 9.7 -62.75 -6.9 -70.65 -24.4 -70.0" fill="url(#gradient0)" fill-rule="evenodd" stroke="none"/>
    <path d="M9.7 -62.75 Q14.95 -58.95 16.9 -45.85 18.0 -41.2 22.25 -37.55 30.8 -30.65 37.35 -18.25 42.25 -14.8 44.85 -14.55 L39.75 -6.9 Q32.35 -8.1 29.05 -9.9 L37.6 11.8 Q45.7 33.5 22.15 49.45 18.9 51.65 15.6 53.4 L15.2 53.65 Q2.1 60.4 -11.15 59.55 L-11.75 59.5 -12.85 59.4 Q-18.0 58.85 -24.3 56.8 L-25.35 56.45 -25.6 56.35 -26.65 55.75 -26.75 55.65 Q-44.15 44.95 -53.45 16.3 -63.9 -21.7 -41.0 -42.2 -33.5 -49.95 -29.55 -58.6 -27.35 -69.05 -24.4 -70.0 -6.9 -70.65 9.7 -62.75 M12.75 -25.25 Q20.9 -14.4 29.05 -9.9 20.9 -14.4 12.75 -25.25" fill="url(#gradient1)" fill-rule="evenodd" stroke="none"/>
    <path d="M15.2 53.65 Q3.9 62.25 -3.2 78.8 L-5.5 84.6 -1.2 83.85 Q-2.7 92.35 -13.1 91.7 L-13.0 90.7 Q-11.6 74.8 -12.85 59.4 L-11.75 59.5 -11.15 59.55 Q2.1 60.4 15.2 53.65 M-6.45 87.05 L-5.5 84.6 -6.45 87.05" fill="url(#gradient2)" fill-rule="evenodd" stroke="none"/>
    <path d="M-13.0 90.7 L-16.95 90.55 -17.2 83.75 -17.8 79.25 Q-19.65 67.35 -26.65 55.75 L-25.6 56.35 -25.35 56.45 -24.3 56.8 Q-18.0 58.85 -12.85 59.4 -11.6 74.8 -13.0 90.7" fill="url(#gradient3)" fill-rule="evenodd" stroke="none"/>
    <path d="M-24.4 -70.0 Q-23.2 -82.6 -17.45 -87.75 -13.95 -90.8 -10.4 -91.5 -10.25 -92.2 -9.7 -92.75 -8.9 -93.55 -7.75 -93.55 -6.6 -93.55 -5.8 -92.75 -5.15 -92.1 -5.0 -91.15 -2.15 -90.25 0.7 -87.75 11.75 -73.15 9.7 -62.75 14.95 -58.95 16.9 -45.85 18.0 -41.2 22.25 -37.55 30.8 -30.65 37.35 -18.25 42.25 -14.8 44.85 -14.55 L39.75 -6.9 Q32.35 -8.1 29.05 -9.9 L37.6 11.8 Q45.7 33.5 22.15 49.45 18.9 51.65 15.6 53.4 L15.2 53.65 Q3.9 62.25 -3.2 78.8 L-5.5 84.6 -1.2 83.85 Q-2.7 92.35 -13.1 91.7 L-13.0 90.7 -16.95 90.55 -17.2 83.75 -17.8 79.25 Q-19.65 67.35 -26.65 55.75 L-26.75 55.65 Q-44.15 44.95 -53.45 16.3 -63.9 -21.7 -41.0 -42.2 -33.5 -49.95 -29.55 -58.6 -27.35 -69.05 -24.4 -70.0 -6.9 -70.65 9.7 -62.75 M29.05 -9.9 Q20.9 -14.4 12.75 -25.25 M-12.85 59.4 L-11.75 59.5 -11.15 59.55 Q2.1 60.4 15.2 53.65 M-26.65 55.75 L-25.6 56.35 -25.35 56.45 -24.3 56.8 Q-18.0 58.85 -12.85 59.4 -11.6 74.8 -13.0 90.7 M-5.5 84.6 L-6.45 87.05" fill="none" stroke="#3366cc" stroke-linecap="round" stroke-linejoin="round" stroke-width="0.05"/>
    <path d="M41.75 -13.5 Q46.25 -13.2 50.75 -14.3 53.35 -14.5 52.15 -11.95 L51.3 -10.5 Q50.55 -8.85 51.35 -7.6 L52.75 -5.55 Q54.0 -3.65 52.3 -3.65 L49.55 -3.9 Q48.1 -3.95 47.25 -2.6 L46.55 -1.1 Q45.25 1.3 44.0 -0.85 L43.85 -1.15 Q42.25 -5.7 39.8 -8.95 L41.75 -13.5" fill="url(#gradient4)" fill-rule="evenodd" stroke="none"/>
    <path d="M39.8 -8.95 Q42.25 -5.7 43.85 -1.15 L44.0 -0.85 Q45.25 1.3 46.55 -1.1 L47.25 -2.6 Q48.1 -3.95 49.55 -3.9 L52.3 -3.65 Q54.0 -3.65 52.75 -5.55 L51.35 -7.6 Q50.55 -8.85 51.3 -10.5 L52.15 -11.95 Q53.35 -14.5 50.75 -14.3 46.25 -13.2 41.75 -13.5" fill="none" stroke="#3366cc" stroke-linecap="round" stroke-linejoin="round" stroke-width="0.05"/>
  </g>
  <defs>
    <radialGradient cx="0" cy="0" gradientTransform="matrix(0.0284, 0.0, 0.0, 0.0284, -8.2, -77.2)" gradientUnits="userSpaceOnUse" id="gradient0" r="819.2" spreadMethod="pad">
      <stop offset="0.3843137254901961" stop-color="#33ccff"/>
      <stop offset="1.0" stop-color="#3399ff"/>
    </radialGradient>
    <radialGradient cx="0" cy="0" gradientTransform="matrix(0.1004, 0.0, 0.0, 0.1004, -17.6, -21.35)" gradientUnits="userSpaceOnUse" id="gradient1" r="819.2" spreadMethod="pad">
      <stop offset="0.3843137254901961" stop-color="#33ccff"/>
      <stop offset="1.0" stop-color="#3399ff"/>
    </radialGradient>
    <radialGradient cx="0" cy="0" gradientTransform="matrix(0.0397, 0.0, 0.0, 0.0397, -7.85, 59.65)" gradientUnits="userSpaceOnUse" id="gradient2" r="819.2" spreadMethod="pad">
      <stop offset="0.3843137254901961" stop-color="#33ccff"/>
      <stop offset="1.0" stop-color="#3399ff"/>
    </radialGradient>
    <radialGradient cx="0" cy="0" gradientTransform="matrix(0.0317, 0.0, 0.0, 0.0317, -15.6, 65.6)" gradientUnits="userSpaceOnUse" id="gradient3" r="819.2" spreadMethod="pad">
      <stop offset="0.3843137254901961" stop-color="#33ccff"/>
      <stop offset="1.0" stop-color="#3399ff"/>
    </radialGradient>
    <radialGradient cx="0" cy="0" gradientTransform="matrix(0.0061, -0.0146, 0.0146, 0.0061, 47.55, -12.5)" gradientUnits="userSpaceOnUse" id="gradient4" r="819.2" spreadMethod="pad">
      <stop offset="0.3843137254901961" stop-color="#33ccff"/>
      <stop offset="1.0" stop-color="#3399ff"/>
    </radialGradient>
  </defs>
</svg>
