<?xml version="1.0" encoding="UTF-8" standalone="no"?>
<svg xmlns:xlink="http://www.w3.org/1999/xlink" height="184.4px" width="131.9px" xmlns="http://www.w3.org/2000/svg">
  <g transform="matrix(1.0, 0.0, 0.0, 1.0, 65.6, 92.85)">
    <path d="M-51.3 -17.6 Q-55.6 -16.15 -59.3 -13.4 -61.65 -12.2 -61.5 -15.0 L-61.3 -16.7 Q-61.25 -18.5 -62.45 -19.35 L-64.55 -20.7 Q-66.45 -21.95 -64.85 -22.65 L-62.25 -23.45 Q-60.85 -23.95 -60.65 -25.55 L-60.55 -27.2 Q-60.3 -29.95 -58.3 -28.4 L-58.05 -28.2 Q-54.85 -24.6 -51.3 -22.55 L-51.3 -17.6" fill="url(#gradient0)" fill-rule="evenodd" stroke="none"/>
    <path d="M-51.3 -22.55 Q-54.85 -24.6 -58.05 -28.2 L-58.3 -28.4 Q-60.3 -29.95 -60.55 -27.2 L-60.65 -25.55 Q-60.85 -23.95 -62.25 -23.45 L-64.85 -22.65 Q-66.45 -21.95 -64.55 -20.7 L-62.45 -19.35 Q-61.25 -18.5 -61.3 -16.7 L-61.5 -15.0 Q-61.65 -12.2 -59.3 -13.4 -55.6 -16.15 -51.3 -17.6" fill="none" stroke="#3366cc" stroke-linecap="round" stroke-linejoin="round" stroke-width="0.05"/>
    <path d="M52.0 -16.25 Q56.3 -14.8 60.0 -12.05 62.35 -10.85 62.2 -13.65 L62.0 -15.35 Q61.95 -17.15 63.15 -18.0 L65.25 -19.35 Q67.15 -20.6 65.55 -21.3 L62.95 -22.1 Q61.55 -22.6 61.35 -24.2 L61.25 -25.85 Q61.0 -28.6 59.0 -27.05 L58.75 -26.85 Q55.55 -23.25 52.0 -21.2 L52.0 -16.25" fill="url(#gradient1)" fill-rule="evenodd" stroke="none"/>
    <path d="M52.0 -21.2 Q55.55 -23.25 58.75 -26.85 L59.0 -27.05 Q61.0 -28.6 61.25 -25.85 L61.35 -24.2 Q61.55 -22.6 62.95 -22.1 L65.55 -21.3 Q67.15 -20.6 65.25 -19.35 L63.15 -18.0 Q61.95 -17.15 62.0 -15.35 L62.2 -13.65 Q62.35 -10.85 60.0 -12.05 56.3 -14.8 52.0 -16.25" fill="none" stroke="#3366cc" stroke-linecap="round" stroke-linejoin="round" stroke-width="0.05"/>
    <path d="M17.0 -68.05 Q18.6 -67.3 19.15 -66.2 20.4 -58.55 24.0 -49.9 25.8 -45.6 28.15 -41.1 38.9 -28.1 44.85 -13.15 47.45 -6.45 49.15 0.65 53.15 20.65 38.2 41.0 34.8 45.65 30.95 49.4 L30.5 49.8 Q19.3 60.4 4.4 63.25 L3.45 63.4 -0.2 63.9 -0.3 63.9 -1.25 63.95 Q-13.05 64.05 -26.35 51.45 L-27.85 50.0 Q-35.1 42.75 -42.8 31.75 -53.1 13.35 -44.05 -10.45 -40.55 -19.8 -34.05 -29.95 -30.35 -36.4 -27.1 -42.8 -22.4 -52.2 -18.75 -61.6 -18.2 -64.65 -15.4 -66.6 -10.7 -69.9 0.35 -70.05 12.6 -70.2 17.0 -68.05" fill="url(#gradient2)" fill-rule="evenodd" stroke="none"/>
    <path d="M-15.4 -66.6 L-13.8 -76.3 Q-13.55 -88.85 -2.6 -91.05 L-2.0 -92.05 Q-1.2 -92.85 -0.05 -92.85 1.1 -92.85 1.9 -92.05 L2.35 -91.5 Q11.8 -91.0 13.35 -79.1 L17.0 -68.05 Q12.6 -70.2 0.35 -70.05 -10.7 -69.9 -15.4 -66.6" fill="url(#gradient3)" fill-rule="evenodd" stroke="none"/>
    <path d="M24.0 -49.9 Q34.55 -34.95 52.05 -22.75 53.5 -19.2 51.85 -15.65 47.0 -15.35 44.85 -13.15 38.9 -28.1 28.15 -41.1 25.8 -45.6 24.0 -49.9" fill="url(#gradient4)" fill-rule="evenodd" stroke="none"/>
    <path d="M-44.05 -10.45 Q-45.45 -14.25 -51.35 -16.7 -53.35 -19.15 -52.4 -22.75 -40.2 -30.75 -27.1 -42.8 -30.35 -36.4 -34.05 -29.95 -40.55 -19.8 -44.05 -10.45" fill="url(#gradient5)" fill-rule="evenodd" stroke="none"/>
    <path d="M30.5 49.8 Q21.55 70.3 17.5 89.55 L11.1 89.35 Q8.9 75.5 3.45 63.4 L4.4 63.25 Q19.3 60.4 30.5 49.8" fill="url(#gradient6)" fill-rule="evenodd" stroke="none"/>
    <path d="M-0.3 63.9 Q-5.1 77.0 -5.75 90.8 -7.8 92.4 -12.35 90.6 -17.3 68.75 -27.85 50.0 L-26.35 51.45 Q-13.05 64.05 -1.25 63.95 L-0.3 63.9" fill="url(#gradient7)" fill-rule="evenodd" stroke="none"/>
    <path d="M-15.4 -66.6 L-13.8 -76.3 Q-13.55 -88.85 -2.6 -91.05 L-2.0 -92.05 Q-1.2 -92.85 -0.05 -92.85 1.1 -92.85 1.9 -92.05 L2.35 -91.5 Q11.8 -91.0 13.35 -79.1 L17.0 -68.05 Q18.6 -67.3 19.15 -66.2 20.4 -58.55 24.0 -49.9 34.55 -34.95 52.05 -22.75 53.5 -19.2 51.85 -15.65 47.0 -15.35 44.85 -13.15 47.45 -6.45 49.15 0.65 53.15 20.65 38.2 41.0 34.8 45.65 30.95 49.4 L30.5 49.8 Q21.55 70.3 17.5 89.55 L11.1 89.35 Q8.9 75.5 3.45 63.4 L-0.2 63.9 -0.3 63.9 Q-5.1 77.0 -5.75 90.8 -7.8 92.4 -12.35 90.6 -17.3 68.75 -27.85 50.0 -35.1 42.75 -42.8 31.75 -53.1 13.35 -44.05 -10.45 -45.45 -14.25 -51.35 -16.7 -53.35 -19.15 -52.4 -22.75 -40.2 -30.75 -27.1 -42.8 -22.4 -52.2 -18.75 -61.6 -18.2 -64.65 -15.4 -66.6 -10.7 -69.9 0.35 -70.05 12.6 -70.2 17.0 -68.05 M44.85 -13.15 Q38.9 -28.1 28.15 -41.1 25.8 -45.6 24.0 -49.9 M3.45 63.4 L4.4 63.25 Q19.3 60.4 30.5 49.8 M-27.1 -42.8 Q-30.35 -36.4 -34.05 -29.95 -40.55 -19.8 -44.05 -10.45 M-27.85 50.0 L-26.35 51.45 Q-13.05 64.05 -1.25 63.95 L-0.3 63.9" fill="none" stroke="#3366cc" stroke-linecap="round" stroke-linejoin="round" stroke-width="0.05"/>
  </g>
  <defs>
    <radialGradient cx="0" cy="0" gradientTransform="matrix(0.0, 0.0158, -0.0158, 0.0, -57.05, -16.3)" gradientUnits="userSpaceOnUse" id="gradient0" r="819.2" spreadMethod="pad">
      <stop offset="0.3843137254901961" stop-color="#33ccff"/>
      <stop offset="1.0" stop-color="#3399ff"/>
    </radialGradient>
    <radialGradient cx="0" cy="0" gradientTransform="matrix(0.0, 0.0158, 0.0158, 0.0, 57.75, -14.95)" gradientUnits="userSpaceOnUse" id="gradient1" r="819.2" spreadMethod="pad">
      <stop offset="0.3843137254901961" stop-color="#33ccff"/>
      <stop offset="1.0" stop-color="#3399ff"/>
    </radialGradient>
    <radialGradient cx="0" cy="0" gradientTransform="matrix(0.092, 0.0, 0.0, 0.092, 3.0, -11.0)" gradientUnits="userSpaceOnUse" id="gradient2" r="819.2" spreadMethod="pad">
      <stop offset="0.3843137254901961" stop-color="#33ccff"/>
      <stop offset="1.0" stop-color="#3399ff"/>
    </radialGradient>
    <radialGradient cx="0" cy="0" gradientTransform="matrix(0.0272, 0.0, 0.0, 0.0272, 1.55, -81.1)" gradientUnits="userSpaceOnUse" id="gradient3" r="819.2" spreadMethod="pad">
      <stop offset="0.3843137254901961" stop-color="#33ccff"/>
      <stop offset="1.0" stop-color="#3399ff"/>
    </radialGradient>
    <radialGradient cx="0" cy="0" gradientTransform="matrix(0.045, 0.0, 0.0, 0.045, 46.5, -21.35)" gradientUnits="userSpaceOnUse" id="gradient4" r="819.2" spreadMethod="pad">
      <stop offset="0.3843137254901961" stop-color="#33ccff"/>
      <stop offset="1.0" stop-color="#3399ff"/>
    </radialGradient>
    <radialGradient cx="0" cy="0" gradientTransform="matrix(0.0318, 0.0, 0.0, 0.0318, -44.9, -23.8)" gradientUnits="userSpaceOnUse" id="gradient5" r="819.2" spreadMethod="pad">
      <stop offset="0.3843137254901961" stop-color="#33ccff"/>
      <stop offset="1.0" stop-color="#3399ff"/>
    </radialGradient>
    <radialGradient cx="0" cy="0" gradientTransform="matrix(0.0383, 0.0, 0.0, 0.0383, 17.2, 59.0)" gradientUnits="userSpaceOnUse" id="gradient6" r="819.2" spreadMethod="pad">
      <stop offset="0.3843137254901961" stop-color="#33ccff"/>
      <stop offset="1.0" stop-color="#3399ff"/>
    </radialGradient>
    <radialGradient cx="0" cy="0" gradientTransform="matrix(0.0324, 0.0, 0.0, 0.0324, -12.3, 71.55)" gradientUnits="userSpaceOnUse" id="gradient7" r="819.2" spreadMethod="pad">
      <stop offset="0.3843137254901961" stop-color="#33ccff"/>
      <stop offset="1.0" stop-color="#3399ff"/>
    </radialGradient>
  </defs>
</svg>
