<?xml version="1.0" encoding="UTF-8" standalone="no"?>
<svg xmlns:xlink="http://www.w3.org/1999/xlink" height="188.8px" width="111.3px" xmlns="http://www.w3.org/2000/svg">
  <g transform="matrix(1.0, 0.0, 0.0, 1.0, 55.4, 95.35)">
    <path d="M11.9 -63.05 Q11.85 -61.05 10.45 -59.65 9.05 -58.2 7.05 -58.2 5.05 -58.2 3.6 -59.65 2.2 -61.05 2.2 -63.05 2.2 -65.05 3.6 -66.45 5.05 -67.85 7.05 -67.85 9.05 -67.85 10.45 -66.45 11.85 -65.05 11.9 -63.05 M4.2 -66.1 Q3.05 -64.9 3.05 -63.2 3.05 -61.5 4.2 -60.35 5.4 -59.15 7.1 -59.15 L7.45 -59.15 Q8.9 -59.25 9.95 -60.35 L10.85 -61.55 11.15 -63.2 Q11.15 -64.9 9.95 -66.1 8.8 -67.25 7.1 -67.25 5.4 -67.25 4.2 -66.1 M5.95 -63.5 L5.4 -63.4 Q4.25 -63.95 5.1 -64.8 L5.6 -65.05 Q7.0 -64.55 5.95 -63.5 M-5.5 -67.25 Q-4.05 -65.8 -4.05 -63.8 -4.05 -62.5 -4.65 -61.45 L-5.5 -60.4 -6.65 -59.5 Q-7.3 -59.2 -8.05 -59.05 L-8.9 -59.0 Q-10.9 -59.0 -12.3 -60.4 -13.7 -61.8 -13.7 -63.8 -13.7 -65.8 -12.3 -67.25 -10.9 -68.65 -8.9 -68.65 -7.6 -68.65 -6.5 -68.0 L-5.5 -67.25 M-6.05 -66.5 Q-7.2 -67.65 -8.9 -67.65 -10.6 -67.65 -11.8 -66.5 -12.95 -65.3 -12.95 -63.6 -12.95 -61.9 -11.8 -60.75 -10.6 -59.55 -8.9 -59.55 L-8.55 -59.55 Q-7.1 -59.65 -6.05 -60.75 L-5.15 -61.95 Q-4.85 -62.7 -4.85 -63.6 -4.85 -65.3 -6.05 -66.5 M-10.85 -65.5 L-10.35 -65.75 Q-8.95 -65.2 -10.0 -64.2 L-10.55 -64.1 Q-11.7 -64.6 -10.85 -65.5" fill="#ffffff" fill-rule="evenodd" stroke="none"/>
    <path d="M16.25 -64.2 Q19.8 -65.05 24.45 -49.3 26.65 -42.95 30.4 -37.35 43.55 -19.75 48.55 3.1 L48.3 3.2 47.2 2.3 42.9 4.75 42.9 5.35 Q42.85 9.2 41.45 13.45 L41.4 13.75 Q41.0 16.25 43.55 15.1 L45.0 14.4 46.2 14.15 Q45.95 27.6 38.55 38.2 33.2 46.85 23.35 52.05 16.75 55.55 8.1 57.5 2.7 57.7 -2.25 57.35 L-7.25 56.8 Q-19.25 55.15 -28.55 50.05 -38.0 44.85 -44.65 36.1 -49.95 25.2 -50.85 13.5 L-50.65 13.4 -48.45 12.25 Q-47.15 11.65 -45.6 12.6 L-44.2 13.6 Q-41.85 15.15 -41.75 12.5 -42.2 8.25 -41.5 4.1 L-41.35 3.45 -45.65 1.0 -46.6 1.5 -46.7 1.45 Q-45.7 -12.9 -39.7 -27.9 -45.7 -12.9 -46.7 1.45 L-46.6 1.5 -50.8 3.25 -50.1 -2.5 Q-48.05 -15.2 -39.7 -27.9 L-35.0 -34.5 Q-25.65 -45.6 -23.65 -60.7 -22.35 -65.95 -18.95 -66.45 -24.15 -60.7 -9.3 -57.0 2.2 -55.4 9.25 -57.0 17.1 -59.65 16.25 -64.2 M-20.6 -18.3 Q-28.45 -6.1 -40.55 4.55 L-41.5 4.1 -40.55 4.55 Q-28.45 -6.1 -20.6 -18.3 M22.0 -19.75 Q31.05 -3.95 42.4 5.55 L42.9 5.35 42.4 5.55 Q31.05 -3.95 22.0 -19.75" fill="url(#gradient0)" fill-rule="evenodd" stroke="none"/>
    <path d="M-18.95 -66.45 Q-16.75 -70.15 -15.65 -78.85 L-15.45 -79.6 Q-12.8 -91.45 -3.7 -93.15 L-3.4 -93.95 -2.95 -94.55 Q-2.15 -95.35 -1.0 -95.35 0.15 -95.35 0.95 -94.55 L1.4 -93.95 1.7 -93.15 Q12.55 -90.7 14.05 -77.6 L14.15 -76.8 Q14.55 -68.7 16.25 -64.2 17.1 -59.65 9.25 -57.0 2.2 -55.4 -9.3 -57.0 -24.15 -60.7 -18.95 -66.45 M11.9 -63.05 Q11.85 -65.05 10.45 -66.45 9.05 -67.85 7.05 -67.85 5.05 -67.85 3.6 -66.45 2.2 -65.05 2.2 -63.05 2.2 -61.05 3.6 -59.65 5.05 -58.2 7.05 -58.2 9.05 -58.2 10.45 -59.65 11.85 -61.05 11.9 -63.05 M-5.5 -67.25 L-6.5 -68.0 Q-7.6 -68.65 -8.9 -68.65 -10.9 -68.65 -12.3 -67.25 -13.7 -65.8 -13.7 -63.8 -13.7 -61.8 -12.3 -60.4 -10.9 -59.0 -8.9 -59.0 L-8.05 -59.05 Q-7.3 -59.2 -6.65 -59.5 L-5.5 -60.4 -4.65 -61.45 Q-4.05 -62.5 -4.05 -63.8 -4.05 -65.8 -5.5 -67.25" fill="url(#gradient1)" fill-rule="evenodd" stroke="none"/>
    <path d="M-7.25 56.8 Q-11.8 66.45 -14.4 76.7 -14.5 85.55 -17.05 93.45 -19.45 84.95 -19.05 76.4 -21.7 62.55 -28.55 50.05 -19.25 55.15 -7.25 56.8" fill="url(#gradient2)" fill-rule="evenodd" stroke="none"/>
    <path d="M23.35 52.05 Q10.7 63.95 9.0 77.65 11.55 85.5 12.1 92.85 5.55 86.05 2.35 77.95 1.05 67.65 -2.25 57.35 2.7 57.7 8.1 57.5 16.75 55.55 23.35 52.05" fill="url(#gradient3)" fill-rule="evenodd" stroke="none"/>
    <path d="M-50.85 13.5 Q-52.7 14.35 -52.5 12.7 L-51.9 10.05 Q-51.65 8.6 -52.95 7.6 L-54.3 6.7 Q-56.55 5.1 -54.2 4.15 L-53.9 4.05 -50.8 3.25 -46.6 1.5 -45.65 1.0 -41.35 3.45 -41.5 4.1 Q-42.2 8.25 -41.75 12.5 -41.85 15.15 -44.2 13.6 L-45.6 12.6 Q-47.15 11.65 -48.45 12.25 L-50.65 13.4 -50.85 13.5" fill="url(#gradient4)" fill-rule="evenodd" stroke="none"/>
    <path d="M48.3 3.2 Q51.3 5.55 54.85 7.1 57.1 8.55 54.6 9.8 L53.0 10.5 Q51.4 11.35 51.3 12.85 L51.2 15.3 Q51.05 17.6 49.65 16.55 L47.65 14.7 Q47.0 14.15 46.2 14.15 L45.0 14.4 43.55 15.1 Q41.0 16.25 41.4 13.75 L41.45 13.45 Q42.85 9.2 42.9 5.35 L42.9 4.75 47.2 2.3 48.3 3.2" fill="url(#gradient5)" fill-rule="evenodd" stroke="none"/>
    <path d="M4.2 -66.1 Q5.4 -67.25 7.1 -67.25 8.8 -67.25 9.95 -66.1 11.15 -64.9 11.15 -63.2 L10.85 -61.55 9.95 -60.35 Q8.9 -59.25 7.45 -59.15 L7.1 -59.15 Q5.4 -59.15 4.2 -60.35 3.05 -61.5 3.05 -63.2 3.05 -64.9 4.2 -66.1 M5.95 -63.5 Q7.0 -64.55 5.6 -65.05 L5.1 -64.8 Q4.25 -63.95 5.4 -63.4 L5.95 -63.5 M-6.05 -66.5 Q-4.85 -65.3 -4.85 -63.6 -4.85 -62.7 -5.15 -61.95 L-6.05 -60.75 Q-7.1 -59.65 -8.55 -59.55 L-8.9 -59.55 Q-10.6 -59.55 -11.8 -60.75 -12.95 -61.9 -12.95 -63.6 -12.95 -65.3 -11.8 -66.5 -10.6 -67.65 -8.9 -67.65 -7.2 -67.65 -6.05 -66.5 M-10.85 -65.5 Q-11.7 -64.6 -10.55 -64.1 L-10.0 -64.2 Q-8.95 -65.2 -10.35 -65.75 L-10.85 -65.5" fill="#884400" fill-rule="evenodd" stroke="none"/>
    <path d="M-18.95 -66.45 Q-16.75 -70.15 -15.65 -78.85 L-15.45 -79.6 Q-12.8 -91.45 -3.7 -93.15 L-3.4 -93.95 -2.95 -94.55 Q-2.15 -95.35 -1.0 -95.35 0.15 -95.35 0.95 -94.55 L1.4 -93.95 1.7 -93.15 Q12.55 -90.7 14.05 -77.6 L14.15 -76.8 Q14.55 -68.7 16.25 -64.2 19.8 -65.05 24.45 -49.3 26.65 -42.95 30.4 -37.35 43.55 -19.75 48.55 3.1 L48.3 3.2 M46.2 14.15 Q45.95 27.6 38.55 38.2 33.2 46.85 23.35 52.05 10.7 63.95 9.0 77.65 11.55 85.5 12.1 92.85 5.55 86.05 2.35 77.95 1.05 67.65 -2.25 57.35 L-7.25 56.8 Q-11.8 66.45 -14.4 76.7 -14.5 85.55 -17.05 93.45 -19.45 84.95 -19.05 76.4 -21.7 62.55 -28.55 50.05 -38.0 44.85 -44.65 36.1 -49.95 25.2 -50.85 13.5 M-50.8 3.25 L-50.1 -2.5 Q-48.05 -15.2 -39.7 -27.9 L-35.0 -34.5 Q-25.65 -45.6 -23.65 -60.7 -22.35 -65.95 -18.95 -66.45 -24.15 -60.7 -9.3 -57.0 2.2 -55.4 9.25 -57.0 17.1 -59.65 16.25 -64.2 M11.9 -63.05 Q11.85 -61.05 10.45 -59.65 9.05 -58.2 7.05 -58.2 5.05 -58.2 3.6 -59.65 2.2 -61.05 2.2 -63.05 2.2 -65.05 3.6 -66.45 5.05 -67.85 7.05 -67.85 9.05 -67.85 10.45 -66.45 11.85 -65.05 11.9 -63.05 M-5.5 -67.25 Q-4.05 -65.8 -4.05 -63.8 -4.05 -62.5 -4.65 -61.45 L-5.5 -60.4 -6.65 -59.5 Q-7.3 -59.2 -8.05 -59.05 L-8.9 -59.0 Q-10.9 -59.0 -12.3 -60.4 -13.7 -61.8 -13.7 -63.8 -13.7 -65.8 -12.3 -67.25 -10.9 -68.65 -8.9 -68.65 -7.6 -68.65 -6.5 -68.0 L-5.5 -67.25 M-39.7 -27.9 Q-45.7 -12.9 -46.7 1.45 L-46.6 1.5 M-41.5 4.1 L-40.55 4.55 Q-28.45 -6.1 -20.6 -18.3 M-28.55 50.05 Q-19.25 55.15 -7.25 56.8 M42.9 5.35 L42.4 5.55 Q31.05 -3.95 22.0 -19.75 M-2.25 57.35 Q2.7 57.7 8.1 57.5 16.75 55.55 23.35 52.05" fill="none" stroke="#3366cc" stroke-linecap="round" stroke-linejoin="round" stroke-width="0.05"/>
    <path d="M48.3 3.2 Q51.3 5.55 54.85 7.1 57.1 8.55 54.6 9.8 L53.0 10.5 Q51.4 11.35 51.3 12.85 L51.2 15.3 Q51.05 17.6 49.65 16.55 L47.65 14.7 Q47.0 14.15 46.2 14.15 M-50.85 13.5 Q-52.7 14.35 -52.5 12.7 L-51.9 10.05 Q-51.65 8.6 -52.95 7.6 L-54.3 6.7 Q-56.55 5.1 -54.2 4.15 L-53.9 4.05 -50.8 3.25 M-46.6 1.5 L-45.65 1.0 M-41.35 3.45 L-41.5 4.1 M-50.85 13.5 L-50.65 13.4 -48.45 12.25 Q-47.15 11.65 -45.6 12.6 L-44.2 13.6 Q-41.85 15.15 -41.75 12.5 -42.2 8.25 -41.5 4.1 M-46.6 1.5 L-50.8 3.25 M48.3 3.2 L47.2 2.3 M42.9 4.75 L42.9 5.35 Q42.85 9.2 41.45 13.45 L41.4 13.75 Q41.0 16.25 43.55 15.1 L45.0 14.4 46.2 14.15" fill="none" stroke="#3366cc" stroke-linecap="round" stroke-linejoin="round" stroke-width="0.05"/>
  </g>
  <defs>
    <radialGradient cx="0" cy="0" gradientTransform="matrix(0.1232, 0.0, 0.0, 0.1232, -16.45, 30.9)" gradientUnits="userSpaceOnUse" id="gradient0" r="819.2" spreadMethod="pad">
      <stop offset="0.3843137254901961" stop-color="#33ccff"/>
      <stop offset="1.0" stop-color="#3399ff"/>
    </radialGradient>
    <radialGradient cx="0" cy="0" gradientTransform="matrix(0.0334, 0.0, 0.0, 0.0334, 3.85, -75.3)" gradientUnits="userSpaceOnUse" id="gradient1" r="819.2" spreadMethod="pad">
      <stop offset="0.3843137254901961" stop-color="#33ccff"/>
      <stop offset="1.0" stop-color="#3399ff"/>
    </radialGradient>
    <radialGradient cx="0" cy="0" gradientTransform="matrix(0.0463, 0.0, 0.0, 0.0463, -7.25, 56.8)" gradientUnits="userSpaceOnUse" id="gradient2" r="819.2" spreadMethod="pad">
      <stop offset="0.3843137254901961" stop-color="#33ccff"/>
      <stop offset="1.0" stop-color="#3399ff"/>
    </radialGradient>
    <radialGradient cx="0" cy="0" gradientTransform="matrix(0.0352, 0.0, 0.0, 0.0352, 7.2, 65.05)" gradientUnits="userSpaceOnUse" id="gradient3" r="819.2" spreadMethod="pad">
      <stop offset="0.3843137254901961" stop-color="#33ccff"/>
      <stop offset="1.0" stop-color="#3399ff"/>
    </radialGradient>
    <radialGradient cx="0" cy="0" gradientTransform="matrix(0.0137, 0.0079, -0.0079, 0.0137, -43.1, 9.1)" gradientUnits="userSpaceOnUse" id="gradient4" r="819.2" spreadMethod="pad">
      <stop offset="0.3843137254901961" stop-color="#33ccff"/>
      <stop offset="1.0" stop-color="#3399ff"/>
    </radialGradient>
    <radialGradient cx="0" cy="0" gradientTransform="matrix(0.0137, -0.0079, 0.0079, 0.0137, 51.25, 6.6)" gradientUnits="userSpaceOnUse" id="gradient5" r="819.2" spreadMethod="pad">
      <stop offset="0.3843137254901961" stop-color="#33ccff"/>
      <stop offset="1.0" stop-color="#3399ff"/>
    </radialGradient>
  </defs>
</svg>
