<?xml version="1.0" encoding="UTF-8" standalone="no"?>
<svg xmlns:xlink="http://www.w3.org/1999/xlink" height="479.55px" width="664.9px" xmlns="http://www.w3.org/2000/svg">
  <g transform="matrix(1.0, 0.0, 0.0, 1.0, 332.45, 235.8)">
    <path d="M37.0 -30.05 L41.85 -27.7 42.7 -27.3 58.55 -19.55 58.65 -19.5 63.75 -16.65 64.5 -16.25 65.35 -15.75 71.35 -12.3 71.45 -12.25 Q87.7 -2.9 102.55 6.45 L122.15 19.25 Q146.25 35.55 165.9 51.8 L170.55 55.7 176.3 60.65 176.5 60.85 176.65 61.0 176.7 61.05 176.8 61.1 Q201.55 83.7 223.95 106.95 L234.35 117.95 Q262.1 147.6 286.15 178.35 L286.5 178.75 Q311.45 210.7 332.45 243.75 L30.85 243.75 Q27.9 224.3 23.75 204.9 L23.7 204.6 23.7 204.55 Q20.35 189.0 16.35 173.5 12.95 160.6 9.1 147.75 L9.1 147.8 Q7.2 141.9 4.4 135.95 L1.15 129.65 0.75 128.95 0.65 128.75 Q-3.45 121.45 -8.85 114.05 L-9.3 113.5 -10.55 111.75 -10.85 111.4 -11.0 111.2 -12.2 109.6 -14.95 106.2 -15.2 105.85 -15.6 105.4 -16.15 104.75 -17.05 103.65 -17.4 103.25 -27.8 91.9 -28.55 91.1 -28.75 90.9 -29.3 90.35 Q-36.8 82.8 -45.55 75.15 -57.05 65.15 -70.75 54.95 L-87.05 43.35 -88.1 42.6 -94.05 38.6 -100.0 34.7 Q-109.0 28.85 -118.75 22.95 L-119.05 22.75 Q-120.95 21.6 -122.8 20.5 L-123.05 20.35 -124.0 19.75 -138.5 11.3 -143.0 8.75 -143.75 8.3 -146.0 7.05 -150.55 4.5 -154.15 2.5 -163.05 -2.6 -165.3 -3.85 -165.3 -3.9 Q-175.85 -10.0 -186.5 -16.35 L-192.6 -20.0 -201.05 -25.1 -202.25 -25.85 -203.3 -26.5 -210.6 -30.95 -218.35 -35.8 -242.15 -50.9 Q-257.6 -60.85 -273.2 -71.3 L-273.3 -71.35 -276.6 -73.4 -283.45 -77.7 Q-304.25 -90.95 -317.75 -101.85 L-317.75 -101.8 -317.8 -101.8 -322.55 -105.75 -322.7 -105.9 Q-334.35 -118.2 -332.1 -131.65 -330.95 -138.45 -326.3 -145.5 L-325.7 -146.35 -325.55 -146.55 -323.85 -148.85 Q-319.55 -154.5 -312.95 -160.25 L-312.9 -160.3 Q-296.8 -173.25 -276.25 -183.5 L-267.05 -187.85 -266.65 -188.05 -266.25 -188.25 -265.95 -188.35 -249.9 -194.9 -248.8 -195.3 -247.75 -195.7 -231.5 -201.15 -229.85 -201.65 -227.65 -202.3 -227.65 -202.35 Q-207.9 -208.3 -188.0 -213.4 -171.7 -217.55 -155.3 -221.1 -136.55 -225.2 -117.6 -228.5 -97.25 -232.1 -76.75 -234.75 L-75.0 -234.95 -74.95 -234.95 -68.9 -235.8 -58.6 -222.8 -74.0 -220.7 Q-95.1 -217.65 -113.3 -214.05 L-113.35 -214.05 Q-134.15 -209.95 -151.2 -205.15 -167.05 -200.7 -179.65 -195.65 -185.65 -193.3 -190.9 -190.75 -200.9 -186.0 -208.05 -180.95 L-213.35 -176.8 -215.6 -174.75 -220.05 -169.75 Q-224.45 -164.0 -225.45 -157.85 L-225.45 -157.9 Q-226.1 -152.75 -223.7 -148.65 -221.05 -144.25 -214.85 -141.1 L-213.95 -140.65 -213.85 -140.6 -203.05 -134.95 Q-196.75 -131.7 -189.45 -128.2 L-177.7 -122.65 -158.45 -113.85 -39.55 -63.95 -31.1 -60.45 -27.4 -58.85 -19.15 -55.35 -14.05 -53.15 -11.5 -52.05 1.05 -46.55 1.4 -46.4 14.1 -40.7 15.05 -40.25 35.3 -30.85 36.3 -30.35 37.0 -30.05" fill="#ffffff" fill-rule="evenodd" stroke="none"/>
  </g>
</svg>
