<?xml version="1.0" encoding="UTF-8" standalone="no"?>
<svg xmlns:xlink="http://www.w3.org/1999/xlink" height="151.6px" width="94.75px" xmlns="http://www.w3.org/2000/svg">
  <g transform="matrix(1.0, 0.0, 0.0, 1.0, 48.6, 76.8)">
    <path d="M6.4 -45.4 Q7.55 -45.1 8.5 -44.15 9.9 -42.75 9.95 -40.75 9.9 -38.75 8.5 -37.35 7.1 -35.9 5.1 -35.9 3.1 -35.9 1.65 -37.35 0.25 -38.75 0.25 -40.75 L0.45 -42.2 Q0.8 -43.3 1.65 -44.15 3.1 -45.55 5.1 -45.55 L6.4 -45.4 M7.95 -43.6 Q6.8 -44.75 5.1 -44.75 3.4 -44.75 2.2 -43.6 1.05 -42.4 1.05 -40.7 1.05 -39.0 2.2 -37.85 3.4 -36.65 5.1 -36.65 L5.45 -36.65 Q6.9 -36.75 7.95 -37.85 L8.85 -39.05 9.15 -40.7 Q9.15 -42.4 7.95 -43.6 M3.45 -40.3 L2.95 -40.25 Q1.8 -40.75 2.65 -41.65 L3.15 -41.85 Q4.55 -41.35 3.45 -40.3 M-7.45 -38.1 Q-8.0 -37.55 -8.6 -37.2 -9.6 -36.7 -10.85 -36.7 -12.85 -36.7 -14.25 -38.1 -15.65 -39.5 -15.65 -41.5 -15.65 -43.5 -14.25 -44.95 -12.85 -46.35 -10.85 -46.35 -9.55 -46.35 -8.45 -45.7 L-7.45 -44.95 Q-6.0 -43.5 -6.0 -41.5 -6.0 -39.5 -7.45 -38.1 M-7.15 -39.85 Q-6.85 -40.6 -6.85 -41.5 -6.85 -43.2 -8.05 -44.4 -9.2 -45.55 -10.9 -45.55 -12.6 -45.55 -13.8 -44.4 -14.95 -43.2 -14.95 -41.5 -14.95 -39.8 -13.8 -38.65 -12.6 -37.45 -10.9 -37.45 L-10.55 -37.45 Q-9.1 -37.55 -8.05 -38.65 L-7.15 -39.85 M-12.05 -41.65 L-12.6 -41.55 Q-13.75 -42.1 -12.85 -42.95 L-12.4 -43.2 Q-11.0 -42.65 -12.05 -41.65" fill="#ffffff" fill-rule="evenodd" stroke="none"/>
    <path d="M12.5 -51.7 L13.25 -51.55 Q18.1 -49.85 21.45 -30.25 22.45 -24.4 23.75 -21.7 35.7 1.55 39.9 23.95 L39.3 24.1 37.45 22.6 33.15 25.05 33.15 25.35 Q33.15 29.3 31.7 33.75 L31.65 34.05 Q31.25 36.55 33.8 35.4 L35.25 34.7 Q36.8 34.05 37.9 35.0 L38.1 35.2 Q40.05 43.3 39.9 51.45 39.15 63.75 27.8 71.35 3.4 78.3 -23.9 71.35 -46.25 67.65 -48.15 41.7 L-48.2 40.6 -48.6 28.75 Q-47.65 -6.25 -27.7 -34.05 -26.45 -49.6 -20.0 -53.7 -20.65 -51.7 -20.9 -49.65 -23.9 -40.2 -12.3 -33.05 -0.7 -25.95 8.3 -32.0 17.35 -38.05 12.7 -49.8 L12.5 -51.7 M19.25 1.0 Q25.15 18.5 32.6 25.45 L33.15 25.35 32.6 25.45 Q25.15 18.5 19.25 1.0 M-41.25 25.95 L-42.25 27.5 Q-44.1 30.2 -46.9 32.7 L-47.1 32.95 Q-48.65 34.95 -45.9 35.2 L-44.25 35.3 Q-42.65 35.5 -42.15 36.9 L-41.35 39.5 Q-40.65 41.1 -39.4 39.2 L-38.05 37.1 Q-37.2 35.9 -35.4 35.95 L-33.7 36.15 Q-30.9 36.3 -32.1 33.95 -34.25 31.0 -35.65 27.75 L-36.3 25.95 -41.25 25.95 M-42.25 27.5 L-42.55 27.5 Q-41.25 5.45 -35.0 -16.65 -41.25 5.45 -42.55 27.5 L-42.25 27.5 M-21.9 3.8 Q-27.15 16.95 -34.75 27.75 L-35.65 27.75 -34.75 27.75 Q-27.15 16.95 -21.9 3.8" fill="url(#gradient0)" fill-rule="evenodd" stroke="none"/>
    <path d="M-20.0 -53.7 L-19.45 -55.1 -17.85 -58.3 Q-16.55 -73.15 -5.05 -74.55 -4.9 -75.4 -4.3 -76.0 -3.5 -76.8 -2.35 -76.8 -1.2 -76.8 -0.4 -76.0 L0.35 -74.6 Q10.1 -73.25 11.55 -60.35 L12.5 -51.7 12.7 -49.8 Q17.35 -38.05 8.3 -32.0 -0.7 -25.95 -12.3 -33.05 -23.9 -40.2 -20.9 -49.65 -20.65 -51.7 -20.0 -53.7 M6.4 -45.4 L5.1 -45.55 Q3.1 -45.55 1.65 -44.15 0.8 -43.3 0.45 -42.2 L0.25 -40.75 Q0.25 -38.75 1.65 -37.35 3.1 -35.9 5.1 -35.9 7.1 -35.9 8.5 -37.35 9.9 -38.75 9.95 -40.75 9.9 -42.75 8.5 -44.15 7.55 -45.1 6.4 -45.4 M-7.45 -38.1 Q-6.0 -39.5 -6.0 -41.5 -6.0 -43.5 -7.45 -44.95 L-8.45 -45.7 Q-9.55 -46.35 -10.85 -46.35 -12.85 -46.35 -14.25 -44.95 -15.65 -43.5 -15.65 -41.5 -15.65 -39.5 -14.25 -38.1 -12.85 -36.7 -10.85 -36.7 -9.6 -36.7 -8.6 -37.2 -8.0 -37.55 -7.45 -38.1" fill="url(#gradient1)" fill-rule="evenodd" stroke="none"/>
    <path d="M-36.3 25.95 L-35.65 27.75 Q-34.25 31.0 -32.1 33.95 -30.9 36.3 -33.7 36.15 L-35.4 35.95 Q-37.2 35.9 -38.05 37.1 L-39.4 39.2 Q-40.65 41.1 -41.35 39.5 L-42.15 36.9 Q-42.65 35.5 -44.25 35.3 L-45.9 35.2 Q-48.65 34.95 -47.1 32.95 L-46.9 32.7 Q-44.1 30.2 -42.25 27.5 L-41.25 25.95 -36.3 25.95" fill="url(#gradient2)" fill-rule="evenodd" stroke="none"/>
    <path d="M39.3 24.1 Q42.0 26.05 45.1 27.4 47.35 28.85 44.85 30.1 L43.25 30.8 Q41.65 31.65 41.55 33.15 L41.45 35.6 Q41.3 37.9 39.9 36.85 L38.1 35.2 37.9 35.0 Q36.8 34.05 35.25 34.7 L33.8 35.4 Q31.25 36.55 31.65 34.05 L31.7 33.75 Q33.15 29.3 33.15 25.35 L33.15 25.05 37.45 22.6 39.3 24.1" fill="url(#gradient3)" fill-rule="evenodd" stroke="none"/>
    <path d="M7.95 -43.6 Q9.15 -42.4 9.15 -40.7 L8.85 -39.05 7.95 -37.85 Q6.9 -36.75 5.45 -36.65 L5.1 -36.65 Q3.4 -36.65 2.2 -37.85 1.05 -39.0 1.05 -40.7 1.05 -42.4 2.2 -43.6 3.4 -44.75 5.1 -44.75 6.8 -44.75 7.95 -43.6 M3.45 -40.3 Q4.55 -41.35 3.15 -41.85 L2.65 -41.65 Q1.8 -40.75 2.95 -40.25 L3.45 -40.3 M-7.15 -39.85 L-8.05 -38.65 Q-9.1 -37.55 -10.55 -37.45 L-10.9 -37.45 Q-12.6 -37.45 -13.8 -38.65 -14.95 -39.8 -14.95 -41.5 -14.95 -43.2 -13.8 -44.4 -12.6 -45.55 -10.9 -45.55 -9.2 -45.55 -8.05 -44.4 -6.85 -43.2 -6.85 -41.5 -6.85 -40.6 -7.15 -39.85 M-12.05 -41.65 Q-11.0 -42.65 -12.4 -43.2 L-12.85 -42.95 Q-13.75 -42.1 -12.6 -41.55 L-12.05 -41.65" fill="#884400" fill-rule="evenodd" stroke="none"/>
    <path d="M12.5 -51.7 L13.25 -51.55 Q18.1 -49.85 21.45 -30.25 22.45 -24.4 23.75 -21.7 35.7 1.55 39.9 23.95 L39.3 24.1 M38.1 35.2 Q40.05 43.3 39.9 51.45 39.15 63.75 27.8 71.35 3.4 78.3 -23.9 71.35 -46.25 67.65 -48.15 41.7 L-48.2 40.6 -48.6 28.75 Q-47.65 -6.25 -27.7 -34.05 -26.45 -49.6 -20.0 -53.7 L-19.45 -55.1 -17.85 -58.3 Q-16.55 -73.15 -5.05 -74.55 -4.9 -75.4 -4.3 -76.0 -3.5 -76.8 -2.35 -76.8 -1.2 -76.8 -0.4 -76.0 L0.35 -74.6 Q10.1 -73.25 11.55 -60.35 L12.5 -51.7 12.7 -49.8 Q17.35 -38.05 8.3 -32.0 -0.7 -25.95 -12.3 -33.05 -23.9 -40.2 -20.9 -49.65 -20.65 -51.7 -20.0 -53.7 M33.15 25.35 L32.6 25.45 Q25.15 18.5 19.25 1.0 M-35.65 27.75 L-34.75 27.75 Q-27.15 16.95 -21.9 3.8 M-35.0 -16.65 Q-41.25 5.45 -42.55 27.5 L-42.25 27.5" fill="none" stroke="#3366cc" stroke-linecap="round" stroke-linejoin="round" stroke-width="0.05"/>
    <path d="M39.3 24.1 Q42.0 26.05 45.1 27.4 47.35 28.85 44.85 30.1 L43.25 30.8 Q41.65 31.65 41.55 33.15 L41.45 35.6 Q41.3 37.9 39.9 36.85 L38.1 35.2 M39.3 24.1 L37.45 22.6 M33.15 25.05 L33.15 25.35 Q33.15 29.3 31.7 33.75 L31.65 34.05 Q31.25 36.55 33.8 35.4 L35.25 34.7 Q36.8 34.05 37.9 35.0 L38.1 35.2 M-41.25 25.95 L-42.25 27.5 Q-44.1 30.2 -46.9 32.7 L-47.1 32.95 Q-48.65 34.95 -45.9 35.2 L-44.25 35.3 Q-42.65 35.5 -42.15 36.9 L-41.35 39.5 Q-40.65 41.1 -39.4 39.2 L-38.05 37.1 Q-37.2 35.9 -35.4 35.95 L-33.7 36.15 Q-30.9 36.3 -32.1 33.95 -34.25 31.0 -35.65 27.75 L-36.3 25.95" fill="none" stroke="#3366cc" stroke-linecap="round" stroke-linejoin="round" stroke-width="0.05"/>
  </g>
  <defs>
    <radialGradient cx="0" cy="0" gradientTransform="matrix(0.0889, 0.0, 0.0, 0.0889, 2.0, 5.0)" gradientUnits="userSpaceOnUse" id="gradient0" r="819.2" spreadMethod="pad">
      <stop offset="0.3843137254901961" stop-color="#33ccff"/>
      <stop offset="1.0" stop-color="#3399ff"/>
    </radialGradient>
    <radialGradient cx="0" cy="0" gradientTransform="matrix(0.032, 0.0, 0.0, 0.032, -3.0, -55.0)" gradientUnits="userSpaceOnUse" id="gradient1" r="819.2" spreadMethod="pad">
      <stop offset="0.3843137254901961" stop-color="#33ccff"/>
      <stop offset="1.0" stop-color="#3399ff"/>
    </radialGradient>
    <radialGradient cx="0" cy="0" gradientTransform="matrix(0.0158, 0.0, 0.0, 0.0158, -35.0, 31.7)" gradientUnits="userSpaceOnUse" id="gradient2" r="819.2" spreadMethod="pad">
      <stop offset="0.3843137254901961" stop-color="#33ccff"/>
      <stop offset="1.0" stop-color="#3399ff"/>
    </radialGradient>
    <radialGradient cx="0" cy="0" gradientTransform="matrix(0.0137, -0.0079, 0.0079, 0.0137, 41.5, 26.9)" gradientUnits="userSpaceOnUse" id="gradient3" r="819.2" spreadMethod="pad">
      <stop offset="0.3843137254901961" stop-color="#33ccff"/>
      <stop offset="1.0" stop-color="#3399ff"/>
    </radialGradient>
  </defs>
</svg>
