<?xml version="1.0" encoding="UTF-8" standalone="no"?>
<svg xmlns:xlink="http://www.w3.org/1999/xlink" height="184.95px" width="108.75px" xmlns="http://www.w3.org/2000/svg">
  <g transform="matrix(1.0, 0.0, 0.0, 1.0, 54.35, 93.15)">
    <path d="M5.05 -63.15 Q6.45 -62.6 5.4 -61.6 L4.85 -61.5 Q3.7 -62.05 4.6 -62.9 L5.05 -63.15 M6.85 -66.4 Q8.85 -66.4 10.25 -65.0 11.65 -63.6 11.7 -61.6 11.65 -59.6 10.25 -58.2 8.85 -56.75 6.85 -56.75 4.85 -56.75 3.4 -58.2 L2.8 -58.95 2.75 -59.0 Q2.0 -60.15 2.0 -61.6 2.0 -63.6 3.4 -65.0 4.05 -65.65 4.8 -66.0 L6.85 -66.4 M-6.25 -65.25 Q-7.4 -66.4 -9.1 -66.4 -10.8 -66.4 -12.0 -65.25 -13.15 -64.05 -13.15 -62.35 -13.15 -60.65 -12.0 -59.5 -10.8 -58.3 -9.1 -58.3 L-8.75 -58.3 Q-7.3 -58.4 -6.25 -59.5 L-5.35 -60.7 Q-5.05 -61.45 -5.05 -62.35 -5.05 -64.05 -6.25 -65.25 M6.85 -65.7 Q5.15 -65.7 3.95 -64.55 2.8 -63.35 2.8 -61.65 2.8 -59.95 3.95 -58.8 5.15 -57.6 6.85 -57.6 L7.2 -57.6 Q8.65 -57.7 9.7 -58.8 L10.6 -60.0 10.9 -61.65 Q10.9 -63.35 9.7 -64.55 8.55 -65.7 6.85 -65.7 M-5.7 -65.8 Q-4.65 -64.75 -4.35 -63.45 L-4.25 -62.35 Q-4.25 -60.35 -5.7 -58.95 -6.2 -58.45 -6.8 -58.1 L-6.85 -58.1 -6.85 -58.05 Q-7.85 -57.55 -9.1 -57.55 -11.1 -57.55 -12.5 -58.95 -13.9 -60.35 -13.9 -62.35 -13.9 -64.35 -12.5 -65.8 -11.1 -67.2 -9.1 -67.2 -7.8 -67.2 -6.7 -66.55 L-5.7 -65.8 M-11.1 -62.35 Q-12.25 -62.9 -11.35 -63.75 L-10.9 -64.0 Q-9.5 -63.45 -10.55 -62.45 L-11.1 -62.35" fill="#ffffff" fill-rule="evenodd" stroke="none"/>
    <path d="M16.8 -62.5 Q20.65 -61.9 21.75 -55.5 22.5 -45.55 26.8 -37.95 40.7 -19.6 47.5 4.3 L46.4 5.15 45.05 4.3 41.05 7.25 41.2 9.1 Q41.35 12.35 40.6 16.05 L40.6 16.35 Q40.5 18.85 42.9 17.45 L44.25 16.55 46.65 16.4 Q51.45 46.75 21.15 63.8 8.35 68.1 -3.1 67.55 L-7.25 67.15 Q-19.6 65.55 -30.4 58.15 -50.0 46.95 -50.85 20.45 L-50.4 15.55 -49.6 15.2 -47.4 14.05 Q-46.1 13.45 -44.55 14.4 L-43.15 15.4 Q-40.8 16.95 -40.7 14.3 -41.15 10.15 -40.45 6.1 L-40.3 5.25 -44.6 2.8 -45.4 3.2 -48.85 4.75 Q-45.8 -11.6 -38.9 -25.2 L-34.7 -32.7 Q-26.15 -44.35 -23.9 -56.6 -22.4 -63.5 -18.4 -64.75 -20.75 -59.75 -8.55 -52.7 -0.1 -49.25 7.65 -52.7 20.25 -57.0 16.8 -62.5 M-38.9 -25.2 Q-44.05 -11.1 -45.85 2.95 L-45.4 3.2 -45.85 2.95 Q-44.05 -11.1 -38.9 -25.2 M-40.45 6.1 L-39.25 6.8 Q-26.4 -8.0 -19.05 -25.0 -26.4 -8.0 -39.25 6.8 L-40.45 6.1 M41.2 9.1 L40.95 9.3 Q27.85 2.0 21.85 -17.95 27.85 2.0 40.95 9.3 L41.2 9.1" fill="url(#gradient0)" fill-rule="evenodd" stroke="none"/>
    <path d="M-18.4 -64.75 Q-16.2 -68.45 -15.1 -77.15 L-14.9 -77.9 Q-12.1 -90.4 -2.1 -91.6 L-1.6 -92.35 Q-0.8 -93.15 0.35 -93.15 1.5 -93.15 2.3 -92.35 L3.0 -91.25 Q13.15 -88.55 14.6 -75.9 L14.7 -75.1 Q15.1 -67.0 16.8 -62.5 20.25 -57.0 7.65 -52.7 -0.1 -49.25 -8.55 -52.7 -20.75 -59.75 -18.4 -64.75 M6.85 -66.4 L4.8 -66.0 Q4.05 -65.65 3.4 -65.0 2.0 -63.6 2.0 -61.6 2.0 -60.15 2.75 -59.0 L2.8 -58.95 3.4 -58.2 Q4.85 -56.75 6.85 -56.75 8.85 -56.75 10.25 -58.2 11.65 -59.6 11.7 -61.6 11.65 -63.6 10.25 -65.0 8.85 -66.4 6.85 -66.4 M-5.7 -65.8 L-6.7 -66.55 Q-7.8 -67.2 -9.1 -67.2 -11.1 -67.2 -12.5 -65.8 -13.9 -64.35 -13.9 -62.35 -13.9 -60.35 -12.5 -58.95 -11.1 -57.55 -9.1 -57.55 -7.85 -57.55 -6.85 -58.05 L-6.85 -58.1 -6.8 -58.1 Q-6.2 -58.45 -5.7 -58.95 -4.25 -60.35 -4.25 -62.35 L-4.35 -63.45 Q-4.65 -64.75 -5.7 -65.8" fill="url(#gradient1)" fill-rule="evenodd" stroke="none"/>
    <path d="M21.15 63.8 Q13.9 68.2 9.35 77.45 13.85 85.3 11.2 91.8 5.25 85.6 4.6 77.9 2.4 72.05 -3.1 67.55 8.35 68.1 21.15 63.8" fill="url(#gradient2)" fill-rule="evenodd" stroke="none"/>
    <path d="M-7.25 67.15 Q-11.55 69.65 -14.7 76.3 -12.55 84.4 -17.4 91.15 -20.05 83.15 -18.1 76.1 -23.0 65.95 -30.4 58.15 -19.6 65.55 -7.25 67.15" fill="url(#gradient3)" fill-rule="evenodd" stroke="none"/>
    <path d="M-50.4 15.55 Q-51.6 15.85 -51.45 14.5 L-50.85 11.85 Q-50.6 10.4 -51.9 9.4 L-53.25 8.5 Q-55.5 6.9 -53.15 5.95 L-52.85 5.85 Q-50.75 5.4 -48.85 4.75 L-45.4 3.2 -44.6 2.8 -40.3 5.25 -40.45 6.1 Q-41.15 10.15 -40.7 14.3 -40.8 16.95 -43.15 15.4 L-44.55 14.4 Q-46.1 13.45 -47.4 14.05 L-49.6 15.2 -50.4 15.55" fill="url(#gradient4)" fill-rule="evenodd" stroke="none"/>
    <path d="M46.4 5.15 Q49.55 7.1 53.2 8.2 55.6 9.35 53.25 10.9 L51.75 11.8 Q50.25 12.8 50.3 14.3 L50.5 16.75 Q50.65 19.0 49.1 18.15 L46.9 16.55 46.65 16.4 44.25 16.55 42.9 17.45 Q40.5 18.85 40.6 16.35 L40.6 16.05 Q41.35 12.35 41.2 9.1 L41.05 7.25 45.05 4.3 46.4 5.15" fill="url(#gradient5)" fill-rule="evenodd" stroke="none"/>
    <path d="M5.05 -63.15 L4.6 -62.9 Q3.7 -62.05 4.85 -61.5 L5.4 -61.6 Q6.45 -62.6 5.05 -63.15 M6.85 -65.7 Q8.55 -65.7 9.7 -64.55 10.9 -63.35 10.9 -61.65 L10.6 -60.0 9.7 -58.8 Q8.65 -57.7 7.2 -57.6 L6.85 -57.6 Q5.15 -57.6 3.95 -58.8 2.8 -59.95 2.8 -61.65 2.8 -63.35 3.95 -64.55 5.15 -65.7 6.85 -65.7 M-6.25 -65.25 Q-5.05 -64.05 -5.05 -62.35 -5.05 -61.45 -5.35 -60.7 L-6.25 -59.5 Q-7.3 -58.4 -8.75 -58.3 L-9.1 -58.3 Q-10.8 -58.3 -12.0 -59.5 -13.15 -60.65 -13.15 -62.35 -13.15 -64.05 -12.0 -65.25 -10.8 -66.4 -9.1 -66.4 -7.4 -66.4 -6.25 -65.25 M-11.1 -62.35 L-10.55 -62.45 Q-9.5 -63.45 -10.9 -64.0 L-11.35 -63.75 Q-12.25 -62.9 -11.1 -62.35" fill="#884400" fill-rule="evenodd" stroke="none"/>
    <path d="M-18.4 -64.75 Q-16.2 -68.45 -15.1 -77.15 L-14.9 -77.9 Q-12.1 -90.4 -2.1 -91.6 L-1.6 -92.35 Q-0.8 -93.15 0.35 -93.15 1.5 -93.15 2.3 -92.35 L3.0 -91.25 Q13.15 -88.55 14.6 -75.9 L14.7 -75.1 Q15.1 -67.0 16.8 -62.5 20.65 -61.9 21.75 -55.5 22.5 -45.55 26.8 -37.95 40.7 -19.6 47.5 4.3 L46.4 5.15 M46.65 16.4 Q51.45 46.75 21.15 63.8 13.9 68.2 9.35 77.45 13.85 85.3 11.2 91.8 5.25 85.6 4.6 77.9 2.4 72.05 -3.1 67.55 L-7.25 67.15 Q-11.55 69.65 -14.7 76.3 -12.55 84.4 -17.4 91.15 -20.05 83.15 -18.1 76.1 -23.0 65.95 -30.4 58.15 -50.0 46.95 -50.85 20.45 L-50.4 15.55 M-48.85 4.75 Q-45.8 -11.6 -38.9 -25.2 L-34.7 -32.7 Q-26.15 -44.35 -23.9 -56.6 -22.4 -63.5 -18.4 -64.75 -20.75 -59.75 -8.55 -52.7 -0.1 -49.25 7.65 -52.7 20.25 -57.0 16.8 -62.5 M-19.05 -25.0 Q-26.4 -8.0 -39.25 6.8 L-40.45 6.1 M-45.4 3.2 L-45.85 2.95 Q-44.05 -11.1 -38.9 -25.2 M-30.4 58.15 Q-19.6 65.55 -7.25 67.15 M21.85 -17.95 Q27.85 2.0 40.95 9.3 L41.2 9.1 M-3.1 67.55 Q8.35 68.1 21.15 63.8" fill="none" stroke="#3366cc" stroke-linecap="round" stroke-linejoin="round" stroke-width="0.05"/>
    <path d="M46.4 5.15 Q49.55 7.1 53.2 8.2 55.6 9.35 53.25 10.9 L51.75 11.8 Q50.25 12.8 50.3 14.3 L50.5 16.75 Q50.65 19.0 49.1 18.15 L46.9 16.55 46.65 16.4 M-50.4 15.55 Q-51.6 15.85 -51.45 14.5 L-50.85 11.85 Q-50.6 10.4 -51.9 9.4 L-53.25 8.5 Q-55.5 6.9 -53.15 5.95 L-52.85 5.85 Q-50.75 5.4 -48.85 4.75 M-50.4 15.55 L-49.6 15.2 -47.4 14.05 Q-46.1 13.45 -44.55 14.4 L-43.15 15.4 Q-40.8 16.95 -40.7 14.3 -41.15 10.15 -40.45 6.1 L-40.3 5.25 M-44.6 2.8 L-45.4 3.2 -48.85 4.75 M41.2 9.1 L41.05 7.25 M45.05 4.3 L46.4 5.15 M41.2 9.1 Q41.35 12.35 40.6 16.05 L40.6 16.35 Q40.5 18.85 42.9 17.45 L44.25 16.55 46.65 16.4" fill="none" stroke="#3366cc" stroke-linecap="round" stroke-linejoin="round" stroke-width="0.05"/>
  </g>
  <defs>
    <radialGradient cx="0" cy="0" gradientTransform="matrix(0.0942, 0.0, 0.0, 0.0942, 12.0, -6.0)" gradientUnits="userSpaceOnUse" id="gradient0" r="819.2" spreadMethod="pad">
      <stop offset="0.3843137254901961" stop-color="#33ccff"/>
      <stop offset="1.0" stop-color="#3399ff"/>
    </radialGradient>
    <radialGradient cx="0" cy="0" gradientTransform="matrix(0.0356, 0.0, 0.0, 0.0356, 6.95, -75.35)" gradientUnits="userSpaceOnUse" id="gradient1" r="819.2" spreadMethod="pad">
      <stop offset="0.3843137254901961" stop-color="#33ccff"/>
      <stop offset="1.0" stop-color="#3399ff"/>
    </radialGradient>
    <radialGradient cx="0" cy="0" gradientTransform="matrix(0.0266, 0.0, 0.0, 0.0266, 4.6, 77.9)" gradientUnits="userSpaceOnUse" id="gradient2" r="819.2" spreadMethod="pad">
      <stop offset="0.3843137254901961" stop-color="#33ccff"/>
      <stop offset="1.0" stop-color="#3399ff"/>
    </radialGradient>
    <radialGradient cx="0" cy="0" gradientTransform="matrix(0.0278, 0.0, 0.0, 0.0278, -18.1, 76.1)" gradientUnits="userSpaceOnUse" id="gradient3" r="819.2" spreadMethod="pad">
      <stop offset="0.3843137254901961" stop-color="#33ccff"/>
      <stop offset="1.0" stop-color="#3399ff"/>
    </radialGradient>
    <radialGradient cx="0" cy="0" gradientTransform="matrix(0.0137, 0.0079, -0.0079, 0.0137, -42.05, 10.9)" gradientUnits="userSpaceOnUse" id="gradient4" r="819.2" spreadMethod="pad">
      <stop offset="0.3843137254901961" stop-color="#33ccff"/>
      <stop offset="1.0" stop-color="#3399ff"/>
    </radialGradient>
    <radialGradient cx="0" cy="0" gradientTransform="matrix(0.0127, -0.0094, 0.0094, 0.0127, 49.55, 8.1)" gradientUnits="userSpaceOnUse" id="gradient5" r="819.2" spreadMethod="pad">
      <stop offset="0.3843137254901961" stop-color="#33ccff"/>
      <stop offset="1.0" stop-color="#3399ff"/>
    </radialGradient>
  </defs>
</svg>
