<?xml version="1.0" encoding="UTF-8" standalone="no"?>
<svg xmlns:xlink="http://www.w3.org/1999/xlink" height="198.55px" width="109.8px" xmlns="http://www.w3.org/2000/svg">
  <g transform="matrix(1.0, 0.0, 0.0, 1.0, 55.05, 100.0)">
    <path d="M6.45 -72.8 Q7.9 -72.6 9.05 -71.45 10.45 -70.05 10.5 -68.05 10.45 -66.05 9.05 -64.65 7.65 -63.2 5.65 -63.2 3.65 -63.2 2.2 -64.65 0.8 -66.05 0.8 -68.05 0.8 -69.4 1.45 -70.45 L2.25 -71.55 Q3.6 -72.9 5.5 -72.9 L6.45 -72.8 M8.35 -71.15 Q7.2 -72.3 5.5 -72.3 3.8 -72.3 2.6 -71.15 1.45 -69.95 1.45 -68.25 1.45 -66.55 2.6 -65.4 3.8 -64.2 5.5 -64.2 L5.85 -64.2 Q7.3 -64.3 8.35 -65.4 L9.25 -66.6 9.55 -68.25 Q9.55 -69.95 8.35 -71.15 M3.15 -69.6 Q4.55 -69.05 3.45 -68.05 L2.95 -67.95 Q1.8 -68.5 2.65 -69.35 L3.15 -69.6 M-6.9 -72.25 Q-5.45 -70.8 -5.45 -68.8 -5.45 -66.8 -6.9 -65.4 L-7.1 -65.2 -7.15 -65.25 Q-7.55 -64.85 -8.0 -64.55 -9.05 -63.9 -10.4 -63.9 -12.3 -63.9 -13.65 -65.25 -14.3 -65.9 -14.6 -66.65 -15.1 -67.65 -15.1 -68.8 -15.1 -70.8 -13.7 -72.25 -12.3 -73.65 -10.3 -73.65 -9.0 -73.65 -7.9 -73.0 L-6.9 -72.25 M-7.2 -71.55 Q-8.35 -72.7 -10.05 -72.7 -11.75 -72.7 -12.95 -71.55 -14.1 -70.35 -14.1 -68.65 -14.1 -66.95 -12.95 -65.8 -11.75 -64.6 -10.05 -64.6 L-9.7 -64.6 Q-8.25 -64.7 -7.2 -65.8 L-6.3 -67.0 Q-6.0 -67.75 -6.0 -68.65 -6.0 -70.35 -7.2 -71.55 M-11.85 -68.7 L-12.35 -68.6 Q-13.5 -69.15 -12.65 -70.0 L-12.15 -70.25 Q-10.75 -69.7 -11.85 -68.7" fill="#ffffff" fill-rule="evenodd" stroke="none"/>
    <path d="M-20.0 -69.6 Q-22.05 -63.7 -13.2 -60.3 -1.1 -57.4 10.95 -61.35 16.3 -64.5 14.7 -69.35 18.15 -68.4 20.65 -60.7 21.75 -51.9 26.8 -42.1 40.85 -21.75 48.35 6.7 L47.35 7.4 46.8 6.85 42.3 8.8 41.9 11.15 Q41.25 14.1 39.8 17.25 L39.7 17.5 Q39.05 19.95 41.7 19.1 L43.25 18.55 43.7 18.45 Q42.0 40.05 21.8 48.05 L18.15 49.3 Q7.3 53.05 -4.0 53.2 L-8.2 53.15 Q-18.4 52.65 -28.9 49.3 L-31.95 48.05 Q-51.4 38.9 -53.65 11.95 L-53.6 12.0 -52.05 12.5 Q-50.55 13.1 -50.4 14.6 L-50.3 17.3 Q-50.05 19.05 -48.35 17.5 L-46.55 15.85 Q-45.4 14.9 -43.7 15.4 L-42.05 16.05 Q-39.4 16.95 -39.95 14.3 -41.2 11.15 -41.7 7.8 L-41.95 5.5 -46.75 4.2 -47.35 4.8 -47.5 4.7 Q-45.5 -12.75 -39.05 -29.25 -45.5 -12.75 -47.5 4.7 L-47.35 4.8 Q-50.05 7.35 -53.85 9.25 L-53.9 7.9 Q-52.7 -12.9 -39.55 -33.7 -32.3 -44.0 -27.9 -55.25 -24.95 -67.9 -20.0 -69.6 M20.85 -21.55 Q26.1 -6.25 38.95 6.45 L41.05 11.75 41.9 11.15 41.05 11.75 38.95 6.45 Q26.1 -6.25 20.85 -21.55 M-20.5 -21.55 Q-28.8 -5.9 -41.55 7.9 L-41.7 7.8 -41.55 7.9 Q-28.8 -5.9 -20.5 -21.55" fill="url(#gradient0)" fill-rule="evenodd" stroke="none"/>
    <path d="M-20.0 -69.6 Q-17.7 -74.75 -16.75 -82.5 -14.9 -94.8 -4.15 -98.05 L-3.5 -99.2 Q-2.7 -100.0 -1.55 -100.0 -0.4 -100.0 0.4 -99.2 L1.1 -98.1 Q10.95 -95.75 12.95 -82.75 13.5 -74.75 14.7 -69.35 16.3 -64.5 10.95 -61.35 -1.1 -57.4 -13.2 -60.3 -22.05 -63.7 -20.0 -69.6 M6.45 -72.8 L5.5 -72.9 Q3.6 -72.9 2.25 -71.55 L1.45 -70.45 Q0.8 -69.4 0.8 -68.05 0.8 -66.05 2.2 -64.65 3.65 -63.2 5.65 -63.2 7.65 -63.2 9.05 -64.65 10.45 -66.05 10.5 -68.05 10.45 -70.05 9.05 -71.45 7.9 -72.6 6.45 -72.8 M-6.9 -72.25 L-7.9 -73.0 Q-9.0 -73.65 -10.3 -73.65 -12.3 -73.65 -13.7 -72.25 -15.1 -70.8 -15.1 -68.8 -15.1 -67.65 -14.6 -66.65 -14.3 -65.9 -13.65 -65.25 -12.3 -63.9 -10.4 -63.9 -9.05 -63.9 -8.0 -64.55 -7.55 -64.85 -7.15 -65.25 L-7.1 -65.2 -6.9 -65.4 Q-5.45 -66.8 -5.45 -68.8 -5.45 -70.8 -6.9 -72.25" fill="url(#gradient1)" fill-rule="evenodd" stroke="none"/>
    <path d="M-8.2 53.15 Q-13.35 63.2 -16.3 77.25 -18.2 87.85 -24.95 96.85 -25.4 86.35 -22.2 75.8 -25.2 59.55 -31.95 48.05 L-28.9 49.3 Q-18.4 52.65 -8.2 53.15" fill="url(#gradient2)" fill-rule="evenodd" stroke="none"/>
    <path d="M21.8 48.05 Q12.5 59.3 7.0 77.0 7.8 88.2 4.55 98.55 -1.35 87.3 0.05 77.0 -0.3 62.7 -4.0 53.2 7.3 53.05 18.15 49.3 L21.8 48.05" fill="url(#gradient3)" fill-rule="evenodd" stroke="none"/>
    <path d="M-53.65 11.95 Q-56.2 10.95 -54.15 9.45 L-53.9 9.3 -53.85 9.25 Q-50.05 7.35 -47.35 4.8 L-46.75 4.2 -41.95 5.5 -41.7 7.8 Q-41.2 11.15 -39.95 14.3 -39.4 16.95 -42.05 16.05 L-43.7 15.4 Q-45.4 14.9 -46.55 15.85 L-48.35 17.5 Q-50.05 19.05 -50.3 17.3 L-50.4 14.6 Q-50.55 13.1 -52.05 12.5 L-53.6 12.0 -53.65 11.95" fill="url(#gradient4)" fill-rule="evenodd" stroke="none"/>
    <path d="M47.35 7.4 Q50.2 10.4 53.85 12.5 55.9 14.2 53.25 15.15 L51.6 15.65 Q49.95 16.3 49.65 17.75 L49.25 20.2 Q48.85 22.45 47.6 21.25 L45.8 19.2 Q44.95 18.25 43.7 18.45 L43.25 18.55 41.7 19.1 Q39.05 19.95 39.7 17.5 L39.8 17.25 Q41.25 14.1 41.9 11.15 L42.3 8.8 46.8 6.85 47.35 7.4" fill="url(#gradient5)" fill-rule="evenodd" stroke="none"/>
    <path d="M8.35 -71.15 Q9.55 -69.95 9.55 -68.25 L9.25 -66.6 8.35 -65.4 Q7.3 -64.3 5.85 -64.2 L5.5 -64.2 Q3.8 -64.2 2.6 -65.4 1.45 -66.55 1.45 -68.25 1.45 -69.95 2.6 -71.15 3.8 -72.3 5.5 -72.3 7.2 -72.3 8.35 -71.15 M3.15 -69.6 L2.65 -69.35 Q1.8 -68.5 2.95 -67.95 L3.45 -68.05 Q4.55 -69.05 3.15 -69.6 M-7.2 -71.55 Q-6.0 -70.35 -6.0 -68.65 -6.0 -67.75 -6.3 -67.0 L-7.2 -65.8 Q-8.25 -64.7 -9.7 -64.6 L-10.05 -64.6 Q-11.75 -64.6 -12.95 -65.8 -14.1 -66.95 -14.1 -68.65 -14.1 -70.35 -12.95 -71.55 -11.75 -72.7 -10.05 -72.7 -8.35 -72.7 -7.2 -71.55 M-11.85 -68.7 Q-10.75 -69.7 -12.15 -70.25 L-12.65 -70.0 Q-13.5 -69.15 -12.35 -68.6 L-11.85 -68.7" fill="#884400" fill-rule="evenodd" stroke="none"/>
    <path d="M14.7 -69.35 Q13.5 -74.75 12.95 -82.75 10.95 -95.75 1.1 -98.1 L0.4 -99.2 Q-0.4 -100.0 -1.55 -100.0 -2.7 -100.0 -3.5 -99.2 L-4.15 -98.05 Q-14.9 -94.8 -16.75 -82.5 -17.7 -74.75 -20.0 -69.6 -22.05 -63.7 -13.2 -60.3 -1.1 -57.4 10.95 -61.35 16.3 -64.5 14.7 -69.35 18.15 -68.4 20.65 -60.7 21.75 -51.9 26.8 -42.1 40.85 -21.75 48.35 6.7 L47.35 7.4 M43.7 18.45 Q42.0 40.05 21.8 48.05 12.5 59.3 7.0 77.0 7.8 88.2 4.55 98.55 -1.35 87.3 0.05 77.0 -0.3 62.7 -4.0 53.2 L-8.2 53.15 Q-13.35 63.2 -16.3 77.25 -18.2 87.85 -24.95 96.85 -25.4 86.35 -22.2 75.8 -25.2 59.55 -31.95 48.05 -51.4 38.9 -53.65 11.95 M-53.85 9.25 L-53.9 7.9 Q-52.7 -12.9 -39.55 -33.7 -32.3 -44.0 -27.9 -55.25 -24.95 -67.9 -20.0 -69.6 M41.9 11.15 L41.05 11.75 38.95 6.45 Q26.1 -6.25 20.85 -21.55 M21.8 48.05 L18.15 49.3 Q7.3 53.05 -4.0 53.2 M-8.2 53.15 Q-18.4 52.65 -28.9 49.3 L-31.95 48.05 M-41.7 7.8 L-41.55 7.9 Q-28.8 -5.9 -20.5 -21.55 M-39.05 -29.25 Q-45.5 -12.75 -47.5 4.7 L-47.35 4.8" fill="none" stroke="#3366cc" stroke-linecap="round" stroke-linejoin="round" stroke-width="0.05"/>
    <path d="M47.35 7.4 Q50.2 10.4 53.85 12.5 55.9 14.2 53.25 15.15 L51.6 15.65 Q49.95 16.3 49.65 17.75 L49.25 20.2 Q48.85 22.45 47.6 21.25 L45.8 19.2 Q44.95 18.25 43.7 18.45 M-53.65 11.95 Q-56.2 10.95 -54.15 9.45 L-53.9 9.3 -53.85 9.25 M47.35 7.4 L46.8 6.85 M42.3 8.8 L41.9 11.15 Q41.25 14.1 39.8 17.25 L39.7 17.5 Q39.05 19.95 41.7 19.1 L43.25 18.55 43.7 18.45 M-41.95 5.5 L-41.7 7.8 Q-41.2 11.15 -39.95 14.3 -39.4 16.95 -42.05 16.05 L-43.7 15.4 Q-45.4 14.9 -46.55 15.85 L-48.35 17.5 Q-50.05 19.05 -50.3 17.3 L-50.4 14.6 Q-50.55 13.1 -52.05 12.5 L-53.6 12.0 -53.65 11.95 M-47.35 4.8 L-46.75 4.2 M-47.35 4.8 Q-50.05 7.35 -53.85 9.25" fill="none" stroke="#3366cc" stroke-linecap="round" stroke-linejoin="round" stroke-width="0.05"/>
  </g>
  <defs>
    <radialGradient cx="0" cy="0" gradientTransform="matrix(0.0883, 0.0, 0.0, 0.0883, -1.0, 0.0)" gradientUnits="userSpaceOnUse" id="gradient0" r="819.2" spreadMethod="pad">
      <stop offset="0.3843137254901961" stop-color="#33ccff"/>
      <stop offset="1.0" stop-color="#3399ff"/>
    </radialGradient>
    <radialGradient cx="0" cy="0" gradientTransform="matrix(0.0352, 0.0, 0.0, 0.0352, 0.45, -85.15)" gradientUnits="userSpaceOnUse" id="gradient1" r="819.2" spreadMethod="pad">
      <stop offset="0.3843137254901961" stop-color="#33ccff"/>
      <stop offset="1.0" stop-color="#3399ff"/>
    </radialGradient>
    <radialGradient cx="0" cy="0" gradientTransform="matrix(0.0428, 0.0, 0.0, 0.0428, -12.75, 64.0)" gradientUnits="userSpaceOnUse" id="gradient2" r="819.2" spreadMethod="pad">
      <stop offset="0.3843137254901961" stop-color="#33ccff"/>
      <stop offset="1.0" stop-color="#3399ff"/>
    </radialGradient>
    <radialGradient cx="0" cy="0" gradientTransform="matrix(0.0557, 0.0, 0.0, 0.0557, 5.85, 53.5)" gradientUnits="userSpaceOnUse" id="gradient3" r="819.2" spreadMethod="pad">
      <stop offset="0.3843137254901961" stop-color="#33ccff"/>
      <stop offset="1.0" stop-color="#3399ff"/>
    </radialGradient>
    <radialGradient cx="0" cy="0" gradientTransform="matrix(0.0153, 0.0041, -0.0041, 0.0153, -42.15, 11.4)" gradientUnits="userSpaceOnUse" id="gradient4" r="819.2" spreadMethod="pad">
      <stop offset="0.3843137254901961" stop-color="#33ccff"/>
      <stop offset="1.0" stop-color="#3399ff"/>
    </radialGradient>
    <radialGradient cx="0" cy="0" gradientTransform="matrix(0.0145, -0.0063, 0.0063, 0.0145, 50.3, 11.55)" gradientUnits="userSpaceOnUse" id="gradient5" r="819.2" spreadMethod="pad">
      <stop offset="0.3843137254901961" stop-color="#33ccff"/>
      <stop offset="1.0" stop-color="#3399ff"/>
    </radialGradient>
  </defs>
</svg>
