<?xml version="1.0" encoding="UTF-8" standalone="no"?>
<svg xmlns:xlink="http://www.w3.org/1999/xlink" height="167.75px" width="111.45px" xmlns="http://www.w3.org/2000/svg">
  <g transform="matrix(1.0, 0.0, 0.0, 1.0, 56.15, 84.6)">
    <path d="M2.7 -52.2 Q1.55 -52.75 2.45 -53.6 L2.9 -53.85 Q4.3 -53.35 3.25 -52.3 L2.7 -52.2 M1.5 -55.5 Q2.95 -56.9 4.95 -56.9 6.95 -56.9 8.35 -55.5 L9.35 -54.05 Q9.75 -53.15 9.8 -52.1 9.75 -50.1 8.35 -48.7 6.95 -47.25 4.95 -47.25 2.95 -47.25 1.5 -48.7 0.1 -50.1 0.1 -52.1 0.1 -52.95 0.4 -53.7 0.7 -54.7 1.5 -55.5 M2.05 -55.05 Q0.9 -53.85 0.9 -52.15 0.9 -50.45 2.05 -49.3 3.25 -48.1 4.95 -48.1 L5.3 -48.1 Q6.75 -48.2 7.8 -49.3 L8.7 -50.5 9.0 -52.15 Q9.0 -53.85 7.8 -55.05 6.65 -56.2 4.95 -56.2 3.25 -56.2 2.05 -55.05 M-10.7 -57.7 L-10.6 -57.7 -10.55 -57.7 -9.95 -57.6 -9.25 -57.35 -8.6 -57.05 -7.6 -56.3 Q-6.15 -54.85 -6.15 -52.85 -6.15 -50.85 -7.6 -49.45 -8.15 -48.9 -8.75 -48.55 -9.75 -48.05 -11.0 -48.05 -13.0 -48.05 -14.4 -49.45 -15.8 -50.85 -15.8 -52.85 -15.8 -54.85 -14.4 -56.3 -13.45 -57.25 -12.25 -57.55 L-11.45 -57.65 -11.0 -57.7 -10.9 -57.7 -10.8 -57.7 -10.7 -57.7 M-11.05 -57.1 Q-12.75 -57.1 -13.95 -55.95 -15.1 -54.75 -15.1 -53.05 -15.1 -51.35 -13.95 -50.2 -12.75 -49.0 -11.05 -49.0 L-10.7 -49.0 Q-9.25 -49.1 -8.2 -50.2 -7.65 -50.75 -7.3 -51.4 -7.0 -52.15 -7.0 -53.05 -7.0 -54.75 -8.2 -55.95 -9.35 -57.1 -11.05 -57.1 M-13.15 -53.7 L-13.7 -53.6 Q-14.85 -54.15 -13.95 -55.0 L-13.5 -55.25 Q-12.1 -54.75 -13.15 -53.7" fill="#ffffff" fill-rule="evenodd" stroke="none"/>
    <path d="M1.5 -55.5 Q0.7 -54.7 0.4 -53.7 0.1 -52.95 0.1 -52.1 0.1 -50.1 1.5 -48.7 2.95 -47.25 4.95 -47.25 6.95 -47.25 8.35 -48.7 9.75 -50.1 9.8 -52.1 9.75 -53.15 9.35 -54.05 L8.35 -55.5 Q6.95 -56.9 4.95 -56.9 2.95 -56.9 1.5 -55.5 M-19.9 -55.9 Q-18.15 -60.6 -17.35 -67.1 -15.5 -79.3 -5.0 -82.6 L-4.3 -83.8 Q-3.5 -84.6 -2.35 -84.6 -1.2 -84.6 -0.4 -83.8 L0.25 -82.75 Q10.35 -80.5 12.35 -67.35 12.85 -59.85 13.95 -54.65 L14.1 -53.95 Q16.45 -48.1 7.7 -42.2 -2.15 -38.7 -10.65 -42.2 -22.8 -48.65 -20.6 -54.2 L-19.9 -55.9 M-10.7 -57.7 L-10.8 -57.7 -10.9 -57.7 -11.0 -57.7 -11.45 -57.65 -12.25 -57.55 Q-13.45 -57.25 -14.4 -56.3 -15.8 -54.85 -15.8 -52.85 -15.8 -50.85 -14.4 -49.45 -13.0 -48.05 -11.0 -48.05 -9.75 -48.05 -8.75 -48.55 -8.15 -48.9 -7.6 -49.45 -6.15 -50.85 -6.15 -52.85 -6.15 -54.85 -7.6 -56.3 L-8.6 -57.05 -9.25 -57.35 -9.95 -57.6 -10.55 -57.7 -10.6 -57.7 -10.7 -57.7" fill="url(#gradient0)" fill-rule="evenodd" stroke="none"/>
    <path d="M-9.2 60.95 Q-11.25 61.3 -12.95 62.6 -14.35 63.7 -15.5 65.4 -17.05 75.3 -23.95 83.15 -25.3 74.15 -21.75 64.2 -24.75 60.9 -28.65 59.55 -22.05 61.65 -14.3 61.1 L-9.2 60.95" fill="url(#gradient1)" fill-rule="evenodd" stroke="none"/>
    <path d="M12.0 57.95 Q7.45 59.75 3.65 64.45 4.15 73.45 1.5 81.75 -2.45 73.85 -2.6 64.85 -5.65 61.5 -9.2 60.95 2.45 60.3 12.0 57.95" fill="url(#gradient2)" fill-rule="evenodd" stroke="none"/>
    <path d="M13.95 -54.65 L14.35 -54.55 Q18.35 -53.35 19.5 -49.9 24.2 -33.85 33.35 -20.8 44.95 -4.7 47.65 15.3 L46.6 14.45 42.3 16.9 42.3 17.7 Q42.2 21.45 40.85 25.6 L40.8 25.9 Q40.4 28.4 42.95 27.25 L44.4 26.55 46.2 26.4 Q45.9 39.7 34.35 48.05 25.15 54.65 12.0 57.95 2.45 60.3 -9.2 60.95 L-14.3 61.1 Q-22.05 61.65 -28.65 59.55 L-28.9 59.5 Q-39.25 56.1 -46.7 46.2 -53.0 36.1 -54.45 23.45 L-53.15 23.9 Q-51.65 24.5 -51.5 26.0 L-51.4 28.7 Q-51.15 30.45 -49.45 28.9 L-47.65 27.25 Q-46.5 26.3 -44.8 26.8 L-43.15 27.45 Q-40.5 28.35 -41.05 25.7 -42.6 21.9 -43.0 17.85 L-43.05 16.9 -47.85 15.6 -48.6 16.35 Q-51.15 18.7 -54.75 20.6 -55.1 16.15 -54.85 11.4 -51.5 -13.65 -35.3 -34.05 -28.85 -41.05 -25.95 -50.15 -25.05 -54.0 -21.1 -55.5 L-19.9 -55.9 -20.6 -54.2 Q-22.8 -48.65 -10.65 -42.2 -2.15 -38.7 7.7 -42.2 16.45 -48.1 14.1 -53.95 L13.95 -54.65 M20.05 -8.4 Q30.3 16.45 42.3 17.7 30.3 16.45 20.05 -8.4 M-43.0 17.85 L-42.65 17.9 Q-33.45 5.15 -24.3 -2.25 -33.45 5.15 -42.65 17.9 L-43.0 17.85 M-42.65 -18.95 Q-50.35 0.95 -48.6 16.35 -50.35 0.95 -42.65 -18.95" fill="url(#gradient3)" fill-rule="evenodd" stroke="none"/>
    <path d="M47.65 15.3 Q50.65 17.7 54.25 19.25 56.5 20.7 54.0 21.95 L52.4 22.65 Q50.8 23.5 50.7 25.0 L50.6 27.45 Q50.45 29.75 49.05 28.7 L47.05 26.85 46.2 26.4 44.4 26.55 42.95 27.25 Q40.4 28.4 40.8 25.9 L40.85 25.6 Q42.2 21.45 42.3 17.7 L42.3 16.9 46.6 14.45 47.65 15.3" fill="url(#gradient4)" fill-rule="evenodd" stroke="none"/>
    <path d="M-54.45 23.45 L-54.7 23.4 Q-57.3 22.4 -55.25 20.85 L-55.0 20.7 -54.75 20.6 Q-51.15 18.7 -48.6 16.35 L-47.85 15.6 -43.05 16.9 -43.0 17.85 Q-42.6 21.9 -41.05 25.7 -40.5 28.35 -43.15 27.45 L-44.8 26.8 Q-46.5 26.3 -47.65 27.25 L-49.45 28.9 Q-51.15 30.45 -51.4 28.7 L-51.5 26.0 Q-51.65 24.5 -53.15 23.9 L-54.45 23.45" fill="url(#gradient5)" fill-rule="evenodd" stroke="none"/>
    <path d="M2.7 -52.2 L3.25 -52.3 Q4.3 -53.35 2.9 -53.85 L2.45 -53.6 Q1.55 -52.75 2.7 -52.2 M2.05 -55.05 Q3.25 -56.2 4.95 -56.2 6.65 -56.2 7.8 -55.05 9.0 -53.85 9.0 -52.15 L8.7 -50.5 7.8 -49.3 Q6.75 -48.2 5.3 -48.1 L4.95 -48.1 Q3.25 -48.1 2.05 -49.3 0.9 -50.45 0.9 -52.15 0.9 -53.85 2.05 -55.05 M-11.05 -57.1 Q-9.35 -57.1 -8.2 -55.95 -7.0 -54.75 -7.0 -53.05 -7.0 -52.15 -7.3 -51.4 -7.65 -50.75 -8.2 -50.2 -9.25 -49.1 -10.7 -49.0 L-11.05 -49.0 Q-12.75 -49.0 -13.95 -50.2 -15.1 -51.35 -15.1 -53.05 -15.1 -54.75 -13.95 -55.95 -12.75 -57.1 -11.05 -57.1 M-13.15 -53.7 Q-12.1 -54.75 -13.5 -55.25 L-13.95 -55.0 Q-14.85 -54.15 -13.7 -53.6 L-13.15 -53.7" fill="#884400" fill-rule="evenodd" stroke="none"/>
    <path d="M1.5 -55.5 Q2.95 -56.9 4.95 -56.9 6.95 -56.9 8.35 -55.5 L9.35 -54.05 Q9.75 -53.15 9.8 -52.1 9.75 -50.1 8.35 -48.7 6.95 -47.25 4.95 -47.25 2.95 -47.25 1.5 -48.7 0.1 -50.1 0.1 -52.1 0.1 -52.95 0.4 -53.7 0.7 -54.7 1.5 -55.5 M13.95 -54.65 L14.35 -54.55 Q18.35 -53.35 19.5 -49.9 24.2 -33.85 33.35 -20.8 44.95 -4.7 47.65 15.3 M46.2 26.4 Q45.9 39.7 34.35 48.05 25.15 54.65 12.0 57.95 7.45 59.75 3.65 64.45 4.15 73.45 1.5 81.75 -2.45 73.85 -2.6 64.85 -5.65 61.5 -9.2 60.95 -11.25 61.3 -12.95 62.6 -14.35 63.7 -15.5 65.4 -17.05 75.3 -23.95 83.15 -25.3 74.15 -21.75 64.2 -24.75 60.9 -28.65 59.55 L-28.9 59.5 Q-39.25 56.1 -46.7 46.2 -53.0 36.1 -54.45 23.45 M-54.75 20.6 Q-55.1 16.15 -54.85 11.4 -51.5 -13.65 -35.3 -34.05 -28.85 -41.05 -25.95 -50.15 -25.05 -54.0 -21.1 -55.5 L-19.9 -55.9 Q-18.15 -60.6 -17.35 -67.1 -15.5 -79.3 -5.0 -82.6 L-4.3 -83.8 Q-3.5 -84.6 -2.35 -84.6 -1.2 -84.6 -0.4 -83.8 L0.25 -82.75 Q10.35 -80.5 12.35 -67.35 12.85 -59.85 13.95 -54.65 L14.1 -53.95 Q16.45 -48.1 7.7 -42.2 -2.15 -38.7 -10.65 -42.2 -22.8 -48.65 -20.6 -54.2 L-19.9 -55.9 M42.3 17.7 Q30.3 16.45 20.05 -8.4 M-10.7 -57.7 L-10.6 -57.7 -10.55 -57.7 -9.95 -57.6 -9.25 -57.35 -8.6 -57.05 -7.6 -56.3 Q-6.15 -54.85 -6.15 -52.85 -6.15 -50.85 -7.6 -49.45 -8.15 -48.9 -8.75 -48.55 -9.75 -48.05 -11.0 -48.05 -13.0 -48.05 -14.4 -49.45 -15.8 -50.85 -15.8 -52.85 -15.8 -54.85 -14.4 -56.3 -13.45 -57.25 -12.25 -57.55 L-11.45 -57.65 -11.0 -57.7 -10.9 -57.7 -10.8 -57.7 -10.7 -57.7 M-24.3 -2.25 Q-33.45 5.15 -42.65 17.9 L-43.0 17.85 M-28.65 59.55 Q-22.05 61.65 -14.3 61.1 L-9.2 60.95 Q2.45 60.3 12.0 57.95 M-48.6 16.35 Q-50.35 0.95 -42.65 -18.95" fill="none" stroke="#3366cc" stroke-linecap="round" stroke-linejoin="round" stroke-width="0.05"/>
    <path d="M47.65 15.3 Q50.65 17.7 54.25 19.25 56.5 20.7 54.0 21.95 L52.4 22.65 Q50.8 23.5 50.7 25.0 L50.6 27.45 Q50.45 29.75 49.05 28.7 L47.05 26.85 46.2 26.4 M-54.45 23.45 L-54.7 23.4 Q-57.3 22.4 -55.25 20.85 L-55.0 20.7 -54.75 20.6 M42.3 16.9 L42.3 17.7 Q42.2 21.45 40.85 25.6 L40.8 25.9 Q40.4 28.4 42.95 27.25 L44.4 26.55 46.2 26.4 M47.65 15.3 L46.6 14.45 M-54.45 23.45 L-53.15 23.9 Q-51.65 24.5 -51.5 26.0 L-51.4 28.7 Q-51.15 30.45 -49.45 28.9 L-47.65 27.25 Q-46.5 26.3 -44.8 26.8 L-43.15 27.45 Q-40.5 28.35 -41.05 25.7 -42.6 21.9 -43.0 17.85 L-43.05 16.9 M-47.85 15.6 L-48.6 16.35 Q-51.15 18.7 -54.75 20.6" fill="none" stroke="#3366cc" stroke-linecap="round" stroke-linejoin="round" stroke-width="0.05"/>
  </g>
  <defs>
    <radialGradient cx="0" cy="0" gradientTransform="matrix(0.0306, 0.0, 0.0, 0.0306, 2.25, -60.65)" gradientUnits="userSpaceOnUse" id="gradient0" r="819.2" spreadMethod="pad">
      <stop offset="0.3843137254901961" stop-color="#33ccff"/>
      <stop offset="1.0" stop-color="#3399ff"/>
    </radialGradient>
    <radialGradient cx="0" cy="0" gradientTransform="matrix(0.019, 0.0, 0.0, 0.019, -21.3, 70.7)" gradientUnits="userSpaceOnUse" id="gradient1" r="819.2" spreadMethod="pad">
      <stop offset="0.3843137254901961" stop-color="#33ccff"/>
      <stop offset="1.0" stop-color="#3399ff"/>
    </radialGradient>
    <radialGradient cx="0" cy="0" gradientTransform="matrix(0.0222, 0.0, 0.0, 0.0222, 2.4, 64.25)" gradientUnits="userSpaceOnUse" id="gradient2" r="819.2" spreadMethod="pad">
      <stop offset="0.3843137254901961" stop-color="#33ccff"/>
      <stop offset="1.0" stop-color="#3399ff"/>
    </radialGradient>
    <radialGradient cx="0" cy="0" gradientTransform="matrix(0.1071, 0.0, 0.0, 0.1071, 8.45, -19.3)" gradientUnits="userSpaceOnUse" id="gradient3" r="819.2" spreadMethod="pad">
      <stop offset="0.3843137254901961" stop-color="#33ccff"/>
      <stop offset="1.0" stop-color="#3399ff"/>
    </radialGradient>
    <radialGradient cx="0" cy="0" gradientTransform="matrix(0.0137, -0.0079, 0.0079, 0.0137, 50.65, 18.75)" gradientUnits="userSpaceOnUse" id="gradient4" r="819.2" spreadMethod="pad">
      <stop offset="0.3843137254901961" stop-color="#33ccff"/>
      <stop offset="1.0" stop-color="#3399ff"/>
    </radialGradient>
    <radialGradient cx="0" cy="0" gradientTransform="matrix(0.0153, 0.0041, -0.0041, 0.0153, -43.25, 22.8)" gradientUnits="userSpaceOnUse" id="gradient5" r="819.2" spreadMethod="pad">
      <stop offset="0.3843137254901961" stop-color="#33ccff"/>
      <stop offset="1.0" stop-color="#3399ff"/>
    </radialGradient>
  </defs>
</svg>
