<?xml version="1.0" encoding="UTF-8" standalone="no"?>
<svg xmlns:xlink="http://www.w3.org/1999/xlink" height="160.75px" width="111.45px" xmlns="http://www.w3.org/2000/svg">
  <g transform="matrix(1.0, 0.0, 0.0, 1.0, 56.15, 81.1)">
    <path d="M3.0 -50.75 Q4.4 -50.2 3.35 -49.2 L2.8 -49.1 Q1.65 -49.65 2.55 -50.5 L3.0 -50.75 M8.6 -52.55 Q10.0 -51.15 10.05 -49.15 10.0 -47.15 8.6 -45.75 7.2 -44.3 5.2 -44.3 3.2 -44.3 1.75 -45.75 0.65 -46.85 0.4 -48.35 L0.3 -49.15 0.35 -49.15 Q0.35 -51.15 1.75 -52.55 3.2 -53.95 5.2 -53.95 L5.2 -54.0 5.5 -53.95 Q7.3 -53.85 8.6 -52.55 M8.0 -52.05 Q6.85 -53.2 5.15 -53.2 3.45 -53.2 2.25 -52.05 1.1 -50.85 1.1 -49.15 1.1 -47.45 2.25 -46.3 3.45 -45.1 5.15 -45.1 L5.5 -45.1 Q6.95 -45.2 8.0 -46.3 8.55 -46.85 8.9 -47.5 L9.2 -49.15 Q9.2 -50.85 8.0 -52.05 M-15.55 -50.15 Q-15.5 -52.0 -14.15 -53.35 -12.75 -54.75 -10.75 -54.75 -9.45 -54.75 -8.35 -54.1 L-7.35 -53.35 Q-5.9 -51.9 -5.9 -49.9 -5.9 -47.9 -7.35 -46.5 L-8.5 -45.6 -9.4 -45.25 -10.75 -45.1 Q-12.75 -45.1 -14.15 -46.5 -15.55 -47.9 -15.55 -49.9 L-15.6 -49.9 -15.55 -50.15 M-13.0 -50.5 Q-14.15 -51.0 -13.3 -51.9 L-12.8 -52.1 Q-11.4 -51.6 -12.5 -50.55 L-13.0 -50.5 M-10.85 -54.05 Q-12.55 -54.05 -13.75 -52.9 -14.9 -51.7 -14.9 -50.0 -14.9 -48.3 -13.75 -47.15 -12.55 -45.95 -10.85 -45.95 L-10.5 -45.95 Q-9.05 -46.05 -8.0 -47.15 L-7.1 -48.35 Q-6.8 -49.1 -6.8 -50.0 -6.8 -51.7 -8.0 -52.9 -9.15 -54.05 -10.85 -54.05" fill="#ffffff" fill-rule="evenodd" stroke="none"/>
    <path d="M13.95 -51.15 L14.35 -51.05 Q18.35 -49.85 19.5 -46.4 24.2 -30.35 33.35 -17.3 44.95 -1.2 47.65 18.8 L46.6 17.95 42.3 20.4 42.3 21.2 Q42.2 24.95 40.85 29.1 L40.8 29.4 Q40.4 31.9 42.95 30.75 L44.4 30.05 46.2 29.9 Q45.9 43.2 34.35 51.55 25.15 58.15 12.0 61.45 L5.15 62.9 -1.1 63.75 -9.2 64.45 -14.3 64.6 -14.6 64.65 Q-18.2 64.85 -21.5 64.5 -25.25 64.15 -28.65 63.05 L-28.9 63.0 Q-39.25 59.6 -46.7 49.7 -53.0 39.6 -54.45 26.95 L-53.15 27.4 Q-51.65 28.0 -51.5 29.5 L-51.4 32.2 Q-51.15 33.95 -49.45 32.4 L-47.65 30.75 Q-46.5 29.8 -44.8 30.3 L-43.15 30.95 Q-40.5 31.85 -41.05 29.2 -42.6 25.4 -43.0 21.35 L-43.05 20.4 -47.85 19.1 -48.6 19.85 Q-51.15 22.2 -54.75 24.1 -55.1 19.65 -54.85 14.9 -51.5 -10.15 -35.3 -30.55 -28.85 -37.55 -25.95 -46.65 -25.05 -50.45 -21.25 -51.95 L-21.1 -52.0 -19.9 -52.4 -20.6 -50.7 Q-22.8 -45.15 -10.65 -38.7 -2.15 -35.2 7.7 -38.7 16.45 -44.6 14.1 -50.45 L13.95 -51.15 M-42.65 -15.45 Q-50.35 4.45 -48.6 19.85 -50.35 4.45 -42.65 -15.45 M20.05 -4.9 Q30.3 19.95 42.3 21.2 30.3 19.95 20.05 -4.9 M-43.0 21.35 L-42.65 21.4 Q-33.45 8.65 -24.3 1.25 -33.45 8.65 -42.65 21.4 L-43.0 21.35" fill="url(#gradient0)" fill-rule="evenodd" stroke="none"/>
    <path d="M8.6 -52.55 Q7.3 -53.85 5.5 -53.95 L5.2 -54.0 5.2 -53.95 Q3.2 -53.95 1.75 -52.55 0.35 -51.15 0.35 -49.15 L0.3 -49.15 0.4 -48.35 Q0.65 -46.85 1.75 -45.75 3.2 -44.3 5.2 -44.3 7.2 -44.3 8.6 -45.75 10.0 -47.15 10.05 -49.15 10.0 -51.15 8.6 -52.55 M13.95 -51.15 L14.1 -50.45 Q16.45 -44.6 7.7 -38.7 -2.15 -35.2 -10.65 -38.7 -22.8 -45.15 -20.6 -50.7 L-19.9 -52.4 Q-18.15 -57.1 -17.35 -63.6 -15.55 -75.65 -5.2 -79.05 -5.05 -79.75 -4.5 -80.3 -3.7 -81.1 -2.55 -81.1 -1.4 -81.1 -0.6 -80.3 L0.05 -79.3 Q10.35 -77.1 12.35 -63.85 12.85 -56.35 13.95 -51.15 M-15.55 -50.15 L-15.6 -49.9 -15.55 -49.9 Q-15.55 -47.9 -14.15 -46.5 -12.75 -45.1 -10.75 -45.1 L-9.4 -45.25 -8.5 -45.6 -7.35 -46.5 Q-5.9 -47.9 -5.9 -49.9 -5.9 -51.9 -7.35 -53.35 L-8.35 -54.1 Q-9.45 -54.75 -10.75 -54.75 -12.75 -54.75 -14.15 -53.35 -15.5 -52.0 -15.55 -50.15" fill="url(#gradient1)" fill-rule="evenodd" stroke="none"/>
    <path d="M-14.6 64.65 Q-16.6 72.9 -22.55 79.65 -23.6 72.35 -21.5 64.5 -18.2 64.85 -14.6 64.65" fill="url(#gradient2)" fill-rule="evenodd" stroke="none"/>
    <path d="M5.15 62.9 Q5.25 70.85 2.9 78.25 -0.55 71.4 -1.1 63.75 L5.15 62.9" fill="url(#gradient3)" fill-rule="evenodd" stroke="none"/>
    <path d="M47.65 18.8 Q50.65 21.2 54.25 22.75 56.5 24.2 54.0 25.45 L52.4 26.15 Q50.8 27.0 50.7 28.5 L50.6 30.95 Q50.45 33.25 49.05 32.2 L47.05 30.35 46.2 29.9 44.4 30.05 42.95 30.75 Q40.4 31.9 40.8 29.4 L40.85 29.1 Q42.2 24.95 42.3 21.2 L42.3 20.4 46.6 17.95 47.65 18.8" fill="url(#gradient4)" fill-rule="evenodd" stroke="none"/>
    <path d="M-54.75 24.1 Q-51.15 22.2 -48.6 19.85 L-47.85 19.1 -43.05 20.4 -43.0 21.35 Q-42.6 25.4 -41.05 29.2 -40.5 31.85 -43.15 30.95 L-44.8 30.3 Q-46.5 29.8 -47.65 30.75 L-49.45 32.4 Q-51.15 33.95 -51.4 32.2 L-51.5 29.5 Q-51.65 28.0 -53.15 27.4 L-54.45 26.95 -54.7 26.9 Q-57.3 25.9 -55.25 24.35 L-55.0 24.2 -54.75 24.1" fill="url(#gradient5)" fill-rule="evenodd" stroke="none"/>
    <path d="M3.0 -50.75 L2.55 -50.5 Q1.65 -49.65 2.8 -49.1 L3.35 -49.2 Q4.4 -50.2 3.0 -50.75 M8.0 -52.05 Q9.2 -50.85 9.2 -49.15 L8.9 -47.5 Q8.55 -46.85 8.0 -46.3 6.95 -45.2 5.5 -45.1 L5.15 -45.1 Q3.45 -45.1 2.25 -46.3 1.1 -47.45 1.1 -49.15 1.1 -50.85 2.25 -52.05 3.45 -53.2 5.15 -53.2 6.85 -53.2 8.0 -52.05 M-13.0 -50.5 L-12.5 -50.55 Q-11.4 -51.6 -12.8 -52.1 L-13.3 -51.9 Q-14.15 -51.0 -13.0 -50.5 M-10.85 -54.05 Q-9.15 -54.05 -8.0 -52.9 -6.8 -51.7 -6.8 -50.0 -6.8 -49.1 -7.1 -48.35 L-8.0 -47.15 Q-9.05 -46.05 -10.5 -45.95 L-10.85 -45.95 Q-12.55 -45.95 -13.75 -47.15 -14.9 -48.3 -14.9 -50.0 -14.9 -51.7 -13.75 -52.9 -12.55 -54.05 -10.85 -54.05" fill="#884400" fill-rule="evenodd" stroke="none"/>
    <path d="M14.35 -51.05 L13.95 -51.15" fill="none" stroke="#660099" stroke-linecap="round" stroke-linejoin="round" stroke-width="0.05"/>
    <path d="M13.95 -51.15 L14.1 -50.45 Q16.45 -44.6 7.7 -38.7 -2.15 -35.2 -10.65 -38.7 -22.8 -45.15 -20.6 -50.7 L-19.9 -52.4 -21.1 -52.0 -21.25 -51.95 Q-25.05 -50.45 -25.95 -46.65 -28.85 -37.55 -35.3 -30.55 -51.5 -10.15 -54.85 14.9 -55.1 19.65 -54.75 24.1 -51.15 22.2 -48.6 19.85 -50.35 4.45 -42.65 -15.45 M13.95 -51.15 Q12.85 -56.35 12.35 -63.85 10.35 -77.1 0.05 -79.3 M-5.2 -79.05 Q-15.55 -75.65 -17.35 -63.6 -18.15 -57.1 -19.9 -52.4 M14.35 -51.05 Q18.35 -49.85 19.5 -46.4 24.2 -30.35 33.35 -17.3 44.95 -1.2 47.65 18.8 50.65 21.2 54.25 22.75 56.5 24.2 54.0 25.45 L52.4 26.15 Q50.8 27.0 50.7 28.5 L50.6 30.95 Q50.45 33.25 49.05 32.2 L47.05 30.35 46.2 29.9 Q45.9 43.2 34.35 51.55 25.15 58.15 12.0 61.45 L5.15 62.9 Q5.25 70.85 2.9 78.25 -0.55 71.4 -1.1 63.75 L-9.2 64.45 -14.3 64.6 -14.6 64.65 Q-16.6 72.9 -22.55 79.65 -23.6 72.35 -21.5 64.5 -25.25 64.15 -28.65 63.05 L-28.9 63.0 Q-39.25 59.6 -46.7 49.7 -53.0 39.6 -54.45 26.95 L-54.7 26.9 Q-57.3 25.9 -55.25 24.35 L-55.0 24.2 -54.75 24.1 M47.65 18.8 L46.6 17.95 M42.3 20.4 L42.3 21.2 Q42.2 24.95 40.85 29.1 L40.8 29.4 Q40.4 31.9 42.95 30.75 L44.4 30.05 46.2 29.9 M42.3 21.2 Q30.3 19.95 20.05 -4.9 M-54.45 26.95 L-53.15 27.4 Q-51.65 28.0 -51.5 29.5 L-51.4 32.2 Q-51.15 33.95 -49.45 32.4 L-47.65 30.75 Q-46.5 29.8 -44.8 30.3 L-43.15 30.95 Q-40.5 31.85 -41.05 29.2 -42.6 25.4 -43.0 21.35 L-43.05 20.4 M-47.85 19.1 L-48.6 19.85 M-24.3 1.25 Q-33.45 8.65 -42.65 21.4 L-43.0 21.35 M-21.5 64.5 Q-18.2 64.85 -14.6 64.65 M-1.1 63.75 L5.15 62.9" fill="none" stroke="#3366cc" stroke-linecap="round" stroke-linejoin="round" stroke-width="0.05"/>
    <path d="M0.05 -79.3 L-0.6 -80.3 Q-1.4 -81.1 -2.55 -81.1 -3.7 -81.1 -4.5 -80.3 -5.05 -79.75 -5.2 -79.05" fill="none" stroke="#3366cc" stroke-linecap="round" stroke-linejoin="round" stroke-width="0.05"/>
  </g>
  <defs>
    <radialGradient cx="0" cy="0" gradientTransform="matrix(0.0875, 0.0, 0.0, 0.0875, -3.0, -3.0)" gradientUnits="userSpaceOnUse" id="gradient0" r="819.2" spreadMethod="pad">
      <stop offset="0.3843137254901961" stop-color="#33ccff"/>
      <stop offset="1.0" stop-color="#3399ff"/>
    </radialGradient>
    <radialGradient cx="0" cy="0" gradientTransform="matrix(0.03, 0.0, 0.0, 0.03, -6.7, -58.1)" gradientUnits="userSpaceOnUse" id="gradient1" r="819.2" spreadMethod="pad">
      <stop offset="0.3843137254901961" stop-color="#33ccff"/>
      <stop offset="1.0" stop-color="#3399ff"/>
    </radialGradient>
    <radialGradient cx="0" cy="0" gradientTransform="matrix(0.0186, 0.0, 0.0, 0.0186, -21.5, 64.5)" gradientUnits="userSpaceOnUse" id="gradient2" r="819.2" spreadMethod="pad">
      <stop offset="0.3843137254901961" stop-color="#33ccff"/>
      <stop offset="1.0" stop-color="#3399ff"/>
    </radialGradient>
    <radialGradient cx="0" cy="0" gradientTransform="matrix(0.015, 0.0, 0.0, 0.015, -0.8, 66.95)" gradientUnits="userSpaceOnUse" id="gradient3" r="819.2" spreadMethod="pad">
      <stop offset="0.3843137254901961" stop-color="#33ccff"/>
      <stop offset="1.0" stop-color="#3399ff"/>
    </radialGradient>
    <radialGradient cx="0" cy="0" gradientTransform="matrix(0.0137, -0.0079, 0.0079, 0.0137, 50.65, 22.25)" gradientUnits="userSpaceOnUse" id="gradient4" r="819.2" spreadMethod="pad">
      <stop offset="0.3843137254901961" stop-color="#33ccff"/>
      <stop offset="1.0" stop-color="#3399ff"/>
    </radialGradient>
    <radialGradient cx="0" cy="0" gradientTransform="matrix(0.0153, 0.0041, -0.0041, 0.0153, -43.25, 26.3)" gradientUnits="userSpaceOnUse" id="gradient5" r="819.2" spreadMethod="pad">
      <stop offset="0.3843137254901961" stop-color="#33ccff"/>
      <stop offset="1.0" stop-color="#3399ff"/>
    </radialGradient>
  </defs>
</svg>
