<?xml version="1.0" encoding="UTF-8" standalone="no"?>
<svg xmlns:xlink="http://www.w3.org/1999/xlink" height="182.7px" width="96.2px" xmlns="http://www.w3.org/2000/svg">
  <g transform="matrix(1.0, 0.0, 0.0, 1.0, 47.85, 91.2)">
    <path d="M3.55 -90.15 L4.5 -90.0 4.6 -90.0 4.95 -90.05 5.0 -90.05 5.45 -90.2 Q5.85 -90.2 6.1 -89.9 L6.25 -89.75 Q6.4 -89.5 6.8 -89.35 L7.75 -88.9 Q10.05 -87.85 11.65 -86.35 L11.65 -86.3 12.05 -86.15 12.7 -85.85 12.95 -85.15 13.05 -84.65 13.2 -84.5 Q14.65 -82.25 14.95 -79.2 15.45 -74.8 17.5 -72.5 L18.35 -71.65 Q18.9 -71.05 18.45 -70.15 L18.1 -69.6 Q17.6 -68.7 17.8 -67.55 L18.0 -65.55 Q18.5 -61.4 17.05 -57.0 15.75 -53.2 12.0 -51.1 10.5 -50.25 9.05 -50.2 L3.25 -49.1 Q0.8 -48.25 -1.5 -49.1 L-2.4 -49.45 -4.4 -50.0 -4.45 -50.0 -4.5 -50.05 -5.45 -50.2 Q-9.05 -50.95 -11.5 -52.75 -14.75 -55.5 -15.65 -60.6 -16.15 -64.1 -15.25 -67.1 -14.8 -68.6 -15.5 -69.95 L-16.05 -70.75 Q-16.4 -71.35 -16.1 -71.75 L-14.9 -72.8 Q-13.35 -74.85 -12.85 -78.4 -12.2 -82.25 -10.45 -84.85 L-10.35 -85.25 Q-10.35 -85.75 -10.0 -86.1 L-9.3 -86.45 -8.85 -86.65 Q-7.35 -88.1 -5.3 -88.9 L-5.0 -89.0 -4.95 -89.0 -4.7 -89.2 -4.65 -89.25 -4.5 -89.5 Q-4.15 -89.85 -3.6 -89.85 L-3.35 -89.8 -3.1 -89.75 -3.1 -89.7 -2.75 -89.7 -2.7 -89.7 -1.9 -89.85 -1.8 -89.9 Q-0.4 -90.25 0.7 -90.95 L1.9 -91.0 Q2.7 -90.3 3.55 -90.15 M12.65 -63.4 Q14.75 -64.65 14.65 -66.55 14.45 -69.55 12.15 -71.3 10.1 -72.45 8.05 -71.3 5.95 -70.3 4.95 -67.25 4.25 -65.0 6.1 -63.75 8.7 -62.65 12.65 -63.4 M-7.45 -71.85 L-10.0 -71.3 Q-12.3 -69.55 -12.45 -66.55 -12.6 -64.65 -10.5 -63.4 L-10.4 -63.35 -10.35 -63.35 -9.35 -63.2 Q-6.15 -62.85 -3.9 -63.8 -2.1 -65.0 -2.75 -67.3 -3.8 -70.3 -5.85 -71.3 L-7.45 -71.85" fill="url(#gradient0)" fill-rule="evenodd" stroke="none"/>
    <path d="M12.65 -63.4 Q8.7 -62.65 6.1 -63.75 4.25 -65.0 4.95 -67.25 5.95 -70.3 8.05 -71.3 10.1 -72.45 12.15 -71.3 14.45 -69.55 14.65 -66.55 14.75 -64.65 12.65 -63.4 M12.4 -64.85 Q13.4 -65.85 13.4 -67.25 13.4 -68.7 12.4 -69.7 11.45 -70.65 10.0 -70.65 8.55 -70.65 7.55 -69.7 6.6 -68.7 6.6 -67.25 6.6 -65.85 7.55 -64.85 8.55 -63.85 10.0 -63.85 11.45 -63.85 12.4 -64.85 M8.6 -68.85 L8.75 -68.85 Q9.7 -68.65 9.3 -67.8 9.15 -67.45 8.75 -67.5 8.4 -67.55 8.25 -67.7 7.95 -67.85 8.05 -68.3 L8.2 -68.55 8.6 -68.85 M-5.35 -69.75 Q-6.35 -70.7 -7.75 -70.7 -9.2 -70.7 -10.2 -69.75 -11.2 -68.75 -11.2 -67.3 -11.2 -65.85 -10.2 -64.9 -9.2 -63.9 -7.75 -63.85 -6.35 -63.9 -5.35 -64.9 -4.35 -65.85 -4.35 -67.3 -4.35 -68.75 -5.35 -69.75 M-7.45 -71.85 L-5.85 -71.3 Q-3.8 -70.3 -2.75 -67.3 -2.1 -65.0 -3.9 -63.8 -6.15 -62.85 -9.35 -63.2 L-10.35 -63.35 -10.4 -63.35 -10.5 -63.4 Q-12.6 -64.65 -12.45 -66.55 -12.3 -69.55 -10.0 -71.3 L-7.45 -71.85 M-9.45 -69.05 Q-8.5 -68.85 -8.9 -68.0 L-9.45 -67.7 Q-10.3 -67.8 -10.1 -68.6 L-9.8 -68.95 -9.65 -69.0 -9.6 -69.05 -9.5 -69.05 -9.45 -69.05" fill="#ffffff" fill-rule="evenodd" stroke="none"/>
    <path d="M12.4 -64.85 Q11.45 -63.85 10.0 -63.85 8.55 -63.85 7.55 -64.85 6.6 -65.85 6.6 -67.25 6.6 -68.7 7.55 -69.7 8.55 -70.65 10.0 -70.65 11.45 -70.65 12.4 -69.7 13.4 -68.7 13.4 -67.25 13.4 -65.85 12.4 -64.85 M8.6 -68.85 L8.2 -68.55 8.05 -68.3 Q7.95 -67.85 8.25 -67.7 8.4 -67.55 8.75 -67.5 9.15 -67.45 9.3 -67.8 9.7 -68.65 8.75 -68.85 L8.6 -68.85 M-5.35 -69.75 Q-4.35 -68.75 -4.35 -67.3 -4.35 -65.85 -5.35 -64.9 -6.35 -63.9 -7.75 -63.85 -9.2 -63.9 -10.2 -64.9 -11.2 -65.85 -11.2 -67.3 -11.2 -68.75 -10.2 -69.75 -9.2 -70.7 -7.75 -70.7 -6.35 -70.7 -5.35 -69.75 M-9.45 -69.05 L-9.5 -69.05 -9.6 -69.05 -9.65 -69.0 -9.8 -68.95 -10.1 -68.6 Q-10.3 -67.8 -9.45 -67.7 L-8.9 -68.0 Q-8.5 -68.85 -9.45 -69.05" fill="#884400" fill-rule="evenodd" stroke="none"/>
    <path d="M3.55 -90.15 L4.5 -90.0 4.6 -90.0 4.95 -90.05 5.0 -90.05 5.45 -90.2 Q5.85 -90.2 6.1 -89.9 L6.25 -89.75 Q6.4 -89.5 6.8 -89.35 L7.75 -88.9 Q10.05 -87.85 11.65 -86.35 L11.65 -86.3 12.05 -86.15 12.7 -85.85 12.95 -85.15 13.05 -84.65 13.2 -84.5 Q14.65 -82.25 14.95 -79.2 15.45 -74.8 17.5 -72.5 L18.35 -71.65 Q18.9 -71.05 18.45 -70.15 L18.1 -69.6 Q17.6 -68.7 17.8 -67.55 L18.0 -65.55 Q18.5 -61.4 17.05 -57.0 15.75 -53.2 12.0 -51.1 10.5 -50.25 9.05 -50.2 L3.25 -49.1 Q0.8 -48.25 -1.5 -49.1 L-2.4 -49.45 -4.4 -50.0 -4.45 -50.0 -4.5 -50.05 -5.45 -50.2 Q-9.05 -50.95 -11.5 -52.75 -14.75 -55.5 -15.65 -60.6 -16.15 -64.1 -15.25 -67.1 -14.8 -68.6 -15.5 -69.95 L-16.05 -70.75 Q-16.4 -71.35 -16.1 -71.75 L-14.9 -72.8 Q-13.35 -74.85 -12.85 -78.4 -12.2 -82.25 -10.45 -84.85 L-10.35 -85.25 Q-10.35 -85.75 -10.0 -86.1 L-9.3 -86.45 -8.85 -86.65 Q-7.35 -88.1 -5.3 -88.9 L-5.0 -89.0 -4.95 -89.0 -4.7 -89.2 -4.65 -89.25 -4.5 -89.5 Q-4.15 -89.85 -3.6 -89.85 L-3.35 -89.8 -3.1 -89.75 -3.1 -89.7 -2.75 -89.7 -2.7 -89.7 -1.9 -89.85 -1.8 -89.9 Q-0.4 -90.25 0.7 -90.95 L1.9 -91.0 Q2.7 -90.3 3.55 -90.15 M12.65 -63.4 Q8.7 -62.65 6.1 -63.75 4.25 -65.0 4.95 -67.25 5.95 -70.3 8.05 -71.3 10.1 -72.45 12.15 -71.3 14.45 -69.55 14.65 -66.55 14.75 -64.65 12.65 -63.4 M-7.45 -71.85 L-5.85 -71.3 Q-3.8 -70.3 -2.75 -67.3 -2.1 -65.0 -3.9 -63.8 -6.15 -62.85 -9.35 -63.2 L-10.35 -63.35 -10.4 -63.35 -10.5 -63.4 Q-12.6 -64.65 -12.45 -66.55 -12.3 -69.55 -10.0 -71.3 L-7.45 -71.85" fill="none" stroke="#3366cc" stroke-linecap="round" stroke-linejoin="round" stroke-width="0.05"/>
    <path d="M-31.0 -27.95 Q-27.8 -34.0 -23.9 -40.05 -21.95 -43.6 -21.6 -47.35 -21.0 -55.6 -17.8 -62.2 L-17.2 -63.4 Q-16.1 -64.75 -13.55 -63.6 L-13.5 -63.6 Q-8.9 -61.4 1.35 -61.35 12.6 -61.75 17.05 -63.75 19.4 -64.8 20.5 -62.4 L20.55 -62.3 Q23.45 -55.4 23.65 -46.85 23.75 -43.15 25.5 -39.45 30.3 -30.95 33.8 -22.6 L33.9 -22.35 Q39.6 -8.9 42.0 4.05 L42.35 6.05 39.65 4.0 39.5 4.1 Q38.05 -10.9 33.9 -22.35 38.05 -10.9 39.5 4.1 L35.4 6.45 35.35 6.45 Q35.4 10.55 33.9 15.15 L33.85 15.45 Q33.45 17.95 36.0 16.8 L37.45 16.1 Q39.0 15.45 40.1 16.4 L42.1 18.25 Q43.15 19.05 43.5 17.9 43.3 34.7 25.4 47.35 L21.6 50.15 Q10.6 61.2 6.05 77.6 8.95 84.55 8.45 91.5 2.65 85.5 0.45 78.2 L-1.2 63.05 -5.5 78.3 Q-10.95 85.3 -19.75 89.4 -16.55 82.05 -10.7 76.1 -14.45 59.65 -24.6 50.1 L-28.8 46.65 Q-47.4 31.8 -44.9 13.3 L-44.75 12.5 Q-44.35 12.9 -43.1 12.25 L-40.9 11.1 Q-39.6 10.5 -38.05 11.45 L-36.65 12.45 Q-34.3 14.0 -34.2 11.35 -34.7 6.95 -33.9 2.7 L-33.8 2.3 -38.1 -0.15 -39.0 0.35 Q-37.45 -13.7 -31.0 -27.95 -37.45 -13.7 -39.0 0.35 L-42.7 1.9 -42.35 0.5 -42.3 0.4 Q-38.65 -13.6 -31.0 -27.95 M-17.6 -24.7 Q-25.25 -5.35 -33.9 2.7 -25.25 -5.35 -17.6 -24.7 M20.4 -20.15 Q28.05 -0.7 35.4 6.45 28.05 -0.7 20.4 -20.15 M4.2 58.45 Q13.6 55.55 21.6 50.15 13.6 55.55 4.2 58.45 M-6.8 58.45 Q-16.85 55.75 -24.6 50.1 -16.85 55.75 -6.8 58.45" fill="url(#gradient1)" fill-rule="evenodd" stroke="none"/>
    <path d="M-39.0 0.35 L-38.1 -0.15 -33.8 2.3 -33.9 2.7 Q-34.7 6.95 -34.2 11.35 -34.3 14.0 -36.65 12.45 L-38.05 11.45 Q-39.6 10.5 -40.9 11.1 L-43.1 12.25 Q-44.35 12.9 -44.75 12.5 -45.05 12.25 -44.95 11.55 L-44.35 8.9 Q-44.1 7.45 -45.4 6.45 L-46.75 5.55 Q-49.0 3.95 -46.65 3.0 L-46.35 2.9 -42.7 1.9 -39.0 0.35" fill="url(#gradient2)" fill-rule="evenodd" stroke="none"/>
    <path d="M39.5 4.1 L39.65 4.0 42.35 6.05 Q44.65 7.65 47.3 8.8 49.55 10.25 47.05 11.5 L45.45 12.2 Q43.85 13.05 43.75 14.55 L43.65 17.0 43.5 17.9 Q43.15 19.05 42.1 18.25 L40.1 16.4 Q39.0 15.45 37.45 16.1 L36.0 16.8 Q33.45 17.95 33.85 15.45 L33.9 15.15 Q35.4 10.55 35.35 6.45 L35.4 6.45 39.5 4.1" fill="url(#gradient3)" fill-rule="evenodd" stroke="none"/>
    <path d="M33.9 -22.35 L33.8 -22.6 Q30.3 -30.95 25.5 -39.45 23.75 -43.15 23.65 -46.85 23.45 -55.4 20.55 -62.3 L20.5 -62.4 Q19.4 -64.8 17.05 -63.75 12.6 -61.75 1.35 -61.35 -8.9 -61.4 -13.5 -63.6 L-13.55 -63.6 Q-16.1 -64.75 -17.2 -63.4 L-17.8 -62.2 Q-21.0 -55.6 -21.6 -47.35 -21.95 -43.6 -23.9 -40.05 -27.8 -34.0 -31.0 -27.95 -37.45 -13.7 -39.0 0.35 L-38.1 -0.15 M-33.8 2.3 L-33.9 2.7 Q-25.25 -5.35 -17.6 -24.7 M42.35 6.05 L42.0 4.05 Q39.6 -8.9 33.9 -22.35 38.05 -10.9 39.5 4.1 M39.65 4.0 L42.35 6.05 Q44.65 7.65 47.3 8.8 49.55 10.25 47.05 11.5 L45.45 12.2 Q43.85 13.05 43.75 14.55 L43.65 17.0 43.5 17.9 Q43.3 34.7 25.4 47.35 L21.6 50.15 Q10.6 61.2 6.05 77.6 8.95 84.55 8.45 91.5 2.65 85.5 0.45 78.2 L-1.2 63.05 -5.5 78.3 Q-10.95 85.3 -19.75 89.4 -16.55 82.05 -10.7 76.1 -14.45 59.65 -24.6 50.1 L-28.8 46.65 Q-47.4 31.8 -44.9 13.3 L-44.75 12.5 Q-45.05 12.25 -44.95 11.55 L-44.35 8.9 Q-44.1 7.45 -45.4 6.45 L-46.75 5.55 Q-49.0 3.95 -46.65 3.0 L-46.35 2.9 -42.7 1.9 -42.35 0.5 -42.3 0.4 Q-38.65 -13.6 -31.0 -27.95 M35.35 6.45 Q35.4 10.55 33.9 15.15 L33.85 15.45 Q33.45 17.95 36.0 16.8 L37.45 16.1 Q39.0 15.45 40.1 16.4 L42.1 18.25 Q43.15 19.05 43.5 17.9 M21.6 50.15 Q13.6 55.55 4.2 58.45 M35.4 6.45 Q28.05 -0.7 20.4 -20.15 M-44.75 12.5 Q-44.35 12.9 -43.1 12.25 L-40.9 11.1 Q-39.6 10.5 -38.05 11.45 L-36.65 12.45 Q-34.3 14.0 -34.2 11.35 -34.7 6.95 -33.9 2.7 M-24.6 50.1 Q-16.85 55.75 -6.8 58.45 M-42.7 1.9 L-39.0 0.35" fill="none" stroke="#3366cc" stroke-linecap="round" stroke-linejoin="round" stroke-width="0.05"/>
  </g>
  <defs>
    <radialGradient cx="0" cy="0" gradientTransform="matrix(0.0373, 0.0, 0.0, 0.0394, -4.45, -59.9)" gradientUnits="userSpaceOnUse" id="gradient0" r="819.2" spreadMethod="pad">
      <stop offset="0.3843137254901961" stop-color="#33ccff"/>
      <stop offset="1.0" stop-color="#3399ff"/>
    </radialGradient>
    <radialGradient cx="0" cy="0" gradientTransform="matrix(0.1254, 0.0, 0.0, 0.1254, -18.0, 26.0)" gradientUnits="userSpaceOnUse" id="gradient1" r="819.2" spreadMethod="pad">
      <stop offset="0.3843137254901961" stop-color="#33ccff"/>
      <stop offset="1.0" stop-color="#3399ff"/>
    </radialGradient>
    <radialGradient cx="0" cy="0" gradientTransform="matrix(0.0137, 0.0079, -0.0079, 0.0137, -35.55, 7.95)" gradientUnits="userSpaceOnUse" id="gradient2" r="819.2" spreadMethod="pad">
      <stop offset="0.3843137254901961" stop-color="#33ccff"/>
      <stop offset="1.0" stop-color="#3399ff"/>
    </radialGradient>
    <radialGradient cx="0" cy="0" gradientTransform="matrix(0.0137, -0.0079, 0.0079, 0.0137, 43.7, 8.3)" gradientUnits="userSpaceOnUse" id="gradient3" r="819.2" spreadMethod="pad">
      <stop offset="0.3843137254901961" stop-color="#33ccff"/>
      <stop offset="1.0" stop-color="#3399ff"/>
    </radialGradient>
  </defs>
</svg>
