<?xml version="1.0" encoding="UTF-8" standalone="no"?>
<svg xmlns:xlink="http://www.w3.org/1999/xlink" height="193.05px" width="109.55px" xmlns="http://www.w3.org/2000/svg">
  <g transform="matrix(1.0, 0.0, 0.0, 1.0, 54.4, 98.95)">
    <path d="M15.65 -86.95 Q16.15 -82.55 18.2 -80.25 L19.05 -79.4 Q19.6 -78.8 19.15 -77.9 L18.8 -77.35 Q18.3 -76.45 18.5 -75.3 L18.7 -73.3 Q19.2 -69.15 17.75 -64.75 16.45 -60.95 12.7 -58.85 11.2 -58.0 9.75 -57.95 6.95 -57.75 3.95 -56.85 1.5 -56.0 -0.8 -56.85 L-1.7 -57.2 -3.7 -57.75 -3.75 -57.75 -3.8 -57.8 -4.75 -57.95 Q-8.35 -58.7 -10.8 -60.5 -14.05 -63.25 -14.95 -68.35 -15.45 -71.85 -14.55 -74.85 -14.1 -76.35 -14.8 -77.7 L-15.35 -78.5 Q-15.7 -79.1 -15.4 -79.5 L-14.2 -80.55 Q-12.65 -82.6 -12.15 -86.15 -11.5 -90.0 -9.75 -92.6 L-9.65 -93.0 -9.3 -93.85 -8.6 -94.2 -8.15 -94.4 Q-6.65 -95.85 -4.6 -96.65 L-4.3 -96.75 -4.25 -96.75 -4.0 -96.95 -3.95 -97.0 -3.8 -97.25 -2.9 -97.6 -2.65 -97.55 -2.4 -97.5 -2.4 -97.45 -2.05 -97.45 -2.0 -97.45 -1.2 -97.6 -1.1 -97.65 Q0.3 -98.0 1.4 -98.7 L2.6 -98.75 Q3.4 -98.05 4.25 -97.9 L5.2 -97.75 5.3 -97.75 5.65 -97.8 5.7 -97.8 6.15 -97.95 6.8 -97.65 6.95 -97.5 7.5 -97.1 8.45 -96.65 Q10.75 -95.6 12.35 -94.1 L12.35 -94.05 Q12.5 -93.95 12.75 -93.9 L13.4 -93.6 13.65 -92.9 13.75 -92.4 13.9 -92.25 Q15.35 -90.0 15.65 -86.95 M8.75 -79.05 Q6.65 -78.05 5.65 -75.0 4.95 -72.75 6.8 -71.5 9.4 -70.4 13.35 -71.15 15.45 -72.4 15.35 -74.3 15.15 -77.3 12.85 -79.05 10.8 -80.2 8.75 -79.05 M-5.15 -79.05 L-6.75 -79.6 -9.3 -79.05 Q-11.6 -77.3 -11.75 -74.3 -11.9 -72.4 -9.8 -71.15 L-9.7 -71.1 -9.65 -71.1 -8.65 -70.95 Q-5.45 -70.6 -3.2 -71.55 -1.4 -72.75 -2.05 -75.05 -3.1 -78.05 -5.15 -79.05" fill="url(#gradient0)" fill-rule="evenodd" stroke="none"/>
    <path d="M8.9 -76.3 L9.3 -76.6 9.45 -76.6 Q10.4 -76.4 10.0 -75.55 L9.45 -75.25 Q9.1 -75.3 8.95 -75.45 8.65 -75.6 8.75 -76.05 L8.9 -76.3 M8.75 -79.05 Q10.8 -80.2 12.85 -79.05 15.15 -77.3 15.35 -74.3 15.45 -72.4 13.35 -71.15 9.4 -70.4 6.8 -71.5 4.95 -72.75 5.65 -75.0 6.65 -78.05 8.75 -79.05 M8.25 -77.45 Q7.3 -76.45 7.3 -75.0 7.3 -73.6 8.25 -72.6 9.25 -71.6 10.7 -71.6 12.15 -71.6 13.1 -72.6 14.1 -73.6 14.1 -75.0 14.1 -76.45 13.1 -77.45 12.15 -78.4 10.7 -78.4 9.25 -78.4 8.25 -77.45 M-5.15 -79.05 Q-3.1 -78.05 -2.05 -75.05 -1.4 -72.75 -3.2 -71.55 -5.45 -70.6 -8.65 -70.95 L-9.65 -71.1 -9.7 -71.1 -9.8 -71.15 Q-11.9 -72.4 -11.75 -74.3 -11.6 -77.3 -9.3 -79.05 L-6.75 -79.6 -5.15 -79.05 M-8.75 -76.8 Q-7.8 -76.6 -8.2 -75.75 -8.4 -75.4 -8.75 -75.45 -9.6 -75.55 -9.4 -76.35 L-9.1 -76.7 -8.95 -76.75 -8.9 -76.8 -8.8 -76.8 -8.75 -76.8 M-7.05 -78.45 Q-8.5 -78.45 -9.5 -77.5 -10.5 -76.5 -10.5 -75.05 -10.5 -73.6 -9.5 -72.65 -8.5 -71.65 -7.05 -71.6 -5.65 -71.65 -4.65 -72.65 -3.65 -73.6 -3.65 -75.05 -3.65 -76.5 -4.65 -77.5 -5.65 -78.45 -7.05 -78.45" fill="#ffffff" fill-rule="evenodd" stroke="none"/>
    <path d="M8.9 -76.3 L8.75 -76.05 Q8.65 -75.6 8.95 -75.45 9.1 -75.3 9.45 -75.25 L10.0 -75.55 Q10.4 -76.4 9.45 -76.6 L9.3 -76.6 8.9 -76.3 M8.25 -77.45 Q9.25 -78.4 10.7 -78.4 12.15 -78.4 13.1 -77.45 14.1 -76.45 14.1 -75.0 14.1 -73.6 13.1 -72.6 12.15 -71.6 10.7 -71.6 9.25 -71.6 8.25 -72.6 7.3 -73.6 7.3 -75.0 7.3 -76.45 8.25 -77.45 M-8.75 -76.8 L-8.8 -76.8 -8.9 -76.8 -8.95 -76.75 -9.1 -76.7 -9.4 -76.35 Q-9.6 -75.55 -8.75 -75.45 -8.4 -75.4 -8.2 -75.75 -7.8 -76.6 -8.75 -76.8 M-7.05 -78.45 Q-5.65 -78.45 -4.65 -77.5 -3.65 -76.5 -3.65 -75.05 -3.65 -73.6 -4.65 -72.65 -5.65 -71.65 -7.05 -71.6 -8.5 -71.65 -9.5 -72.65 -10.5 -73.6 -10.5 -75.05 -10.5 -76.5 -9.5 -77.5 -8.5 -78.45 -7.05 -78.45" fill="#884400" fill-rule="evenodd" stroke="none"/>
    <path d="M15.65 -86.95 Q16.15 -82.55 18.2 -80.25 L19.05 -79.4 Q19.6 -78.8 19.15 -77.9 L18.8 -77.35 Q18.3 -76.45 18.5 -75.3 L18.7 -73.3 Q19.2 -69.15 17.75 -64.75 16.45 -60.95 12.7 -58.85 11.2 -58.0 9.75 -57.95 6.95 -57.75 3.95 -56.85 1.5 -56.0 -0.8 -56.85 L-1.7 -57.2 -3.7 -57.75 -3.75 -57.75 -3.8 -57.8 -4.75 -57.95 Q-8.35 -58.7 -10.8 -60.5 -14.05 -63.25 -14.95 -68.35 -15.45 -71.85 -14.55 -74.85 -14.1 -76.35 -14.8 -77.7 L-15.35 -78.5 Q-15.7 -79.1 -15.4 -79.5 L-14.2 -80.55 Q-12.65 -82.6 -12.15 -86.15 -11.5 -90.0 -9.75 -92.6 L-9.65 -93.0 -9.3 -93.85 -8.6 -94.2 -8.15 -94.4 Q-6.65 -95.85 -4.6 -96.65 L-4.3 -96.75 -4.25 -96.75 -4.0 -96.95 -3.95 -97.0 -3.8 -97.25 -2.9 -97.6 -2.65 -97.55 -2.4 -97.5 -2.4 -97.45 -2.05 -97.45 -2.0 -97.45 -1.2 -97.6 -1.1 -97.65 Q0.3 -98.0 1.4 -98.7 L2.6 -98.75 Q3.4 -98.05 4.25 -97.9 L5.2 -97.75 5.3 -97.75 5.65 -97.8 5.7 -97.8 6.15 -97.95 6.8 -97.65 6.95 -97.5 7.5 -97.1 8.45 -96.65 Q10.75 -95.6 12.35 -94.1 L12.35 -94.05 Q12.5 -93.95 12.75 -93.9 L13.4 -93.6 13.65 -92.9 13.75 -92.4 13.9 -92.25 Q15.35 -90.0 15.65 -86.95 M8.75 -79.05 Q10.8 -80.2 12.85 -79.05 15.15 -77.3 15.35 -74.3 15.45 -72.4 13.35 -71.15 9.4 -70.4 6.8 -71.5 4.95 -72.75 5.65 -75.0 6.65 -78.05 8.75 -79.05 M-5.15 -79.05 Q-3.1 -78.05 -2.05 -75.05 -1.4 -72.75 -3.2 -71.55 -5.45 -70.6 -8.65 -70.95 L-9.65 -71.1 -9.7 -71.1 -9.8 -71.15 Q-11.9 -72.4 -11.75 -74.3 -11.6 -77.3 -9.3 -79.05 L-6.75 -79.6 -5.15 -79.05" fill="none" stroke="#3366cc" stroke-linecap="round" stroke-linejoin="round" stroke-width="0.05"/>
    <path d="M-44.05 -21.45 L-44.75 -21.85 Q-37.5 -35.8 -25.25 -48.45 -23.3 -50.45 -22.85 -52.45 -21.95 -59.45 -17.85 -66.15 L-16.7 -68.0 -16.6 -68.15 Q-15.05 -70.4 -11.65 -68.5 -6.55 -65.9 2.3 -65.45 10.0 -65.7 15.1 -68.2 L15.2 -68.25 Q18.3 -69.75 21.2 -65.4 24.8 -58.7 25.4 -51.9 25.8 -49.9 27.65 -47.8 39.4 -34.65 46.05 -20.45 L45.35 -20.05 45.15 -20.15 44.15 -19.15 43.6 -18.6 41.65 -16.65 41.7 -16.45 Q42.7 -12.6 42.45 -7.9 L42.45 -7.6 Q42.75 -5.1 44.9 -6.85 L46.15 -7.9 46.55 -8.2 Q49.7 4.5 44.95 17.4 42.2 23.7 38.15 28.1 L28.45 37.35 Q12.2 53.0 6.2 80.5 10.8 87.05 12.85 94.1 5.7 88.65 0.55 80.65 -0.15 71.4 -3.15 62.1 -6.05 70.85 -6.4 80.2 -12.75 87.8 -21.5 93.2 -18.35 85.8 -12.75 79.65 -16.75 57.5 -28.85 40.1 -33.15 33.1 -38.75 27.0 -42.65 22.45 -45.15 16.0 -49.3 3.15 -45.85 -9.15 L-45.7 -8.95 Q-43.85 -6.85 -43.05 -9.4 -42.4 -13.75 -40.55 -17.65 L-40.35 -18.0 -43.85 -21.5 -44.05 -21.45 M-18.6 -35.75 Q-29.4 -25.05 -40.55 -17.65 -29.4 -25.05 -18.6 -35.75 M20.5 -35.4 Q30.85 -24.25 41.7 -16.45 30.85 -24.25 20.5 -35.4" fill="url(#gradient1)" fill-rule="evenodd" stroke="none"/>
    <path d="M-45.85 -9.15 L-46.8 -10.3 Q-48.05 -11.6 -49.5 -11.35 L-51.9 -10.8 Q-54.15 -10.35 -53.5 -12.0 L-52.25 -14.4 Q-51.6 -15.7 -52.6 -17.0 L-53.7 -18.25 Q-55.45 -20.4 -52.9 -20.7 L-52.6 -20.7 Q-47.95 -20.45 -44.05 -21.45 L-43.85 -21.5 -40.35 -18.0 -40.55 -17.65 Q-42.4 -13.75 -43.05 -9.4 -43.85 -6.85 -45.7 -8.95 L-45.85 -9.15" fill="url(#gradient2)" fill-rule="evenodd" stroke="none"/>
    <path d="M45.35 -20.05 Q49.35 -18.15 53.75 -17.5 56.3 -16.7 54.2 -14.8 L52.85 -13.7 Q51.55 -12.5 51.8 -11.05 L52.35 -8.6 Q52.8 -6.4 51.15 -7.0 L48.75 -8.3 46.55 -8.2 46.15 -7.9 44.9 -6.85 Q42.75 -5.1 42.45 -7.6 L42.45 -7.9 Q42.7 -12.6 41.7 -16.45 L41.65 -16.65 43.6 -18.6 44.15 -19.15 45.15 -20.15 45.35 -20.05" fill="url(#gradient3)" fill-rule="evenodd" stroke="none"/>
    <path d="M-44.05 -21.45 L-44.75 -21.85 Q-37.5 -35.8 -25.25 -48.45 -23.3 -50.45 -22.85 -52.45 -21.95 -59.45 -17.85 -66.15 L-16.7 -68.0 -16.6 -68.15 Q-15.05 -70.4 -11.65 -68.5 -6.55 -65.9 2.3 -65.45 10.0 -65.7 15.1 -68.2 L15.2 -68.25 Q18.3 -69.75 21.2 -65.4 24.8 -58.7 25.4 -51.9 25.8 -49.9 27.65 -47.8 39.4 -34.65 46.05 -20.45 L45.35 -20.05 Q49.35 -18.15 53.75 -17.5 56.3 -16.7 54.2 -14.8 L52.85 -13.7 Q51.55 -12.5 51.8 -11.05 L52.35 -8.6 Q52.8 -6.4 51.15 -7.0 L48.75 -8.3 46.55 -8.2 Q49.7 4.5 44.95 17.4 42.2 23.7 38.15 28.1 L28.45 37.35 Q12.2 53.0 6.2 80.5 10.8 87.05 12.85 94.1 5.7 88.65 0.55 80.65 -0.15 71.4 -3.15 62.1 -6.05 70.85 -6.4 80.2 -12.75 87.8 -21.5 93.2 -18.35 85.8 -12.75 79.65 -16.75 57.5 -28.85 40.1 -33.15 33.1 -38.75 27.0 -42.65 22.45 -45.15 16.0 -49.3 3.15 -45.85 -9.15 L-46.8 -10.3 Q-48.05 -11.6 -49.5 -11.35 L-51.9 -10.8 Q-54.15 -10.35 -53.5 -12.0 L-52.25 -14.4 Q-51.6 -15.7 -52.6 -17.0 L-53.7 -18.25 Q-55.45 -20.4 -52.9 -20.7 L-52.6 -20.7 Q-47.95 -20.45 -44.05 -21.45 L-43.85 -21.5 M-40.35 -18.0 L-40.55 -17.65 Q-29.4 -25.05 -18.6 -35.75 M45.35 -20.05 L45.15 -20.15 M44.15 -19.15 L43.6 -18.6 M41.65 -16.65 L41.7 -16.45 Q42.7 -12.6 42.45 -7.9 L42.45 -7.6 Q42.75 -5.1 44.9 -6.85 L46.15 -7.9 46.55 -8.2 M41.7 -16.45 Q30.85 -24.25 20.5 -35.4 M-45.85 -9.15 L-45.7 -8.95 Q-43.85 -6.85 -43.05 -9.4 -42.4 -13.75 -40.55 -17.65" fill="none" stroke="#3366cc" stroke-linecap="round" stroke-linejoin="round" stroke-width="0.05"/>
  </g>
  <defs>
    <radialGradient cx="0" cy="0" gradientTransform="matrix(0.0373, 0.0, 0.0, 0.0394, -3.75, -67.65)" gradientUnits="userSpaceOnUse" id="gradient0" r="819.2" spreadMethod="pad">
      <stop offset="0.3843137254901961" stop-color="#33ccff"/>
      <stop offset="1.0" stop-color="#3399ff"/>
    </radialGradient>
    <radialGradient cx="0" cy="0" gradientTransform="matrix(0.1254, 0.0, 0.0, 0.1254, -18.0, 26.0)" gradientUnits="userSpaceOnUse" id="gradient1" r="819.2" spreadMethod="pad">
      <stop offset="0.3843137254901961" stop-color="#33ccff"/>
      <stop offset="1.0" stop-color="#3399ff"/>
    </radialGradient>
    <radialGradient cx="0" cy="0" gradientTransform="matrix(0.0112, 0.0112, -0.0112, 0.0112, -43.5, -13.0)" gradientUnits="userSpaceOnUse" id="gradient2" r="819.2" spreadMethod="pad">
      <stop offset="0.3843137254901961" stop-color="#33ccff"/>
      <stop offset="1.0" stop-color="#3399ff"/>
    </radialGradient>
    <radialGradient cx="0" cy="0" gradientTransform="matrix(0.0112, -0.0112, 0.0112, 0.0112, 50.15, -17.05)" gradientUnits="userSpaceOnUse" id="gradient3" r="819.2" spreadMethod="pad">
      <stop offset="0.3843137254901961" stop-color="#33ccff"/>
      <stop offset="1.0" stop-color="#3399ff"/>
    </radialGradient>
  </defs>
</svg>
