<?xml version="1.0" encoding="UTF-8" standalone="no"?>
<svg xmlns:xlink="http://www.w3.org/1999/xlink" height="197.1px" width="123.65px" xmlns="http://www.w3.org/2000/svg">
  <g transform="matrix(1.0, 0.0, 0.0, 1.0, 62.2, 101.9)">
    <path d="M4.55 -100.45 L5.1 -100.05 6.05 -99.6 Q8.35 -98.55 9.95 -97.05 L9.95 -97.0 Q10.1 -96.9 10.35 -96.85 L11.0 -96.55 11.25 -95.85 11.35 -95.35 11.5 -95.2 Q12.95 -92.95 13.25 -89.9 13.75 -85.5 15.8 -83.2 L16.65 -82.35 Q17.2 -81.75 16.75 -80.85 L16.4 -80.3 Q15.9 -79.4 16.1 -78.25 L16.3 -76.25 Q16.8 -72.1 15.35 -67.7 14.05 -63.9 10.3 -61.8 8.8 -60.95 7.35 -60.9 4.55 -60.7 1.55 -59.8 -0.9 -58.95 -3.2 -59.8 L-4.1 -60.15 -6.1 -60.7 -6.15 -60.7 -6.2 -60.75 -7.15 -60.9 Q-10.75 -61.65 -13.2 -63.45 -16.45 -66.2 -17.35 -71.3 -17.85 -74.8 -16.95 -77.8 -16.5 -79.3 -17.2 -80.65 L-17.75 -81.45 Q-18.1 -82.05 -17.8 -82.45 L-16.6 -83.5 Q-15.05 -85.55 -14.55 -89.1 -13.9 -92.95 -12.15 -95.55 L-12.05 -95.95 Q-12.05 -96.45 -11.7 -96.8 L-11.0 -97.15 Q-10.8 -97.2 -10.55 -97.35 -9.05 -98.8 -7.0 -99.6 L-6.7 -99.7 -6.65 -99.7 -6.4 -99.9 -6.35 -99.95 -6.2 -100.2 Q-5.85 -100.55 -5.3 -100.55 L-5.05 -100.5 -4.8 -100.45 -4.8 -100.4 -4.45 -100.4 -4.4 -100.4 -3.6 -100.55 -3.5 -100.6 Q-2.1 -100.95 -1.0 -101.65 L0.2 -101.7 Q1.0 -101.0 1.85 -100.85 L2.8 -100.7 2.9 -100.7 3.25 -100.75 3.3 -100.75 3.75 -100.9 4.4 -100.6 4.55 -100.45 M3.25 -77.95 Q2.55 -75.7 4.4 -74.45 7.0 -73.35 10.95 -74.1 13.05 -75.35 12.95 -77.25 12.75 -80.25 10.45 -82.0 8.4 -83.15 6.35 -82.0 4.25 -81.0 3.25 -77.95 M-11.7 -82.0 Q-14.0 -80.25 -14.15 -77.25 -14.3 -75.35 -12.2 -74.1 L-12.1 -74.05 -12.05 -74.05 -11.05 -73.9 Q-7.85 -73.55 -5.6 -74.5 -3.8 -75.7 -4.45 -78.0 -5.5 -81.0 -7.55 -82.0 -8.35 -82.45 -9.15 -82.55 L-11.7 -82.0" fill="url(#gradient0)" fill-rule="evenodd" stroke="none"/>
    <path d="M3.25 -77.95 Q4.25 -81.0 6.35 -82.0 8.4 -83.15 10.45 -82.0 12.75 -80.25 12.95 -77.25 13.05 -75.35 10.95 -74.1 7.0 -73.35 4.4 -74.45 2.55 -75.7 3.25 -77.95 M5.85 -75.55 Q6.85 -74.55 8.3 -74.55 9.75 -74.55 10.7 -75.55 11.7 -76.55 11.7 -77.95 11.7 -79.4 10.7 -80.4 9.75 -81.35 8.3 -81.35 6.85 -81.35 5.85 -80.4 4.9 -79.4 4.9 -77.95 4.9 -76.55 5.85 -75.55 M7.05 -78.2 Q6.7 -78.25 6.55 -78.4 6.25 -78.55 6.35 -79.0 L6.5 -79.25 6.9 -79.55 7.05 -79.55 Q8.0 -79.35 7.6 -78.5 L7.05 -78.2 M-10.6 -78.7 Q-10.8 -78.35 -11.15 -78.4 -12.0 -78.5 -11.8 -79.3 L-11.5 -79.65 -11.35 -79.7 -11.3 -79.75 -11.2 -79.75 -11.15 -79.75 Q-10.2 -79.55 -10.6 -78.7 M-12.9 -78.0 Q-12.9 -76.55 -11.9 -75.6 -10.9 -74.6 -9.45 -74.55 -8.05 -74.6 -7.05 -75.6 -6.05 -76.55 -6.05 -78.0 -6.05 -79.45 -7.05 -80.45 -8.05 -81.4 -9.45 -81.4 -10.9 -81.4 -11.9 -80.45 -12.9 -79.45 -12.9 -78.0 M-11.7 -82.0 L-9.15 -82.55 Q-8.35 -82.45 -7.55 -82.0 -5.5 -81.0 -4.45 -78.0 -3.8 -75.7 -5.6 -74.5 -7.85 -73.55 -11.05 -73.9 L-12.05 -74.05 -12.1 -74.05 -12.2 -74.1 Q-14.3 -75.35 -14.15 -77.25 -14.0 -80.25 -11.7 -82.0" fill="#ffffff" fill-rule="evenodd" stroke="none"/>
    <path d="M5.85 -75.55 Q4.9 -76.55 4.9 -77.95 4.9 -79.4 5.85 -80.4 6.85 -81.35 8.3 -81.35 9.75 -81.35 10.7 -80.4 11.7 -79.4 11.7 -77.95 11.7 -76.55 10.7 -75.55 9.75 -74.55 8.3 -74.55 6.85 -74.55 5.85 -75.55 M-10.6 -78.7 Q-10.2 -79.55 -11.15 -79.75 L-11.2 -79.75 -11.3 -79.75 -11.35 -79.7 -11.5 -79.65 -11.8 -79.3 Q-12.0 -78.5 -11.15 -78.4 -10.8 -78.35 -10.6 -78.7 M7.05 -78.2 L7.6 -78.5 Q8.0 -79.35 7.05 -79.55 L6.9 -79.55 6.5 -79.25 6.35 -79.0 Q6.25 -78.55 6.55 -78.4 6.7 -78.25 7.05 -78.2 M-12.9 -78.0 Q-12.9 -79.45 -11.9 -80.45 -10.9 -81.4 -9.45 -81.4 -8.05 -81.4 -7.05 -80.45 -6.05 -79.45 -6.05 -78.0 -6.05 -76.55 -7.05 -75.6 -8.05 -74.6 -9.45 -74.55 -10.9 -74.6 -11.9 -75.6 -12.9 -76.55 -12.9 -78.0" fill="#884400" fill-rule="evenodd" stroke="none"/>
    <path d="M4.55 -100.45 L5.1 -100.05 6.05 -99.6 Q8.35 -98.55 9.95 -97.05 L9.95 -97.0 Q10.1 -96.9 10.35 -96.85 L11.0 -96.55 11.25 -95.85 11.35 -95.35 11.5 -95.2 Q12.95 -92.95 13.25 -89.9 13.75 -85.5 15.8 -83.2 L16.65 -82.35 Q17.2 -81.75 16.75 -80.85 L16.4 -80.3 Q15.9 -79.4 16.1 -78.25 L16.3 -76.25 Q16.8 -72.1 15.35 -67.7 14.05 -63.9 10.3 -61.8 8.8 -60.95 7.35 -60.9 4.55 -60.7 1.55 -59.8 -0.9 -58.95 -3.2 -59.8 L-4.1 -60.15 -6.1 -60.7 -6.15 -60.7 -6.2 -60.75 -7.15 -60.9 Q-10.75 -61.65 -13.2 -63.45 -16.45 -66.2 -17.35 -71.3 -17.85 -74.8 -16.95 -77.8 -16.5 -79.3 -17.2 -80.65 L-17.75 -81.45 Q-18.1 -82.05 -17.8 -82.45 L-16.6 -83.5 Q-15.05 -85.55 -14.55 -89.1 -13.9 -92.95 -12.15 -95.55 L-12.05 -95.95 Q-12.05 -96.45 -11.7 -96.8 L-11.0 -97.15 Q-10.8 -97.2 -10.55 -97.35 -9.05 -98.8 -7.0 -99.6 L-6.7 -99.7 -6.65 -99.7 -6.4 -99.9 -6.35 -99.95 -6.2 -100.2 Q-5.85 -100.55 -5.3 -100.55 L-5.05 -100.5 -4.8 -100.45 -4.8 -100.4 -4.45 -100.4 -4.4 -100.4 -3.6 -100.55 -3.5 -100.6 Q-2.1 -100.95 -1.0 -101.65 L0.2 -101.7 Q1.0 -101.0 1.85 -100.85 L2.8 -100.7 2.9 -100.7 3.25 -100.75 3.3 -100.75 3.75 -100.9 4.4 -100.6 4.55 -100.45 M3.25 -77.95 Q4.25 -81.0 6.35 -82.0 8.4 -83.15 10.45 -82.0 12.75 -80.25 12.95 -77.25 13.05 -75.35 10.95 -74.1 7.0 -73.35 4.4 -74.45 2.55 -75.7 3.25 -77.95 M-11.7 -82.0 L-9.15 -82.55 Q-8.35 -82.45 -7.55 -82.0 -5.5 -81.0 -4.45 -78.0 -3.8 -75.7 -5.6 -74.5 -7.85 -73.55 -11.05 -73.9 L-12.05 -74.05 -12.1 -74.05 -12.2 -74.1 Q-14.3 -75.35 -14.15 -77.25 -14.0 -80.25 -11.7 -82.0" fill="none" stroke="#3366cc" stroke-linecap="round" stroke-linejoin="round" stroke-width="0.05"/>
    <path d="M-2.85 54.2 L-2.9 54.2 -2.9 54.15 -2.85 54.2" fill="#ffff00" fill-rule="evenodd" stroke="none"/>
    <path d="M48.05 -63.05 L47.45 -61.65 50.95 -58.15 52.0 -58.45 52.35 -58.25 Q47.05 -45.05 39.35 -32.85 38.05 -29.3 38.65 -25.7 43.85 -7.6 43.6 10.35 42.85 24.5 34.6 33.65 L26.05 43.15 Q17.7 53.1 16.9 77.75 20.85 87.0 21.5 95.2 15.1 90.2 11.3 79.7 3.85 56.85 -2.85 54.2 L-2.9 54.15 -2.9 54.2 Q-8.15 54.55 -16.45 79.1 -20.25 87.55 -27.6 94.45 -25.65 85.0 -21.95 76.5 -19.2 55.45 -28.25 44.9 L-28.8 44.35 -38.6 32.6 Q-46.55 23.2 -46.8 9.0 -46.4 -8.9 -40.55 -26.85 -39.8 -30.4 -40.95 -34.0 -48.25 -46.5 -53.05 -59.9 L-52.2 -60.3 -52.15 -60.25 -52.05 -60.35 Q-49.9 -61.6 -49.0 -63.45 L-48.65 -63.75 -48.75 -64.05 -48.55 -64.85 Q-47.85 -64.0 -45.95 -63.5 -39.6 -61.45 -29.8 -59.75 -25.25 -59.15 -24.35 -60.5 -23.3 -66.8 -19.2 -72.1 L-18.45 -73.0 Q-17.05 -74.3 -14.7 -73.4 -10.9 -71.3 1.05 -70.8 10.65 -71.2 14.35 -73.3 L14.45 -73.35 Q16.9 -73.95 18.25 -72.6 L18.95 -71.7 Q22.85 -66.25 23.7 -59.9 24.55 -58.55 29.1 -58.95 38.95 -60.35 45.35 -62.15 47.25 -62.55 48.0 -63.4 L48.05 -63.05" fill="url(#gradient1)" fill-rule="evenodd" stroke="none"/>
    <path d="M-52.2 -60.3 Q-56.3 -62.3 -60.8 -62.95 -63.35 -63.75 -61.2 -65.6 L-59.9 -66.7 Q-58.6 -67.95 -58.8 -69.4 L-59.35 -71.8 Q-59.85 -74.05 -58.2 -73.4 L-55.8 -72.15 Q-54.5 -71.5 -53.15 -72.5 L-51.95 -73.6 Q-49.8 -75.35 -49.5 -72.8 L-49.45 -72.5 Q-49.75 -67.9 -48.75 -64.05 L-48.65 -63.75 -49.0 -63.45 -52.05 -60.35 -52.15 -60.25 -52.2 -60.3" fill="url(#gradient2)" fill-rule="evenodd" stroke="none"/>
    <path d="M48.05 -63.05 Q49.55 -66.55 50.1 -70.3 50.9 -72.85 52.8 -70.7 L53.9 -69.4 Q55.1 -68.1 56.55 -68.3 L59.0 -68.85 Q61.2 -69.35 60.6 -67.7 L59.3 -65.3 Q58.65 -64.0 59.7 -62.65 L60.75 -61.45 Q62.5 -59.3 60.0 -59.0 L59.7 -58.95 52.0 -58.45 50.95 -58.15 47.45 -61.65 48.05 -63.05" fill="url(#gradient3)" fill-rule="evenodd" stroke="none"/>
    <path d="M-2.85 54.2 L-2.9 54.2" fill="none" stroke="#660099" stroke-linecap="round" stroke-linejoin="round" stroke-width="0.05"/>
    <path d="M52.0 -58.45 L52.35 -58.25 Q47.05 -45.05 39.35 -32.85 38.05 -29.3 38.65 -25.7 43.85 -7.6 43.6 10.35 42.85 24.5 34.6 33.65 L26.05 43.15 Q17.7 53.1 16.9 77.75 20.85 87.0 21.5 95.2 15.1 90.2 11.3 79.7 3.85 56.85 -2.85 54.2 M-2.9 54.2 Q-8.15 54.55 -16.45 79.1 -20.25 87.55 -27.6 94.45 -25.65 85.0 -21.95 76.5 -19.2 55.45 -28.25 44.9 L-28.8 44.35 -38.6 32.6 Q-46.55 23.2 -46.8 9.0 -46.4 -8.9 -40.55 -26.85 -39.8 -30.4 -40.95 -34.0 -48.25 -46.5 -53.05 -59.9 L-52.2 -60.3 M-48.75 -64.05 L-48.55 -64.85 Q-47.85 -64.0 -45.95 -63.5 -39.6 -61.45 -29.8 -59.75 -25.25 -59.15 -24.35 -60.5 -23.3 -66.8 -19.2 -72.1 L-18.45 -73.0 Q-17.05 -74.3 -14.7 -73.4 -10.9 -71.3 1.05 -70.8 10.65 -71.2 14.35 -73.3 L14.45 -73.35 Q16.9 -73.95 18.25 -72.6 L18.95 -71.7 Q22.85 -66.25 23.7 -59.9 24.55 -58.55 29.1 -58.95 38.95 -60.35 45.35 -62.15 47.25 -62.55 48.0 -63.4 L48.05 -63.05 M-49.0 -63.45 Q-49.9 -61.6 -52.05 -60.35 M-2.9 54.2 L-2.9 54.15 -2.85 54.2" fill="none" stroke="#3366cc" stroke-linecap="round" stroke-linejoin="round" stroke-width="0.05"/>
    <path d="M52.0 -58.45 L59.7 -58.95 60.0 -59.0 Q62.5 -59.3 60.75 -61.45 L59.7 -62.65 Q58.65 -64.0 59.3 -65.3 L60.6 -67.7 Q61.2 -69.35 59.0 -68.85 L56.55 -68.3 Q55.1 -68.1 53.9 -69.4 L52.8 -70.7 Q50.9 -72.85 50.1 -70.3 49.55 -66.55 48.05 -63.05 L47.45 -61.65 M50.95 -58.15 L52.0 -58.45 M-52.2 -60.3 Q-56.3 -62.3 -60.8 -62.95 -63.35 -63.75 -61.2 -65.6 L-59.9 -66.7 Q-58.6 -67.95 -58.8 -69.4 L-59.35 -71.8 Q-59.85 -74.05 -58.2 -73.4 L-55.8 -72.15 Q-54.5 -71.5 -53.15 -72.5 L-51.95 -73.6 Q-49.8 -75.35 -49.5 -72.8 L-49.45 -72.5 Q-49.75 -67.9 -48.75 -64.05 L-48.65 -63.75 M-52.15 -60.25 L-52.2 -60.3" fill="none" stroke="#3366cc" stroke-linecap="round" stroke-linejoin="round" stroke-width="0.05"/>
  </g>
  <defs>
    <radialGradient cx="0" cy="0" gradientTransform="matrix(0.0373, 0.0, 0.0, 0.0394, -6.15, -70.6)" gradientUnits="userSpaceOnUse" id="gradient0" r="819.2" spreadMethod="pad">
      <stop offset="0.3843137254901961" stop-color="#33ccff"/>
      <stop offset="1.0" stop-color="#3399ff"/>
    </radialGradient>
    <radialGradient cx="0" cy="0" gradientTransform="matrix(0.1254, 0.0, 0.0, 0.1254, -18.0, 26.0)" gradientUnits="userSpaceOnUse" id="gradient1" r="819.2" spreadMethod="pad">
      <stop offset="0.3843137254901961" stop-color="#33ccff"/>
      <stop offset="1.0" stop-color="#3399ff"/>
    </radialGradient>
    <radialGradient cx="0" cy="0" gradientTransform="matrix(-0.0112, 0.0112, -0.0112, -0.0112, -57.2, -63.4)" gradientUnits="userSpaceOnUse" id="gradient2" r="819.2" spreadMethod="pad">
      <stop offset="0.3843137254901961" stop-color="#33ccff"/>
      <stop offset="1.0" stop-color="#3399ff"/>
    </radialGradient>
    <radialGradient cx="0" cy="0" gradientTransform="matrix(-0.0112, -0.0112, 0.0112, -0.0112, 50.55, -66.7)" gradientUnits="userSpaceOnUse" id="gradient3" r="819.2" spreadMethod="pad">
      <stop offset="0.3843137254901961" stop-color="#33ccff"/>
      <stop offset="1.0" stop-color="#3399ff"/>
    </radialGradient>
  </defs>
</svg>
