<?xml version="1.0" encoding="UTF-8" standalone="no"?>
<svg xmlns:xlink="http://www.w3.org/1999/xlink" height="174.15px" width="103.45px" xmlns="http://www.w3.org/2000/svg">
  <g transform="matrix(1.0, 0.0, 0.0, 1.0, 53.2, 88.85)">
    <path d="M-20.1 -57.0 L-20.25 -57.8 Q-20.75 -61.3 -19.85 -64.3 -19.4 -65.8 -20.1 -67.15 L-20.65 -67.95 Q-21.0 -68.55 -20.7 -68.95 L-19.5 -70.0 Q-17.95 -72.05 -17.45 -75.6 -16.8 -79.45 -15.05 -82.05 L-14.95 -82.45 Q-14.95 -82.95 -14.6 -83.3 L-13.9 -83.65 Q-13.7 -83.7 -13.45 -83.85 -11.95 -85.3 -9.9 -86.1 L-9.6 -86.2 -9.55 -86.2 -9.3 -86.4 -9.25 -86.45 -9.1 -86.7 Q-8.75 -87.05 -8.2 -87.05 L-7.95 -87.0 -7.7 -86.95 -7.7 -86.9 -7.35 -86.9 -7.3 -86.9 -6.5 -87.05 -6.4 -87.1 Q-5.0 -87.45 -3.9 -88.15 L-2.7 -88.2 Q-1.9 -87.5 -1.05 -87.35 L-0.1 -87.2 0.0 -87.2 0.35 -87.25 0.4 -87.25 0.85 -87.4 1.5 -87.1 1.65 -86.95 2.2 -86.55 3.15 -86.1 Q5.45 -85.05 7.05 -83.55 L7.05 -83.5 7.45 -83.35 8.1 -83.05 8.35 -82.35 8.45 -81.85 8.6 -81.7 Q10.05 -79.45 10.35 -76.4 10.85 -72.0 12.9 -69.7 L13.75 -68.85 Q14.3 -68.25 13.85 -67.35 L13.5 -66.8 Q13.0 -65.9 13.2 -64.75 L13.4 -62.75 Q13.75 -59.95 13.15 -57.0 L-20.1 -57.0 M10.05 -63.75 Q9.85 -66.75 7.55 -68.5 5.5 -69.65 3.45 -68.5 1.35 -67.5 0.35 -64.45 -0.35 -62.2 1.5 -60.95 4.1 -59.85 8.05 -60.6 10.15 -61.85 10.05 -63.75 M-12.05 -69.05 L-14.6 -68.5 Q-16.9 -66.75 -17.05 -63.75 -17.2 -61.85 -15.1 -60.6 L-15.0 -60.55 -14.95 -60.55 -13.95 -60.4 Q-10.75 -60.05 -8.5 -61.0 -6.7 -62.2 -7.35 -64.5 -8.4 -67.5 -10.45 -68.5 -11.25 -68.95 -12.05 -69.05" fill="url(#gradient0)" fill-rule="evenodd" stroke="none"/>
    <path d="M4.0 -66.05 L4.15 -66.05 Q5.1 -65.85 4.7 -65.0 4.55 -64.65 4.15 -64.7 3.8 -64.75 3.65 -64.9 3.35 -65.05 3.45 -65.5 L3.6 -65.75 4.0 -66.05 M2.95 -66.9 Q2.0 -65.9 2.0 -64.45 2.0 -63.05 2.95 -62.05 3.95 -61.05 5.4 -61.05 6.85 -61.05 7.8 -62.05 8.8 -63.05 8.8 -64.45 8.8 -65.9 7.8 -66.9 6.85 -67.85 5.4 -67.85 3.95 -67.85 2.95 -66.9 M10.05 -63.75 Q10.15 -61.85 8.05 -60.6 4.1 -59.85 1.5 -60.95 -0.35 -62.2 0.35 -64.45 1.35 -67.5 3.45 -68.5 5.5 -69.65 7.55 -68.5 9.85 -66.75 10.05 -63.75 M-8.95 -64.5 Q-8.95 -65.95 -9.95 -66.95 -10.95 -67.9 -12.35 -67.9 -13.8 -67.9 -14.8 -66.95 -15.8 -65.95 -15.8 -64.5 -15.8 -63.05 -14.8 -62.1 -13.8 -61.1 -12.35 -61.05 -10.95 -61.1 -9.95 -62.1 -8.95 -63.05 -8.95 -64.5 M-12.05 -69.05 Q-11.25 -68.95 -10.45 -68.5 -8.4 -67.5 -7.35 -64.5 -6.7 -62.2 -8.5 -61.0 -10.75 -60.05 -13.95 -60.4 L-14.95 -60.55 -15.0 -60.55 -15.1 -60.6 Q-17.2 -61.85 -17.05 -63.75 -16.9 -66.75 -14.6 -68.5 L-12.05 -69.05 M-14.4 -66.15 L-14.25 -66.2 -14.2 -66.25 -14.1 -66.25 -14.05 -66.25 Q-13.1 -66.05 -13.5 -65.2 -13.7 -64.85 -14.05 -64.9 -14.9 -65.0 -14.7 -65.8 L-14.4 -66.15" fill="#ffffff" fill-rule="evenodd" stroke="none"/>
    <path d="M4.0 -66.05 L3.6 -65.75 3.45 -65.5 Q3.35 -65.05 3.65 -64.9 3.8 -64.75 4.15 -64.7 4.55 -64.65 4.7 -65.0 5.1 -65.85 4.15 -66.05 L4.0 -66.05 M2.95 -66.9 Q3.95 -67.85 5.4 -67.85 6.85 -67.85 7.8 -66.9 8.8 -65.9 8.8 -64.45 8.8 -63.05 7.8 -62.05 6.85 -61.05 5.4 -61.05 3.95 -61.05 2.95 -62.05 2.0 -63.05 2.0 -64.45 2.0 -65.9 2.95 -66.9 M-8.95 -64.5 Q-8.95 -63.05 -9.95 -62.1 -10.95 -61.1 -12.35 -61.05 -13.8 -61.1 -14.8 -62.1 -15.8 -63.05 -15.8 -64.5 -15.8 -65.95 -14.8 -66.95 -13.8 -67.9 -12.35 -67.9 -10.95 -67.9 -9.95 -66.95 -8.95 -65.95 -8.95 -64.5 M-14.4 -66.15 L-14.7 -65.8 Q-14.9 -65.0 -14.05 -64.9 -13.7 -64.85 -13.5 -65.2 -13.1 -66.05 -14.05 -66.25 L-14.1 -66.25 -14.2 -66.25 -14.25 -66.2 -14.4 -66.15" fill="#884400" fill-rule="evenodd" stroke="none"/>
    <path d="M-20.1 -57.0 L-20.25 -57.8 Q-20.75 -61.3 -19.85 -64.3 -19.4 -65.8 -20.1 -67.15 L-20.65 -67.95 Q-21.0 -68.55 -20.7 -68.95 L-19.5 -70.0 Q-17.95 -72.05 -17.45 -75.6 -16.8 -79.45 -15.05 -82.05 L-14.95 -82.45 Q-14.95 -82.95 -14.6 -83.3 L-13.9 -83.65 Q-13.7 -83.7 -13.45 -83.85 -11.95 -85.3 -9.9 -86.1 L-9.6 -86.2 -9.55 -86.2 -9.3 -86.4 -9.25 -86.45 -9.1 -86.7 Q-8.75 -87.05 -8.2 -87.05 L-7.95 -87.0 -7.7 -86.95 -7.7 -86.9 -7.35 -86.9 -7.3 -86.9 -6.5 -87.05 -6.4 -87.1 Q-5.0 -87.45 -3.9 -88.15 L-2.7 -88.2 Q-1.9 -87.5 -1.05 -87.35 L-0.1 -87.2 0.0 -87.2 0.35 -87.25 0.4 -87.25 0.85 -87.4 1.5 -87.1 1.65 -86.95 2.2 -86.55 3.15 -86.1 Q5.45 -85.05 7.05 -83.55 L7.05 -83.5 7.45 -83.35 8.1 -83.05 8.35 -82.35 8.45 -81.85 8.6 -81.7 Q10.05 -79.45 10.35 -76.4 10.85 -72.0 12.9 -69.7 L13.75 -68.85 Q14.3 -68.25 13.85 -67.35 L13.5 -66.8 Q13.0 -65.9 13.2 -64.75 L13.4 -62.75 Q13.75 -59.95 13.15 -57.0 M10.05 -63.75 Q10.15 -61.85 8.05 -60.6 4.1 -59.85 1.5 -60.95 -0.35 -62.2 0.35 -64.45 1.35 -67.5 3.45 -68.5 5.5 -69.65 7.55 -68.5 9.85 -66.75 10.05 -63.75 M-12.05 -69.05 Q-11.25 -68.95 -10.45 -68.5 -8.4 -67.5 -7.35 -64.5 -6.7 -62.2 -8.5 -61.0 -10.75 -60.05 -13.95 -60.4 L-14.95 -60.55 -15.0 -60.55 -15.1 -60.6 Q-17.2 -61.85 -17.05 -63.75 -16.9 -66.75 -14.6 -68.5 L-12.05 -69.05" fill="none" stroke="#3366cc" stroke-linecap="round" stroke-linejoin="round" stroke-width="0.05"/>
    <path d="M36.3 -72.8 L36.25 -72.5 38.7 -71.05 Q40.1 -70.15 42.0 -69.2 38.85 -51.1 36.75 -36.85 34.6 -22.65 35.8 -19.5 L36.05 -18.8 Q41.85 -4.15 41.95 12.15 40.7 36.8 25.15 46.6 L24.95 46.75 Q14.7 54.6 13.5 73.85 18.35 78.45 19.35 85.3 13.3 81.55 8.9 74.6 2.1 58.45 -3.1 53.3 -6.95 51.15 -11.25 54.95 -16.7 59.85 -20.05 70.8 -23.1 79.05 -29.75 84.05 -29.75 77.1 -25.5 70.7 -27.4 53.85 -35.7 45.25 -50.7 34.7 -50.65 9.95 -49.75 -6.3 -43.15 -20.65 L-42.85 -21.3 Q-41.5 -24.4 -42.3 -27.6 -49.15 -51.75 -50.0 -76.15 L-49.05 -75.7 -48.6 -74.5 -43.65 -74.5 -43.1 -75.4 -41.35 -76.15 Q-41.35 -68.45 -26.0 -58.55 -24.75 -62.2 -22.5 -65.4 -20.25 -67.7 -17.95 -66.25 L-16.95 -65.45 Q-11.9 -61.8 -0.45 -61.8 8.9 -62.85 13.1 -65.85 L13.5 -66.1 Q15.6 -67.6 17.2 -65.55 L17.75 -64.75 Q19.85 -61.35 20.95 -57.6 33.85 -66.65 35.25 -73.85 L36.3 -72.8 M-26.65 -53.95 Q-26.6 -56.35 -26.0 -58.55 -26.6 -56.35 -26.65 -53.95 M21.35 -52.95 Q21.4 -55.35 20.95 -57.6 21.4 -55.35 21.35 -52.95" fill="url(#gradient1)" fill-rule="evenodd" stroke="none"/>
    <path d="M-49.05 -75.7 Q-50.5 -79.35 -52.8 -82.5 -54.05 -84.9 -51.25 -84.7 L-49.5 -84.55 Q-47.75 -84.5 -46.85 -85.7 L-45.55 -87.8 Q-44.3 -89.7 -43.6 -88.1 L-42.8 -85.5 Q-42.3 -84.1 -40.65 -83.9 L-39.05 -83.8 Q-36.3 -83.55 -37.85 -81.5 L-38.05 -81.3 Q-41.2 -78.5 -43.1 -75.4 L-43.65 -74.5 -48.6 -74.5 -49.05 -75.7" fill="url(#gradient2)" fill-rule="evenodd" stroke="none"/>
    <path d="M36.3 -72.8 Q37.1 -77.15 36.6 -81.5 36.7 -84.2 39.05 -82.65 L40.5 -81.6 Q42.0 -80.7 43.35 -81.3 L45.55 -82.45 Q47.55 -83.5 47.4 -81.75 L46.75 -79.1 Q46.5 -77.65 47.8 -76.65 L49.15 -75.75 Q51.4 -74.15 49.05 -73.15 L48.8 -73.05 Q44.05 -72.1 40.55 -70.0 L38.7 -71.05 36.25 -72.5 36.3 -72.8" fill="url(#gradient3)" fill-rule="evenodd" stroke="none"/>
    <path d="M40.55 -70.0 Q44.05 -72.1 48.8 -73.05 L49.05 -73.15 Q51.4 -74.15 49.15 -75.75 L47.8 -76.65 Q46.5 -77.65 46.75 -79.1 L47.4 -81.75 Q47.55 -83.5 45.55 -82.45 L43.35 -81.3 Q42.0 -80.7 40.5 -81.6 L39.05 -82.65 Q36.7 -84.2 36.6 -81.5 37.1 -77.15 36.3 -72.8 L36.25 -72.5 M20.95 -57.6 Q19.85 -61.35 17.75 -64.75 L17.2 -65.55 Q15.6 -67.6 13.5 -66.1 L13.1 -65.85 Q8.9 -62.85 -0.45 -61.8 -11.9 -61.8 -16.95 -65.45 L-17.95 -66.25 Q-20.25 -67.7 -22.5 -65.4 -24.75 -62.2 -26.0 -58.55 -26.6 -56.35 -26.65 -53.95 M36.3 -72.8 L35.25 -73.85 Q33.85 -66.65 20.95 -57.6 21.4 -55.35 21.35 -52.95 M38.7 -71.05 Q40.1 -70.15 42.0 -69.2 38.85 -51.1 36.75 -36.85 34.6 -22.65 35.8 -19.5 L36.05 -18.8 Q41.85 -4.15 41.95 12.15 40.7 36.8 25.15 46.6 L24.95 46.75 Q14.7 54.6 13.5 73.85 18.35 78.45 19.35 85.3 13.3 81.55 8.9 74.6 2.1 58.45 -3.1 53.3 -6.95 51.15 -11.25 54.95 -16.7 59.85 -20.05 70.8 -23.1 79.05 -29.75 84.05 -29.75 77.1 -25.5 70.7 -27.4 53.85 -35.7 45.25 -50.7 34.7 -50.65 9.95 -49.75 -6.3 -43.15 -20.65 L-42.85 -21.3 Q-41.5 -24.4 -42.3 -27.6 -49.15 -51.75 -50.0 -76.15 L-49.05 -75.7 Q-50.5 -79.35 -52.8 -82.5 -54.05 -84.9 -51.25 -84.7 L-49.5 -84.55 Q-47.75 -84.5 -46.85 -85.7 L-45.55 -87.8 Q-44.3 -89.7 -43.6 -88.1 L-42.8 -85.5 Q-42.3 -84.1 -40.65 -83.9 L-39.05 -83.8 Q-36.3 -83.55 -37.85 -81.5 L-38.05 -81.3 Q-41.2 -78.5 -43.1 -75.4 L-41.35 -76.15 Q-41.35 -68.45 -26.0 -58.55 M-48.6 -74.5 L-49.05 -75.7 M-43.1 -75.4 L-43.65 -74.5" fill="none" stroke="#3366cc" stroke-linecap="round" stroke-linejoin="round" stroke-width="0.05"/>
  </g>
  <defs>
    <radialGradient cx="0" cy="0" gradientTransform="matrix(0.0373, 0.0, 0.0, 0.0394, -9.05, -57.1)" gradientUnits="userSpaceOnUse" id="gradient0" r="819.2" spreadMethod="pad">
      <stop offset="0.3843137254901961" stop-color="#33ccff"/>
      <stop offset="1.0" stop-color="#3399ff"/>
    </radialGradient>
    <radialGradient cx="0" cy="0" gradientTransform="matrix(0.1102, 0.0, 0.0, 0.1102, -2.2, -1.9)" gradientUnits="userSpaceOnUse" id="gradient1" r="819.2" spreadMethod="pad">
      <stop offset="0.3843137254901961" stop-color="#33ccff"/>
      <stop offset="1.0" stop-color="#3399ff"/>
    </radialGradient>
    <radialGradient cx="0" cy="0" gradientTransform="matrix(-0.0158, 0.0, 0.0, -0.0158, -49.95, -80.3)" gradientUnits="userSpaceOnUse" id="gradient2" r="819.2" spreadMethod="pad">
      <stop offset="0.3843137254901961" stop-color="#33ccff"/>
      <stop offset="1.0" stop-color="#3399ff"/>
    </radialGradient>
    <radialGradient cx="0" cy="0" gradientTransform="matrix(-0.0137, -0.0079, 0.0079, -0.0137, 37.95, -78.15)" gradientUnits="userSpaceOnUse" id="gradient3" r="819.2" spreadMethod="pad">
      <stop offset="0.3843137254901961" stop-color="#33ccff"/>
      <stop offset="1.0" stop-color="#3399ff"/>
    </radialGradient>
  </defs>
</svg>
