<?xml version="1.0" encoding="UTF-8" standalone="no"?>
<svg xmlns:xlink="http://www.w3.org/1999/xlink" height="171.75px" width="108.35px" xmlns="http://www.w3.org/2000/svg">
  <g transform="matrix(1.0, 0.0, 0.0, 1.0, 54.4, 87.4)">
    <path d="M-17.5 -66.95 Q-16.55 -68.75 -16.15 -71.4 -15.5 -75.25 -13.75 -77.85 L-13.65 -78.25 -13.3 -79.1 -12.6 -79.45 Q-12.4 -79.5 -12.15 -79.65 -10.65 -81.1 -8.6 -81.9 L-8.3 -82.0 -8.25 -82.0 -8.0 -82.2 -7.95 -82.25 -7.8 -82.5 -6.9 -82.85 -6.65 -82.8 -6.4 -82.75 -6.4 -82.7 -6.05 -82.7 -6.0 -82.7 -5.2 -82.85 -5.1 -82.9 Q-3.7 -83.25 -2.6 -83.95 L-1.4 -84.0 Q-0.6 -83.3 0.25 -83.15 L1.2 -83.0 1.3 -83.0 1.65 -83.05 1.7 -83.05 2.15 -83.2 Q2.55 -83.2 2.8 -82.9 L2.95 -82.75 3.5 -82.35 4.45 -81.9 Q6.75 -80.85 8.35 -79.35 L8.35 -79.3 8.75 -79.15 9.4 -78.85 9.65 -78.15 9.75 -77.65 9.9 -77.5 Q11.35 -75.25 11.65 -72.2 12.0 -69.05 13.15 -66.95 -2.15 -51.65 -17.5 -66.95" fill="url(#gradient0)" fill-rule="evenodd" stroke="none"/>
    <path d="M-17.5 -66.95 Q-16.55 -68.75 -16.15 -71.4 -15.5 -75.25 -13.75 -77.85 L-13.65 -78.25 -13.3 -79.1 -12.6 -79.45 Q-12.4 -79.5 -12.15 -79.65 -10.65 -81.1 -8.6 -81.9 L-8.3 -82.0 -8.25 -82.0 -8.0 -82.2 -7.95 -82.25 -7.8 -82.5 -6.9 -82.85 -6.65 -82.8 -6.4 -82.75 -6.4 -82.7 -6.05 -82.7 -6.0 -82.7 -5.2 -82.85 -5.1 -82.9 Q-3.7 -83.25 -2.6 -83.95 L-1.4 -84.0 Q-0.6 -83.3 0.25 -83.15 L1.2 -83.0 1.3 -83.0 1.65 -83.05 1.7 -83.05 2.15 -83.2 Q2.55 -83.2 2.8 -82.9 L2.95 -82.75 3.5 -82.35 4.45 -81.9 Q6.75 -80.85 8.35 -79.35 L8.35 -79.3 8.75 -79.15 9.4 -78.85 9.65 -78.15 9.75 -77.65 9.9 -77.5 Q11.35 -75.25 11.65 -72.2 12.0 -69.05 13.15 -66.95" fill="none" stroke="#3366cc" stroke-linecap="round" stroke-linejoin="round" stroke-width="0.05"/>
    <path d="M40.85 -71.05 L40.85 -70.9 45.6 -69.65 45.8 -69.8 47.6 -68.85 Q45.5 -50.8 39.2 -34.9 L37.75 -31.3 Q36.65 -27.05 38.4 -21.95 L38.65 -21.25 Q43.7 -7.4 45.1 11.65 44.9 28.15 29.75 42.6 L26.95 44.4 Q13.5 52.65 0.75 53.65 L-5.65 53.7 Q-18.8 52.85 -31.1 44.1 L-33.9 41.95 Q-48.6 27.05 -48.3 10.55 -49.05 -8.8 -42.6 -23.55 L-41.85 -25.2 Q-40.6 -28.95 -42.0 -35.25 -47.1 -52.0 -50.45 -73.85 L-48.5 -73.25 -48.05 -72.5 -45.55 -73.0 -43.5 -73.4 -43.2 -73.5 -43.15 -73.55 -41.55 -74.4 Q-35.4 -59.85 -22.85 -60.55 -21.6 -64.0 -19.45 -67.15 -17.7 -68.85 -14.5 -67.4 L-14.1 -67.2 Q-9.05 -64.9 -0.65 -64.85 7.9 -65.8 12.45 -68.0 L12.6 -68.05 16.55 -67.9 18.25 -66.05 Q20.8 -61.05 22.65 -54.8 34.35 -59.15 39.05 -71.2 L40.85 -71.05 M-24.0 -56.4 L-22.85 -60.55 -24.0 -56.4" fill="url(#gradient1)" fill-rule="evenodd" stroke="none"/>
    <path d="M-5.65 53.7 Q-11.8 59.45 -18.75 74.9 -23.1 80.45 -30.3 84.35 -28.35 77.65 -23.4 72.0 -24.1 52.55 -31.1 44.1 -18.8 52.85 -5.65 53.7" fill="url(#gradient2)" fill-rule="evenodd" stroke="none"/>
    <path d="M26.95 44.4 Q20.15 52.15 18.75 72.2 22.95 78.2 23.9 84.2 18.55 81.05 13.65 73.5 8.75 60.35 0.75 53.65 13.5 52.65 26.95 44.4" fill="url(#gradient3)" fill-rule="evenodd" stroke="none"/>
    <path d="M-48.5 -73.25 Q-50.7 -76.7 -53.75 -79.45 -55.5 -81.55 -52.65 -81.95 L-50.95 -82.1 Q-49.2 -82.45 -48.6 -83.8 L-47.7 -86.1 Q-46.9 -88.25 -45.85 -86.8 L-44.55 -84.4 Q-43.8 -83.2 -42.15 -83.3 L-40.55 -83.5 Q-37.8 -83.8 -38.9 -81.55 L-39.05 -81.25 Q-41.95 -77.45 -43.15 -73.55 L-43.2 -73.5 -43.5 -73.4 -45.55 -73.0 -48.05 -72.5 -48.5 -73.25" fill="url(#gradient4)" fill-rule="evenodd" stroke="none"/>
    <path d="M40.85 -71.05 Q40.5 -75.55 38.85 -79.75 38.25 -82.4 40.95 -81.45 L42.55 -80.85 Q44.25 -80.35 45.4 -81.25 L47.25 -82.95 Q48.9 -84.5 49.2 -82.75 L49.3 -80.0 Q49.4 -78.55 50.95 -77.9 L52.5 -77.4 Q55.05 -76.45 53.05 -74.9 L52.8 -74.75 Q48.6 -72.65 45.8 -69.8 L45.6 -69.65 40.85 -70.9 40.85 -71.05" fill="url(#gradient5)" fill-rule="evenodd" stroke="none"/>
    <path d="M45.8 -69.8 Q48.6 -72.65 52.8 -74.75 L53.05 -74.9 Q55.05 -76.45 52.5 -77.4 L50.95 -77.9 Q49.4 -78.55 49.3 -80.0 L49.2 -82.75 Q48.9 -84.5 47.25 -82.95 L45.4 -81.25 Q44.25 -80.35 42.55 -80.85 L40.95 -81.45 Q38.25 -82.4 38.85 -79.75 40.5 -75.55 40.85 -71.05 L40.85 -70.9 M45.6 -69.65 L45.8 -69.8 47.6 -68.85 Q45.5 -50.8 39.2 -34.9 L37.75 -31.3 Q36.65 -27.05 38.4 -21.95 L38.65 -21.25 Q43.7 -7.4 45.1 11.65 44.9 28.15 29.75 42.6 L26.95 44.4 Q20.15 52.15 18.75 72.2 22.95 78.2 23.9 84.2 18.55 81.05 13.65 73.5 8.75 60.35 0.75 53.65 L-5.65 53.7 Q-11.8 59.45 -18.75 74.9 -23.1 80.45 -30.3 84.35 -28.35 77.65 -23.4 72.0 -24.1 52.55 -31.1 44.1 L-33.9 41.95 Q-48.6 27.05 -48.3 10.55 -49.05 -8.8 -42.6 -23.55 L-41.85 -25.2 Q-40.6 -28.95 -42.0 -35.25 -47.1 -52.0 -50.45 -73.85 L-48.5 -73.25 Q-50.7 -76.7 -53.75 -79.45 -55.5 -81.55 -52.65 -81.95 L-50.95 -82.1 Q-49.2 -82.45 -48.6 -83.8 L-47.7 -86.1 Q-46.9 -88.25 -45.85 -86.8 L-44.55 -84.4 Q-43.8 -83.2 -42.15 -83.3 L-40.55 -83.5 Q-37.8 -83.8 -38.9 -81.55 L-39.05 -81.25 Q-41.95 -77.45 -43.15 -73.55 L-41.55 -74.4 Q-35.4 -59.85 -22.85 -60.55 -21.6 -64.0 -19.45 -67.15 -17.7 -68.85 -14.5 -67.4 L-14.1 -67.2 Q-9.05 -64.9 -0.65 -64.85 7.9 -65.8 12.45 -68.0 L12.6 -68.05 16.55 -67.9 18.25 -66.05 Q20.8 -61.05 22.65 -54.8 34.35 -59.15 39.05 -71.2 L40.85 -71.05 M0.75 53.65 Q13.5 52.65 26.95 44.4 M-22.85 -60.55 L-24.0 -56.4 M-43.2 -73.5 L-43.15 -73.55 M-45.55 -73.0 L-43.5 -73.4 M-48.5 -73.25 L-48.05 -72.5 M-31.1 44.1 Q-18.8 52.85 -5.65 53.7" fill="none" stroke="#3366cc" stroke-linecap="round" stroke-linejoin="round" stroke-width="0.05"/>
  </g>
  <defs>
    <radialGradient cx="0" cy="0" gradientTransform="matrix(0.0373, 0.0, 0.0, 0.0394, -7.75, -52.9)" gradientUnits="userSpaceOnUse" id="gradient0" r="819.2" spreadMethod="pad">
      <stop offset="0.3843137254901961" stop-color="#33ccff"/>
      <stop offset="1.0" stop-color="#3399ff"/>
    </radialGradient>
    <radialGradient cx="0" cy="0" gradientTransform="matrix(0.1104, 0.0, 0.0, 0.1104, -6.0, 4.0)" gradientUnits="userSpaceOnUse" id="gradient1" r="819.2" spreadMethod="pad">
      <stop offset="0.3843137254901961" stop-color="#33ccff"/>
      <stop offset="1.0" stop-color="#3399ff"/>
    </radialGradient>
    <radialGradient cx="0" cy="0" gradientTransform="matrix(0.1254, 0.0, 0.0, 0.1254, -18.0, 26.0)" gradientUnits="userSpaceOnUse" id="gradient2" r="819.2" spreadMethod="pad">
      <stop offset="0.3843137254901961" stop-color="#33ccff"/>
      <stop offset="1.0" stop-color="#3399ff"/>
    </radialGradient>
    <radialGradient cx="0" cy="0" gradientTransform="matrix(0.0429, 0.0, 0.0, 0.0429, 9.95, 52.0)" gradientUnits="userSpaceOnUse" id="gradient3" r="819.2" spreadMethod="pad">
      <stop offset="0.3843137254901961" stop-color="#33ccff"/>
      <stop offset="1.0" stop-color="#3399ff"/>
    </radialGradient>
    <radialGradient cx="0" cy="0" gradientTransform="matrix(-0.0155, 0.0032, -0.0032, -0.0155, -50.5, -77.9)" gradientUnits="userSpaceOnUse" id="gradient4" r="819.2" spreadMethod="pad">
      <stop offset="0.3843137254901961" stop-color="#33ccff"/>
      <stop offset="1.0" stop-color="#3399ff"/>
    </radialGradient>
    <radialGradient cx="0" cy="0" gradientTransform="matrix(-0.0153, -0.0041, 0.0041, -0.0153, 41.0, -76.85)" gradientUnits="userSpaceOnUse" id="gradient5" r="819.2" spreadMethod="pad">
      <stop offset="0.3843137254901961" stop-color="#33ccff"/>
      <stop offset="1.0" stop-color="#3399ff"/>
    </radialGradient>
  </defs>
</svg>
