<?xml version="1.0" encoding="UTF-8" standalone="no"?>
<svg xmlns:xlink="http://www.w3.org/1999/xlink" height="171.1px" width="111.35px" xmlns="http://www.w3.org/2000/svg">
  <g transform="matrix(1.0, 0.0, 0.0, 1.0, 55.9, 88.45)">
    <path d="M-15.75 -71.95 Q-15.1 -73.55 -14.8 -75.65 -14.15 -79.5 -12.4 -82.1 L-12.3 -82.5 Q-12.3 -83.0 -11.95 -83.35 L-11.25 -83.7 -10.8 -83.9 Q-9.3 -85.35 -7.25 -86.15 L-6.95 -86.25 -6.9 -86.25 -6.65 -86.45 -6.6 -86.5 -6.45 -86.75 Q-6.1 -87.1 -5.55 -87.1 L-5.3 -87.05 -5.05 -87.0 -5.05 -86.95 -4.7 -86.95 -4.65 -86.95 -3.85 -87.1 -3.75 -87.15 Q-2.35 -87.5 -1.25 -88.2 L-0.05 -88.25 Q0.75 -87.55 1.6 -87.4 L2.55 -87.25 2.65 -87.25 3.0 -87.3 3.05 -87.3 3.5 -87.45 Q3.9 -87.45 4.15 -87.15 L4.3 -87.0 4.85 -86.6 5.8 -86.15 Q8.1 -85.1 9.7 -83.6 L9.7 -83.55 10.1 -83.4 10.75 -83.1 11.0 -82.4 11.1 -81.9 11.25 -81.75 Q12.7 -79.5 13.0 -76.45 13.3 -73.85 14.15 -71.95 3.0 -56.6 -15.75 -71.95" fill="url(#gradient0)" fill-rule="evenodd" stroke="none"/>
    <path d="M-15.75 -71.95 Q-15.1 -73.55 -14.8 -75.65 -14.15 -79.5 -12.4 -82.1 L-12.3 -82.5 Q-12.3 -83.0 -11.95 -83.35 L-11.25 -83.7 -10.8 -83.9 Q-9.3 -85.35 -7.25 -86.15 L-6.95 -86.25 -6.9 -86.25 -6.65 -86.45 -6.6 -86.5 -6.45 -86.75 Q-6.1 -87.1 -5.55 -87.1 L-5.3 -87.05 -5.05 -87.0 -5.05 -86.95 -4.7 -86.95 -4.65 -86.95 -3.85 -87.1 -3.75 -87.15 Q-2.35 -87.5 -1.25 -88.2 L-0.05 -88.25 Q0.75 -87.55 1.6 -87.4 L2.55 -87.25 2.65 -87.25 3.0 -87.3 3.05 -87.3 3.5 -87.45 Q3.9 -87.45 4.15 -87.15 L4.3 -87.0 4.85 -86.6 5.8 -86.15 Q8.1 -85.1 9.7 -83.6 L9.7 -83.55 10.1 -83.4 10.75 -83.1 11.0 -82.4 11.1 -81.9 11.25 -81.75 Q12.7 -79.5 13.0 -76.45 13.3 -73.85 14.15 -71.95" fill="none" stroke="#3366cc" stroke-linecap="round" stroke-linejoin="round" stroke-width="0.05"/>
    <path d="M42.05 -70.7 L42.35 -68.1 47.1 -66.85 47.3 -67.0 48.45 -66.95 38.85 -38.4 38.55 -36.5 38.3 -32.7 Q38.3 -30.85 38.55 -29.05 L39.35 -25.35 40.05 -23.3 40.95 -20.95 42.55 -16.35 43.15 -14.05 43.7 -11.65 44.15 -9.3 44.4 -6.9 44.6 -4.5 44.7 -2.0 44.65 1.75 44.4 5.4 44.15 7.95 43.5 11.75 42.85 14.35 41.85 18.0 40.4 22.55 39.65 24.6 38.75 26.65 37.8 28.5 36.8 30.35 35.8 32.0 33.55 35.15 31.15 37.9 28.55 40.25 25.8 42.35 24.85 44.35 Q19.4 52.45 18.15 70.15 22.35 76.15 24.25 82.65 17.95 79.0 13.05 71.45 8.7 59.8 1.9 53.2 -4.75 48.8 -7.85 52.15 -13.55 59.95 -19.35 72.85 -23.7 78.4 -30.9 82.3 -28.95 75.6 -24.0 69.95 -24.7 50.6 -31.25 39.6 L-31.5 39.4 -32.5 38.55 -34.5 36.5 -36.45 34.15 -38.2 31.65 -39.9 28.7 -41.4 25.7 -42.8 22.25 -44.05 18.7 -44.6 16.8 -45.45 13.55 -46.0 10.95 -46.7 7.15 -47.0 4.6 -47.2 0.95 -47.3 -2.8 -47.2 -5.3 -47.0 -7.7 -46.7 -10.1 -46.3 -12.45 -45.75 -14.85 -45.15 -17.15 -44.45 -19.5 -43.65 -21.8 -42.7 -24.35 Q-42.05 -26.15 -41.55 -28.05 -41.1 -29.85 -40.95 -31.7 L-41.0 -35.4 -41.55 -39.2 -49.45 -65.55 -51.25 -73.0 -50.2 -72.95 -49.55 -71.85 -44.7 -72.85 -44.05 -74.6 Q-41.25 -69.35 -36.1 -65.85 -24.85 -61.3 -23.3 -64.0 L-23.15 -64.25 Q-21.1 -68.65 -18.7 -71.2 L-17.7 -72.2 -14.9 -72.15 -14.75 -72.05 Q-10.15 -68.8 1.9 -68.55 10.35 -69.7 14.25 -72.9 L14.65 -73.25 Q16.7 -74.8 18.75 -71.8 20.7 -68.2 22.3 -62.1 23.3 -59.65 26.65 -60.6 L26.9 -60.65 Q33.65 -62.85 42.05 -70.7 M18.85 45.4 L22.4 44.05 25.8 42.35 22.4 44.05 18.85 45.4 M-21.55 44.6 L-25.05 43.25 -28.45 41.45 -31.25 39.6 -28.45 41.45 -25.05 43.25 -21.55 44.6" fill="url(#gradient1)" fill-rule="evenodd" stroke="none"/>
    <path d="M-50.2 -72.95 Q-52.35 -76.2 -55.25 -78.8 -57.0 -80.9 -54.15 -81.3 L-52.45 -81.45 Q-50.7 -81.8 -50.1 -83.15 L-49.2 -85.45 Q-48.4 -87.6 -47.35 -86.15 L-46.05 -83.75 Q-45.3 -82.55 -43.65 -82.65 L-42.05 -82.85 Q-39.3 -83.15 -40.4 -80.9 L-40.55 -80.6 Q-42.8 -77.65 -44.05 -74.6 L-44.7 -72.85 -49.55 -71.85 -50.2 -72.95" fill="url(#gradient2)" fill-rule="evenodd" stroke="none"/>
    <path d="M42.05 -70.7 Q41.55 -73.9 40.35 -76.95 39.75 -79.6 42.45 -78.65 L44.05 -78.05 Q45.75 -77.55 46.9 -78.45 L48.75 -80.15 Q50.4 -81.7 50.7 -79.95 L50.8 -77.2 Q50.9 -75.75 52.45 -75.1 L54.0 -74.6 Q56.55 -73.65 54.55 -72.1 L54.3 -71.95 Q50.1 -69.85 47.3 -67.0 L47.1 -66.85 42.35 -68.1 42.05 -70.7" fill="url(#gradient3)" fill-rule="evenodd" stroke="none"/>
    <path d="M47.3 -67.0 Q50.1 -69.85 54.3 -71.95 L54.55 -72.1 Q56.55 -73.65 54.0 -74.6 L52.45 -75.1 Q50.9 -75.75 50.8 -77.2 L50.7 -79.95 Q50.4 -81.7 48.75 -80.15 L46.9 -78.45 Q45.75 -77.55 44.05 -78.05 L42.45 -78.65 Q39.75 -79.6 40.35 -76.95 41.55 -73.9 42.05 -70.7 L42.35 -68.1 M47.1 -66.85 L47.3 -67.0 48.45 -66.95 38.85 -38.4 38.55 -36.5 38.3 -32.7 Q38.3 -30.85 38.55 -29.05 L39.35 -25.35 40.05 -23.3 40.95 -20.95 42.55 -16.35 43.15 -14.05 43.7 -11.65 44.15 -9.3 44.4 -6.9 44.6 -4.5 44.7 -2.0 44.65 1.75 44.4 5.4 44.15 7.95 43.5 11.75 42.85 14.35 41.85 18.0 40.4 22.55 39.65 24.6 38.75 26.65 37.8 28.5 36.8 30.35 35.8 32.0 33.55 35.15 31.15 37.9 28.55 40.25 25.8 42.35 24.85 44.35 Q19.4 52.45 18.15 70.15 22.35 76.15 24.25 82.65 17.95 79.0 13.05 71.45 8.7 59.8 1.9 53.2 -4.75 48.8 -7.85 52.15 -13.55 59.95 -19.35 72.85 -23.7 78.4 -30.9 82.3 -28.95 75.6 -24.0 69.95 -24.7 50.6 -31.25 39.6 L-31.5 39.4 -32.5 38.55 -34.5 36.5 -36.45 34.15 -38.2 31.65 -39.9 28.7 -41.4 25.7 -42.8 22.25 -44.05 18.7 -44.6 16.8 -45.45 13.55 -46.0 10.95 -46.7 7.15 -47.0 4.6 -47.2 0.95 -47.3 -2.8 -47.2 -5.3 -47.0 -7.7 -46.7 -10.1 -46.3 -12.45 -45.75 -14.85 -45.15 -17.15 -44.45 -19.5 -43.65 -21.8 -42.7 -24.35 Q-42.05 -26.15 -41.55 -28.05 -41.1 -29.85 -40.95 -31.7 L-41.0 -35.4 -41.55 -39.2 -49.45 -65.55 -51.25 -73.0 -50.2 -72.95 Q-52.35 -76.2 -55.25 -78.8 -57.0 -80.9 -54.15 -81.3 L-52.45 -81.45 Q-50.7 -81.8 -50.1 -83.15 L-49.2 -85.45 Q-48.4 -87.6 -47.35 -86.15 L-46.05 -83.75 Q-45.3 -82.55 -43.65 -82.65 L-42.05 -82.85 Q-39.3 -83.15 -40.4 -80.9 L-40.55 -80.6 Q-42.8 -77.65 -44.05 -74.6 -41.25 -69.35 -36.1 -65.85 -24.85 -61.3 -23.3 -64.0 L-23.15 -64.25 Q-21.1 -68.65 -18.7 -71.2 L-17.7 -72.2 -14.9 -72.15 -14.75 -72.05 Q-10.15 -68.8 1.9 -68.55 10.35 -69.7 14.25 -72.9 L14.65 -73.25 Q16.7 -74.8 18.75 -71.8 20.7 -68.2 22.3 -62.1 23.3 -59.65 26.65 -60.6 L26.9 -60.65 Q33.65 -62.85 42.05 -70.7 M25.8 42.35 L22.4 44.05 18.85 45.4 M-44.7 -72.85 L-44.05 -74.6 M-50.2 -72.95 L-49.55 -71.85 M-31.25 39.6 L-28.45 41.45 -25.05 43.25 -21.55 44.6" fill="none" stroke="#3366cc" stroke-linecap="round" stroke-linejoin="round" stroke-width="0.05"/>
  </g>
  <defs>
    <radialGradient cx="0" cy="0" gradientTransform="matrix(0.0373, 0.0, 0.0, 0.0394, -6.4, -57.15)" gradientUnits="userSpaceOnUse" id="gradient0" r="819.2" spreadMethod="pad">
      <stop offset="0.3843137254901961" stop-color="#33ccff"/>
      <stop offset="1.0" stop-color="#3399ff"/>
    </radialGradient>
    <radialGradient cx="0" cy="0" gradientTransform="matrix(0.1254, 0.0, 0.0, 0.1254, -18.0, 26.0)" gradientUnits="userSpaceOnUse" id="gradient1" r="819.2" spreadMethod="pad">
      <stop offset="0.3843137254901961" stop-color="#33ccff"/>
      <stop offset="1.0" stop-color="#3399ff"/>
    </radialGradient>
    <radialGradient cx="0" cy="0" gradientTransform="matrix(-0.0155, 0.0032, -0.0032, -0.0155, -52.0, -77.25)" gradientUnits="userSpaceOnUse" id="gradient2" r="819.2" spreadMethod="pad">
      <stop offset="0.3843137254901961" stop-color="#33ccff"/>
      <stop offset="1.0" stop-color="#3399ff"/>
    </radialGradient>
    <radialGradient cx="0" cy="0" gradientTransform="matrix(-0.0153, -0.0041, 0.0041, -0.0153, 42.5, -74.05)" gradientUnits="userSpaceOnUse" id="gradient3" r="819.2" spreadMethod="pad">
      <stop offset="0.3843137254901961" stop-color="#33ccff"/>
      <stop offset="1.0" stop-color="#3399ff"/>
    </radialGradient>
  </defs>
</svg>
