<?xml version="1.0" encoding="UTF-8" standalone="no"?>
<svg xmlns:xlink="http://www.w3.org/1999/xlink" height="1076.25px" width="1274.35px" xmlns="http://www.w3.org/2000/svg">
  <g transform="matrix(1.0, 0.0, 0.0, 1.0, 637.15, 538.1)">
    <path d="M637.2 96.0 Q633.3 96.05 629.45 97.9 613.75 103.1 608.05 112.45 L605.55 112.3 Q594.35 112.75 587.0 118.55 568.9 110.65 562.6 121.65 545.1 103.95 543.85 118.85 539.35 113.8 534.05 109.9 516.85 97.15 508.75 108.35 L504.2 106.45 Q488.95 100.6 480.95 108.35 L478.15 106.55 Q463.0 97.85 452.15 103.4 448.35 100.55 443.15 98.9 431.85 95.1 421.6 97.6 418.35 95.15 414.7 93.35 403.1 87.55 395.2 91.5 387.4 86.35 376.55 91.35 365.65 96.4 358.75 105.0 L355.8 103.6 Q342.35 98.1 332.6 101.6 L330.55 100.25 Q314.95 90.05 306.45 97.45 L303.2 95.3 Q287.55 85.65 278.9 98.75 273.1 92.7 263.6 93.5 250.6 94.6 244.15 100.8 L242.65 99.7 Q224.65 87.7 211.05 98.25 201.4 90.55 190.55 96.35 183.65 88.25 174.25 82.35 160.2 73.65 158.15 88.55 150.45 86.4 145.55 83.05 L145.4 82.95 Q130.65 72.5 125.65 84.4 111.3 88.8 109.35 101.75 102.95 99.15 96.2 97.75 80.85 94.4 70.0 102.35 57.0 93.95 50.5 100.05 47.9 99.15 44.9 98.9 27.05 97.25 20.0 106.65 L18.15 105.2 16.75 104.3 10.0 98.9 Q0.8 91.9 -7.85 91.9 -12.75 79.95 -25.35 83.95 -32.9 82.05 -39.85 87.2 -54.7 76.85 -65.9 88.8 -86.55 76.05 -92.5 94.85 -110.85 97.6 -100.45 110.8 -111.9 113.25 -112.25 123.5 -120.65 121.45 -129.65 123.9 -143.5 111.9 -154.75 120.55 -156.95 119.0 -159.3 117.65 -172.5 109.9 -179.6 113.0 L-181.45 112.0 Q-194.15 105.05 -200.4 113.3 -213.65 105.5 -223.9 112.75 L-225.4 111.55 Q-242.0 99.35 -253.85 109.6 -269.3 93.3 -283.65 102.05 -285.95 98.05 -292.65 97.05 -307.05 94.95 -317.6 100.3 -333.3 90.05 -344.65 102.7 -374.7 93.2 -370.55 113.4 -380.3 118.55 -380.35 128.3 -388.65 130.0 -392.8 136.3 L-393.6 136.0 Q-408.05 130.4 -420.75 134.9 -424.45 128.15 -432.35 124.75 -447.1 118.3 -458.45 123.9 -466.9 113.55 -480.45 110.4 -495.3 106.95 -506.35 113.6 -512.85 109.0 -521.6 108.0 -529.75 107.05 -535.65 110.25 -544.85 103.4 -559.0 105.55 -561.65 105.95 -564.15 106.85 -569.85 100.15 -578.7 95.85 -589.4 90.65 -599.55 97.65 -611.95 93.3 -623.45 109.15 -626.15 112.85 -627.15 116.9 -632.15 116.65 -637.15 119.8 L-637.15 -538.1 637.2 -538.1 637.2 96.0" fill="url(#gradient0)" fill-rule="evenodd" stroke="none"/>
    <path d="M-621.65 110.45 L-621.6 110.45 -621.65 110.45 M302.0 97.25 L302.0 97.2 302.05 97.25 302.0 97.25 M173.0 84.25 L173.05 84.25 173.0 84.25 M241.35 101.6 L241.4 101.6 241.35 101.6" fill="#005300" fill-rule="evenodd" stroke="none"/>
    <path d="M637.2 159.0 L637.2 538.15 -637.15 538.15 -637.15 159.0 637.2 159.0" fill="url(#gradient1)" fill-rule="evenodd" stroke="none"/>
    <path d="M-621.65 110.45 Q-611.25 96.25 -600.3 99.85 L-599.25 99.9 Q-598.7 99.8 -598.25 99.5 -589.2 93.25 -579.65 97.9 -571.3 101.95 -565.9 108.35 -565.45 108.85 -564.75 109.05 L-563.4 109.0 -558.7 107.8 -558.65 107.8 Q-545.55 105.8 -537.0 112.05 -536.45 112.45 -535.8 112.5 L-534.6 112.25 Q-529.25 109.4 -521.85 110.25 -513.75 111.2 -507.65 115.45 -507.1 115.85 -506.4 115.9 L-505.15 115.55 Q-494.85 109.4 -481.0 112.6 -468.2 115.6 -460.25 125.35 -459.75 125.95 -458.95 126.15 L-457.45 125.95 Q-446.95 120.85 -433.25 126.85 -426.15 129.9 -422.75 136.0 -422.35 136.7 -421.55 137.0 L-420.0 137.05 Q-408.05 132.85 -394.45 138.1 L-393.6 138.45 Q-392.9 138.7 -392.15 138.45 -391.4 138.2 -390.9 137.55 -387.2 132.05 -379.9 130.55 -379.15 130.35 -378.65 129.75 -378.1 129.1 -378.1 128.35 -377.95 119.9 -369.5 115.4 -368.85 115.0 -368.5 114.35 -368.15 113.65 -368.3 112.9 -369.95 104.95 -365.25 102.75 -359.3 100.45 -345.35 104.9 -344.7 105.1 -344.05 104.9 L-342.95 104.25 Q-332.85 93.05 -318.85 102.2 L-317.7 102.55 -316.55 102.35 Q-306.6 97.35 -293.0 99.3 -287.6 100.1 -285.6 103.15 L-284.75 104.0 -283.6 104.3 -282.45 103.95 Q-269.55 96.35 -255.5 111.15 -254.9 111.8 -253.95 111.85 -253.05 111.9 -252.35 111.3 -241.75 102.35 -226.8 113.4 L-225.35 114.5 Q-224.8 115.0 -224.0 115.05 -223.25 115.05 -222.55 114.65 -213.45 108.3 -201.55 115.25 -200.8 115.7 -199.95 115.55 -199.1 115.35 -198.6 114.65 -193.3 108.1 -182.55 114.0 L-182.5 114.0 -180.65 115.0 -179.7 115.25 -178.7 115.1 Q-172.35 112.6 -160.45 119.6 -158.2 120.9 -156.05 122.4 -155.45 122.85 -154.7 122.85 -154.0 122.8 -153.35 122.35 -143.4 114.95 -131.15 125.6 L-130.15 126.15 -129.05 126.1 Q-120.6 123.8 -112.75 125.7 L-111.45 125.65 Q-110.8 125.4 -110.35 124.85 -110.0 124.25 -109.95 123.6 -109.6 115.1 -99.95 113.05 L-98.7 112.25 Q-98.2 111.6 -98.2 110.8 -98.2 110.0 -98.7 109.4 -102.75 104.2 -101.65 101.25 -99.85 98.25 -92.15 97.1 L-91.0 96.6 -90.35 95.55 Q-87.8 87.6 -82.35 86.15 -76.45 85.0 -67.1 90.75 L-65.6 91.05 Q-64.8 90.95 -64.2 90.4 -54.3 79.9 -41.15 89.05 L-39.8 89.45 Q-39.1 89.45 -38.55 89.0 -32.45 84.55 -25.9 86.15 L-24.7 86.1 Q-14.1 82.75 -10.0 92.75 L-9.1 93.8 -7.85 94.15 Q0.1 94.2 8.55 100.65 L8.6 100.7 15.3 106.05 15.55 106.25 16.85 107.1 18.5 108.4 19.6 108.9 20.85 108.8 21.8 108.05 Q28.4 99.65 44.7 101.15 47.45 101.4 49.75 102.2 L50.95 102.3 Q51.6 102.15 52.05 101.75 57.55 97.05 68.75 104.25 L70.1 104.6 71.35 104.15 Q81.4 96.9 95.7 100.0 L95.75 100.0 Q102.3 101.35 108.5 103.85 L109.85 103.95 Q110.5 103.8 111.0 103.3 111.5 102.75 111.6 102.05 113.4 90.55 126.35 86.55 L127.2 86.05 127.75 85.25 Q129.6 80.75 133.25 80.35 137.55 80.15 144.05 84.8 L144.1 84.8 144.1 84.85 144.25 84.95 Q149.4 88.45 157.55 90.75 L158.8 90.7 159.9 90.05 160.4 88.85 Q161.2 83.05 164.05 81.7 167.25 80.7 173.0 84.25 182.15 90.0 188.8 97.8 189.35 98.4 190.15 98.6 L191.6 98.35 Q201.15 93.25 209.65 100.0 210.25 100.5 211.05 100.5 211.85 100.5 212.45 100.0 224.9 90.6 241.35 101.6 L242.75 102.6 Q243.4 103.1 244.25 103.1 245.1 103.0 245.75 102.45 251.75 96.75 263.75 95.75 272.1 95.05 277.3 100.3 277.75 100.8 278.45 100.95 L279.8 100.85 280.8 100.0 Q284.5 94.4 289.6 93.6 295.0 92.95 302.0 97.2 L302.0 97.25 305.15 99.3 Q305.75 99.75 306.55 99.7 307.3 99.65 307.9 99.15 315.45 93.05 329.3 102.15 L331.3 103.5 Q331.75 103.8 332.3 103.9 L333.35 103.75 Q342.4 100.6 354.95 105.7 L357.65 107.0 Q358.4 107.4 359.2 107.25 360.0 107.05 360.55 106.45 367.1 98.2 377.5 93.4 387.05 89.0 393.95 93.4 L395.05 93.8 396.25 93.55 Q403.3 90.2 413.7 95.4 417.15 97.1 420.2 99.4 L421.1 99.85 422.1 99.8 Q431.75 97.45 442.45 101.05 447.25 102.6 450.75 105.2 451.3 105.6 451.95 105.65 L453.15 105.4 Q463.1 100.5 477.05 108.5 L479.6 110.2 Q480.25 110.65 481.1 110.6 481.9 110.55 482.55 109.95 489.7 103.3 503.35 108.6 505.6 109.45 507.8 110.45 L509.35 110.55 510.6 109.7 Q513.9 105.15 519.0 105.4 524.75 105.85 532.65 111.7 537.8 115.5 542.1 120.35 542.75 121.05 543.65 121.1 544.6 121.15 545.3 120.55 546.0 119.95 546.1 119.05 546.35 116.15 547.3 114.85 547.85 114.2 548.85 114.35 553.0 115.15 561.0 123.25 561.5 123.75 562.2 123.9 L563.55 123.7 564.6 122.8 Q570.2 113.7 586.05 120.65 L587.3 120.8 Q587.9 120.7 588.4 120.3 595.25 115.0 605.6 114.6 L607.7 114.7 609.0 114.5 610.0 113.65 Q615.4 104.95 630.15 100.05 L630.4 99.95 Q633.8 98.4 637.2 98.35 L637.2 156.7 -637.15 156.7 -637.15 122.6 Q-632.2 119.0 -627.25 119.2 L-625.8 118.75 Q-625.15 118.25 -624.95 117.45 -624.05 113.8 -621.6 110.45 L-621.65 110.45" fill="#008a00" fill-rule="evenodd" stroke="none"/>
    <path d="M173.0 84.25 Q167.25 80.7 164.05 81.7 161.2 83.05 160.4 88.85 L159.9 90.05 158.8 90.7 157.55 90.75 Q149.4 88.45 144.25 84.95 L144.1 84.85 144.1 84.8 144.05 84.8 Q137.55 80.15 133.25 80.35 129.6 80.75 127.75 85.25 L127.2 86.05 126.35 86.55 Q113.4 90.55 111.6 102.05 111.5 102.75 111.0 103.3 110.5 103.8 109.85 103.95 L108.5 103.85 Q102.3 101.35 95.75 100.0 L95.7 100.0 Q81.4 96.9 71.35 104.15 L70.1 104.6 68.75 104.25 Q57.55 97.05 52.05 101.75 51.6 102.15 50.95 102.3 L49.75 102.2 Q47.45 101.4 44.7 101.15 28.4 99.65 21.8 108.05 L20.85 108.8 19.6 108.9 18.5 108.4 16.85 107.1 15.55 106.25 15.3 106.05 8.6 100.7 8.55 100.65 Q0.1 94.2 -7.85 94.15 L-9.1 93.8 -10.0 92.75 Q-14.1 82.75 -24.7 86.1 L-25.9 86.15 Q-32.45 84.55 -38.55 89.0 -39.1 89.45 -39.8 89.45 L-41.15 89.05 Q-54.3 79.9 -64.2 90.4 -64.8 90.95 -65.6 91.05 L-67.1 90.75 Q-76.45 85.0 -82.35 86.15 -87.8 87.6 -90.35 95.55 L-91.0 96.6 -92.15 97.1 Q-99.85 98.25 -101.65 101.25 -102.75 104.2 -98.7 109.4 -98.2 110.0 -98.2 110.8 -98.2 111.6 -98.7 112.25 L-99.95 113.05 Q-109.6 115.1 -109.95 123.6 -110.0 124.25 -110.35 124.85 -110.8 125.4 -111.45 125.65 L-112.75 125.7 Q-120.6 123.8 -129.05 126.1 L-130.15 126.15 -131.15 125.6 Q-143.4 114.95 -153.35 122.35 -154.0 122.8 -154.7 122.85 -155.45 122.85 -156.05 122.4 -158.2 120.9 -160.45 119.6 -172.35 112.6 -178.7 115.1 L-179.7 115.25 -180.65 115.0 -182.5 114.0 -182.55 114.0 Q-193.3 108.1 -198.6 114.65 -199.1 115.35 -199.95 115.55 -200.8 115.7 -201.55 115.25 -213.45 108.3 -222.55 114.65 -223.25 115.05 -224.0 115.05 -224.8 115.0 -225.35 114.5 L-226.8 113.4 Q-241.75 102.35 -252.35 111.3 -253.05 111.9 -253.95 111.85 -254.9 111.8 -255.5 111.15 -269.55 96.35 -282.45 103.95 L-283.6 104.3 -284.75 104.0 -285.6 103.15 Q-287.6 100.1 -293.0 99.3 -306.6 97.35 -316.55 102.35 L-317.7 102.55 -318.85 102.2 Q-332.85 93.05 -342.95 104.25 L-344.05 104.9 Q-344.7 105.1 -345.35 104.9 -359.3 100.45 -365.25 102.75 -369.95 104.95 -368.3 112.9 -368.15 113.65 -368.5 114.35 -368.85 115.0 -369.5 115.4 -377.95 119.9 -378.1 128.35 -378.1 129.1 -378.65 129.75 -379.15 130.35 -379.9 130.55 -387.2 132.05 -390.9 137.55 -391.4 138.2 -392.15 138.45 -392.9 138.7 -393.6 138.45 L-394.45 138.1 Q-408.05 132.85 -420.0 137.05 L-421.55 137.0 Q-422.35 136.7 -422.75 136.0 -426.15 129.9 -433.25 126.85 -446.95 120.85 -457.45 125.95 L-458.95 126.15 Q-459.75 125.95 -460.25 125.35 -468.2 115.6 -481.0 112.6 -494.85 109.4 -505.15 115.55 L-506.4 115.9 Q-507.1 115.85 -507.65 115.45 -513.75 111.2 -521.85 110.25 -529.25 109.4 -534.6 112.25 L-535.8 112.5 Q-536.45 112.45 -537.0 112.05 -545.55 105.8 -558.65 107.8 L-558.7 107.8 -563.4 109.0 -564.75 109.05 Q-565.45 108.85 -565.9 108.35 -571.3 101.95 -579.65 97.9 -589.2 93.25 -598.25 99.5 -598.7 99.8 -599.25 99.9 L-600.3 99.85 Q-611.25 96.25 -621.65 110.45 L-621.6 110.45 Q-624.05 113.8 -624.95 117.45 -625.15 118.25 -625.8 118.75 L-627.25 119.2 Q-632.2 119.0 -637.15 122.6 L-637.15 119.8 Q-632.15 116.65 -627.15 116.9 -626.15 112.85 -623.45 109.15 -611.95 93.3 -599.55 97.65 -589.4 90.65 -578.7 95.85 -569.85 100.15 -564.15 106.85 -561.65 105.95 -559.0 105.55 -544.85 103.4 -535.65 110.25 -529.75 107.05 -521.6 108.0 -512.85 109.0 -506.35 113.6 -495.3 106.95 -480.45 110.4 -466.9 113.55 -458.45 123.9 -447.1 118.3 -432.35 124.75 -424.45 128.15 -420.75 134.9 -408.05 130.4 -393.6 136.0 L-392.8 136.3 Q-388.65 130.0 -380.35 128.3 -380.3 118.55 -370.55 113.4 -374.7 93.2 -344.65 102.7 -333.3 90.05 -317.6 100.3 -307.05 94.95 -292.65 97.05 -285.95 98.05 -283.65 102.05 -269.3 93.3 -253.85 109.6 -242.0 99.35 -225.4 111.55 L-223.9 112.75 Q-213.65 105.5 -200.4 113.3 -194.15 105.05 -181.45 112.0 L-179.6 113.0 Q-172.5 109.9 -159.3 117.65 -156.95 119.0 -154.75 120.55 -143.5 111.9 -129.65 123.9 -120.65 121.45 -112.25 123.5 -111.9 113.25 -100.45 110.8 -110.85 97.6 -92.5 94.85 -86.55 76.05 -65.9 88.8 -54.7 76.85 -39.85 87.2 -32.9 82.05 -25.35 83.95 -12.75 79.95 -7.85 91.9 0.8 91.9 10.0 98.9 L16.75 104.3 18.15 105.2 20.0 106.65 Q27.05 97.25 44.9 98.9 47.9 99.15 50.5 100.05 57.0 93.95 70.0 102.35 80.85 94.4 96.2 97.75 102.95 99.15 109.35 101.75 111.3 88.8 125.65 84.4 130.65 72.5 145.4 82.95 L145.55 83.05 Q150.45 86.4 158.15 88.55 160.2 73.65 174.25 82.35 183.65 88.25 190.55 96.35 201.4 90.55 211.05 98.25 224.65 87.7 242.65 99.7 L244.15 100.8 Q250.6 94.6 263.6 93.5 273.1 92.7 278.9 98.75 287.55 85.65 303.2 95.3 L306.45 97.45 Q314.95 90.05 330.55 100.25 L332.6 101.6 Q342.35 98.1 355.8 103.6 L358.75 105.0 Q365.65 96.4 376.55 91.35 387.4 86.35 395.2 91.5 403.1 87.55 414.7 93.35 418.35 95.15 421.6 97.6 431.85 95.1 443.15 98.9 448.35 100.55 452.15 103.4 463.0 97.85 478.15 106.55 L480.95 108.35 Q488.95 100.6 504.2 106.45 L508.75 108.35 Q516.85 97.15 534.05 109.9 539.35 113.8 543.85 118.85 545.1 103.95 562.6 121.65 568.9 110.65 587.0 118.55 594.35 112.75 605.55 112.3 L608.05 112.45 Q613.75 103.1 629.45 97.9 633.3 96.05 637.2 96.0 L637.2 98.35 Q633.8 98.4 630.4 99.95 L630.15 100.05 Q615.4 104.95 610.0 113.65 L609.0 114.5 607.7 114.7 605.6 114.6 Q595.25 115.0 588.4 120.3 587.9 120.7 587.3 120.8 L586.05 120.65 Q570.2 113.7 564.6 122.8 L563.55 123.7 562.2 123.9 Q561.5 123.75 561.0 123.25 553.0 115.15 548.85 114.35 547.85 114.2 547.3 114.85 546.35 116.15 546.1 119.05 546.0 119.95 545.3 120.55 544.6 121.15 543.65 121.1 542.75 121.05 542.1 120.35 537.8 115.5 532.65 111.7 524.75 105.85 519.0 105.4 513.9 105.15 510.6 109.7 L509.35 110.55 507.8 110.45 Q505.6 109.45 503.35 108.6 489.7 103.3 482.55 109.95 481.9 110.55 481.1 110.6 480.25 110.65 479.6 110.2 L477.05 108.5 Q463.1 100.5 453.15 105.4 L451.95 105.65 Q451.3 105.6 450.75 105.2 447.25 102.6 442.45 101.05 431.75 97.45 422.1 99.8 L421.1 99.85 420.2 99.4 Q417.15 97.1 413.7 95.4 403.3 90.2 396.25 93.55 L395.05 93.8 393.95 93.4 Q387.05 89.0 377.5 93.4 367.1 98.2 360.55 106.45 360.0 107.05 359.2 107.25 358.4 107.4 357.65 107.0 L354.95 105.7 Q342.4 100.6 333.35 103.75 L332.3 103.9 Q331.75 103.8 331.3 103.5 L329.3 102.15 Q315.45 93.05 307.9 99.15 307.3 99.65 306.55 99.7 305.75 99.75 305.15 99.3 L302.0 97.25 302.05 97.25 302.0 97.2 Q295.0 92.95 289.6 93.6 284.5 94.4 280.8 100.0 L279.8 100.85 278.45 100.95 Q277.75 100.8 277.3 100.3 272.1 95.05 263.75 95.75 251.75 96.75 245.75 102.45 245.1 103.0 244.25 103.1 243.4 103.1 242.75 102.6 L241.35 101.6 Q224.9 90.6 212.45 100.0 211.85 100.5 211.05 100.5 210.25 100.5 209.65 100.0 201.15 93.25 191.6 98.35 L190.15 98.6 Q189.35 98.4 188.8 97.8 182.15 90.0 173.0 84.25 L173.05 84.25 173.0 84.25 M-637.15 156.7 L637.2 156.7 637.2 159.0 -637.15 159.0 -637.15 156.7 M241.35 101.6 L241.4 101.6 241.35 101.6" fill="#007900" fill-rule="evenodd" stroke="none"/>
  </g>
  <defs>
    <linearGradient gradientTransform="matrix(-0.028, -0.2057, 0.8152, -0.1112, 2.6, -89.4)" gradientUnits="userSpaceOnUse" id="gradient0" spreadMethod="pad" x1="-819.2" x2="819.2">
      <stop offset="0.0" stop-color="#66ccff"/>
      <stop offset="1.0" stop-color="#0099ff"/>
    </linearGradient>
    <linearGradient gradientTransform="matrix(2.0E-4, 0.2325, -0.778, 5.0E-4, 0.05, 360.4)" gradientUnits="userSpaceOnUse" id="gradient1" spreadMethod="pad" x1="-819.2" x2="819.2">
      <stop offset="0.0" stop-color="#009900"/>
      <stop offset="1.0" stop-color="#00cc00"/>
    </linearGradient>
  </defs>
</svg>
