<?xml version="1.0" encoding="UTF-8" standalone="no"?>
<svg xmlns:xlink="http://www.w3.org/1999/xlink" height="577.95px" width="846.95px" xmlns="http://www.w3.org/2000/svg">
  <g transform="matrix(1.0, 0.0, 0.0, 1.0, 424.95, 332.95)">
    <path d="M219.25 -271.3 Q230.8 -279.95 246.0 -279.95 264.65 -279.95 277.85 -266.9 286.0 -258.85 289.1 -248.7 289.45 -247.6 290.5 -247.0 291.5 -246.4 292.65 -246.65 298.3 -247.95 304.5 -247.95 326.25 -247.95 341.6 -232.3 357.0 -216.6 357.0 -194.45 357.0 -186.65 355.1 -179.65 L355.05 -178.35 Q355.15 -177.7 355.55 -177.15 359.95 -170.75 361.75 -163.3 361.95 -162.6 362.45 -162.0 362.9 -161.45 363.65 -161.2 379.15 -155.35 391.8 -142.45 415.0 -118.85 415.0 -85.5 415.0 -75.45 412.9 -66.3 412.7 -65.5 413.0 -64.7 416.0 -55.7 416.0 -45.5 416.0 -27.75 406.9 -13.75 406.35 -12.95 406.4 -11.95 406.45 -11.05 407.05 -10.25 419.0 5.4 419.0 26.0 419.0 51.25 401.0 69.15 382.95 87.0 357.5 87.0 L355.2 86.95 Q354.0 86.9 353.1 87.7 352.2 88.5 352.1 89.7 352.0 90.9 352.75 91.85 363.0 104.4 363.0 121.5 363.0 140.4 350.5 153.75 L350.45 153.75 Q338.05 167.0 320.5 167.0 313.1 167.0 306.65 164.65 L304.4 164.75 Q303.3 165.2 302.85 166.35 298.8 176.15 291.0 184.35 275.05 201.0 252.5 201.0 235.5 201.0 222.25 191.5 221.5 190.95 220.6 190.95 219.65 190.95 218.9 191.45 202.35 202.0 181.0 202.0 167.5 202.0 155.9 197.8 L154.0 197.75 Q153.05 198.0 152.45 198.85 148.7 204.0 143.7 208.75 123.35 228.0 94.5 228.0 79.85 228.0 67.4 223.05 L65.5 222.95 Q64.55 223.2 63.95 224.0 61.2 227.45 57.45 230.55 43.6 242.05 24.0 242.0 4.4 242.05 -9.4 230.55 -21.55 220.5 -22.85 206.7 -22.95 205.65 -23.7 204.9 -24.45 204.1 -25.5 204.0 -26.55 203.85 -27.45 204.4 -39.55 212.0 -55.0 212.0 -70.9 212.0 -83.3 203.95 -84.1 203.45 -85.0 203.5 -85.9 203.5 -86.65 204.05 -100.45 214.0 -118.5 214.0 -140.7 214.0 -156.35 199.0 -164.0 191.7 -167.9 182.95 -168.35 182.0 -169.25 181.5 -170.2 181.0 -171.2 181.2 L-180.5 182.0 -188.0 181.5 -189.75 181.8 Q-190.6 182.2 -191.05 183.0 -193.1 186.7 -196.45 189.9 -204.95 198.0 -217.0 198.0 -229.05 198.0 -237.55 189.9 -246.0 181.85 -246.0 170.5 -246.0 164.0 -243.25 158.6 -242.7 157.5 -243.05 156.4 -243.45 155.2 -244.5 154.65 -245.55 154.05 -246.7 154.35 -253.0 156.0 -259.95 156.0 -279.9 156.0 -293.95 142.5 -299.85 136.85 -303.25 130.2 -303.6 129.5 -304.2 129.1 -304.85 128.65 -305.6 128.6 -324.8 126.4 -339.05 113.0 -354.15 98.75 -355.75 79.25 -355.85 78.3 -356.45 77.55 -357.1 76.8 -358.05 76.6 -373.8 72.95 -385.95 60.35 L-385.9 60.35 Q-402.95 42.6 -402.95 17.5 -402.95 -5.9 -388.15 -22.9 -387.6 -23.55 -387.45 -24.4 -387.3 -25.25 -387.6 -26.0 -387.95 -26.8 -388.65 -27.3 L-392.5 -30.35 -392.5 -30.4 Q-403.9 -40.55 -403.95 -55.0 -403.95 -61.45 -401.65 -67.05 -401.3 -68.0 -401.5 -68.9 -401.7 -69.85 -402.45 -70.45 L-403.75 -71.65 Q-421.9 -88.15 -421.95 -111.5 -421.9 -134.85 -403.75 -151.35 -397.85 -156.75 -391.15 -160.35 -390.3 -160.85 -389.85 -161.75 -389.45 -162.65 -389.6 -163.6 -390.95 -170.0 -390.95 -176.95 -390.95 -203.05 -372.1 -221.5 -353.15 -239.95 -326.45 -239.95 -316.35 -239.95 -307.4 -237.3 -306.55 -237.05 -305.7 -237.3 -304.85 -237.6 -304.25 -238.25 -303.7 -238.95 -303.55 -239.8 -301.35 -257.35 -287.55 -270.35 -270.95 -285.95 -247.5 -285.95 -224.05 -285.95 -207.5 -270.35 -203.8 -266.9 -200.95 -263.1 -200.3 -262.25 -199.2 -262.0 -198.1 -261.75 -197.1 -262.3 -196.15 -262.85 -195.75 -263.9 -192.85 -271.9 -186.3 -278.35 -174.55 -289.95 -158.0 -289.95 -143.25 -289.95 -132.35 -280.8 -131.45 -280.0 -130.2 -280.1 -129.0 -280.2 -128.15 -281.1 L-123.4 -286.1 Q-102.75 -305.95 -73.5 -305.95 -47.3 -305.95 -28.0 -290.05 -27.35 -289.5 -26.45 -289.4 L-24.8 -289.65 Q-24.05 -290.05 -23.55 -290.8 -18.25 -299.55 -10.15 -307.2 13.7 -329.95 47.5 -329.95 81.3 -329.95 105.2 -307.2 115.5 -297.4 121.35 -285.8 121.75 -285.0 122.6 -284.5 123.35 -284.05 124.3 -284.15 125.2 -284.25 125.9 -284.8 142.2 -298.0 164.5 -297.95 188.8 -297.95 206.0 -282.3 211.3 -277.5 214.95 -272.0 215.4 -271.35 216.2 -270.95 L217.75 -270.7 Q218.6 -270.8 219.25 -271.3 M-258.15 -180.8 L-258.45 -180.85 -260.15 -180.65 Q-260.95 -180.3 -261.45 -179.55 -261.95 -178.8 -261.95 -177.9 L-261.95 -176.95 Q-261.95 -175.75 -261.15 -174.9 -260.35 -174.05 -259.15 -173.95 -257.95 -173.85 -257.05 -174.6 -256.15 -175.4 -255.95 -176.55 L-255.85 -177.45 Q-255.7 -178.6 -256.35 -179.55 -257.0 -180.55 -258.15 -180.8" fill="url(#gradient0)" fill-rule="evenodd" stroke="none"/>
    <path d="M217.45 -273.7 Q229.8 -282.95 246.0 -282.95 265.9 -282.95 279.95 -269.05 288.65 -260.45 292.0 -249.6 297.95 -250.95 304.5 -250.95 327.5 -250.95 343.75 -234.4 360.0 -217.85 360.0 -194.45 360.0 -186.25 358.0 -178.85 362.75 -172.0 364.7 -164.0 380.8 -157.95 393.95 -144.55 418.0 -120.1 418.0 -85.5 418.0 -75.1 415.85 -65.65 419.0 -56.25 419.0 -45.5 419.0 -26.8 409.4 -12.1 422.0 4.35 422.0 26.0 422.0 52.5 403.1 71.25 384.2 90.0 357.5 90.0 L355.1 89.95 Q366.0 103.3 366.0 121.5 366.0 141.6 352.65 155.8 339.35 170.0 320.5 170.0 312.55 170.0 305.6 167.5 301.4 177.8 293.15 186.4 276.3 204.0 252.5 204.0 234.5 204.0 220.5 193.95 203.25 205.0 181.0 205.0 166.95 205.0 154.9 200.6 150.95 206.0 145.75 210.9 124.55 231.0 94.5 231.0 79.25 231.0 66.3 225.85 63.35 229.55 59.35 232.85 44.7 245.0 24.0 245.0 3.3 245.0 -11.35 232.85 -24.5 221.95 -25.85 206.95 -38.7 215.0 -55.0 215.0 -71.8 215.0 -84.9 206.5 -99.45 217.0 -118.5 217.0 -141.9 217.0 -158.45 201.15 -166.55 193.45 -170.65 184.15 L-180.5 185.0 -188.45 184.45 Q-190.7 188.55 -194.4 192.05 -203.75 201.0 -217.0 201.0 -230.25 201.0 -239.65 192.05 -249.0 183.15 -249.0 170.5 -249.0 163.25 -245.95 157.25 -252.55 159.0 -259.95 159.0 -281.1 159.0 -296.05 144.65 -302.3 138.65 -305.9 131.55 -326.1 129.25 -341.1 115.15 -357.05 100.1 -358.75 79.5 -375.3 75.7 -388.1 62.4 -405.95 43.8 -405.95 17.5 -405.95 -7.05 -390.4 -24.85 L-394.5 -28.15 Q-406.95 -39.25 -406.95 -55.0 -406.95 -62.1 -404.4 -68.2 L-405.8 -69.45 Q-424.95 -86.85 -424.95 -111.5 -424.95 -136.15 -405.8 -153.6 -399.6 -159.2 -392.55 -163.0 -393.95 -169.7 -393.95 -176.95 -393.95 -204.3 -374.2 -223.65 -354.4 -242.95 -326.45 -242.95 -315.9 -242.95 -306.55 -240.2 -304.2 -258.8 -289.6 -272.55 -272.15 -288.95 -247.5 -288.95 -222.85 -288.95 -205.45 -272.55 -201.6 -268.9 -198.55 -264.9 -195.45 -273.5 -188.4 -280.5 -175.8 -292.95 -158.0 -292.95 -142.15 -292.95 -130.45 -283.1 L-125.5 -288.3 Q-103.95 -308.95 -73.5 -308.95 -46.2 -308.95 -26.1 -292.35 -20.6 -301.45 -12.25 -309.4 12.5 -332.95 47.5 -332.95 82.5 -332.95 107.25 -309.4 117.95 -299.2 124.05 -287.15 141.1 -300.95 164.5 -300.95 190.0 -300.95 208.0 -284.55 213.6 -279.45 217.45 -273.7 M219.25 -271.3 Q218.6 -270.8 217.75 -270.7 L216.2 -270.95 Q215.4 -271.35 214.95 -272.0 211.3 -277.5 206.0 -282.3 188.8 -297.95 164.5 -297.95 142.2 -298.0 125.9 -284.8 125.2 -284.25 124.3 -284.15 123.35 -284.05 122.6 -284.5 121.75 -285.0 121.35 -285.8 115.5 -297.4 105.2 -307.2 81.3 -329.95 47.5 -329.95 13.7 -329.95 -10.15 -307.2 -18.25 -299.55 -23.55 -290.8 -24.05 -290.05 -24.8 -289.65 L-26.45 -289.4 Q-27.35 -289.5 -28.0 -290.05 -47.3 -305.95 -73.5 -305.95 -102.75 -305.95 -123.4 -286.1 L-128.15 -281.1 Q-129.0 -280.2 -130.2 -280.1 -131.45 -280.0 -132.35 -280.8 -143.25 -289.95 -158.0 -289.95 -174.55 -289.95 -186.3 -278.35 -192.85 -271.9 -195.75 -263.9 -196.15 -262.85 -197.1 -262.3 -198.1 -261.75 -199.2 -262.0 -200.3 -262.25 -200.95 -263.1 -203.8 -266.9 -207.5 -270.35 -224.05 -285.95 -247.5 -285.95 -270.95 -285.95 -287.55 -270.35 -301.35 -257.35 -303.55 -239.8 -303.7 -238.95 -304.25 -238.25 -304.85 -237.6 -305.7 -237.3 -306.55 -237.05 -307.4 -237.3 -316.35 -239.95 -326.45 -239.95 -353.15 -239.95 -372.1 -221.5 -390.95 -203.05 -390.95 -176.95 -390.95 -170.0 -389.6 -163.6 -389.45 -162.65 -389.85 -161.75 -390.3 -160.85 -391.15 -160.35 -397.85 -156.75 -403.75 -151.35 -421.9 -134.85 -421.95 -111.5 -421.9 -88.15 -403.75 -71.65 L-402.45 -70.45 Q-401.7 -69.85 -401.5 -68.9 -401.3 -68.0 -401.65 -67.05 -403.95 -61.45 -403.95 -55.0 -403.9 -40.55 -392.5 -30.4 L-392.5 -30.35 -388.65 -27.3 Q-387.95 -26.8 -387.6 -26.0 -387.3 -25.25 -387.45 -24.4 -387.6 -23.55 -388.15 -22.9 -402.95 -5.9 -402.95 17.5 -402.95 42.6 -385.9 60.35 L-385.95 60.35 Q-373.8 72.95 -358.05 76.6 -357.1 76.8 -356.45 77.55 -355.85 78.3 -355.75 79.25 -354.15 98.75 -339.05 113.0 -324.8 126.4 -305.6 128.6 -304.85 128.65 -304.2 129.1 -303.6 129.5 -303.25 130.2 -299.85 136.85 -293.95 142.5 -279.9 156.0 -259.95 156.0 -253.0 156.0 -246.7 154.35 -245.55 154.05 -244.5 154.65 -243.45 155.2 -243.05 156.4 -242.7 157.5 -243.25 158.6 -246.0 164.0 -246.0 170.5 -246.0 181.85 -237.55 189.9 -229.05 198.0 -217.0 198.0 -204.95 198.0 -196.45 189.9 -193.1 186.7 -191.05 183.0 -190.6 182.2 -189.75 181.8 L-188.0 181.5 -180.5 182.0 -171.2 181.2 Q-170.2 181.0 -169.25 181.5 -168.35 182.0 -167.9 182.95 -164.0 191.7 -156.35 199.0 -140.7 214.0 -118.5 214.0 -100.45 214.0 -86.65 204.05 -85.9 203.5 -85.0 203.5 -84.1 203.45 -83.3 203.95 -70.9 212.0 -55.0 212.0 -39.55 212.0 -27.45 204.4 -26.55 203.85 -25.5 204.0 -24.45 204.1 -23.7 204.9 -22.95 205.65 -22.85 206.7 -21.55 220.5 -9.4 230.55 4.4 242.05 24.0 242.0 43.6 242.05 57.45 230.55 61.2 227.45 63.95 224.0 64.55 223.2 65.5 222.95 L67.4 223.05 Q79.85 228.0 94.5 228.0 123.35 228.0 143.7 208.75 148.7 204.0 152.45 198.85 153.05 198.0 154.0 197.75 L155.9 197.8 Q167.5 202.0 181.0 202.0 202.35 202.0 218.9 191.45 219.65 190.95 220.6 190.95 221.5 190.95 222.25 191.5 235.5 201.0 252.5 201.0 275.05 201.0 291.0 184.35 298.8 176.15 302.85 166.35 303.3 165.2 304.4 164.75 L306.65 164.65 Q313.1 167.0 320.5 167.0 338.05 167.0 350.45 153.75 L350.5 153.75 Q363.0 140.4 363.0 121.5 363.0 104.4 352.75 91.85 352.0 90.9 352.1 89.7 352.2 88.5 353.1 87.7 354.0 86.9 355.2 86.95 L357.5 87.0 Q382.95 87.0 401.0 69.15 419.0 51.25 419.0 26.0 419.0 5.4 407.05 -10.25 406.45 -11.05 406.4 -11.95 406.35 -12.95 406.9 -13.75 416.0 -27.75 416.0 -45.5 416.0 -55.7 413.0 -64.7 412.7 -65.5 412.9 -66.3 415.0 -75.45 415.0 -85.5 415.0 -118.85 391.8 -142.45 379.15 -155.35 363.65 -161.2 362.9 -161.45 362.45 -162.0 361.95 -162.6 361.75 -163.3 359.95 -170.75 355.55 -177.15 355.15 -177.7 355.05 -178.35 L355.1 -179.65 Q357.0 -186.65 357.0 -194.45 357.0 -216.6 341.6 -232.3 326.25 -247.95 304.5 -247.95 298.3 -247.95 292.65 -246.65 291.5 -246.4 290.5 -247.0 289.45 -247.6 289.1 -248.7 286.0 -258.85 277.85 -266.9 264.65 -279.95 246.0 -279.95 230.8 -279.95 219.25 -271.3" fill="#009900" fill-rule="evenodd" stroke="none"/>
    <path d="M-258.95 -176.95 L-258.8 -177.85 -258.95 -177.9 -258.95 -176.95 Z" fill="none" stroke="#333333" stroke-linecap="round" stroke-linejoin="round" stroke-width="1.0"/>
  </g>
  <defs>
    <linearGradient gradientTransform="matrix(0.007, 0.1581, -0.5129, 0.0227, -2.0, -66.85)" gradientUnits="userSpaceOnUse" id="gradient0" spreadMethod="pad" x1="-819.2" x2="819.2">
      <stop offset="0.0" stop-color="#009900"/>
      <stop offset="1.0" stop-color="#00cc00"/>
    </linearGradient>
  </defs>
</svg>
