<?xml version="1.0" encoding="UTF-8" standalone="no"?>
<svg xmlns:xlink="http://www.w3.org/1999/xlink" height="507.4px" width="634.85px" xmlns="http://www.w3.org/2000/svg">
  <g transform="matrix(1.0, 0.0, 0.0, 1.0, 304.1, 307.45)">
    <path d="M313.9 -26.75 Q327.75 -13.1 327.75 6.2 327.75 25.5 313.9 39.1 L313.9 39.15 Q300.0 52.8 280.35 52.8 272.95 52.8 266.4 50.9 L264.2 51.1 Q263.15 51.6 262.75 52.7 260.35 58.9 254.8 63.95 248.0 70.1 239.25 72.0 238.25 72.2 237.6 73.0 236.95 73.75 236.9 74.75 236.8 75.75 237.4 76.6 242.85 84.85 242.85 95.35 242.85 109.45 233.0 119.45 223.1 129.45 209.15 129.45 L202.85 128.9 201.25 129.05 Q200.45 129.35 199.95 130.05 199.4 130.7 199.35 131.55 198.2 141.6 190.0 149.05 180.3 157.8 166.65 157.8 157.45 157.8 150.05 153.85 L148.5 153.5 Q147.65 153.5 147.0 154.0 133.6 162.8 116.25 162.8 100.7 162.8 88.35 155.7 87.25 155.1 86.1 155.4 84.9 155.7 84.3 156.75 81.25 161.65 76.85 166.0 62.45 180.25 42.1 180.25 33.05 180.25 25.25 177.45 L23.2 177.5 Q22.15 177.85 21.6 178.85 18.85 183.8 13.7 187.95 L13.7 188.0 Q2.5 196.95 -13.3 196.95 -29.1 196.95 -40.3 187.95 L-40.3 188.0 Q-49.35 180.65 -50.85 170.9 -51.0 169.95 -51.65 169.3 -52.3 168.6 -53.2 168.4 L-55.0 168.6 Q-63.0 171.95 -72.45 171.95 -87.75 171.95 -99.2 163.05 -100.0 162.45 -100.95 162.45 -101.95 162.4 -102.75 163.0 -115.5 171.95 -132.05 171.95 -153.05 171.95 -167.95 157.4 -173.4 152.1 -176.85 146.0 -177.25 145.25 -177.95 144.85 -178.65 144.45 -179.45 144.45 L-180.35 144.45 Q-198.6 144.45 -211.55 131.85 -224.35 119.4 -224.45 101.8 -224.45 100.7 -225.2 99.85 -225.95 99.0 -227.0 98.85 -241.45 96.75 -252.35 87.05 L-252.35 87.0 Q-266.05 74.8 -266.1 57.45 -266.1 50.9 -264.15 45.1 -263.85 44.1 -264.15 43.2 -264.45 42.2 -265.3 41.65 -266.15 41.1 -267.1 41.15 L-268.25 41.15 Q-280.85 41.15 -289.75 32.7 -298.6 24.3 -298.6 12.45 -298.6 0.6 -289.75 -7.8 L-289.8 -7.8 -285.15 -11.45 Q-284.45 -11.95 -284.05 -12.7 -283.7 -13.55 -283.8 -14.4 -283.95 -15.25 -284.5 -15.9 -301.1 -35.15 -301.1 -60.85 -301.1 -83.45 -288.3 -101.0 -287.8 -101.75 -287.75 -102.65 -287.7 -103.55 -288.15 -104.35 -294.45 -114.85 -294.45 -127.95 -294.45 -147.25 -280.8 -160.9 L-278.55 -163.1 Q-277.9 -163.7 -277.65 -164.5 -277.45 -165.35 -277.65 -166.15 -277.9 -167.0 -278.55 -167.55 L-279.25 -168.2 Q-290.25 -178.25 -290.25 -192.5 -290.25 -206.75 -279.25 -216.85 L-279.25 -216.8 Q-268.1 -227.0 -252.4 -227.0 -240.45 -227.0 -231.15 -221.15 -230.5 -220.7 -229.7 -220.65 -228.9 -220.65 -228.2 -221.0 -218.3 -226.15 -206.2 -226.15 L-205.3 -226.15 Q-204.45 -226.15 -203.7 -226.6 -202.95 -227.1 -202.6 -227.9 -202.2 -228.75 -202.35 -229.6 -202.8 -232.45 -202.8 -235.4 -202.75 -251.85 -189.65 -263.5 -176.35 -275.3 -157.45 -275.3 -138.55 -275.3 -125.25 -263.5 L-121.15 -259.4 Q-120.4 -258.55 -119.2 -258.4 -118.1 -258.25 -117.15 -258.95 -116.2 -259.65 -115.95 -260.75 -112.65 -276.55 -98.75 -288.55 -80.25 -304.45 -54.15 -304.45 -28.05 -304.45 -9.6 -288.55 -2.95 -282.85 1.3 -276.25 1.85 -275.4 2.8 -275.05 L4.7 -275.0 Q5.65 -275.3 6.25 -276.1 8.65 -279.4 11.9 -282.35 25.1 -294.45 43.75 -294.45 62.4 -294.45 75.6 -282.35 80.1 -278.15 83.1 -273.35 83.7 -272.4 84.8 -272.05 L86.95 -272.25 Q100.45 -278.7 117.1 -278.7 133.35 -278.7 146.55 -272.55 L148.65 -272.35 Q149.7 -272.7 150.35 -273.6 152.95 -277.5 156.75 -280.9 L156.7 -280.9 Q168.95 -291.95 186.25 -291.95 203.55 -291.95 215.75 -280.9 227.85 -270.0 227.85 -254.55 227.85 -245.1 223.3 -237.3 222.75 -236.35 222.95 -235.2 223.15 -234.1 224.1 -233.4 L227.6 -230.45 Q242.8 -216.65 242.85 -197.05 L242.7 -193.15 Q242.6 -192.25 243.05 -191.4 243.5 -190.65 244.35 -190.2 245.15 -189.8 246.1 -189.9 247.0 -190.05 247.7 -190.65 256.6 -198.65 268.7 -198.65 282.1 -198.65 291.55 -188.85 301.1 -179.0 301.1 -165.0 301.1 -152.15 293.05 -142.8 292.35 -142.05 292.35 -141.0 292.25 -140.0 292.9 -139.1 302.8 -125.2 302.8 -107.5 302.8 -103.15 302.2 -99.05 302.1 -98.2 302.45 -97.4 302.8 -96.6 303.55 -96.1 307.75 -93.45 311.5 -89.55 323.6 -77.0 323.6 -59.2 323.6 -42.95 313.5 -31.05 312.75 -30.2 312.8 -29.0 312.8 -27.85 313.65 -27.0 L313.9 -26.75" fill="url(#gradient0)" fill-rule="evenodd" stroke="none"/>
    <path d="M313.65 -27.0 Q312.8 -27.85 312.8 -29.0 312.75 -30.2 313.5 -31.05 323.6 -42.95 323.6 -59.2 323.6 -77.0 311.5 -89.55 307.75 -93.45 303.55 -96.1 302.8 -96.6 302.45 -97.4 302.1 -98.2 302.2 -99.05 302.8 -103.15 302.8 -107.5 302.8 -125.2 292.9 -139.1 292.25 -140.0 292.35 -141.0 292.35 -142.05 293.05 -142.8 301.1 -152.15 301.1 -165.0 301.1 -179.0 291.55 -188.85 282.1 -198.65 268.7 -198.65 256.6 -198.65 247.7 -190.65 247.0 -190.05 246.1 -189.9 245.15 -189.8 244.35 -190.2 243.5 -190.65 243.05 -191.4 242.6 -192.25 242.7 -193.15 L242.85 -197.05 Q242.8 -216.65 227.6 -230.45 L224.1 -233.4 Q223.15 -234.1 222.95 -235.2 222.75 -236.35 223.3 -237.3 227.85 -245.1 227.85 -254.55 227.85 -270.0 215.75 -280.9 203.55 -291.95 186.25 -291.95 168.95 -291.95 156.7 -280.9 L156.75 -280.9 Q152.95 -277.5 150.35 -273.6 149.7 -272.7 148.65 -272.35 L146.55 -272.55 Q133.35 -278.7 117.1 -278.7 100.45 -278.7 86.95 -272.25 L84.8 -272.05 Q83.7 -272.4 83.1 -273.35 80.1 -278.15 75.6 -282.35 62.4 -294.45 43.75 -294.45 25.1 -294.45 11.9 -282.35 8.65 -279.4 6.25 -276.1 5.65 -275.3 4.7 -275.0 L2.8 -275.05 Q1.85 -275.4 1.3 -276.25 -2.95 -282.85 -9.6 -288.55 -28.05 -304.45 -54.15 -304.45 -80.25 -304.45 -98.75 -288.55 -112.65 -276.55 -115.95 -260.75 -116.2 -259.65 -117.15 -258.95 -118.1 -258.25 -119.2 -258.4 -120.4 -258.55 -121.15 -259.4 L-125.25 -263.5 Q-138.55 -275.3 -157.45 -275.3 -176.35 -275.3 -189.65 -263.5 -202.75 -251.85 -202.8 -235.4 -202.8 -232.45 -202.35 -229.6 -202.2 -228.75 -202.6 -227.9 -202.95 -227.1 -203.7 -226.6 -204.45 -226.15 -205.3 -226.15 L-206.2 -226.15 Q-218.3 -226.15 -228.2 -221.0 -228.9 -220.65 -229.7 -220.65 -230.5 -220.7 -231.15 -221.15 -240.45 -227.0 -252.4 -227.0 -268.1 -227.0 -279.25 -216.8 L-279.25 -216.85 Q-290.25 -206.75 -290.25 -192.5 -290.25 -178.25 -279.25 -168.2 L-278.55 -167.55 Q-277.9 -167.0 -277.65 -166.15 -277.45 -165.35 -277.65 -164.5 -277.9 -163.7 -278.55 -163.1 L-280.8 -160.9 Q-294.45 -147.25 -294.45 -127.95 -294.45 -114.85 -288.15 -104.35 -287.7 -103.55 -287.75 -102.65 -287.8 -101.75 -288.3 -101.0 -301.1 -83.45 -301.1 -60.85 -301.1 -35.15 -284.5 -15.9 -283.95 -15.25 -283.8 -14.4 -283.7 -13.55 -284.05 -12.7 -284.45 -11.95 -285.15 -11.45 L-289.8 -7.8 -289.75 -7.8 Q-298.6 0.6 -298.6 12.45 -298.6 24.3 -289.75 32.7 -280.85 41.15 -268.25 41.15 L-267.1 41.15 Q-266.15 41.1 -265.3 41.65 -264.45 42.2 -264.15 43.2 -263.85 44.1 -264.15 45.1 -266.1 50.9 -266.1 57.45 -266.05 74.8 -252.35 87.0 L-252.35 87.05 Q-241.45 96.75 -227.0 98.85 -225.95 99.0 -225.2 99.85 -224.45 100.7 -224.45 101.8 -224.35 119.4 -211.55 131.85 -198.6 144.45 -180.35 144.45 L-179.45 144.45 Q-178.65 144.45 -177.95 144.85 -177.25 145.25 -176.85 146.0 -173.4 152.1 -167.95 157.4 -153.05 171.95 -132.05 171.95 -115.5 171.95 -102.75 163.0 -101.95 162.4 -100.95 162.45 -100.0 162.45 -99.2 163.05 -87.75 171.95 -72.45 171.95 -63.0 171.95 -55.0 168.6 L-53.2 168.4 Q-52.3 168.6 -51.65 169.3 -51.0 169.95 -50.85 170.9 -49.35 180.65 -40.3 188.0 L-40.3 187.95 Q-29.1 196.95 -13.3 196.95 2.5 196.95 13.7 188.0 L13.7 187.95 Q18.85 183.8 21.6 178.85 22.15 177.85 23.2 177.5 L25.25 177.45 Q33.05 180.25 42.1 180.25 62.45 180.25 76.85 166.0 81.25 161.65 84.3 156.75 84.9 155.7 86.1 155.4 87.25 155.1 88.35 155.7 100.7 162.8 116.25 162.8 133.6 162.8 147.0 154.0 147.65 153.5 148.5 153.5 L150.05 153.85 Q157.45 157.8 166.65 157.8 180.3 157.8 190.0 149.05 198.2 141.6 199.35 131.55 199.4 130.7 199.95 130.05 200.45 129.35 201.25 129.05 L202.85 128.9 209.15 129.45 Q223.1 129.45 233.0 119.45 242.85 109.45 242.85 95.35 242.85 84.85 237.4 76.6 236.8 75.75 236.9 74.75 236.95 73.75 237.6 73.0 238.25 72.2 239.25 72.0 248.0 70.1 254.8 63.95 260.35 58.9 262.75 52.7 263.15 51.6 264.2 51.1 L266.4 50.9 Q272.95 52.8 280.35 52.8 300.0 52.8 313.9 39.15 L313.9 39.1 Q327.75 25.5 327.75 6.2 327.75 -13.1 313.9 -26.75 L313.65 -27.0 M230.85 -254.55 Q230.85 -244.25 225.9 -235.8 L229.6 -232.7 Q245.85 -217.95 245.85 -197.05 L245.7 -192.9 Q255.45 -201.65 268.7 -201.65 283.35 -201.65 293.7 -190.95 304.1 -180.2 304.1 -165.0 304.1 -151.05 295.35 -140.85 305.8 -126.15 305.8 -107.5 305.8 -102.95 305.2 -98.65 309.65 -95.8 313.65 -91.65 326.6 -78.2 326.6 -59.2 326.6 -41.8 315.8 -29.1 L316.0 -28.9 Q330.75 -14.35 330.75 6.2 330.75 26.75 316.0 41.25 301.25 55.8 280.35 55.8 272.5 55.8 265.55 53.75 262.95 60.6 256.8 66.15 249.4 72.9 239.9 74.95 245.85 83.9 245.85 95.35 245.85 110.7 235.1 121.55 224.35 132.45 209.15 132.45 L202.3 131.85 Q201.1 143.05 192.0 151.25 181.5 160.8 166.65 160.8 156.65 160.8 148.65 156.5 134.5 165.8 116.25 165.8 99.9 165.8 86.85 158.3 83.6 163.5 78.95 168.1 63.7 183.25 42.1 183.25 32.55 183.25 24.25 180.3 21.2 185.75 15.55 190.3 3.6 199.95 -13.3 199.95 -30.2 199.95 -42.2 190.3 -52.2 182.2 -53.8 171.35 -62.35 174.95 -72.45 174.95 -88.8 174.95 -101.05 165.45 -114.55 174.95 -132.05 174.95 -154.3 174.95 -170.05 159.55 -175.8 153.95 -179.45 147.45 L-180.35 147.45 Q-199.85 147.45 -213.65 134.0 -227.35 120.7 -227.45 101.85 -242.8 99.6 -254.35 89.25 -269.1 76.1 -269.1 57.45 -269.1 50.4 -267.0 44.15 L-268.25 44.15 Q-282.05 44.15 -291.85 34.85 -301.6 25.6 -301.6 12.45 -301.6 -0.7 -291.85 -10.0 -289.45 -12.25 -286.8 -13.95 -304.1 -34.0 -304.1 -60.85 -304.1 -84.45 -290.75 -102.8 -297.45 -113.95 -297.45 -127.95 -297.45 -148.5 -282.95 -163.05 L-280.55 -165.3 -281.3 -166.0 Q-293.25 -176.95 -293.25 -192.5 -293.25 -208.05 -281.3 -219.05 -269.3 -230.0 -252.4 -230.0 -239.55 -230.0 -229.55 -223.65 -219.05 -229.15 -206.2 -229.15 L-205.3 -229.15 Q-205.8 -232.2 -205.8 -235.4 -205.8 -253.15 -191.65 -265.75 -177.5 -278.3 -157.45 -278.3 -137.4 -278.3 -123.25 -265.75 -120.9 -263.65 -118.9 -261.35 -115.45 -278.15 -100.7 -290.85 -81.4 -307.45 -54.15 -307.45 -26.9 -307.45 -7.65 -290.85 -0.65 -284.8 3.85 -277.85 6.4 -281.4 9.85 -284.55 23.9 -297.45 43.75 -297.45 63.6 -297.45 77.6 -284.55 82.45 -280.05 85.65 -274.95 99.7 -281.7 117.1 -281.7 134.05 -281.7 147.85 -275.25 150.65 -279.45 154.7 -283.15 167.8 -294.95 186.25 -294.95 204.7 -294.95 217.75 -283.15 230.85 -271.3 230.85 -254.55" fill="#006600" fill-rule="evenodd" stroke="none"/>
  </g>
  <defs>
    <linearGradient gradientTransform="matrix(0.0416, -0.1765, 0.3893, 0.0918, 6.1, -38.5)" gradientUnits="userSpaceOnUse" id="gradient0" spreadMethod="pad" x1="-819.2" x2="819.2">
      <stop offset="0.0" stop-color="#009900"/>
      <stop offset="1.0" stop-color="#006600"/>
    </linearGradient>
  </defs>
</svg>
