<?xml version="1.0" encoding="UTF-8" standalone="no"?>
<svg xmlns:xlink="http://www.w3.org/1999/xlink" height="91.35px" width="91.35px" xmlns="http://www.w3.org/2000/svg">
  <g transform="matrix(1.0, 0.0, 0.0, 1.0, 45.65, 45.65)">
    <path d="M30.1 -30.1 Q42.5 -17.7 42.55 -0.05 42.5 17.6 30.1 30.1 17.6 42.5 -0.05 42.55 -17.7 42.5 -30.1 30.1 -42.6 17.55 -42.55 -0.05 -42.6 -17.7 -30.1 -30.1 -17.7 -42.6 -0.05 -42.55 17.55 -42.6 30.1 -30.1" fill="url(#gradient0)" fill-rule="evenodd" stroke="none"/>
    <path d="M31.6 -31.6 Q44.6 -18.55 44.7 -0.05 44.6 18.45 31.6 31.6 18.45 44.6 -0.05 44.7 -18.55 44.6 -31.6 31.6 -44.75 18.45 -44.65 -0.05 -44.75 -18.55 -31.6 -31.6 -18.55 -44.75 -0.05 -44.65 18.45 -44.75 31.6 -31.6" fill="none" stroke="#ffffff" stroke-linecap="round" stroke-linejoin="round" stroke-opacity="0.2901961" stroke-width="2.0"/>
    <path d="M30.1 -30.1 Q42.5 -17.7 42.55 -0.05 42.5 17.6 30.1 30.1 17.6 42.5 -0.05 42.55 -17.7 42.5 -30.1 30.1 -42.6 17.55 -42.55 -0.05 -42.6 -17.7 -30.1 -30.1 -17.7 -42.6 -0.05 -42.55 17.55 -42.6 30.1 -30.1" fill="none" stroke="#ffffff" stroke-linecap="round" stroke-linejoin="round" stroke-opacity="0.5803922" stroke-width="2.0"/>
  </g>
  <defs>
    <radialGradient cx="0" cy="0" gradientTransform="matrix(0.072, 0.0, 0.0, 0.072, -9.8, 12.75)" gradientUnits="userSpaceOnUse" id="gradient0" r="819.2" spreadMethod="pad">
      <stop offset="0.0" stop-color="#e7d7ff"/>
      <stop offset="0.8352941176470589" stop-color="#6633ff"/>
      <stop offset="1.0" stop-color="#6666ff"/>
    </radialGradient>
  </defs>
</svg>
