<?xml version="1.0" encoding="UTF-8" standalone="no"?>
<svg xmlns:xlink="http://www.w3.org/1999/xlink" height="899.0px" width="1358.0px" xmlns="http://www.w3.org/2000/svg">
  <g transform="matrix(1.0, 0.0, 0.0, 1.0, 281.25, 92.55)">
    <path d="M781.6 -14.05 Q767.0 4.15 739.05 20.1 724.7 17.35 706.65 14.35 717.45 7.6 725.0 0.0 752.0 -28.65 675.0 -38.75 453.8 -66.15 271.2 -57.1 199.65 -53.55 164.9 -29.65 L164.55 -29.65 Q119.7 -26.25 79.1 -16.55 82.4 -47.65 135.65 -68.05 207.4 -92.85 271.2 -91.25 379.05 -95.5 475.0 -85.7 693.25 -72.95 759.85 -50.0 793.95 -34.3 781.6 -14.05 M842.25 197.6 L812.65 201.0 789.45 198.35 Q766.9 195.3 744.6 190.45 677.55 173.65 645.05 171.0 593.5 166.7 541.95 171.0 519.95 172.15 495.45 172.25 L576.35 166.6 Q636.3 161.8 681.8 170.3 L798.1 190.55 820.9 194.7 Q837.35 197.4 842.15 196.85 L842.25 197.6 M341.75 65.8 Q563.25 84.1 683.75 30.8 698.6 33.15 712.55 35.95 635.05 64.15 525.0 75.0 422.25 81.6 341.9 70.95 338.9 70.6 338.7 68.4 339.1 65.7 341.75 65.8 M792.5 255.3 L725.7 237.65 Q660.45 212.65 600.7 207.6 L564.95 205.9 Q484.95 203.0 400.7 208.7 350.05 213.4 300.7 226.05 233.2 241.6 171.65 236.0 114.25 230.75 50.0 230.85 L25.0 226.0 Q35.9 226.9 48.75 226.35 101.2 224.05 200.7 233.55 250.9 235.45 310.5 219.4 346.65 209.4 385.05 205.9 503.3 196.25 589.25 201.05 L599.2 201.6 Q648.3 204.7 696.15 219.0 770.15 242.95 825.5 256.5 880.75 270.0 902.3 274.3 920.65 278.15 936.0 283.25 949.85 287.85 961.25 293.55 1000.5 313.05 1010.5 344.95 1023.95 396.1 997.0 438.2 988.15 451.9 975.0 464.7 909.65 519.7 775.0 540.25 823.2 527.95 875.0 500.0 945.95 457.8 966.65 411.1 980.75 379.2 971.5 345.25 954.4 291.7 859.1 272.9 L822.35 263.2 792.5 255.3" fill="#7591ff" fill-rule="evenodd" stroke="none"/>
    <path d="M426.95 171.25 Q365.35 170.6 290.95 175.6 222.6 181.0 142.8 166.45 104.9 159.3 76.45 150.35 L121.75 148.95 125.0 150.0 Q226.7 174.45 276.0 171.0 378.65 166.95 426.95 171.0 L426.95 171.25 M95.2 27.35 Q112.5 19.75 136.35 14.45 167.25 114.45 533.45 113.8 659.05 116.0 770.3 81.25 795.6 72.95 793.25 64.65 L844.3 64.65 Q841.3 74.85 810.1 85.25 780.7 95.05 726.2 105.05 612.45 125.95 486.95 119.3 382.75 116.4 277.25 107.05 144.55 85.45 95.2 27.35" fill="#355eff" fill-rule="evenodd" stroke="none"/>
    <path d="M626.75 406.35 Q637.3 394.65 636.3 384.35 635.1 374.1 622.4 365.2 596.05 346.8 545.05 339.95 420.95 323.9 331.75 338.45 238.95 350.3 195.75 371.05 163.7 386.3 160.65 404.7 159.15 416.5 172.7 422.95 L172.75 423.0 Q194.35 434.65 229.95 450.5 226.2 434.1 241.15 423.4 L241.1 423.4 Q266.6 403.6 313.1 391.75 L313.15 391.75 Q363.45 380.3 413.5 377.9 439.4 377.2 460.05 378.6 L433.3 380.35 420.4 381.2 Q355.35 387.8 330.55 398.35 L330.5 398.35 Q302.4 408.55 293.5 423.25 289.55 432.75 299.5 440.05 L300.35 440.65 Q307.55 445.55 321.15 449.5 414.35 475.6 547.35 445.55 577.4 437.8 598.0 427.15 L598.75 426.8 Q616.2 417.65 626.8 406.35 L626.75 406.35 M718.3 806.45 L715.9 806.45 Q655.3 711.4 561.55 625.75 516.2 585.8 444.25 545.85 391.9 519.75 329.0 494.45 L328.85 494.4 230.95 453.2 231.0 453.2 230.95 453.2 Q194.05 436.75 171.85 424.75 L171.8 424.75 Q156.85 417.6 158.65 404.45 L158.7 404.4 Q161.6 385.1 194.9 369.25 238.25 348.4 331.5 336.45 L331.45 336.5 Q420.85 321.9 545.3 337.95 596.95 344.9 623.55 363.55 637.15 373.05 638.25 384.15 639.5 395.15 628.25 407.7 617.2 419.5 598.9 428.95 578.1 439.7 547.85 447.5 414.25 477.7 320.6 451.45 L320.6 451.4 Q306.65 447.35 299.2 442.3 286.8 433.8 291.65 422.5 L291.7 422.35 Q300.75 407.0 329.8 396.45 353.55 386.35 413.7 379.9 363.8 382.3 313.6 393.7 267.6 405.4 242.35 425.0 L242.3 425.0 Q228.5 434.9 232.0 451.35 L329.65 492.55 329.7 492.55 Q340.65 495.6 361.8 496.95 L361.85 496.95 Q478.9 503.7 575.15 479.25 665.25 456.2 694.15 422.5 711.3 398.95 698.6 378.65 683.05 360.1 647.5 346.9 611.7 333.65 535.65 325.55 L535.6 325.55 Q411.55 316.4 312.5 330.7 233.95 340.75 158.1 363.9 108.1 379.0 76.05 404.7 L76.05 404.75 Q45.2 431.85 66.45 454.65 83.7 469.4 115.45 488.85 L115.45 488.9 Q171.55 526.45 225.5 557.55 L234.4 562.6 Q376.6 640.7 399.0 709.55 L399.0 709.6 Q413.55 758.0 421.0 806.45 L418.95 806.45 Q411.55 758.3 397.1 710.15 374.7 641.9 233.45 564.35 L233.4 564.35 224.5 559.3 Q170.55 528.15 114.35 490.55 L114.4 490.55 Q82.5 471.0 65.15 456.15 L65.1 456.1 Q42.1 431.9 74.75 403.2 L74.8 403.2 Q107.1 377.2 157.5 362.0 233.5 338.75 312.2 328.7 L312.25 328.7 Q411.45 314.4 535.8 323.55 612.2 331.65 648.2 345.0 684.35 358.4 700.15 377.35 L700.2 377.5 Q713.85 398.9 695.75 423.7 L695.7 423.75 Q666.65 457.9 575.65 481.2 479.1 505.7 361.7 498.95 L340.0 496.75 Q397.0 520.05 445.15 544.05 L445.2 544.1 Q517.4 584.2 562.85 624.25 L562.9 624.25 Q657.35 710.6 718.3 806.45" fill="url(#gradient0)" fill-rule="evenodd" stroke="none"/>
    <path d="M460.05 378.6 Q439.4 377.2 413.5 377.9 363.45 380.3 313.15 391.75 L313.1 391.75 Q266.6 403.6 241.1 423.4 L241.15 423.4 Q226.2 434.1 229.95 450.5 194.35 434.65 172.75 423.0 L172.7 422.95 Q159.15 416.5 160.65 404.7 163.7 386.3 195.75 371.05 238.95 350.3 331.75 338.45 420.95 323.9 545.05 339.95 596.05 346.8 622.4 365.2 635.1 374.1 636.3 384.35 637.3 394.65 626.75 406.35 L626.8 406.35 Q616.2 417.65 598.75 426.8 599.15 424.6 599.05 422.35 598.0 402.25 553.35 390.35 542.75 387.55 531.2 385.6 L530.7 385.5 513.55 383.05 Q489.9 379.9 466.2 378.85 L460.05 378.6 M418.95 806.45 L-281.25 806.45 -281.25 558.75 Q-156.55 443.65 -12.5 388.05 L-6.0 385.55 Q165.45 313.15 362.75 294.15 573.85 274.0 751.25 305.7 783.25 312.55 810.95 321.9 903.75 359.95 966.65 411.1 945.95 457.8 875.0 500.0 823.2 527.95 775.0 540.25 909.65 519.7 975.0 464.7 988.15 451.9 997.0 438.2 1051.35 491.75 1076.75 558.05 L1076.75 806.45 718.3 806.45 Q657.35 710.6 562.9 624.25 L562.85 624.25 Q517.4 584.2 445.2 544.1 L445.15 544.05 Q397.0 520.05 340.0 496.75 L361.7 498.95 Q479.1 505.7 575.65 481.2 666.65 457.9 695.7 423.75 L695.75 423.7 Q713.85 398.9 700.2 377.5 L700.15 377.35 Q684.35 358.4 648.2 345.0 612.2 331.65 535.8 323.55 411.45 314.4 312.25 328.7 L312.2 328.7 Q233.5 338.75 157.5 362.0 107.1 377.2 74.8 403.2 L74.75 403.2 Q42.1 431.9 65.1 456.1 L65.15 456.15 Q82.5 471.0 114.4 490.55 L114.35 490.55 Q170.55 528.15 224.5 559.3 L233.4 564.35 233.45 564.35 Q374.7 641.9 397.1 710.15 411.55 758.3 418.95 806.45" fill="url(#gradient1)" fill-rule="evenodd" stroke="none"/>
    <path d="M299.5 440.05 Q289.55 432.75 293.5 423.25 302.4 408.55 330.5 398.35 L330.55 398.35 Q355.35 387.8 420.4 381.2 L433.3 380.35 460.05 378.6 466.2 378.85 Q489.9 379.9 513.55 383.05 483.1 379.8 446.65 381.7 384.55 385.0 341.35 401.5 298.25 418.0 299.3 438.15 L299.5 440.05" fill="url(#gradient2)" fill-rule="evenodd" stroke="none"/>
    <path d="M598.75 426.8 L598.0 427.15 Q577.4 437.8 547.35 445.55 414.35 475.6 321.15 449.5 307.55 445.55 300.35 440.65 L299.5 440.05 299.3 438.15 Q298.25 418.0 341.35 401.5 384.55 385.0 446.65 381.7 483.1 379.8 513.55 383.05 L530.7 385.5 531.2 385.6 Q542.75 387.55 553.35 390.35 598.0 402.25 599.05 422.35 599.15 424.6 598.75 426.8 M-281.25 558.75 L-281.25 397.95 Q-183.85 342.9 -12.5 312.8 L-6.0 311.65 Q63.7 294.8 134.1 281.85 L275.45 261.65 Q331.1 255.4 387.15 251.5 L485.55 246.6 Q535.75 245.55 586.35 246.3 660.1 247.4 704.25 249.9 L738.2 252.4 792.5 258.3 822.35 263.2 859.1 272.9 Q954.4 291.7 971.5 345.25 980.75 379.2 966.65 411.1 903.75 359.95 810.95 321.9 783.25 312.55 751.25 305.7 573.85 274.0 362.75 294.15 165.45 313.15 -6.0 385.55 L-12.5 388.05 Q-156.55 443.65 -281.25 558.75 M1076.75 338.35 L1076.75 558.05 Q1051.35 491.75 997.0 438.2 1023.95 396.1 1010.5 344.95 1000.5 313.05 961.25 293.55 1023.1 312.35 1076.75 338.35 M517.15 444.0 Q545.35 433.2 544.65 420.05 543.95 406.9 514.8 399.15 485.65 391.35 445.1 393.5 404.5 395.65 376.3 406.45 348.1 417.2 348.8 430.35 349.5 443.5 378.65 451.3 407.85 459.0 448.4 456.9 489.0 454.75 517.15 444.0" fill="url(#gradient3)" fill-rule="evenodd" stroke="none"/>
    <path d="M-281.25 397.95 L-281.25 394.95 Q-189.1 345.2 -12.5 309.95 L-6.0 308.65 Q63.65 293.1 134.1 281.85 63.7 294.8 -6.0 311.65 L-12.5 312.8 Q-183.85 342.9 -281.25 397.95 M485.55 246.6 Q534.9 244.65 584.6 244.75 L704.3 248.9 770.9 253.4 792.5 255.3 822.35 263.2 792.5 258.3 738.2 252.4 704.25 249.9 Q660.1 247.4 586.35 246.3 535.75 245.55 485.55 246.6" fill="#0033ff" fill-rule="evenodd" stroke="none"/>
    <path d="M626.75 406.35 L626.8 406.35 626.75 406.35" fill="url(#gradient4)" fill-rule="evenodd" stroke="none"/>
    <path d="M936.0 283.25 Q1012.25 304.1 1076.75 335.35 L1076.75 338.35 Q1023.1 312.35 961.25 293.55 949.85 287.85 936.0 283.25" fill="#0027c6" fill-rule="evenodd" stroke="none"/>
    <path d="M842.15 196.85 L842.25 197.6 842.15 196.85" fill="#ffccff" fill-rule="evenodd" stroke="none"/>
    <path d="M844.3 64.65 Q841.3 74.85 810.1 85.25 780.7 95.05 726.2 105.05 612.45 125.95 486.95 119.3 382.75 116.4 277.25 107.05 144.55 85.45 95.2 27.35" fill="none" stroke="#0033ff" stroke-linecap="round" stroke-linejoin="round" stroke-width="0.05"/>
    <path d="M517.15 444.0 Q489.0 454.75 448.4 456.9 407.85 459.0 378.65 451.3 349.5 443.5 348.8 430.35 348.1 417.2 376.3 406.45 404.5 395.65 445.1 393.5 485.65 391.35 514.8 399.15 543.95 406.9 544.65 420.05 545.35 433.2 517.15 444.0" fill="none" stroke="#ffffff" stroke-linecap="round" stroke-linejoin="round" stroke-opacity="0.4" stroke-width="2.5"/>
  </g>
  <defs>
    <linearGradient gradientTransform="matrix(0.4045, 0.0, 0.0, 0.2969, 386.95, 563.2)" gradientUnits="userSpaceOnUse" id="gradient0" spreadMethod="pad" x1="-819.2" x2="819.2">
      <stop offset="0.0" stop-color="#ffffff"/>
      <stop offset="0.42745098039215684" stop-color="#c4c4ff"/>
      <stop offset="1.0" stop-color="#0033ff"/>
    </linearGradient>
    <linearGradient gradientTransform="matrix(0.5099, 0.4859, -0.4835, 0.5074, 408.9, 670.95)" gradientUnits="userSpaceOnUse" id="gradient1" spreadMethod="pad" x1="-819.2" x2="819.2">
      <stop offset="0.0" stop-color="#ffffff"/>
      <stop offset="0.42745098039215684" stop-color="#c4c4ff"/>
      <stop offset="1.0" stop-color="#0033ff"/>
    </linearGradient>
    <linearGradient gradientTransform="matrix(0.135, 0.0, 0.0, 0.0375, 402.95, 409.3)" gradientUnits="userSpaceOnUse" id="gradient2" spreadMethod="pad" x1="-819.2" x2="819.2">
      <stop offset="0.0" stop-color="#ffffff"/>
      <stop offset="0.42745098039215684" stop-color="#c4c4ff"/>
      <stop offset="1.0" stop-color="#0033ff"/>
    </linearGradient>
    <linearGradient gradientTransform="matrix(0.0634, 0.2397, -0.7468, 0.1976, 345.35, 452.75)" gradientUnits="userSpaceOnUse" id="gradient3" spreadMethod="pad" x1="-819.2" x2="819.2">
      <stop offset="0.0" stop-color="#ffffff"/>
      <stop offset="0.42745098039215684" stop-color="#c4c4ff"/>
      <stop offset="1.0" stop-color="#0033ff"/>
    </linearGradient>
    <radialGradient cx="0" cy="0" gradientTransform="matrix(1.2132, 0.0, 0.0, 1.2132, 115.95, 554.95)" gradientUnits="userSpaceOnUse" id="gradient4" r="819.2" spreadMethod="pad">
      <stop offset="0.0" stop-color="#ffffff"/>
      <stop offset="0.5019607843137255" stop-color="#ce9dff"/>
      <stop offset="0.9490196078431372" stop-color="#ffffff"/>
    </radialGradient>
  </defs>
</svg>
