<?xml version="1.0" encoding="UTF-8" standalone="no"?>
<svg xmlns:xlink="http://www.w3.org/1999/xlink" height="632.8px" width="1117.3px" xmlns="http://www.w3.org/2000/svg">
  <g transform="matrix(1.0, 0.0, 0.0, 1.0, 558.6, 316.4)">
    <path d="M-291.4 -253.5 Q-256.65 -277.4 -185.1 -280.95 -2.5 -290.0 218.7 -262.6 295.7 -252.5 268.7 -223.85 261.15 -216.25 250.35 -209.5 M-319.95 -209.4 Q-289.05 -109.4 77.15 -110.05 202.75 -107.85 314.0 -142.6 339.3 -150.9 336.95 -159.2 335.2 -165.25 318.6 -171.3 M-377.2 -240.4 Q-373.9 -271.5 -320.65 -291.9 -248.9 -316.7 -185.1 -315.1 -77.25 -319.35 18.7 -309.55 236.95 -296.8 303.55 -273.85 337.65 -258.15 325.3 -237.9 310.7 -219.7 282.75 -203.75" fill="none" stroke="#0033ff" stroke-linecap="round" stroke-linejoin="round" stroke-width="0.05"/>
    <path d="M452.35 -29.9 Q467.6 -21.25 452.35 -21.75 L418.65 -20.25 Q387.25 -19.9 356.35 -22.85 L333.15 -25.5 Q310.6 -28.55 288.3 -33.4 221.25 -50.2 188.75 -52.85 137.2 -57.15 85.65 -52.85 63.65 -51.7 39.15 -51.6 L32.1 -51.5 Q9.3 -51.5 -15.6 -52.35 L-20.7 -52.45 -29.35 -52.6 Q-90.95 -53.25 -165.35 -48.25 -233.7 -42.85 -313.5 -57.4 -351.4 -64.55 -379.85 -73.5 M-431.5 -71.65 Q-466.75 -73.05 -482.3 -48.05 -491.7 -32.9 -480.6 -17.85 -465.05 -0.75 -431.3 2.15 -420.4 3.05 -407.55 2.5 -386.9 1.6 -358.95 2.55 -315.9 3.95 -255.6 9.7 -205.4 11.6 -145.8 -4.45 -109.65 -14.45 -71.25 -17.95 L-44.1 -20.0 Q57.05 -27.05 132.95 -22.8 L142.9 -22.25 167.55 -20.0 Q204.05 -15.55 239.85 -4.85 313.85 19.1 369.2 32.65 424.45 46.15 446.0 50.45 464.35 54.3 479.7 59.4 493.55 64.0 504.95 69.7 544.2 89.2 554.2 121.1 567.65 172.25 540.7 214.35 531.85 228.05 518.7 240.85 453.35 295.85 318.7 316.4 366.9 304.1 418.7 276.15 489.65 233.95 510.35 187.25 524.45 155.35 515.2 121.4 498.1 67.85 402.8 49.05 L269.4 13.8 Q204.15 -11.2 144.4 -16.25 L108.65 -17.95 Q28.65 -20.85 -55.6 -15.15 -106.25 -10.45 -155.6 2.2 -223.1 17.75 -284.65 12.15 -320.45 8.85 -358.95 7.7 -382.15 6.95 -406.3 7.0 L-415.7 7.05 Q-459.4 8.75 -484.9 6.0 -522.6 0.7 -549.0 -24.8 -568.2 -48.9 -549.0 -70.85 -535.65 -85.35 -470.2 -87.85 M356.35 -22.85 L385.95 -26.25 385.85 -27.0 Q381.05 -26.45 364.6 -29.15 L341.8 -33.3 225.5 -53.55 Q180.0 -62.05 120.05 -57.25 L39.15 -51.6 M383.75 -31.35 Q390.65 -27.55 385.85 -27.0 M-20.7 -52.45 L-29.35 -52.85 Q-77.65 -56.9 -180.3 -52.85 -229.6 -49.4 -331.3 -73.85 L-334.55 -74.9" fill="none" stroke="#6666ff" stroke-linecap="round" stroke-linejoin="round" stroke-width="0.05"/>
  </g>
</svg>
