<?xml version="1.0" encoding="UTF-8" standalone="no"?>
<svg xmlns:xlink="http://www.w3.org/1999/xlink" height="165.05px" width="861.4px" xmlns="http://www.w3.org/2000/svg">
  <g transform="matrix(1.0, 0.0, 0.0, 1.0, 430.7, 82.5)">
    <path d="M298.6 -15.1 L269.8 -20.25 Q249.0 -23.6 226.35 -26.0 99.5 -43.9 -38.1 -49.6 -172.0 -55.15 -268.25 -38.55 L-277.6 -36.6 Q-301.45 -31.3 -318.75 -23.7 -355.45 -7.65 -362.65 18.5 -369.8 56.2 -331.1 80.45 L-379.8 82.55 Q-409.2 67.45 -419.0 48.7 -454.45 -19.05 -382.6 -53.5 -359.5 -61.75 -334.85 -67.6 -294.25 -77.3 -249.4 -80.7 L-249.05 -80.7 -191.55 -82.45 Q-44.75 -81.6 94.6 -65.55 217.45 -49.8 292.7 -36.7 L325.1 -30.95 Q376.1 -21.25 400.55 -12.95 433.5 -1.45 430.45 13.1 L430.35 13.6 379.3 13.6 Q377.55 7.55 360.95 1.5 332.75 -8.15 298.6 -15.1" fill="#355eff" fill-rule="evenodd" stroke="none"/>
  </g>
</svg>
