<?xml version="1.0" encoding="UTF-8" standalone="no"?>
<svg xmlns:xlink="http://www.w3.org/1999/xlink" height="104.4px" width="1018.55px" xmlns="http://www.w3.org/2000/svg">
  <g transform="matrix(1.0, 0.0, 0.0, 1.0, 509.3, 52.2)">
    <path d="M448.4 -3.65 Q482.75 4.8 501.65 14.6 516.9 23.25 501.65 22.75 L467.95 24.25 Q436.55 24.6 405.65 21.65 L435.25 18.25 435.15 17.5 Q439.95 16.95 433.05 13.15 407.65 3.15 283.95 -14.85 97.15 -41.3 -285.25 -30.4 L-330.55 -29.0 -382.2 -27.15 Q-417.45 -28.55 -433.0 -3.55 -442.4 11.6 -431.3 26.65 -415.75 43.75 -382.0 46.65 L-357.0 51.5 -366.4 51.55 Q-410.1 53.25 -435.6 50.5 -473.3 45.2 -499.7 19.7 -518.9 -4.4 -499.7 -26.35 -486.35 -40.85 -420.9 -43.35 L-372.85 -45.75 -324.15 -47.85 Q-31.45 -59.2 229.95 -40.95 347.4 -29.85 448.4 -3.65" fill="#1552f2" fill-rule="evenodd" stroke="none"/>
  </g>
</svg>
