<?xml version="1.0" encoding="UTF-8" standalone="no"?>
<svg xmlns:xlink="http://www.w3.org/1999/xlink" height="192.35px" width="93.4px" xmlns="http://www.w3.org/2000/svg">
  <g transform="matrix(1.0, 0.0, 0.0, 1.0, 46.7, 96.15)">
    <path d="M-14.55 -71.55 Q-14.7 -76.35 -13.7 -81.45 -12.35 -89.95 -6.85 -93.6 L-4.55 -95.1 Q-1.4 -96.95 1.7 -95.6 L4.0 -94.3 Q12.15 -89.9 12.3 -79.9 16.15 -75.35 14.75 -68.4 L13.85 -68.3 12.7 -68.2 12.45 -68.2 12.65 -68.45 12.7 -68.5 Q13.6 -69.7 13.6 -71.35 L13.4 -72.9 12.65 -74.3 Q11.7 -75.5 10.35 -75.5 9.0 -75.5 8.05 -74.3 7.1 -73.05 7.1 -71.35 7.1 -69.65 8.05 -68.45 L8.05 -68.15 2.1 -68.45 2.05 -68.5 1.8 -68.85 2.25 -69.55 2.35 -69.75 Q2.75 -70.65 2.75 -71.75 L2.45 -73.6 2.35 -73.8 1.8 -74.7 Q0.85 -75.9 -0.5 -75.9 -1.85 -75.9 -2.8 -74.7 -3.75 -73.45 -3.75 -71.75 -3.75 -70.4 -3.15 -69.35 L-3.3 -69.25 -3.05 -69.2 -3.05 -69.05 -3.35 -69.1 -4.95 -69.25 -6.25 -69.85 -3.3 -69.25 -6.25 -69.85 -6.3 -69.9 Q-6.8 -70.3 -7.0 -71.0 L-7.65 -73.65 Q-8.25 -75.3 -9.6 -73.45 L-11.05 -71.45 -11.35 -71.15 -11.65 -71.2 -12.55 -71.45 -14.55 -71.55 M7.7 -82.35 Q10.45 -82.0 12.3 -79.9 10.45 -82.0 7.7 -82.35 M4.35 -82.3 Q-4.5 -81.9 -6.25 -69.85 -4.5 -81.9 4.35 -82.3" fill="url(#gradient0)" fill-rule="evenodd" stroke="none"/>
    <path d="M8.05 -68.45 Q7.1 -69.65 7.1 -71.35 7.1 -73.05 8.05 -74.3 9.0 -75.5 10.35 -75.5 11.7 -75.5 12.65 -74.3 L13.4 -72.9 13.2 -73.1 13.15 -73.15 Q12.3 -74.0 11.05 -74.0 9.8 -74.0 8.9 -73.15 8.05 -72.25 8.05 -71.0 8.05 -69.75 8.9 -68.9 9.4 -68.4 10.05 -68.15 L10.15 -68.15 8.3 -68.15 8.05 -68.45 M12.7 -68.5 L12.65 -68.45 12.45 -68.2 12.1 -68.15 12.7 -68.5 M10.55 -71.0 L10.05 -70.95 Q8.9 -71.45 9.75 -72.35 L10.25 -72.55 Q11.65 -72.05 10.55 -71.0 M1.55 -68.5 L0.3 -68.7 Q1.4 -68.75 2.15 -69.55 L2.2 -69.6 2.35 -69.75 2.25 -69.55 1.8 -68.85 1.55 -68.5 M-0.9 -68.85 L-2.05 -69.05 -3.05 -69.2 -3.15 -69.35 Q-3.75 -70.4 -3.75 -71.75 -3.75 -73.45 -2.8 -74.7 -1.85 -75.9 -0.5 -75.9 0.85 -75.9 1.8 -74.7 L2.35 -73.8 2.45 -73.6 2.25 -73.8 2.2 -73.85 Q1.35 -74.7 0.1 -74.7 -1.15 -74.7 -2.05 -73.85 -2.9 -72.95 -2.9 -71.7 -2.9 -70.45 -2.05 -69.6 -1.55 -69.1 -0.9 -68.85 M-0.65 -73.35 Q0.75 -72.85 -0.3 -71.8 L-0.85 -71.7 Q-2.0 -72.25 -1.15 -73.1 L-0.65 -73.35" fill="#ffffff" fill-rule="evenodd" stroke="none"/>
    <path d="M14.75 -68.4 Q16.6 -68.3 17.95 -67.3 L18.1 -66.95 Q20.1 -63.85 21.3 -60.3 L21.5 -58.9 21.45 -57.75 Q26.85 -41.75 33.4 -29.3 L35.15 -26.1 Q51.15 -1.05 45.0 21.9 40.9 37.2 21.0 50.05 L18.95 51.35 9.5 56.55 Q2.85 65.15 2.35 85.95 L2.3 88.6 14.0 96.15 Q5.7 96.65 -6.2 92.4 L-6.35 92.0 -7.1 87.35 -10.55 73.05 -11.35 70.7 -12.2 68.3 Q-14.8 61.4 -18.45 54.2 -49.45 26.7 -46.45 -13.4 -42.4 -38.05 -20.55 -59.8 -19.85 -65.6 -18.0 -68.9 L-17.45 -69.75 Q-17.5 -69.3 -17.15 -68.6 -14.95 -65.25 -13.75 -61.4 L-14.0 -61.35 -13.7 -61.25 -13.45 -60.35 -8.5 -60.1 -7.4 -61.6 -7.35 -61.6 -7.35 -61.65 Q-5.4 -64.25 -2.5 -66.55 L-2.3 -66.75 Q-0.7 -68.55 -3.05 -69.05 L-3.05 -69.2 -2.05 -69.05 -0.9 -68.85 0.3 -68.7 1.55 -68.5 2.0 -68.45 2.1 -68.45 8.05 -68.15 8.15 -68.15 8.3 -68.15 10.15 -68.15 11.7 -68.15 12.1 -68.15 12.45 -68.2 12.7 -68.2 13.85 -68.3 14.75 -68.4 M-16.5 -70.75 Q-15.65 -71.4 -14.55 -71.55 L-12.55 -71.45 -11.65 -71.2 -11.5 -71.0 Q-12.4 -70.3 -13.75 -70.45 L-15.45 -70.7 -16.5 -70.75 M-1.45 -12.55 Q3.05 -28.3 -2.2 -39.45 -7.5 -50.65 -7.35 -61.6 -7.5 -50.65 -2.2 -39.45 3.05 -28.3 -1.45 -12.55 M-20.65 -15.4 Q-30.0 -36.35 -14.0 -61.35 -30.0 -36.35 -20.65 -15.4" fill="url(#gradient1)" fill-rule="evenodd" stroke="none"/>
    <path d="M17.95 -67.3 Q17.2 -69.4 19.8 -69.05 L21.5 -68.8 Q23.25 -68.65 24.2 -69.8 L25.65 -71.8 Q27.0 -73.65 27.6 -72.0 L28.25 -69.35 Q28.65 -67.95 30.3 -67.6 L31.9 -67.45 Q34.65 -67.0 32.95 -65.1 L32.75 -64.9 Q29.15 -62.05 26.95 -58.75 L26.75 -58.45 26.1 -58.5 22.0 -58.7 21.8 -58.75 21.3 -60.3 Q20.1 -63.85 18.1 -66.95 L17.95 -67.3" fill="url(#gradient2)" fill-rule="evenodd" stroke="none"/>
    <path d="M8.05 -68.45 L8.3 -68.15 8.15 -68.15 8.05 -68.15 8.05 -68.45" fill="#9999ff" fill-rule="evenodd" stroke="none"/>
    <path d="M2.0 -68.45 L1.55 -68.5 1.8 -68.85 2.05 -68.5 2.0 -68.45" fill="url(#gradient3)" fill-rule="evenodd" stroke="none"/>
    <path d="M-6.35 92.0 L-6.7 90.4 -6.75 89.7 -7.1 87.35 -6.35 92.0 M2.1 -68.45 L2.0 -68.45 2.05 -68.5 2.1 -68.45" fill="#6633cc" fill-rule="evenodd" stroke="none"/>
    <path d="M26.95 -58.75 L27.7 -59.05 Q32.2 -44.05 33.4 -29.3 26.85 -41.75 21.45 -57.75 L21.5 -58.9 21.8 -58.75 21.8 -58.7 22.0 -58.7 26.1 -58.5 26.75 -58.45 26.95 -58.75" fill="url(#gradient4)" fill-rule="evenodd" stroke="none"/>
    <path d="M21.8 -58.75 L22.0 -58.7 21.8 -58.7 21.8 -58.75" fill="url(#gradient5)" fill-rule="evenodd" stroke="none"/>
    <path d="M22.0 -58.7 L26.1 -58.5 22.0 -58.7" fill="url(#gradient6)" fill-rule="evenodd" stroke="none"/>
    <path d="M-3.15 -69.35 L-3.05 -69.2 -3.3 -69.25 -3.15 -69.35" fill="url(#gradient7)" fill-rule="evenodd" stroke="none"/>
    <path d="M-11.65 -71.2 L-11.35 -71.15 -11.5 -71.0 -11.65 -71.2 M-6.3 -69.9 L-6.25 -69.85 -6.3 -69.9 M-7.35 -61.65 L-7.35 -61.6 -7.4 -61.6 -7.35 -61.65 -7.4 -61.6 -7.35 -61.65 M-13.75 -61.4 L-13.7 -61.25 -14.0 -61.35 -13.75 -61.4" fill="url(#gradient8)" fill-rule="evenodd" stroke="none"/>
    <path d="M-17.45 -69.75 Q-17.5 -70.6 -16.5 -70.75 L-15.45 -70.7 -13.75 -70.45 Q-12.4 -70.3 -11.5 -71.0 L-11.35 -71.15 -11.05 -71.45 -9.6 -73.45 Q-8.25 -75.3 -7.65 -73.65 L-7.0 -71.0 Q-6.8 -70.3 -6.3 -69.9 L-6.25 -69.85 -4.95 -69.25 -3.35 -69.1 -3.05 -69.05 Q-0.7 -68.55 -2.3 -66.75 L-2.5 -66.55 Q-5.4 -64.25 -7.35 -61.65 L-7.4 -61.6 -8.5 -60.1 -13.45 -60.35 -13.7 -61.25 -13.75 -61.4 Q-14.95 -65.25 -17.15 -68.6 -17.5 -69.3 -17.45 -69.75" fill="url(#gradient9)" fill-rule="evenodd" stroke="none"/>
    <path d="M18.95 51.35 Q11.0 57.2 7.35 80.4 L21.65 85.8 Q13.9 87.5 2.35 85.95 2.85 65.15 9.5 56.55 L18.95 51.35" fill="url(#gradient10)" fill-rule="evenodd" stroke="none"/>
    <path d="M10.15 -68.15 L10.05 -68.15 Q9.4 -68.4 8.9 -68.9 8.05 -69.75 8.05 -71.0 8.05 -72.25 8.9 -73.15 9.8 -74.0 11.05 -74.0 12.3 -74.0 13.15 -73.15 L13.2 -73.1 13.4 -72.9 13.6 -71.35 Q13.6 -69.7 12.7 -68.5 L12.1 -68.15 11.7 -68.15 10.15 -68.15 M10.55 -71.0 Q11.65 -72.05 10.25 -72.55 L9.75 -72.35 Q8.9 -71.45 10.05 -70.95 L10.55 -71.0 M0.3 -68.7 L-0.9 -68.85 Q-1.55 -69.1 -2.05 -69.6 -2.9 -70.45 -2.9 -71.7 -2.9 -72.95 -2.05 -73.85 -1.15 -74.7 0.1 -74.7 1.35 -74.7 2.2 -73.85 L2.25 -73.8 2.45 -73.6 2.75 -71.75 Q2.75 -70.65 2.35 -69.75 L2.2 -69.6 2.15 -69.55 Q1.4 -68.75 0.3 -68.7 M-0.65 -73.35 L-1.15 -73.1 Q-2.0 -72.25 -0.85 -71.7 L-0.3 -71.8 Q0.75 -72.85 -0.65 -73.35" fill="#884400" fill-rule="evenodd" stroke="none"/>
    <path d="M-14.55 -71.55 Q-14.7 -76.35 -13.7 -81.45 -12.35 -89.95 -6.85 -93.6 L-4.55 -95.1 Q-1.4 -96.95 1.7 -95.6 L4.0 -94.3 Q12.15 -89.9 12.3 -79.9 16.15 -75.35 14.75 -68.4 16.6 -68.3 17.95 -67.3 17.2 -69.4 19.8 -69.05 L21.5 -68.8 Q23.25 -68.65 24.2 -69.8 L25.65 -71.8 Q27.0 -73.65 27.6 -72.0 L28.25 -69.35 Q28.65 -67.95 30.3 -67.6 L31.9 -67.45 Q34.65 -67.0 32.95 -65.1 L32.75 -64.9 Q29.15 -62.05 26.95 -58.75 L27.7 -59.05 Q32.2 -44.05 33.4 -29.3 L35.15 -26.1 Q51.15 -1.05 45.0 21.9 40.9 37.2 21.0 50.05 L18.95 51.35 Q11.0 57.2 7.35 80.4 L21.65 85.8 Q13.9 87.5 2.35 85.95 L2.3 88.6 14.0 96.15 Q5.7 96.65 -6.2 92.4 L-6.3 92.35 -6.35 92.0 -7.1 87.35 -10.55 73.05 -11.35 70.7 -12.2 68.3 Q-14.8 61.4 -18.45 54.2 -49.45 26.7 -46.45 -13.4 -42.4 -38.05 -20.55 -59.8 -19.85 -65.6 -18.0 -68.9 L-17.45 -69.75 Q-17.5 -70.6 -16.5 -70.75 -15.65 -71.4 -14.55 -71.55 L-12.55 -71.45 -11.65 -71.2 -11.35 -71.15 -11.05 -71.45 -9.6 -73.45 Q-8.25 -75.3 -7.65 -73.65 L-7.0 -71.0 Q-6.8 -70.3 -6.3 -69.9 L-6.25 -69.85 Q-4.5 -81.9 4.35 -82.3 M12.3 -79.9 Q10.45 -82.0 7.7 -82.35 M13.4 -72.9 L12.65 -74.3 Q11.7 -75.5 10.35 -75.5 9.0 -75.5 8.05 -74.3 7.1 -73.05 7.1 -71.35 7.1 -69.65 8.05 -68.45 L8.3 -68.15 10.15 -68.15 11.7 -68.15 12.1 -68.15 12.45 -68.2 12.7 -68.2 13.85 -68.3 14.75 -68.4 M13.4 -72.9 L13.6 -71.35 Q13.6 -69.7 12.7 -68.5 L12.65 -68.45 12.45 -68.2 M17.95 -67.3 L18.1 -66.95 Q20.1 -63.85 21.3 -60.3 L21.8 -58.75 21.5 -58.9 21.45 -57.75 Q26.85 -41.75 33.4 -29.3 M26.75 -58.45 L26.95 -58.75 M8.05 -68.15 L8.15 -68.15 8.3 -68.15 M8.05 -68.15 L2.1 -68.45 2.0 -68.45 1.55 -68.5 0.3 -68.7 -0.9 -68.85 -2.05 -69.05 -3.05 -69.2 -3.15 -69.35 Q-3.75 -70.4 -3.75 -71.75 -3.75 -73.45 -2.8 -74.7 -1.85 -75.9 -0.5 -75.9 0.85 -75.9 1.8 -74.7 L2.35 -73.8 2.45 -73.6 2.75 -71.75 Q2.75 -70.65 2.35 -69.75 L2.25 -69.55 1.8 -68.85 1.55 -68.5 M-3.05 -69.05 Q-0.7 -68.55 -2.3 -66.75 L-2.5 -66.55 Q-5.4 -64.25 -7.35 -61.65 L-7.35 -61.6 Q-7.5 -50.65 -2.2 -39.45 3.05 -28.3 -1.45 -12.55 M2.05 -68.5 L2.1 -68.45 M21.8 -58.7 L21.8 -58.75 M21.3 -60.3 L21.5 -58.9 M26.1 -58.5 L22.0 -58.7 M18.95 51.35 L9.5 56.55 Q2.85 65.15 2.35 85.95 M-3.3 -69.25 L-3.05 -69.2 M-6.25 -69.85 L-4.95 -69.25 -3.35 -69.1 -3.05 -69.05 M-6.3 -69.9 L-6.25 -69.85 M-3.3 -69.25 L-6.25 -69.85 M-11.5 -71.0 L-11.35 -71.15 M-11.5 -71.0 Q-12.4 -70.3 -13.75 -70.45 L-15.45 -70.7 -16.5 -70.75 M-17.45 -69.75 Q-17.5 -69.3 -17.15 -68.6 -14.95 -65.25 -13.75 -61.4 L-13.7 -61.25 -13.45 -60.35 M-8.5 -60.1 L-7.4 -61.6 -7.35 -61.65 M-14.0 -61.35 L-13.7 -61.25 M-7.4 -61.6 L-7.35 -61.65 M-14.0 -61.35 Q-30.0 -36.35 -20.65 -15.4 M-6.2 92.4 L-6.35 92.0" fill="none" stroke="#660099" stroke-linecap="round" stroke-linejoin="round" stroke-width="0.05"/>
  </g>
  <defs>
    <radialGradient cx="0" cy="0" gradientTransform="matrix(0.0266, 0.0, 0.0, 0.0266, 4.35, -82.3)" gradientUnits="userSpaceOnUse" id="gradient0" r="819.2" spreadMethod="pad">
      <stop offset="0.0" stop-color="#9900cc"/>
      <stop offset="0.5294117647058824" stop-color="#9933ff"/>
      <stop offset="1.0" stop-color="#6633cc"/>
    </radialGradient>
    <radialGradient cx="0" cy="0" gradientTransform="matrix(0.1083, 0.0, 0.0, 0.1083, 17.0, 10.95)" gradientUnits="userSpaceOnUse" id="gradient1" r="819.2" spreadMethod="pad">
      <stop offset="0.0" stop-color="#9900cc"/>
      <stop offset="0.5294117647058824" stop-color="#9933ff"/>
      <stop offset="1.0" stop-color="#6633cc"/>
    </radialGradient>
    <radialGradient cx="0" cy="0" gradientTransform="matrix(0.011, 0.0, 0.0, 0.011, 24.85, -64.35)" gradientUnits="userSpaceOnUse" id="gradient2" r="819.2" spreadMethod="pad">
      <stop offset="0.0" stop-color="#9900cc"/>
      <stop offset="0.5294117647058824" stop-color="#9933ff"/>
      <stop offset="1.0" stop-color="#6633cc"/>
    </radialGradient>
    <radialGradient cx="0" cy="0" gradientTransform="matrix(0.1316, 0.0, 0.0, 0.1316, -15.0, 27.95)" gradientUnits="userSpaceOnUse" id="gradient3" r="819.2" spreadMethod="pad">
      <stop offset="0.3843137254901961" stop-color="#33ccff"/>
      <stop offset="1.0" stop-color="#3399ff"/>
    </radialGradient>
    <radialGradient cx="0" cy="0" gradientTransform="matrix(0.0372, 0.0, 0.0, 0.0372, 24.4, -58.15)" gradientUnits="userSpaceOnUse" id="gradient4" r="819.2" spreadMethod="pad">
      <stop offset="0.0" stop-color="#9900cc"/>
      <stop offset="0.5294117647058824" stop-color="#9933ff"/>
      <stop offset="1.0" stop-color="#6633cc"/>
    </radialGradient>
    <radialGradient cx="0" cy="0" gradientTransform="matrix(-0.0158, -9.0E-4, 9.0E-4, -0.0158, 20.8, -64.6)" gradientUnits="userSpaceOnUse" id="gradient5" r="819.2" spreadMethod="pad">
      <stop offset="0.3843137254901961" stop-color="#33ccff"/>
      <stop offset="1.0" stop-color="#3399ff"/>
    </radialGradient>
    <radialGradient cx="0" cy="0" gradientTransform="matrix(0.0026, 0.0, 0.0, 0.0026, 24.15, -58.4)" gradientUnits="userSpaceOnUse" id="gradient6" r="819.2" spreadMethod="pad">
      <stop offset="0.0" stop-color="#9900cc"/>
      <stop offset="0.5294117647058824" stop-color="#9933ff"/>
      <stop offset="1.0" stop-color="#6633cc"/>
    </radialGradient>
    <radialGradient cx="0" cy="0" gradientTransform="matrix(0.0266, 0.0, 0.0, 0.0266, 4.35, -82.3)" gradientUnits="userSpaceOnUse" id="gradient7" r="819.2" spreadMethod="pad">
      <stop offset="0.3843137254901961" stop-color="#33ccff"/>
      <stop offset="1.0" stop-color="#3399ff"/>
    </radialGradient>
    <radialGradient cx="0" cy="0" gradientTransform="matrix(0.1083, 0.0, 0.0, 0.1083, 17.0, 10.95)" gradientUnits="userSpaceOnUse" id="gradient8" r="819.2" spreadMethod="pad">
      <stop offset="0.3843137254901961" stop-color="#33ccff"/>
      <stop offset="1.0" stop-color="#3399ff"/>
    </radialGradient>
    <radialGradient cx="0" cy="0" gradientTransform="matrix(0.0148, 0.0, 0.0, 0.0148, -13.45, -69.8)" gradientUnits="userSpaceOnUse" id="gradient9" r="819.2" spreadMethod="pad">
      <stop offset="0.0" stop-color="#9900cc"/>
      <stop offset="0.5294117647058824" stop-color="#9933ff"/>
      <stop offset="1.0" stop-color="#6633cc"/>
    </radialGradient>
    <radialGradient cx="0" cy="0" gradientTransform="matrix(0.0308, 0.0, 0.0, 0.0308, 9.0, 63.95)" gradientUnits="userSpaceOnUse" id="gradient10" r="819.2" spreadMethod="pad">
      <stop offset="0.0" stop-color="#9900cc"/>
      <stop offset="0.5294117647058824" stop-color="#9933ff"/>
      <stop offset="1.0" stop-color="#6633cc"/>
    </radialGradient>
  </defs>
</svg>
