<?xml version="1.0" encoding="UTF-8" standalone="no"?>
<svg xmlns:xlink="http://www.w3.org/1999/xlink" height="153.25px" width="103.3px" xmlns="http://www.w3.org/2000/svg">
  <g transform="matrix(1.0, 0.0, 0.0, 1.0, 51.45, 77.4)">
    <path d="M10.45 -39.75 L10.75 -41.4 Q10.75 -43.1 9.55 -44.3 8.4 -45.45 6.7 -45.45 5.0 -45.45 3.8 -44.3 2.65 -43.1 2.65 -41.4 2.65 -39.7 3.8 -38.55 5.0 -37.35 6.7 -37.35 L7.05 -37.35 Q8.5 -37.45 9.55 -38.55 L10.45 -39.75 M6.7 -46.15 Q8.7 -46.15 10.1 -44.75 11.5 -43.35 11.55 -41.35 11.5 -39.35 10.1 -37.95 8.7 -36.5 6.7 -36.5 4.7 -36.5 3.25 -37.95 1.95 -39.25 1.85 -41.0 L1.8 -41.3 1.85 -41.35 Q1.85 -43.35 3.25 -44.75 4.15 -45.65 5.25 -45.95 L6.7 -46.15 M5.7 -41.65 L5.15 -41.55 Q4.05 -42.1 4.9 -42.95 L5.35 -43.2 Q6.75 -42.65 5.7 -41.65 M-5.85 -45.55 Q-4.6 -44.3 -4.45 -42.65 L-4.4 -42.0 Q-4.4 -41.2 -4.65 -40.5 -5.05 -39.5 -5.85 -38.7 L-7.0 -37.8 Q-8.0 -37.3 -9.25 -37.3 -11.25 -37.3 -12.65 -38.7 -14.05 -40.1 -14.05 -42.1 -14.05 -44.1 -12.65 -45.55 -11.25 -46.95 -9.25 -46.95 -7.95 -46.95 -6.85 -46.3 L-5.85 -45.55 M-6.4 -45.15 Q-7.55 -46.3 -9.25 -46.3 -10.95 -46.3 -12.15 -45.15 -13.3 -43.95 -13.3 -42.25 -13.3 -40.55 -12.15 -39.4 -10.95 -38.2 -9.25 -38.2 L-8.9 -38.2 Q-7.45 -38.3 -6.4 -39.4 -5.85 -39.95 -5.5 -40.6 -5.2 -41.35 -5.2 -42.25 -5.2 -43.95 -6.4 -45.15 M-11.0 -43.05 L-11.5 -42.95 Q-12.65 -43.5 -11.8 -44.35 L-11.3 -44.6 Q-9.9 -44.05 -11.0 -43.05" fill="#ffffff" fill-rule="evenodd" stroke="none"/>
    <path d="M13.9 -50.9 Q17.6 -50.55 20.1 -39.45 22.6 -28.4 25.45 -24.45 42.2 -0.9 45.95 24.05 L45.0 22.75 40.2 24.05 39.65 25.85 Q38.55 28.95 36.5 32.05 L36.4 32.3 Q35.4 34.6 38.15 34.2 L39.75 33.85 Q41.35 33.65 42.2 34.85 L43.65 37.15 Q44.65 38.45 45.35 36.65 46.9 59.9 30.35 70.8 -3.0 82.75 -36.7 66.5 -50.55 56.65 -50.3 33.5 L-50.0 33.65 -48.45 34.15 Q-46.95 34.75 -46.8 36.25 L-46.7 38.95 Q-46.45 40.7 -44.75 39.15 L-42.95 37.5 Q-41.8 36.55 -40.1 37.05 L-38.45 37.7 Q-35.8 38.6 -36.35 35.95 -38.0 31.85 -38.35 27.5 L-38.35 27.15 -43.15 25.85 -43.45 26.2 Q-46.25 28.9 -50.25 30.95 L-50.2 29.65 Q-49.6 1.6 -34.95 -22.1 -27.45 -32.1 -24.95 -44.5 -23.3 -50.35 -19.7 -50.75 -22.7 -41.3 -11.1 -34.15 0.5 -27.05 9.5 -33.1 18.55 -39.15 13.9 -50.9 M-43.45 26.2 L-43.8 26.1 Q-43.8 6.35 -37.25 -12.8 -43.8 6.35 -43.8 26.1 L-43.45 26.2 M-19.35 -7.35 Q-22.95 16.05 -37.1 27.8 L-38.35 27.5 -37.1 27.8 Q-22.95 16.05 -19.35 -7.35 M39.65 25.85 L38.65 26.1 Q26.65 18.55 20.3 -9.35 26.65 18.55 38.65 26.1 L39.65 25.85" fill="url(#gradient0)" fill-rule="evenodd" stroke="none"/>
    <path d="M-19.7 -50.75 Q-19.15 -55.3 -16.65 -59.4 -15.35 -74.45 -3.55 -75.7 L-2.95 -76.6 Q-2.15 -77.4 -1.0 -77.4 0.15 -77.4 0.95 -76.6 L1.55 -75.7 Q11.3 -74.35 12.75 -61.45 L13.9 -50.9 Q18.55 -39.15 9.5 -33.1 0.5 -27.05 -11.1 -34.15 -22.7 -41.3 -19.7 -50.75 M6.7 -46.15 L5.25 -45.95 Q4.15 -45.65 3.25 -44.75 1.85 -43.35 1.85 -41.35 L1.8 -41.3 1.85 -41.0 Q1.95 -39.25 3.25 -37.95 4.7 -36.5 6.7 -36.5 8.7 -36.5 10.1 -37.95 11.5 -39.35 11.55 -41.35 11.5 -43.35 10.1 -44.75 8.7 -46.15 6.7 -46.15 M-5.85 -45.55 L-6.85 -46.3 Q-7.95 -46.95 -9.25 -46.95 -11.25 -46.95 -12.65 -45.55 -14.05 -44.1 -14.05 -42.1 -14.05 -40.1 -12.65 -38.7 -11.25 -37.3 -9.25 -37.3 -8.0 -37.3 -7.0 -37.8 L-5.85 -38.7 Q-5.05 -39.5 -4.65 -40.5 -4.4 -41.2 -4.4 -42.0 L-4.45 -42.65 Q-4.6 -44.3 -5.85 -45.55" fill="url(#gradient1)" fill-rule="evenodd" stroke="none"/>
    <path d="M-50.3 33.5 Q-52.5 32.55 -50.55 31.1 L-50.3 30.95 -50.25 30.95 Q-46.25 28.9 -43.45 26.2 L-43.15 25.85 -38.35 27.15 -38.35 27.5 Q-38.0 31.85 -36.35 35.95 -35.8 38.6 -38.45 37.7 L-40.1 37.05 Q-41.8 36.55 -42.95 37.5 L-44.75 39.15 Q-46.45 40.7 -46.7 38.95 L-46.8 36.25 Q-46.95 34.75 -48.45 34.15 L-50.0 33.65 -50.3 33.5" fill="url(#gradient2)" fill-rule="evenodd" stroke="none"/>
    <path d="M45.95 24.05 Q48.15 27.05 51.1 29.4 52.95 31.35 50.15 31.9 L48.45 32.2 Q46.7 32.6 46.2 34.0 L45.45 36.35 45.35 36.65 Q44.65 38.45 43.65 37.15 L42.2 34.85 Q41.35 33.65 39.75 33.85 L38.15 34.2 Q35.4 34.6 36.4 32.3 L36.5 32.05 Q38.55 28.95 39.65 25.85 L40.2 24.05 45.0 22.75 45.95 24.05" fill="url(#gradient3)" fill-rule="evenodd" stroke="none"/>
    <path d="M10.45 -39.75 L9.55 -38.55 Q8.5 -37.45 7.05 -37.35 L6.7 -37.35 Q5.0 -37.35 3.8 -38.55 2.65 -39.7 2.65 -41.4 2.65 -43.1 3.8 -44.3 5.0 -45.45 6.7 -45.45 8.4 -45.45 9.55 -44.3 10.75 -43.1 10.75 -41.4 L10.45 -39.75 M5.7 -41.65 Q6.75 -42.65 5.35 -43.2 L4.9 -42.95 Q4.05 -42.1 5.15 -41.55 L5.7 -41.65 M-6.4 -45.15 Q-5.2 -43.95 -5.2 -42.25 -5.2 -41.35 -5.5 -40.6 -5.85 -39.95 -6.4 -39.4 -7.45 -38.3 -8.9 -38.2 L-9.25 -38.2 Q-10.95 -38.2 -12.15 -39.4 -13.3 -40.55 -13.3 -42.25 -13.3 -43.95 -12.15 -45.15 -10.95 -46.3 -9.25 -46.3 -7.55 -46.3 -6.4 -45.15 M-11.0 -43.05 Q-9.9 -44.05 -11.3 -44.6 L-11.8 -44.35 Q-12.65 -43.5 -11.5 -42.95 L-11.0 -43.05" fill="#884400" fill-rule="evenodd" stroke="none"/>
    <path d="M-19.7 -50.75 Q-19.15 -55.3 -16.65 -59.4 -15.35 -74.45 -3.55 -75.7 L-2.95 -76.6 Q-2.15 -77.4 -1.0 -77.4 0.15 -77.4 0.95 -76.6 L1.55 -75.7 Q11.3 -74.35 12.75 -61.45 L13.9 -50.9 Q17.6 -50.55 20.1 -39.45 22.6 -28.4 25.45 -24.45 42.2 -0.9 45.95 24.05 M45.35 36.65 Q46.9 59.9 30.35 70.8 -3.0 82.75 -36.7 66.5 -50.55 56.65 -50.3 33.5 M-50.25 30.95 L-50.2 29.65 Q-49.6 1.6 -34.95 -22.1 -27.45 -32.1 -24.95 -44.5 -23.3 -50.35 -19.7 -50.75 -22.7 -41.3 -11.1 -34.15 0.5 -27.05 9.5 -33.1 18.55 -39.15 13.9 -50.9 M-38.35 27.5 L-37.1 27.8 Q-22.95 16.05 -19.35 -7.35 M-37.25 -12.8 Q-43.8 6.35 -43.8 26.1 L-43.45 26.2 M20.3 -9.35 Q26.65 18.55 38.65 26.1 L39.65 25.85" fill="none" stroke="#3366cc" stroke-linecap="round" stroke-linejoin="round" stroke-width="0.05"/>
    <path d="M45.95 24.05 Q48.15 27.05 51.1 29.4 52.95 31.35 50.15 31.9 L48.45 32.2 Q46.7 32.6 46.2 34.0 L45.45 36.35 45.35 36.65 M-50.3 33.5 Q-52.5 32.55 -50.55 31.1 L-50.3 30.95 -50.25 30.95 M-50.3 33.5 L-50.0 33.65 -48.45 34.15 Q-46.95 34.75 -46.8 36.25 L-46.7 38.95 Q-46.45 40.7 -44.75 39.15 L-42.95 37.5 Q-41.8 36.55 -40.1 37.05 L-38.45 37.7 Q-35.8 38.6 -36.35 35.95 -38.0 31.85 -38.35 27.5 L-38.35 27.15 M-43.15 25.85 L-43.45 26.2 Q-46.25 28.9 -50.25 30.95 M45.95 24.05 L45.0 22.75 M40.2 24.05 L39.65 25.85 Q38.55 28.95 36.5 32.05 L36.4 32.3 Q35.4 34.6 38.15 34.2 L39.75 33.85 Q41.35 33.65 42.2 34.85 L43.65 37.15 Q44.65 38.45 45.35 36.65" fill="none" stroke="#3366cc" stroke-linecap="round" stroke-linejoin="round" stroke-width="0.05"/>
  </g>
  <defs>
    <radialGradient cx="0" cy="0" gradientTransform="matrix(0.0942, 0.0, 0.0, 0.0942, 0.0, 0.0)" gradientUnits="userSpaceOnUse" id="gradient0" r="819.2" spreadMethod="pad">
      <stop offset="0.3843137254901961" stop-color="#33ccff"/>
      <stop offset="1.0" stop-color="#3399ff"/>
    </radialGradient>
    <radialGradient cx="0" cy="0" gradientTransform="matrix(0.0314, 0.0, 0.0, 0.0314, 2.7, -54.55)" gradientUnits="userSpaceOnUse" id="gradient1" r="819.2" spreadMethod="pad">
      <stop offset="0.3843137254901961" stop-color="#33ccff"/>
      <stop offset="1.0" stop-color="#3399ff"/>
    </radialGradient>
    <radialGradient cx="0" cy="0" gradientTransform="matrix(0.0153, 0.0041, -0.0041, 0.0153, -38.55, 33.05)" gradientUnits="userSpaceOnUse" id="gradient2" r="819.2" spreadMethod="pad">
      <stop offset="0.3843137254901961" stop-color="#33ccff"/>
      <stop offset="1.0" stop-color="#3399ff"/>
    </radialGradient>
    <radialGradient cx="0" cy="0" gradientTransform="matrix(0.0153, -0.0041, 0.0041, 0.0153, 47.75, 27.95)" gradientUnits="userSpaceOnUse" id="gradient3" r="819.2" spreadMethod="pad">
      <stop offset="0.3843137254901961" stop-color="#33ccff"/>
      <stop offset="1.0" stop-color="#3399ff"/>
    </radialGradient>
  </defs>
</svg>
