<?xml version="1.0" encoding="UTF-8" standalone="no"?>
<svg xmlns:xlink="http://www.w3.org/1999/xlink" height="139.35px" width="80.45px" xmlns="http://www.w3.org/2000/svg">
  <g transform="matrix(1.0, 0.0, 0.0, 1.0, 40.25, 69.65)">
    <path d="M34.6 -29.4 L32.9 -27.1 Q23.45 -19.55 16.05 -29.3 L14.65 -33.0 Q9.2 -49.3 16.05 -61.35 19.65 -66.5 26.15 -65.95 28.0 -65.75 33.0 -63.5 37.95 -61.3 40.2 -49.35 39.85 -41.35 37.5 -35.15 36.3 -32.05 34.6 -29.4" fill="url(#gradient0)" fill-rule="evenodd" stroke="none"/>
    <path d="M26.15 -65.95 Q19.65 -66.5 16.05 -61.35 9.2 -49.3 14.65 -33.0 L16.05 -29.3 Q23.45 -19.55 32.9 -27.1 L34.6 -29.4 Q36.45 -28.05 34.7 -23.35 26.35 -6.65 34.7 13.65 38.85 24.1 39.15 34.55 39.0 57.85 24.1 66.05 16.9 69.0 9.95 69.05 0.35 69.05 -8.9 63.55 -12.1 61.65 -15.25 59.1 -31.9 47.85 -38.45 20.9 -44.65 -14.8 -29.7 -43.35 -18.75 -61.8 4.0 -66.0 19.15 -73.3 26.15 -65.95 M-8.9 15.8 L-10.0 17.3 Q-12.05 19.85 -15.0 22.1 L-15.2 22.3 Q-16.95 24.15 -14.2 24.65 L-12.6 24.85 Q-11.0 25.2 -10.6 26.6 L-10.0 29.25 Q-9.45 30.9 -8.05 29.1 L-6.55 27.1 Q-5.6 25.95 -3.85 26.2 L-2.15 26.5 Q0.65 26.9 -0.4 24.4 -2.6 20.95 -3.75 17.05 L-4.0 16.15 -8.9 15.8 M7.2 -15.5 Q5.55 2.75 -3.75 17.05 5.55 2.75 7.2 -15.5 M-19.3 -28.0 Q-21.25 -0.55 -10.0 17.3 -21.25 -0.55 -19.3 -28.0" fill="url(#gradient1)" fill-rule="evenodd" stroke="none"/>
    <path d="M-4.0 16.15 L-3.75 17.05 Q-2.6 20.95 -0.4 24.4 0.65 26.9 -2.15 26.5 L-3.85 26.2 Q-5.6 25.95 -6.55 27.1 L-8.05 29.1 Q-9.45 30.9 -10.0 29.25 L-10.6 26.6 Q-11.0 25.2 -12.6 24.85 L-14.2 24.65 Q-16.95 24.15 -15.2 22.3 L-15.0 22.1 Q-12.05 19.85 -10.0 17.3 L-8.9 15.8 -4.0 16.15" fill="url(#gradient2)" fill-rule="evenodd" stroke="none"/>
    <path d="M-8.9 63.55 Q0.35 69.05 9.95 69.05 L5.8 69.65 Q2.15 69.95 -5.25 68.15 -7.85 66.4 -8.9 63.55" fill="url(#gradient3)" fill-rule="evenodd" stroke="none"/>
    <path d="M26.15 -65.95 Q19.65 -66.5 16.05 -61.35 9.2 -49.3 14.65 -33.0 L16.05 -29.3 Q23.45 -19.55 32.9 -27.1 L34.6 -29.4 Q36.3 -32.05 37.5 -35.15 39.85 -41.35 40.2 -49.35 37.95 -61.3 33.0 -63.5 28.0 -65.75 26.15 -65.95 19.15 -73.3 4.0 -66.0 -18.75 -61.8 -29.7 -43.35 -44.65 -14.8 -38.45 20.9 -31.9 47.85 -15.25 59.1 -12.1 61.65 -8.9 63.55 0.35 69.05 9.95 69.05 16.9 69.0 24.1 66.05 39.0 57.85 39.15 34.55 38.85 24.1 34.7 13.65 26.35 -6.65 34.7 -23.35 36.45 -28.05 34.6 -29.4 M-8.9 15.8 L-10.0 17.3 Q-12.05 19.85 -15.0 22.1 L-15.2 22.3 Q-16.95 24.15 -14.2 24.65 L-12.6 24.85 Q-11.0 25.2 -10.6 26.6 L-10.0 29.25 Q-9.45 30.9 -8.05 29.1 L-6.55 27.1 Q-5.6 25.95 -3.85 26.2 L-2.15 26.5 Q0.65 26.9 -0.4 24.4 -2.6 20.95 -3.75 17.05 L-4.0 16.15 M-10.0 17.3 Q-21.25 -0.55 -19.3 -28.0 M-3.75 17.05 Q5.55 2.75 7.2 -15.5 M9.95 69.05 L5.8 69.65 Q2.15 69.95 -5.25 68.15 -7.85 66.4 -8.9 63.55" fill="none" stroke="#660099" stroke-linecap="round" stroke-linejoin="round" stroke-width="0.05"/>
  </g>
  <defs>
    <radialGradient cx="0" cy="0" gradientTransform="matrix(0.0316, 0.0, 0.0, 0.0316, 30.95, -48.35)" gradientUnits="userSpaceOnUse" id="gradient0" r="819.2" spreadMethod="pad">
      <stop offset="0.0" stop-color="#9900cc"/>
      <stop offset="0.5294117647058824" stop-color="#9933ff"/>
      <stop offset="1.0" stop-color="#6633cc"/>
    </radialGradient>
    <radialGradient cx="0" cy="0" gradientTransform="matrix(0.1043, 0.0, 0.0, 0.1043, 7.2, -15.5)" gradientUnits="userSpaceOnUse" id="gradient1" r="819.2" spreadMethod="pad">
      <stop offset="0.0" stop-color="#9900cc"/>
      <stop offset="0.5294117647058824" stop-color="#9933ff"/>
      <stop offset="1.0" stop-color="#6633cc"/>
    </radialGradient>
    <radialGradient cx="0" cy="0" gradientTransform="matrix(0.0157, 0.0012, -0.0012, 0.0157, -3.15, 22.0)" gradientUnits="userSpaceOnUse" id="gradient2" r="819.2" spreadMethod="pad">
      <stop offset="0.0" stop-color="#9900cc"/>
      <stop offset="0.5294117647058824" stop-color="#9933ff"/>
      <stop offset="1.0" stop-color="#6633cc"/>
    </radialGradient>
    <radialGradient cx="0" cy="0" gradientTransform="matrix(0.0198, 0.0, 0.0, 0.0198, -6.05, 66.65)" gradientUnits="userSpaceOnUse" id="gradient3" r="819.2" spreadMethod="pad">
      <stop offset="0.0" stop-color="#9900cc"/>
      <stop offset="0.5294117647058824" stop-color="#9933ff"/>
      <stop offset="1.0" stop-color="#6633cc"/>
    </radialGradient>
  </defs>
</svg>
