<?xml version="1.0" encoding="UTF-8" standalone="no"?>
<svg xmlns:xlink="http://www.w3.org/1999/xlink" height="184.4px" width="131.9px" xmlns="http://www.w3.org/2000/svg">
  <g transform="matrix(1.0, 0.0, 0.0, 1.0, 65.95, 92.2)">
    <path d="M16.65 -67.4 Q18.25 -66.65 18.8 -65.55 20.05 -57.9 23.65 -49.25 25.45 -44.95 27.8 -40.45 38.55 -27.45 44.5 -12.5 47.1 -5.8 48.8 1.3 52.8 21.3 37.85 41.65 34.45 46.3 30.6 50.05 L30.15 50.45 Q18.95 61.05 4.05 63.9 L3.1 64.05 -0.55 64.55 -0.65 64.55 -1.6 64.6 Q-13.4 64.7 -26.7 52.1 L-28.2 50.65 Q-35.45 43.4 -43.15 32.4 -53.45 14.0 -44.4 -9.8 -40.9 -19.15 -34.4 -29.3 -30.7 -35.75 -27.45 -42.15 -22.75 -51.55 -19.1 -60.95 -18.55 -64.0 -15.75 -65.95 -11.05 -69.25 0.0 -69.4 12.25 -69.55 16.65 -67.4" fill="url(#gradient0)" fill-rule="evenodd" stroke="none"/>
    <path d="M-15.75 -65.95 L-14.15 -75.65 Q-13.9 -88.2 -2.95 -90.4 L-2.35 -91.4 Q-1.55 -92.2 -0.4 -92.2 0.75 -92.2 1.55 -91.4 L2.0 -90.85 Q11.45 -90.35 13.0 -78.45 L16.65 -67.4 Q12.25 -69.55 0.0 -69.4 -11.05 -69.25 -15.75 -65.95" fill="url(#gradient1)" fill-rule="evenodd" stroke="none"/>
    <path d="M23.65 -49.25 Q34.2 -34.3 51.7 -22.1 L52.1 -20.85 Q52.75 -18.2 51.75 -15.55 L51.5 -15.0 Q46.65 -14.7 44.5 -12.5 38.55 -27.45 27.8 -40.45 25.45 -44.95 23.65 -49.25" fill="url(#gradient2)" fill-rule="evenodd" stroke="none"/>
    <path d="M52.1 -20.85 Q55.4 -22.85 58.4 -26.2 L58.65 -26.4 Q60.65 -27.95 60.9 -25.2 L61.0 -23.55 Q61.2 -21.95 62.6 -21.45 L65.2 -20.65 Q66.8 -19.95 64.9 -18.7 L62.8 -17.35 Q61.6 -16.5 61.65 -14.7 L61.85 -13.0 Q62.0 -10.2 59.65 -11.4 56.0 -14.1 51.75 -15.55 52.75 -18.2 52.1 -20.85" fill="url(#gradient3)" fill-rule="evenodd" stroke="none"/>
    <path d="M-52.2 -16.75 Q-56.2 -15.3 -59.6 -12.75 -62.0 -11.55 -61.8 -14.35 L-61.65 -16.05 Q-61.6 -17.85 -62.8 -18.7 L-64.9 -20.05 Q-66.8 -21.3 -65.2 -22.0 L-62.6 -22.8 Q-61.2 -23.3 -61.0 -24.9 L-60.9 -26.55 Q-60.65 -29.3 -58.6 -27.75 L-58.4 -27.55 Q-55.55 -24.3 -52.35 -22.35 L-52.75 -22.1 Q-53.55 -19.0 -52.2 -16.75" fill="url(#gradient4)" fill-rule="evenodd" stroke="none"/>
    <path d="M-44.4 -9.8 Q-45.8 -13.6 -51.7 -16.05 L-52.2 -16.75 Q-53.55 -19.0 -52.75 -22.1 L-52.35 -22.35 Q-40.35 -30.3 -27.45 -42.15 -30.7 -35.75 -34.4 -29.3 -40.9 -19.15 -44.4 -9.8" fill="url(#gradient5)" fill-rule="evenodd" stroke="none"/>
    <path d="M30.15 50.45 Q21.2 70.95 17.15 90.2 L10.75 90.0 Q8.55 76.15 3.1 64.05 L4.05 63.9 Q18.95 61.05 30.15 50.45" fill="url(#gradient6)" fill-rule="evenodd" stroke="none"/>
    <path d="M-0.65 64.55 Q-5.45 77.65 -6.1 91.45 L-12.7 91.25 Q-17.65 69.4 -28.2 50.65 L-26.7 52.1 Q-13.4 64.7 -1.6 64.6 L-0.65 64.55" fill="url(#gradient7)" fill-rule="evenodd" stroke="none"/>
    <path d="M-15.75 -65.95 L-14.15 -75.65 Q-13.9 -88.2 -2.95 -90.4 L-2.35 -91.4 Q-1.55 -92.2 -0.4 -92.2 0.75 -92.2 1.55 -91.4 L2.0 -90.85 Q11.45 -90.35 13.0 -78.45 L16.65 -67.4 Q18.25 -66.65 18.8 -65.55 20.05 -57.9 23.65 -49.25 34.2 -34.3 51.7 -22.1 L52.1 -20.85 Q55.4 -22.85 58.4 -26.2 L58.65 -26.4 Q60.65 -27.95 60.9 -25.2 L61.0 -23.55 Q61.2 -21.95 62.6 -21.45 L65.2 -20.65 Q66.8 -19.95 64.9 -18.7 L62.8 -17.35 Q61.6 -16.5 61.65 -14.7 L61.85 -13.0 Q62.0 -10.2 59.65 -11.4 56.0 -14.1 51.75 -15.55 L51.5 -15.0 Q46.65 -14.7 44.5 -12.5 47.1 -5.8 48.8 1.3 52.8 21.3 37.85 41.65 34.45 46.3 30.6 50.05 L30.15 50.45 Q21.2 70.95 17.15 90.2 L10.75 90.0 Q8.55 76.15 3.1 64.05 L-0.55 64.55 -0.65 64.55 Q-5.45 77.65 -6.1 91.45 L-12.7 91.25 Q-17.65 69.4 -28.2 50.65 -35.45 43.4 -43.15 32.4 -53.45 14.0 -44.4 -9.8 -45.8 -13.6 -51.7 -16.05 L-52.2 -16.75 Q-56.2 -15.3 -59.6 -12.75 -62.0 -11.55 -61.8 -14.35 L-61.65 -16.05 Q-61.6 -17.85 -62.8 -18.7 L-64.9 -20.05 Q-66.8 -21.3 -65.2 -22.0 L-62.6 -22.8 Q-61.2 -23.3 -61.0 -24.9 L-60.9 -26.55 Q-60.65 -29.3 -58.6 -27.75 L-58.4 -27.55 Q-55.55 -24.3 -52.35 -22.35 -40.35 -30.3 -27.45 -42.15 -22.75 -51.55 -19.1 -60.95 -18.55 -64.0 -15.75 -65.95 -11.05 -69.25 0.0 -69.4 12.25 -69.55 16.65 -67.4 M44.5 -12.5 Q38.55 -27.45 27.8 -40.45 25.45 -44.95 23.65 -49.25 M52.1 -20.85 Q52.75 -18.2 51.75 -15.55 M-52.2 -16.75 Q-53.55 -19.0 -52.75 -22.1 L-52.35 -22.35 M-27.45 -42.15 Q-30.7 -35.75 -34.4 -29.3 -40.9 -19.15 -44.4 -9.8 M-28.2 50.65 L-26.7 52.1 Q-13.4 64.7 -1.6 64.6 L-0.65 64.55 M3.1 64.05 L4.05 63.9 Q18.95 61.05 30.15 50.45" fill="none" stroke="#990099" stroke-linecap="round" stroke-linejoin="round" stroke-width="0.05"/>
  </g>
  <defs>
    <radialGradient cx="0" cy="0" gradientTransform="matrix(0.1169, 0.0, 0.0, 0.1169, -26.3, 17.35)" gradientUnits="userSpaceOnUse" id="gradient0" r="819.2" spreadMethod="pad">
      <stop offset="0.3843137254901961" stop-color="#ff00ff"/>
      <stop offset="1.0" stop-color="#ff66ff"/>
    </radialGradient>
    <radialGradient cx="0" cy="0" gradientTransform="matrix(0.0272, 0.0, 0.0, 0.0272, 1.2, -80.45)" gradientUnits="userSpaceOnUse" id="gradient1" r="819.2" spreadMethod="pad">
      <stop offset="0.3843137254901961" stop-color="#ff00ff"/>
      <stop offset="1.0" stop-color="#ff66ff"/>
    </radialGradient>
    <radialGradient cx="0" cy="0" gradientTransform="matrix(0.0404, 0.0, 0.0, 0.0404, 46.85, -25.65)" gradientUnits="userSpaceOnUse" id="gradient2" r="819.2" spreadMethod="pad">
      <stop offset="0.3843137254901961" stop-color="#ff00ff"/>
      <stop offset="1.0" stop-color="#ff66ff"/>
    </radialGradient>
    <radialGradient cx="0" cy="0" gradientTransform="matrix(0.0152, 0.0, 0.0, 0.0152, 61.65, -14.7)" gradientUnits="userSpaceOnUse" id="gradient3" r="819.2" spreadMethod="pad">
      <stop offset="0.3843137254901961" stop-color="#ff00ff"/>
      <stop offset="1.0" stop-color="#ff66ff"/>
    </radialGradient>
    <radialGradient cx="0" cy="0" gradientTransform="matrix(0.0, 0.0158, -0.0158, 0.0, -57.4, -15.65)" gradientUnits="userSpaceOnUse" id="gradient4" r="819.2" spreadMethod="pad">
      <stop offset="0.3843137254901961" stop-color="#ff00ff"/>
      <stop offset="1.0" stop-color="#ff66ff"/>
    </radialGradient>
    <radialGradient cx="0" cy="0" gradientTransform="matrix(0.0318, 0.0, 0.0, 0.0318, -45.25, -23.15)" gradientUnits="userSpaceOnUse" id="gradient5" r="819.2" spreadMethod="pad">
      <stop offset="0.3843137254901961" stop-color="#ff00ff"/>
      <stop offset="1.0" stop-color="#ff66ff"/>
    </radialGradient>
    <radialGradient cx="0" cy="0" gradientTransform="matrix(0.0383, 0.0, 0.0, 0.0383, 16.85, 59.65)" gradientUnits="userSpaceOnUse" id="gradient6" r="819.2" spreadMethod="pad">
      <stop offset="0.3843137254901961" stop-color="#ff00ff"/>
      <stop offset="1.0" stop-color="#ff66ff"/>
    </radialGradient>
    <radialGradient cx="0" cy="0" gradientTransform="matrix(0.0324, 0.0, 0.0, 0.0324, -12.65, 72.2)" gradientUnits="userSpaceOnUse" id="gradient7" r="819.2" spreadMethod="pad">
      <stop offset="0.3843137254901961" stop-color="#ff00ff"/>
      <stop offset="1.0" stop-color="#ff66ff"/>
    </radialGradient>
  </defs>
</svg>
